<?xml version="1.0" encoding="UTF-8" standalone="no"?>
<!-- Created with Inkscape (http://www.inkscape.org/) -->

<svg
   xmlns:dc="http://purl.org/dc/elements/1.1/"
   xmlns:cc="http://creativecommons.org/ns#"
   xmlns:rdf="http://www.w3.org/1999/02/22-rdf-syntax-ns#"
   xmlns:svg="http://www.w3.org/2000/svg"
   xmlns="http://www.w3.org/2000/svg"
   xmlns:sodipodi="http://sodipodi.sourceforge.net/DTD/sodipodi-0.dtd"
   xmlns:inkscape="http://www.inkscape.org/namespaces/inkscape"
   version="1.1"
   id="svg2"
   xml:space="preserve"
   width="70.779999mm"
   height="128.40001mm"
   viewBox="0 0 267.51495 485.29135"
   sodipodi:docname="Rp_Lockbox.svg"
   inkscape:version="0.92.2 (5c3e80d, 2017-08-06)"><metadata
     id="metadata8"><rdf:RDF><cc:Work
         rdf:about=""><dc:format>image/svg+xml</dc:format><dc:type
           rdf:resource="http://purl.org/dc/dcmitype/StillImage" /><dc:title></dc:title></cc:Work></rdf:RDF></metadata><defs
     id="defs6"><clipPath
       clipPathUnits="userSpaceOnUse"
       id="clipPath18"><path
         d="m 199.22,363.97 v 0 c 0.782,-0.001 1.416,-0.636 1.416,-1.419 L 200.64,1.42 v 0 C 200.636,0.635 200.002,0 199.219,0 H 1.42 V 0 C 0.635,0 0,0.635 0,1.417 v 361.133 0 c 0,0.784 0.635,1.419 1.417,1.419 l 197.803,0.001"
         id="path16"
         inkscape:connector-curvature="0"
         style="clip-rule:evenodd" /></clipPath></defs><sodipodi:namedview
     pagecolor="#ffffff"
     bordercolor="#666666"
     borderopacity="1"
     objecttolerance="10"
     gridtolerance="10"
     guidetolerance="10"
     inkscape:pageopacity="0"
     inkscape:pageshadow="2"
     inkscape:window-width="1280"
     inkscape:window-height="737"
     id="namedview4"
     showgrid="false"
     inkscape:zoom="1.9452232"
     inkscape:cx="200.8107"
     inkscape:cy="342.4145"
     inkscape:window-x="-8"
     inkscape:window-y="-8"
     inkscape:window-maximized="1"
     inkscape:current-layer="g10"
     units="mm" /><g
     id="g10"
     inkscape:groupmode="layer"
     inkscape:label="Rp_Lockbox"
     transform="matrix(1.3333333,0,0,-1.3333333,0,485.29135)"><path
       d="m 40.39,142.58 v 0 c 0.004,-0.78 0.638,-1.415 1.421,-1.415 l 31.179,0.005 v 0 c 0.785,-0.005 1.419,0.63 1.419,1.413 l 10e-4,49.607 v 0 c -10e-4,0.782 -0.635,1.416 -1.418,1.416 L 41.81,193.61 v 0 c -0.782,-0.004 -1.416,-0.638 -1.416,-1.421 z"
       style="fill:#ffffff;fill-opacity:1;fill-rule:evenodd;stroke:#0a128f;stroke-width:0.75;stroke-linecap:round;stroke-linejoin:round;stroke-miterlimit:10;stroke-dasharray:none;stroke-opacity:1"
       id="path172"
       inkscape:connector-curvature="0" /><path
       d="m 13.23,11.29 v 0 C 12.598,9.487 12.598,7.52 13.235,5.717 L 13.23,5.72 C 13.635,4.584 14.706,3.827 15.908,3.827 L 26.33,3.83 v 0 c 1.2,-0.003 2.271,0.754 2.671,1.887 L 29,5.72 c 0.639,1.8 0.639,3.767 0.001,5.57 H 29 c -0.399,1.134 -1.47,1.891 -2.672,1.891 L 15.91,13.18 v 0 c -1.204,10e-4 -2.275,-0.756 -2.675,-1.89 z"
       style="fill:#ffffff;fill-opacity:1;fill-rule:evenodd;stroke:#0a128f;stroke-width:0.75;stroke-linecap:round;stroke-linejoin:round;stroke-miterlimit:10;stroke-dasharray:none;stroke-opacity:1"
       id="path174"
       inkscape:connector-curvature="0" /><path
       d="m 13.23,358.25 v 0 c -0.632,-1.802 -0.632,-3.769 0.005,-5.572 l -0.005,0.002 c 0.405,-1.135 1.476,-1.893 2.678,-1.893 l 10.422,0.003 v 0 c 1.2,-0.003 2.271,0.755 2.671,1.888 L 29,352.68 c 0.639,1.801 0.639,3.768 0.001,5.571 L 29,358.25 c -0.399,1.134 -1.47,1.892 -2.672,1.892 L 15.91,360.14 v 0 c -1.204,0.002 -2.275,-0.756 -2.675,-1.889 z"
       style="fill:#ffffff;fill-opacity:1;fill-rule:evenodd;stroke:#0a128f;stroke-width:0.75;stroke-linecap:round;stroke-linejoin:round;stroke-miterlimit:10;stroke-dasharray:none;stroke-opacity:1"
       id="path176"
       inkscape:connector-curvature="0" /><path
       d="m 21.32,34.59 0.46,0.03 0.13,0.01 0.14,0.02 0.11,0.01 0.45,0.08 0.14,0.03 0.13,0.03 0.13,0.04 0.44,0.14 0.13,0.04 0.13,0.05 0.11,0.05 0.42,0.19 0.12,0.06 0.12,0.07 0.09,0.05 0.4,0.24 0.11,0.07 0.12,0.08 0.11,0.08 0.36,0.29 0.11,0.08 0.1,0.1 0.08,0.07 0.33,0.33 0.09,0.09 0.09,0.11 0.07,0.08 0.29,0.37 0.08,0.1 0.08,0.12 0.07,0.12 0.24,0.39 0.07,0.12 0.06,0.12 0.05,0.1 0.19,0.42 0.05,0.12 0.05,0.13 0.04,0.11 0.13,0.45 0.04,0.13 0.03,0.13 0.03,0.13 0.09,0.46 0.02,0.13 0.01,0.14 0.01,0.11 0.03,0.46 v 0.13 0.14 0.13 l -0.03,0.46 -0.01,0.14 -0.02,0.13 -0.01,0.11 -0.09,0.46 -0.03,0.13 -0.03,0.13 -0.04,0.13 -0.13,0.45 -0.05,0.12 -0.05,0.13 -0.04,0.11 -0.19,0.42 -0.06,0.12 -0.07,0.12 -0.05,0.09 -0.24,0.4 -0.07,0.11 -0.08,0.12 -0.08,0.11 -0.29,0.36 -0.09,0.11 -0.09,0.1 -0.07,0.08 -0.33,0.33 -0.1,0.09 -0.1,0.09 -0.09,0.07 -0.36,0.29 -0.11,0.08 -0.11,0.08 -0.12,0.07 -0.4,0.24 -0.12,0.07 -0.12,0.06 -0.09,0.05 -0.42,0.19 -0.13,0.05 -0.12,0.05 -0.12,0.04 -0.44,0.14 -0.13,0.03 -0.13,0.04 -0.14,0.02 -0.45,0.09 -0.13,0.02 -0.14,0.01 -0.11,0.01 -0.46,0.03 -0.14,0.01 H 21.05 L 20.92,48.75 20.46,48.72 20.32,48.71 20.19,48.69 20.07,48.68 19.62,48.59 19.49,48.57 19.35,48.53 19.22,48.5 18.78,48.36 18.65,48.31 18.53,48.27 18.42,48.22 18,48.03 17.87,47.97 17.75,47.9 17.66,47.85 17.27,47.61 17.15,47.54 17.04,47.46 16.93,47.38 16.56,47.09 16.46,47 16.36,46.91 16.28,46.84 15.95,46.51 15.86,46.41 15.77,46.31 15.7,46.22 15.41,45.86 15.33,45.75 15.25,45.64 15.17,45.52 14.94,45.12 14.87,45.01 14.81,44.88 14.76,44.79 14.57,44.37 14.52,44.25 14.47,44.12 14.43,44.01 14.29,43.56 14.25,43.43 14.22,43.3 14.19,43.17 14.11,42.71 14.09,42.58 14.07,42.44 V 42.33 L 14.04,41.87 14.03,41.73 V 41.6 l 0.01,-0.13 0.03,-0.46 0.01,-0.14 0.01,-0.13 0.02,-0.11 0.08,-0.46 0.03,-0.13 0.03,-0.13 0.04,-0.13 0.14,-0.45 0.04,-0.12 0.05,-0.13 0.05,-0.11 0.19,-0.42 0.06,-0.13 0.06,-0.12 0.06,-0.09 0.23,-0.39 0.07,-0.12 0.08,-0.11 0.09,-0.11 0.29,-0.37 0.08,-0.1 0.09,-0.1 0.08,-0.08 0.33,-0.33 0.09,-0.09 0.1,-0.09 0.09,-0.07 0.37,-0.29 0.1,-0.08 0.11,-0.08 0.13,-0.07 0.39,-0.24 0.12,-0.07 0.12,-0.06 0.1,-0.05 0.42,-0.19 0.12,-0.05 0.13,-0.05 0.11,-0.04 0.44,-0.14 0.13,-0.04 0.14,-0.03 0.13,-0.03 0.45,-0.08 0.14,-0.02 0.13,-0.01 0.12,-0.01 0.46,-0.03 0.13,-0.01 h 0.14 l 0.13,0.01 m 3.62,7.08 c 0.005,2.113 -1.708,3.826 -3.822,3.826 -2.113,0 -3.827,-1.713 -3.827,-3.827 0,-2.113 1.714,-3.826 3.827,-3.826 2.114,0 3.827,1.713 3.827,3.826 z"
       style="fill:none;fill-opacity:1;fill-rule:evenodd;stroke:#0a128f;stroke-width:0.75;stroke-linecap:round;stroke-linejoin:round;stroke-miterlimit:10;stroke-dasharray:none;stroke-opacity:1"
       id="path178"
       inkscape:connector-curvature="0" /><path
       d="m 21.32,34.59 0.46,0.03 0.13,0.01 0.14,0.02 0.11,0.01 0.45,0.08 0.14,0.03 0.13,0.03 0.13,0.04 0.44,0.14 0.13,0.04 0.13,0.05 0.11,0.05 0.42,0.19 0.12,0.06 0.12,0.07 0.09,0.05 0.4,0.24 0.11,0.07 0.12,0.08 0.11,0.08 0.36,0.29 0.11,0.08 0.1,0.1 0.08,0.07 0.33,0.33 0.09,0.09 0.09,0.11 0.07,0.08 0.29,0.37 0.08,0.1 0.08,0.12 0.07,0.12 0.24,0.39 0.07,0.12 0.06,0.12 0.05,0.1 0.19,0.42 0.05,0.12 0.05,0.13 0.04,0.11 0.13,0.45 0.04,0.13 0.03,0.13 0.03,0.13 0.09,0.46 0.02,0.13 0.01,0.14 0.01,0.11 0.03,0.46 v 0.13 0.14 0.13 l -0.03,0.46 -0.01,0.14 -0.02,0.13 -0.01,0.11 -0.09,0.46 -0.03,0.13 -0.03,0.13 -0.04,0.13 -0.13,0.45 -0.05,0.12 -0.05,0.13 -0.04,0.11 -0.19,0.42 -0.06,0.12 -0.07,0.12 -0.05,0.09 -0.24,0.4 -0.07,0.11 -0.08,0.12 -0.08,0.11 -0.29,0.36 -0.09,0.11 -0.09,0.1 -0.07,0.08 -0.33,0.33 -0.1,0.09 -0.1,0.09 -0.09,0.07 -0.36,0.29 -0.11,0.08 -0.11,0.08 -0.12,0.07 -0.4,0.24 -0.12,0.07 -0.12,0.06 -0.09,0.05 -0.42,0.19 -0.13,0.05 -0.12,0.05 -0.12,0.04 -0.44,0.14 -0.13,0.03 -0.13,0.04 -0.14,0.02 -0.45,0.09 -0.13,0.02 -0.14,0.01 -0.11,0.01 -0.46,0.03 -0.14,0.01 H 21.05 L 20.92,48.75 20.46,48.72 20.32,48.71 20.19,48.69 20.07,48.68 19.62,48.59 19.49,48.57 19.35,48.53 19.22,48.5 18.78,48.36 18.65,48.31 18.53,48.27 18.42,48.22 18,48.03 17.87,47.97 17.75,47.9 17.66,47.85 17.27,47.61 17.15,47.54 17.04,47.46 16.93,47.38 16.56,47.09 16.46,47 16.36,46.91 16.28,46.84 15.95,46.51 15.86,46.41 15.77,46.31 15.7,46.22 15.41,45.86 15.33,45.75 15.25,45.64 15.17,45.52 14.94,45.12 14.87,45.01 14.81,44.88 14.76,44.79 14.57,44.37 14.52,44.25 14.47,44.12 14.43,44.01 14.29,43.56 14.25,43.43 14.22,43.3 14.19,43.17 14.11,42.71 14.09,42.58 14.07,42.44 V 42.33 L 14.04,41.87 14.03,41.73 V 41.6 l 0.01,-0.13 0.03,-0.46 0.01,-0.14 0.01,-0.13 0.02,-0.11 0.08,-0.46 0.03,-0.13 0.03,-0.13 0.04,-0.13 0.14,-0.45 0.04,-0.12 0.05,-0.13 0.05,-0.11 0.19,-0.42 0.06,-0.13 0.06,-0.12 0.06,-0.09 0.23,-0.39 0.07,-0.12 0.08,-0.11 0.09,-0.11 0.29,-0.37 0.08,-0.1 0.09,-0.1 0.08,-0.08 0.33,-0.33 0.09,-0.09 0.1,-0.09 0.09,-0.07 0.37,-0.29 0.1,-0.08 0.11,-0.08 0.13,-0.07 0.39,-0.24 0.12,-0.07 0.12,-0.06 0.1,-0.05 0.42,-0.19 0.12,-0.05 0.13,-0.05 0.11,-0.04 0.44,-0.14 0.13,-0.04 0.14,-0.03 0.13,-0.03 0.45,-0.08 0.14,-0.02 0.13,-0.01 0.12,-0.01 0.46,-0.03 0.13,-0.01 h 0.14 l 0.13,0.01"
       style="fill:none;stroke:#0a128f;stroke-width:0.75;stroke-linecap:round;stroke-linejoin:round;stroke-miterlimit:10;stroke-dasharray:none;stroke-opacity:1"
       id="path180"
       inkscape:connector-curvature="0" /><path
       d="m 21.32,315.22 0.46,0.03 0.13,0.01 0.14,0.01 0.11,0.02 0.45,0.08 0.14,0.03 0.13,0.03 0.13,0.04 0.44,0.14 0.13,0.04 0.13,0.05 0.11,0.05 0.42,0.19 0.12,0.06 0.12,0.07 0.09,0.05 0.4,0.23 0.11,0.08 0.12,0.08 0.11,0.08 0.36,0.29 0.11,0.08 0.1,0.1 0.08,0.07 0.33,0.33 0.09,0.09 0.09,0.11 0.07,0.08 0.29,0.37 0.08,0.1 0.08,0.12 0.07,0.12 0.24,0.39 0.07,0.12 0.06,0.12 0.05,0.1 0.19,0.42 0.05,0.12 0.05,0.13 0.04,0.11 0.13,0.45 0.04,0.13 0.03,0.13 0.03,0.13 0.09,0.46 0.02,0.13 0.01,0.14 0.01,0.11 0.03,0.46 v 0.13 0.14 0.13 l -0.03,0.46 -0.01,0.14 -0.02,0.13 -0.01,0.11 -0.09,0.46 -0.03,0.13 -0.03,0.13 -0.04,0.13 -0.13,0.44 -0.05,0.13 -0.05,0.13 -0.04,0.11 -0.19,0.42 -0.06,0.12 -0.07,0.12 -0.05,0.09 -0.24,0.4 -0.07,0.11 -0.08,0.12 -0.08,0.11 -0.29,0.36 -0.09,0.11 -0.09,0.1 -0.07,0.08 -0.33,0.33 -0.1,0.09 -0.1,0.09 -0.09,0.07 -0.36,0.29 -0.11,0.08 -0.11,0.08 -0.12,0.07 -0.4,0.24 -0.12,0.07 -0.12,0.06 -0.09,0.05 -0.42,0.19 -0.13,0.05 -0.12,0.05 -0.12,0.04 -0.44,0.14 -0.13,0.03 -0.13,0.04 -0.14,0.02 -0.45,0.09 -0.13,0.02 -0.14,0.01 -0.11,0.01 -0.46,0.03 -0.14,0.01 h -0.13 l -0.13,-0.01 -0.46,-0.03 -0.14,-0.01 -0.13,-0.02 -0.12,-0.01 -0.45,-0.09 -0.13,-0.02 -0.14,-0.04 -0.13,-0.03 -0.44,-0.14 -0.13,-0.05 -0.12,-0.04 -0.11,-0.05 -0.42,-0.19 -0.13,-0.06 -0.12,-0.07 -0.09,-0.05 -0.39,-0.24 -0.12,-0.07 -0.11,-0.08 -0.11,-0.08 -0.37,-0.29 -0.1,-0.09 -0.1,-0.09 -0.08,-0.07 -0.33,-0.33 -0.09,-0.1 -0.09,-0.1 -0.07,-0.09 -0.29,-0.36 -0.08,-0.11 -0.08,-0.11 -0.08,-0.12 -0.23,-0.4 -0.07,-0.11 -0.06,-0.13 -0.05,-0.09 -0.19,-0.42 -0.05,-0.12 -0.05,-0.13 -0.04,-0.12 -0.14,-0.44 -0.04,-0.13 -0.03,-0.13 -0.03,-0.13 -0.08,-0.46 -0.02,-0.13 -0.02,-0.14 v -0.11 l -0.03,-0.46 -0.01,-0.14 v -0.13 l 0.01,-0.13 0.03,-0.46 0.01,-0.14 0.01,-0.13 0.02,-0.11 0.08,-0.46 0.03,-0.13 0.03,-0.13 0.04,-0.13 0.14,-0.45 0.04,-0.12 0.05,-0.13 0.05,-0.11 0.19,-0.42 0.06,-0.13 0.06,-0.12 0.06,-0.09 0.23,-0.39 0.07,-0.12 0.08,-0.11 0.09,-0.11 0.29,-0.37 0.08,-0.1 0.09,-0.1 0.08,-0.08 0.33,-0.33 0.09,-0.09 0.1,-0.09 0.09,-0.07 0.37,-0.29 0.1,-0.08 0.11,-0.08 0.13,-0.08 0.39,-0.23 0.12,-0.07 0.12,-0.06 0.1,-0.05 0.42,-0.19 0.12,-0.05 0.13,-0.05 0.11,-0.04 0.44,-0.14 0.13,-0.04 0.14,-0.03 0.13,-0.03 0.45,-0.08 0.14,-0.02 0.13,-0.01 0.12,-0.01 0.46,-0.03 0.13,-0.01 h 0.14 l 0.13,0.01 m 3.62,7.08 c 0.005,2.113 -1.708,3.826 -3.822,3.826 -2.113,0 -3.827,-1.713 -3.827,-3.827 0,-2.113 1.714,-3.827 3.827,-3.827 2.114,0 3.827,1.714 3.827,3.827 z"
       style="fill:#e0e0e0;fill-opacity:1;fill-rule:evenodd;stroke:#0a128f;stroke-width:0.75;stroke-linecap:round;stroke-linejoin:round;stroke-miterlimit:10;stroke-dasharray:none;stroke-opacity:1"
       id="path184"
       inkscape:connector-curvature="0" /><path
       d="m 21.32,315.22 0.46,0.03 0.13,0.01 0.14,0.01 0.11,0.02 0.45,0.08 0.14,0.03 0.13,0.03 0.13,0.04 0.44,0.14 0.13,0.04 0.13,0.05 0.11,0.05 0.42,0.19 0.12,0.06 0.12,0.07 0.09,0.05 0.4,0.23 0.11,0.08 0.12,0.08 0.11,0.08 0.36,0.29 0.11,0.08 0.1,0.1 0.08,0.07 0.33,0.33 0.09,0.09 0.09,0.11 0.07,0.08 0.29,0.37 0.08,0.1 0.08,0.12 0.07,0.12 0.24,0.39 0.07,0.12 0.06,0.12 0.05,0.1 0.19,0.42 0.05,0.12 0.05,0.13 0.04,0.11 0.13,0.45 0.04,0.13 0.03,0.13 0.03,0.13 0.09,0.46 0.02,0.13 0.01,0.14 0.01,0.11 0.03,0.46 v 0.13 0.14 0.13 l -0.03,0.46 -0.01,0.14 -0.02,0.13 -0.01,0.11 -0.09,0.46 -0.03,0.13 -0.03,0.13 -0.04,0.13 -0.13,0.44 -0.05,0.13 -0.05,0.13 -0.04,0.11 -0.19,0.42 -0.06,0.12 -0.07,0.12 -0.05,0.09 -0.24,0.4 -0.07,0.11 -0.08,0.12 -0.08,0.11 -0.29,0.36 -0.09,0.11 -0.09,0.1 -0.07,0.08 -0.33,0.33 -0.1,0.09 -0.1,0.09 -0.09,0.07 -0.36,0.29 -0.11,0.08 -0.11,0.08 -0.12,0.07 -0.4,0.24 -0.12,0.07 -0.12,0.06 -0.09,0.05 -0.42,0.19 -0.13,0.05 -0.12,0.05 -0.12,0.04 -0.44,0.14 -0.13,0.03 -0.13,0.04 -0.14,0.02 -0.45,0.09 -0.13,0.02 -0.14,0.01 -0.11,0.01 -0.46,0.03 -0.14,0.01 h -0.13 l -0.13,-0.01 -0.46,-0.03 -0.14,-0.01 -0.13,-0.02 -0.12,-0.01 -0.45,-0.09 -0.13,-0.02 -0.14,-0.04 -0.13,-0.03 -0.44,-0.14 -0.13,-0.05 -0.12,-0.04 -0.11,-0.05 -0.42,-0.19 -0.13,-0.06 -0.12,-0.07 -0.09,-0.05 -0.39,-0.24 -0.12,-0.07 -0.11,-0.08 -0.11,-0.08 -0.37,-0.29 -0.1,-0.09 -0.1,-0.09 -0.08,-0.07 -0.33,-0.33 -0.09,-0.1 -0.09,-0.1 -0.07,-0.09 -0.29,-0.36 -0.08,-0.11 -0.08,-0.11 -0.08,-0.12 -0.23,-0.4 -0.07,-0.11 -0.06,-0.13 -0.05,-0.09 -0.19,-0.42 -0.05,-0.12 -0.05,-0.13 -0.04,-0.12 -0.14,-0.44 -0.04,-0.13 -0.03,-0.13 -0.03,-0.13 -0.08,-0.46 -0.02,-0.13 -0.02,-0.14 v -0.11 l -0.03,-0.46 -0.01,-0.14 v -0.13 l 0.01,-0.13 0.03,-0.46 0.01,-0.14 0.01,-0.13 0.02,-0.11 0.08,-0.46 0.03,-0.13 0.03,-0.13 0.04,-0.13 0.14,-0.45 0.04,-0.12 0.05,-0.13 0.05,-0.11 0.19,-0.42 0.06,-0.13 0.06,-0.12 0.06,-0.09 0.23,-0.39 0.07,-0.12 0.08,-0.11 0.09,-0.11 0.29,-0.37 0.08,-0.1 0.09,-0.1 0.08,-0.08 0.33,-0.33 0.09,-0.09 0.1,-0.09 0.09,-0.07 0.37,-0.29 0.1,-0.08 0.11,-0.08 0.13,-0.08 0.39,-0.23 0.12,-0.07 0.12,-0.06 0.1,-0.05 0.42,-0.19 0.12,-0.05 0.13,-0.05 0.11,-0.04 0.44,-0.14 0.13,-0.04 0.14,-0.03 0.13,-0.03 0.45,-0.08 0.14,-0.02 0.13,-0.01 0.12,-0.01 0.46,-0.03 0.13,-0.01 h 0.14 l 0.13,0.01"
       style="fill:#ffffff;stroke:#0a128f;stroke-width:0.75;stroke-linecap:round;stroke-linejoin:round;stroke-miterlimit:10;stroke-dasharray:none;stroke-opacity:1;fill-opacity:1"
       id="path186"
       inkscape:connector-curvature="0" /><path
       d="m 24.94,322.3 c 0.005,2.113 -1.708,3.826 -3.822,3.826 -2.113,0 -3.827,-1.713 -3.827,-3.827 0,-2.113 1.714,-3.827 3.827,-3.827 2.114,0 3.827,1.714 3.827,3.827 z"
       style="fill:#ffffff;fill-opacity:1;fill-rule:evenodd;stroke:#0a128f;stroke-width:0.75;stroke-linecap:round;stroke-linejoin:round;stroke-miterlimit:10;stroke-dasharray:none;stroke-opacity:1"
       id="path188"
       inkscape:connector-curvature="0" /><path
       d="m 171.63,11.29 v 0 c -0.632,-1.803 -0.632,-3.77 0.005,-5.573 L 171.63,5.72 c 0.405,-1.136 1.476,-1.893 2.678,-1.893 L 184.73,3.83 v 0 c 1.2,-0.003 2.271,0.754 2.671,1.887 L 187.4,5.72 c 0.639,1.8 0.639,3.767 0.001,5.57 H 187.4 c -0.399,1.134 -1.47,1.891 -2.672,1.891 L 174.31,13.18 v 0 c -1.204,10e-4 -2.275,-0.756 -2.675,-1.89 z"
       style="fill:#ffffff;fill-opacity:1;fill-rule:evenodd;stroke:#0a128f;stroke-width:0.75;stroke-linecap:round;stroke-linejoin:round;stroke-miterlimit:10;stroke-dasharray:none;stroke-opacity:1"
       id="path190"
       inkscape:connector-curvature="0" /><path
       d="m 171.63,358.25 v 0 c -0.632,-1.802 -0.632,-3.769 0.005,-5.572 l -0.005,0.002 c 0.405,-1.135 1.476,-1.893 2.678,-1.893 l 10.422,0.003 v 0 c 1.2,-0.003 2.271,0.755 2.671,1.888 l -0.001,0.002 c 0.639,1.801 0.639,3.768 0.001,5.571 L 187.4,358.25 c -0.399,1.134 -1.47,1.892 -2.672,1.892 L 174.31,360.14 v 0 c -1.204,0.002 -2.275,-0.756 -2.675,-1.889 z"
       style="fill:#ffffff;fill-opacity:1;fill-rule:evenodd;stroke:#0a128f;stroke-width:0.75;stroke-linecap:round;stroke-linejoin:round;stroke-miterlimit:10;stroke-dasharray:none;stroke-opacity:1"
       id="path192"
       inkscape:connector-curvature="0" /><path
       d="m 133.31,128.7 c 0.003,9.006 -7.294,16.303 -16.296,16.303 -9.002,0 -16.299,-7.297 -16.299,-16.299 0,-9.002 7.297,-16.299 16.299,-16.299 9.002,0 16.299,7.297 16.299,16.299 z"
       style="fill:#ffffff;fill-opacity:1;fill-rule:evenodd;stroke:#0a128f;stroke-width:0.75;stroke-linecap:round;stroke-linejoin:round;stroke-miterlimit:10;stroke-dasharray:none;stroke-opacity:1"
       id="path194"
       inkscape:connector-curvature="0" /><path
       d="m 138.98,110.71 c 0,2.189 -1.777,3.966 -3.969,3.966 -2.191,0 -3.968,-1.777 -3.968,-3.969 0,-2.192 1.777,-3.968 3.968,-3.968 2.192,0 3.969,1.776 3.969,3.968 z"
       style="fill:#ffffff;fill-opacity:1;fill-rule:evenodd;stroke:#0a128f;stroke-width:0.75;stroke-linecap:round;stroke-linejoin:round;stroke-miterlimit:10;stroke-dasharray:none;stroke-opacity:1"
       id="path196"
       inkscape:connector-curvature="0" /><path
       d="m 138.98,146.7 c 0,2.193 -1.777,3.97 -3.969,3.97 -2.191,0 -3.968,-1.777 -3.968,-3.969 0,-2.191 1.777,-3.968 3.968,-3.968 2.192,0 3.969,1.777 3.969,3.968 z"
       style="fill:#ffffff;fill-opacity:1;fill-rule:evenodd;stroke:#0a128f;stroke-width:0.75;stroke-linecap:round;stroke-linejoin:round;stroke-miterlimit:10;stroke-dasharray:none;stroke-opacity:1"
       id="path198"
       inkscape:connector-curvature="0" /><path
       d="m 102.99,146.7 c -0.004,2.193 -1.781,3.97 -3.973,3.97 -2.192,0 -3.968,-1.777 -3.968,-3.969 0,-2.191 1.776,-3.968 3.968,-3.968 2.192,0 3.969,1.777 3.969,3.968 z"
       style="fill:#ffffff;fill-opacity:1;fill-rule:evenodd;stroke:#0a128f;stroke-width:0.75;stroke-linecap:round;stroke-linejoin:round;stroke-miterlimit:10;stroke-dasharray:none;stroke-opacity:1"
       id="path200"
       inkscape:connector-curvature="0" /><path
       d="m 102.99,110.71 c -0.004,2.189 -1.781,3.966 -3.973,3.966 -2.192,0 -3.968,-1.777 -3.968,-3.969 0,-2.192 1.776,-3.968 3.968,-3.968 2.192,0 3.969,1.776 3.969,3.968 z"
       style="fill:#ffffff;fill-opacity:1;fill-rule:evenodd;stroke:#0a128f;stroke-width:0.75;stroke-linecap:round;stroke-linejoin:round;stroke-miterlimit:10;stroke-dasharray:none;stroke-opacity:1"
       id="path202"
       inkscape:connector-curvature="0" /><path
       d="m 185.75,128.7 c 0.004,9.006 -7.293,16.303 -16.295,16.303 -9.002,0 -16.299,-7.297 -16.299,-16.299 0,-9.002 7.297,-16.299 16.299,-16.299 9.002,0 16.299,7.297 16.299,16.299 z"
       style="fill:#ffffff;fill-opacity:1;fill-rule:evenodd;stroke:#0a128f;stroke-width:0.75;stroke-linecap:round;stroke-linejoin:round;stroke-miterlimit:10;stroke-dasharray:none;stroke-opacity:1"
       id="path204"
       inkscape:connector-curvature="0" /><path
       d="m 191.42,110.71 c 0.001,2.189 -1.776,3.966 -3.968,3.966 -2.191,0 -3.968,-1.777 -3.968,-3.969 0,-2.192 1.777,-3.968 3.968,-3.968 2.192,0 3.969,1.776 3.969,3.968 z"
       style="fill:#ffffff;fill-opacity:1;fill-rule:evenodd;stroke:#0a128f;stroke-width:0.75;stroke-linecap:round;stroke-linejoin:round;stroke-miterlimit:10;stroke-dasharray:none;stroke-opacity:1"
       id="path206"
       inkscape:connector-curvature="0" /><path
       d="m 191.42,146.7 c 0.001,2.193 -1.776,3.97 -3.968,3.97 -2.191,0 -3.968,-1.777 -3.968,-3.969 0,-2.191 1.777,-3.968 3.968,-3.968 2.192,0 3.969,1.777 3.969,3.968 z"
       style="fill:#ffffff;fill-opacity:1;fill-rule:evenodd;stroke:#0a128f;stroke-width:0.75;stroke-linecap:round;stroke-linejoin:round;stroke-miterlimit:10;stroke-dasharray:none;stroke-opacity:1"
       id="path208"
       inkscape:connector-curvature="0" /><path
       d="m 155.43,146.7 c -0.004,2.193 -1.78,3.97 -3.972,3.97 -2.192,0 -3.969,-1.777 -3.969,-3.969 0,-2.191 1.777,-3.968 3.969,-3.968 2.192,0 3.968,1.777 3.968,3.968 z"
       style="fill:#ffffff;fill-opacity:1;fill-rule:evenodd;stroke:#0a128f;stroke-width:0.75;stroke-linecap:round;stroke-linejoin:round;stroke-miterlimit:10;stroke-dasharray:none;stroke-opacity:1"
       id="path210"
       inkscape:connector-curvature="0" /><path
       d="m 155.43,110.71 c -0.004,2.189 -1.78,3.966 -3.972,3.966 -2.192,0 -3.969,-1.777 -3.969,-3.969 0,-2.192 1.777,-3.968 3.969,-3.968 2.192,0 3.968,1.776 3.968,3.968 z"
       style="fill:#ffffff;fill-opacity:1;fill-rule:evenodd;stroke:#0a128f;stroke-width:0.75;stroke-linecap:round;stroke-linejoin:round;stroke-miterlimit:10;stroke-dasharray:none;stroke-opacity:1"
       id="path212"
       inkscape:connector-curvature="0" /><path
       d="m 131.19,66.33 c -0.003,7.828 -6.348,14.174 -14.176,14.174 -7.827,0 -14.173,-6.346 -14.173,-14.173 0,-7.828 6.346,-14.174 14.173,-14.174 7.828,0 14.173,6.346 14.173,14.174 z"
       style="fill:#ffffff;fill-opacity:1;fill-rule:evenodd;stroke:#0a128f;stroke-width:0.75;stroke-linecap:round;stroke-linejoin:round;stroke-miterlimit:10;stroke-dasharray:none;stroke-opacity:1"
       id="path214"
       inkscape:connector-curvature="0" /><path
       d="m 185.75,213.74 c 0.004,9.005 -7.293,16.303 -16.295,16.303 -9.002,0 -16.299,-7.298 -16.299,-16.299 0,-9.002 7.297,-16.3 16.299,-16.3 9.002,0 16.299,7.298 16.299,16.3 z"
       style="fill:#ffffff;fill-opacity:1;fill-rule:evenodd;stroke:#0a128f;stroke-width:0.75;stroke-linecap:round;stroke-linejoin:round;stroke-miterlimit:10;stroke-dasharray:none;stroke-opacity:1"
       id="path216"
       inkscape:connector-curvature="0" /><path
       d="m 191.42,195.75 c -0.002,2.191 -1.779,3.968 -3.971,3.968 -2.191,0 -3.968,-1.777 -3.968,-3.969 0,-2.191 1.777,-3.968 3.968,-3.968 2.192,0 3.969,1.777 3.969,3.968 z"
       style="fill:#ffffff;fill-opacity:1;fill-rule:evenodd;stroke:#0a128f;stroke-width:0.75;stroke-linecap:round;stroke-linejoin:round;stroke-miterlimit:10;stroke-dasharray:none;stroke-opacity:1"
       id="path218"
       inkscape:connector-curvature="0" /><path
       d="m 191.42,231.74 c -0.002,2.19 -1.779,3.966 -3.971,3.966 -2.191,0 -3.968,-1.776 -3.968,-3.968 0,-2.192 1.777,-3.969 3.968,-3.969 2.192,0 3.969,1.777 3.969,3.969 z"
       style="fill:#ffffff;fill-opacity:1;fill-rule:evenodd;stroke:#0a128f;stroke-width:0.75;stroke-linecap:round;stroke-linejoin:round;stroke-miterlimit:10;stroke-dasharray:none;stroke-opacity:1"
       id="path220"
       inkscape:connector-curvature="0" /><path
       d="m 155.43,231.74 c -0.001,2.19 -1.777,3.966 -3.969,3.966 -2.192,0 -3.969,-1.776 -3.969,-3.968 0,-2.192 1.777,-3.969 3.969,-3.969 2.192,0 3.968,1.777 3.968,3.969 z"
       style="fill:#ffffff;fill-opacity:1;fill-rule:evenodd;stroke:#0a128f;stroke-width:0.75;stroke-linecap:round;stroke-linejoin:round;stroke-miterlimit:10;stroke-dasharray:none;stroke-opacity:1"
       id="path222"
       inkscape:connector-curvature="0" /><path
       d="m 155.43,195.75 c -0.001,2.191 -1.777,3.968 -3.969,3.968 -2.192,0 -3.969,-1.777 -3.969,-3.969 0,-2.191 1.777,-3.968 3.969,-3.968 2.192,0 3.968,1.777 3.968,3.968 z"
       style="fill:#ffffff;fill-opacity:1;fill-rule:evenodd;stroke:#0a128f;stroke-width:0.75;stroke-linecap:round;stroke-linejoin:round;stroke-miterlimit:10;stroke-dasharray:none;stroke-opacity:1"
       id="path224"
       inkscape:connector-curvature="0" /><path
       d="m 133.31,213.74 c 0.003,9.005 -7.294,16.303 -16.296,16.303 -9.002,0 -16.299,-7.298 -16.299,-16.299 0,-9.002 7.297,-16.3 16.299,-16.3 9.002,0 16.299,7.298 16.299,16.3 z"
       style="fill:#ffffff;fill-opacity:1;fill-rule:evenodd;stroke:#0a128f;stroke-width:0.75;stroke-linecap:round;stroke-linejoin:round;stroke-miterlimit:10;stroke-dasharray:none;stroke-opacity:1"
       id="path226"
       inkscape:connector-curvature="0" /><path
       d="m 138.98,195.75 c 0,2.188 -1.777,3.965 -3.969,3.965 -2.191,0 -3.968,-1.777 -3.968,-3.969 0,-2.191 1.777,-3.968 3.968,-3.968 2.192,0 3.969,1.777 3.969,3.968 z"
       style="fill:#ffffff;fill-opacity:1;fill-rule:evenodd;stroke:#0a128f;stroke-width:0.75;stroke-linecap:round;stroke-linejoin:round;stroke-miterlimit:10;stroke-dasharray:none;stroke-opacity:1"
       id="path228"
       inkscape:connector-curvature="0" /><path
       d="m 138.98,231.74 c 0,2.193 -1.777,3.969 -3.969,3.969 -2.191,0 -3.968,-1.776 -3.968,-3.968 0,-2.192 1.777,-3.969 3.968,-3.969 2.192,0 3.969,1.777 3.969,3.969 z"
       style="fill:#ffffff;fill-opacity:1;fill-rule:evenodd;stroke:#0a128f;stroke-width:0.75;stroke-linecap:round;stroke-linejoin:round;stroke-miterlimit:10;stroke-dasharray:none;stroke-opacity:1"
       id="path230"
       inkscape:connector-curvature="0" /><path
       d="m 102.99,231.74 c -0.004,2.193 -1.781,3.969 -3.973,3.969 -2.192,0 -3.968,-1.776 -3.968,-3.968 0,-2.192 1.776,-3.969 3.968,-3.969 2.192,0 3.969,1.777 3.969,3.969 z"
       style="fill:#ffffff;fill-opacity:1;fill-rule:evenodd;stroke:#0a128f;stroke-width:0.75;stroke-linecap:round;stroke-linejoin:round;stroke-miterlimit:10;stroke-dasharray:none;stroke-opacity:1"
       id="path232"
       inkscape:connector-curvature="0" /><path
       d="m 102.99,195.75 c -0.004,2.188 -1.781,3.965 -3.973,3.965 -2.192,0 -3.968,-1.777 -3.968,-3.969 0,-2.191 1.776,-3.968 3.968,-3.968 2.192,0 3.969,1.777 3.969,3.968 z"
       style="fill:#ffffff;fill-opacity:1;fill-rule:evenodd;stroke:#0a128f;stroke-width:0.75;stroke-linecap:round;stroke-linejoin:round;stroke-miterlimit:10;stroke-dasharray:none;stroke-opacity:1"
       id="path234"
       inkscape:connector-curvature="0" /><path
       d="m 185.75,298.78 c 0.004,9.005 -7.293,16.302 -16.295,16.302 -9.002,0 -16.299,-7.297 -16.299,-16.299 0,-9.002 7.297,-16.299 16.299,-16.299 9.002,0 16.299,7.297 16.299,16.299 z"
       style="fill:#ffffff;fill-opacity:1;fill-rule:evenodd;stroke:#0a128f;stroke-width:0.75;stroke-linecap:round;stroke-linejoin:round;stroke-miterlimit:10;stroke-dasharray:none;stroke-opacity:1"
       id="path236"
       inkscape:connector-curvature="0" /><path
       d="m 191.42,280.79 c 0.001,2.188 -1.776,3.964 -3.968,3.964 -2.191,0 -3.968,-1.776 -3.968,-3.968 0,-2.192 1.777,-3.969 3.968,-3.969 2.192,0 3.969,1.777 3.969,3.969 z"
       style="fill:#ffffff;fill-opacity:1;fill-rule:evenodd;stroke:#0a128f;stroke-width:0.75;stroke-linecap:round;stroke-linejoin:round;stroke-miterlimit:10;stroke-dasharray:none;stroke-opacity:1"
       id="path238"
       inkscape:connector-curvature="0" /><path
       d="m 191.42,316.78 c 0.001,2.192 -1.776,3.969 -3.968,3.969 -2.191,0 -3.968,-1.777 -3.968,-3.969 0,-2.192 1.777,-3.968 3.968,-3.968 2.192,0 3.969,1.776 3.969,3.968 z"
       style="fill:#ffffff;fill-opacity:1;fill-rule:evenodd;stroke:#0a128f;stroke-width:0.75;stroke-linecap:round;stroke-linejoin:round;stroke-miterlimit:10;stroke-dasharray:none;stroke-opacity:1"
       id="path240"
       inkscape:connector-curvature="0" /><path
       d="m 155.43,316.78 c -0.004,2.192 -1.78,3.969 -3.972,3.969 -2.192,0 -3.969,-1.777 -3.969,-3.969 0,-2.192 1.777,-3.968 3.969,-3.968 2.192,0 3.968,1.776 3.968,3.968 z"
       style="fill:#ffffff;fill-opacity:1;fill-rule:evenodd;stroke:#0a128f;stroke-width:0.75;stroke-linecap:round;stroke-linejoin:round;stroke-miterlimit:10;stroke-dasharray:none;stroke-opacity:1"
       id="path242"
       inkscape:connector-curvature="0" /><path
       d="m 155.43,280.79 c -0.004,2.188 -1.78,3.964 -3.972,3.964 -2.192,0 -3.969,-1.776 -3.969,-3.968 0,-2.192 1.777,-3.969 3.969,-3.969 2.192,0 3.968,1.777 3.968,3.969 z"
       style="fill:#ffffff;fill-opacity:1;fill-rule:evenodd;stroke:#0a128f;stroke-width:0.75;stroke-linecap:round;stroke-linejoin:round;stroke-miterlimit:10;stroke-dasharray:none;stroke-opacity:1"
       id="path244"
       inkscape:connector-curvature="0" /><path
       d="m 133.31,298.78 c 0.003,9.005 -7.294,16.302 -16.296,16.302 -9.002,0 -16.299,-7.297 -16.299,-16.299 0,-9.002 7.297,-16.299 16.299,-16.299 9.002,0 16.299,7.297 16.299,16.299 z"
       style="fill:#ffffff;fill-opacity:1;fill-rule:evenodd;stroke:#0a128f;stroke-width:0.75;stroke-linecap:round;stroke-linejoin:round;stroke-miterlimit:10;stroke-dasharray:none;stroke-opacity:1"
       id="path246"
       inkscape:connector-curvature="0" /><path
       d="m 138.97,280.79 c 0.001,2.196 -1.775,3.973 -3.967,3.973 -2.192,0 -3.969,-1.777 -3.969,-3.969 0,-2.191 1.777,-3.968 3.969,-3.968 2.192,0 3.968,1.777 3.968,3.968 z"
       style="fill:#ffffff;fill-opacity:1;fill-rule:evenodd;stroke:#0a128f;stroke-width:0.75;stroke-linecap:round;stroke-linejoin:round;stroke-miterlimit:10;stroke-dasharray:none;stroke-opacity:1"
       id="path248"
       inkscape:connector-curvature="0" /><path
       d="m 138.97,316.77 c 0.001,2.193 -1.775,3.97 -3.967,3.97 -2.192,0 -3.969,-1.777 -3.969,-3.968 0,-2.192 1.777,-3.969 3.969,-3.969 2.192,0 3.968,1.777 3.968,3.969 z"
       style="fill:#ffffff;fill-opacity:1;fill-rule:evenodd;stroke:#0a128f;stroke-width:0.75;stroke-linecap:round;stroke-linejoin:round;stroke-miterlimit:10;stroke-dasharray:none;stroke-opacity:1"
       id="path250"
       inkscape:connector-curvature="0" /><path
       d="m 102.99,316.77 c 0.004,2.193 -1.773,3.97 -3.964,3.97 -2.192,0 -3.969,-1.777 -3.969,-3.968 0,-2.192 1.777,-3.969 3.969,-3.969 2.191,0 3.968,1.777 3.968,3.969 z"
       style="fill:#ffffff;fill-opacity:1;fill-rule:evenodd;stroke:#0a128f;stroke-width:0.75;stroke-linecap:round;stroke-linejoin:round;stroke-miterlimit:10;stroke-dasharray:none;stroke-opacity:1"
       id="path252"
       inkscape:connector-curvature="0" /><path
       d="m 102.99,280.79 c 0.004,2.196 -1.773,3.973 -3.964,3.973 -2.192,0 -3.969,-1.777 -3.969,-3.969 0,-2.191 1.777,-3.968 3.969,-3.968 2.191,0 3.968,1.777 3.968,3.968 z"
       style="fill:#ffffff;fill-opacity:1;fill-rule:evenodd;stroke:#0a128f;stroke-width:0.75;stroke-linecap:round;stroke-linejoin:round;stroke-miterlimit:10;stroke-dasharray:none;stroke-opacity:1"
       id="path254"
       inkscape:connector-curvature="0" /><path
       d="m 199.22,363.97 v 0 c 0.782,-0.001 1.416,-0.636 1.416,-1.419 L 200.64,1.42 v 0 C 200.636,0.635 200.002,0 199.219,0 H 1.42 V 0 C 0.635,0 0,0.635 0,1.417 v 361.133 0 c 0,0.784 0.635,1.419 1.417,1.419 l 197.803,0.001"
       style="fill:none;stroke:#0a128f;stroke-width:0.37500001;stroke-linecap:round;stroke-linejoin:round;stroke-miterlimit:10;stroke-dasharray:none;stroke-opacity:1"
       id="path256"
       inkscape:connector-curvature="0" /><g
       id="g1834"
       transform="matrix(0.33146789,0,0,0.33146789,-77.744132,198.27651)"><ellipse
         transform="scale(1,-1)"
         style="stroke-width:1.5"
         cy="-485.71075"
         cx="364.46866"
         id="path16-1-2-3"
         rx="3.7500048"
         ry="3.7500079" /><ellipse
         transform="scale(1,-1)"
         style="stroke-width:1.5"
         cy="-470.71075"
         cx="364.46866"
         id="path18-4-0-6"
         rx="3.7500019"
         ry="3.7500005" /><ellipse
         transform="scale(1,-1)"
         ry="3.7499964"
         rx="3.7500014"
         style="stroke-width:1.24998999"
         cy="-455.71075"
         cx="364.46866"
         id="path20-9-6-06" /><ellipse
         transform="scale(1,-1)"
         ry="3.7500079"
         rx="3.7500048"
         id="path16-1-2-8-2"
         cx="379.46866"
         cy="-485.71075"
         style="stroke-width:1.5" /><ellipse
         transform="scale(1,-1)"
         ry="3.7500005"
         rx="3.7500019"
         id="path18-4-0-9-6"
         cx="379.46866"
         cy="-470.71075"
         style="stroke-width:1.5" /><ellipse
         transform="scale(1,-1)"
         id="path20-9-6-2-1"
         cx="379.46866"
         cy="-455.71075"
         style="stroke-width:1.24998999"
         rx="3.7500019"
         ry="3.7499964" /><ellipse
         transform="scale(1,-1)"
         ry="3.7500079"
         rx="3.7500048"
         id="path16-1-2-9-8"
         cx="349.46866"
         cy="-485.71075"
         style="stroke-width:1.5" /><ellipse
         transform="scale(1,-1)"
         ry="3.7500005"
         rx="3.7500019"
         id="path18-4-0-5-7"
         cx="349.46866"
         cy="-470.71075"
         style="stroke-width:1.5" /><ellipse
         transform="scale(1,-1)"
         id="path20-9-6-0-9"
         cx="349.46866"
         cy="-455.71075"
         style="stroke-width:1.24998999"
         rx="3.7500019"
         ry="3.7499964" /><text
         transform="scale(1,-1)"
         id="text12-2"
         y="-455.2052"
         x="389.2355"
         style="font-style:normal;font-weight:normal;font-size:45px;line-height:1.25;font-family:sans-serif;letter-spacing:0px;word-spacing:0px;fill:#000000;fill-opacity:1;stroke:none;stroke-width:0.74999899"
         xml:space="preserve"><tspan
           style="font-style:normal;font-variant:normal;font-weight:normal;font-stretch:normal;font-size:45px;font-family:'Liberation Sans';-inkscape-font-specification:'Liberation Sans';stroke-width:0.74999899"
           y="-455.2052"
           x="389.2355"
           id="tspan10"
           sodipodi:role="line">APQ</tspan></text>
</g><text
       xml:space="preserve"
       style="font-style:normal;font-variant:normal;font-weight:normal;font-stretch:normal;font-size:30px;line-height:0;font-family:Arial;-inkscape-font-specification:Arial;letter-spacing:0px;word-spacing:0px;fill:#000000;fill-opacity:1;stroke:none;stroke-width:0.75"
       x="95.06118"
       y="18.716656"
       id="text1572"
       transform="matrix(0,1,1,0,0,0)"><tspan
         sodipodi:role="line"
         id="tspan1570"
         x="95.06118"
         y="18.716656"
         style="font-style:normal;font-variant:normal;font-weight:normal;font-stretch:normal;font-size:20px;font-family:'Liberation Sans';-inkscape-font-specification:'Liberation Sans';stroke-width:0.75">RedPitaya Lockbox</tspan></text>
<text
       xml:space="preserve"
       style="font-style:normal;font-variant:normal;font-weight:normal;font-stretch:normal;font-size:11.00000095px;line-height:0;font-family:'Liberation Sans';-inkscape-font-specification:'Liberation Sans';text-align:center;letter-spacing:0px;word-spacing:0px;text-anchor:middle;fill:#000000;fill-opacity:1;stroke:none;stroke-width:0.75"
       x="116.62878"
       y="-33.759346"
       id="text1576"
       transform="scale(1,-1)"><tspan
         sodipodi:role="line"
         id="tspan1574"
         x="116.62878"
         y="-33.759346"
         style="stroke-width:0.75">Pz Offset</tspan></text>
<text
       xml:space="preserve"
       style="font-style:normal;font-variant:normal;font-weight:normal;font-stretch:normal;font-size:11.00000095px;line-height:0;font-family:'Liberation Sans';-inkscape-font-specification:'Liberation Sans';text-align:center;letter-spacing:0px;word-spacing:0px;text-anchor:middle;fill:#000000;fill-opacity:1;stroke:none;stroke-width:0.75"
       x="117.59139"
       y="-327.965"
       id="text1580"
       transform="scale(1,-1)"><tspan
         sodipodi:role="line"
         id="tspan1578"
         x="117.59139"
         y="-327.965"
         style="stroke-width:0.75">Err In1</tspan></text>
<text
       xml:space="preserve"
       style="font-style:normal;font-variant:normal;font-weight:normal;font-stretch:normal;font-size:11.00000095px;line-height:0;font-family:'Liberation Sans';-inkscape-font-specification:'Liberation Sans';text-align:center;letter-spacing:0px;word-spacing:0px;text-anchor:middle;fill:#000000;fill-opacity:1;stroke:none;stroke-width:0.75"
       x="169.40129"
       y="-328.0939"
       id="text1584"
       transform="scale(1,-1)"><tspan
         sodipodi:role="line"
         id="tspan1582"
         x="169.40129"
         y="-328.0939"
         style="stroke-width:0.75">Err Mon</tspan></text>
<text
       xml:space="preserve"
       style="font-style:normal;font-variant:normal;font-weight:normal;font-stretch:normal;font-size:11.00000095px;line-height:0;font-family:'Liberation Sans';-inkscape-font-specification:'Liberation Sans';text-align:center;letter-spacing:0px;word-spacing:0px;text-anchor:middle;fill:#000000;fill-opacity:1;stroke:none;stroke-width:0.75"
       x="117.60213"
       y="-243.04927"
       id="text1588"
       transform="scale(1,-1)"><tspan
         sodipodi:role="line"
         id="tspan1586"
         x="117.60213"
         y="-243.04927"
         style="stroke-width:0.75">Pz Out1</tspan></text>
<text
       xml:space="preserve"
       style="font-style:normal;font-variant:normal;font-weight:normal;font-stretch:normal;font-size:11.00000095px;line-height:0;font-family:'Liberation Sans';-inkscape-font-specification:'Liberation Sans';text-align:center;letter-spacing:0px;word-spacing:0px;text-anchor:middle;fill:#000000;fill-opacity:1;stroke:none;stroke-width:0.75"
       x="169.41203"
       y="-243.0439"
       id="text1592"
       transform="scale(1,-1)"><tspan
         sodipodi:role="line"
         id="tspan1590"
         x="169.41203"
         y="-243.0439"
         style="stroke-width:0.75">Pz Mon</tspan></text>
<text
       xml:space="preserve"
       style="font-style:normal;font-variant:normal;font-weight:normal;font-stretch:normal;font-size:11.00000095px;line-height:0;font-family:'Liberation Sans';-inkscape-font-specification:'Liberation Sans';text-align:center;letter-spacing:0px;word-spacing:0px;text-anchor:middle;fill:#000000;fill-opacity:1;stroke:none;stroke-width:0.75"
       x="117.0328"
       y="-158.01927"
       id="text1596"
       transform="scale(1,-1)"><tspan
         sodipodi:role="line"
         id="tspan1594"
         x="117.0328"
         y="-158.01927"
         style="stroke-width:0.75">Curr Out2</tspan></text>
<text
       xml:space="preserve"
       style="font-style:normal;font-variant:normal;font-weight:normal;font-stretch:normal;font-size:11.00000095px;line-height:0;font-family:'Liberation Sans';-inkscape-font-specification:'Liberation Sans';text-align:center;letter-spacing:0px;word-spacing:0px;text-anchor:middle;fill:#000000;fill-opacity:1;stroke:none;stroke-width:0.75"
       x="169.23479"
       y="-157.88499"
       id="text1600"
       transform="scale(1,-1)"><tspan
         sodipodi:role="line"
         id="tspan1598"
         x="169.23479"
         y="-157.88499"
         style="stroke-width:0.75">In2</tspan></text>
</g></svg>