G04 #@! TF.GenerationSoftware,KiCad,Pcbnew,5.1.6*
G04 #@! TF.CreationDate,2020-09-27T11:53:17+02:00*
G04 #@! TF.ProjectId,RedPitaya_Lockbox,52656450-6974-4617-9961-5f4c6f636b62,1.4*
G04 #@! TF.SameCoordinates,Original*
G04 #@! TF.FileFunction,Legend,Top*
G04 #@! TF.FilePolarity,Positive*
%FSLAX46Y46*%
G04 Gerber Fmt 4.6, Leading zero omitted, Abs format (unit mm)*
G04 Created by KiCad (PCBNEW 5.1.6) date 2020-09-27 11:53:17*
%MOMM*%
%LPD*%
G01*
G04 APERTURE LIST*
%ADD10C,0.250000*%
%ADD11C,0.150000*%
%ADD12C,0.350000*%
%ADD13C,0.010000*%
%ADD14C,0.120000*%
%ADD15C,1.000000*%
%ADD16C,0.600000*%
G04 APERTURE END LIST*
D10*
X84250000Y-95142857D02*
X84178571Y-95285714D01*
X84178571Y-95500000D01*
X84250000Y-95714285D01*
X84392857Y-95857142D01*
X84535714Y-95928571D01*
X84821428Y-96000000D01*
X85035714Y-96000000D01*
X85321428Y-95928571D01*
X85464285Y-95857142D01*
X85607142Y-95714285D01*
X85678571Y-95500000D01*
X85678571Y-95357142D01*
X85607142Y-95142857D01*
X85535714Y-95071428D01*
X85035714Y-95071428D01*
X85035714Y-95357142D01*
X85678571Y-94428571D02*
X84178571Y-94428571D01*
X85678571Y-93571428D01*
X84178571Y-93571428D01*
X85678571Y-92857142D02*
X84178571Y-92857142D01*
X84178571Y-92500000D01*
X84250000Y-92285714D01*
X84392857Y-92142857D01*
X84535714Y-92071428D01*
X84821428Y-92000000D01*
X85035714Y-92000000D01*
X85321428Y-92071428D01*
X85464285Y-92142857D01*
X85607142Y-92285714D01*
X85678571Y-92500000D01*
X85678571Y-92857142D01*
D11*
X75000000Y-98150000D02*
X75000000Y-90550000D01*
X86500000Y-98150000D02*
X75000000Y-98150000D01*
X86500000Y-90550000D02*
X86500000Y-98150000D01*
X75000000Y-90550000D02*
X86500000Y-90550000D01*
D10*
X79071428Y-135178571D02*
X79571428Y-136678571D01*
X80071428Y-135178571D01*
X80571428Y-136107142D02*
X81714285Y-136107142D01*
X81142857Y-136678571D02*
X81142857Y-135535714D01*
D11*
X84000000Y-134500000D02*
X75000000Y-134500000D01*
X84000000Y-128700000D02*
X84000000Y-134500000D01*
X75000000Y-128700000D02*
X84000000Y-128700000D01*
X75000000Y-134500000D02*
X75000000Y-128700000D01*
D10*
X79071428Y-49178571D02*
X79571428Y-50678571D01*
X80071428Y-49178571D01*
X80571428Y-50107142D02*
X81714285Y-50107142D01*
D11*
X84000000Y-57500000D02*
X75000000Y-57500000D01*
X84000000Y-51500000D02*
X84000000Y-57500000D01*
X75000000Y-51500000D02*
X84000000Y-51500000D01*
X75000000Y-57500000D02*
X75000000Y-51500000D01*
X231000000Y-43500000D02*
X231000000Y-72000000D01*
X211000000Y-43500000D02*
X231000000Y-43500000D01*
X211000000Y-72000000D02*
X211000000Y-43500000D01*
X231000000Y-72000000D02*
X211000000Y-72000000D01*
D12*
X157846547Y-137229761D02*
X157179880Y-136277380D01*
X156703690Y-137229761D02*
X156703690Y-135229761D01*
X157465595Y-135229761D01*
X157656071Y-135325000D01*
X157751309Y-135420238D01*
X157846547Y-135610714D01*
X157846547Y-135896428D01*
X157751309Y-136086904D01*
X157656071Y-136182142D01*
X157465595Y-136277380D01*
X156703690Y-136277380D01*
X159465595Y-137134523D02*
X159275119Y-137229761D01*
X158894166Y-137229761D01*
X158703690Y-137134523D01*
X158608452Y-136944047D01*
X158608452Y-136182142D01*
X158703690Y-135991666D01*
X158894166Y-135896428D01*
X159275119Y-135896428D01*
X159465595Y-135991666D01*
X159560833Y-136182142D01*
X159560833Y-136372619D01*
X158608452Y-136563095D01*
X161275119Y-137229761D02*
X161275119Y-135229761D01*
X161275119Y-137134523D02*
X161084642Y-137229761D01*
X160703690Y-137229761D01*
X160513214Y-137134523D01*
X160417976Y-137039285D01*
X160322738Y-136848809D01*
X160322738Y-136277380D01*
X160417976Y-136086904D01*
X160513214Y-135991666D01*
X160703690Y-135896428D01*
X161084642Y-135896428D01*
X161275119Y-135991666D01*
X162227500Y-137229761D02*
X162227500Y-135229761D01*
X162989404Y-135229761D01*
X163179880Y-135325000D01*
X163275119Y-135420238D01*
X163370357Y-135610714D01*
X163370357Y-135896428D01*
X163275119Y-136086904D01*
X163179880Y-136182142D01*
X162989404Y-136277380D01*
X162227500Y-136277380D01*
X164227500Y-137229761D02*
X164227500Y-135896428D01*
X164227500Y-135229761D02*
X164132261Y-135325000D01*
X164227500Y-135420238D01*
X164322738Y-135325000D01*
X164227500Y-135229761D01*
X164227500Y-135420238D01*
X164894166Y-135896428D02*
X165656071Y-135896428D01*
X165179880Y-135229761D02*
X165179880Y-136944047D01*
X165275119Y-137134523D01*
X165465595Y-137229761D01*
X165656071Y-137229761D01*
X167179880Y-137229761D02*
X167179880Y-136182142D01*
X167084642Y-135991666D01*
X166894166Y-135896428D01*
X166513214Y-135896428D01*
X166322738Y-135991666D01*
X167179880Y-137134523D02*
X166989404Y-137229761D01*
X166513214Y-137229761D01*
X166322738Y-137134523D01*
X166227500Y-136944047D01*
X166227500Y-136753571D01*
X166322738Y-136563095D01*
X166513214Y-136467857D01*
X166989404Y-136467857D01*
X167179880Y-136372619D01*
X167941785Y-135896428D02*
X168417976Y-137229761D01*
X168894166Y-135896428D02*
X168417976Y-137229761D01*
X168227500Y-137705952D01*
X168132261Y-137801190D01*
X167941785Y-137896428D01*
X170513214Y-137229761D02*
X170513214Y-136182142D01*
X170417976Y-135991666D01*
X170227500Y-135896428D01*
X169846547Y-135896428D01*
X169656071Y-135991666D01*
X170513214Y-137134523D02*
X170322738Y-137229761D01*
X169846547Y-137229761D01*
X169656071Y-137134523D01*
X169560833Y-136944047D01*
X169560833Y-136753571D01*
X169656071Y-136563095D01*
X169846547Y-136467857D01*
X170322738Y-136467857D01*
X170513214Y-136372619D01*
X173941785Y-137229761D02*
X172989404Y-137229761D01*
X172989404Y-135229761D01*
X174894166Y-137229761D02*
X174703690Y-137134523D01*
X174608452Y-137039285D01*
X174513214Y-136848809D01*
X174513214Y-136277380D01*
X174608452Y-136086904D01*
X174703690Y-135991666D01*
X174894166Y-135896428D01*
X175179880Y-135896428D01*
X175370357Y-135991666D01*
X175465595Y-136086904D01*
X175560833Y-136277380D01*
X175560833Y-136848809D01*
X175465595Y-137039285D01*
X175370357Y-137134523D01*
X175179880Y-137229761D01*
X174894166Y-137229761D01*
X177275119Y-137134523D02*
X177084642Y-137229761D01*
X176703690Y-137229761D01*
X176513214Y-137134523D01*
X176417976Y-137039285D01*
X176322738Y-136848809D01*
X176322738Y-136277380D01*
X176417976Y-136086904D01*
X176513214Y-135991666D01*
X176703690Y-135896428D01*
X177084642Y-135896428D01*
X177275119Y-135991666D01*
X178132261Y-137229761D02*
X178132261Y-135229761D01*
X178322738Y-136467857D02*
X178894166Y-137229761D01*
X178894166Y-135896428D02*
X178132261Y-136658333D01*
X179751309Y-137229761D02*
X179751309Y-135229761D01*
X179751309Y-135991666D02*
X179941785Y-135896428D01*
X180322738Y-135896428D01*
X180513214Y-135991666D01*
X180608452Y-136086904D01*
X180703690Y-136277380D01*
X180703690Y-136848809D01*
X180608452Y-137039285D01*
X180513214Y-137134523D01*
X180322738Y-137229761D01*
X179941785Y-137229761D01*
X179751309Y-137134523D01*
X181846547Y-137229761D02*
X181656071Y-137134523D01*
X181560833Y-137039285D01*
X181465595Y-136848809D01*
X181465595Y-136277380D01*
X181560833Y-136086904D01*
X181656071Y-135991666D01*
X181846547Y-135896428D01*
X182132261Y-135896428D01*
X182322738Y-135991666D01*
X182417976Y-136086904D01*
X182513214Y-136277380D01*
X182513214Y-136848809D01*
X182417976Y-137039285D01*
X182322738Y-137134523D01*
X182132261Y-137229761D01*
X181846547Y-137229761D01*
X183179880Y-137229761D02*
X184227500Y-135896428D01*
X183179880Y-135896428D02*
X184227500Y-137229761D01*
X156608452Y-138770238D02*
X156703690Y-138675000D01*
X156894166Y-138579761D01*
X157370357Y-138579761D01*
X157560833Y-138675000D01*
X157656071Y-138770238D01*
X157751309Y-138960714D01*
X157751309Y-139151190D01*
X157656071Y-139436904D01*
X156513214Y-140579761D01*
X157751309Y-140579761D01*
X158989404Y-138579761D02*
X159179880Y-138579761D01*
X159370357Y-138675000D01*
X159465595Y-138770238D01*
X159560833Y-138960714D01*
X159656071Y-139341666D01*
X159656071Y-139817857D01*
X159560833Y-140198809D01*
X159465595Y-140389285D01*
X159370357Y-140484523D01*
X159179880Y-140579761D01*
X158989404Y-140579761D01*
X158798928Y-140484523D01*
X158703690Y-140389285D01*
X158608452Y-140198809D01*
X158513214Y-139817857D01*
X158513214Y-139341666D01*
X158608452Y-138960714D01*
X158703690Y-138770238D01*
X158798928Y-138675000D01*
X158989404Y-138579761D01*
X160417976Y-138770238D02*
X160513214Y-138675000D01*
X160703690Y-138579761D01*
X161179880Y-138579761D01*
X161370357Y-138675000D01*
X161465595Y-138770238D01*
X161560833Y-138960714D01*
X161560833Y-139151190D01*
X161465595Y-139436904D01*
X160322738Y-140579761D01*
X161560833Y-140579761D01*
X162798928Y-138579761D02*
X162989404Y-138579761D01*
X163179880Y-138675000D01*
X163275119Y-138770238D01*
X163370357Y-138960714D01*
X163465595Y-139341666D01*
X163465595Y-139817857D01*
X163370357Y-140198809D01*
X163275119Y-140389285D01*
X163179880Y-140484523D01*
X162989404Y-140579761D01*
X162798928Y-140579761D01*
X162608452Y-140484523D01*
X162513214Y-140389285D01*
X162417976Y-140198809D01*
X162322738Y-139817857D01*
X162322738Y-139341666D01*
X162417976Y-138960714D01*
X162513214Y-138770238D01*
X162608452Y-138675000D01*
X162798928Y-138579761D01*
X164322738Y-139817857D02*
X165846547Y-139817857D01*
X167179880Y-138579761D02*
X167370357Y-138579761D01*
X167560833Y-138675000D01*
X167656071Y-138770238D01*
X167751309Y-138960714D01*
X167846547Y-139341666D01*
X167846547Y-139817857D01*
X167751309Y-140198809D01*
X167656071Y-140389285D01*
X167560833Y-140484523D01*
X167370357Y-140579761D01*
X167179880Y-140579761D01*
X166989404Y-140484523D01*
X166894166Y-140389285D01*
X166798928Y-140198809D01*
X166703690Y-139817857D01*
X166703690Y-139341666D01*
X166798928Y-138960714D01*
X166894166Y-138770238D01*
X166989404Y-138675000D01*
X167179880Y-138579761D01*
X168798928Y-140579761D02*
X169179880Y-140579761D01*
X169370357Y-140484523D01*
X169465595Y-140389285D01*
X169656071Y-140103571D01*
X169751309Y-139722619D01*
X169751309Y-138960714D01*
X169656071Y-138770238D01*
X169560833Y-138675000D01*
X169370357Y-138579761D01*
X168989404Y-138579761D01*
X168798928Y-138675000D01*
X168703690Y-138770238D01*
X168608452Y-138960714D01*
X168608452Y-139436904D01*
X168703690Y-139627380D01*
X168798928Y-139722619D01*
X168989404Y-139817857D01*
X169370357Y-139817857D01*
X169560833Y-139722619D01*
X169656071Y-139627380D01*
X169751309Y-139436904D01*
X173275119Y-140579761D02*
X172608452Y-139627380D01*
X172132261Y-140579761D02*
X172132261Y-138579761D01*
X172894166Y-138579761D01*
X173084642Y-138675000D01*
X173179880Y-138770238D01*
X173275119Y-138960714D01*
X173275119Y-139246428D01*
X173179880Y-139436904D01*
X173084642Y-139532142D01*
X172894166Y-139627380D01*
X172132261Y-139627380D01*
X174894166Y-140484523D02*
X174703690Y-140579761D01*
X174322738Y-140579761D01*
X174132261Y-140484523D01*
X174037023Y-140294047D01*
X174037023Y-139532142D01*
X174132261Y-139341666D01*
X174322738Y-139246428D01*
X174703690Y-139246428D01*
X174894166Y-139341666D01*
X174989404Y-139532142D01*
X174989404Y-139722619D01*
X174037023Y-139913095D01*
X175656071Y-139246428D02*
X176132261Y-140579761D01*
X176608452Y-139246428D01*
X177370357Y-140389285D02*
X177465595Y-140484523D01*
X177370357Y-140579761D01*
X177275119Y-140484523D01*
X177370357Y-140389285D01*
X177370357Y-140579761D01*
X180894166Y-140579761D02*
X179751309Y-140579761D01*
X180322738Y-140579761D02*
X180322738Y-138579761D01*
X180132261Y-138865476D01*
X179941785Y-139055952D01*
X179751309Y-139151190D01*
X181751309Y-140389285D02*
X181846547Y-140484523D01*
X181751309Y-140579761D01*
X181656071Y-140484523D01*
X181751309Y-140389285D01*
X181751309Y-140579761D01*
X183560833Y-139246428D02*
X183560833Y-140579761D01*
X183084642Y-138484523D02*
X182608452Y-139913095D01*
X183846547Y-139913095D01*
D13*
G36*
X202233214Y-136630139D02*
G01*
X202384632Y-136631181D01*
X202501317Y-136634145D01*
X202593881Y-136640060D01*
X202672938Y-136649951D01*
X202749104Y-136664847D01*
X202832992Y-136685772D01*
X202846977Y-136689516D01*
X203137131Y-136790250D01*
X203404691Y-136928979D01*
X203646674Y-137103213D01*
X203860095Y-137310467D01*
X204041971Y-137548253D01*
X204184936Y-137804678D01*
X204268031Y-138008601D01*
X204326668Y-138217963D01*
X204363748Y-138445596D01*
X204380857Y-138671394D01*
X204377946Y-139005223D01*
X204338266Y-139313691D01*
X204260974Y-139599125D01*
X204145226Y-139863849D01*
X203990181Y-140110189D01*
X203794996Y-140340472D01*
X203765044Y-140370937D01*
X203543705Y-140566500D01*
X203309111Y-140721647D01*
X203053469Y-140840986D01*
X202864276Y-140903854D01*
X202746005Y-140929662D01*
X202596262Y-140950474D01*
X202428751Y-140965339D01*
X202257178Y-140973310D01*
X202095247Y-140973438D01*
X201967538Y-140965912D01*
X201730853Y-140926899D01*
X201486823Y-140858784D01*
X201247517Y-140766426D01*
X201025004Y-140654685D01*
X200831353Y-140528419D01*
X200779863Y-140487747D01*
X200586198Y-140297838D01*
X200421439Y-140075038D01*
X200287306Y-139822762D01*
X200185519Y-139544424D01*
X200117797Y-139243440D01*
X200103890Y-139145268D01*
X200081331Y-138801926D01*
X200081779Y-138793750D01*
X201230201Y-138793750D01*
X201243929Y-139063973D01*
X201287686Y-139301240D01*
X201362221Y-139507234D01*
X201468282Y-139683638D01*
X201606616Y-139832135D01*
X201734311Y-139927695D01*
X201840507Y-139989022D01*
X201940397Y-140028883D01*
X202048199Y-140050725D01*
X202178129Y-140057998D01*
X202267232Y-140056954D01*
X202383911Y-140051720D01*
X202470321Y-140041662D01*
X202541505Y-140023986D01*
X202612505Y-139995903D01*
X202623695Y-139990793D01*
X202757989Y-139910974D01*
X202889719Y-139801219D01*
X203003615Y-139675136D01*
X203046955Y-139613617D01*
X203123295Y-139461827D01*
X203182447Y-139278326D01*
X203222412Y-139074143D01*
X203241188Y-138860304D01*
X203236777Y-138647838D01*
X203231688Y-138595092D01*
X203194670Y-138365291D01*
X203138408Y-138171242D01*
X203060188Y-138006456D01*
X202957291Y-137864446D01*
X202900897Y-137804955D01*
X202740097Y-137677246D01*
X202563347Y-137588650D01*
X202376606Y-137539164D01*
X202185834Y-137528788D01*
X201996991Y-137557520D01*
X201816035Y-137625358D01*
X201648927Y-137732300D01*
X201567565Y-137805282D01*
X201443384Y-137952991D01*
X201349328Y-138118858D01*
X201283637Y-138308039D01*
X201244550Y-138525694D01*
X201230306Y-138776980D01*
X201230201Y-138793750D01*
X200081779Y-138793750D01*
X200099294Y-138474671D01*
X200157249Y-138165131D01*
X200254671Y-137874933D01*
X200391031Y-137605704D01*
X200565803Y-137359073D01*
X200744642Y-137167967D01*
X200961689Y-136992640D01*
X201209726Y-136845890D01*
X201481707Y-136731595D01*
X201611521Y-136691370D01*
X201698131Y-136668368D01*
X201772742Y-136651863D01*
X201845883Y-136640815D01*
X201928082Y-136634189D01*
X202029868Y-136630947D01*
X202161771Y-136630053D01*
X202233214Y-136630139D01*
G37*
X202233214Y-136630139D02*
X202384632Y-136631181D01*
X202501317Y-136634145D01*
X202593881Y-136640060D01*
X202672938Y-136649951D01*
X202749104Y-136664847D01*
X202832992Y-136685772D01*
X202846977Y-136689516D01*
X203137131Y-136790250D01*
X203404691Y-136928979D01*
X203646674Y-137103213D01*
X203860095Y-137310467D01*
X204041971Y-137548253D01*
X204184936Y-137804678D01*
X204268031Y-138008601D01*
X204326668Y-138217963D01*
X204363748Y-138445596D01*
X204380857Y-138671394D01*
X204377946Y-139005223D01*
X204338266Y-139313691D01*
X204260974Y-139599125D01*
X204145226Y-139863849D01*
X203990181Y-140110189D01*
X203794996Y-140340472D01*
X203765044Y-140370937D01*
X203543705Y-140566500D01*
X203309111Y-140721647D01*
X203053469Y-140840986D01*
X202864276Y-140903854D01*
X202746005Y-140929662D01*
X202596262Y-140950474D01*
X202428751Y-140965339D01*
X202257178Y-140973310D01*
X202095247Y-140973438D01*
X201967538Y-140965912D01*
X201730853Y-140926899D01*
X201486823Y-140858784D01*
X201247517Y-140766426D01*
X201025004Y-140654685D01*
X200831353Y-140528419D01*
X200779863Y-140487747D01*
X200586198Y-140297838D01*
X200421439Y-140075038D01*
X200287306Y-139822762D01*
X200185519Y-139544424D01*
X200117797Y-139243440D01*
X200103890Y-139145268D01*
X200081331Y-138801926D01*
X200081779Y-138793750D01*
X201230201Y-138793750D01*
X201243929Y-139063973D01*
X201287686Y-139301240D01*
X201362221Y-139507234D01*
X201468282Y-139683638D01*
X201606616Y-139832135D01*
X201734311Y-139927695D01*
X201840507Y-139989022D01*
X201940397Y-140028883D01*
X202048199Y-140050725D01*
X202178129Y-140057998D01*
X202267232Y-140056954D01*
X202383911Y-140051720D01*
X202470321Y-140041662D01*
X202541505Y-140023986D01*
X202612505Y-139995903D01*
X202623695Y-139990793D01*
X202757989Y-139910974D01*
X202889719Y-139801219D01*
X203003615Y-139675136D01*
X203046955Y-139613617D01*
X203123295Y-139461827D01*
X203182447Y-139278326D01*
X203222412Y-139074143D01*
X203241188Y-138860304D01*
X203236777Y-138647838D01*
X203231688Y-138595092D01*
X203194670Y-138365291D01*
X203138408Y-138171242D01*
X203060188Y-138006456D01*
X202957291Y-137864446D01*
X202900897Y-137804955D01*
X202740097Y-137677246D01*
X202563347Y-137588650D01*
X202376606Y-137539164D01*
X202185834Y-137528788D01*
X201996991Y-137557520D01*
X201816035Y-137625358D01*
X201648927Y-137732300D01*
X201567565Y-137805282D01*
X201443384Y-137952991D01*
X201349328Y-138118858D01*
X201283637Y-138308039D01*
X201244550Y-138525694D01*
X201230306Y-138776980D01*
X201230201Y-138793750D01*
X200081779Y-138793750D01*
X200099294Y-138474671D01*
X200157249Y-138165131D01*
X200254671Y-137874933D01*
X200391031Y-137605704D01*
X200565803Y-137359073D01*
X200744642Y-137167967D01*
X200961689Y-136992640D01*
X201209726Y-136845890D01*
X201481707Y-136731595D01*
X201611521Y-136691370D01*
X201698131Y-136668368D01*
X201772742Y-136651863D01*
X201845883Y-136640815D01*
X201928082Y-136634189D01*
X202029868Y-136630947D01*
X202161771Y-136630053D01*
X202233214Y-136630139D01*
G36*
X213486632Y-135044987D02*
G01*
X213715956Y-135072497D01*
X213925995Y-135116937D01*
X214124833Y-135179711D01*
X214320557Y-135262226D01*
X214363706Y-135283023D01*
X214597308Y-135421313D01*
X214797374Y-135589953D01*
X214964331Y-135789436D01*
X215098605Y-136020254D01*
X215185327Y-136235363D01*
X215221998Y-136363355D01*
X215250695Y-136498596D01*
X215265667Y-136610670D01*
X215279241Y-136786696D01*
X215213950Y-136787926D01*
X215172922Y-136789067D01*
X215093991Y-136791586D01*
X214984579Y-136795232D01*
X214852112Y-136799758D01*
X214704014Y-136804914D01*
X214627053Y-136807628D01*
X214105446Y-136826101D01*
X214064182Y-136665734D01*
X213994587Y-136472995D01*
X213893741Y-136311979D01*
X213762870Y-136184046D01*
X213603204Y-136090559D01*
X213515803Y-136058041D01*
X213410822Y-136034995D01*
X213274864Y-136019055D01*
X213121807Y-136010596D01*
X212965529Y-136009994D01*
X212819909Y-136017626D01*
X212698824Y-136033866D01*
X212690025Y-136035673D01*
X212513834Y-136086343D01*
X212360331Y-136156861D01*
X212236255Y-136243180D01*
X212148346Y-136341252D01*
X212130386Y-136371686D01*
X212107454Y-136448025D01*
X212099531Y-136547458D01*
X212106690Y-136650256D01*
X212129004Y-136736685D01*
X212129032Y-136736752D01*
X212164967Y-136796107D01*
X212220362Y-136861327D01*
X212247407Y-136887116D01*
X212306873Y-136934232D01*
X212376214Y-136978289D01*
X212459893Y-137020901D01*
X212562377Y-137063682D01*
X212688130Y-137108248D01*
X212841618Y-137156213D01*
X213027305Y-137209192D01*
X213249657Y-137268799D01*
X213436428Y-137317103D01*
X213750274Y-137401297D01*
X214023178Y-137483583D01*
X214259378Y-137566098D01*
X214463107Y-137650977D01*
X214638601Y-137740357D01*
X214790096Y-137836375D01*
X214921828Y-137941167D01*
X215038031Y-138056868D01*
X215133647Y-138173166D01*
X215242507Y-138345468D01*
X215332520Y-138542798D01*
X215395397Y-138746074D01*
X215407405Y-138803585D01*
X215425052Y-138945109D01*
X215432548Y-139110686D01*
X215430263Y-139284673D01*
X215418569Y-139451429D01*
X215397839Y-139595314D01*
X215387500Y-139641401D01*
X215323079Y-139832721D01*
X215229110Y-140030214D01*
X215114633Y-140216207D01*
X215048303Y-140304613D01*
X214873069Y-140485408D01*
X214662131Y-140640166D01*
X214417594Y-140767908D01*
X214141561Y-140867654D01*
X213836136Y-140938424D01*
X213622637Y-140968445D01*
X213446432Y-140982327D01*
X213250022Y-140989306D01*
X213047612Y-140989504D01*
X212853409Y-140983046D01*
X212681616Y-140970055D01*
X212597321Y-140959498D01*
X212287341Y-140898740D01*
X212012881Y-140814451D01*
X211769461Y-140704486D01*
X211552604Y-140566698D01*
X211357829Y-140398942D01*
X211298040Y-140337078D01*
X211151579Y-140151526D01*
X211021569Y-139932745D01*
X210912629Y-139691292D01*
X210829375Y-139437725D01*
X210776423Y-139182601D01*
X210769406Y-139128259D01*
X210762091Y-139055101D01*
X210763756Y-139016161D01*
X210777626Y-139000666D01*
X210806928Y-138997842D01*
X210808454Y-138997840D01*
X210846837Y-138995702D01*
X210922629Y-138989746D01*
X211028103Y-138980644D01*
X211155533Y-138969066D01*
X211297193Y-138955683D01*
X211327321Y-138952775D01*
X211501296Y-138935879D01*
X211635424Y-138923213D01*
X211735030Y-138914932D01*
X211805442Y-138911190D01*
X211851985Y-138912139D01*
X211879986Y-138917934D01*
X211894771Y-138928728D01*
X211901666Y-138944676D01*
X211905997Y-138965932D01*
X211906738Y-138969509D01*
X211937902Y-139084752D01*
X211983833Y-139217631D01*
X212037496Y-139350014D01*
X212091854Y-139463769D01*
X212113243Y-139501702D01*
X212236881Y-139663918D01*
X212392416Y-139794475D01*
X212578787Y-139892873D01*
X212794931Y-139958616D01*
X213039789Y-139991205D01*
X213164285Y-139994927D01*
X213417181Y-139980309D01*
X213637328Y-139935989D01*
X213826849Y-139861266D01*
X213987868Y-139755440D01*
X214044309Y-139704697D01*
X214156896Y-139569232D01*
X214230659Y-139424532D01*
X214265015Y-139276086D01*
X214259382Y-139129380D01*
X214213178Y-138989904D01*
X214132789Y-138870925D01*
X214082217Y-138819365D01*
X214023219Y-138772122D01*
X213951629Y-138727619D01*
X213863284Y-138684280D01*
X213754019Y-138640527D01*
X213619669Y-138594785D01*
X213456069Y-138545477D01*
X213259056Y-138491026D01*
X213024465Y-138429856D01*
X212853667Y-138386699D01*
X212501473Y-138289589D01*
X212192105Y-138185409D01*
X211926115Y-138074386D01*
X211704059Y-137956745D01*
X211558187Y-137857843D01*
X211369578Y-137685709D01*
X211215784Y-137488385D01*
X211097833Y-137270946D01*
X211016757Y-137038465D01*
X210973584Y-136796017D01*
X210969346Y-136548677D01*
X211005073Y-136301518D01*
X211081794Y-136059616D01*
X211160070Y-135896799D01*
X211284884Y-135713077D01*
X211445529Y-135541503D01*
X211632659Y-135390164D01*
X211836930Y-135267145D01*
X211944721Y-135217905D01*
X212111354Y-135155619D01*
X212271902Y-135108682D01*
X212437851Y-135074980D01*
X212620689Y-135052400D01*
X212831903Y-135038826D01*
X212937791Y-135035134D01*
X213229939Y-135033001D01*
X213486632Y-135044987D01*
G37*
X213486632Y-135044987D02*
X213715956Y-135072497D01*
X213925995Y-135116937D01*
X214124833Y-135179711D01*
X214320557Y-135262226D01*
X214363706Y-135283023D01*
X214597308Y-135421313D01*
X214797374Y-135589953D01*
X214964331Y-135789436D01*
X215098605Y-136020254D01*
X215185327Y-136235363D01*
X215221998Y-136363355D01*
X215250695Y-136498596D01*
X215265667Y-136610670D01*
X215279241Y-136786696D01*
X215213950Y-136787926D01*
X215172922Y-136789067D01*
X215093991Y-136791586D01*
X214984579Y-136795232D01*
X214852112Y-136799758D01*
X214704014Y-136804914D01*
X214627053Y-136807628D01*
X214105446Y-136826101D01*
X214064182Y-136665734D01*
X213994587Y-136472995D01*
X213893741Y-136311979D01*
X213762870Y-136184046D01*
X213603204Y-136090559D01*
X213515803Y-136058041D01*
X213410822Y-136034995D01*
X213274864Y-136019055D01*
X213121807Y-136010596D01*
X212965529Y-136009994D01*
X212819909Y-136017626D01*
X212698824Y-136033866D01*
X212690025Y-136035673D01*
X212513834Y-136086343D01*
X212360331Y-136156861D01*
X212236255Y-136243180D01*
X212148346Y-136341252D01*
X212130386Y-136371686D01*
X212107454Y-136448025D01*
X212099531Y-136547458D01*
X212106690Y-136650256D01*
X212129004Y-136736685D01*
X212129032Y-136736752D01*
X212164967Y-136796107D01*
X212220362Y-136861327D01*
X212247407Y-136887116D01*
X212306873Y-136934232D01*
X212376214Y-136978289D01*
X212459893Y-137020901D01*
X212562377Y-137063682D01*
X212688130Y-137108248D01*
X212841618Y-137156213D01*
X213027305Y-137209192D01*
X213249657Y-137268799D01*
X213436428Y-137317103D01*
X213750274Y-137401297D01*
X214023178Y-137483583D01*
X214259378Y-137566098D01*
X214463107Y-137650977D01*
X214638601Y-137740357D01*
X214790096Y-137836375D01*
X214921828Y-137941167D01*
X215038031Y-138056868D01*
X215133647Y-138173166D01*
X215242507Y-138345468D01*
X215332520Y-138542798D01*
X215395397Y-138746074D01*
X215407405Y-138803585D01*
X215425052Y-138945109D01*
X215432548Y-139110686D01*
X215430263Y-139284673D01*
X215418569Y-139451429D01*
X215397839Y-139595314D01*
X215387500Y-139641401D01*
X215323079Y-139832721D01*
X215229110Y-140030214D01*
X215114633Y-140216207D01*
X215048303Y-140304613D01*
X214873069Y-140485408D01*
X214662131Y-140640166D01*
X214417594Y-140767908D01*
X214141561Y-140867654D01*
X213836136Y-140938424D01*
X213622637Y-140968445D01*
X213446432Y-140982327D01*
X213250022Y-140989306D01*
X213047612Y-140989504D01*
X212853409Y-140983046D01*
X212681616Y-140970055D01*
X212597321Y-140959498D01*
X212287341Y-140898740D01*
X212012881Y-140814451D01*
X211769461Y-140704486D01*
X211552604Y-140566698D01*
X211357829Y-140398942D01*
X211298040Y-140337078D01*
X211151579Y-140151526D01*
X211021569Y-139932745D01*
X210912629Y-139691292D01*
X210829375Y-139437725D01*
X210776423Y-139182601D01*
X210769406Y-139128259D01*
X210762091Y-139055101D01*
X210763756Y-139016161D01*
X210777626Y-139000666D01*
X210806928Y-138997842D01*
X210808454Y-138997840D01*
X210846837Y-138995702D01*
X210922629Y-138989746D01*
X211028103Y-138980644D01*
X211155533Y-138969066D01*
X211297193Y-138955683D01*
X211327321Y-138952775D01*
X211501296Y-138935879D01*
X211635424Y-138923213D01*
X211735030Y-138914932D01*
X211805442Y-138911190D01*
X211851985Y-138912139D01*
X211879986Y-138917934D01*
X211894771Y-138928728D01*
X211901666Y-138944676D01*
X211905997Y-138965932D01*
X211906738Y-138969509D01*
X211937902Y-139084752D01*
X211983833Y-139217631D01*
X212037496Y-139350014D01*
X212091854Y-139463769D01*
X212113243Y-139501702D01*
X212236881Y-139663918D01*
X212392416Y-139794475D01*
X212578787Y-139892873D01*
X212794931Y-139958616D01*
X213039789Y-139991205D01*
X213164285Y-139994927D01*
X213417181Y-139980309D01*
X213637328Y-139935989D01*
X213826849Y-139861266D01*
X213987868Y-139755440D01*
X214044309Y-139704697D01*
X214156896Y-139569232D01*
X214230659Y-139424532D01*
X214265015Y-139276086D01*
X214259382Y-139129380D01*
X214213178Y-138989904D01*
X214132789Y-138870925D01*
X214082217Y-138819365D01*
X214023219Y-138772122D01*
X213951629Y-138727619D01*
X213863284Y-138684280D01*
X213754019Y-138640527D01*
X213619669Y-138594785D01*
X213456069Y-138545477D01*
X213259056Y-138491026D01*
X213024465Y-138429856D01*
X212853667Y-138386699D01*
X212501473Y-138289589D01*
X212192105Y-138185409D01*
X211926115Y-138074386D01*
X211704059Y-137956745D01*
X211558187Y-137857843D01*
X211369578Y-137685709D01*
X211215784Y-137488385D01*
X211097833Y-137270946D01*
X211016757Y-137038465D01*
X210973584Y-136796017D01*
X210969346Y-136548677D01*
X211005073Y-136301518D01*
X211081794Y-136059616D01*
X211160070Y-135896799D01*
X211284884Y-135713077D01*
X211445529Y-135541503D01*
X211632659Y-135390164D01*
X211836930Y-135267145D01*
X211944721Y-135217905D01*
X212111354Y-135155619D01*
X212271902Y-135108682D01*
X212437851Y-135074980D01*
X212620689Y-135052400D01*
X212831903Y-135038826D01*
X212937791Y-135035134D01*
X213229939Y-135033001D01*
X213486632Y-135044987D01*
G36*
X196138348Y-135127046D02*
G01*
X196494595Y-135129765D01*
X196812866Y-135132980D01*
X197092145Y-135136670D01*
X197331416Y-135140814D01*
X197529663Y-135145391D01*
X197685871Y-135150380D01*
X197799024Y-135155760D01*
X197868107Y-135161511D01*
X197878928Y-135163099D01*
X198089430Y-135204224D01*
X198263593Y-135249936D01*
X198410433Y-135304363D01*
X198538965Y-135371632D01*
X198658204Y-135455868D01*
X198777168Y-135561200D01*
X198802399Y-135585833D01*
X198897891Y-135684505D01*
X198968407Y-135769383D01*
X199024550Y-135854807D01*
X199076919Y-135955117D01*
X199079734Y-135961002D01*
X199148870Y-136116744D01*
X199197129Y-136255619D01*
X199227777Y-136392648D01*
X199244079Y-136542856D01*
X199249300Y-136721265D01*
X199249338Y-136741339D01*
X199237440Y-136995293D01*
X199199861Y-137217428D01*
X199133775Y-137415104D01*
X199036356Y-137595679D01*
X198904779Y-137766513D01*
X198822211Y-137853652D01*
X198711423Y-137956558D01*
X198600495Y-138042462D01*
X198481421Y-138115341D01*
X198346194Y-138179170D01*
X198186810Y-138237928D01*
X197995261Y-138295590D01*
X197859428Y-138331866D01*
X197783231Y-138351518D01*
X197950142Y-138464581D01*
X198119945Y-138595003D01*
X198295000Y-138757436D01*
X198464914Y-138941314D01*
X198619295Y-139136076D01*
X198642146Y-139167946D01*
X198681138Y-139225149D01*
X198737762Y-139310945D01*
X198809023Y-139420589D01*
X198891927Y-139549336D01*
X198983478Y-139692441D01*
X199080684Y-139845156D01*
X199180548Y-140002738D01*
X199280077Y-140160440D01*
X199376275Y-140313517D01*
X199466149Y-140457224D01*
X199546703Y-140586814D01*
X199614943Y-140697542D01*
X199667875Y-140784663D01*
X199702503Y-140843431D01*
X199715834Y-140869101D01*
X199715892Y-140869531D01*
X199694125Y-140872164D01*
X199632470Y-140874560D01*
X199536395Y-140876635D01*
X199411369Y-140878308D01*
X199262860Y-140879494D01*
X199096338Y-140880110D01*
X199016812Y-140880179D01*
X198317732Y-140880179D01*
X197738417Y-140012723D01*
X197613515Y-139826423D01*
X197490684Y-139644574D01*
X197373372Y-139472186D01*
X197265028Y-139314272D01*
X197169099Y-139175840D01*
X197089035Y-139061902D01*
X197028282Y-138977469D01*
X197000441Y-138940342D01*
X196880272Y-138797055D01*
X196763394Y-138686516D01*
X196641430Y-138604885D01*
X196506004Y-138548317D01*
X196348739Y-138512969D01*
X196161258Y-138495000D01*
X196020604Y-138490833D01*
X195735803Y-138487589D01*
X195724063Y-140880179D01*
X194545178Y-140880179D01*
X194545178Y-136117679D01*
X195724464Y-136117679D01*
X195724464Y-137546429D01*
X196433169Y-137546242D01*
X196619182Y-137545453D01*
X196800318Y-137543309D01*
X196968926Y-137540006D01*
X197117353Y-137535736D01*
X197237948Y-137530691D01*
X197323061Y-137525066D01*
X197340027Y-137523352D01*
X197518620Y-137495016D01*
X197660414Y-137453701D01*
X197772860Y-137396377D01*
X197863412Y-137320017D01*
X197876969Y-137305147D01*
X197969838Y-137167636D01*
X198025187Y-137007632D01*
X198043920Y-136822452D01*
X198043891Y-136809375D01*
X198024550Y-136624068D01*
X197969659Y-136466920D01*
X197879111Y-136337785D01*
X197752801Y-136236518D01*
X197590619Y-136162974D01*
X197560791Y-136153608D01*
X197522190Y-136144059D01*
X197473984Y-136136305D01*
X197411453Y-136130172D01*
X197329877Y-136125487D01*
X197224535Y-136122077D01*
X197090708Y-136119768D01*
X196923676Y-136118388D01*
X196718718Y-136117763D01*
X196582133Y-136117679D01*
X195724464Y-136117679D01*
X194545178Y-136117679D01*
X194545178Y-135116576D01*
X196138348Y-135127046D01*
G37*
X196138348Y-135127046D02*
X196494595Y-135129765D01*
X196812866Y-135132980D01*
X197092145Y-135136670D01*
X197331416Y-135140814D01*
X197529663Y-135145391D01*
X197685871Y-135150380D01*
X197799024Y-135155760D01*
X197868107Y-135161511D01*
X197878928Y-135163099D01*
X198089430Y-135204224D01*
X198263593Y-135249936D01*
X198410433Y-135304363D01*
X198538965Y-135371632D01*
X198658204Y-135455868D01*
X198777168Y-135561200D01*
X198802399Y-135585833D01*
X198897891Y-135684505D01*
X198968407Y-135769383D01*
X199024550Y-135854807D01*
X199076919Y-135955117D01*
X199079734Y-135961002D01*
X199148870Y-136116744D01*
X199197129Y-136255619D01*
X199227777Y-136392648D01*
X199244079Y-136542856D01*
X199249300Y-136721265D01*
X199249338Y-136741339D01*
X199237440Y-136995293D01*
X199199861Y-137217428D01*
X199133775Y-137415104D01*
X199036356Y-137595679D01*
X198904779Y-137766513D01*
X198822211Y-137853652D01*
X198711423Y-137956558D01*
X198600495Y-138042462D01*
X198481421Y-138115341D01*
X198346194Y-138179170D01*
X198186810Y-138237928D01*
X197995261Y-138295590D01*
X197859428Y-138331866D01*
X197783231Y-138351518D01*
X197950142Y-138464581D01*
X198119945Y-138595003D01*
X198295000Y-138757436D01*
X198464914Y-138941314D01*
X198619295Y-139136076D01*
X198642146Y-139167946D01*
X198681138Y-139225149D01*
X198737762Y-139310945D01*
X198809023Y-139420589D01*
X198891927Y-139549336D01*
X198983478Y-139692441D01*
X199080684Y-139845156D01*
X199180548Y-140002738D01*
X199280077Y-140160440D01*
X199376275Y-140313517D01*
X199466149Y-140457224D01*
X199546703Y-140586814D01*
X199614943Y-140697542D01*
X199667875Y-140784663D01*
X199702503Y-140843431D01*
X199715834Y-140869101D01*
X199715892Y-140869531D01*
X199694125Y-140872164D01*
X199632470Y-140874560D01*
X199536395Y-140876635D01*
X199411369Y-140878308D01*
X199262860Y-140879494D01*
X199096338Y-140880110D01*
X199016812Y-140880179D01*
X198317732Y-140880179D01*
X197738417Y-140012723D01*
X197613515Y-139826423D01*
X197490684Y-139644574D01*
X197373372Y-139472186D01*
X197265028Y-139314272D01*
X197169099Y-139175840D01*
X197089035Y-139061902D01*
X197028282Y-138977469D01*
X197000441Y-138940342D01*
X196880272Y-138797055D01*
X196763394Y-138686516D01*
X196641430Y-138604885D01*
X196506004Y-138548317D01*
X196348739Y-138512969D01*
X196161258Y-138495000D01*
X196020604Y-138490833D01*
X195735803Y-138487589D01*
X195724063Y-140880179D01*
X194545178Y-140880179D01*
X194545178Y-136117679D01*
X195724464Y-136117679D01*
X195724464Y-137546429D01*
X196433169Y-137546242D01*
X196619182Y-137545453D01*
X196800318Y-137543309D01*
X196968926Y-137540006D01*
X197117353Y-137535736D01*
X197237948Y-137530691D01*
X197323061Y-137525066D01*
X197340027Y-137523352D01*
X197518620Y-137495016D01*
X197660414Y-137453701D01*
X197772860Y-137396377D01*
X197863412Y-137320017D01*
X197876969Y-137305147D01*
X197969838Y-137167636D01*
X198025187Y-137007632D01*
X198043920Y-136822452D01*
X198043891Y-136809375D01*
X198024550Y-136624068D01*
X197969659Y-136466920D01*
X197879111Y-136337785D01*
X197752801Y-136236518D01*
X197590619Y-136162974D01*
X197560791Y-136153608D01*
X197522190Y-136144059D01*
X197473984Y-136136305D01*
X197411453Y-136130172D01*
X197329877Y-136125487D01*
X197224535Y-136122077D01*
X197090708Y-136119768D01*
X196923676Y-136118388D01*
X196718718Y-136117763D01*
X196582133Y-136117679D01*
X195724464Y-136117679D01*
X194545178Y-136117679D01*
X194545178Y-135116576D01*
X196138348Y-135127046D01*
G36*
X206428750Y-137387679D02*
G01*
X208673928Y-137387679D01*
X208673928Y-135119821D01*
X209853214Y-135119821D01*
X209853214Y-140880179D01*
X208673928Y-140880179D01*
X208673928Y-138362430D01*
X207557008Y-138368313D01*
X206440089Y-138374196D01*
X206434227Y-139627187D01*
X206428365Y-140880179D01*
X205249464Y-140880179D01*
X205249464Y-135119821D01*
X206428750Y-135119821D01*
X206428750Y-137387679D01*
G37*
X206428750Y-137387679D02*
X208673928Y-137387679D01*
X208673928Y-135119821D01*
X209853214Y-135119821D01*
X209853214Y-140880179D01*
X208673928Y-140880179D01*
X208673928Y-138362430D01*
X207557008Y-138368313D01*
X206440089Y-138374196D01*
X206434227Y-139627187D01*
X206428365Y-140880179D01*
X205249464Y-140880179D01*
X205249464Y-135119821D01*
X206428750Y-135119821D01*
X206428750Y-137387679D01*
D14*
X76760000Y-140217000D02*
X76760000Y-133867000D01*
X76760000Y-140217000D02*
X71460000Y-140217000D01*
X71460000Y-140217000D02*
X71460000Y-45983000D01*
X71460000Y-45983000D02*
X76760000Y-45983000D01*
X76760000Y-45983000D02*
X76760000Y-52333000D01*
X100850000Y-64120000D02*
G75*
G03*
X100850000Y-64120000I-950000J0D01*
G01*
X100250000Y-50000000D02*
G75*
G03*
X100250000Y-50000000I-950000J0D01*
G01*
X189950000Y-138300000D02*
G75*
G03*
X189950000Y-138300000I-950000J0D01*
G01*
X111840000Y-84560000D02*
G75*
G03*
X111840000Y-84560000I-950000J0D01*
G01*
X103250000Y-84600000D02*
G75*
G03*
X103250000Y-84600000I-950000J0D01*
G01*
X95737221Y-84510000D02*
X96062779Y-84510000D01*
X95737221Y-83490000D02*
X96062779Y-83490000D01*
X120740000Y-112237221D02*
X120740000Y-112562779D01*
X121760000Y-112237221D02*
X121760000Y-112562779D01*
X123741422Y-111710000D02*
X124258578Y-111710000D01*
X123741422Y-110290000D02*
X124258578Y-110290000D01*
X92297500Y-54301250D02*
X89422500Y-54301250D01*
X92297500Y-54301250D02*
X93797500Y-54301250D01*
X92297500Y-58521250D02*
X90797500Y-58521250D01*
X92297500Y-58521250D02*
X93797500Y-58521250D01*
X90990000Y-80910000D02*
X88115000Y-80910000D01*
X90990000Y-80910000D02*
X92490000Y-80910000D01*
X90990000Y-85130000D02*
X89490000Y-85130000D01*
X90990000Y-85130000D02*
X92490000Y-85130000D01*
X120970000Y-54225000D02*
X120970000Y-50015000D01*
X117950000Y-54225000D02*
X120970000Y-54225000D01*
X117950000Y-50015000D02*
X117950000Y-54225000D01*
X115160000Y-117502064D02*
X115160000Y-116297936D01*
X112440000Y-117502064D02*
X112440000Y-116297936D01*
X110890000Y-111641422D02*
X110890000Y-112158578D01*
X112310000Y-111641422D02*
X112310000Y-112158578D01*
X116400000Y-108240000D02*
X113525000Y-108240000D01*
X116400000Y-108240000D02*
X117900000Y-108240000D01*
X116400000Y-112560000D02*
X114900000Y-112560000D01*
X116400000Y-112560000D02*
X117900000Y-112560000D01*
X195500000Y-57560000D02*
X198950000Y-57560000D01*
X195500000Y-57560000D02*
X193550000Y-57560000D01*
X195500000Y-52440000D02*
X197450000Y-52440000D01*
X195500000Y-52440000D02*
X193550000Y-52440000D01*
X152460000Y-59600000D02*
X152460000Y-56150000D01*
X152460000Y-59600000D02*
X152460000Y-61550000D01*
X147340000Y-59600000D02*
X147340000Y-57650000D01*
X147340000Y-59600000D02*
X147340000Y-61550000D01*
X133860000Y-59500000D02*
X133860000Y-56050000D01*
X133860000Y-59500000D02*
X133860000Y-61450000D01*
X128740000Y-59500000D02*
X128740000Y-57550000D01*
X128740000Y-59500000D02*
X128740000Y-61450000D01*
X117865000Y-59500000D02*
X117865000Y-62950000D01*
X117865000Y-59500000D02*
X117865000Y-57550000D01*
X126735000Y-59500000D02*
X126735000Y-61450000D01*
X126735000Y-59500000D02*
X126735000Y-57550000D01*
X88240000Y-69300000D02*
X88240000Y-72750000D01*
X88240000Y-69300000D02*
X88240000Y-67350000D01*
X93360000Y-69300000D02*
X93360000Y-71250000D01*
X93360000Y-69300000D02*
X93360000Y-67350000D01*
X150162779Y-64240000D02*
X149837221Y-64240000D01*
X150162779Y-65260000D02*
X149837221Y-65260000D01*
X146260000Y-61912779D02*
X146260000Y-61587221D01*
X145240000Y-61912779D02*
X145240000Y-61587221D01*
X145240000Y-65087221D02*
X145240000Y-65412779D01*
X146260000Y-65087221D02*
X146260000Y-65412779D01*
X148010000Y-65412779D02*
X148010000Y-65087221D01*
X146990000Y-65412779D02*
X146990000Y-65087221D01*
X195762779Y-50190000D02*
X195437221Y-50190000D01*
X195762779Y-51210000D02*
X195437221Y-51210000D01*
X180490000Y-62337221D02*
X180490000Y-62662779D01*
X181510000Y-62337221D02*
X181510000Y-62662779D01*
X132912779Y-64190000D02*
X132587221Y-64190000D01*
X132912779Y-65210000D02*
X132587221Y-65210000D01*
X181837221Y-59510000D02*
X182162779Y-59510000D01*
X181837221Y-58490000D02*
X182162779Y-58490000D01*
X191010000Y-58162779D02*
X191010000Y-57837221D01*
X189990000Y-58162779D02*
X189990000Y-57837221D01*
X198910000Y-50062779D02*
X198910000Y-49737221D01*
X197890000Y-50062779D02*
X197890000Y-49737221D01*
X201662779Y-52490000D02*
X201337221Y-52490000D01*
X201662779Y-53510000D02*
X201337221Y-53510000D01*
X154010000Y-63262779D02*
X154010000Y-62937221D01*
X152990000Y-63262779D02*
X152990000Y-62937221D01*
X147490000Y-54037221D02*
X147490000Y-54362779D01*
X148510000Y-54037221D02*
X148510000Y-54362779D01*
X132690000Y-53937221D02*
X132690000Y-54262779D01*
X133710000Y-53937221D02*
X133710000Y-54262779D01*
X121790000Y-53837221D02*
X121790000Y-54162779D01*
X122810000Y-53837221D02*
X122810000Y-54162779D01*
X122810000Y-65412779D02*
X122810000Y-65087221D01*
X121790000Y-65412779D02*
X121790000Y-65087221D01*
X123062779Y-107990000D02*
X122737221Y-107990000D01*
X123062779Y-109010000D02*
X122737221Y-109010000D01*
X110337221Y-108210000D02*
X110662779Y-108210000D01*
X110337221Y-107190000D02*
X110662779Y-107190000D01*
X94690000Y-101941422D02*
X94690000Y-102458578D01*
X96110000Y-101941422D02*
X96110000Y-102458578D01*
X101441422Y-101910000D02*
X101958578Y-101910000D01*
X101441422Y-100490000D02*
X101958578Y-100490000D01*
X97841422Y-101910000D02*
X98358578Y-101910000D01*
X97841422Y-100490000D02*
X98358578Y-100490000D01*
X110662779Y-108790000D02*
X110337221Y-108790000D01*
X110662779Y-109810000D02*
X110337221Y-109810000D01*
X120910000Y-107862779D02*
X120910000Y-107537221D01*
X119890000Y-107862779D02*
X119890000Y-107537221D01*
X123062779Y-106490000D02*
X122737221Y-106490000D01*
X123062779Y-107510000D02*
X122737221Y-107510000D01*
X204510000Y-56662779D02*
X204510000Y-56337221D01*
X203490000Y-56662779D02*
X203490000Y-56337221D01*
X201010000Y-56662779D02*
X201010000Y-56337221D01*
X199990000Y-56662779D02*
X199990000Y-56337221D01*
X191010000Y-54662779D02*
X191010000Y-54337221D01*
X189990000Y-54662779D02*
X189990000Y-54337221D01*
X187510000Y-54662779D02*
X187510000Y-54337221D01*
X186490000Y-54662779D02*
X186490000Y-54337221D01*
X131702064Y-66640000D02*
X130497936Y-66640000D01*
X131702064Y-69360000D02*
X130497936Y-69360000D01*
X111362779Y-72090000D02*
X111037221Y-72090000D01*
X111362779Y-73110000D02*
X111037221Y-73110000D01*
X125972779Y-63950000D02*
X125647221Y-63950000D01*
X125972779Y-64970000D02*
X125647221Y-64970000D01*
X125637221Y-66910000D02*
X125962779Y-66910000D01*
X125637221Y-65890000D02*
X125962779Y-65890000D01*
X124110000Y-70962779D02*
X124110000Y-70637221D01*
X123090000Y-70962779D02*
X123090000Y-70637221D01*
X122812779Y-67390000D02*
X122487221Y-67390000D01*
X122812779Y-68410000D02*
X122487221Y-68410000D01*
X119087221Y-66510000D02*
X119412779Y-66510000D01*
X119087221Y-65490000D02*
X119412779Y-65490000D01*
X119087221Y-64870000D02*
X119412779Y-64870000D01*
X119087221Y-63850000D02*
X119412779Y-63850000D01*
X115437221Y-53810000D02*
X115762779Y-53810000D01*
X115437221Y-52790000D02*
X115762779Y-52790000D01*
X99162779Y-60490000D02*
X98837221Y-60490000D01*
X99162779Y-61510000D02*
X98837221Y-61510000D01*
X208102064Y-57140000D02*
X206897936Y-57140000D01*
X208102064Y-59860000D02*
X206897936Y-59860000D01*
X168360000Y-64102064D02*
X168360000Y-62897936D01*
X165640000Y-64102064D02*
X165640000Y-62897936D01*
X153502064Y-49540000D02*
X152297936Y-49540000D01*
X153502064Y-52260000D02*
X152297936Y-52260000D01*
X124840000Y-52697936D02*
X124840000Y-53902064D01*
X127560000Y-52697936D02*
X127560000Y-53902064D01*
X96197936Y-87510000D02*
X97402064Y-87510000D01*
X96197936Y-85690000D02*
X97402064Y-85690000D01*
X99602064Y-58090000D02*
X98397936Y-58090000D01*
X99602064Y-59910000D02*
X98397936Y-59910000D01*
X113290000Y-73597936D02*
X113290000Y-74802064D01*
X115110000Y-73597936D02*
X115110000Y-74802064D01*
X89262064Y-76230000D02*
X88057936Y-76230000D01*
X89262064Y-74410000D02*
X88057936Y-74410000D01*
X108800000Y-61420000D02*
X112400000Y-61420000D01*
X108800000Y-68780000D02*
X112400000Y-68780000D01*
X114280000Y-63300000D02*
X114280000Y-66900000D01*
X106920000Y-63300000D02*
X106920000Y-66900000D01*
X138200000Y-61420000D02*
X141800000Y-61420000D01*
X138200000Y-68780000D02*
X141800000Y-68780000D01*
X143680000Y-63300000D02*
X143680000Y-66900000D01*
X136320000Y-63300000D02*
X136320000Y-66900000D01*
X186700000Y-61320000D02*
X190300000Y-61320000D01*
X186700000Y-68680000D02*
X190300000Y-68680000D01*
X192180000Y-63200000D02*
X192180000Y-66800000D01*
X184820000Y-63200000D02*
X184820000Y-66800000D01*
X200700000Y-61320000D02*
X204300000Y-61320000D01*
X200700000Y-68680000D02*
X204300000Y-68680000D01*
X206180000Y-63200000D02*
X206180000Y-66800000D01*
X198820000Y-63200000D02*
X198820000Y-66800000D01*
X172700000Y-61320000D02*
X176300000Y-61320000D01*
X172700000Y-68680000D02*
X176300000Y-68680000D01*
X178180000Y-63200000D02*
X178180000Y-66800000D01*
X170820000Y-63200000D02*
X170820000Y-66800000D01*
X158700000Y-61420000D02*
X162300000Y-61420000D01*
X158700000Y-68780000D02*
X162300000Y-68780000D01*
X164180000Y-63300000D02*
X164180000Y-66900000D01*
X156820000Y-63300000D02*
X156820000Y-66900000D01*
X158700000Y-47320000D02*
X162300000Y-47320000D01*
X158700000Y-54680000D02*
X162300000Y-54680000D01*
X164180000Y-49200000D02*
X164180000Y-52800000D01*
X156820000Y-49200000D02*
X156820000Y-52800000D01*
X138000000Y-47320000D02*
X141600000Y-47320000D01*
X138000000Y-54680000D02*
X141600000Y-54680000D01*
X143480000Y-49200000D02*
X143480000Y-52800000D01*
X136120000Y-49200000D02*
X136120000Y-52800000D01*
X96640000Y-53587936D02*
X96640000Y-54792064D01*
X99360000Y-53587936D02*
X99360000Y-54792064D01*
X98210000Y-80602064D02*
X98210000Y-79397936D01*
X95490000Y-80602064D02*
X95490000Y-79397936D01*
X84240000Y-83397936D02*
X84240000Y-84602064D01*
X86960000Y-83397936D02*
X86960000Y-84602064D01*
X88110000Y-58052064D02*
X88110000Y-56847936D01*
X85390000Y-58052064D02*
X85390000Y-56847936D01*
D11*
X97000000Y-73350000D02*
X102800000Y-73350000D01*
X97000000Y-65730000D02*
X102800000Y-65730000D01*
X101800000Y-73350000D02*
X101800000Y-65730000D01*
X102800000Y-73350000D02*
X102800000Y-65730000D01*
X97000000Y-73350000D02*
X97000000Y-65730000D01*
D15*
X140804000Y-136000000D02*
G75*
G03*
X140804000Y-136000000I-254000J0D01*
G01*
X136804000Y-136000000D02*
G75*
G03*
X136804000Y-136000000I-254000J0D01*
G01*
X138804000Y-136000000D02*
G75*
G03*
X138804000Y-136000000I-254000J0D01*
G01*
X136804000Y-138000000D02*
G75*
G03*
X136804000Y-138000000I-254000J0D01*
G01*
X138804000Y-138000000D02*
G75*
G03*
X138804000Y-138000000I-254000J0D01*
G01*
X140804000Y-138000000D02*
G75*
G03*
X140804000Y-138000000I-254000J0D01*
G01*
X140804000Y-140000000D02*
G75*
G03*
X140804000Y-140000000I-254000J0D01*
G01*
X138804000Y-140000000D02*
G75*
G03*
X138804000Y-140000000I-254000J0D01*
G01*
X136804000Y-140000000D02*
G75*
G03*
X136804000Y-140000000I-254000J0D01*
G01*
D11*
X91250000Y-93665000D02*
X92850000Y-93665000D01*
X91250000Y-138335000D02*
X92850000Y-138335000D01*
X97250000Y-93665000D02*
X98850000Y-93665000D01*
X97250000Y-138335000D02*
X98850000Y-138335000D01*
X103250000Y-93665000D02*
X104850000Y-93665000D01*
X103250000Y-138335000D02*
X104850000Y-138335000D01*
X109250000Y-93665000D02*
X110950000Y-93665000D01*
X109250000Y-138335000D02*
X110950000Y-138335000D01*
X115350000Y-93665000D02*
X116950000Y-93665000D01*
X115350000Y-138335000D02*
X116950000Y-138335000D01*
X121350000Y-93665000D02*
X122950000Y-93665000D01*
X121350000Y-138335000D02*
X122950000Y-138335000D01*
X127350000Y-93665000D02*
X128950000Y-93665000D01*
X127350000Y-138335000D02*
X128950000Y-138335000D01*
X87765000Y-97150000D02*
X87765000Y-98750000D01*
X132435000Y-97150000D02*
X132435000Y-98750000D01*
X87765000Y-103150000D02*
X87765000Y-104750000D01*
X132435000Y-103150000D02*
X132435000Y-104750000D01*
X87765000Y-109150000D02*
X87765000Y-110750000D01*
X132435000Y-109150000D02*
X132435000Y-110750000D01*
X87765000Y-115150000D02*
X87765000Y-116850000D01*
X132435000Y-115150000D02*
X132435000Y-116850000D01*
X87765000Y-121250000D02*
X87765000Y-122850000D01*
X132435000Y-121250000D02*
X132435000Y-122850000D01*
X87765000Y-127250000D02*
X87765000Y-128850000D01*
X132435000Y-127250000D02*
X132435000Y-128850000D01*
X87765000Y-133250000D02*
X87765000Y-134850000D01*
X132435000Y-133250000D02*
X132435000Y-134850000D01*
D14*
X107500000Y-104600000D02*
X107500000Y-107600000D01*
X94900000Y-104600000D02*
X107500000Y-104600000D01*
X94900000Y-107600000D02*
X94900000Y-104600000D01*
X94900000Y-117200000D02*
X94900000Y-114200000D01*
X107500000Y-117200000D02*
X94900000Y-117200000D01*
X107500000Y-114200000D02*
X107500000Y-117200000D01*
X129000000Y-127800000D02*
X126000000Y-127800000D01*
X129000000Y-115200000D02*
X129000000Y-127800000D01*
X126000000Y-115200000D02*
X129000000Y-115200000D01*
X116400000Y-115200000D02*
X119400000Y-115200000D01*
X116400000Y-127800000D02*
X116400000Y-115200000D01*
X119400000Y-127800000D02*
X116400000Y-127800000D01*
D11*
X231100000Y-133500000D02*
X136100000Y-133500000D01*
X136100000Y-133500000D02*
X136100000Y-72700000D01*
X136100000Y-72700000D02*
X231100000Y-72700000D01*
X231100000Y-72700000D02*
X231100000Y-133500000D01*
X230903701Y-130100000D02*
G75*
G03*
X230903701Y-130100000I-3203701J0D01*
G01*
X230904949Y-76110000D02*
G75*
G03*
X230904949Y-76110000I-3204949J0D01*
G01*
X146902202Y-130100000D02*
G75*
G03*
X146902202Y-130100000I-3202202J0D01*
G01*
X146904122Y-76090000D02*
G75*
G03*
X146904122Y-76090000I-3204122J0D01*
G01*
D14*
X188217000Y-123822000D02*
X147037000Y-123822000D01*
X147037000Y-123822000D02*
X147037000Y-133172000D01*
X147037000Y-133172000D02*
X188217000Y-133172000D01*
X188217000Y-133172000D02*
X188217000Y-123822000D01*
X188467000Y-133422000D02*
X185927000Y-133422000D01*
X188467000Y-133422000D02*
X188467000Y-130882000D01*
D11*
X94638095Y-64171428D02*
X95400000Y-64171428D01*
X95019047Y-64552380D02*
X95019047Y-63790476D01*
X96400000Y-64552380D02*
X95828571Y-64552380D01*
X96114285Y-64552380D02*
X96114285Y-63552380D01*
X96019047Y-63695238D01*
X95923809Y-63790476D01*
X95828571Y-63838095D01*
X97019047Y-63552380D02*
X97114285Y-63552380D01*
X97209523Y-63600000D01*
X97257142Y-63647619D01*
X97304761Y-63742857D01*
X97352380Y-63933333D01*
X97352380Y-64171428D01*
X97304761Y-64361904D01*
X97257142Y-64457142D01*
X97209523Y-64504761D01*
X97114285Y-64552380D01*
X97019047Y-64552380D01*
X96923809Y-64504761D01*
X96876190Y-64457142D01*
X96828571Y-64361904D01*
X96780952Y-64171428D01*
X96780952Y-63933333D01*
X96828571Y-63742857D01*
X96876190Y-63647619D01*
X96923809Y-63600000D01*
X97019047Y-63552380D01*
X97638095Y-63552380D02*
X97971428Y-64552380D01*
X98304761Y-63552380D01*
X97528095Y-47991428D02*
X98290000Y-47991428D01*
X99290000Y-48372380D02*
X98718571Y-48372380D01*
X99004285Y-48372380D02*
X99004285Y-47372380D01*
X98909047Y-47515238D01*
X98813809Y-47610476D01*
X98718571Y-47658095D01*
X99670952Y-47467619D02*
X99718571Y-47420000D01*
X99813809Y-47372380D01*
X100051904Y-47372380D01*
X100147142Y-47420000D01*
X100194761Y-47467619D01*
X100242380Y-47562857D01*
X100242380Y-47658095D01*
X100194761Y-47800952D01*
X99623333Y-48372380D01*
X100242380Y-48372380D01*
X100528095Y-47372380D02*
X100861428Y-48372380D01*
X101194761Y-47372380D01*
X187714285Y-140371428D02*
X188476190Y-140371428D01*
X188095238Y-140752380D02*
X188095238Y-139990476D01*
X189428571Y-139752380D02*
X188952380Y-139752380D01*
X188904761Y-140228571D01*
X188952380Y-140180952D01*
X189047619Y-140133333D01*
X189285714Y-140133333D01*
X189380952Y-140180952D01*
X189428571Y-140228571D01*
X189476190Y-140323809D01*
X189476190Y-140561904D01*
X189428571Y-140657142D01*
X189380952Y-140704761D01*
X189285714Y-140752380D01*
X189047619Y-140752380D01*
X188952380Y-140704761D01*
X188904761Y-140657142D01*
X189761904Y-139752380D02*
X190095238Y-140752380D01*
X190428571Y-139752380D01*
X110128095Y-86060000D02*
X110032857Y-86012380D01*
X109890000Y-86012380D01*
X109747142Y-86060000D01*
X109651904Y-86155238D01*
X109604285Y-86250476D01*
X109556666Y-86440952D01*
X109556666Y-86583809D01*
X109604285Y-86774285D01*
X109651904Y-86869523D01*
X109747142Y-86964761D01*
X109890000Y-87012380D01*
X109985238Y-87012380D01*
X110128095Y-86964761D01*
X110175714Y-86917142D01*
X110175714Y-86583809D01*
X109985238Y-86583809D01*
X110604285Y-87012380D02*
X110604285Y-86012380D01*
X111175714Y-87012380D01*
X111175714Y-86012380D01*
X111651904Y-87012380D02*
X111651904Y-86012380D01*
X111890000Y-86012380D01*
X112032857Y-86060000D01*
X112128095Y-86155238D01*
X112175714Y-86250476D01*
X112223333Y-86440952D01*
X112223333Y-86583809D01*
X112175714Y-86774285D01*
X112128095Y-86869523D01*
X112032857Y-86964761D01*
X111890000Y-87012380D01*
X111651904Y-87012380D01*
X100538095Y-86671428D02*
X101300000Y-86671428D01*
X100919047Y-87052380D02*
X100919047Y-86290476D01*
X102300000Y-87052380D02*
X101728571Y-87052380D01*
X102014285Y-87052380D02*
X102014285Y-86052380D01*
X101919047Y-86195238D01*
X101823809Y-86290476D01*
X101728571Y-86338095D01*
X102680952Y-86147619D02*
X102728571Y-86100000D01*
X102823809Y-86052380D01*
X103061904Y-86052380D01*
X103157142Y-86100000D01*
X103204761Y-86147619D01*
X103252380Y-86242857D01*
X103252380Y-86338095D01*
X103204761Y-86480952D01*
X102633333Y-87052380D01*
X103252380Y-87052380D01*
X103538095Y-86052380D02*
X103871428Y-87052380D01*
X104204761Y-86052380D01*
X97933333Y-84502380D02*
X97600000Y-84026190D01*
X97361904Y-84502380D02*
X97361904Y-83502380D01*
X97742857Y-83502380D01*
X97838095Y-83550000D01*
X97885714Y-83597619D01*
X97933333Y-83692857D01*
X97933333Y-83835714D01*
X97885714Y-83930952D01*
X97838095Y-83978571D01*
X97742857Y-84026190D01*
X97361904Y-84026190D01*
X98885714Y-84502380D02*
X98314285Y-84502380D01*
X98600000Y-84502380D02*
X98600000Y-83502380D01*
X98504761Y-83645238D01*
X98409523Y-83740476D01*
X98314285Y-83788095D01*
X118107142Y-114357142D02*
X118059523Y-114404761D01*
X117916666Y-114452380D01*
X117821428Y-114452380D01*
X117678571Y-114404761D01*
X117583333Y-114309523D01*
X117535714Y-114214285D01*
X117488095Y-114023809D01*
X117488095Y-113880952D01*
X117535714Y-113690476D01*
X117583333Y-113595238D01*
X117678571Y-113500000D01*
X117821428Y-113452380D01*
X117916666Y-113452380D01*
X118059523Y-113500000D01*
X118107142Y-113547619D01*
X119059523Y-114452380D02*
X118488095Y-114452380D01*
X118773809Y-114452380D02*
X118773809Y-113452380D01*
X118678571Y-113595238D01*
X118583333Y-113690476D01*
X118488095Y-113738095D01*
X120011904Y-114452380D02*
X119440476Y-114452380D01*
X119726190Y-114452380D02*
X119726190Y-113452380D01*
X119630952Y-113595238D01*
X119535714Y-113690476D01*
X119440476Y-113738095D01*
X123833333Y-113157142D02*
X123785714Y-113204761D01*
X123642857Y-113252380D01*
X123547619Y-113252380D01*
X123404761Y-113204761D01*
X123309523Y-113109523D01*
X123261904Y-113014285D01*
X123214285Y-112823809D01*
X123214285Y-112680952D01*
X123261904Y-112490476D01*
X123309523Y-112395238D01*
X123404761Y-112300000D01*
X123547619Y-112252380D01*
X123642857Y-112252380D01*
X123785714Y-112300000D01*
X123833333Y-112347619D01*
X124166666Y-112252380D02*
X124833333Y-112252380D01*
X124404761Y-113252380D01*
X91535595Y-52813630D02*
X91535595Y-53623154D01*
X91583214Y-53718392D01*
X91630833Y-53766011D01*
X91726071Y-53813630D01*
X91916547Y-53813630D01*
X92011785Y-53766011D01*
X92059404Y-53718392D01*
X92107023Y-53623154D01*
X92107023Y-52813630D01*
X92535595Y-52908869D02*
X92583214Y-52861250D01*
X92678452Y-52813630D01*
X92916547Y-52813630D01*
X93011785Y-52861250D01*
X93059404Y-52908869D01*
X93107023Y-53004107D01*
X93107023Y-53099345D01*
X93059404Y-53242202D01*
X92487976Y-53813630D01*
X93107023Y-53813630D01*
X90228095Y-79422380D02*
X90228095Y-80231904D01*
X90275714Y-80327142D01*
X90323333Y-80374761D01*
X90418571Y-80422380D01*
X90609047Y-80422380D01*
X90704285Y-80374761D01*
X90751904Y-80327142D01*
X90799523Y-80231904D01*
X90799523Y-79422380D01*
X91799523Y-80422380D02*
X91228095Y-80422380D01*
X91513809Y-80422380D02*
X91513809Y-79422380D01*
X91418571Y-79565238D01*
X91323333Y-79660476D01*
X91228095Y-79708095D01*
X118857142Y-48457142D02*
X118809523Y-48504761D01*
X118666666Y-48552380D01*
X118571428Y-48552380D01*
X118428571Y-48504761D01*
X118333333Y-48409523D01*
X118285714Y-48314285D01*
X118238095Y-48123809D01*
X118238095Y-47980952D01*
X118285714Y-47790476D01*
X118333333Y-47695238D01*
X118428571Y-47600000D01*
X118571428Y-47552380D01*
X118666666Y-47552380D01*
X118809523Y-47600000D01*
X118857142Y-47647619D01*
X119809523Y-48552380D02*
X119238095Y-48552380D01*
X119523809Y-48552380D02*
X119523809Y-47552380D01*
X119428571Y-47695238D01*
X119333333Y-47790476D01*
X119238095Y-47838095D01*
X120142857Y-47552380D02*
X120809523Y-47552380D01*
X120380952Y-48552380D01*
X113057142Y-120257142D02*
X113009523Y-120304761D01*
X112866666Y-120352380D01*
X112771428Y-120352380D01*
X112628571Y-120304761D01*
X112533333Y-120209523D01*
X112485714Y-120114285D01*
X112438095Y-119923809D01*
X112438095Y-119780952D01*
X112485714Y-119590476D01*
X112533333Y-119495238D01*
X112628571Y-119400000D01*
X112771428Y-119352380D01*
X112866666Y-119352380D01*
X113009523Y-119400000D01*
X113057142Y-119447619D01*
X113438095Y-119447619D02*
X113485714Y-119400000D01*
X113580952Y-119352380D01*
X113819047Y-119352380D01*
X113914285Y-119400000D01*
X113961904Y-119447619D01*
X114009523Y-119542857D01*
X114009523Y-119638095D01*
X113961904Y-119780952D01*
X113390476Y-120352380D01*
X114009523Y-120352380D01*
X114628571Y-119352380D02*
X114723809Y-119352380D01*
X114819047Y-119400000D01*
X114866666Y-119447619D01*
X114914285Y-119542857D01*
X114961904Y-119733333D01*
X114961904Y-119971428D01*
X114914285Y-120161904D01*
X114866666Y-120257142D01*
X114819047Y-120304761D01*
X114723809Y-120352380D01*
X114628571Y-120352380D01*
X114533333Y-120304761D01*
X114485714Y-120257142D01*
X114438095Y-120161904D01*
X114390476Y-119971428D01*
X114390476Y-119733333D01*
X114438095Y-119542857D01*
X114485714Y-119447619D01*
X114533333Y-119400000D01*
X114628571Y-119352380D01*
X113733333Y-113857142D02*
X113685714Y-113904761D01*
X113542857Y-113952380D01*
X113447619Y-113952380D01*
X113304761Y-113904761D01*
X113209523Y-113809523D01*
X113161904Y-113714285D01*
X113114285Y-113523809D01*
X113114285Y-113380952D01*
X113161904Y-113190476D01*
X113209523Y-113095238D01*
X113304761Y-113000000D01*
X113447619Y-112952380D01*
X113542857Y-112952380D01*
X113685714Y-113000000D01*
X113733333Y-113047619D01*
X114638095Y-112952380D02*
X114161904Y-112952380D01*
X114114285Y-113428571D01*
X114161904Y-113380952D01*
X114257142Y-113333333D01*
X114495238Y-113333333D01*
X114590476Y-113380952D01*
X114638095Y-113428571D01*
X114685714Y-113523809D01*
X114685714Y-113761904D01*
X114638095Y-113857142D01*
X114590476Y-113904761D01*
X114495238Y-113952380D01*
X114257142Y-113952380D01*
X114161904Y-113904761D01*
X114114285Y-113857142D01*
X115638095Y-106502380D02*
X115638095Y-107311904D01*
X115685714Y-107407142D01*
X115733333Y-107454761D01*
X115828571Y-107502380D01*
X116019047Y-107502380D01*
X116114285Y-107454761D01*
X116161904Y-107407142D01*
X116209523Y-107311904D01*
X116209523Y-106502380D01*
X117114285Y-106502380D02*
X116923809Y-106502380D01*
X116828571Y-106550000D01*
X116780952Y-106597619D01*
X116685714Y-106740476D01*
X116638095Y-106930952D01*
X116638095Y-107311904D01*
X116685714Y-107407142D01*
X116733333Y-107454761D01*
X116828571Y-107502380D01*
X117019047Y-107502380D01*
X117114285Y-107454761D01*
X117161904Y-107407142D01*
X117209523Y-107311904D01*
X117209523Y-107073809D01*
X117161904Y-106978571D01*
X117114285Y-106930952D01*
X117019047Y-106883333D01*
X116828571Y-106883333D01*
X116733333Y-106930952D01*
X116685714Y-106978571D01*
X116638095Y-107073809D01*
X194738095Y-57952380D02*
X194738095Y-58761904D01*
X194785714Y-58857142D01*
X194833333Y-58904761D01*
X194928571Y-58952380D01*
X195119047Y-58952380D01*
X195214285Y-58904761D01*
X195261904Y-58857142D01*
X195309523Y-58761904D01*
X195309523Y-57952380D01*
X195690476Y-57952380D02*
X196357142Y-57952380D01*
X195928571Y-58952380D01*
X152852380Y-60361904D02*
X153661904Y-60361904D01*
X153757142Y-60314285D01*
X153804761Y-60266666D01*
X153852380Y-60171428D01*
X153852380Y-59980952D01*
X153804761Y-59885714D01*
X153757142Y-59838095D01*
X153661904Y-59790476D01*
X152852380Y-59790476D01*
X153280952Y-59171428D02*
X153233333Y-59266666D01*
X153185714Y-59314285D01*
X153090476Y-59361904D01*
X153042857Y-59361904D01*
X152947619Y-59314285D01*
X152900000Y-59266666D01*
X152852380Y-59171428D01*
X152852380Y-58980952D01*
X152900000Y-58885714D01*
X152947619Y-58838095D01*
X153042857Y-58790476D01*
X153090476Y-58790476D01*
X153185714Y-58838095D01*
X153233333Y-58885714D01*
X153280952Y-58980952D01*
X153280952Y-59171428D01*
X153328571Y-59266666D01*
X153376190Y-59314285D01*
X153471428Y-59361904D01*
X153661904Y-59361904D01*
X153757142Y-59314285D01*
X153804761Y-59266666D01*
X153852380Y-59171428D01*
X153852380Y-58980952D01*
X153804761Y-58885714D01*
X153757142Y-58838095D01*
X153661904Y-58790476D01*
X153471428Y-58790476D01*
X153376190Y-58838095D01*
X153328571Y-58885714D01*
X153280952Y-58980952D01*
X134252380Y-60261904D02*
X135061904Y-60261904D01*
X135157142Y-60214285D01*
X135204761Y-60166666D01*
X135252380Y-60071428D01*
X135252380Y-59880952D01*
X135204761Y-59785714D01*
X135157142Y-59738095D01*
X135061904Y-59690476D01*
X134252380Y-59690476D01*
X134252380Y-58738095D02*
X134252380Y-59214285D01*
X134728571Y-59261904D01*
X134680952Y-59214285D01*
X134633333Y-59119047D01*
X134633333Y-58880952D01*
X134680952Y-58785714D01*
X134728571Y-58738095D01*
X134823809Y-58690476D01*
X135061904Y-58690476D01*
X135157142Y-58738095D01*
X135204761Y-58785714D01*
X135252380Y-58880952D01*
X135252380Y-59119047D01*
X135204761Y-59214285D01*
X135157142Y-59261904D01*
X116377380Y-60261904D02*
X117186904Y-60261904D01*
X117282142Y-60214285D01*
X117329761Y-60166666D01*
X117377380Y-60071428D01*
X117377380Y-59880952D01*
X117329761Y-59785714D01*
X117282142Y-59738095D01*
X117186904Y-59690476D01*
X116377380Y-59690476D01*
X116710714Y-58785714D02*
X117377380Y-58785714D01*
X116329761Y-59023809D02*
X117044047Y-59261904D01*
X117044047Y-58642857D01*
X86752380Y-70061904D02*
X87561904Y-70061904D01*
X87657142Y-70014285D01*
X87704761Y-69966666D01*
X87752380Y-69871428D01*
X87752380Y-69680952D01*
X87704761Y-69585714D01*
X87657142Y-69538095D01*
X87561904Y-69490476D01*
X86752380Y-69490476D01*
X86752380Y-69109523D02*
X86752380Y-68490476D01*
X87133333Y-68823809D01*
X87133333Y-68680952D01*
X87180952Y-68585714D01*
X87228571Y-68538095D01*
X87323809Y-68490476D01*
X87561904Y-68490476D01*
X87657142Y-68538095D01*
X87704761Y-68585714D01*
X87752380Y-68680952D01*
X87752380Y-68966666D01*
X87704761Y-69061904D01*
X87657142Y-69109523D01*
X149257142Y-66802380D02*
X148923809Y-66326190D01*
X148685714Y-66802380D02*
X148685714Y-65802380D01*
X149066666Y-65802380D01*
X149161904Y-65850000D01*
X149209523Y-65897619D01*
X149257142Y-65992857D01*
X149257142Y-66135714D01*
X149209523Y-66230952D01*
X149161904Y-66278571D01*
X149066666Y-66326190D01*
X148685714Y-66326190D01*
X149638095Y-65897619D02*
X149685714Y-65850000D01*
X149780952Y-65802380D01*
X150019047Y-65802380D01*
X150114285Y-65850000D01*
X150161904Y-65897619D01*
X150209523Y-65992857D01*
X150209523Y-66088095D01*
X150161904Y-66230952D01*
X149590476Y-66802380D01*
X150209523Y-66802380D01*
X150542857Y-65802380D02*
X151209523Y-65802380D01*
X150780952Y-66802380D01*
X144907142Y-60202380D02*
X144573809Y-59726190D01*
X144335714Y-60202380D02*
X144335714Y-59202380D01*
X144716666Y-59202380D01*
X144811904Y-59250000D01*
X144859523Y-59297619D01*
X144907142Y-59392857D01*
X144907142Y-59535714D01*
X144859523Y-59630952D01*
X144811904Y-59678571D01*
X144716666Y-59726190D01*
X144335714Y-59726190D01*
X145288095Y-59297619D02*
X145335714Y-59250000D01*
X145430952Y-59202380D01*
X145669047Y-59202380D01*
X145764285Y-59250000D01*
X145811904Y-59297619D01*
X145859523Y-59392857D01*
X145859523Y-59488095D01*
X145811904Y-59630952D01*
X145240476Y-60202380D01*
X145859523Y-60202380D01*
X146764285Y-59202380D02*
X146288095Y-59202380D01*
X146240476Y-59678571D01*
X146288095Y-59630952D01*
X146383333Y-59583333D01*
X146621428Y-59583333D01*
X146716666Y-59630952D01*
X146764285Y-59678571D01*
X146811904Y-59773809D01*
X146811904Y-60011904D01*
X146764285Y-60107142D01*
X146716666Y-60154761D01*
X146621428Y-60202380D01*
X146383333Y-60202380D01*
X146288095Y-60154761D01*
X146240476Y-60107142D01*
X146202380Y-68892857D02*
X145726190Y-69226190D01*
X146202380Y-69464285D02*
X145202380Y-69464285D01*
X145202380Y-69083333D01*
X145250000Y-68988095D01*
X145297619Y-68940476D01*
X145392857Y-68892857D01*
X145535714Y-68892857D01*
X145630952Y-68940476D01*
X145678571Y-68988095D01*
X145726190Y-69083333D01*
X145726190Y-69464285D01*
X145297619Y-68511904D02*
X145250000Y-68464285D01*
X145202380Y-68369047D01*
X145202380Y-68130952D01*
X145250000Y-68035714D01*
X145297619Y-67988095D01*
X145392857Y-67940476D01*
X145488095Y-67940476D01*
X145630952Y-67988095D01*
X146202380Y-68559523D01*
X146202380Y-67940476D01*
X145202380Y-67607142D02*
X145202380Y-66988095D01*
X145583333Y-67321428D01*
X145583333Y-67178571D01*
X145630952Y-67083333D01*
X145678571Y-67035714D01*
X145773809Y-66988095D01*
X146011904Y-66988095D01*
X146107142Y-67035714D01*
X146154761Y-67083333D01*
X146202380Y-67178571D01*
X146202380Y-67464285D01*
X146154761Y-67559523D01*
X146107142Y-67607142D01*
X147952380Y-68016666D02*
X147476190Y-68350000D01*
X147952380Y-68588095D02*
X146952380Y-68588095D01*
X146952380Y-68207142D01*
X147000000Y-68111904D01*
X147047619Y-68064285D01*
X147142857Y-68016666D01*
X147285714Y-68016666D01*
X147380952Y-68064285D01*
X147428571Y-68111904D01*
X147476190Y-68207142D01*
X147476190Y-68588095D01*
X146952380Y-67683333D02*
X146952380Y-67016666D01*
X147952380Y-67445238D01*
X194957142Y-49652380D02*
X194623809Y-49176190D01*
X194385714Y-49652380D02*
X194385714Y-48652380D01*
X194766666Y-48652380D01*
X194861904Y-48700000D01*
X194909523Y-48747619D01*
X194957142Y-48842857D01*
X194957142Y-48985714D01*
X194909523Y-49080952D01*
X194861904Y-49128571D01*
X194766666Y-49176190D01*
X194385714Y-49176190D01*
X195338095Y-48747619D02*
X195385714Y-48700000D01*
X195480952Y-48652380D01*
X195719047Y-48652380D01*
X195814285Y-48700000D01*
X195861904Y-48747619D01*
X195909523Y-48842857D01*
X195909523Y-48938095D01*
X195861904Y-49080952D01*
X195290476Y-49652380D01*
X195909523Y-49652380D01*
X196861904Y-49652380D02*
X196290476Y-49652380D01*
X196576190Y-49652380D02*
X196576190Y-48652380D01*
X196480952Y-48795238D01*
X196385714Y-48890476D01*
X196290476Y-48938095D01*
X182902380Y-63142857D02*
X182426190Y-63476190D01*
X182902380Y-63714285D02*
X181902380Y-63714285D01*
X181902380Y-63333333D01*
X181950000Y-63238095D01*
X181997619Y-63190476D01*
X182092857Y-63142857D01*
X182235714Y-63142857D01*
X182330952Y-63190476D01*
X182378571Y-63238095D01*
X182426190Y-63333333D01*
X182426190Y-63714285D01*
X182902380Y-62190476D02*
X182902380Y-62761904D01*
X182902380Y-62476190D02*
X181902380Y-62476190D01*
X182045238Y-62571428D01*
X182140476Y-62666666D01*
X182188095Y-62761904D01*
X182902380Y-61714285D02*
X182902380Y-61523809D01*
X182854761Y-61428571D01*
X182807142Y-61380952D01*
X182664285Y-61285714D01*
X182473809Y-61238095D01*
X182092857Y-61238095D01*
X181997619Y-61285714D01*
X181950000Y-61333333D01*
X181902380Y-61428571D01*
X181902380Y-61619047D01*
X181950000Y-61714285D01*
X181997619Y-61761904D01*
X182092857Y-61809523D01*
X182330952Y-61809523D01*
X182426190Y-61761904D01*
X182473809Y-61714285D01*
X182521428Y-61619047D01*
X182521428Y-61428571D01*
X182473809Y-61333333D01*
X182426190Y-61285714D01*
X182330952Y-61238095D01*
X135357142Y-64842857D02*
X135404761Y-64890476D01*
X135452380Y-65033333D01*
X135452380Y-65128571D01*
X135404761Y-65271428D01*
X135309523Y-65366666D01*
X135214285Y-65414285D01*
X135023809Y-65461904D01*
X134880952Y-65461904D01*
X134690476Y-65414285D01*
X134595238Y-65366666D01*
X134500000Y-65271428D01*
X134452380Y-65128571D01*
X134452380Y-65033333D01*
X134500000Y-64890476D01*
X134547619Y-64842857D01*
X135452380Y-63890476D02*
X135452380Y-64461904D01*
X135452380Y-64176190D02*
X134452380Y-64176190D01*
X134595238Y-64271428D01*
X134690476Y-64366666D01*
X134738095Y-64461904D01*
X134880952Y-63319047D02*
X134833333Y-63414285D01*
X134785714Y-63461904D01*
X134690476Y-63509523D01*
X134642857Y-63509523D01*
X134547619Y-63461904D01*
X134500000Y-63414285D01*
X134452380Y-63319047D01*
X134452380Y-63128571D01*
X134500000Y-63033333D01*
X134547619Y-62985714D01*
X134642857Y-62938095D01*
X134690476Y-62938095D01*
X134785714Y-62985714D01*
X134833333Y-63033333D01*
X134880952Y-63128571D01*
X134880952Y-63319047D01*
X134928571Y-63414285D01*
X134976190Y-63461904D01*
X135071428Y-63509523D01*
X135261904Y-63509523D01*
X135357142Y-63461904D01*
X135404761Y-63414285D01*
X135452380Y-63319047D01*
X135452380Y-63128571D01*
X135404761Y-63033333D01*
X135357142Y-62985714D01*
X135261904Y-62938095D01*
X135071428Y-62938095D01*
X134976190Y-62985714D01*
X134928571Y-63033333D01*
X134880952Y-63128571D01*
X181357142Y-57857142D02*
X181309523Y-57904761D01*
X181166666Y-57952380D01*
X181071428Y-57952380D01*
X180928571Y-57904761D01*
X180833333Y-57809523D01*
X180785714Y-57714285D01*
X180738095Y-57523809D01*
X180738095Y-57380952D01*
X180785714Y-57190476D01*
X180833333Y-57095238D01*
X180928571Y-57000000D01*
X181071428Y-56952380D01*
X181166666Y-56952380D01*
X181309523Y-57000000D01*
X181357142Y-57047619D01*
X181738095Y-57047619D02*
X181785714Y-57000000D01*
X181880952Y-56952380D01*
X182119047Y-56952380D01*
X182214285Y-57000000D01*
X182261904Y-57047619D01*
X182309523Y-57142857D01*
X182309523Y-57238095D01*
X182261904Y-57380952D01*
X181690476Y-57952380D01*
X182309523Y-57952380D01*
X183166666Y-57285714D02*
X183166666Y-57952380D01*
X182928571Y-56904761D02*
X182690476Y-57619047D01*
X183309523Y-57619047D01*
X189357142Y-58642857D02*
X189404761Y-58690476D01*
X189452380Y-58833333D01*
X189452380Y-58928571D01*
X189404761Y-59071428D01*
X189309523Y-59166666D01*
X189214285Y-59214285D01*
X189023809Y-59261904D01*
X188880952Y-59261904D01*
X188690476Y-59214285D01*
X188595238Y-59166666D01*
X188500000Y-59071428D01*
X188452380Y-58928571D01*
X188452380Y-58833333D01*
X188500000Y-58690476D01*
X188547619Y-58642857D01*
X188547619Y-58261904D02*
X188500000Y-58214285D01*
X188452380Y-58119047D01*
X188452380Y-57880952D01*
X188500000Y-57785714D01*
X188547619Y-57738095D01*
X188642857Y-57690476D01*
X188738095Y-57690476D01*
X188880952Y-57738095D01*
X189452380Y-58309523D01*
X189452380Y-57690476D01*
X188452380Y-57357142D02*
X188452380Y-56690476D01*
X189452380Y-57119047D01*
X200257142Y-50442857D02*
X200304761Y-50490476D01*
X200352380Y-50633333D01*
X200352380Y-50728571D01*
X200304761Y-50871428D01*
X200209523Y-50966666D01*
X200114285Y-51014285D01*
X199923809Y-51061904D01*
X199780952Y-51061904D01*
X199590476Y-51014285D01*
X199495238Y-50966666D01*
X199400000Y-50871428D01*
X199352380Y-50728571D01*
X199352380Y-50633333D01*
X199400000Y-50490476D01*
X199447619Y-50442857D01*
X199447619Y-50061904D02*
X199400000Y-50014285D01*
X199352380Y-49919047D01*
X199352380Y-49680952D01*
X199400000Y-49585714D01*
X199447619Y-49538095D01*
X199542857Y-49490476D01*
X199638095Y-49490476D01*
X199780952Y-49538095D01*
X200352380Y-50109523D01*
X200352380Y-49490476D01*
X199352380Y-48585714D02*
X199352380Y-49061904D01*
X199828571Y-49109523D01*
X199780952Y-49061904D01*
X199733333Y-48966666D01*
X199733333Y-48728571D01*
X199780952Y-48633333D01*
X199828571Y-48585714D01*
X199923809Y-48538095D01*
X200161904Y-48538095D01*
X200257142Y-48585714D01*
X200304761Y-48633333D01*
X200352380Y-48728571D01*
X200352380Y-48966666D01*
X200304761Y-49061904D01*
X200257142Y-49109523D01*
X201607142Y-51857142D02*
X201559523Y-51904761D01*
X201416666Y-51952380D01*
X201321428Y-51952380D01*
X201178571Y-51904761D01*
X201083333Y-51809523D01*
X201035714Y-51714285D01*
X200988095Y-51523809D01*
X200988095Y-51380952D01*
X201035714Y-51190476D01*
X201083333Y-51095238D01*
X201178571Y-51000000D01*
X201321428Y-50952380D01*
X201416666Y-50952380D01*
X201559523Y-51000000D01*
X201607142Y-51047619D01*
X201988095Y-51047619D02*
X202035714Y-51000000D01*
X202130952Y-50952380D01*
X202369047Y-50952380D01*
X202464285Y-51000000D01*
X202511904Y-51047619D01*
X202559523Y-51142857D01*
X202559523Y-51238095D01*
X202511904Y-51380952D01*
X201940476Y-51952380D01*
X202559523Y-51952380D01*
X203416666Y-50952380D02*
X203226190Y-50952380D01*
X203130952Y-51000000D01*
X203083333Y-51047619D01*
X202988095Y-51190476D01*
X202940476Y-51380952D01*
X202940476Y-51761904D01*
X202988095Y-51857142D01*
X203035714Y-51904761D01*
X203130952Y-51952380D01*
X203321428Y-51952380D01*
X203416666Y-51904761D01*
X203464285Y-51857142D01*
X203511904Y-51761904D01*
X203511904Y-51523809D01*
X203464285Y-51428571D01*
X203416666Y-51380952D01*
X203321428Y-51333333D01*
X203130952Y-51333333D01*
X203035714Y-51380952D01*
X202988095Y-51428571D01*
X202940476Y-51523809D01*
X155257142Y-63842857D02*
X155304761Y-63890476D01*
X155352380Y-64033333D01*
X155352380Y-64128571D01*
X155304761Y-64271428D01*
X155209523Y-64366666D01*
X155114285Y-64414285D01*
X154923809Y-64461904D01*
X154780952Y-64461904D01*
X154590476Y-64414285D01*
X154495238Y-64366666D01*
X154400000Y-64271428D01*
X154352380Y-64128571D01*
X154352380Y-64033333D01*
X154400000Y-63890476D01*
X154447619Y-63842857D01*
X154447619Y-63461904D02*
X154400000Y-63414285D01*
X154352380Y-63319047D01*
X154352380Y-63080952D01*
X154400000Y-62985714D01*
X154447619Y-62938095D01*
X154542857Y-62890476D01*
X154638095Y-62890476D01*
X154780952Y-62938095D01*
X155352380Y-63509523D01*
X155352380Y-62890476D01*
X154352380Y-62557142D02*
X154352380Y-61938095D01*
X154733333Y-62271428D01*
X154733333Y-62128571D01*
X154780952Y-62033333D01*
X154828571Y-61985714D01*
X154923809Y-61938095D01*
X155161904Y-61938095D01*
X155257142Y-61985714D01*
X155304761Y-62033333D01*
X155352380Y-62128571D01*
X155352380Y-62414285D01*
X155304761Y-62509523D01*
X155257142Y-62557142D01*
X147057142Y-54842857D02*
X147104761Y-54890476D01*
X147152380Y-55033333D01*
X147152380Y-55128571D01*
X147104761Y-55271428D01*
X147009523Y-55366666D01*
X146914285Y-55414285D01*
X146723809Y-55461904D01*
X146580952Y-55461904D01*
X146390476Y-55414285D01*
X146295238Y-55366666D01*
X146200000Y-55271428D01*
X146152380Y-55128571D01*
X146152380Y-55033333D01*
X146200000Y-54890476D01*
X146247619Y-54842857D01*
X146247619Y-54461904D02*
X146200000Y-54414285D01*
X146152380Y-54319047D01*
X146152380Y-54080952D01*
X146200000Y-53985714D01*
X146247619Y-53938095D01*
X146342857Y-53890476D01*
X146438095Y-53890476D01*
X146580952Y-53938095D01*
X147152380Y-54509523D01*
X147152380Y-53890476D01*
X146247619Y-53509523D02*
X146200000Y-53461904D01*
X146152380Y-53366666D01*
X146152380Y-53128571D01*
X146200000Y-53033333D01*
X146247619Y-52985714D01*
X146342857Y-52938095D01*
X146438095Y-52938095D01*
X146580952Y-52985714D01*
X147152380Y-53557142D01*
X147152380Y-52938095D01*
X135057142Y-54142857D02*
X135104761Y-54190476D01*
X135152380Y-54333333D01*
X135152380Y-54428571D01*
X135104761Y-54571428D01*
X135009523Y-54666666D01*
X134914285Y-54714285D01*
X134723809Y-54761904D01*
X134580952Y-54761904D01*
X134390476Y-54714285D01*
X134295238Y-54666666D01*
X134200000Y-54571428D01*
X134152380Y-54428571D01*
X134152380Y-54333333D01*
X134200000Y-54190476D01*
X134247619Y-54142857D01*
X135152380Y-53190476D02*
X135152380Y-53761904D01*
X135152380Y-53476190D02*
X134152380Y-53476190D01*
X134295238Y-53571428D01*
X134390476Y-53666666D01*
X134438095Y-53761904D01*
X135152380Y-52714285D02*
X135152380Y-52523809D01*
X135104761Y-52428571D01*
X135057142Y-52380952D01*
X134914285Y-52285714D01*
X134723809Y-52238095D01*
X134342857Y-52238095D01*
X134247619Y-52285714D01*
X134200000Y-52333333D01*
X134152380Y-52428571D01*
X134152380Y-52619047D01*
X134200000Y-52714285D01*
X134247619Y-52761904D01*
X134342857Y-52809523D01*
X134580952Y-52809523D01*
X134676190Y-52761904D01*
X134723809Y-52714285D01*
X134771428Y-52619047D01*
X134771428Y-52428571D01*
X134723809Y-52333333D01*
X134676190Y-52285714D01*
X134580952Y-52238095D01*
X122607142Y-51642857D02*
X122654761Y-51690476D01*
X122702380Y-51833333D01*
X122702380Y-51928571D01*
X122654761Y-52071428D01*
X122559523Y-52166666D01*
X122464285Y-52214285D01*
X122273809Y-52261904D01*
X122130952Y-52261904D01*
X121940476Y-52214285D01*
X121845238Y-52166666D01*
X121750000Y-52071428D01*
X121702380Y-51928571D01*
X121702380Y-51833333D01*
X121750000Y-51690476D01*
X121797619Y-51642857D01*
X122702380Y-50690476D02*
X122702380Y-51261904D01*
X122702380Y-50976190D02*
X121702380Y-50976190D01*
X121845238Y-51071428D01*
X121940476Y-51166666D01*
X121988095Y-51261904D01*
X121702380Y-49785714D02*
X121702380Y-50261904D01*
X122178571Y-50309523D01*
X122130952Y-50261904D01*
X122083333Y-50166666D01*
X122083333Y-49928571D01*
X122130952Y-49833333D01*
X122178571Y-49785714D01*
X122273809Y-49738095D01*
X122511904Y-49738095D01*
X122607142Y-49785714D01*
X122654761Y-49833333D01*
X122702380Y-49928571D01*
X122702380Y-50166666D01*
X122654761Y-50261904D01*
X122607142Y-50309523D01*
X124057142Y-65992857D02*
X124104761Y-66040476D01*
X124152380Y-66183333D01*
X124152380Y-66278571D01*
X124104761Y-66421428D01*
X124009523Y-66516666D01*
X123914285Y-66564285D01*
X123723809Y-66611904D01*
X123580952Y-66611904D01*
X123390476Y-66564285D01*
X123295238Y-66516666D01*
X123200000Y-66421428D01*
X123152380Y-66278571D01*
X123152380Y-66183333D01*
X123200000Y-66040476D01*
X123247619Y-65992857D01*
X124152380Y-65040476D02*
X124152380Y-65611904D01*
X124152380Y-65326190D02*
X123152380Y-65326190D01*
X123295238Y-65421428D01*
X123390476Y-65516666D01*
X123438095Y-65611904D01*
X123485714Y-64183333D02*
X124152380Y-64183333D01*
X123104761Y-64421428D02*
X123819047Y-64659523D01*
X123819047Y-64040476D01*
X125157142Y-108957142D02*
X125109523Y-109004761D01*
X124966666Y-109052380D01*
X124871428Y-109052380D01*
X124728571Y-109004761D01*
X124633333Y-108909523D01*
X124585714Y-108814285D01*
X124538095Y-108623809D01*
X124538095Y-108480952D01*
X124585714Y-108290476D01*
X124633333Y-108195238D01*
X124728571Y-108100000D01*
X124871428Y-108052380D01*
X124966666Y-108052380D01*
X125109523Y-108100000D01*
X125157142Y-108147619D01*
X126109523Y-109052380D02*
X125538095Y-109052380D01*
X125823809Y-109052380D02*
X125823809Y-108052380D01*
X125728571Y-108195238D01*
X125633333Y-108290476D01*
X125538095Y-108338095D01*
X126966666Y-108052380D02*
X126776190Y-108052380D01*
X126680952Y-108100000D01*
X126633333Y-108147619D01*
X126538095Y-108290476D01*
X126490476Y-108480952D01*
X126490476Y-108861904D01*
X126538095Y-108957142D01*
X126585714Y-109004761D01*
X126680952Y-109052380D01*
X126871428Y-109052380D01*
X126966666Y-109004761D01*
X127014285Y-108957142D01*
X127061904Y-108861904D01*
X127061904Y-108623809D01*
X127014285Y-108528571D01*
X126966666Y-108480952D01*
X126871428Y-108433333D01*
X126680952Y-108433333D01*
X126585714Y-108480952D01*
X126538095Y-108528571D01*
X126490476Y-108623809D01*
X108714285Y-107900000D02*
X108742857Y-107928571D01*
X108771428Y-108014285D01*
X108771428Y-108071428D01*
X108742857Y-108157142D01*
X108685714Y-108214285D01*
X108628571Y-108242857D01*
X108514285Y-108271428D01*
X108428571Y-108271428D01*
X108314285Y-108242857D01*
X108257142Y-108214285D01*
X108200000Y-108157142D01*
X108171428Y-108071428D01*
X108171428Y-108014285D01*
X108200000Y-107928571D01*
X108228571Y-107900000D01*
X108171428Y-107385714D02*
X108171428Y-107500000D01*
X108200000Y-107557142D01*
X108228571Y-107585714D01*
X108314285Y-107642857D01*
X108428571Y-107671428D01*
X108657142Y-107671428D01*
X108714285Y-107642857D01*
X108742857Y-107614285D01*
X108771428Y-107557142D01*
X108771428Y-107442857D01*
X108742857Y-107385714D01*
X108714285Y-107357142D01*
X108657142Y-107328571D01*
X108514285Y-107328571D01*
X108457142Y-107357142D01*
X108428571Y-107385714D01*
X108400000Y-107442857D01*
X108400000Y-107557142D01*
X108428571Y-107614285D01*
X108457142Y-107642857D01*
X108514285Y-107671428D01*
X93957142Y-102266666D02*
X94004761Y-102314285D01*
X94052380Y-102457142D01*
X94052380Y-102552380D01*
X94004761Y-102695238D01*
X93909523Y-102790476D01*
X93814285Y-102838095D01*
X93623809Y-102885714D01*
X93480952Y-102885714D01*
X93290476Y-102838095D01*
X93195238Y-102790476D01*
X93100000Y-102695238D01*
X93052380Y-102552380D01*
X93052380Y-102457142D01*
X93100000Y-102314285D01*
X93147619Y-102266666D01*
X94052380Y-101314285D02*
X94052380Y-101885714D01*
X94052380Y-101600000D02*
X93052380Y-101600000D01*
X93195238Y-101695238D01*
X93290476Y-101790476D01*
X93338095Y-101885714D01*
X101533333Y-100057142D02*
X101485714Y-100104761D01*
X101342857Y-100152380D01*
X101247619Y-100152380D01*
X101104761Y-100104761D01*
X101009523Y-100009523D01*
X100961904Y-99914285D01*
X100914285Y-99723809D01*
X100914285Y-99580952D01*
X100961904Y-99390476D01*
X101009523Y-99295238D01*
X101104761Y-99200000D01*
X101247619Y-99152380D01*
X101342857Y-99152380D01*
X101485714Y-99200000D01*
X101533333Y-99247619D01*
X101914285Y-99247619D02*
X101961904Y-99200000D01*
X102057142Y-99152380D01*
X102295238Y-99152380D01*
X102390476Y-99200000D01*
X102438095Y-99247619D01*
X102485714Y-99342857D01*
X102485714Y-99438095D01*
X102438095Y-99580952D01*
X101866666Y-100152380D01*
X102485714Y-100152380D01*
X97933333Y-99552380D02*
X97457142Y-99552380D01*
X97457142Y-98552380D01*
X98790476Y-99552380D02*
X98219047Y-99552380D01*
X98504761Y-99552380D02*
X98504761Y-98552380D01*
X98409523Y-98695238D01*
X98314285Y-98790476D01*
X98219047Y-98838095D01*
X109133333Y-111252380D02*
X108800000Y-110776190D01*
X108561904Y-111252380D02*
X108561904Y-110252380D01*
X108942857Y-110252380D01*
X109038095Y-110300000D01*
X109085714Y-110347619D01*
X109133333Y-110442857D01*
X109133333Y-110585714D01*
X109085714Y-110680952D01*
X109038095Y-110728571D01*
X108942857Y-110776190D01*
X108561904Y-110776190D01*
X110038095Y-110252380D02*
X109561904Y-110252380D01*
X109514285Y-110728571D01*
X109561904Y-110680952D01*
X109657142Y-110633333D01*
X109895238Y-110633333D01*
X109990476Y-110680952D01*
X110038095Y-110728571D01*
X110085714Y-110823809D01*
X110085714Y-111061904D01*
X110038095Y-111157142D01*
X109990476Y-111204761D01*
X109895238Y-111252380D01*
X109657142Y-111252380D01*
X109561904Y-111204761D01*
X109514285Y-111157142D01*
X120114285Y-109971428D02*
X119914285Y-109685714D01*
X119771428Y-109971428D02*
X119771428Y-109371428D01*
X120000000Y-109371428D01*
X120057142Y-109400000D01*
X120085714Y-109428571D01*
X120114285Y-109485714D01*
X120114285Y-109571428D01*
X120085714Y-109628571D01*
X120057142Y-109657142D01*
X120000000Y-109685714D01*
X119771428Y-109685714D01*
X120685714Y-109971428D02*
X120342857Y-109971428D01*
X120514285Y-109971428D02*
X120514285Y-109371428D01*
X120457142Y-109457142D01*
X120400000Y-109514285D01*
X120342857Y-109542857D01*
X120885714Y-109371428D02*
X121257142Y-109371428D01*
X121057142Y-109600000D01*
X121142857Y-109600000D01*
X121200000Y-109628571D01*
X121228571Y-109657142D01*
X121257142Y-109714285D01*
X121257142Y-109857142D01*
X121228571Y-109914285D01*
X121200000Y-109942857D01*
X121142857Y-109971428D01*
X120971428Y-109971428D01*
X120914285Y-109942857D01*
X120885714Y-109914285D01*
X125457142Y-107452380D02*
X125123809Y-106976190D01*
X124885714Y-107452380D02*
X124885714Y-106452380D01*
X125266666Y-106452380D01*
X125361904Y-106500000D01*
X125409523Y-106547619D01*
X125457142Y-106642857D01*
X125457142Y-106785714D01*
X125409523Y-106880952D01*
X125361904Y-106928571D01*
X125266666Y-106976190D01*
X124885714Y-106976190D01*
X126409523Y-107452380D02*
X125838095Y-107452380D01*
X126123809Y-107452380D02*
X126123809Y-106452380D01*
X126028571Y-106595238D01*
X125933333Y-106690476D01*
X125838095Y-106738095D01*
X127314285Y-106452380D02*
X126838095Y-106452380D01*
X126790476Y-106928571D01*
X126838095Y-106880952D01*
X126933333Y-106833333D01*
X127171428Y-106833333D01*
X127266666Y-106880952D01*
X127314285Y-106928571D01*
X127361904Y-107023809D01*
X127361904Y-107261904D01*
X127314285Y-107357142D01*
X127266666Y-107404761D01*
X127171428Y-107452380D01*
X126933333Y-107452380D01*
X126838095Y-107404761D01*
X126790476Y-107357142D01*
X204452380Y-54142857D02*
X203976190Y-54476190D01*
X204452380Y-54714285D02*
X203452380Y-54714285D01*
X203452380Y-54333333D01*
X203500000Y-54238095D01*
X203547619Y-54190476D01*
X203642857Y-54142857D01*
X203785714Y-54142857D01*
X203880952Y-54190476D01*
X203928571Y-54238095D01*
X203976190Y-54333333D01*
X203976190Y-54714285D01*
X203547619Y-53761904D02*
X203500000Y-53714285D01*
X203452380Y-53619047D01*
X203452380Y-53380952D01*
X203500000Y-53285714D01*
X203547619Y-53238095D01*
X203642857Y-53190476D01*
X203738095Y-53190476D01*
X203880952Y-53238095D01*
X204452380Y-53809523D01*
X204452380Y-53190476D01*
X203547619Y-52809523D02*
X203500000Y-52761904D01*
X203452380Y-52666666D01*
X203452380Y-52428571D01*
X203500000Y-52333333D01*
X203547619Y-52285714D01*
X203642857Y-52238095D01*
X203738095Y-52238095D01*
X203880952Y-52285714D01*
X204452380Y-52857142D01*
X204452380Y-52238095D01*
X202452380Y-57142857D02*
X201976190Y-57476190D01*
X202452380Y-57714285D02*
X201452380Y-57714285D01*
X201452380Y-57333333D01*
X201500000Y-57238095D01*
X201547619Y-57190476D01*
X201642857Y-57142857D01*
X201785714Y-57142857D01*
X201880952Y-57190476D01*
X201928571Y-57238095D01*
X201976190Y-57333333D01*
X201976190Y-57714285D01*
X201547619Y-56761904D02*
X201500000Y-56714285D01*
X201452380Y-56619047D01*
X201452380Y-56380952D01*
X201500000Y-56285714D01*
X201547619Y-56238095D01*
X201642857Y-56190476D01*
X201738095Y-56190476D01*
X201880952Y-56238095D01*
X202452380Y-56809523D01*
X202452380Y-56190476D01*
X201785714Y-55333333D02*
X202452380Y-55333333D01*
X201404761Y-55571428D02*
X202119047Y-55809523D01*
X202119047Y-55190476D01*
X189502380Y-55142857D02*
X189026190Y-55476190D01*
X189502380Y-55714285D02*
X188502380Y-55714285D01*
X188502380Y-55333333D01*
X188550000Y-55238095D01*
X188597619Y-55190476D01*
X188692857Y-55142857D01*
X188835714Y-55142857D01*
X188930952Y-55190476D01*
X188978571Y-55238095D01*
X189026190Y-55333333D01*
X189026190Y-55714285D01*
X188597619Y-54761904D02*
X188550000Y-54714285D01*
X188502380Y-54619047D01*
X188502380Y-54380952D01*
X188550000Y-54285714D01*
X188597619Y-54238095D01*
X188692857Y-54190476D01*
X188788095Y-54190476D01*
X188930952Y-54238095D01*
X189502380Y-54809523D01*
X189502380Y-54190476D01*
X188502380Y-53571428D02*
X188502380Y-53476190D01*
X188550000Y-53380952D01*
X188597619Y-53333333D01*
X188692857Y-53285714D01*
X188883333Y-53238095D01*
X189121428Y-53238095D01*
X189311904Y-53285714D01*
X189407142Y-53333333D01*
X189454761Y-53380952D01*
X189502380Y-53476190D01*
X189502380Y-53571428D01*
X189454761Y-53666666D01*
X189407142Y-53714285D01*
X189311904Y-53761904D01*
X189121428Y-53809523D01*
X188883333Y-53809523D01*
X188692857Y-53761904D01*
X188597619Y-53714285D01*
X188550000Y-53666666D01*
X188502380Y-53571428D01*
X186002380Y-55142857D02*
X185526190Y-55476190D01*
X186002380Y-55714285D02*
X185002380Y-55714285D01*
X185002380Y-55333333D01*
X185050000Y-55238095D01*
X185097619Y-55190476D01*
X185192857Y-55142857D01*
X185335714Y-55142857D01*
X185430952Y-55190476D01*
X185478571Y-55238095D01*
X185526190Y-55333333D01*
X185526190Y-55714285D01*
X186002380Y-54190476D02*
X186002380Y-54761904D01*
X186002380Y-54476190D02*
X185002380Y-54476190D01*
X185145238Y-54571428D01*
X185240476Y-54666666D01*
X185288095Y-54761904D01*
X185002380Y-53857142D02*
X185002380Y-53190476D01*
X186002380Y-53619047D01*
X130457142Y-70702380D02*
X130123809Y-70226190D01*
X129885714Y-70702380D02*
X129885714Y-69702380D01*
X130266666Y-69702380D01*
X130361904Y-69750000D01*
X130409523Y-69797619D01*
X130457142Y-69892857D01*
X130457142Y-70035714D01*
X130409523Y-70130952D01*
X130361904Y-70178571D01*
X130266666Y-70226190D01*
X129885714Y-70226190D01*
X131409523Y-70702380D02*
X130838095Y-70702380D01*
X131123809Y-70702380D02*
X131123809Y-69702380D01*
X131028571Y-69845238D01*
X130933333Y-69940476D01*
X130838095Y-69988095D01*
X132266666Y-69702380D02*
X132076190Y-69702380D01*
X131980952Y-69750000D01*
X131933333Y-69797619D01*
X131838095Y-69940476D01*
X131790476Y-70130952D01*
X131790476Y-70511904D01*
X131838095Y-70607142D01*
X131885714Y-70654761D01*
X131980952Y-70702380D01*
X132171428Y-70702380D01*
X132266666Y-70654761D01*
X132314285Y-70607142D01*
X132361904Y-70511904D01*
X132361904Y-70273809D01*
X132314285Y-70178571D01*
X132266666Y-70130952D01*
X132171428Y-70083333D01*
X131980952Y-70083333D01*
X131885714Y-70130952D01*
X131838095Y-70178571D01*
X131790476Y-70273809D01*
X111033333Y-74502380D02*
X110700000Y-74026190D01*
X110461904Y-74502380D02*
X110461904Y-73502380D01*
X110842857Y-73502380D01*
X110938095Y-73550000D01*
X110985714Y-73597619D01*
X111033333Y-73692857D01*
X111033333Y-73835714D01*
X110985714Y-73930952D01*
X110938095Y-73978571D01*
X110842857Y-74026190D01*
X110461904Y-74026190D01*
X111890476Y-73502380D02*
X111700000Y-73502380D01*
X111604761Y-73550000D01*
X111557142Y-73597619D01*
X111461904Y-73740476D01*
X111414285Y-73930952D01*
X111414285Y-74311904D01*
X111461904Y-74407142D01*
X111509523Y-74454761D01*
X111604761Y-74502380D01*
X111795238Y-74502380D01*
X111890476Y-74454761D01*
X111938095Y-74407142D01*
X111985714Y-74311904D01*
X111985714Y-74073809D01*
X111938095Y-73978571D01*
X111890476Y-73930952D01*
X111795238Y-73883333D01*
X111604761Y-73883333D01*
X111509523Y-73930952D01*
X111461904Y-73978571D01*
X111414285Y-74073809D01*
X128357142Y-64852380D02*
X128023809Y-64376190D01*
X127785714Y-64852380D02*
X127785714Y-63852380D01*
X128166666Y-63852380D01*
X128261904Y-63900000D01*
X128309523Y-63947619D01*
X128357142Y-64042857D01*
X128357142Y-64185714D01*
X128309523Y-64280952D01*
X128261904Y-64328571D01*
X128166666Y-64376190D01*
X127785714Y-64376190D01*
X129309523Y-64852380D02*
X128738095Y-64852380D01*
X129023809Y-64852380D02*
X129023809Y-63852380D01*
X128928571Y-63995238D01*
X128833333Y-64090476D01*
X128738095Y-64138095D01*
X130166666Y-64185714D02*
X130166666Y-64852380D01*
X129928571Y-63804761D02*
X129690476Y-64519047D01*
X130309523Y-64519047D01*
X125857142Y-68452380D02*
X125523809Y-67976190D01*
X125285714Y-68452380D02*
X125285714Y-67452380D01*
X125666666Y-67452380D01*
X125761904Y-67500000D01*
X125809523Y-67547619D01*
X125857142Y-67642857D01*
X125857142Y-67785714D01*
X125809523Y-67880952D01*
X125761904Y-67928571D01*
X125666666Y-67976190D01*
X125285714Y-67976190D01*
X126809523Y-68452380D02*
X126238095Y-68452380D01*
X126523809Y-68452380D02*
X126523809Y-67452380D01*
X126428571Y-67595238D01*
X126333333Y-67690476D01*
X126238095Y-67738095D01*
X127190476Y-67547619D02*
X127238095Y-67500000D01*
X127333333Y-67452380D01*
X127571428Y-67452380D01*
X127666666Y-67500000D01*
X127714285Y-67547619D01*
X127761904Y-67642857D01*
X127761904Y-67738095D01*
X127714285Y-67880952D01*
X127142857Y-68452380D01*
X127761904Y-68452380D01*
X125552380Y-70966666D02*
X125076190Y-71300000D01*
X125552380Y-71538095D02*
X124552380Y-71538095D01*
X124552380Y-71157142D01*
X124600000Y-71061904D01*
X124647619Y-71014285D01*
X124742857Y-70966666D01*
X124885714Y-70966666D01*
X124980952Y-71014285D01*
X125028571Y-71061904D01*
X125076190Y-71157142D01*
X125076190Y-71538095D01*
X124980952Y-70395238D02*
X124933333Y-70490476D01*
X124885714Y-70538095D01*
X124790476Y-70585714D01*
X124742857Y-70585714D01*
X124647619Y-70538095D01*
X124600000Y-70490476D01*
X124552380Y-70395238D01*
X124552380Y-70204761D01*
X124600000Y-70109523D01*
X124647619Y-70061904D01*
X124742857Y-70014285D01*
X124790476Y-70014285D01*
X124885714Y-70061904D01*
X124933333Y-70109523D01*
X124980952Y-70204761D01*
X124980952Y-70395238D01*
X125028571Y-70490476D01*
X125076190Y-70538095D01*
X125171428Y-70585714D01*
X125361904Y-70585714D01*
X125457142Y-70538095D01*
X125504761Y-70490476D01*
X125552380Y-70395238D01*
X125552380Y-70204761D01*
X125504761Y-70109523D01*
X125457142Y-70061904D01*
X125361904Y-70014285D01*
X125171428Y-70014285D01*
X125076190Y-70061904D01*
X125028571Y-70109523D01*
X124980952Y-70204761D01*
X119833333Y-68452380D02*
X119500000Y-67976190D01*
X119261904Y-68452380D02*
X119261904Y-67452380D01*
X119642857Y-67452380D01*
X119738095Y-67500000D01*
X119785714Y-67547619D01*
X119833333Y-67642857D01*
X119833333Y-67785714D01*
X119785714Y-67880952D01*
X119738095Y-67928571D01*
X119642857Y-67976190D01*
X119261904Y-67976190D01*
X120309523Y-68452380D02*
X120500000Y-68452380D01*
X120595238Y-68404761D01*
X120642857Y-68357142D01*
X120738095Y-68214285D01*
X120785714Y-68023809D01*
X120785714Y-67642857D01*
X120738095Y-67547619D01*
X120690476Y-67500000D01*
X120595238Y-67452380D01*
X120404761Y-67452380D01*
X120309523Y-67500000D01*
X120261904Y-67547619D01*
X120214285Y-67642857D01*
X120214285Y-67880952D01*
X120261904Y-67976190D01*
X120309523Y-68023809D01*
X120404761Y-68071428D01*
X120595238Y-68071428D01*
X120690476Y-68023809D01*
X120738095Y-67976190D01*
X120785714Y-67880952D01*
X116353333Y-66472380D02*
X116020000Y-65996190D01*
X115781904Y-66472380D02*
X115781904Y-65472380D01*
X116162857Y-65472380D01*
X116258095Y-65520000D01*
X116305714Y-65567619D01*
X116353333Y-65662857D01*
X116353333Y-65805714D01*
X116305714Y-65900952D01*
X116258095Y-65948571D01*
X116162857Y-65996190D01*
X115781904Y-65996190D01*
X116686666Y-65472380D02*
X117305714Y-65472380D01*
X116972380Y-65853333D01*
X117115238Y-65853333D01*
X117210476Y-65900952D01*
X117258095Y-65948571D01*
X117305714Y-66043809D01*
X117305714Y-66281904D01*
X117258095Y-66377142D01*
X117210476Y-66424761D01*
X117115238Y-66472380D01*
X116829523Y-66472380D01*
X116734285Y-66424761D01*
X116686666Y-66377142D01*
X116423333Y-64737380D02*
X116090000Y-64261190D01*
X115851904Y-64737380D02*
X115851904Y-63737380D01*
X116232857Y-63737380D01*
X116328095Y-63785000D01*
X116375714Y-63832619D01*
X116423333Y-63927857D01*
X116423333Y-64070714D01*
X116375714Y-64165952D01*
X116328095Y-64213571D01*
X116232857Y-64261190D01*
X115851904Y-64261190D01*
X117280476Y-64070714D02*
X117280476Y-64737380D01*
X117042380Y-63689761D02*
X116804285Y-64404047D01*
X117423333Y-64404047D01*
X114957142Y-52302380D02*
X114623809Y-51826190D01*
X114385714Y-52302380D02*
X114385714Y-51302380D01*
X114766666Y-51302380D01*
X114861904Y-51350000D01*
X114909523Y-51397619D01*
X114957142Y-51492857D01*
X114957142Y-51635714D01*
X114909523Y-51730952D01*
X114861904Y-51778571D01*
X114766666Y-51826190D01*
X114385714Y-51826190D01*
X115909523Y-52302380D02*
X115338095Y-52302380D01*
X115623809Y-52302380D02*
X115623809Y-51302380D01*
X115528571Y-51445238D01*
X115433333Y-51540476D01*
X115338095Y-51588095D01*
X116528571Y-51302380D02*
X116623809Y-51302380D01*
X116719047Y-51350000D01*
X116766666Y-51397619D01*
X116814285Y-51492857D01*
X116861904Y-51683333D01*
X116861904Y-51921428D01*
X116814285Y-52111904D01*
X116766666Y-52207142D01*
X116719047Y-52254761D01*
X116623809Y-52302380D01*
X116528571Y-52302380D01*
X116433333Y-52254761D01*
X116385714Y-52207142D01*
X116338095Y-52111904D01*
X116290476Y-51921428D01*
X116290476Y-51683333D01*
X116338095Y-51492857D01*
X116385714Y-51397619D01*
X116433333Y-51350000D01*
X116528571Y-51302380D01*
X101583333Y-61502380D02*
X101250000Y-61026190D01*
X101011904Y-61502380D02*
X101011904Y-60502380D01*
X101392857Y-60502380D01*
X101488095Y-60550000D01*
X101535714Y-60597619D01*
X101583333Y-60692857D01*
X101583333Y-60835714D01*
X101535714Y-60930952D01*
X101488095Y-60978571D01*
X101392857Y-61026190D01*
X101011904Y-61026190D01*
X101964285Y-60597619D02*
X102011904Y-60550000D01*
X102107142Y-60502380D01*
X102345238Y-60502380D01*
X102440476Y-60550000D01*
X102488095Y-60597619D01*
X102535714Y-60692857D01*
X102535714Y-60788095D01*
X102488095Y-60930952D01*
X101916666Y-61502380D01*
X102535714Y-61502380D01*
X206857142Y-56452380D02*
X206523809Y-55976190D01*
X206285714Y-56452380D02*
X206285714Y-55452380D01*
X206666666Y-55452380D01*
X206761904Y-55500000D01*
X206809523Y-55547619D01*
X206857142Y-55642857D01*
X206857142Y-55785714D01*
X206809523Y-55880952D01*
X206761904Y-55928571D01*
X206666666Y-55976190D01*
X206285714Y-55976190D01*
X207238095Y-55547619D02*
X207285714Y-55500000D01*
X207380952Y-55452380D01*
X207619047Y-55452380D01*
X207714285Y-55500000D01*
X207761904Y-55547619D01*
X207809523Y-55642857D01*
X207809523Y-55738095D01*
X207761904Y-55880952D01*
X207190476Y-56452380D01*
X207809523Y-56452380D01*
X208666666Y-55452380D02*
X208476190Y-55452380D01*
X208380952Y-55500000D01*
X208333333Y-55547619D01*
X208238095Y-55690476D01*
X208190476Y-55880952D01*
X208190476Y-56261904D01*
X208238095Y-56357142D01*
X208285714Y-56404761D01*
X208380952Y-56452380D01*
X208571428Y-56452380D01*
X208666666Y-56404761D01*
X208714285Y-56357142D01*
X208761904Y-56261904D01*
X208761904Y-56023809D01*
X208714285Y-55928571D01*
X208666666Y-55880952D01*
X208571428Y-55833333D01*
X208380952Y-55833333D01*
X208285714Y-55880952D01*
X208238095Y-55928571D01*
X208190476Y-56023809D01*
X169952380Y-64142857D02*
X169476190Y-64476190D01*
X169952380Y-64714285D02*
X168952380Y-64714285D01*
X168952380Y-64333333D01*
X169000000Y-64238095D01*
X169047619Y-64190476D01*
X169142857Y-64142857D01*
X169285714Y-64142857D01*
X169380952Y-64190476D01*
X169428571Y-64238095D01*
X169476190Y-64333333D01*
X169476190Y-64714285D01*
X169047619Y-63761904D02*
X169000000Y-63714285D01*
X168952380Y-63619047D01*
X168952380Y-63380952D01*
X169000000Y-63285714D01*
X169047619Y-63238095D01*
X169142857Y-63190476D01*
X169238095Y-63190476D01*
X169380952Y-63238095D01*
X169952380Y-63809523D01*
X169952380Y-63190476D01*
X169952380Y-62714285D02*
X169952380Y-62523809D01*
X169904761Y-62428571D01*
X169857142Y-62380952D01*
X169714285Y-62285714D01*
X169523809Y-62238095D01*
X169142857Y-62238095D01*
X169047619Y-62285714D01*
X169000000Y-62333333D01*
X168952380Y-62428571D01*
X168952380Y-62619047D01*
X169000000Y-62714285D01*
X169047619Y-62761904D01*
X169142857Y-62809523D01*
X169380952Y-62809523D01*
X169476190Y-62761904D01*
X169523809Y-62714285D01*
X169571428Y-62619047D01*
X169571428Y-62428571D01*
X169523809Y-62333333D01*
X169476190Y-62285714D01*
X169380952Y-62238095D01*
X152257142Y-53702380D02*
X151923809Y-53226190D01*
X151685714Y-53702380D02*
X151685714Y-52702380D01*
X152066666Y-52702380D01*
X152161904Y-52750000D01*
X152209523Y-52797619D01*
X152257142Y-52892857D01*
X152257142Y-53035714D01*
X152209523Y-53130952D01*
X152161904Y-53178571D01*
X152066666Y-53226190D01*
X151685714Y-53226190D01*
X153209523Y-53702380D02*
X152638095Y-53702380D01*
X152923809Y-53702380D02*
X152923809Y-52702380D01*
X152828571Y-52845238D01*
X152733333Y-52940476D01*
X152638095Y-52988095D01*
X154161904Y-53702380D02*
X153590476Y-53702380D01*
X153876190Y-53702380D02*
X153876190Y-52702380D01*
X153780952Y-52845238D01*
X153685714Y-52940476D01*
X153590476Y-52988095D01*
X128902380Y-53942857D02*
X128426190Y-54276190D01*
X128902380Y-54514285D02*
X127902380Y-54514285D01*
X127902380Y-54133333D01*
X127950000Y-54038095D01*
X127997619Y-53990476D01*
X128092857Y-53942857D01*
X128235714Y-53942857D01*
X128330952Y-53990476D01*
X128378571Y-54038095D01*
X128426190Y-54133333D01*
X128426190Y-54514285D01*
X128902380Y-52990476D02*
X128902380Y-53561904D01*
X128902380Y-53276190D02*
X127902380Y-53276190D01*
X128045238Y-53371428D01*
X128140476Y-53466666D01*
X128188095Y-53561904D01*
X128330952Y-52419047D02*
X128283333Y-52514285D01*
X128235714Y-52561904D01*
X128140476Y-52609523D01*
X128092857Y-52609523D01*
X127997619Y-52561904D01*
X127950000Y-52514285D01*
X127902380Y-52419047D01*
X127902380Y-52228571D01*
X127950000Y-52133333D01*
X127997619Y-52085714D01*
X128092857Y-52038095D01*
X128140476Y-52038095D01*
X128235714Y-52085714D01*
X128283333Y-52133333D01*
X128330952Y-52228571D01*
X128330952Y-52419047D01*
X128378571Y-52514285D01*
X128426190Y-52561904D01*
X128521428Y-52609523D01*
X128711904Y-52609523D01*
X128807142Y-52561904D01*
X128854761Y-52514285D01*
X128902380Y-52419047D01*
X128902380Y-52228571D01*
X128854761Y-52133333D01*
X128807142Y-52085714D01*
X128711904Y-52038095D01*
X128521428Y-52038095D01*
X128426190Y-52085714D01*
X128378571Y-52133333D01*
X128330952Y-52228571D01*
X96633333Y-88857142D02*
X96585714Y-88904761D01*
X96442857Y-88952380D01*
X96347619Y-88952380D01*
X96204761Y-88904761D01*
X96109523Y-88809523D01*
X96061904Y-88714285D01*
X96014285Y-88523809D01*
X96014285Y-88380952D01*
X96061904Y-88190476D01*
X96109523Y-88095238D01*
X96204761Y-88000000D01*
X96347619Y-87952380D01*
X96442857Y-87952380D01*
X96585714Y-88000000D01*
X96633333Y-88047619D01*
X97204761Y-88380952D02*
X97109523Y-88333333D01*
X97061904Y-88285714D01*
X97014285Y-88190476D01*
X97014285Y-88142857D01*
X97061904Y-88047619D01*
X97109523Y-88000000D01*
X97204761Y-87952380D01*
X97395238Y-87952380D01*
X97490476Y-88000000D01*
X97538095Y-88047619D01*
X97585714Y-88142857D01*
X97585714Y-88190476D01*
X97538095Y-88285714D01*
X97490476Y-88333333D01*
X97395238Y-88380952D01*
X97204761Y-88380952D01*
X97109523Y-88428571D01*
X97061904Y-88476190D01*
X97014285Y-88571428D01*
X97014285Y-88761904D01*
X97061904Y-88857142D01*
X97109523Y-88904761D01*
X97204761Y-88952380D01*
X97395238Y-88952380D01*
X97490476Y-88904761D01*
X97538095Y-88857142D01*
X97585714Y-88761904D01*
X97585714Y-88571428D01*
X97538095Y-88476190D01*
X97490476Y-88428571D01*
X97395238Y-88380952D01*
X102063333Y-59337142D02*
X102015714Y-59384761D01*
X101872857Y-59432380D01*
X101777619Y-59432380D01*
X101634761Y-59384761D01*
X101539523Y-59289523D01*
X101491904Y-59194285D01*
X101444285Y-59003809D01*
X101444285Y-58860952D01*
X101491904Y-58670476D01*
X101539523Y-58575238D01*
X101634761Y-58480000D01*
X101777619Y-58432380D01*
X101872857Y-58432380D01*
X102015714Y-58480000D01*
X102063333Y-58527619D01*
X102539523Y-59432380D02*
X102730000Y-59432380D01*
X102825238Y-59384761D01*
X102872857Y-59337142D01*
X102968095Y-59194285D01*
X103015714Y-59003809D01*
X103015714Y-58622857D01*
X102968095Y-58527619D01*
X102920476Y-58480000D01*
X102825238Y-58432380D01*
X102634761Y-58432380D01*
X102539523Y-58480000D01*
X102491904Y-58527619D01*
X102444285Y-58622857D01*
X102444285Y-58860952D01*
X102491904Y-58956190D01*
X102539523Y-59003809D01*
X102634761Y-59051428D01*
X102825238Y-59051428D01*
X102920476Y-59003809D01*
X102968095Y-58956190D01*
X103015714Y-58860952D01*
X116957142Y-74842857D02*
X117004761Y-74890476D01*
X117052380Y-75033333D01*
X117052380Y-75128571D01*
X117004761Y-75271428D01*
X116909523Y-75366666D01*
X116814285Y-75414285D01*
X116623809Y-75461904D01*
X116480952Y-75461904D01*
X116290476Y-75414285D01*
X116195238Y-75366666D01*
X116100000Y-75271428D01*
X116052380Y-75128571D01*
X116052380Y-75033333D01*
X116100000Y-74890476D01*
X116147619Y-74842857D01*
X117052380Y-73890476D02*
X117052380Y-74461904D01*
X117052380Y-74176190D02*
X116052380Y-74176190D01*
X116195238Y-74271428D01*
X116290476Y-74366666D01*
X116338095Y-74461904D01*
X116052380Y-73271428D02*
X116052380Y-73176190D01*
X116100000Y-73080952D01*
X116147619Y-73033333D01*
X116242857Y-72985714D01*
X116433333Y-72938095D01*
X116671428Y-72938095D01*
X116861904Y-72985714D01*
X116957142Y-73033333D01*
X117004761Y-73080952D01*
X117052380Y-73176190D01*
X117052380Y-73271428D01*
X117004761Y-73366666D01*
X116957142Y-73414285D01*
X116861904Y-73461904D01*
X116671428Y-73509523D01*
X116433333Y-73509523D01*
X116242857Y-73461904D01*
X116147619Y-73414285D01*
X116100000Y-73366666D01*
X116052380Y-73271428D01*
X88017142Y-77607142D02*
X87969523Y-77654761D01*
X87826666Y-77702380D01*
X87731428Y-77702380D01*
X87588571Y-77654761D01*
X87493333Y-77559523D01*
X87445714Y-77464285D01*
X87398095Y-77273809D01*
X87398095Y-77130952D01*
X87445714Y-76940476D01*
X87493333Y-76845238D01*
X87588571Y-76750000D01*
X87731428Y-76702380D01*
X87826666Y-76702380D01*
X87969523Y-76750000D01*
X88017142Y-76797619D01*
X88398095Y-76797619D02*
X88445714Y-76750000D01*
X88540952Y-76702380D01*
X88779047Y-76702380D01*
X88874285Y-76750000D01*
X88921904Y-76797619D01*
X88969523Y-76892857D01*
X88969523Y-76988095D01*
X88921904Y-77130952D01*
X88350476Y-77702380D01*
X88969523Y-77702380D01*
X89921904Y-77702380D02*
X89350476Y-77702380D01*
X89636190Y-77702380D02*
X89636190Y-76702380D01*
X89540952Y-76845238D01*
X89445714Y-76940476D01*
X89350476Y-76988095D01*
X104957142Y-70552380D02*
X104957142Y-69552380D01*
X105338095Y-69552380D01*
X105433333Y-69600000D01*
X105480952Y-69647619D01*
X105528571Y-69742857D01*
X105528571Y-69885714D01*
X105480952Y-69980952D01*
X105433333Y-70028571D01*
X105338095Y-70076190D01*
X104957142Y-70076190D01*
X105957142Y-70552380D02*
X105957142Y-69885714D01*
X105957142Y-69552380D02*
X105909523Y-69600000D01*
X105957142Y-69647619D01*
X106004761Y-69600000D01*
X105957142Y-69552380D01*
X105957142Y-69647619D01*
X106814285Y-70504761D02*
X106719047Y-70552380D01*
X106528571Y-70552380D01*
X106433333Y-70504761D01*
X106385714Y-70409523D01*
X106385714Y-70028571D01*
X106433333Y-69933333D01*
X106528571Y-69885714D01*
X106719047Y-69885714D01*
X106814285Y-69933333D01*
X106861904Y-70028571D01*
X106861904Y-70123809D01*
X106385714Y-70219047D01*
X107195238Y-69885714D02*
X107719047Y-69885714D01*
X107195238Y-70552380D01*
X107719047Y-70552380D01*
X108242857Y-70552380D02*
X108147619Y-70504761D01*
X108100000Y-70457142D01*
X108052380Y-70361904D01*
X108052380Y-70076190D01*
X108100000Y-69980952D01*
X108147619Y-69933333D01*
X108242857Y-69885714D01*
X108385714Y-69885714D01*
X108480952Y-69933333D01*
X108528571Y-69980952D01*
X108576190Y-70076190D01*
X108576190Y-70361904D01*
X108528571Y-70457142D01*
X108480952Y-70504761D01*
X108385714Y-70552380D01*
X108242857Y-70552380D01*
X108766666Y-70647619D02*
X109528571Y-70647619D01*
X109766666Y-70552380D02*
X109766666Y-69552380D01*
X110242857Y-69885714D02*
X110242857Y-70552380D01*
X110242857Y-69980952D02*
X110290476Y-69933333D01*
X110385714Y-69885714D01*
X110528571Y-69885714D01*
X110623809Y-69933333D01*
X110671428Y-70028571D01*
X110671428Y-70552380D01*
X112195238Y-70933333D02*
X112147619Y-70885714D01*
X112052380Y-70742857D01*
X112004761Y-70647619D01*
X111957142Y-70504761D01*
X111909523Y-70266666D01*
X111909523Y-70076190D01*
X111957142Y-69838095D01*
X112004761Y-69695238D01*
X112052380Y-69600000D01*
X112147619Y-69457142D01*
X112195238Y-69409523D01*
X112766666Y-69552380D02*
X112957142Y-69552380D01*
X113052380Y-69600000D01*
X113147619Y-69695238D01*
X113195238Y-69885714D01*
X113195238Y-70219047D01*
X113147619Y-70409523D01*
X113052380Y-70504761D01*
X112957142Y-70552380D01*
X112766666Y-70552380D01*
X112671428Y-70504761D01*
X112576190Y-70409523D01*
X112528571Y-70219047D01*
X112528571Y-69885714D01*
X112576190Y-69695238D01*
X112671428Y-69600000D01*
X112766666Y-69552380D01*
X114052380Y-69885714D02*
X114052380Y-70552380D01*
X113623809Y-69885714D02*
X113623809Y-70409523D01*
X113671428Y-70504761D01*
X113766666Y-70552380D01*
X113909523Y-70552380D01*
X114004761Y-70504761D01*
X114052380Y-70457142D01*
X114385714Y-69885714D02*
X114766666Y-69885714D01*
X114528571Y-69552380D02*
X114528571Y-70409523D01*
X114576190Y-70504761D01*
X114671428Y-70552380D01*
X114766666Y-70552380D01*
X115623809Y-70552380D02*
X115052380Y-70552380D01*
X115338095Y-70552380D02*
X115338095Y-69552380D01*
X115242857Y-69695238D01*
X115147619Y-69790476D01*
X115052380Y-69838095D01*
X115957142Y-70933333D02*
X116004761Y-70885714D01*
X116099999Y-70742857D01*
X116147619Y-70647619D01*
X116195238Y-70504761D01*
X116242857Y-70266666D01*
X116242857Y-70076190D01*
X116195238Y-69838095D01*
X116147619Y-69695238D01*
X116099999Y-69600000D01*
X116004761Y-69457142D01*
X115957142Y-69409523D01*
X136571428Y-70552380D02*
X136571428Y-69552380D01*
X136952380Y-69552380D01*
X137047619Y-69600000D01*
X137095238Y-69647619D01*
X137142857Y-69742857D01*
X137142857Y-69885714D01*
X137095238Y-69980952D01*
X137047619Y-70028571D01*
X136952380Y-70076190D01*
X136571428Y-70076190D01*
X137571428Y-70552380D02*
X137571428Y-69885714D01*
X137571428Y-69552380D02*
X137523809Y-69600000D01*
X137571428Y-69647619D01*
X137619047Y-69600000D01*
X137571428Y-69552380D01*
X137571428Y-69647619D01*
X138428571Y-70504761D02*
X138333333Y-70552380D01*
X138142857Y-70552380D01*
X138047619Y-70504761D01*
X138000000Y-70409523D01*
X138000000Y-70028571D01*
X138047619Y-69933333D01*
X138142857Y-69885714D01*
X138333333Y-69885714D01*
X138428571Y-69933333D01*
X138476190Y-70028571D01*
X138476190Y-70123809D01*
X138000000Y-70219047D01*
X138809523Y-69885714D02*
X139333333Y-69885714D01*
X138809523Y-70552380D01*
X139333333Y-70552380D01*
X139857142Y-70552380D02*
X139761904Y-70504761D01*
X139714285Y-70457142D01*
X139666666Y-70361904D01*
X139666666Y-70076190D01*
X139714285Y-69980952D01*
X139761904Y-69933333D01*
X139857142Y-69885714D01*
X140000000Y-69885714D01*
X140095238Y-69933333D01*
X140142857Y-69980952D01*
X140190476Y-70076190D01*
X140190476Y-70361904D01*
X140142857Y-70457142D01*
X140095238Y-70504761D01*
X140000000Y-70552380D01*
X139857142Y-70552380D01*
X140380952Y-70647619D02*
X141142857Y-70647619D01*
X141571428Y-69552380D02*
X141761904Y-69552380D01*
X141857142Y-69600000D01*
X141952380Y-69695238D01*
X142000000Y-69885714D01*
X142000000Y-70219047D01*
X141952380Y-70409523D01*
X141857142Y-70504761D01*
X141761904Y-70552380D01*
X141571428Y-70552380D01*
X141476190Y-70504761D01*
X141380952Y-70409523D01*
X141333333Y-70219047D01*
X141333333Y-69885714D01*
X141380952Y-69695238D01*
X141476190Y-69600000D01*
X141571428Y-69552380D01*
X142857142Y-69885714D02*
X142857142Y-70552380D01*
X142428571Y-69885714D02*
X142428571Y-70409523D01*
X142476190Y-70504761D01*
X142571428Y-70552380D01*
X142714285Y-70552380D01*
X142809523Y-70504761D01*
X142857142Y-70457142D01*
X143190476Y-69885714D02*
X143571428Y-69885714D01*
X143333333Y-69552380D02*
X143333333Y-70409523D01*
X143380952Y-70504761D01*
X143476190Y-70552380D01*
X143571428Y-70552380D01*
X187690476Y-59452380D02*
X187690476Y-60166666D01*
X187642857Y-60309523D01*
X187547619Y-60404761D01*
X187404761Y-60452380D01*
X187309523Y-60452380D01*
X188690476Y-60452380D02*
X188119047Y-60452380D01*
X188404761Y-60452380D02*
X188404761Y-59452380D01*
X188309523Y-59595238D01*
X188214285Y-59690476D01*
X188119047Y-59738095D01*
X189642857Y-60452380D02*
X189071428Y-60452380D01*
X189357142Y-60452380D02*
X189357142Y-59452380D01*
X189261904Y-59595238D01*
X189166666Y-59690476D01*
X189071428Y-59738095D01*
X183880952Y-70357142D02*
X183833333Y-70404761D01*
X183690476Y-70452380D01*
X183595238Y-70452380D01*
X183452380Y-70404761D01*
X183357142Y-70309523D01*
X183309523Y-70214285D01*
X183261904Y-70023809D01*
X183261904Y-69880952D01*
X183309523Y-69690476D01*
X183357142Y-69595238D01*
X183452380Y-69500000D01*
X183595238Y-69452380D01*
X183690476Y-69452380D01*
X183833333Y-69500000D01*
X183880952Y-69547619D01*
X184738095Y-69785714D02*
X184738095Y-70452380D01*
X184309523Y-69785714D02*
X184309523Y-70309523D01*
X184357142Y-70404761D01*
X184452380Y-70452380D01*
X184595238Y-70452380D01*
X184690476Y-70404761D01*
X184738095Y-70357142D01*
X185214285Y-70452380D02*
X185214285Y-69785714D01*
X185214285Y-69976190D02*
X185261904Y-69880952D01*
X185309523Y-69833333D01*
X185404761Y-69785714D01*
X185500000Y-69785714D01*
X185833333Y-70452380D02*
X185833333Y-69785714D01*
X185833333Y-69976190D02*
X185880952Y-69880952D01*
X185928571Y-69833333D01*
X186023809Y-69785714D01*
X186119047Y-69785714D01*
X186214285Y-70547619D02*
X186976190Y-70547619D01*
X187214285Y-70452380D02*
X187214285Y-69452380D01*
X187690476Y-69785714D02*
X187690476Y-70452380D01*
X187690476Y-69880952D02*
X187738095Y-69833333D01*
X187833333Y-69785714D01*
X187976190Y-69785714D01*
X188071428Y-69833333D01*
X188119047Y-69928571D01*
X188119047Y-70452380D01*
X189642857Y-70833333D02*
X189595238Y-70785714D01*
X189500000Y-70642857D01*
X189452380Y-70547619D01*
X189404761Y-70404761D01*
X189357142Y-70166666D01*
X189357142Y-69976190D01*
X189404761Y-69738095D01*
X189452380Y-69595238D01*
X189500000Y-69500000D01*
X189595238Y-69357142D01*
X189642857Y-69309523D01*
X190214285Y-69452380D02*
X190404761Y-69452380D01*
X190500000Y-69500000D01*
X190595238Y-69595238D01*
X190642857Y-69785714D01*
X190642857Y-70119047D01*
X190595238Y-70309523D01*
X190500000Y-70404761D01*
X190404761Y-70452380D01*
X190214285Y-70452380D01*
X190119047Y-70404761D01*
X190023809Y-70309523D01*
X189976190Y-70119047D01*
X189976190Y-69785714D01*
X190023809Y-69595238D01*
X190119047Y-69500000D01*
X190214285Y-69452380D01*
X191500000Y-69785714D02*
X191500000Y-70452380D01*
X191071428Y-69785714D02*
X191071428Y-70309523D01*
X191119047Y-70404761D01*
X191214285Y-70452380D01*
X191357142Y-70452380D01*
X191452380Y-70404761D01*
X191500000Y-70357142D01*
X191833333Y-69785714D02*
X192214285Y-69785714D01*
X191976190Y-69452380D02*
X191976190Y-70309523D01*
X192023809Y-70404761D01*
X192119047Y-70452380D01*
X192214285Y-70452380D01*
X192500000Y-69547619D02*
X192547619Y-69500000D01*
X192642857Y-69452380D01*
X192880952Y-69452380D01*
X192976190Y-69500000D01*
X193023809Y-69547619D01*
X193071428Y-69642857D01*
X193071428Y-69738095D01*
X193023809Y-69880952D01*
X192452380Y-70452380D01*
X193071428Y-70452380D01*
X193404761Y-70833333D02*
X193452380Y-70785714D01*
X193547619Y-70642857D01*
X193595238Y-70547619D01*
X193642857Y-70404761D01*
X193690476Y-70166666D01*
X193690476Y-69976190D01*
X193642857Y-69738095D01*
X193595238Y-69595238D01*
X193547619Y-69500000D01*
X193452380Y-69357142D01*
X193404761Y-69309523D01*
X201690476Y-59452380D02*
X201690476Y-60166666D01*
X201642857Y-60309523D01*
X201547619Y-60404761D01*
X201404761Y-60452380D01*
X201309523Y-60452380D01*
X202690476Y-60452380D02*
X202119047Y-60452380D01*
X202404761Y-60452380D02*
X202404761Y-59452380D01*
X202309523Y-59595238D01*
X202214285Y-59690476D01*
X202119047Y-59738095D01*
X203023809Y-59452380D02*
X203642857Y-59452380D01*
X203309523Y-59833333D01*
X203452380Y-59833333D01*
X203547619Y-59880952D01*
X203595238Y-59928571D01*
X203642857Y-60023809D01*
X203642857Y-60261904D01*
X203595238Y-60357142D01*
X203547619Y-60404761D01*
X203452380Y-60452380D01*
X203166666Y-60452380D01*
X203071428Y-60404761D01*
X203023809Y-60357142D01*
X197309523Y-70357142D02*
X197261904Y-70404761D01*
X197119047Y-70452380D01*
X197023809Y-70452380D01*
X196880952Y-70404761D01*
X196785714Y-70309523D01*
X196738095Y-70214285D01*
X196690476Y-70023809D01*
X196690476Y-69880952D01*
X196738095Y-69690476D01*
X196785714Y-69595238D01*
X196880952Y-69500000D01*
X197023809Y-69452380D01*
X197119047Y-69452380D01*
X197261904Y-69500000D01*
X197309523Y-69547619D01*
X198166666Y-69785714D02*
X198166666Y-70452380D01*
X197738095Y-69785714D02*
X197738095Y-70309523D01*
X197785714Y-70404761D01*
X197880952Y-70452380D01*
X198023809Y-70452380D01*
X198119047Y-70404761D01*
X198166666Y-70357142D01*
X198642857Y-70452380D02*
X198642857Y-69785714D01*
X198642857Y-69976190D02*
X198690476Y-69880952D01*
X198738095Y-69833333D01*
X198833333Y-69785714D01*
X198928571Y-69785714D01*
X199261904Y-70452380D02*
X199261904Y-69785714D01*
X199261904Y-69976190D02*
X199309523Y-69880952D01*
X199357142Y-69833333D01*
X199452380Y-69785714D01*
X199547619Y-69785714D01*
X199642857Y-70547619D02*
X200404761Y-70547619D01*
X200833333Y-69452380D02*
X201023809Y-69452380D01*
X201119047Y-69500000D01*
X201214285Y-69595238D01*
X201261904Y-69785714D01*
X201261904Y-70119047D01*
X201214285Y-70309523D01*
X201119047Y-70404761D01*
X201023809Y-70452380D01*
X200833333Y-70452380D01*
X200738095Y-70404761D01*
X200642857Y-70309523D01*
X200595238Y-70119047D01*
X200595238Y-69785714D01*
X200642857Y-69595238D01*
X200738095Y-69500000D01*
X200833333Y-69452380D01*
X202119047Y-69785714D02*
X202119047Y-70452380D01*
X201690476Y-69785714D02*
X201690476Y-70309523D01*
X201738095Y-70404761D01*
X201833333Y-70452380D01*
X201976190Y-70452380D01*
X202071428Y-70404761D01*
X202119047Y-70357142D01*
X202452380Y-69785714D02*
X202833333Y-69785714D01*
X202595238Y-69452380D02*
X202595238Y-70309523D01*
X202642857Y-70404761D01*
X202738095Y-70452380D01*
X202833333Y-70452380D01*
X204214285Y-70833333D02*
X204166666Y-70785714D01*
X204071428Y-70642857D01*
X204023809Y-70547619D01*
X203976190Y-70404761D01*
X203928571Y-70166666D01*
X203928571Y-69976190D01*
X203976190Y-69738095D01*
X204023809Y-69595238D01*
X204071428Y-69500000D01*
X204166666Y-69357142D01*
X204214285Y-69309523D01*
X204785714Y-69452380D02*
X204976190Y-69452380D01*
X205071428Y-69500000D01*
X205166666Y-69595238D01*
X205214285Y-69785714D01*
X205214285Y-70119047D01*
X205166666Y-70309523D01*
X205071428Y-70404761D01*
X204976190Y-70452380D01*
X204785714Y-70452380D01*
X204690476Y-70404761D01*
X204595238Y-70309523D01*
X204547619Y-70119047D01*
X204547619Y-69785714D01*
X204595238Y-69595238D01*
X204690476Y-69500000D01*
X204785714Y-69452380D01*
X206071428Y-69785714D02*
X206071428Y-70452380D01*
X205642857Y-69785714D02*
X205642857Y-70309523D01*
X205690476Y-70404761D01*
X205785714Y-70452380D01*
X205928571Y-70452380D01*
X206023809Y-70404761D01*
X206071428Y-70357142D01*
X206404761Y-69785714D02*
X206785714Y-69785714D01*
X206547619Y-69452380D02*
X206547619Y-70309523D01*
X206595238Y-70404761D01*
X206690476Y-70452380D01*
X206785714Y-70452380D01*
X207071428Y-69547619D02*
X207119047Y-69500000D01*
X207214285Y-69452380D01*
X207452380Y-69452380D01*
X207547619Y-69500000D01*
X207595238Y-69547619D01*
X207642857Y-69642857D01*
X207642857Y-69738095D01*
X207595238Y-69880952D01*
X207023809Y-70452380D01*
X207642857Y-70452380D01*
X207976190Y-70833333D02*
X208023809Y-70785714D01*
X208119047Y-70642857D01*
X208166666Y-70547619D01*
X208214285Y-70404761D01*
X208261904Y-70166666D01*
X208261904Y-69976190D01*
X208214285Y-69738095D01*
X208166666Y-69595238D01*
X208119047Y-69500000D01*
X208023809Y-69357142D01*
X207976190Y-69309523D01*
X171047619Y-69928571D02*
X171380952Y-69928571D01*
X171523809Y-70452380D02*
X171047619Y-70452380D01*
X171047619Y-69452380D01*
X171523809Y-69452380D01*
X171952380Y-70452380D02*
X171952380Y-69785714D01*
X171952380Y-69976190D02*
X172000000Y-69880952D01*
X172047619Y-69833333D01*
X172142857Y-69785714D01*
X172238095Y-69785714D01*
X172571428Y-70452380D02*
X172571428Y-69785714D01*
X172571428Y-69976190D02*
X172619047Y-69880952D01*
X172666666Y-69833333D01*
X172761904Y-69785714D01*
X172857142Y-69785714D01*
X173333333Y-70452380D02*
X173238095Y-70404761D01*
X173190476Y-70357142D01*
X173142857Y-70261904D01*
X173142857Y-69976190D01*
X173190476Y-69880952D01*
X173238095Y-69833333D01*
X173333333Y-69785714D01*
X173476190Y-69785714D01*
X173571428Y-69833333D01*
X173619047Y-69880952D01*
X173666666Y-69976190D01*
X173666666Y-70261904D01*
X173619047Y-70357142D01*
X173571428Y-70404761D01*
X173476190Y-70452380D01*
X173333333Y-70452380D01*
X174095238Y-70452380D02*
X174095238Y-69785714D01*
X174095238Y-69976190D02*
X174142857Y-69880952D01*
X174190476Y-69833333D01*
X174285714Y-69785714D01*
X174380952Y-69785714D01*
X174476190Y-70547619D02*
X175238095Y-70547619D01*
X175476190Y-70452380D02*
X175476190Y-69452380D01*
X175809523Y-70166666D01*
X176142857Y-69452380D01*
X176142857Y-70452380D01*
X176761904Y-70452380D02*
X176666666Y-70404761D01*
X176619047Y-70357142D01*
X176571428Y-70261904D01*
X176571428Y-69976190D01*
X176619047Y-69880952D01*
X176666666Y-69833333D01*
X176761904Y-69785714D01*
X176904761Y-69785714D01*
X177000000Y-69833333D01*
X177047619Y-69880952D01*
X177095238Y-69976190D01*
X177095238Y-70261904D01*
X177047619Y-70357142D01*
X177000000Y-70404761D01*
X176904761Y-70452380D01*
X176761904Y-70452380D01*
X177523809Y-69785714D02*
X177523809Y-70452380D01*
X177523809Y-69880952D02*
X177571428Y-69833333D01*
X177666666Y-69785714D01*
X177809523Y-69785714D01*
X177904761Y-69833333D01*
X177952380Y-69928571D01*
X177952380Y-70452380D01*
X157833333Y-70028571D02*
X158166666Y-70028571D01*
X158309523Y-70552380D02*
X157833333Y-70552380D01*
X157833333Y-69552380D01*
X158309523Y-69552380D01*
X158738095Y-70552380D02*
X158738095Y-69885714D01*
X158738095Y-70076190D02*
X158785714Y-69980952D01*
X158833333Y-69933333D01*
X158928571Y-69885714D01*
X159023809Y-69885714D01*
X159357142Y-70552380D02*
X159357142Y-69885714D01*
X159357142Y-70076190D02*
X159404761Y-69980952D01*
X159452380Y-69933333D01*
X159547619Y-69885714D01*
X159642857Y-69885714D01*
X160119047Y-70552380D02*
X160023809Y-70504761D01*
X159976190Y-70457142D01*
X159928571Y-70361904D01*
X159928571Y-70076190D01*
X159976190Y-69980952D01*
X160023809Y-69933333D01*
X160119047Y-69885714D01*
X160261904Y-69885714D01*
X160357142Y-69933333D01*
X160404761Y-69980952D01*
X160452380Y-70076190D01*
X160452380Y-70361904D01*
X160404761Y-70457142D01*
X160357142Y-70504761D01*
X160261904Y-70552380D01*
X160119047Y-70552380D01*
X160880952Y-70552380D02*
X160880952Y-69885714D01*
X160880952Y-70076190D02*
X160928571Y-69980952D01*
X160976190Y-69933333D01*
X161071428Y-69885714D01*
X161166666Y-69885714D01*
X161261904Y-70647619D02*
X162023809Y-70647619D01*
X162261904Y-70552380D02*
X162261904Y-69552380D01*
X162738095Y-69885714D02*
X162738095Y-70552380D01*
X162738095Y-69980952D02*
X162785714Y-69933333D01*
X162880952Y-69885714D01*
X163023809Y-69885714D01*
X163119047Y-69933333D01*
X163166666Y-70028571D01*
X163166666Y-70552380D01*
X155047619Y-55928571D02*
X155380952Y-55928571D01*
X155523809Y-56452380D02*
X155047619Y-56452380D01*
X155047619Y-55452380D01*
X155523809Y-55452380D01*
X155952380Y-56452380D02*
X155952380Y-55785714D01*
X155952380Y-55976190D02*
X156000000Y-55880952D01*
X156047619Y-55833333D01*
X156142857Y-55785714D01*
X156238095Y-55785714D01*
X156571428Y-56452380D02*
X156571428Y-55785714D01*
X156571428Y-55976190D02*
X156619047Y-55880952D01*
X156666666Y-55833333D01*
X156761904Y-55785714D01*
X156857142Y-55785714D01*
X157333333Y-56452380D02*
X157238095Y-56404761D01*
X157190476Y-56357142D01*
X157142857Y-56261904D01*
X157142857Y-55976190D01*
X157190476Y-55880952D01*
X157238095Y-55833333D01*
X157333333Y-55785714D01*
X157476190Y-55785714D01*
X157571428Y-55833333D01*
X157619047Y-55880952D01*
X157666666Y-55976190D01*
X157666666Y-56261904D01*
X157619047Y-56357142D01*
X157571428Y-56404761D01*
X157476190Y-56452380D01*
X157333333Y-56452380D01*
X158095238Y-56452380D02*
X158095238Y-55785714D01*
X158095238Y-55976190D02*
X158142857Y-55880952D01*
X158190476Y-55833333D01*
X158285714Y-55785714D01*
X158380952Y-55785714D01*
X158476190Y-56547619D02*
X159238095Y-56547619D01*
X159666666Y-55452380D02*
X159857142Y-55452380D01*
X159952380Y-55500000D01*
X160047619Y-55595238D01*
X160095238Y-55785714D01*
X160095238Y-56119047D01*
X160047619Y-56309523D01*
X159952380Y-56404761D01*
X159857142Y-56452380D01*
X159666666Y-56452380D01*
X159571428Y-56404761D01*
X159476190Y-56309523D01*
X159428571Y-56119047D01*
X159428571Y-55785714D01*
X159476190Y-55595238D01*
X159571428Y-55500000D01*
X159666666Y-55452380D01*
X160952380Y-55785714D02*
X160952380Y-56452380D01*
X160523809Y-55785714D02*
X160523809Y-56309523D01*
X160571428Y-56404761D01*
X160666666Y-56452380D01*
X160809523Y-56452380D01*
X160904761Y-56404761D01*
X160952380Y-56357142D01*
X161285714Y-55785714D02*
X161666666Y-55785714D01*
X161428571Y-55452380D02*
X161428571Y-56309523D01*
X161476190Y-56404761D01*
X161571428Y-56452380D01*
X161666666Y-56452380D01*
X163047619Y-56833333D02*
X163000000Y-56785714D01*
X162904761Y-56642857D01*
X162857142Y-56547619D01*
X162809523Y-56404761D01*
X162761904Y-56166666D01*
X162761904Y-55976190D01*
X162809523Y-55738095D01*
X162857142Y-55595238D01*
X162904761Y-55500000D01*
X163000000Y-55357142D01*
X163047619Y-55309523D01*
X163428571Y-56452380D02*
X163428571Y-55452380D01*
X163904761Y-55785714D02*
X163904761Y-56452380D01*
X163904761Y-55880952D02*
X163952380Y-55833333D01*
X164047619Y-55785714D01*
X164190476Y-55785714D01*
X164285714Y-55833333D01*
X164333333Y-55928571D01*
X164333333Y-56452380D01*
X165333333Y-56452380D02*
X164761904Y-56452380D01*
X165047619Y-56452380D02*
X165047619Y-55452380D01*
X164952380Y-55595238D01*
X164857142Y-55690476D01*
X164761904Y-55738095D01*
X165666666Y-56833333D02*
X165714285Y-56785714D01*
X165809523Y-56642857D01*
X165857142Y-56547619D01*
X165904761Y-56404761D01*
X165952380Y-56166666D01*
X165952380Y-55976190D01*
X165904761Y-55738095D01*
X165857142Y-55595238D01*
X165809523Y-55500000D01*
X165714285Y-55357142D01*
X165666666Y-55309523D01*
X134871428Y-56452380D02*
X134871428Y-55452380D01*
X135252380Y-55452380D01*
X135347619Y-55500000D01*
X135395238Y-55547619D01*
X135442857Y-55642857D01*
X135442857Y-55785714D01*
X135395238Y-55880952D01*
X135347619Y-55928571D01*
X135252380Y-55976190D01*
X134871428Y-55976190D01*
X135871428Y-56452380D02*
X135871428Y-55785714D01*
X135871428Y-55452380D02*
X135823809Y-55500000D01*
X135871428Y-55547619D01*
X135919047Y-55500000D01*
X135871428Y-55452380D01*
X135871428Y-55547619D01*
X136728571Y-56404761D02*
X136633333Y-56452380D01*
X136442857Y-56452380D01*
X136347619Y-56404761D01*
X136300000Y-56309523D01*
X136300000Y-55928571D01*
X136347619Y-55833333D01*
X136442857Y-55785714D01*
X136633333Y-55785714D01*
X136728571Y-55833333D01*
X136776190Y-55928571D01*
X136776190Y-56023809D01*
X136300000Y-56119047D01*
X137109523Y-55785714D02*
X137633333Y-55785714D01*
X137109523Y-56452380D01*
X137633333Y-56452380D01*
X138157142Y-56452380D02*
X138061904Y-56404761D01*
X138014285Y-56357142D01*
X137966666Y-56261904D01*
X137966666Y-55976190D01*
X138014285Y-55880952D01*
X138061904Y-55833333D01*
X138157142Y-55785714D01*
X138300000Y-55785714D01*
X138395238Y-55833333D01*
X138442857Y-55880952D01*
X138490476Y-55976190D01*
X138490476Y-56261904D01*
X138442857Y-56357142D01*
X138395238Y-56404761D01*
X138300000Y-56452380D01*
X138157142Y-56452380D01*
X138680952Y-56547619D02*
X139442857Y-56547619D01*
X139680952Y-56452380D02*
X139680952Y-55452380D01*
X140014285Y-56166666D01*
X140347619Y-55452380D01*
X140347619Y-56452380D01*
X140966666Y-56452380D02*
X140871428Y-56404761D01*
X140823809Y-56357142D01*
X140776190Y-56261904D01*
X140776190Y-55976190D01*
X140823809Y-55880952D01*
X140871428Y-55833333D01*
X140966666Y-55785714D01*
X141109523Y-55785714D01*
X141204761Y-55833333D01*
X141252380Y-55880952D01*
X141300000Y-55976190D01*
X141300000Y-56261904D01*
X141252380Y-56357142D01*
X141204761Y-56404761D01*
X141109523Y-56452380D01*
X140966666Y-56452380D01*
X141728571Y-55785714D02*
X141728571Y-56452380D01*
X141728571Y-55880952D02*
X141776190Y-55833333D01*
X141871428Y-55785714D01*
X142014285Y-55785714D01*
X142109523Y-55833333D01*
X142157142Y-55928571D01*
X142157142Y-56452380D01*
X142633333Y-56452380D02*
X142633333Y-55785714D01*
X142633333Y-55452380D02*
X142585714Y-55500000D01*
X142633333Y-55547619D01*
X142680952Y-55500000D01*
X142633333Y-55452380D01*
X142633333Y-55547619D01*
X142966666Y-55785714D02*
X143347619Y-55785714D01*
X143109523Y-55452380D02*
X143109523Y-56309523D01*
X143157142Y-56404761D01*
X143252380Y-56452380D01*
X143347619Y-56452380D01*
X143823809Y-56452380D02*
X143728571Y-56404761D01*
X143680952Y-56357142D01*
X143633333Y-56261904D01*
X143633333Y-55976190D01*
X143680952Y-55880952D01*
X143728571Y-55833333D01*
X143823809Y-55785714D01*
X143966666Y-55785714D01*
X144061904Y-55833333D01*
X144109523Y-55880952D01*
X144157142Y-55976190D01*
X144157142Y-56261904D01*
X144109523Y-56357142D01*
X144061904Y-56404761D01*
X143966666Y-56452380D01*
X143823809Y-56452380D01*
X144585714Y-56452380D02*
X144585714Y-55785714D01*
X144585714Y-55976190D02*
X144633333Y-55880952D01*
X144680952Y-55833333D01*
X144776190Y-55785714D01*
X144871428Y-55785714D01*
X101267142Y-54832857D02*
X101314761Y-54880476D01*
X101362380Y-55023333D01*
X101362380Y-55118571D01*
X101314761Y-55261428D01*
X101219523Y-55356666D01*
X101124285Y-55404285D01*
X100933809Y-55451904D01*
X100790952Y-55451904D01*
X100600476Y-55404285D01*
X100505238Y-55356666D01*
X100410000Y-55261428D01*
X100362380Y-55118571D01*
X100362380Y-55023333D01*
X100410000Y-54880476D01*
X100457619Y-54832857D01*
X101362380Y-53880476D02*
X101362380Y-54451904D01*
X101362380Y-54166190D02*
X100362380Y-54166190D01*
X100505238Y-54261428D01*
X100600476Y-54356666D01*
X100648095Y-54451904D01*
X100362380Y-53547142D02*
X100362380Y-52928095D01*
X100743333Y-53261428D01*
X100743333Y-53118571D01*
X100790952Y-53023333D01*
X100838571Y-52975714D01*
X100933809Y-52928095D01*
X101171904Y-52928095D01*
X101267142Y-52975714D01*
X101314761Y-53023333D01*
X101362380Y-53118571D01*
X101362380Y-53404285D01*
X101314761Y-53499523D01*
X101267142Y-53547142D01*
X99857142Y-80642857D02*
X99904761Y-80690476D01*
X99952380Y-80833333D01*
X99952380Y-80928571D01*
X99904761Y-81071428D01*
X99809523Y-81166666D01*
X99714285Y-81214285D01*
X99523809Y-81261904D01*
X99380952Y-81261904D01*
X99190476Y-81214285D01*
X99095238Y-81166666D01*
X99000000Y-81071428D01*
X98952380Y-80928571D01*
X98952380Y-80833333D01*
X99000000Y-80690476D01*
X99047619Y-80642857D01*
X99952380Y-79690476D02*
X99952380Y-80261904D01*
X99952380Y-79976190D02*
X98952380Y-79976190D01*
X99095238Y-80071428D01*
X99190476Y-80166666D01*
X99238095Y-80261904D01*
X99047619Y-79309523D02*
X99000000Y-79261904D01*
X98952380Y-79166666D01*
X98952380Y-78928571D01*
X99000000Y-78833333D01*
X99047619Y-78785714D01*
X99142857Y-78738095D01*
X99238095Y-78738095D01*
X99380952Y-78785714D01*
X99952380Y-79357142D01*
X99952380Y-78738095D01*
X85383333Y-88357142D02*
X85335714Y-88404761D01*
X85192857Y-88452380D01*
X85097619Y-88452380D01*
X84954761Y-88404761D01*
X84859523Y-88309523D01*
X84811904Y-88214285D01*
X84764285Y-88023809D01*
X84764285Y-87880952D01*
X84811904Y-87690476D01*
X84859523Y-87595238D01*
X84954761Y-87500000D01*
X85097619Y-87452380D01*
X85192857Y-87452380D01*
X85335714Y-87500000D01*
X85383333Y-87547619D01*
X85716666Y-87452380D02*
X86335714Y-87452380D01*
X86002380Y-87833333D01*
X86145238Y-87833333D01*
X86240476Y-87880952D01*
X86288095Y-87928571D01*
X86335714Y-88023809D01*
X86335714Y-88261904D01*
X86288095Y-88357142D01*
X86240476Y-88404761D01*
X86145238Y-88452380D01*
X85859523Y-88452380D01*
X85764285Y-88404761D01*
X85716666Y-88357142D01*
X86583333Y-61607142D02*
X86535714Y-61654761D01*
X86392857Y-61702380D01*
X86297619Y-61702380D01*
X86154761Y-61654761D01*
X86059523Y-61559523D01*
X86011904Y-61464285D01*
X85964285Y-61273809D01*
X85964285Y-61130952D01*
X86011904Y-60940476D01*
X86059523Y-60845238D01*
X86154761Y-60750000D01*
X86297619Y-60702380D01*
X86392857Y-60702380D01*
X86535714Y-60750000D01*
X86583333Y-60797619D01*
X87440476Y-61035714D02*
X87440476Y-61702380D01*
X87202380Y-60654761D02*
X86964285Y-61369047D01*
X87583333Y-61369047D01*
X96552380Y-70085238D02*
X96076190Y-70418571D01*
X96552380Y-70656666D02*
X95552380Y-70656666D01*
X95552380Y-70275714D01*
X95600000Y-70180476D01*
X95647619Y-70132857D01*
X95742857Y-70085238D01*
X95885714Y-70085238D01*
X95980952Y-70132857D01*
X96028571Y-70180476D01*
X96076190Y-70275714D01*
X96076190Y-70656666D01*
X95552380Y-69799523D02*
X96552380Y-69466190D01*
X95552380Y-69132857D01*
X96552380Y-68275714D02*
X96552380Y-68847142D01*
X96552380Y-68561428D02*
X95552380Y-68561428D01*
X95695238Y-68656666D01*
X95790476Y-68751904D01*
X95838095Y-68847142D01*
X100352380Y-74207285D02*
X100352380Y-74778714D01*
X100352380Y-74493000D02*
X99352380Y-74493000D01*
X99495238Y-74588238D01*
X99590476Y-74683476D01*
X99638095Y-74778714D01*
D16*
X142657619Y-138893333D02*
X144752857Y-138893333D01*
X142238571Y-140150476D02*
X143705238Y-135750476D01*
X145171904Y-140150476D01*
X146638571Y-140150476D02*
X146638571Y-135750476D01*
X148314761Y-135750476D01*
X148733809Y-135960000D01*
X148943333Y-136169523D01*
X149152857Y-136588571D01*
X149152857Y-137217142D01*
X148943333Y-137636190D01*
X148733809Y-137845714D01*
X148314761Y-138055238D01*
X146638571Y-138055238D01*
X153971904Y-140569523D02*
X153552857Y-140360000D01*
X153133809Y-139940952D01*
X152505238Y-139312380D01*
X152086190Y-139102857D01*
X151667142Y-139102857D01*
X151876666Y-140150476D02*
X151457619Y-139940952D01*
X151038571Y-139521904D01*
X150829047Y-138683809D01*
X150829047Y-137217142D01*
X151038571Y-136379047D01*
X151457619Y-135960000D01*
X151876666Y-135750476D01*
X152714761Y-135750476D01*
X153133809Y-135960000D01*
X153552857Y-136379047D01*
X153762380Y-137217142D01*
X153762380Y-138683809D01*
X153552857Y-139521904D01*
X153133809Y-139940952D01*
X152714761Y-140150476D01*
X151876666Y-140150476D01*
D11*
X109766666Y-91862380D02*
X109766666Y-92576666D01*
X109719047Y-92719523D01*
X109623809Y-92814761D01*
X109480952Y-92862380D01*
X109385714Y-92862380D01*
X110290476Y-92862380D02*
X110480952Y-92862380D01*
X110576190Y-92814761D01*
X110623809Y-92767142D01*
X110719047Y-92624285D01*
X110766666Y-92433809D01*
X110766666Y-92052857D01*
X110719047Y-91957619D01*
X110671428Y-91910000D01*
X110576190Y-91862380D01*
X110385714Y-91862380D01*
X110290476Y-91910000D01*
X110242857Y-91957619D01*
X110195238Y-92052857D01*
X110195238Y-92290952D01*
X110242857Y-92386190D01*
X110290476Y-92433809D01*
X110385714Y-92481428D01*
X110576190Y-92481428D01*
X110671428Y-92433809D01*
X110719047Y-92386190D01*
X110766666Y-92290952D01*
X94452380Y-111066666D02*
X94452380Y-111542857D01*
X93452380Y-111542857D01*
X93547619Y-110780952D02*
X93500000Y-110733333D01*
X93452380Y-110638095D01*
X93452380Y-110400000D01*
X93500000Y-110304761D01*
X93547619Y-110257142D01*
X93642857Y-110209523D01*
X93738095Y-110209523D01*
X93880952Y-110257142D01*
X94452380Y-110828571D01*
X94452380Y-110209523D01*
X130552380Y-121666666D02*
X130552380Y-122142857D01*
X129552380Y-122142857D01*
X129552380Y-121428571D02*
X129552380Y-120809523D01*
X129933333Y-121142857D01*
X129933333Y-121000000D01*
X129980952Y-120904761D01*
X130028571Y-120857142D01*
X130123809Y-120809523D01*
X130361904Y-120809523D01*
X130457142Y-120857142D01*
X130504761Y-120904761D01*
X130552380Y-121000000D01*
X130552380Y-121285714D01*
X130504761Y-121380952D01*
X130457142Y-121428571D01*
X189923380Y-129163666D02*
X189447190Y-129497000D01*
X189923380Y-129735095D02*
X188923380Y-129735095D01*
X188923380Y-129354142D01*
X188971000Y-129258904D01*
X189018619Y-129211285D01*
X189113857Y-129163666D01*
X189256714Y-129163666D01*
X189351952Y-129211285D01*
X189399571Y-129258904D01*
X189447190Y-129354142D01*
X189447190Y-129735095D01*
X189923380Y-128735095D02*
X188923380Y-128735095D01*
X188923380Y-128354142D01*
X188971000Y-128258904D01*
X189018619Y-128211285D01*
X189113857Y-128163666D01*
X189256714Y-128163666D01*
X189351952Y-128211285D01*
X189399571Y-128258904D01*
X189447190Y-128354142D01*
X189447190Y-128735095D01*
X189923380Y-127211285D02*
X189923380Y-127782714D01*
X189923380Y-127497000D02*
X188923380Y-127497000D01*
X189066238Y-127592238D01*
X189161476Y-127687476D01*
X189209095Y-127782714D01*
M02*
