G04 #@! TF.GenerationSoftware,KiCad,Pcbnew,(6.0.1)*
G04 #@! TF.CreationDate,2022-02-10T19:07:32+01:00*
G04 #@! TF.ProjectId,RedPitaya_Lockbox,52656450-6974-4617-9961-5f4c6f636b62,1.5.2*
G04 #@! TF.SameCoordinates,Original*
G04 #@! TF.FileFunction,Paste,Top*
G04 #@! TF.FilePolarity,Positive*
%FSLAX46Y46*%
G04 Gerber Fmt 4.6, Leading zero omitted, Abs format (unit mm)*
G04 Created by KiCad (PCBNEW (6.0.1)) date 2022-02-10 19:07:32*
%MOMM*%
%LPD*%
G01*
G04 APERTURE LIST*
G04 Aperture macros list*
%AMRoundRect*
0 Rectangle with rounded corners*
0 $1 Rounding radius*
0 $2 $3 $4 $5 $6 $7 $8 $9 X,Y pos of 4 corners*
0 Add a 4 corners polygon primitive as box body*
4,1,4,$2,$3,$4,$5,$6,$7,$8,$9,$2,$3,0*
0 Add four circle primitives for the rounded corners*
1,1,$1+$1,$2,$3*
1,1,$1+$1,$4,$5*
1,1,$1+$1,$6,$7*
1,1,$1+$1,$8,$9*
0 Add four rect primitives between the rounded corners*
20,1,$1+$1,$2,$3,$4,$5,0*
20,1,$1+$1,$4,$5,$6,$7,0*
20,1,$1+$1,$6,$7,$8,$9,0*
20,1,$1+$1,$8,$9,$2,$3,0*%
G04 Aperture macros list end*
%ADD10RoundRect,0.218750X0.256250X-0.218750X0.256250X0.218750X-0.256250X0.218750X-0.256250X-0.218750X0*%
%ADD11RoundRect,0.243750X-0.456250X0.243750X-0.456250X-0.243750X0.456250X-0.243750X0.456250X0.243750X0*%
%ADD12RoundRect,0.150000X0.825000X0.150000X-0.825000X0.150000X-0.825000X-0.150000X0.825000X-0.150000X0*%
%ADD13RoundRect,0.218750X-0.256250X0.218750X-0.256250X-0.218750X0.256250X-0.218750X0.256250X0.218750X0*%
%ADD14RoundRect,0.218750X0.218750X0.256250X-0.218750X0.256250X-0.218750X-0.256250X0.218750X-0.256250X0*%
%ADD15RoundRect,0.218750X-0.218750X-0.256250X0.218750X-0.256250X0.218750X0.256250X-0.218750X0.256250X0*%
%ADD16RoundRect,0.250000X-0.375000X-0.625000X0.375000X-0.625000X0.375000X0.625000X-0.375000X0.625000X0*%
%ADD17RoundRect,0.250000X-0.625000X0.375000X-0.625000X-0.375000X0.625000X-0.375000X0.625000X0.375000X0*%
%ADD18R,5.500000X4.000000*%
%ADD19RoundRect,0.167500X-0.167500X-0.407500X0.167500X-0.407500X0.167500X0.407500X-0.167500X0.407500X0*%
%ADD20RoundRect,0.100000X-0.625000X-0.100000X0.625000X-0.100000X0.625000X0.100000X-0.625000X0.100000X0*%
%ADD21RoundRect,0.250000X1.075000X-0.375000X1.075000X0.375000X-1.075000X0.375000X-1.075000X-0.375000X0*%
%ADD22RoundRect,0.150000X0.150000X-0.825000X0.150000X0.825000X-0.150000X0.825000X-0.150000X-0.825000X0*%
%ADD23RoundRect,0.243750X-0.243750X-0.456250X0.243750X-0.456250X0.243750X0.456250X-0.243750X0.456250X0*%
%ADD24RoundRect,0.150000X-0.150000X0.825000X-0.150000X-0.825000X0.150000X-0.825000X0.150000X0.825000X0*%
%ADD25RoundRect,0.250000X-1.075000X0.375000X-1.075000X-0.375000X1.075000X-0.375000X1.075000X0.375000X0*%
%ADD26R,4.000000X5.500000*%
%ADD27RoundRect,0.249998X0.925002X-0.412502X0.925002X0.412502X-0.925002X0.412502X-0.925002X-0.412502X0*%
%ADD28RoundRect,0.172500X-0.172500X-0.422500X0.172500X-0.422500X0.172500X0.422500X-0.172500X0.422500X0*%
%ADD29RoundRect,0.075000X-0.650000X-0.075000X0.650000X-0.075000X0.650000X0.075000X-0.650000X0.075000X0*%
%ADD30RoundRect,0.250000X0.375000X1.075000X-0.375000X1.075000X-0.375000X-1.075000X0.375000X-1.075000X0*%
%ADD31RoundRect,0.250000X0.375000X0.625000X-0.375000X0.625000X-0.375000X-0.625000X0.375000X-0.625000X0*%
%ADD32R,0.450000X0.600000*%
%ADD33R,2.500000X2.300000*%
G04 APERTURE END LIST*
D10*
X124350000Y-54437500D03*
X124350000Y-52862500D03*
X177000000Y-42587500D03*
X177000000Y-41012500D03*
D11*
X90200000Y-102862500D03*
X90200000Y-104737500D03*
D10*
X99000000Y-100387500D03*
X99000000Y-98812500D03*
D12*
X176575000Y-48805000D03*
X176575000Y-47535000D03*
X176575000Y-46265000D03*
X176575000Y-44995000D03*
X171625000Y-44995000D03*
X171625000Y-46265000D03*
X171625000Y-47535000D03*
X171625000Y-48805000D03*
D10*
X169100000Y-47187500D03*
X169100000Y-45612500D03*
D13*
X99850000Y-103512500D03*
X99850000Y-105087500D03*
D10*
X179100000Y-49187500D03*
X179100000Y-47612500D03*
D14*
X78387500Y-52900000D03*
X76812500Y-52900000D03*
D15*
X93412500Y-45200000D03*
X94987500Y-45200000D03*
D16*
X71100000Y-67100000D03*
X73900000Y-67100000D03*
D17*
X92800000Y-64700000D03*
X92800000Y-67500000D03*
D18*
X101300000Y-109150000D03*
X101300000Y-117650000D03*
D19*
X70000000Y-74210000D03*
X69180000Y-75630000D03*
X69180000Y-74210000D03*
X70000000Y-75630000D03*
D20*
X67440000Y-73295000D03*
X67440000Y-73945000D03*
X67440000Y-74595000D03*
X67440000Y-75245000D03*
X67440000Y-75895000D03*
X67440000Y-76545000D03*
X71740000Y-76545000D03*
X71740000Y-75895000D03*
X71740000Y-75245000D03*
X71740000Y-74595000D03*
X71740000Y-73945000D03*
X71740000Y-73295000D03*
D16*
X74000000Y-78500000D03*
X76800000Y-78500000D03*
D14*
X129387500Y-56650000D03*
X127812500Y-56650000D03*
X112137500Y-56600000D03*
X110562500Y-56600000D03*
D21*
X92400000Y-110200000D03*
X92400000Y-107400000D03*
D15*
X103612500Y-58300000D03*
X105187500Y-58300000D03*
D22*
X97090000Y-53875000D03*
X98360000Y-53875000D03*
X99630000Y-53875000D03*
X100900000Y-53875000D03*
X102170000Y-53875000D03*
X103440000Y-53875000D03*
X104710000Y-53875000D03*
X104710000Y-48925000D03*
X103440000Y-48925000D03*
X102170000Y-48925000D03*
X100900000Y-48925000D03*
X99630000Y-48925000D03*
X98360000Y-48925000D03*
X97090000Y-48925000D03*
D13*
X126600000Y-45312500D03*
X126600000Y-46887500D03*
X111800000Y-45212500D03*
X111800000Y-46787500D03*
D23*
X79362500Y-93100000D03*
X81237500Y-93100000D03*
D24*
X130405000Y-49025000D03*
X129135000Y-49025000D03*
X127865000Y-49025000D03*
X126595000Y-49025000D03*
X126595000Y-53975000D03*
X127865000Y-53975000D03*
X129135000Y-53975000D03*
X130405000Y-53975000D03*
D10*
X132100000Y-55787500D03*
X132100000Y-54212500D03*
D14*
X90587500Y-64500000D03*
X89012500Y-64500000D03*
X105197500Y-56360000D03*
X103622500Y-56360000D03*
D25*
X104800000Y-43800000D03*
X104800000Y-46600000D03*
D26*
X75550000Y-102800000D03*
X84050000Y-102800000D03*
D15*
X88312500Y-99600000D03*
X89887500Y-99600000D03*
D19*
X71307500Y-49021250D03*
X70487500Y-49021250D03*
X71307500Y-47601250D03*
X70487500Y-47601250D03*
D20*
X68747500Y-46686250D03*
X68747500Y-47336250D03*
X68747500Y-47986250D03*
X68747500Y-48636250D03*
X68747500Y-49286250D03*
X68747500Y-49936250D03*
X73047500Y-49936250D03*
X73047500Y-49286250D03*
X73047500Y-48636250D03*
X73047500Y-47986250D03*
X73047500Y-47336250D03*
X73047500Y-46686250D03*
D22*
X67495000Y-63675000D03*
X68765000Y-63675000D03*
X70035000Y-63675000D03*
X71305000Y-63675000D03*
X71305000Y-58725000D03*
X70035000Y-58725000D03*
X68765000Y-58725000D03*
X67495000Y-58725000D03*
D21*
X145600000Y-56800000D03*
X145600000Y-54000000D03*
D13*
X124350000Y-56362500D03*
X124350000Y-57937500D03*
D10*
X102200000Y-63487500D03*
X102200000Y-61912500D03*
D21*
X65350000Y-50750000D03*
X65350000Y-47950000D03*
D25*
X64100000Y-74500000D03*
X64100000Y-77300000D03*
D21*
X75450000Y-73300000D03*
X75450000Y-70500000D03*
D15*
X73712500Y-75900000D03*
X75287500Y-75900000D03*
D14*
X102037500Y-59800000D03*
X100462500Y-59800000D03*
D13*
X100900000Y-45112500D03*
X100900000Y-46687500D03*
D27*
X98060000Y-45202500D03*
X98060000Y-42127500D03*
D28*
X95415000Y-101590000D03*
X94585000Y-103010000D03*
X95415000Y-103010000D03*
X94585000Y-101590000D03*
D29*
X92850000Y-100550000D03*
X92850000Y-101050000D03*
X92850000Y-101550000D03*
X92850000Y-102050000D03*
X92850000Y-102550000D03*
X92850000Y-103050000D03*
X92850000Y-103550000D03*
X92850000Y-104050000D03*
X97150000Y-104050000D03*
X97150000Y-103550000D03*
X97150000Y-103050000D03*
X97150000Y-102550000D03*
X97150000Y-102050000D03*
X97150000Y-101550000D03*
X97150000Y-101050000D03*
X97150000Y-100550000D03*
D25*
X76600000Y-44690000D03*
X76600000Y-47490000D03*
D30*
X132900000Y-42800000D03*
X130100000Y-42800000D03*
X111100000Y-59900000D03*
X108300000Y-59900000D03*
X187500000Y-50400000D03*
X184700000Y-50400000D03*
D10*
X169100000Y-50687500D03*
X169100000Y-49112500D03*
D23*
X101662500Y-102900000D03*
X103537500Y-102900000D03*
D14*
X174987500Y-42600000D03*
X173412500Y-42600000D03*
D13*
X159600000Y-53612500D03*
X159600000Y-55187500D03*
D24*
X111805000Y-48925000D03*
X110535000Y-48925000D03*
X109265000Y-48925000D03*
X107995000Y-48925000D03*
X107995000Y-53875000D03*
X109265000Y-53875000D03*
X110535000Y-53875000D03*
X111805000Y-53875000D03*
D14*
X180887500Y-44900000D03*
X179312500Y-44900000D03*
X89887500Y-101200000D03*
X88312500Y-101200000D03*
D15*
X97062500Y-56260000D03*
X98637500Y-56260000D03*
X97062500Y-57900000D03*
X98637500Y-57900000D03*
X159812500Y-50900000D03*
X161387500Y-50900000D03*
D23*
X75762500Y-93100000D03*
X77637500Y-93100000D03*
D14*
X102287500Y-98900000D03*
X100712500Y-98900000D03*
D31*
X79000000Y-50900000D03*
X76200000Y-50900000D03*
D11*
X74000000Y-93162500D03*
X74000000Y-95037500D03*
D10*
X100900000Y-57937500D03*
X100900000Y-56362500D03*
D14*
X102287500Y-100400000D03*
X100712500Y-100400000D03*
D13*
X159750000Y-57962500D03*
X159750000Y-59537500D03*
X86500000Y-64425000D03*
X86500000Y-66000000D03*
D32*
X80454500Y-72906600D03*
X80454500Y-70806600D03*
D33*
X69850000Y-120200000D03*
X74150000Y-120200000D03*
X68450000Y-54800000D03*
X64150000Y-54800000D03*
M02*
