G04 #@! TF.GenerationSoftware,KiCad,Pcbnew,(5.1.10)-1*
G04 #@! TF.CreationDate,2021-10-13T16:23:51+02:00*
G04 #@! TF.ProjectId,RedPitaya_Lockbox,52656450-6974-4617-9961-5f4c6f636b62,1.5.1*
G04 #@! TF.SameCoordinates,Original*
G04 #@! TF.FileFunction,Soldermask,Top*
G04 #@! TF.FilePolarity,Negative*
%FSLAX46Y46*%
G04 Gerber Fmt 4.6, Leading zero omitted, Abs format (unit mm)*
G04 Created by KiCad (PCBNEW (5.1.10)-1) date 2021-10-13 16:23:51*
%MOMM*%
%LPD*%
G01*
G04 APERTURE LIST*
%ADD10C,2.200000*%
%ADD11C,3.300000*%
%ADD12C,3.100000*%
%ADD13C,1.900000*%
%ADD14C,2.650000*%
%ADD15C,2.450000*%
%ADD16C,2.432000*%
%ADD17C,3.800000*%
%ADD18O,2.127200X2.127200*%
%ADD19C,0.100000*%
G04 APERTURE END LIST*
D10*
X55360000Y-124370000D03*
X55360000Y-121830000D03*
X55360000Y-116750000D03*
X55360000Y-119290000D03*
X55360000Y-114210000D03*
X55360000Y-111670000D03*
X55360000Y-109130000D03*
X55360000Y-106590000D03*
X55360000Y-104050000D03*
X55360000Y-101510000D03*
X55360000Y-98970000D03*
X55360000Y-96430000D03*
X55360000Y-93890000D03*
X55360000Y-91350000D03*
X55360000Y-88810000D03*
X55360000Y-86270000D03*
X55360000Y-83730000D03*
X55360000Y-81190000D03*
X55360000Y-78650000D03*
X55360000Y-76110000D03*
X55360000Y-73570000D03*
X55360000Y-71030000D03*
X55360000Y-68490000D03*
X55360000Y-65950000D03*
X55360000Y-63410000D03*
X55360000Y-60870000D03*
X55360000Y-58330000D03*
X55360000Y-55790000D03*
X55360000Y-53250000D03*
X55360000Y-50710000D03*
X55360000Y-48170000D03*
X55360000Y-45630000D03*
X60440000Y-124370000D03*
X60440000Y-121830000D03*
X60440000Y-116750000D03*
X60440000Y-119290000D03*
X60440000Y-114210000D03*
X60440000Y-111670000D03*
X60440000Y-109130000D03*
X60440000Y-106590000D03*
X60440000Y-104050000D03*
X60440000Y-101510000D03*
X60440000Y-98970000D03*
X60440000Y-96430000D03*
X60440000Y-93890000D03*
X60440000Y-91350000D03*
X60440000Y-88810000D03*
X60440000Y-86270000D03*
X60440000Y-83730000D03*
X60440000Y-81190000D03*
X60440000Y-78650000D03*
X60440000Y-76110000D03*
X60440000Y-73570000D03*
X60440000Y-71030000D03*
X60440000Y-68490000D03*
X60440000Y-65950000D03*
X60440000Y-63410000D03*
X60440000Y-60870000D03*
X60440000Y-58330000D03*
X60440000Y-55790000D03*
X60440000Y-53250000D03*
X60440000Y-50710000D03*
X60440000Y-48170000D03*
X60440000Y-45630000D03*
D11*
X52820000Y-40550000D03*
X52820000Y-129450000D03*
D12*
X206210000Y-40540000D03*
X206200000Y-129450000D03*
D13*
X78500000Y-56020000D03*
X77900000Y-41900000D03*
X167600000Y-130200000D03*
X89490000Y-76460000D03*
X80900000Y-76500000D03*
G36*
G01*
X74650000Y-76256250D02*
X74650000Y-75543750D01*
G75*
G02*
X74968750Y-75225000I318750J0D01*
G01*
X75606250Y-75225000D01*
G75*
G02*
X75925000Y-75543750I0J-318750D01*
G01*
X75925000Y-76256250D01*
G75*
G02*
X75606250Y-76575000I-318750J0D01*
G01*
X74968750Y-76575000D01*
G75*
G02*
X74650000Y-76256250I0J318750D01*
G01*
G37*
G36*
G01*
X73075000Y-76256250D02*
X73075000Y-75543750D01*
G75*
G02*
X73393750Y-75225000I318750J0D01*
G01*
X74031250Y-75225000D01*
G75*
G02*
X74350000Y-75543750I0J-318750D01*
G01*
X74350000Y-76256250D01*
G75*
G02*
X74031250Y-76575000I-318750J0D01*
G01*
X73393750Y-76575000D01*
G75*
G02*
X73075000Y-76256250I0J318750D01*
G01*
G37*
G36*
G01*
X99493750Y-104450000D02*
X100206250Y-104450000D01*
G75*
G02*
X100525000Y-104768750I0J-318750D01*
G01*
X100525000Y-105406250D01*
G75*
G02*
X100206250Y-105725000I-318750J0D01*
G01*
X99493750Y-105725000D01*
G75*
G02*
X99175000Y-105406250I0J318750D01*
G01*
X99175000Y-104768750D01*
G75*
G02*
X99493750Y-104450000I318750J0D01*
G01*
G37*
G36*
G01*
X99493750Y-102875000D02*
X100206250Y-102875000D01*
G75*
G02*
X100525000Y-103193750I0J-318750D01*
G01*
X100525000Y-103831250D01*
G75*
G02*
X100206250Y-104150000I-318750J0D01*
G01*
X99493750Y-104150000D01*
G75*
G02*
X99175000Y-103831250I0J318750D01*
G01*
X99175000Y-103193750D01*
G75*
G02*
X99493750Y-102875000I318750J0D01*
G01*
G37*
G36*
G01*
X102850000Y-103456250D02*
X102850000Y-102343750D01*
G75*
G02*
X103193750Y-102000000I343750J0D01*
G01*
X103881250Y-102000000D01*
G75*
G02*
X104225000Y-102343750I0J-343750D01*
G01*
X104225000Y-103456250D01*
G75*
G02*
X103881250Y-103800000I-343750J0D01*
G01*
X103193750Y-103800000D01*
G75*
G02*
X102850000Y-103456250I0J343750D01*
G01*
G37*
G36*
G01*
X100975000Y-103456250D02*
X100975000Y-102343750D01*
G75*
G02*
X101318750Y-102000000I343750J0D01*
G01*
X102006250Y-102000000D01*
G75*
G02*
X102350000Y-102343750I0J-343750D01*
G01*
X102350000Y-103456250D01*
G75*
G02*
X102006250Y-103800000I-343750J0D01*
G01*
X101318750Y-103800000D01*
G75*
G02*
X100975000Y-103456250I0J343750D01*
G01*
G37*
G36*
G01*
X69872500Y-49736250D02*
X69872500Y-46886250D01*
G75*
G02*
X70072500Y-46686250I200000J0D01*
G01*
X71722500Y-46686250D01*
G75*
G02*
X71922500Y-46886250I0J-200000D01*
G01*
X71922500Y-49736250D01*
G75*
G02*
X71722500Y-49936250I-200000J0D01*
G01*
X70072500Y-49936250D01*
G75*
G02*
X69872500Y-49736250I0J200000D01*
G01*
G37*
G36*
G01*
X72122500Y-46886250D02*
X72122500Y-46486250D01*
G75*
G02*
X72322500Y-46286250I200000J0D01*
G01*
X73772500Y-46286250D01*
G75*
G02*
X73972500Y-46486250I0J-200000D01*
G01*
X73972500Y-46886250D01*
G75*
G02*
X73772500Y-47086250I-200000J0D01*
G01*
X72322500Y-47086250D01*
G75*
G02*
X72122500Y-46886250I0J200000D01*
G01*
G37*
G36*
G01*
X72122500Y-47536250D02*
X72122500Y-47136250D01*
G75*
G02*
X72322500Y-46936250I200000J0D01*
G01*
X73772500Y-46936250D01*
G75*
G02*
X73972500Y-47136250I0J-200000D01*
G01*
X73972500Y-47536250D01*
G75*
G02*
X73772500Y-47736250I-200000J0D01*
G01*
X72322500Y-47736250D01*
G75*
G02*
X72122500Y-47536250I0J200000D01*
G01*
G37*
G36*
G01*
X72122500Y-48186250D02*
X72122500Y-47786250D01*
G75*
G02*
X72322500Y-47586250I200000J0D01*
G01*
X73772500Y-47586250D01*
G75*
G02*
X73972500Y-47786250I0J-200000D01*
G01*
X73972500Y-48186250D01*
G75*
G02*
X73772500Y-48386250I-200000J0D01*
G01*
X72322500Y-48386250D01*
G75*
G02*
X72122500Y-48186250I0J200000D01*
G01*
G37*
G36*
G01*
X72122500Y-48836250D02*
X72122500Y-48436250D01*
G75*
G02*
X72322500Y-48236250I200000J0D01*
G01*
X73772500Y-48236250D01*
G75*
G02*
X73972500Y-48436250I0J-200000D01*
G01*
X73972500Y-48836250D01*
G75*
G02*
X73772500Y-49036250I-200000J0D01*
G01*
X72322500Y-49036250D01*
G75*
G02*
X72122500Y-48836250I0J200000D01*
G01*
G37*
G36*
G01*
X72122500Y-49486250D02*
X72122500Y-49086250D01*
G75*
G02*
X72322500Y-48886250I200000J0D01*
G01*
X73772500Y-48886250D01*
G75*
G02*
X73972500Y-49086250I0J-200000D01*
G01*
X73972500Y-49486250D01*
G75*
G02*
X73772500Y-49686250I-200000J0D01*
G01*
X72322500Y-49686250D01*
G75*
G02*
X72122500Y-49486250I0J200000D01*
G01*
G37*
G36*
G01*
X72122500Y-50136250D02*
X72122500Y-49736250D01*
G75*
G02*
X72322500Y-49536250I200000J0D01*
G01*
X73772500Y-49536250D01*
G75*
G02*
X73972500Y-49736250I0J-200000D01*
G01*
X73972500Y-50136250D01*
G75*
G02*
X73772500Y-50336250I-200000J0D01*
G01*
X72322500Y-50336250D01*
G75*
G02*
X72122500Y-50136250I0J200000D01*
G01*
G37*
G36*
G01*
X67822500Y-50136250D02*
X67822500Y-49736250D01*
G75*
G02*
X68022500Y-49536250I200000J0D01*
G01*
X69472500Y-49536250D01*
G75*
G02*
X69672500Y-49736250I0J-200000D01*
G01*
X69672500Y-50136250D01*
G75*
G02*
X69472500Y-50336250I-200000J0D01*
G01*
X68022500Y-50336250D01*
G75*
G02*
X67822500Y-50136250I0J200000D01*
G01*
G37*
G36*
G01*
X67822500Y-49486250D02*
X67822500Y-49086250D01*
G75*
G02*
X68022500Y-48886250I200000J0D01*
G01*
X69472500Y-48886250D01*
G75*
G02*
X69672500Y-49086250I0J-200000D01*
G01*
X69672500Y-49486250D01*
G75*
G02*
X69472500Y-49686250I-200000J0D01*
G01*
X68022500Y-49686250D01*
G75*
G02*
X67822500Y-49486250I0J200000D01*
G01*
G37*
G36*
G01*
X67822500Y-48836250D02*
X67822500Y-48436250D01*
G75*
G02*
X68022500Y-48236250I200000J0D01*
G01*
X69472500Y-48236250D01*
G75*
G02*
X69672500Y-48436250I0J-200000D01*
G01*
X69672500Y-48836250D01*
G75*
G02*
X69472500Y-49036250I-200000J0D01*
G01*
X68022500Y-49036250D01*
G75*
G02*
X67822500Y-48836250I0J200000D01*
G01*
G37*
G36*
G01*
X67822500Y-48186250D02*
X67822500Y-47786250D01*
G75*
G02*
X68022500Y-47586250I200000J0D01*
G01*
X69472500Y-47586250D01*
G75*
G02*
X69672500Y-47786250I0J-200000D01*
G01*
X69672500Y-48186250D01*
G75*
G02*
X69472500Y-48386250I-200000J0D01*
G01*
X68022500Y-48386250D01*
G75*
G02*
X67822500Y-48186250I0J200000D01*
G01*
G37*
G36*
G01*
X67822500Y-47536250D02*
X67822500Y-47136250D01*
G75*
G02*
X68022500Y-46936250I200000J0D01*
G01*
X69472500Y-46936250D01*
G75*
G02*
X69672500Y-47136250I0J-200000D01*
G01*
X69672500Y-47536250D01*
G75*
G02*
X69472500Y-47736250I-200000J0D01*
G01*
X68022500Y-47736250D01*
G75*
G02*
X67822500Y-47536250I0J200000D01*
G01*
G37*
G36*
G01*
X67822500Y-46886250D02*
X67822500Y-46486250D01*
G75*
G02*
X68022500Y-46286250I200000J0D01*
G01*
X69472500Y-46286250D01*
G75*
G02*
X69672500Y-46486250I0J-200000D01*
G01*
X69672500Y-46886250D01*
G75*
G02*
X69472500Y-47086250I-200000J0D01*
G01*
X68022500Y-47086250D01*
G75*
G02*
X67822500Y-46886250I0J200000D01*
G01*
G37*
G36*
G01*
X68565000Y-76345000D02*
X68565000Y-73495000D01*
G75*
G02*
X68765000Y-73295000I200000J0D01*
G01*
X70415000Y-73295000D01*
G75*
G02*
X70615000Y-73495000I0J-200000D01*
G01*
X70615000Y-76345000D01*
G75*
G02*
X70415000Y-76545000I-200000J0D01*
G01*
X68765000Y-76545000D01*
G75*
G02*
X68565000Y-76345000I0J200000D01*
G01*
G37*
G36*
G01*
X70815000Y-73495000D02*
X70815000Y-73095000D01*
G75*
G02*
X71015000Y-72895000I200000J0D01*
G01*
X72465000Y-72895000D01*
G75*
G02*
X72665000Y-73095000I0J-200000D01*
G01*
X72665000Y-73495000D01*
G75*
G02*
X72465000Y-73695000I-200000J0D01*
G01*
X71015000Y-73695000D01*
G75*
G02*
X70815000Y-73495000I0J200000D01*
G01*
G37*
G36*
G01*
X70815000Y-74145000D02*
X70815000Y-73745000D01*
G75*
G02*
X71015000Y-73545000I200000J0D01*
G01*
X72465000Y-73545000D01*
G75*
G02*
X72665000Y-73745000I0J-200000D01*
G01*
X72665000Y-74145000D01*
G75*
G02*
X72465000Y-74345000I-200000J0D01*
G01*
X71015000Y-74345000D01*
G75*
G02*
X70815000Y-74145000I0J200000D01*
G01*
G37*
G36*
G01*
X70815000Y-74795000D02*
X70815000Y-74395000D01*
G75*
G02*
X71015000Y-74195000I200000J0D01*
G01*
X72465000Y-74195000D01*
G75*
G02*
X72665000Y-74395000I0J-200000D01*
G01*
X72665000Y-74795000D01*
G75*
G02*
X72465000Y-74995000I-200000J0D01*
G01*
X71015000Y-74995000D01*
G75*
G02*
X70815000Y-74795000I0J200000D01*
G01*
G37*
G36*
G01*
X70815000Y-75445000D02*
X70815000Y-75045000D01*
G75*
G02*
X71015000Y-74845000I200000J0D01*
G01*
X72465000Y-74845000D01*
G75*
G02*
X72665000Y-75045000I0J-200000D01*
G01*
X72665000Y-75445000D01*
G75*
G02*
X72465000Y-75645000I-200000J0D01*
G01*
X71015000Y-75645000D01*
G75*
G02*
X70815000Y-75445000I0J200000D01*
G01*
G37*
G36*
G01*
X70815000Y-76095000D02*
X70815000Y-75695000D01*
G75*
G02*
X71015000Y-75495000I200000J0D01*
G01*
X72465000Y-75495000D01*
G75*
G02*
X72665000Y-75695000I0J-200000D01*
G01*
X72665000Y-76095000D01*
G75*
G02*
X72465000Y-76295000I-200000J0D01*
G01*
X71015000Y-76295000D01*
G75*
G02*
X70815000Y-76095000I0J200000D01*
G01*
G37*
G36*
G01*
X70815000Y-76745000D02*
X70815000Y-76345000D01*
G75*
G02*
X71015000Y-76145000I200000J0D01*
G01*
X72465000Y-76145000D01*
G75*
G02*
X72665000Y-76345000I0J-200000D01*
G01*
X72665000Y-76745000D01*
G75*
G02*
X72465000Y-76945000I-200000J0D01*
G01*
X71015000Y-76945000D01*
G75*
G02*
X70815000Y-76745000I0J200000D01*
G01*
G37*
G36*
G01*
X66515000Y-76745000D02*
X66515000Y-76345000D01*
G75*
G02*
X66715000Y-76145000I200000J0D01*
G01*
X68165000Y-76145000D01*
G75*
G02*
X68365000Y-76345000I0J-200000D01*
G01*
X68365000Y-76745000D01*
G75*
G02*
X68165000Y-76945000I-200000J0D01*
G01*
X66715000Y-76945000D01*
G75*
G02*
X66515000Y-76745000I0J200000D01*
G01*
G37*
G36*
G01*
X66515000Y-76095000D02*
X66515000Y-75695000D01*
G75*
G02*
X66715000Y-75495000I200000J0D01*
G01*
X68165000Y-75495000D01*
G75*
G02*
X68365000Y-75695000I0J-200000D01*
G01*
X68365000Y-76095000D01*
G75*
G02*
X68165000Y-76295000I-200000J0D01*
G01*
X66715000Y-76295000D01*
G75*
G02*
X66515000Y-76095000I0J200000D01*
G01*
G37*
G36*
G01*
X66515000Y-75445000D02*
X66515000Y-75045000D01*
G75*
G02*
X66715000Y-74845000I200000J0D01*
G01*
X68165000Y-74845000D01*
G75*
G02*
X68365000Y-75045000I0J-200000D01*
G01*
X68365000Y-75445000D01*
G75*
G02*
X68165000Y-75645000I-200000J0D01*
G01*
X66715000Y-75645000D01*
G75*
G02*
X66515000Y-75445000I0J200000D01*
G01*
G37*
G36*
G01*
X66515000Y-74795000D02*
X66515000Y-74395000D01*
G75*
G02*
X66715000Y-74195000I200000J0D01*
G01*
X68165000Y-74195000D01*
G75*
G02*
X68365000Y-74395000I0J-200000D01*
G01*
X68365000Y-74795000D01*
G75*
G02*
X68165000Y-74995000I-200000J0D01*
G01*
X66715000Y-74995000D01*
G75*
G02*
X66515000Y-74795000I0J200000D01*
G01*
G37*
G36*
G01*
X66515000Y-74145000D02*
X66515000Y-73745000D01*
G75*
G02*
X66715000Y-73545000I200000J0D01*
G01*
X68165000Y-73545000D01*
G75*
G02*
X68365000Y-73745000I0J-200000D01*
G01*
X68365000Y-74145000D01*
G75*
G02*
X68165000Y-74345000I-200000J0D01*
G01*
X66715000Y-74345000D01*
G75*
G02*
X66515000Y-74145000I0J200000D01*
G01*
G37*
G36*
G01*
X66515000Y-73495000D02*
X66515000Y-73095000D01*
G75*
G02*
X66715000Y-72895000I200000J0D01*
G01*
X68165000Y-72895000D01*
G75*
G02*
X68365000Y-73095000I0J-200000D01*
G01*
X68365000Y-73495000D01*
G75*
G02*
X68165000Y-73695000I-200000J0D01*
G01*
X66715000Y-73695000D01*
G75*
G02*
X66515000Y-73495000I0J200000D01*
G01*
G37*
G36*
G01*
X99109531Y-42990000D02*
X97010469Y-42990000D01*
G75*
G02*
X96685000Y-42664531I0J325469D01*
G01*
X96685000Y-41590469D01*
G75*
G02*
X97010469Y-41265000I325469J0D01*
G01*
X99109531Y-41265000D01*
G75*
G02*
X99435000Y-41590469I0J-325469D01*
G01*
X99435000Y-42664531D01*
G75*
G02*
X99109531Y-42990000I-325469J0D01*
G01*
G37*
G36*
G01*
X99109531Y-46065000D02*
X97010469Y-46065000D01*
G75*
G02*
X96685000Y-45739531I0J325469D01*
G01*
X96685000Y-44665469D01*
G75*
G02*
X97010469Y-44340000I325469J0D01*
G01*
X99109531Y-44340000D01*
G75*
G02*
X99435000Y-44665469I0J-325469D01*
G01*
X99435000Y-45739531D01*
G75*
G02*
X99109531Y-46065000I-325469J0D01*
G01*
G37*
G36*
G01*
X93595000Y-108225000D02*
X91205000Y-108225000D01*
G75*
G02*
X90875000Y-107895000I0J330000D01*
G01*
X90875000Y-106905000D01*
G75*
G02*
X91205000Y-106575000I330000J0D01*
G01*
X93595000Y-106575000D01*
G75*
G02*
X93925000Y-106905000I0J-330000D01*
G01*
X93925000Y-107895000D01*
G75*
G02*
X93595000Y-108225000I-330000J0D01*
G01*
G37*
G36*
G01*
X93595000Y-111025000D02*
X91205000Y-111025000D01*
G75*
G02*
X90875000Y-110695000I0J330000D01*
G01*
X90875000Y-109705000D01*
G75*
G02*
X91205000Y-109375000I330000J0D01*
G01*
X93595000Y-109375000D01*
G75*
G02*
X93925000Y-109705000I0J-330000D01*
G01*
X93925000Y-110695000D01*
G75*
G02*
X93595000Y-111025000I-330000J0D01*
G01*
G37*
G36*
G01*
X89643750Y-104050000D02*
X90756250Y-104050000D01*
G75*
G02*
X91100000Y-104393750I0J-343750D01*
G01*
X91100000Y-105081250D01*
G75*
G02*
X90756250Y-105425000I-343750J0D01*
G01*
X89643750Y-105425000D01*
G75*
G02*
X89300000Y-105081250I0J343750D01*
G01*
X89300000Y-104393750D01*
G75*
G02*
X89643750Y-104050000I343750J0D01*
G01*
G37*
G36*
G01*
X89643750Y-102175000D02*
X90756250Y-102175000D01*
G75*
G02*
X91100000Y-102518750I0J-343750D01*
G01*
X91100000Y-103206250D01*
G75*
G02*
X90756250Y-103550000I-343750J0D01*
G01*
X89643750Y-103550000D01*
G75*
G02*
X89300000Y-103206250I0J343750D01*
G01*
X89300000Y-102518750D01*
G75*
G02*
X89643750Y-102175000I343750J0D01*
G01*
G37*
G36*
G01*
X93974500Y-103722500D02*
X93974500Y-100877500D01*
G75*
G02*
X94174500Y-100677500I200000J0D01*
G01*
X95825500Y-100677500D01*
G75*
G02*
X96025500Y-100877500I0J-200000D01*
G01*
X96025500Y-103722500D01*
G75*
G02*
X95825500Y-103922500I-200000J0D01*
G01*
X94174500Y-103922500D01*
G75*
G02*
X93974500Y-103722500I0J200000D01*
G01*
G37*
G36*
G01*
X96225000Y-100725000D02*
X96225000Y-100375000D01*
G75*
G02*
X96400000Y-100200000I175000J0D01*
G01*
X97900000Y-100200000D01*
G75*
G02*
X98075000Y-100375000I0J-175000D01*
G01*
X98075000Y-100725000D01*
G75*
G02*
X97900000Y-100900000I-175000J0D01*
G01*
X96400000Y-100900000D01*
G75*
G02*
X96225000Y-100725000I0J175000D01*
G01*
G37*
G36*
G01*
X96225000Y-101225000D02*
X96225000Y-100875000D01*
G75*
G02*
X96400000Y-100700000I175000J0D01*
G01*
X97900000Y-100700000D01*
G75*
G02*
X98075000Y-100875000I0J-175000D01*
G01*
X98075000Y-101225000D01*
G75*
G02*
X97900000Y-101400000I-175000J0D01*
G01*
X96400000Y-101400000D01*
G75*
G02*
X96225000Y-101225000I0J175000D01*
G01*
G37*
G36*
G01*
X96225000Y-101725000D02*
X96225000Y-101375000D01*
G75*
G02*
X96400000Y-101200000I175000J0D01*
G01*
X97900000Y-101200000D01*
G75*
G02*
X98075000Y-101375000I0J-175000D01*
G01*
X98075000Y-101725000D01*
G75*
G02*
X97900000Y-101900000I-175000J0D01*
G01*
X96400000Y-101900000D01*
G75*
G02*
X96225000Y-101725000I0J175000D01*
G01*
G37*
G36*
G01*
X96225000Y-102225000D02*
X96225000Y-101875000D01*
G75*
G02*
X96400000Y-101700000I175000J0D01*
G01*
X97900000Y-101700000D01*
G75*
G02*
X98075000Y-101875000I0J-175000D01*
G01*
X98075000Y-102225000D01*
G75*
G02*
X97900000Y-102400000I-175000J0D01*
G01*
X96400000Y-102400000D01*
G75*
G02*
X96225000Y-102225000I0J175000D01*
G01*
G37*
G36*
G01*
X96225000Y-102725000D02*
X96225000Y-102375000D01*
G75*
G02*
X96400000Y-102200000I175000J0D01*
G01*
X97900000Y-102200000D01*
G75*
G02*
X98075000Y-102375000I0J-175000D01*
G01*
X98075000Y-102725000D01*
G75*
G02*
X97900000Y-102900000I-175000J0D01*
G01*
X96400000Y-102900000D01*
G75*
G02*
X96225000Y-102725000I0J175000D01*
G01*
G37*
G36*
G01*
X96225000Y-103225000D02*
X96225000Y-102875000D01*
G75*
G02*
X96400000Y-102700000I175000J0D01*
G01*
X97900000Y-102700000D01*
G75*
G02*
X98075000Y-102875000I0J-175000D01*
G01*
X98075000Y-103225000D01*
G75*
G02*
X97900000Y-103400000I-175000J0D01*
G01*
X96400000Y-103400000D01*
G75*
G02*
X96225000Y-103225000I0J175000D01*
G01*
G37*
G36*
G01*
X96225000Y-103725000D02*
X96225000Y-103375000D01*
G75*
G02*
X96400000Y-103200000I175000J0D01*
G01*
X97900000Y-103200000D01*
G75*
G02*
X98075000Y-103375000I0J-175000D01*
G01*
X98075000Y-103725000D01*
G75*
G02*
X97900000Y-103900000I-175000J0D01*
G01*
X96400000Y-103900000D01*
G75*
G02*
X96225000Y-103725000I0J175000D01*
G01*
G37*
G36*
G01*
X96225000Y-104225000D02*
X96225000Y-103875000D01*
G75*
G02*
X96400000Y-103700000I175000J0D01*
G01*
X97900000Y-103700000D01*
G75*
G02*
X98075000Y-103875000I0J-175000D01*
G01*
X98075000Y-104225000D01*
G75*
G02*
X97900000Y-104400000I-175000J0D01*
G01*
X96400000Y-104400000D01*
G75*
G02*
X96225000Y-104225000I0J175000D01*
G01*
G37*
G36*
G01*
X91925000Y-104225000D02*
X91925000Y-103875000D01*
G75*
G02*
X92100000Y-103700000I175000J0D01*
G01*
X93600000Y-103700000D01*
G75*
G02*
X93775000Y-103875000I0J-175000D01*
G01*
X93775000Y-104225000D01*
G75*
G02*
X93600000Y-104400000I-175000J0D01*
G01*
X92100000Y-104400000D01*
G75*
G02*
X91925000Y-104225000I0J175000D01*
G01*
G37*
G36*
G01*
X91925000Y-103725000D02*
X91925000Y-103375000D01*
G75*
G02*
X92100000Y-103200000I175000J0D01*
G01*
X93600000Y-103200000D01*
G75*
G02*
X93775000Y-103375000I0J-175000D01*
G01*
X93775000Y-103725000D01*
G75*
G02*
X93600000Y-103900000I-175000J0D01*
G01*
X92100000Y-103900000D01*
G75*
G02*
X91925000Y-103725000I0J175000D01*
G01*
G37*
G36*
G01*
X91925000Y-103225000D02*
X91925000Y-102875000D01*
G75*
G02*
X92100000Y-102700000I175000J0D01*
G01*
X93600000Y-102700000D01*
G75*
G02*
X93775000Y-102875000I0J-175000D01*
G01*
X93775000Y-103225000D01*
G75*
G02*
X93600000Y-103400000I-175000J0D01*
G01*
X92100000Y-103400000D01*
G75*
G02*
X91925000Y-103225000I0J175000D01*
G01*
G37*
G36*
G01*
X91925000Y-102725000D02*
X91925000Y-102375000D01*
G75*
G02*
X92100000Y-102200000I175000J0D01*
G01*
X93600000Y-102200000D01*
G75*
G02*
X93775000Y-102375000I0J-175000D01*
G01*
X93775000Y-102725000D01*
G75*
G02*
X93600000Y-102900000I-175000J0D01*
G01*
X92100000Y-102900000D01*
G75*
G02*
X91925000Y-102725000I0J175000D01*
G01*
G37*
G36*
G01*
X91925000Y-102225000D02*
X91925000Y-101875000D01*
G75*
G02*
X92100000Y-101700000I175000J0D01*
G01*
X93600000Y-101700000D01*
G75*
G02*
X93775000Y-101875000I0J-175000D01*
G01*
X93775000Y-102225000D01*
G75*
G02*
X93600000Y-102400000I-175000J0D01*
G01*
X92100000Y-102400000D01*
G75*
G02*
X91925000Y-102225000I0J175000D01*
G01*
G37*
G36*
G01*
X91925000Y-101725000D02*
X91925000Y-101375000D01*
G75*
G02*
X92100000Y-101200000I175000J0D01*
G01*
X93600000Y-101200000D01*
G75*
G02*
X93775000Y-101375000I0J-175000D01*
G01*
X93775000Y-101725000D01*
G75*
G02*
X93600000Y-101900000I-175000J0D01*
G01*
X92100000Y-101900000D01*
G75*
G02*
X91925000Y-101725000I0J175000D01*
G01*
G37*
G36*
G01*
X91925000Y-101225000D02*
X91925000Y-100875000D01*
G75*
G02*
X92100000Y-100700000I175000J0D01*
G01*
X93600000Y-100700000D01*
G75*
G02*
X93775000Y-100875000I0J-175000D01*
G01*
X93775000Y-101225000D01*
G75*
G02*
X93600000Y-101400000I-175000J0D01*
G01*
X92100000Y-101400000D01*
G75*
G02*
X91925000Y-101225000I0J175000D01*
G01*
G37*
G36*
G01*
X91925000Y-100725000D02*
X91925000Y-100375000D01*
G75*
G02*
X92100000Y-100200000I175000J0D01*
G01*
X93600000Y-100200000D01*
G75*
G02*
X93775000Y-100375000I0J-175000D01*
G01*
X93775000Y-100725000D01*
G75*
G02*
X93600000Y-100900000I-175000J0D01*
G01*
X92100000Y-100900000D01*
G75*
G02*
X91925000Y-100725000I0J175000D01*
G01*
G37*
G36*
G01*
X172800000Y-48555000D02*
X172800000Y-49055000D01*
G75*
G02*
X172550000Y-49305000I-250000J0D01*
G01*
X170700000Y-49305000D01*
G75*
G02*
X170450000Y-49055000I0J250000D01*
G01*
X170450000Y-48555000D01*
G75*
G02*
X170700000Y-48305000I250000J0D01*
G01*
X172550000Y-48305000D01*
G75*
G02*
X172800000Y-48555000I0J-250000D01*
G01*
G37*
G36*
G01*
X172800000Y-47285000D02*
X172800000Y-47785000D01*
G75*
G02*
X172550000Y-48035000I-250000J0D01*
G01*
X170700000Y-48035000D01*
G75*
G02*
X170450000Y-47785000I0J250000D01*
G01*
X170450000Y-47285000D01*
G75*
G02*
X170700000Y-47035000I250000J0D01*
G01*
X172550000Y-47035000D01*
G75*
G02*
X172800000Y-47285000I0J-250000D01*
G01*
G37*
G36*
G01*
X172800000Y-46015000D02*
X172800000Y-46515000D01*
G75*
G02*
X172550000Y-46765000I-250000J0D01*
G01*
X170700000Y-46765000D01*
G75*
G02*
X170450000Y-46515000I0J250000D01*
G01*
X170450000Y-46015000D01*
G75*
G02*
X170700000Y-45765000I250000J0D01*
G01*
X172550000Y-45765000D01*
G75*
G02*
X172800000Y-46015000I0J-250000D01*
G01*
G37*
G36*
G01*
X172800000Y-44745000D02*
X172800000Y-45245000D01*
G75*
G02*
X172550000Y-45495000I-250000J0D01*
G01*
X170700000Y-45495000D01*
G75*
G02*
X170450000Y-45245000I0J250000D01*
G01*
X170450000Y-44745000D01*
G75*
G02*
X170700000Y-44495000I250000J0D01*
G01*
X172550000Y-44495000D01*
G75*
G02*
X172800000Y-44745000I0J-250000D01*
G01*
G37*
G36*
G01*
X177750000Y-44745000D02*
X177750000Y-45245000D01*
G75*
G02*
X177500000Y-45495000I-250000J0D01*
G01*
X175650000Y-45495000D01*
G75*
G02*
X175400000Y-45245000I0J250000D01*
G01*
X175400000Y-44745000D01*
G75*
G02*
X175650000Y-44495000I250000J0D01*
G01*
X177500000Y-44495000D01*
G75*
G02*
X177750000Y-44745000I0J-250000D01*
G01*
G37*
G36*
G01*
X177750000Y-46015000D02*
X177750000Y-46515000D01*
G75*
G02*
X177500000Y-46765000I-250000J0D01*
G01*
X175650000Y-46765000D01*
G75*
G02*
X175400000Y-46515000I0J250000D01*
G01*
X175400000Y-46015000D01*
G75*
G02*
X175650000Y-45765000I250000J0D01*
G01*
X177500000Y-45765000D01*
G75*
G02*
X177750000Y-46015000I0J-250000D01*
G01*
G37*
G36*
G01*
X177750000Y-47285000D02*
X177750000Y-47785000D01*
G75*
G02*
X177500000Y-48035000I-250000J0D01*
G01*
X175650000Y-48035000D01*
G75*
G02*
X175400000Y-47785000I0J250000D01*
G01*
X175400000Y-47285000D01*
G75*
G02*
X175650000Y-47035000I250000J0D01*
G01*
X177500000Y-47035000D01*
G75*
G02*
X177750000Y-47285000I0J-250000D01*
G01*
G37*
G36*
G01*
X177750000Y-48555000D02*
X177750000Y-49055000D01*
G75*
G02*
X177500000Y-49305000I-250000J0D01*
G01*
X175650000Y-49305000D01*
G75*
G02*
X175400000Y-49055000I0J250000D01*
G01*
X175400000Y-48555000D01*
G75*
G02*
X175650000Y-48305000I250000J0D01*
G01*
X177500000Y-48305000D01*
G75*
G02*
X177750000Y-48555000I0J-250000D01*
G01*
G37*
G36*
G01*
X130155000Y-52800000D02*
X130655000Y-52800000D01*
G75*
G02*
X130905000Y-53050000I0J-250000D01*
G01*
X130905000Y-54900000D01*
G75*
G02*
X130655000Y-55150000I-250000J0D01*
G01*
X130155000Y-55150000D01*
G75*
G02*
X129905000Y-54900000I0J250000D01*
G01*
X129905000Y-53050000D01*
G75*
G02*
X130155000Y-52800000I250000J0D01*
G01*
G37*
G36*
G01*
X128885000Y-52800000D02*
X129385000Y-52800000D01*
G75*
G02*
X129635000Y-53050000I0J-250000D01*
G01*
X129635000Y-54900000D01*
G75*
G02*
X129385000Y-55150000I-250000J0D01*
G01*
X128885000Y-55150000D01*
G75*
G02*
X128635000Y-54900000I0J250000D01*
G01*
X128635000Y-53050000D01*
G75*
G02*
X128885000Y-52800000I250000J0D01*
G01*
G37*
G36*
G01*
X127615000Y-52800000D02*
X128115000Y-52800000D01*
G75*
G02*
X128365000Y-53050000I0J-250000D01*
G01*
X128365000Y-54900000D01*
G75*
G02*
X128115000Y-55150000I-250000J0D01*
G01*
X127615000Y-55150000D01*
G75*
G02*
X127365000Y-54900000I0J250000D01*
G01*
X127365000Y-53050000D01*
G75*
G02*
X127615000Y-52800000I250000J0D01*
G01*
G37*
G36*
G01*
X126345000Y-52800000D02*
X126845000Y-52800000D01*
G75*
G02*
X127095000Y-53050000I0J-250000D01*
G01*
X127095000Y-54900000D01*
G75*
G02*
X126845000Y-55150000I-250000J0D01*
G01*
X126345000Y-55150000D01*
G75*
G02*
X126095000Y-54900000I0J250000D01*
G01*
X126095000Y-53050000D01*
G75*
G02*
X126345000Y-52800000I250000J0D01*
G01*
G37*
G36*
G01*
X126345000Y-47850000D02*
X126845000Y-47850000D01*
G75*
G02*
X127095000Y-48100000I0J-250000D01*
G01*
X127095000Y-49950000D01*
G75*
G02*
X126845000Y-50200000I-250000J0D01*
G01*
X126345000Y-50200000D01*
G75*
G02*
X126095000Y-49950000I0J250000D01*
G01*
X126095000Y-48100000D01*
G75*
G02*
X126345000Y-47850000I250000J0D01*
G01*
G37*
G36*
G01*
X127615000Y-47850000D02*
X128115000Y-47850000D01*
G75*
G02*
X128365000Y-48100000I0J-250000D01*
G01*
X128365000Y-49950000D01*
G75*
G02*
X128115000Y-50200000I-250000J0D01*
G01*
X127615000Y-50200000D01*
G75*
G02*
X127365000Y-49950000I0J250000D01*
G01*
X127365000Y-48100000D01*
G75*
G02*
X127615000Y-47850000I250000J0D01*
G01*
G37*
G36*
G01*
X128885000Y-47850000D02*
X129385000Y-47850000D01*
G75*
G02*
X129635000Y-48100000I0J-250000D01*
G01*
X129635000Y-49950000D01*
G75*
G02*
X129385000Y-50200000I-250000J0D01*
G01*
X128885000Y-50200000D01*
G75*
G02*
X128635000Y-49950000I0J250000D01*
G01*
X128635000Y-48100000D01*
G75*
G02*
X128885000Y-47850000I250000J0D01*
G01*
G37*
G36*
G01*
X130155000Y-47850000D02*
X130655000Y-47850000D01*
G75*
G02*
X130905000Y-48100000I0J-250000D01*
G01*
X130905000Y-49950000D01*
G75*
G02*
X130655000Y-50200000I-250000J0D01*
G01*
X130155000Y-50200000D01*
G75*
G02*
X129905000Y-49950000I0J250000D01*
G01*
X129905000Y-48100000D01*
G75*
G02*
X130155000Y-47850000I250000J0D01*
G01*
G37*
G36*
G01*
X111555000Y-52700000D02*
X112055000Y-52700000D01*
G75*
G02*
X112305000Y-52950000I0J-250000D01*
G01*
X112305000Y-54800000D01*
G75*
G02*
X112055000Y-55050000I-250000J0D01*
G01*
X111555000Y-55050000D01*
G75*
G02*
X111305000Y-54800000I0J250000D01*
G01*
X111305000Y-52950000D01*
G75*
G02*
X111555000Y-52700000I250000J0D01*
G01*
G37*
G36*
G01*
X110285000Y-52700000D02*
X110785000Y-52700000D01*
G75*
G02*
X111035000Y-52950000I0J-250000D01*
G01*
X111035000Y-54800000D01*
G75*
G02*
X110785000Y-55050000I-250000J0D01*
G01*
X110285000Y-55050000D01*
G75*
G02*
X110035000Y-54800000I0J250000D01*
G01*
X110035000Y-52950000D01*
G75*
G02*
X110285000Y-52700000I250000J0D01*
G01*
G37*
G36*
G01*
X109015000Y-52700000D02*
X109515000Y-52700000D01*
G75*
G02*
X109765000Y-52950000I0J-250000D01*
G01*
X109765000Y-54800000D01*
G75*
G02*
X109515000Y-55050000I-250000J0D01*
G01*
X109015000Y-55050000D01*
G75*
G02*
X108765000Y-54800000I0J250000D01*
G01*
X108765000Y-52950000D01*
G75*
G02*
X109015000Y-52700000I250000J0D01*
G01*
G37*
G36*
G01*
X107745000Y-52700000D02*
X108245000Y-52700000D01*
G75*
G02*
X108495000Y-52950000I0J-250000D01*
G01*
X108495000Y-54800000D01*
G75*
G02*
X108245000Y-55050000I-250000J0D01*
G01*
X107745000Y-55050000D01*
G75*
G02*
X107495000Y-54800000I0J250000D01*
G01*
X107495000Y-52950000D01*
G75*
G02*
X107745000Y-52700000I250000J0D01*
G01*
G37*
G36*
G01*
X107745000Y-47750000D02*
X108245000Y-47750000D01*
G75*
G02*
X108495000Y-48000000I0J-250000D01*
G01*
X108495000Y-49850000D01*
G75*
G02*
X108245000Y-50100000I-250000J0D01*
G01*
X107745000Y-50100000D01*
G75*
G02*
X107495000Y-49850000I0J250000D01*
G01*
X107495000Y-48000000D01*
G75*
G02*
X107745000Y-47750000I250000J0D01*
G01*
G37*
G36*
G01*
X109015000Y-47750000D02*
X109515000Y-47750000D01*
G75*
G02*
X109765000Y-48000000I0J-250000D01*
G01*
X109765000Y-49850000D01*
G75*
G02*
X109515000Y-50100000I-250000J0D01*
G01*
X109015000Y-50100000D01*
G75*
G02*
X108765000Y-49850000I0J250000D01*
G01*
X108765000Y-48000000D01*
G75*
G02*
X109015000Y-47750000I250000J0D01*
G01*
G37*
G36*
G01*
X110285000Y-47750000D02*
X110785000Y-47750000D01*
G75*
G02*
X111035000Y-48000000I0J-250000D01*
G01*
X111035000Y-49850000D01*
G75*
G02*
X110785000Y-50100000I-250000J0D01*
G01*
X110285000Y-50100000D01*
G75*
G02*
X110035000Y-49850000I0J250000D01*
G01*
X110035000Y-48000000D01*
G75*
G02*
X110285000Y-47750000I250000J0D01*
G01*
G37*
G36*
G01*
X111555000Y-47750000D02*
X112055000Y-47750000D01*
G75*
G02*
X112305000Y-48000000I0J-250000D01*
G01*
X112305000Y-49850000D01*
G75*
G02*
X112055000Y-50100000I-250000J0D01*
G01*
X111555000Y-50100000D01*
G75*
G02*
X111305000Y-49850000I0J250000D01*
G01*
X111305000Y-48000000D01*
G75*
G02*
X111555000Y-47750000I250000J0D01*
G01*
G37*
G36*
G01*
X97340000Y-50100000D02*
X96840000Y-50100000D01*
G75*
G02*
X96590000Y-49850000I0J250000D01*
G01*
X96590000Y-48000000D01*
G75*
G02*
X96840000Y-47750000I250000J0D01*
G01*
X97340000Y-47750000D01*
G75*
G02*
X97590000Y-48000000I0J-250000D01*
G01*
X97590000Y-49850000D01*
G75*
G02*
X97340000Y-50100000I-250000J0D01*
G01*
G37*
G36*
G01*
X98610000Y-50100000D02*
X98110000Y-50100000D01*
G75*
G02*
X97860000Y-49850000I0J250000D01*
G01*
X97860000Y-48000000D01*
G75*
G02*
X98110000Y-47750000I250000J0D01*
G01*
X98610000Y-47750000D01*
G75*
G02*
X98860000Y-48000000I0J-250000D01*
G01*
X98860000Y-49850000D01*
G75*
G02*
X98610000Y-50100000I-250000J0D01*
G01*
G37*
G36*
G01*
X99880000Y-50100000D02*
X99380000Y-50100000D01*
G75*
G02*
X99130000Y-49850000I0J250000D01*
G01*
X99130000Y-48000000D01*
G75*
G02*
X99380000Y-47750000I250000J0D01*
G01*
X99880000Y-47750000D01*
G75*
G02*
X100130000Y-48000000I0J-250000D01*
G01*
X100130000Y-49850000D01*
G75*
G02*
X99880000Y-50100000I-250000J0D01*
G01*
G37*
G36*
G01*
X101150000Y-50100000D02*
X100650000Y-50100000D01*
G75*
G02*
X100400000Y-49850000I0J250000D01*
G01*
X100400000Y-48000000D01*
G75*
G02*
X100650000Y-47750000I250000J0D01*
G01*
X101150000Y-47750000D01*
G75*
G02*
X101400000Y-48000000I0J-250000D01*
G01*
X101400000Y-49850000D01*
G75*
G02*
X101150000Y-50100000I-250000J0D01*
G01*
G37*
G36*
G01*
X102420000Y-50100000D02*
X101920000Y-50100000D01*
G75*
G02*
X101670000Y-49850000I0J250000D01*
G01*
X101670000Y-48000000D01*
G75*
G02*
X101920000Y-47750000I250000J0D01*
G01*
X102420000Y-47750000D01*
G75*
G02*
X102670000Y-48000000I0J-250000D01*
G01*
X102670000Y-49850000D01*
G75*
G02*
X102420000Y-50100000I-250000J0D01*
G01*
G37*
G36*
G01*
X103690000Y-50100000D02*
X103190000Y-50100000D01*
G75*
G02*
X102940000Y-49850000I0J250000D01*
G01*
X102940000Y-48000000D01*
G75*
G02*
X103190000Y-47750000I250000J0D01*
G01*
X103690000Y-47750000D01*
G75*
G02*
X103940000Y-48000000I0J-250000D01*
G01*
X103940000Y-49850000D01*
G75*
G02*
X103690000Y-50100000I-250000J0D01*
G01*
G37*
G36*
G01*
X104960000Y-50100000D02*
X104460000Y-50100000D01*
G75*
G02*
X104210000Y-49850000I0J250000D01*
G01*
X104210000Y-48000000D01*
G75*
G02*
X104460000Y-47750000I250000J0D01*
G01*
X104960000Y-47750000D01*
G75*
G02*
X105210000Y-48000000I0J-250000D01*
G01*
X105210000Y-49850000D01*
G75*
G02*
X104960000Y-50100000I-250000J0D01*
G01*
G37*
G36*
G01*
X104960000Y-55050000D02*
X104460000Y-55050000D01*
G75*
G02*
X104210000Y-54800000I0J250000D01*
G01*
X104210000Y-52950000D01*
G75*
G02*
X104460000Y-52700000I250000J0D01*
G01*
X104960000Y-52700000D01*
G75*
G02*
X105210000Y-52950000I0J-250000D01*
G01*
X105210000Y-54800000D01*
G75*
G02*
X104960000Y-55050000I-250000J0D01*
G01*
G37*
G36*
G01*
X103690000Y-55050000D02*
X103190000Y-55050000D01*
G75*
G02*
X102940000Y-54800000I0J250000D01*
G01*
X102940000Y-52950000D01*
G75*
G02*
X103190000Y-52700000I250000J0D01*
G01*
X103690000Y-52700000D01*
G75*
G02*
X103940000Y-52950000I0J-250000D01*
G01*
X103940000Y-54800000D01*
G75*
G02*
X103690000Y-55050000I-250000J0D01*
G01*
G37*
G36*
G01*
X102420000Y-55050000D02*
X101920000Y-55050000D01*
G75*
G02*
X101670000Y-54800000I0J250000D01*
G01*
X101670000Y-52950000D01*
G75*
G02*
X101920000Y-52700000I250000J0D01*
G01*
X102420000Y-52700000D01*
G75*
G02*
X102670000Y-52950000I0J-250000D01*
G01*
X102670000Y-54800000D01*
G75*
G02*
X102420000Y-55050000I-250000J0D01*
G01*
G37*
G36*
G01*
X101150000Y-55050000D02*
X100650000Y-55050000D01*
G75*
G02*
X100400000Y-54800000I0J250000D01*
G01*
X100400000Y-52950000D01*
G75*
G02*
X100650000Y-52700000I250000J0D01*
G01*
X101150000Y-52700000D01*
G75*
G02*
X101400000Y-52950000I0J-250000D01*
G01*
X101400000Y-54800000D01*
G75*
G02*
X101150000Y-55050000I-250000J0D01*
G01*
G37*
G36*
G01*
X99880000Y-55050000D02*
X99380000Y-55050000D01*
G75*
G02*
X99130000Y-54800000I0J250000D01*
G01*
X99130000Y-52950000D01*
G75*
G02*
X99380000Y-52700000I250000J0D01*
G01*
X99880000Y-52700000D01*
G75*
G02*
X100130000Y-52950000I0J-250000D01*
G01*
X100130000Y-54800000D01*
G75*
G02*
X99880000Y-55050000I-250000J0D01*
G01*
G37*
G36*
G01*
X98610000Y-55050000D02*
X98110000Y-55050000D01*
G75*
G02*
X97860000Y-54800000I0J250000D01*
G01*
X97860000Y-52950000D01*
G75*
G02*
X98110000Y-52700000I250000J0D01*
G01*
X98610000Y-52700000D01*
G75*
G02*
X98860000Y-52950000I0J-250000D01*
G01*
X98860000Y-54800000D01*
G75*
G02*
X98610000Y-55050000I-250000J0D01*
G01*
G37*
G36*
G01*
X97340000Y-55050000D02*
X96840000Y-55050000D01*
G75*
G02*
X96590000Y-54800000I0J250000D01*
G01*
X96590000Y-52950000D01*
G75*
G02*
X96840000Y-52700000I250000J0D01*
G01*
X97340000Y-52700000D01*
G75*
G02*
X97590000Y-52950000I0J-250000D01*
G01*
X97590000Y-54800000D01*
G75*
G02*
X97340000Y-55050000I-250000J0D01*
G01*
G37*
G36*
G01*
X67745000Y-59900000D02*
X67245000Y-59900000D01*
G75*
G02*
X66995000Y-59650000I0J250000D01*
G01*
X66995000Y-57800000D01*
G75*
G02*
X67245000Y-57550000I250000J0D01*
G01*
X67745000Y-57550000D01*
G75*
G02*
X67995000Y-57800000I0J-250000D01*
G01*
X67995000Y-59650000D01*
G75*
G02*
X67745000Y-59900000I-250000J0D01*
G01*
G37*
G36*
G01*
X69015000Y-59900000D02*
X68515000Y-59900000D01*
G75*
G02*
X68265000Y-59650000I0J250000D01*
G01*
X68265000Y-57800000D01*
G75*
G02*
X68515000Y-57550000I250000J0D01*
G01*
X69015000Y-57550000D01*
G75*
G02*
X69265000Y-57800000I0J-250000D01*
G01*
X69265000Y-59650000D01*
G75*
G02*
X69015000Y-59900000I-250000J0D01*
G01*
G37*
G36*
G01*
X70285000Y-59900000D02*
X69785000Y-59900000D01*
G75*
G02*
X69535000Y-59650000I0J250000D01*
G01*
X69535000Y-57800000D01*
G75*
G02*
X69785000Y-57550000I250000J0D01*
G01*
X70285000Y-57550000D01*
G75*
G02*
X70535000Y-57800000I0J-250000D01*
G01*
X70535000Y-59650000D01*
G75*
G02*
X70285000Y-59900000I-250000J0D01*
G01*
G37*
G36*
G01*
X71555000Y-59900000D02*
X71055000Y-59900000D01*
G75*
G02*
X70805000Y-59650000I0J250000D01*
G01*
X70805000Y-57800000D01*
G75*
G02*
X71055000Y-57550000I250000J0D01*
G01*
X71555000Y-57550000D01*
G75*
G02*
X71805000Y-57800000I0J-250000D01*
G01*
X71805000Y-59650000D01*
G75*
G02*
X71555000Y-59900000I-250000J0D01*
G01*
G37*
G36*
G01*
X71555000Y-64850000D02*
X71055000Y-64850000D01*
G75*
G02*
X70805000Y-64600000I0J250000D01*
G01*
X70805000Y-62750000D01*
G75*
G02*
X71055000Y-62500000I250000J0D01*
G01*
X71555000Y-62500000D01*
G75*
G02*
X71805000Y-62750000I0J-250000D01*
G01*
X71805000Y-64600000D01*
G75*
G02*
X71555000Y-64850000I-250000J0D01*
G01*
G37*
G36*
G01*
X70285000Y-64850000D02*
X69785000Y-64850000D01*
G75*
G02*
X69535000Y-64600000I0J250000D01*
G01*
X69535000Y-62750000D01*
G75*
G02*
X69785000Y-62500000I250000J0D01*
G01*
X70285000Y-62500000D01*
G75*
G02*
X70535000Y-62750000I0J-250000D01*
G01*
X70535000Y-64600000D01*
G75*
G02*
X70285000Y-64850000I-250000J0D01*
G01*
G37*
G36*
G01*
X69015000Y-64850000D02*
X68515000Y-64850000D01*
G75*
G02*
X68265000Y-64600000I0J250000D01*
G01*
X68265000Y-62750000D01*
G75*
G02*
X68515000Y-62500000I250000J0D01*
G01*
X69015000Y-62500000D01*
G75*
G02*
X69265000Y-62750000I0J-250000D01*
G01*
X69265000Y-64600000D01*
G75*
G02*
X69015000Y-64850000I-250000J0D01*
G01*
G37*
G36*
G01*
X67745000Y-64850000D02*
X67245000Y-64850000D01*
G75*
G02*
X66995000Y-64600000I0J250000D01*
G01*
X66995000Y-62750000D01*
G75*
G02*
X67245000Y-62500000I250000J0D01*
G01*
X67745000Y-62500000D01*
G75*
G02*
X67995000Y-62750000I0J-250000D01*
G01*
X67995000Y-64600000D01*
G75*
G02*
X67745000Y-64850000I-250000J0D01*
G01*
G37*
G36*
G01*
X128450000Y-56293750D02*
X128450000Y-57006250D01*
G75*
G02*
X128131250Y-57325000I-318750J0D01*
G01*
X127493750Y-57325000D01*
G75*
G02*
X127175000Y-57006250I0J318750D01*
G01*
X127175000Y-56293750D01*
G75*
G02*
X127493750Y-55975000I318750J0D01*
G01*
X128131250Y-55975000D01*
G75*
G02*
X128450000Y-56293750I0J-318750D01*
G01*
G37*
G36*
G01*
X130025000Y-56293750D02*
X130025000Y-57006250D01*
G75*
G02*
X129706250Y-57325000I-318750J0D01*
G01*
X129068750Y-57325000D01*
G75*
G02*
X128750000Y-57006250I0J318750D01*
G01*
X128750000Y-56293750D01*
G75*
G02*
X129068750Y-55975000I318750J0D01*
G01*
X129706250Y-55975000D01*
G75*
G02*
X130025000Y-56293750I0J-318750D01*
G01*
G37*
G36*
G01*
X124706250Y-53500000D02*
X123993750Y-53500000D01*
G75*
G02*
X123675000Y-53181250I0J318750D01*
G01*
X123675000Y-52543750D01*
G75*
G02*
X123993750Y-52225000I318750J0D01*
G01*
X124706250Y-52225000D01*
G75*
G02*
X125025000Y-52543750I0J-318750D01*
G01*
X125025000Y-53181250D01*
G75*
G02*
X124706250Y-53500000I-318750J0D01*
G01*
G37*
G36*
G01*
X124706250Y-55075000D02*
X123993750Y-55075000D01*
G75*
G02*
X123675000Y-54756250I0J318750D01*
G01*
X123675000Y-54118750D01*
G75*
G02*
X123993750Y-53800000I318750J0D01*
G01*
X124706250Y-53800000D01*
G75*
G02*
X125025000Y-54118750I0J-318750D01*
G01*
X125025000Y-54756250D01*
G75*
G02*
X124706250Y-55075000I-318750J0D01*
G01*
G37*
G36*
G01*
X123993750Y-57300000D02*
X124706250Y-57300000D01*
G75*
G02*
X125025000Y-57618750I0J-318750D01*
G01*
X125025000Y-58256250D01*
G75*
G02*
X124706250Y-58575000I-318750J0D01*
G01*
X123993750Y-58575000D01*
G75*
G02*
X123675000Y-58256250I0J318750D01*
G01*
X123675000Y-57618750D01*
G75*
G02*
X123993750Y-57300000I318750J0D01*
G01*
G37*
G36*
G01*
X123993750Y-55725000D02*
X124706250Y-55725000D01*
G75*
G02*
X125025000Y-56043750I0J-318750D01*
G01*
X125025000Y-56681250D01*
G75*
G02*
X124706250Y-57000000I-318750J0D01*
G01*
X123993750Y-57000000D01*
G75*
G02*
X123675000Y-56681250I0J318750D01*
G01*
X123675000Y-56043750D01*
G75*
G02*
X123993750Y-55725000I318750J0D01*
G01*
G37*
G36*
G01*
X126456250Y-57000000D02*
X125743750Y-57000000D01*
G75*
G02*
X125425000Y-56681250I0J318750D01*
G01*
X125425000Y-56043750D01*
G75*
G02*
X125743750Y-55725000I318750J0D01*
G01*
X126456250Y-55725000D01*
G75*
G02*
X126775000Y-56043750I0J-318750D01*
G01*
X126775000Y-56681250D01*
G75*
G02*
X126456250Y-57000000I-318750J0D01*
G01*
G37*
G36*
G01*
X126456250Y-58575000D02*
X125743750Y-58575000D01*
G75*
G02*
X125425000Y-58256250I0J318750D01*
G01*
X125425000Y-57618750D01*
G75*
G02*
X125743750Y-57300000I318750J0D01*
G01*
X126456250Y-57300000D01*
G75*
G02*
X126775000Y-57618750I0J-318750D01*
G01*
X126775000Y-58256250D01*
G75*
G02*
X126456250Y-58575000I-318750J0D01*
G01*
G37*
G36*
G01*
X174050000Y-42243750D02*
X174050000Y-42956250D01*
G75*
G02*
X173731250Y-43275000I-318750J0D01*
G01*
X173093750Y-43275000D01*
G75*
G02*
X172775000Y-42956250I0J318750D01*
G01*
X172775000Y-42243750D01*
G75*
G02*
X173093750Y-41925000I318750J0D01*
G01*
X173731250Y-41925000D01*
G75*
G02*
X174050000Y-42243750I0J-318750D01*
G01*
G37*
G36*
G01*
X175625000Y-42243750D02*
X175625000Y-42956250D01*
G75*
G02*
X175306250Y-43275000I-318750J0D01*
G01*
X174668750Y-43275000D01*
G75*
G02*
X174350000Y-42956250I0J318750D01*
G01*
X174350000Y-42243750D01*
G75*
G02*
X174668750Y-41925000I318750J0D01*
G01*
X175306250Y-41925000D01*
G75*
G02*
X175625000Y-42243750I0J-318750D01*
G01*
G37*
G36*
G01*
X159243750Y-54550000D02*
X159956250Y-54550000D01*
G75*
G02*
X160275000Y-54868750I0J-318750D01*
G01*
X160275000Y-55506250D01*
G75*
G02*
X159956250Y-55825000I-318750J0D01*
G01*
X159243750Y-55825000D01*
G75*
G02*
X158925000Y-55506250I0J318750D01*
G01*
X158925000Y-54868750D01*
G75*
G02*
X159243750Y-54550000I318750J0D01*
G01*
G37*
G36*
G01*
X159243750Y-52975000D02*
X159956250Y-52975000D01*
G75*
G02*
X160275000Y-53293750I0J-318750D01*
G01*
X160275000Y-53931250D01*
G75*
G02*
X159956250Y-54250000I-318750J0D01*
G01*
X159243750Y-54250000D01*
G75*
G02*
X158925000Y-53931250I0J318750D01*
G01*
X158925000Y-53293750D01*
G75*
G02*
X159243750Y-52975000I318750J0D01*
G01*
G37*
G36*
G01*
X111200000Y-56243750D02*
X111200000Y-56956250D01*
G75*
G02*
X110881250Y-57275000I-318750J0D01*
G01*
X110243750Y-57275000D01*
G75*
G02*
X109925000Y-56956250I0J318750D01*
G01*
X109925000Y-56243750D01*
G75*
G02*
X110243750Y-55925000I318750J0D01*
G01*
X110881250Y-55925000D01*
G75*
G02*
X111200000Y-56243750I0J-318750D01*
G01*
G37*
G36*
G01*
X112775000Y-56243750D02*
X112775000Y-56956250D01*
G75*
G02*
X112456250Y-57275000I-318750J0D01*
G01*
X111818750Y-57275000D01*
G75*
G02*
X111500000Y-56956250I0J318750D01*
G01*
X111500000Y-56243750D01*
G75*
G02*
X111818750Y-55925000I318750J0D01*
G01*
X112456250Y-55925000D01*
G75*
G02*
X112775000Y-56243750I0J-318750D01*
G01*
G37*
G36*
G01*
X160750000Y-51256250D02*
X160750000Y-50543750D01*
G75*
G02*
X161068750Y-50225000I318750J0D01*
G01*
X161706250Y-50225000D01*
G75*
G02*
X162025000Y-50543750I0J-318750D01*
G01*
X162025000Y-51256250D01*
G75*
G02*
X161706250Y-51575000I-318750J0D01*
G01*
X161068750Y-51575000D01*
G75*
G02*
X160750000Y-51256250I0J318750D01*
G01*
G37*
G36*
G01*
X159175000Y-51256250D02*
X159175000Y-50543750D01*
G75*
G02*
X159493750Y-50225000I318750J0D01*
G01*
X160131250Y-50225000D01*
G75*
G02*
X160450000Y-50543750I0J-318750D01*
G01*
X160450000Y-51256250D01*
G75*
G02*
X160131250Y-51575000I-318750J0D01*
G01*
X159493750Y-51575000D01*
G75*
G02*
X159175000Y-51256250I0J318750D01*
G01*
G37*
G36*
G01*
X169456250Y-49750000D02*
X168743750Y-49750000D01*
G75*
G02*
X168425000Y-49431250I0J318750D01*
G01*
X168425000Y-48793750D01*
G75*
G02*
X168743750Y-48475000I318750J0D01*
G01*
X169456250Y-48475000D01*
G75*
G02*
X169775000Y-48793750I0J-318750D01*
G01*
X169775000Y-49431250D01*
G75*
G02*
X169456250Y-49750000I-318750J0D01*
G01*
G37*
G36*
G01*
X169456250Y-51325000D02*
X168743750Y-51325000D01*
G75*
G02*
X168425000Y-51006250I0J318750D01*
G01*
X168425000Y-50368750D01*
G75*
G02*
X168743750Y-50050000I318750J0D01*
G01*
X169456250Y-50050000D01*
G75*
G02*
X169775000Y-50368750I0J-318750D01*
G01*
X169775000Y-51006250D01*
G75*
G02*
X169456250Y-51325000I-318750J0D01*
G01*
G37*
G36*
G01*
X177356250Y-41650000D02*
X176643750Y-41650000D01*
G75*
G02*
X176325000Y-41331250I0J318750D01*
G01*
X176325000Y-40693750D01*
G75*
G02*
X176643750Y-40375000I318750J0D01*
G01*
X177356250Y-40375000D01*
G75*
G02*
X177675000Y-40693750I0J-318750D01*
G01*
X177675000Y-41331250D01*
G75*
G02*
X177356250Y-41650000I-318750J0D01*
G01*
G37*
G36*
G01*
X177356250Y-43225000D02*
X176643750Y-43225000D01*
G75*
G02*
X176325000Y-42906250I0J318750D01*
G01*
X176325000Y-42268750D01*
G75*
G02*
X176643750Y-41950000I318750J0D01*
G01*
X177356250Y-41950000D01*
G75*
G02*
X177675000Y-42268750I0J-318750D01*
G01*
X177675000Y-42906250D01*
G75*
G02*
X177356250Y-43225000I-318750J0D01*
G01*
G37*
G36*
G01*
X179950000Y-44543750D02*
X179950000Y-45256250D01*
G75*
G02*
X179631250Y-45575000I-318750J0D01*
G01*
X178993750Y-45575000D01*
G75*
G02*
X178675000Y-45256250I0J318750D01*
G01*
X178675000Y-44543750D01*
G75*
G02*
X178993750Y-44225000I318750J0D01*
G01*
X179631250Y-44225000D01*
G75*
G02*
X179950000Y-44543750I0J-318750D01*
G01*
G37*
G36*
G01*
X181525000Y-44543750D02*
X181525000Y-45256250D01*
G75*
G02*
X181206250Y-45575000I-318750J0D01*
G01*
X180568750Y-45575000D01*
G75*
G02*
X180250000Y-45256250I0J318750D01*
G01*
X180250000Y-44543750D01*
G75*
G02*
X180568750Y-44225000I318750J0D01*
G01*
X181206250Y-44225000D01*
G75*
G02*
X181525000Y-44543750I0J-318750D01*
G01*
G37*
G36*
G01*
X132456250Y-54850000D02*
X131743750Y-54850000D01*
G75*
G02*
X131425000Y-54531250I0J318750D01*
G01*
X131425000Y-53893750D01*
G75*
G02*
X131743750Y-53575000I318750J0D01*
G01*
X132456250Y-53575000D01*
G75*
G02*
X132775000Y-53893750I0J-318750D01*
G01*
X132775000Y-54531250D01*
G75*
G02*
X132456250Y-54850000I-318750J0D01*
G01*
G37*
G36*
G01*
X132456250Y-56425000D02*
X131743750Y-56425000D01*
G75*
G02*
X131425000Y-56106250I0J318750D01*
G01*
X131425000Y-55468750D01*
G75*
G02*
X131743750Y-55150000I318750J0D01*
G01*
X132456250Y-55150000D01*
G75*
G02*
X132775000Y-55468750I0J-318750D01*
G01*
X132775000Y-56106250D01*
G75*
G02*
X132456250Y-56425000I-318750J0D01*
G01*
G37*
G36*
G01*
X126243750Y-46250000D02*
X126956250Y-46250000D01*
G75*
G02*
X127275000Y-46568750I0J-318750D01*
G01*
X127275000Y-47206250D01*
G75*
G02*
X126956250Y-47525000I-318750J0D01*
G01*
X126243750Y-47525000D01*
G75*
G02*
X125925000Y-47206250I0J318750D01*
G01*
X125925000Y-46568750D01*
G75*
G02*
X126243750Y-46250000I318750J0D01*
G01*
G37*
G36*
G01*
X126243750Y-44675000D02*
X126956250Y-44675000D01*
G75*
G02*
X127275000Y-44993750I0J-318750D01*
G01*
X127275000Y-45631250D01*
G75*
G02*
X126956250Y-45950000I-318750J0D01*
G01*
X126243750Y-45950000D01*
G75*
G02*
X125925000Y-45631250I0J318750D01*
G01*
X125925000Y-44993750D01*
G75*
G02*
X126243750Y-44675000I318750J0D01*
G01*
G37*
G36*
G01*
X111443750Y-46150000D02*
X112156250Y-46150000D01*
G75*
G02*
X112475000Y-46468750I0J-318750D01*
G01*
X112475000Y-47106250D01*
G75*
G02*
X112156250Y-47425000I-318750J0D01*
G01*
X111443750Y-47425000D01*
G75*
G02*
X111125000Y-47106250I0J318750D01*
G01*
X111125000Y-46468750D01*
G75*
G02*
X111443750Y-46150000I318750J0D01*
G01*
G37*
G36*
G01*
X111443750Y-44575000D02*
X112156250Y-44575000D01*
G75*
G02*
X112475000Y-44893750I0J-318750D01*
G01*
X112475000Y-45531250D01*
G75*
G02*
X112156250Y-45850000I-318750J0D01*
G01*
X111443750Y-45850000D01*
G75*
G02*
X111125000Y-45531250I0J318750D01*
G01*
X111125000Y-44893750D01*
G75*
G02*
X111443750Y-44575000I318750J0D01*
G01*
G37*
G36*
G01*
X100543750Y-46050000D02*
X101256250Y-46050000D01*
G75*
G02*
X101575000Y-46368750I0J-318750D01*
G01*
X101575000Y-47006250D01*
G75*
G02*
X101256250Y-47325000I-318750J0D01*
G01*
X100543750Y-47325000D01*
G75*
G02*
X100225000Y-47006250I0J318750D01*
G01*
X100225000Y-46368750D01*
G75*
G02*
X100543750Y-46050000I318750J0D01*
G01*
G37*
G36*
G01*
X100543750Y-44475000D02*
X101256250Y-44475000D01*
G75*
G02*
X101575000Y-44793750I0J-318750D01*
G01*
X101575000Y-45431250D01*
G75*
G02*
X101256250Y-45750000I-318750J0D01*
G01*
X100543750Y-45750000D01*
G75*
G02*
X100225000Y-45431250I0J318750D01*
G01*
X100225000Y-44793750D01*
G75*
G02*
X100543750Y-44475000I318750J0D01*
G01*
G37*
G36*
G01*
X101256250Y-57000000D02*
X100543750Y-57000000D01*
G75*
G02*
X100225000Y-56681250I0J318750D01*
G01*
X100225000Y-56043750D01*
G75*
G02*
X100543750Y-55725000I318750J0D01*
G01*
X101256250Y-55725000D01*
G75*
G02*
X101575000Y-56043750I0J-318750D01*
G01*
X101575000Y-56681250D01*
G75*
G02*
X101256250Y-57000000I-318750J0D01*
G01*
G37*
G36*
G01*
X101256250Y-58575000D02*
X100543750Y-58575000D01*
G75*
G02*
X100225000Y-58256250I0J318750D01*
G01*
X100225000Y-57618750D01*
G75*
G02*
X100543750Y-57300000I318750J0D01*
G01*
X101256250Y-57300000D01*
G75*
G02*
X101575000Y-57618750I0J-318750D01*
G01*
X101575000Y-58256250D01*
G75*
G02*
X101256250Y-58575000I-318750J0D01*
G01*
G37*
G36*
G01*
X101350000Y-100043750D02*
X101350000Y-100756250D01*
G75*
G02*
X101031250Y-101075000I-318750J0D01*
G01*
X100393750Y-101075000D01*
G75*
G02*
X100075000Y-100756250I0J318750D01*
G01*
X100075000Y-100043750D01*
G75*
G02*
X100393750Y-99725000I318750J0D01*
G01*
X101031250Y-99725000D01*
G75*
G02*
X101350000Y-100043750I0J-318750D01*
G01*
G37*
G36*
G01*
X102925000Y-100043750D02*
X102925000Y-100756250D01*
G75*
G02*
X102606250Y-101075000I-318750J0D01*
G01*
X101968750Y-101075000D01*
G75*
G02*
X101650000Y-100756250I0J318750D01*
G01*
X101650000Y-100043750D01*
G75*
G02*
X101968750Y-99725000I318750J0D01*
G01*
X102606250Y-99725000D01*
G75*
G02*
X102925000Y-100043750I0J-318750D01*
G01*
G37*
G36*
G01*
X89250000Y-99956250D02*
X89250000Y-99243750D01*
G75*
G02*
X89568750Y-98925000I318750J0D01*
G01*
X90206250Y-98925000D01*
G75*
G02*
X90525000Y-99243750I0J-318750D01*
G01*
X90525000Y-99956250D01*
G75*
G02*
X90206250Y-100275000I-318750J0D01*
G01*
X89568750Y-100275000D01*
G75*
G02*
X89250000Y-99956250I0J318750D01*
G01*
G37*
G36*
G01*
X87675000Y-99956250D02*
X87675000Y-99243750D01*
G75*
G02*
X87993750Y-98925000I318750J0D01*
G01*
X88631250Y-98925000D01*
G75*
G02*
X88950000Y-99243750I0J-318750D01*
G01*
X88950000Y-99956250D01*
G75*
G02*
X88631250Y-100275000I-318750J0D01*
G01*
X87993750Y-100275000D01*
G75*
G02*
X87675000Y-99956250I0J318750D01*
G01*
G37*
G36*
G01*
X73443750Y-94350000D02*
X74556250Y-94350000D01*
G75*
G02*
X74900000Y-94693750I0J-343750D01*
G01*
X74900000Y-95381250D01*
G75*
G02*
X74556250Y-95725000I-343750J0D01*
G01*
X73443750Y-95725000D01*
G75*
G02*
X73100000Y-95381250I0J343750D01*
G01*
X73100000Y-94693750D01*
G75*
G02*
X73443750Y-94350000I343750J0D01*
G01*
G37*
G36*
G01*
X73443750Y-92475000D02*
X74556250Y-92475000D01*
G75*
G02*
X74900000Y-92818750I0J-343750D01*
G01*
X74900000Y-93506250D01*
G75*
G02*
X74556250Y-93850000I-343750J0D01*
G01*
X73443750Y-93850000D01*
G75*
G02*
X73100000Y-93506250I0J343750D01*
G01*
X73100000Y-92818750D01*
G75*
G02*
X73443750Y-92475000I343750J0D01*
G01*
G37*
G36*
G01*
X80550000Y-93656250D02*
X80550000Y-92543750D01*
G75*
G02*
X80893750Y-92200000I343750J0D01*
G01*
X81581250Y-92200000D01*
G75*
G02*
X81925000Y-92543750I0J-343750D01*
G01*
X81925000Y-93656250D01*
G75*
G02*
X81581250Y-94000000I-343750J0D01*
G01*
X80893750Y-94000000D01*
G75*
G02*
X80550000Y-93656250I0J343750D01*
G01*
G37*
G36*
G01*
X78675000Y-93656250D02*
X78675000Y-92543750D01*
G75*
G02*
X79018750Y-92200000I343750J0D01*
G01*
X79706250Y-92200000D01*
G75*
G02*
X80050000Y-92543750I0J-343750D01*
G01*
X80050000Y-93656250D01*
G75*
G02*
X79706250Y-94000000I-343750J0D01*
G01*
X79018750Y-94000000D01*
G75*
G02*
X78675000Y-93656250I0J343750D01*
G01*
G37*
G36*
G01*
X76950000Y-93656250D02*
X76950000Y-92543750D01*
G75*
G02*
X77293750Y-92200000I343750J0D01*
G01*
X77981250Y-92200000D01*
G75*
G02*
X78325000Y-92543750I0J-343750D01*
G01*
X78325000Y-93656250D01*
G75*
G02*
X77981250Y-94000000I-343750J0D01*
G01*
X77293750Y-94000000D01*
G75*
G02*
X76950000Y-93656250I0J343750D01*
G01*
G37*
G36*
G01*
X75075000Y-93656250D02*
X75075000Y-92543750D01*
G75*
G02*
X75418750Y-92200000I343750J0D01*
G01*
X76106250Y-92200000D01*
G75*
G02*
X76450000Y-92543750I0J-343750D01*
G01*
X76450000Y-93656250D01*
G75*
G02*
X76106250Y-94000000I-343750J0D01*
G01*
X75418750Y-94000000D01*
G75*
G02*
X75075000Y-93656250I0J343750D01*
G01*
G37*
G36*
G01*
X88950000Y-100843750D02*
X88950000Y-101556250D01*
G75*
G02*
X88631250Y-101875000I-318750J0D01*
G01*
X87993750Y-101875000D01*
G75*
G02*
X87675000Y-101556250I0J318750D01*
G01*
X87675000Y-100843750D01*
G75*
G02*
X87993750Y-100525000I318750J0D01*
G01*
X88631250Y-100525000D01*
G75*
G02*
X88950000Y-100843750I0J-318750D01*
G01*
G37*
G36*
G01*
X90525000Y-100843750D02*
X90525000Y-101556250D01*
G75*
G02*
X90206250Y-101875000I-318750J0D01*
G01*
X89568750Y-101875000D01*
G75*
G02*
X89250000Y-101556250I0J318750D01*
G01*
X89250000Y-100843750D01*
G75*
G02*
X89568750Y-100525000I318750J0D01*
G01*
X90206250Y-100525000D01*
G75*
G02*
X90525000Y-100843750I0J-318750D01*
G01*
G37*
G36*
G01*
X99356250Y-99450000D02*
X98643750Y-99450000D01*
G75*
G02*
X98325000Y-99131250I0J318750D01*
G01*
X98325000Y-98493750D01*
G75*
G02*
X98643750Y-98175000I318750J0D01*
G01*
X99356250Y-98175000D01*
G75*
G02*
X99675000Y-98493750I0J-318750D01*
G01*
X99675000Y-99131250D01*
G75*
G02*
X99356250Y-99450000I-318750J0D01*
G01*
G37*
G36*
G01*
X99356250Y-101025000D02*
X98643750Y-101025000D01*
G75*
G02*
X98325000Y-100706250I0J318750D01*
G01*
X98325000Y-100068750D01*
G75*
G02*
X98643750Y-99750000I318750J0D01*
G01*
X99356250Y-99750000D01*
G75*
G02*
X99675000Y-100068750I0J-318750D01*
G01*
X99675000Y-100706250D01*
G75*
G02*
X99356250Y-101025000I-318750J0D01*
G01*
G37*
G36*
G01*
X101350000Y-98543750D02*
X101350000Y-99256250D01*
G75*
G02*
X101031250Y-99575000I-318750J0D01*
G01*
X100393750Y-99575000D01*
G75*
G02*
X100075000Y-99256250I0J318750D01*
G01*
X100075000Y-98543750D01*
G75*
G02*
X100393750Y-98225000I318750J0D01*
G01*
X101031250Y-98225000D01*
G75*
G02*
X101350000Y-98543750I0J-318750D01*
G01*
G37*
G36*
G01*
X102925000Y-98543750D02*
X102925000Y-99256250D01*
G75*
G02*
X102606250Y-99575000I-318750J0D01*
G01*
X101968750Y-99575000D01*
G75*
G02*
X101650000Y-99256250I0J318750D01*
G01*
X101650000Y-98543750D01*
G75*
G02*
X101968750Y-98225000I318750J0D01*
G01*
X102606250Y-98225000D01*
G75*
G02*
X102925000Y-98543750I0J-318750D01*
G01*
G37*
G36*
G01*
X182956250Y-48250000D02*
X182243750Y-48250000D01*
G75*
G02*
X181925000Y-47931250I0J318750D01*
G01*
X181925000Y-47293750D01*
G75*
G02*
X182243750Y-46975000I318750J0D01*
G01*
X182956250Y-46975000D01*
G75*
G02*
X183275000Y-47293750I0J-318750D01*
G01*
X183275000Y-47931250D01*
G75*
G02*
X182956250Y-48250000I-318750J0D01*
G01*
G37*
G36*
G01*
X182956250Y-49825000D02*
X182243750Y-49825000D01*
G75*
G02*
X181925000Y-49506250I0J318750D01*
G01*
X181925000Y-48868750D01*
G75*
G02*
X182243750Y-48550000I318750J0D01*
G01*
X182956250Y-48550000D01*
G75*
G02*
X183275000Y-48868750I0J-318750D01*
G01*
X183275000Y-49506250D01*
G75*
G02*
X182956250Y-49825000I-318750J0D01*
G01*
G37*
G36*
G01*
X179456250Y-48250000D02*
X178743750Y-48250000D01*
G75*
G02*
X178425000Y-47931250I0J318750D01*
G01*
X178425000Y-47293750D01*
G75*
G02*
X178743750Y-46975000I318750J0D01*
G01*
X179456250Y-46975000D01*
G75*
G02*
X179775000Y-47293750I0J-318750D01*
G01*
X179775000Y-47931250D01*
G75*
G02*
X179456250Y-48250000I-318750J0D01*
G01*
G37*
G36*
G01*
X179456250Y-49825000D02*
X178743750Y-49825000D01*
G75*
G02*
X178425000Y-49506250I0J318750D01*
G01*
X178425000Y-48868750D01*
G75*
G02*
X178743750Y-48550000I318750J0D01*
G01*
X179456250Y-48550000D01*
G75*
G02*
X179775000Y-48868750I0J-318750D01*
G01*
X179775000Y-49506250D01*
G75*
G02*
X179456250Y-49825000I-318750J0D01*
G01*
G37*
G36*
G01*
X169456250Y-46250000D02*
X168743750Y-46250000D01*
G75*
G02*
X168425000Y-45931250I0J318750D01*
G01*
X168425000Y-45293750D01*
G75*
G02*
X168743750Y-44975000I318750J0D01*
G01*
X169456250Y-44975000D01*
G75*
G02*
X169775000Y-45293750I0J-318750D01*
G01*
X169775000Y-45931250D01*
G75*
G02*
X169456250Y-46250000I-318750J0D01*
G01*
G37*
G36*
G01*
X169456250Y-47825000D02*
X168743750Y-47825000D01*
G75*
G02*
X168425000Y-47506250I0J318750D01*
G01*
X168425000Y-46868750D01*
G75*
G02*
X168743750Y-46550000I318750J0D01*
G01*
X169456250Y-46550000D01*
G75*
G02*
X169775000Y-46868750I0J-318750D01*
G01*
X169775000Y-47506250D01*
G75*
G02*
X169456250Y-47825000I-318750J0D01*
G01*
G37*
G36*
G01*
X165956250Y-46250000D02*
X165243750Y-46250000D01*
G75*
G02*
X164925000Y-45931250I0J318750D01*
G01*
X164925000Y-45293750D01*
G75*
G02*
X165243750Y-44975000I318750J0D01*
G01*
X165956250Y-44975000D01*
G75*
G02*
X166275000Y-45293750I0J-318750D01*
G01*
X166275000Y-45931250D01*
G75*
G02*
X165956250Y-46250000I-318750J0D01*
G01*
G37*
G36*
G01*
X165956250Y-47825000D02*
X165243750Y-47825000D01*
G75*
G02*
X164925000Y-47506250I0J318750D01*
G01*
X164925000Y-46868750D01*
G75*
G02*
X165243750Y-46550000I318750J0D01*
G01*
X165956250Y-46550000D01*
G75*
G02*
X166275000Y-46868750I0J-318750D01*
G01*
X166275000Y-47506250D01*
G75*
G02*
X165956250Y-47825000I-318750J0D01*
G01*
G37*
G36*
G01*
X109125000Y-58705000D02*
X109125000Y-61095000D01*
G75*
G02*
X108795000Y-61425000I-330000J0D01*
G01*
X107805000Y-61425000D01*
G75*
G02*
X107475000Y-61095000I0J330000D01*
G01*
X107475000Y-58705000D01*
G75*
G02*
X107805000Y-58375000I330000J0D01*
G01*
X108795000Y-58375000D01*
G75*
G02*
X109125000Y-58705000I0J-330000D01*
G01*
G37*
G36*
G01*
X111925000Y-58705000D02*
X111925000Y-61095000D01*
G75*
G02*
X111595000Y-61425000I-330000J0D01*
G01*
X110605000Y-61425000D01*
G75*
G02*
X110275000Y-61095000I0J330000D01*
G01*
X110275000Y-58705000D01*
G75*
G02*
X110605000Y-58375000I330000J0D01*
G01*
X111595000Y-58375000D01*
G75*
G02*
X111925000Y-58705000I0J-330000D01*
G01*
G37*
G36*
G01*
X89650000Y-64143750D02*
X89650000Y-64856250D01*
G75*
G02*
X89331250Y-65175000I-318750J0D01*
G01*
X88693750Y-65175000D01*
G75*
G02*
X88375000Y-64856250I0J318750D01*
G01*
X88375000Y-64143750D01*
G75*
G02*
X88693750Y-63825000I318750J0D01*
G01*
X89331250Y-63825000D01*
G75*
G02*
X89650000Y-64143750I0J-318750D01*
G01*
G37*
G36*
G01*
X91225000Y-64143750D02*
X91225000Y-64856250D01*
G75*
G02*
X90906250Y-65175000I-318750J0D01*
G01*
X90268750Y-65175000D01*
G75*
G02*
X89950000Y-64856250I0J318750D01*
G01*
X89950000Y-64143750D01*
G75*
G02*
X90268750Y-63825000I318750J0D01*
G01*
X90906250Y-63825000D01*
G75*
G02*
X91225000Y-64143750I0J-318750D01*
G01*
G37*
G36*
G01*
X104260000Y-56003750D02*
X104260000Y-56716250D01*
G75*
G02*
X103941250Y-57035000I-318750J0D01*
G01*
X103303750Y-57035000D01*
G75*
G02*
X102985000Y-56716250I0J318750D01*
G01*
X102985000Y-56003750D01*
G75*
G02*
X103303750Y-55685000I318750J0D01*
G01*
X103941250Y-55685000D01*
G75*
G02*
X104260000Y-56003750I0J-318750D01*
G01*
G37*
G36*
G01*
X105835000Y-56003750D02*
X105835000Y-56716250D01*
G75*
G02*
X105516250Y-57035000I-318750J0D01*
G01*
X104878750Y-57035000D01*
G75*
G02*
X104560000Y-56716250I0J318750D01*
G01*
X104560000Y-56003750D01*
G75*
G02*
X104878750Y-55685000I318750J0D01*
G01*
X105516250Y-55685000D01*
G75*
G02*
X105835000Y-56003750I0J-318750D01*
G01*
G37*
G36*
G01*
X104550000Y-58656250D02*
X104550000Y-57943750D01*
G75*
G02*
X104868750Y-57625000I318750J0D01*
G01*
X105506250Y-57625000D01*
G75*
G02*
X105825000Y-57943750I0J-318750D01*
G01*
X105825000Y-58656250D01*
G75*
G02*
X105506250Y-58975000I-318750J0D01*
G01*
X104868750Y-58975000D01*
G75*
G02*
X104550000Y-58656250I0J318750D01*
G01*
G37*
G36*
G01*
X102975000Y-58656250D02*
X102975000Y-57943750D01*
G75*
G02*
X103293750Y-57625000I318750J0D01*
G01*
X103931250Y-57625000D01*
G75*
G02*
X104250000Y-57943750I0J-318750D01*
G01*
X104250000Y-58656250D01*
G75*
G02*
X103931250Y-58975000I-318750J0D01*
G01*
X103293750Y-58975000D01*
G75*
G02*
X102975000Y-58656250I0J318750D01*
G01*
G37*
G36*
G01*
X102556250Y-62550000D02*
X101843750Y-62550000D01*
G75*
G02*
X101525000Y-62231250I0J318750D01*
G01*
X101525000Y-61593750D01*
G75*
G02*
X101843750Y-61275000I318750J0D01*
G01*
X102556250Y-61275000D01*
G75*
G02*
X102875000Y-61593750I0J-318750D01*
G01*
X102875000Y-62231250D01*
G75*
G02*
X102556250Y-62550000I-318750J0D01*
G01*
G37*
G36*
G01*
X102556250Y-64125000D02*
X101843750Y-64125000D01*
G75*
G02*
X101525000Y-63806250I0J318750D01*
G01*
X101525000Y-63168750D01*
G75*
G02*
X101843750Y-62850000I318750J0D01*
G01*
X102556250Y-62850000D01*
G75*
G02*
X102875000Y-63168750I0J-318750D01*
G01*
X102875000Y-63806250D01*
G75*
G02*
X102556250Y-64125000I-318750J0D01*
G01*
G37*
G36*
G01*
X101100000Y-59443750D02*
X101100000Y-60156250D01*
G75*
G02*
X100781250Y-60475000I-318750J0D01*
G01*
X100143750Y-60475000D01*
G75*
G02*
X99825000Y-60156250I0J318750D01*
G01*
X99825000Y-59443750D01*
G75*
G02*
X100143750Y-59125000I318750J0D01*
G01*
X100781250Y-59125000D01*
G75*
G02*
X101100000Y-59443750I0J-318750D01*
G01*
G37*
G36*
G01*
X102675000Y-59443750D02*
X102675000Y-60156250D01*
G75*
G02*
X102356250Y-60475000I-318750J0D01*
G01*
X101718750Y-60475000D01*
G75*
G02*
X101400000Y-60156250I0J318750D01*
G01*
X101400000Y-59443750D01*
G75*
G02*
X101718750Y-59125000I318750J0D01*
G01*
X102356250Y-59125000D01*
G75*
G02*
X102675000Y-59443750I0J-318750D01*
G01*
G37*
G36*
G01*
X98000000Y-58256250D02*
X98000000Y-57543750D01*
G75*
G02*
X98318750Y-57225000I318750J0D01*
G01*
X98956250Y-57225000D01*
G75*
G02*
X99275000Y-57543750I0J-318750D01*
G01*
X99275000Y-58256250D01*
G75*
G02*
X98956250Y-58575000I-318750J0D01*
G01*
X98318750Y-58575000D01*
G75*
G02*
X98000000Y-58256250I0J318750D01*
G01*
G37*
G36*
G01*
X96425000Y-58256250D02*
X96425000Y-57543750D01*
G75*
G02*
X96743750Y-57225000I318750J0D01*
G01*
X97381250Y-57225000D01*
G75*
G02*
X97700000Y-57543750I0J-318750D01*
G01*
X97700000Y-58256250D01*
G75*
G02*
X97381250Y-58575000I-318750J0D01*
G01*
X96743750Y-58575000D01*
G75*
G02*
X96425000Y-58256250I0J318750D01*
G01*
G37*
G36*
G01*
X98000000Y-56616250D02*
X98000000Y-55903750D01*
G75*
G02*
X98318750Y-55585000I318750J0D01*
G01*
X98956250Y-55585000D01*
G75*
G02*
X99275000Y-55903750I0J-318750D01*
G01*
X99275000Y-56616250D01*
G75*
G02*
X98956250Y-56935000I-318750J0D01*
G01*
X98318750Y-56935000D01*
G75*
G02*
X98000000Y-56616250I0J318750D01*
G01*
G37*
G36*
G01*
X96425000Y-56616250D02*
X96425000Y-55903750D01*
G75*
G02*
X96743750Y-55585000I318750J0D01*
G01*
X97381250Y-55585000D01*
G75*
G02*
X97700000Y-55903750I0J-318750D01*
G01*
X97700000Y-56616250D01*
G75*
G02*
X97381250Y-56935000I-318750J0D01*
G01*
X96743750Y-56935000D01*
G75*
G02*
X96425000Y-56616250I0J318750D01*
G01*
G37*
G36*
G01*
X94350000Y-45556250D02*
X94350000Y-44843750D01*
G75*
G02*
X94668750Y-44525000I318750J0D01*
G01*
X95306250Y-44525000D01*
G75*
G02*
X95625000Y-44843750I0J-318750D01*
G01*
X95625000Y-45556250D01*
G75*
G02*
X95306250Y-45875000I-318750J0D01*
G01*
X94668750Y-45875000D01*
G75*
G02*
X94350000Y-45556250I0J318750D01*
G01*
G37*
G36*
G01*
X92775000Y-45556250D02*
X92775000Y-44843750D01*
G75*
G02*
X93093750Y-44525000I318750J0D01*
G01*
X93731250Y-44525000D01*
G75*
G02*
X94050000Y-44843750I0J-318750D01*
G01*
X94050000Y-45556250D01*
G75*
G02*
X93731250Y-45875000I-318750J0D01*
G01*
X93093750Y-45875000D01*
G75*
G02*
X92775000Y-45556250I0J318750D01*
G01*
G37*
G36*
G01*
X77450000Y-52543750D02*
X77450000Y-53256250D01*
G75*
G02*
X77131250Y-53575000I-318750J0D01*
G01*
X76493750Y-53575000D01*
G75*
G02*
X76175000Y-53256250I0J318750D01*
G01*
X76175000Y-52543750D01*
G75*
G02*
X76493750Y-52225000I318750J0D01*
G01*
X77131250Y-52225000D01*
G75*
G02*
X77450000Y-52543750I0J-318750D01*
G01*
G37*
G36*
G01*
X79025000Y-52543750D02*
X79025000Y-53256250D01*
G75*
G02*
X78706250Y-53575000I-318750J0D01*
G01*
X78068750Y-53575000D01*
G75*
G02*
X77750000Y-53256250I0J318750D01*
G01*
X77750000Y-52543750D01*
G75*
G02*
X78068750Y-52225000I318750J0D01*
G01*
X78706250Y-52225000D01*
G75*
G02*
X79025000Y-52543750I0J-318750D01*
G01*
G37*
G36*
G01*
X185525000Y-49205000D02*
X185525000Y-51595000D01*
G75*
G02*
X185195000Y-51925000I-330000J0D01*
G01*
X184205000Y-51925000D01*
G75*
G02*
X183875000Y-51595000I0J330000D01*
G01*
X183875000Y-49205000D01*
G75*
G02*
X184205000Y-48875000I330000J0D01*
G01*
X185195000Y-48875000D01*
G75*
G02*
X185525000Y-49205000I0J-330000D01*
G01*
G37*
G36*
G01*
X188325000Y-49205000D02*
X188325000Y-51595000D01*
G75*
G02*
X187995000Y-51925000I-330000J0D01*
G01*
X187005000Y-51925000D01*
G75*
G02*
X186675000Y-51595000I0J330000D01*
G01*
X186675000Y-49205000D01*
G75*
G02*
X187005000Y-48875000I330000J0D01*
G01*
X187995000Y-48875000D01*
G75*
G02*
X188325000Y-49205000I0J-330000D01*
G01*
G37*
G36*
G01*
X146795000Y-54825000D02*
X144405000Y-54825000D01*
G75*
G02*
X144075000Y-54495000I0J330000D01*
G01*
X144075000Y-53505000D01*
G75*
G02*
X144405000Y-53175000I330000J0D01*
G01*
X146795000Y-53175000D01*
G75*
G02*
X147125000Y-53505000I0J-330000D01*
G01*
X147125000Y-54495000D01*
G75*
G02*
X146795000Y-54825000I-330000J0D01*
G01*
G37*
G36*
G01*
X146795000Y-57625000D02*
X144405000Y-57625000D01*
G75*
G02*
X144075000Y-57295000I0J330000D01*
G01*
X144075000Y-56305000D01*
G75*
G02*
X144405000Y-55975000I330000J0D01*
G01*
X146795000Y-55975000D01*
G75*
G02*
X147125000Y-56305000I0J-330000D01*
G01*
X147125000Y-57295000D01*
G75*
G02*
X146795000Y-57625000I-330000J0D01*
G01*
G37*
G36*
G01*
X130925000Y-41605000D02*
X130925000Y-43995000D01*
G75*
G02*
X130595000Y-44325000I-330000J0D01*
G01*
X129605000Y-44325000D01*
G75*
G02*
X129275000Y-43995000I0J330000D01*
G01*
X129275000Y-41605000D01*
G75*
G02*
X129605000Y-41275000I330000J0D01*
G01*
X130595000Y-41275000D01*
G75*
G02*
X130925000Y-41605000I0J-330000D01*
G01*
G37*
G36*
G01*
X133725000Y-41605000D02*
X133725000Y-43995000D01*
G75*
G02*
X133395000Y-44325000I-330000J0D01*
G01*
X132405000Y-44325000D01*
G75*
G02*
X132075000Y-43995000I0J330000D01*
G01*
X132075000Y-41605000D01*
G75*
G02*
X132405000Y-41275000I330000J0D01*
G01*
X133395000Y-41275000D01*
G75*
G02*
X133725000Y-41605000I0J-330000D01*
G01*
G37*
G36*
G01*
X103605000Y-45775000D02*
X105995000Y-45775000D01*
G75*
G02*
X106325000Y-46105000I0J-330000D01*
G01*
X106325000Y-47095000D01*
G75*
G02*
X105995000Y-47425000I-330000J0D01*
G01*
X103605000Y-47425000D01*
G75*
G02*
X103275000Y-47095000I0J330000D01*
G01*
X103275000Y-46105000D01*
G75*
G02*
X103605000Y-45775000I330000J0D01*
G01*
G37*
G36*
G01*
X103605000Y-42975000D02*
X105995000Y-42975000D01*
G75*
G02*
X106325000Y-43305000I0J-330000D01*
G01*
X106325000Y-44295000D01*
G75*
G02*
X105995000Y-44625000I-330000J0D01*
G01*
X103605000Y-44625000D01*
G75*
G02*
X103275000Y-44295000I0J330000D01*
G01*
X103275000Y-43305000D01*
G75*
G02*
X103605000Y-42975000I330000J0D01*
G01*
G37*
G36*
G01*
X75975000Y-79245000D02*
X75975000Y-77755000D01*
G75*
G02*
X76305000Y-77425000I330000J0D01*
G01*
X77295000Y-77425000D01*
G75*
G02*
X77625000Y-77755000I0J-330000D01*
G01*
X77625000Y-79245000D01*
G75*
G02*
X77295000Y-79575000I-330000J0D01*
G01*
X76305000Y-79575000D01*
G75*
G02*
X75975000Y-79245000I0J330000D01*
G01*
G37*
G36*
G01*
X73175000Y-79245000D02*
X73175000Y-77755000D01*
G75*
G02*
X73505000Y-77425000I330000J0D01*
G01*
X74495000Y-77425000D01*
G75*
G02*
X74825000Y-77755000I0J-330000D01*
G01*
X74825000Y-79245000D01*
G75*
G02*
X74495000Y-79575000I-330000J0D01*
G01*
X73505000Y-79575000D01*
G75*
G02*
X73175000Y-79245000I0J330000D01*
G01*
G37*
G36*
G01*
X77025000Y-50155000D02*
X77025000Y-51645000D01*
G75*
G02*
X76695000Y-51975000I-330000J0D01*
G01*
X75705000Y-51975000D01*
G75*
G02*
X75375000Y-51645000I0J330000D01*
G01*
X75375000Y-50155000D01*
G75*
G02*
X75705000Y-49825000I330000J0D01*
G01*
X76695000Y-49825000D01*
G75*
G02*
X77025000Y-50155000I0J-330000D01*
G01*
G37*
G36*
G01*
X79825000Y-50155000D02*
X79825000Y-51645000D01*
G75*
G02*
X79495000Y-51975000I-330000J0D01*
G01*
X78505000Y-51975000D01*
G75*
G02*
X78175000Y-51645000I0J330000D01*
G01*
X78175000Y-50155000D01*
G75*
G02*
X78505000Y-49825000I330000J0D01*
G01*
X79495000Y-49825000D01*
G75*
G02*
X79825000Y-50155000I0J-330000D01*
G01*
G37*
G36*
G01*
X92055000Y-66675000D02*
X93545000Y-66675000D01*
G75*
G02*
X93875000Y-67005000I0J-330000D01*
G01*
X93875000Y-67995000D01*
G75*
G02*
X93545000Y-68325000I-330000J0D01*
G01*
X92055000Y-68325000D01*
G75*
G02*
X91725000Y-67995000I0J330000D01*
G01*
X91725000Y-67005000D01*
G75*
G02*
X92055000Y-66675000I330000J0D01*
G01*
G37*
G36*
G01*
X92055000Y-63875000D02*
X93545000Y-63875000D01*
G75*
G02*
X93875000Y-64205000I0J-330000D01*
G01*
X93875000Y-65195000D01*
G75*
G02*
X93545000Y-65525000I-330000J0D01*
G01*
X92055000Y-65525000D01*
G75*
G02*
X91725000Y-65195000I0J330000D01*
G01*
X91725000Y-64205000D01*
G75*
G02*
X92055000Y-63875000I330000J0D01*
G01*
G37*
G36*
G01*
X69485000Y-66475000D02*
X69485000Y-67965000D01*
G75*
G02*
X69155000Y-68295000I-330000J0D01*
G01*
X68165000Y-68295000D01*
G75*
G02*
X67835000Y-67965000I0J330000D01*
G01*
X67835000Y-66475000D01*
G75*
G02*
X68165000Y-66145000I330000J0D01*
G01*
X69155000Y-66145000D01*
G75*
G02*
X69485000Y-66475000I0J-330000D01*
G01*
G37*
G36*
G01*
X66685000Y-66475000D02*
X66685000Y-67965000D01*
G75*
G02*
X66355000Y-68295000I-330000J0D01*
G01*
X65365000Y-68295000D01*
G75*
G02*
X65035000Y-67965000I0J330000D01*
G01*
X65035000Y-66475000D01*
G75*
G02*
X65365000Y-66145000I330000J0D01*
G01*
X66355000Y-66145000D01*
G75*
G02*
X66685000Y-66475000I0J-330000D01*
G01*
G37*
D14*
X86660000Y-59540000D03*
X86660000Y-54460000D03*
X91740000Y-54460000D03*
X91740000Y-59540000D03*
D15*
X89200000Y-57000000D03*
D14*
X116060000Y-59540000D03*
X116060000Y-54460000D03*
X121140000Y-54460000D03*
X121140000Y-59540000D03*
D15*
X118600000Y-57000000D03*
D14*
X164560000Y-59440000D03*
X164560000Y-54360000D03*
X169640000Y-54360000D03*
X169640000Y-59440000D03*
D15*
X167100000Y-56900000D03*
D14*
X178560000Y-59440000D03*
X178560000Y-54360000D03*
X183640000Y-54360000D03*
X183640000Y-59440000D03*
D15*
X181100000Y-56900000D03*
D14*
X150560000Y-59440000D03*
X150560000Y-54360000D03*
X155640000Y-54360000D03*
X155640000Y-59440000D03*
D15*
X153100000Y-56900000D03*
D14*
X136560000Y-59540000D03*
X136560000Y-54460000D03*
X141640000Y-54460000D03*
X141640000Y-59540000D03*
D15*
X139100000Y-57000000D03*
D14*
X136560000Y-45440000D03*
X136560000Y-40360000D03*
X141640000Y-40360000D03*
X141640000Y-45440000D03*
D15*
X139100000Y-42900000D03*
D14*
X115860000Y-45440000D03*
X115860000Y-40360000D03*
X120940000Y-40360000D03*
X120940000Y-45440000D03*
D15*
X118400000Y-42900000D03*
G36*
G01*
X75405000Y-46665000D02*
X77795000Y-46665000D01*
G75*
G02*
X78125000Y-46995000I0J-330000D01*
G01*
X78125000Y-47985000D01*
G75*
G02*
X77795000Y-48315000I-330000J0D01*
G01*
X75405000Y-48315000D01*
G75*
G02*
X75075000Y-47985000I0J330000D01*
G01*
X75075000Y-46995000D01*
G75*
G02*
X75405000Y-46665000I330000J0D01*
G01*
G37*
G36*
G01*
X75405000Y-43865000D02*
X77795000Y-43865000D01*
G75*
G02*
X78125000Y-44195000I0J-330000D01*
G01*
X78125000Y-45185000D01*
G75*
G02*
X77795000Y-45515000I-330000J0D01*
G01*
X75405000Y-45515000D01*
G75*
G02*
X75075000Y-45185000I0J330000D01*
G01*
X75075000Y-44195000D01*
G75*
G02*
X75405000Y-43865000I330000J0D01*
G01*
G37*
G36*
G01*
X76645000Y-71325000D02*
X74255000Y-71325000D01*
G75*
G02*
X73925000Y-70995000I0J330000D01*
G01*
X73925000Y-70005000D01*
G75*
G02*
X74255000Y-69675000I330000J0D01*
G01*
X76645000Y-69675000D01*
G75*
G02*
X76975000Y-70005000I0J-330000D01*
G01*
X76975000Y-70995000D01*
G75*
G02*
X76645000Y-71325000I-330000J0D01*
G01*
G37*
G36*
G01*
X76645000Y-74125000D02*
X74255000Y-74125000D01*
G75*
G02*
X73925000Y-73795000I0J330000D01*
G01*
X73925000Y-72805000D01*
G75*
G02*
X74255000Y-72475000I330000J0D01*
G01*
X76645000Y-72475000D01*
G75*
G02*
X76975000Y-72805000I0J-330000D01*
G01*
X76975000Y-73795000D01*
G75*
G02*
X76645000Y-74125000I-330000J0D01*
G01*
G37*
G36*
G01*
X62905000Y-76475000D02*
X65295000Y-76475000D01*
G75*
G02*
X65625000Y-76805000I0J-330000D01*
G01*
X65625000Y-77795000D01*
G75*
G02*
X65295000Y-78125000I-330000J0D01*
G01*
X62905000Y-78125000D01*
G75*
G02*
X62575000Y-77795000I0J330000D01*
G01*
X62575000Y-76805000D01*
G75*
G02*
X62905000Y-76475000I330000J0D01*
G01*
G37*
G36*
G01*
X62905000Y-73675000D02*
X65295000Y-73675000D01*
G75*
G02*
X65625000Y-74005000I0J-330000D01*
G01*
X65625000Y-74995000D01*
G75*
G02*
X65295000Y-75325000I-330000J0D01*
G01*
X62905000Y-75325000D01*
G75*
G02*
X62575000Y-74995000I0J330000D01*
G01*
X62575000Y-74005000D01*
G75*
G02*
X62905000Y-73675000I330000J0D01*
G01*
G37*
G36*
G01*
X66545000Y-48775000D02*
X64155000Y-48775000D01*
G75*
G02*
X63825000Y-48445000I0J330000D01*
G01*
X63825000Y-47455000D01*
G75*
G02*
X64155000Y-47125000I330000J0D01*
G01*
X66545000Y-47125000D01*
G75*
G02*
X66875000Y-47455000I0J-330000D01*
G01*
X66875000Y-48445000D01*
G75*
G02*
X66545000Y-48775000I-330000J0D01*
G01*
G37*
G36*
G01*
X66545000Y-51575000D02*
X64155000Y-51575000D01*
G75*
G02*
X63825000Y-51245000I0J330000D01*
G01*
X63825000Y-50255000D01*
G75*
G02*
X64155000Y-49925000I330000J0D01*
G01*
X66545000Y-49925000D01*
G75*
G02*
X66875000Y-50255000I0J-330000D01*
G01*
X66875000Y-51245000D01*
G75*
G02*
X66545000Y-51575000I-330000J0D01*
G01*
G37*
G36*
G01*
X79516000Y-65196000D02*
X77484000Y-65196000D01*
G75*
G02*
X77284000Y-64996000I0J200000D01*
G01*
X77284000Y-62964000D01*
G75*
G02*
X77484000Y-62764000I200000J0D01*
G01*
X79516000Y-62764000D01*
G75*
G02*
X79716000Y-62964000I0J-200000D01*
G01*
X79716000Y-64996000D01*
G75*
G02*
X79516000Y-65196000I-200000J0D01*
G01*
G37*
D16*
X78500000Y-61440000D03*
X78500000Y-58900000D03*
G36*
G01*
X110090000Y-129490000D02*
X110090000Y-127050000D01*
G75*
G02*
X110290000Y-126850000I200000J0D01*
G01*
X111290000Y-126850000D01*
G75*
G02*
X111490000Y-127050000I0J-200000D01*
G01*
X111490000Y-129490000D01*
G75*
G02*
X111290000Y-129690000I-200000J0D01*
G01*
X110290000Y-129690000D01*
G75*
G02*
X110090000Y-129490000I0J200000D01*
G01*
G37*
G36*
G01*
X65910000Y-129490000D02*
X65910000Y-127050000D01*
G75*
G02*
X66110000Y-126850000I200000J0D01*
G01*
X67110000Y-126850000D01*
G75*
G02*
X67310000Y-127050000I0J-200000D01*
G01*
X67310000Y-129490000D01*
G75*
G02*
X67110000Y-129690000I-200000J0D01*
G01*
X66110000Y-129690000D01*
G75*
G02*
X65910000Y-129490000I0J200000D01*
G01*
G37*
G36*
G01*
X110090000Y-124850000D02*
X110090000Y-121050000D01*
G75*
G02*
X110290000Y-120850000I200000J0D01*
G01*
X111290000Y-120850000D01*
G75*
G02*
X111490000Y-121050000I0J-200000D01*
G01*
X111490000Y-124850000D01*
G75*
G02*
X111290000Y-125050000I-200000J0D01*
G01*
X110290000Y-125050000D01*
G75*
G02*
X110090000Y-124850000I0J200000D01*
G01*
G37*
G36*
G01*
X65910000Y-124850000D02*
X65910000Y-121050000D01*
G75*
G02*
X66110000Y-120850000I200000J0D01*
G01*
X67110000Y-120850000D01*
G75*
G02*
X67310000Y-121050000I0J-200000D01*
G01*
X67310000Y-124850000D01*
G75*
G02*
X67110000Y-125050000I-200000J0D01*
G01*
X66110000Y-125050000D01*
G75*
G02*
X65910000Y-124850000I0J200000D01*
G01*
G37*
G36*
G01*
X110090000Y-118850000D02*
X110090000Y-115050000D01*
G75*
G02*
X110290000Y-114850000I200000J0D01*
G01*
X111290000Y-114850000D01*
G75*
G02*
X111490000Y-115050000I0J-200000D01*
G01*
X111490000Y-118850000D01*
G75*
G02*
X111290000Y-119050000I-200000J0D01*
G01*
X110290000Y-119050000D01*
G75*
G02*
X110090000Y-118850000I0J200000D01*
G01*
G37*
G36*
G01*
X65910000Y-118850000D02*
X65910000Y-115050000D01*
G75*
G02*
X66110000Y-114850000I200000J0D01*
G01*
X67110000Y-114850000D01*
G75*
G02*
X67310000Y-115050000I0J-200000D01*
G01*
X67310000Y-118850000D01*
G75*
G02*
X67110000Y-119050000I-200000J0D01*
G01*
X66110000Y-119050000D01*
G75*
G02*
X65910000Y-118850000I0J200000D01*
G01*
G37*
G36*
G01*
X110090000Y-112850000D02*
X110090000Y-109050000D01*
G75*
G02*
X110290000Y-108850000I200000J0D01*
G01*
X111290000Y-108850000D01*
G75*
G02*
X111490000Y-109050000I0J-200000D01*
G01*
X111490000Y-112850000D01*
G75*
G02*
X111290000Y-113050000I-200000J0D01*
G01*
X110290000Y-113050000D01*
G75*
G02*
X110090000Y-112850000I0J200000D01*
G01*
G37*
G36*
G01*
X65910000Y-112850000D02*
X65910000Y-109050000D01*
G75*
G02*
X66110000Y-108850000I200000J0D01*
G01*
X67110000Y-108850000D01*
G75*
G02*
X67310000Y-109050000I0J-200000D01*
G01*
X67310000Y-112850000D01*
G75*
G02*
X67110000Y-113050000I-200000J0D01*
G01*
X66110000Y-113050000D01*
G75*
G02*
X65910000Y-112850000I0J200000D01*
G01*
G37*
G36*
G01*
X110090000Y-106750000D02*
X110090000Y-102950000D01*
G75*
G02*
X110290000Y-102750000I200000J0D01*
G01*
X111290000Y-102750000D01*
G75*
G02*
X111490000Y-102950000I0J-200000D01*
G01*
X111490000Y-106750000D01*
G75*
G02*
X111290000Y-106950000I-200000J0D01*
G01*
X110290000Y-106950000D01*
G75*
G02*
X110090000Y-106750000I0J200000D01*
G01*
G37*
G36*
G01*
X65910000Y-106750000D02*
X65910000Y-102950000D01*
G75*
G02*
X66110000Y-102750000I200000J0D01*
G01*
X67110000Y-102750000D01*
G75*
G02*
X67310000Y-102950000I0J-200000D01*
G01*
X67310000Y-106750000D01*
G75*
G02*
X67110000Y-106950000I-200000J0D01*
G01*
X66110000Y-106950000D01*
G75*
G02*
X65910000Y-106750000I0J200000D01*
G01*
G37*
G36*
G01*
X110090000Y-100750000D02*
X110090000Y-96950000D01*
G75*
G02*
X110290000Y-96750000I200000J0D01*
G01*
X111290000Y-96750000D01*
G75*
G02*
X111490000Y-96950000I0J-200000D01*
G01*
X111490000Y-100750000D01*
G75*
G02*
X111290000Y-100950000I-200000J0D01*
G01*
X110290000Y-100950000D01*
G75*
G02*
X110090000Y-100750000I0J200000D01*
G01*
G37*
G36*
G01*
X65910000Y-100750000D02*
X65910000Y-96950000D01*
G75*
G02*
X66110000Y-96750000I200000J0D01*
G01*
X67110000Y-96750000D01*
G75*
G02*
X67310000Y-96950000I0J-200000D01*
G01*
X67310000Y-100750000D01*
G75*
G02*
X67110000Y-100950000I-200000J0D01*
G01*
X66110000Y-100950000D01*
G75*
G02*
X65910000Y-100750000I0J200000D01*
G01*
G37*
G36*
G01*
X110090000Y-94750000D02*
X110090000Y-90950000D01*
G75*
G02*
X110290000Y-90750000I200000J0D01*
G01*
X111290000Y-90750000D01*
G75*
G02*
X111490000Y-90950000I0J-200000D01*
G01*
X111490000Y-94750000D01*
G75*
G02*
X111290000Y-94950000I-200000J0D01*
G01*
X110290000Y-94950000D01*
G75*
G02*
X110090000Y-94750000I0J200000D01*
G01*
G37*
G36*
G01*
X65910000Y-94750000D02*
X65910000Y-90950000D01*
G75*
G02*
X66110000Y-90750000I200000J0D01*
G01*
X67110000Y-90750000D01*
G75*
G02*
X67310000Y-90950000I0J-200000D01*
G01*
X67310000Y-94750000D01*
G75*
G02*
X67110000Y-94950000I-200000J0D01*
G01*
X66110000Y-94950000D01*
G75*
G02*
X65910000Y-94750000I0J200000D01*
G01*
G37*
G36*
G01*
X110090000Y-88750000D02*
X110090000Y-86310000D01*
G75*
G02*
X110290000Y-86110000I200000J0D01*
G01*
X111290000Y-86110000D01*
G75*
G02*
X111490000Y-86310000I0J-200000D01*
G01*
X111490000Y-88750000D01*
G75*
G02*
X111290000Y-88950000I-200000J0D01*
G01*
X110290000Y-88950000D01*
G75*
G02*
X110090000Y-88750000I0J200000D01*
G01*
G37*
G36*
G01*
X65910000Y-88750000D02*
X65910000Y-86310000D01*
G75*
G02*
X66110000Y-86110000I200000J0D01*
G01*
X67110000Y-86110000D01*
G75*
G02*
X67310000Y-86310000I0J-200000D01*
G01*
X67310000Y-88750000D01*
G75*
G02*
X67110000Y-88950000I-200000J0D01*
G01*
X66110000Y-88950000D01*
G75*
G02*
X65910000Y-88750000I0J200000D01*
G01*
G37*
G36*
G01*
X107650000Y-130490000D02*
X107650000Y-129490000D01*
G75*
G02*
X107850000Y-129290000I200000J0D01*
G01*
X110290000Y-129290000D01*
G75*
G02*
X110490000Y-129490000I0J-200000D01*
G01*
X110490000Y-130490000D01*
G75*
G02*
X110290000Y-130690000I-200000J0D01*
G01*
X107850000Y-130690000D01*
G75*
G02*
X107650000Y-130490000I0J200000D01*
G01*
G37*
G36*
G01*
X107650000Y-86310000D02*
X107650000Y-85310000D01*
G75*
G02*
X107850000Y-85110000I200000J0D01*
G01*
X110290000Y-85110000D01*
G75*
G02*
X110490000Y-85310000I0J-200000D01*
G01*
X110490000Y-86310000D01*
G75*
G02*
X110290000Y-86510000I-200000J0D01*
G01*
X107850000Y-86510000D01*
G75*
G02*
X107650000Y-86310000I0J200000D01*
G01*
G37*
G36*
G01*
X101650000Y-130490000D02*
X101650000Y-129490000D01*
G75*
G02*
X101850000Y-129290000I200000J0D01*
G01*
X105650000Y-129290000D01*
G75*
G02*
X105850000Y-129490000I0J-200000D01*
G01*
X105850000Y-130490000D01*
G75*
G02*
X105650000Y-130690000I-200000J0D01*
G01*
X101850000Y-130690000D01*
G75*
G02*
X101650000Y-130490000I0J200000D01*
G01*
G37*
G36*
G01*
X101650000Y-86310000D02*
X101650000Y-85310000D01*
G75*
G02*
X101850000Y-85110000I200000J0D01*
G01*
X105650000Y-85110000D01*
G75*
G02*
X105850000Y-85310000I0J-200000D01*
G01*
X105850000Y-86310000D01*
G75*
G02*
X105650000Y-86510000I-200000J0D01*
G01*
X101850000Y-86510000D01*
G75*
G02*
X101650000Y-86310000I0J200000D01*
G01*
G37*
G36*
G01*
X95650000Y-130490000D02*
X95650000Y-129490000D01*
G75*
G02*
X95850000Y-129290000I200000J0D01*
G01*
X99650000Y-129290000D01*
G75*
G02*
X99850000Y-129490000I0J-200000D01*
G01*
X99850000Y-130490000D01*
G75*
G02*
X99650000Y-130690000I-200000J0D01*
G01*
X95850000Y-130690000D01*
G75*
G02*
X95650000Y-130490000I0J200000D01*
G01*
G37*
G36*
G01*
X95650000Y-86310000D02*
X95650000Y-85310000D01*
G75*
G02*
X95850000Y-85110000I200000J0D01*
G01*
X99650000Y-85110000D01*
G75*
G02*
X99850000Y-85310000I0J-200000D01*
G01*
X99850000Y-86310000D01*
G75*
G02*
X99650000Y-86510000I-200000J0D01*
G01*
X95850000Y-86510000D01*
G75*
G02*
X95650000Y-86310000I0J200000D01*
G01*
G37*
G36*
G01*
X89650000Y-130490000D02*
X89650000Y-129490000D01*
G75*
G02*
X89850000Y-129290000I200000J0D01*
G01*
X93650000Y-129290000D01*
G75*
G02*
X93850000Y-129490000I0J-200000D01*
G01*
X93850000Y-130490000D01*
G75*
G02*
X93650000Y-130690000I-200000J0D01*
G01*
X89850000Y-130690000D01*
G75*
G02*
X89650000Y-130490000I0J200000D01*
G01*
G37*
G36*
G01*
X89650000Y-86310000D02*
X89650000Y-85310000D01*
G75*
G02*
X89850000Y-85110000I200000J0D01*
G01*
X93650000Y-85110000D01*
G75*
G02*
X93850000Y-85310000I0J-200000D01*
G01*
X93850000Y-86310000D01*
G75*
G02*
X93650000Y-86510000I-200000J0D01*
G01*
X89850000Y-86510000D01*
G75*
G02*
X89650000Y-86310000I0J200000D01*
G01*
G37*
G36*
G01*
X83550000Y-130490000D02*
X83550000Y-129490000D01*
G75*
G02*
X83750000Y-129290000I200000J0D01*
G01*
X87550000Y-129290000D01*
G75*
G02*
X87750000Y-129490000I0J-200000D01*
G01*
X87750000Y-130490000D01*
G75*
G02*
X87550000Y-130690000I-200000J0D01*
G01*
X83750000Y-130690000D01*
G75*
G02*
X83550000Y-130490000I0J200000D01*
G01*
G37*
G36*
G01*
X83550000Y-86310000D02*
X83550000Y-85310000D01*
G75*
G02*
X83750000Y-85110000I200000J0D01*
G01*
X87550000Y-85110000D01*
G75*
G02*
X87750000Y-85310000I0J-200000D01*
G01*
X87750000Y-86310000D01*
G75*
G02*
X87550000Y-86510000I-200000J0D01*
G01*
X83750000Y-86510000D01*
G75*
G02*
X83550000Y-86310000I0J200000D01*
G01*
G37*
G36*
G01*
X77550000Y-130490000D02*
X77550000Y-129490000D01*
G75*
G02*
X77750000Y-129290000I200000J0D01*
G01*
X81550000Y-129290000D01*
G75*
G02*
X81750000Y-129490000I0J-200000D01*
G01*
X81750000Y-130490000D01*
G75*
G02*
X81550000Y-130690000I-200000J0D01*
G01*
X77750000Y-130690000D01*
G75*
G02*
X77550000Y-130490000I0J200000D01*
G01*
G37*
G36*
G01*
X77550000Y-86310000D02*
X77550000Y-85310000D01*
G75*
G02*
X77750000Y-85110000I200000J0D01*
G01*
X81550000Y-85110000D01*
G75*
G02*
X81750000Y-85310000I0J-200000D01*
G01*
X81750000Y-86310000D01*
G75*
G02*
X81550000Y-86510000I-200000J0D01*
G01*
X77750000Y-86510000D01*
G75*
G02*
X77550000Y-86310000I0J200000D01*
G01*
G37*
G36*
G01*
X71550000Y-130490000D02*
X71550000Y-129490000D01*
G75*
G02*
X71750000Y-129290000I200000J0D01*
G01*
X75550000Y-129290000D01*
G75*
G02*
X75750000Y-129490000I0J-200000D01*
G01*
X75750000Y-130490000D01*
G75*
G02*
X75550000Y-130690000I-200000J0D01*
G01*
X71750000Y-130690000D01*
G75*
G02*
X71550000Y-130490000I0J200000D01*
G01*
G37*
G36*
G01*
X71550000Y-86310000D02*
X71550000Y-85310000D01*
G75*
G02*
X71750000Y-85110000I200000J0D01*
G01*
X75550000Y-85110000D01*
G75*
G02*
X75750000Y-85310000I0J-200000D01*
G01*
X75750000Y-86310000D01*
G75*
G02*
X75550000Y-86510000I-200000J0D01*
G01*
X71750000Y-86510000D01*
G75*
G02*
X71550000Y-86310000I0J200000D01*
G01*
G37*
G36*
G01*
X66910000Y-130490000D02*
X66910000Y-129490000D01*
G75*
G02*
X67110000Y-129290000I200000J0D01*
G01*
X69550000Y-129290000D01*
G75*
G02*
X69750000Y-129490000I0J-200000D01*
G01*
X69750000Y-130490000D01*
G75*
G02*
X69550000Y-130690000I-200000J0D01*
G01*
X67110000Y-130690000D01*
G75*
G02*
X66910000Y-130490000I0J200000D01*
G01*
G37*
G36*
G01*
X66910000Y-86310000D02*
X66910000Y-85310000D01*
G75*
G02*
X67110000Y-85110000I200000J0D01*
G01*
X69550000Y-85110000D01*
G75*
G02*
X69750000Y-85310000I0J-200000D01*
G01*
X69750000Y-86310000D01*
G75*
G02*
X69550000Y-86510000I-200000J0D01*
G01*
X67110000Y-86510000D01*
G75*
G02*
X66910000Y-86310000I0J200000D01*
G01*
G37*
G36*
G01*
X65910000Y-130490000D02*
X65910000Y-129490000D01*
G75*
G02*
X66110000Y-129290000I200000J0D01*
G01*
X67110000Y-129290000D01*
G75*
G02*
X67310000Y-129490000I0J-200000D01*
G01*
X67310000Y-130490000D01*
G75*
G02*
X67110000Y-130690000I-200000J0D01*
G01*
X66110000Y-130690000D01*
G75*
G02*
X65910000Y-130490000I0J200000D01*
G01*
G37*
G36*
G01*
X110090000Y-130490000D02*
X110090000Y-129490000D01*
G75*
G02*
X110290000Y-129290000I200000J0D01*
G01*
X111290000Y-129290000D01*
G75*
G02*
X111490000Y-129490000I0J-200000D01*
G01*
X111490000Y-130490000D01*
G75*
G02*
X111290000Y-130690000I-200000J0D01*
G01*
X110290000Y-130690000D01*
G75*
G02*
X110090000Y-130490000I0J200000D01*
G01*
G37*
G36*
G01*
X110090000Y-86310000D02*
X110090000Y-85310000D01*
G75*
G02*
X110290000Y-85110000I200000J0D01*
G01*
X111290000Y-85110000D01*
G75*
G02*
X111490000Y-85310000I0J-200000D01*
G01*
X111490000Y-86310000D01*
G75*
G02*
X111290000Y-86510000I-200000J0D01*
G01*
X110290000Y-86510000D01*
G75*
G02*
X110090000Y-86310000I0J200000D01*
G01*
G37*
G36*
G01*
X65910000Y-86310000D02*
X65910000Y-85310000D01*
G75*
G02*
X66110000Y-85110000I200000J0D01*
G01*
X67110000Y-85110000D01*
G75*
G02*
X67310000Y-85310000I0J-200000D01*
G01*
X67310000Y-86310000D01*
G75*
G02*
X67110000Y-86510000I-200000J0D01*
G01*
X66110000Y-86510000D01*
G75*
G02*
X65910000Y-86310000I0J200000D01*
G01*
G37*
G36*
G01*
X73350000Y-105550000D02*
X73350000Y-100050000D01*
G75*
G02*
X73550000Y-99850000I200000J0D01*
G01*
X77550000Y-99850000D01*
G75*
G02*
X77750000Y-100050000I0J-200000D01*
G01*
X77750000Y-105550000D01*
G75*
G02*
X77550000Y-105750000I-200000J0D01*
G01*
X73550000Y-105750000D01*
G75*
G02*
X73350000Y-105550000I0J200000D01*
G01*
G37*
G36*
G01*
X81850000Y-105550000D02*
X81850000Y-100050000D01*
G75*
G02*
X82050000Y-99850000I200000J0D01*
G01*
X86050000Y-99850000D01*
G75*
G02*
X86250000Y-100050000I0J-200000D01*
G01*
X86250000Y-105550000D01*
G75*
G02*
X86050000Y-105750000I-200000J0D01*
G01*
X82050000Y-105750000D01*
G75*
G02*
X81850000Y-105550000I0J200000D01*
G01*
G37*
G36*
G01*
X98550000Y-106950000D02*
X104050000Y-106950000D01*
G75*
G02*
X104250000Y-107150000I0J-200000D01*
G01*
X104250000Y-111150000D01*
G75*
G02*
X104050000Y-111350000I-200000J0D01*
G01*
X98550000Y-111350000D01*
G75*
G02*
X98350000Y-111150000I0J200000D01*
G01*
X98350000Y-107150000D01*
G75*
G02*
X98550000Y-106950000I200000J0D01*
G01*
G37*
G36*
G01*
X98550000Y-115450000D02*
X104050000Y-115450000D01*
G75*
G02*
X104250000Y-115650000I0J-200000D01*
G01*
X104250000Y-119650000D01*
G75*
G02*
X104050000Y-119850000I-200000J0D01*
G01*
X98550000Y-119850000D01*
G75*
G02*
X98350000Y-119650000I0J200000D01*
G01*
X98350000Y-115650000D01*
G75*
G02*
X98550000Y-115450000I200000J0D01*
G01*
G37*
D17*
X206300000Y-68000000D03*
X122300000Y-68000000D03*
X122300000Y-122000000D03*
X206300000Y-122000000D03*
D18*
X130987000Y-119127000D03*
X130987000Y-121667000D03*
X133527000Y-119127000D03*
X133527000Y-121667000D03*
X136067000Y-119127000D03*
X136067000Y-121667000D03*
X138607000Y-119127000D03*
X138607000Y-121667000D03*
X141147000Y-119127000D03*
X141147000Y-121667000D03*
X143687000Y-119127000D03*
X143687000Y-121667000D03*
X146227000Y-119127000D03*
X146227000Y-121667000D03*
X148767000Y-119127000D03*
X148767000Y-121667000D03*
X151307000Y-119127000D03*
X151307000Y-121667000D03*
X153847000Y-119127000D03*
X153847000Y-121667000D03*
X156387000Y-119127000D03*
X156387000Y-121667000D03*
X158927000Y-119127000D03*
X158927000Y-121667000D03*
X161467000Y-119127000D03*
G36*
G01*
X160603400Y-120603400D02*
X162330600Y-120603400D01*
G75*
G02*
X162530600Y-120803400I0J-200000D01*
G01*
X162530600Y-122530600D01*
G75*
G02*
X162330600Y-122730600I-200000J0D01*
G01*
X160603400Y-122730600D01*
G75*
G02*
X160403400Y-122530600I0J200000D01*
G01*
X160403400Y-120803400D01*
G75*
G02*
X160603400Y-120603400I200000J0D01*
G01*
G37*
G36*
G01*
X159393750Y-58900000D02*
X160106250Y-58900000D01*
G75*
G02*
X160425000Y-59218750I0J-318750D01*
G01*
X160425000Y-59856250D01*
G75*
G02*
X160106250Y-60175000I-318750J0D01*
G01*
X159393750Y-60175000D01*
G75*
G02*
X159075000Y-59856250I0J318750D01*
G01*
X159075000Y-59218750D01*
G75*
G02*
X159393750Y-58900000I318750J0D01*
G01*
G37*
G36*
G01*
X159393750Y-57325000D02*
X160106250Y-57325000D01*
G75*
G02*
X160425000Y-57643750I0J-318750D01*
G01*
X160425000Y-58281250D01*
G75*
G02*
X160106250Y-58600000I-318750J0D01*
G01*
X159393750Y-58600000D01*
G75*
G02*
X159075000Y-58281250I0J318750D01*
G01*
X159075000Y-57643750D01*
G75*
G02*
X159393750Y-57325000I318750J0D01*
G01*
G37*
G36*
G01*
X86143750Y-63787500D02*
X86856250Y-63787500D01*
G75*
G02*
X87175000Y-64106250I0J-318750D01*
G01*
X87175000Y-64743750D01*
G75*
G02*
X86856250Y-65062500I-318750J0D01*
G01*
X86143750Y-65062500D01*
G75*
G02*
X85825000Y-64743750I0J318750D01*
G01*
X85825000Y-64106250D01*
G75*
G02*
X86143750Y-63787500I318750J0D01*
G01*
G37*
G36*
G01*
X86143750Y-65362500D02*
X86856250Y-65362500D01*
G75*
G02*
X87175000Y-65681250I0J-318750D01*
G01*
X87175000Y-66318750D01*
G75*
G02*
X86856250Y-66637500I-318750J0D01*
G01*
X86143750Y-66637500D01*
G75*
G02*
X85825000Y-66318750I0J318750D01*
G01*
X85825000Y-65681250D01*
G75*
G02*
X86143750Y-65362500I318750J0D01*
G01*
G37*
D19*
G36*
X58246157Y-128689018D02*
G01*
X58234776Y-128726537D01*
X58216294Y-128761114D01*
X58191421Y-128791421D01*
X58161114Y-128816294D01*
X58126537Y-128834776D01*
X58089018Y-128846157D01*
X58050000Y-128850000D01*
X56550000Y-128850000D01*
X56510982Y-128846157D01*
X56473463Y-128834776D01*
X56438886Y-128816294D01*
X56408579Y-128791421D01*
X56383706Y-128761114D01*
X56365224Y-128726537D01*
X56353843Y-128689018D01*
X56350000Y-128650000D01*
X56350000Y-128150000D01*
X56350602Y-128143888D01*
X56350602Y-128125466D01*
X56351565Y-128105860D01*
X56356375Y-128057029D01*
X56359254Y-128037620D01*
X56368826Y-127989495D01*
X56373596Y-127970452D01*
X56387840Y-127923497D01*
X56394451Y-127905020D01*
X56413228Y-127859687D01*
X56421623Y-127841939D01*
X56444754Y-127798666D01*
X56454840Y-127781838D01*
X56482100Y-127741039D01*
X56493795Y-127725270D01*
X56524923Y-127687341D01*
X56538103Y-127672800D01*
X56572800Y-127638103D01*
X56587341Y-127624923D01*
X56625270Y-127593795D01*
X56641039Y-127582100D01*
X56681838Y-127554840D01*
X56698666Y-127544754D01*
X56741939Y-127521623D01*
X56759687Y-127513228D01*
X56805020Y-127494451D01*
X56823497Y-127487840D01*
X56870452Y-127473596D01*
X56889495Y-127468826D01*
X56937620Y-127459254D01*
X56957029Y-127456375D01*
X57005860Y-127451565D01*
X57025466Y-127450602D01*
X57043888Y-127450602D01*
X57050000Y-127450000D01*
X57550000Y-127450000D01*
X57556112Y-127450602D01*
X57574534Y-127450602D01*
X57594140Y-127451565D01*
X57642971Y-127456375D01*
X57662380Y-127459254D01*
X57710505Y-127468826D01*
X57729548Y-127473596D01*
X57776503Y-127487840D01*
X57794980Y-127494451D01*
X57840313Y-127513228D01*
X57858061Y-127521623D01*
X57901334Y-127544754D01*
X57918162Y-127554840D01*
X57958961Y-127582100D01*
X57974730Y-127593795D01*
X58012659Y-127624923D01*
X58027200Y-127638103D01*
X58061897Y-127672800D01*
X58075077Y-127687341D01*
X58106205Y-127725270D01*
X58117900Y-127741039D01*
X58145160Y-127781838D01*
X58155246Y-127798666D01*
X58178377Y-127841939D01*
X58186772Y-127859687D01*
X58205549Y-127905020D01*
X58212160Y-127923497D01*
X58226404Y-127970452D01*
X58231174Y-127989495D01*
X58240746Y-128037620D01*
X58243625Y-128057029D01*
X58248435Y-128105860D01*
X58249398Y-128125466D01*
X58249398Y-128143888D01*
X58250000Y-128150000D01*
X58250000Y-128650000D01*
X58246157Y-128689018D01*
G37*
G36*
X58249398Y-129456112D02*
G01*
X58249398Y-129474534D01*
X58248435Y-129494140D01*
X58243625Y-129542971D01*
X58240746Y-129562380D01*
X58231174Y-129610505D01*
X58226404Y-129629548D01*
X58212160Y-129676503D01*
X58205549Y-129694980D01*
X58186772Y-129740313D01*
X58178377Y-129758061D01*
X58155246Y-129801334D01*
X58145160Y-129818162D01*
X58117900Y-129858961D01*
X58106205Y-129874730D01*
X58075077Y-129912659D01*
X58061897Y-129927200D01*
X58027200Y-129961897D01*
X58012659Y-129975077D01*
X57974730Y-130006205D01*
X57958961Y-130017900D01*
X57918162Y-130045160D01*
X57901334Y-130055246D01*
X57858061Y-130078377D01*
X57840313Y-130086772D01*
X57794980Y-130105549D01*
X57776503Y-130112160D01*
X57729548Y-130126404D01*
X57710505Y-130131174D01*
X57662380Y-130140746D01*
X57642971Y-130143625D01*
X57594140Y-130148435D01*
X57574534Y-130149398D01*
X57556112Y-130149398D01*
X57550000Y-130150000D01*
X57050000Y-130150000D01*
X57043888Y-130149398D01*
X57025466Y-130149398D01*
X57005860Y-130148435D01*
X56957029Y-130143625D01*
X56937620Y-130140746D01*
X56889495Y-130131174D01*
X56870452Y-130126404D01*
X56823497Y-130112160D01*
X56805020Y-130105549D01*
X56759687Y-130086772D01*
X56741939Y-130078377D01*
X56698666Y-130055246D01*
X56681838Y-130045160D01*
X56641039Y-130017900D01*
X56625270Y-130006205D01*
X56587341Y-129975077D01*
X56572800Y-129961897D01*
X56538103Y-129927200D01*
X56524923Y-129912659D01*
X56493795Y-129874730D01*
X56482100Y-129858961D01*
X56454840Y-129818162D01*
X56444754Y-129801334D01*
X56421623Y-129758061D01*
X56413228Y-129740313D01*
X56394451Y-129694980D01*
X56387840Y-129676503D01*
X56373596Y-129629548D01*
X56368826Y-129610505D01*
X56359254Y-129562380D01*
X56356375Y-129542971D01*
X56351565Y-129494140D01*
X56350602Y-129474534D01*
X56350602Y-129456112D01*
X56350000Y-129450000D01*
X56350000Y-128950000D01*
X56353843Y-128910982D01*
X56365224Y-128873463D01*
X56383706Y-128838886D01*
X56408579Y-128808579D01*
X56438886Y-128783706D01*
X56473463Y-128765224D01*
X56510982Y-128753843D01*
X56550000Y-128750000D01*
X58050000Y-128750000D01*
X58089018Y-128753843D01*
X58126537Y-128765224D01*
X58161114Y-128783706D01*
X58191421Y-128808579D01*
X58216294Y-128838886D01*
X58234776Y-128873463D01*
X58246157Y-128910982D01*
X58250000Y-128950000D01*
X58250000Y-129450000D01*
X58249398Y-129456112D01*
G37*
G36*
X58949398Y-40156112D02*
G01*
X58949398Y-40174534D01*
X58948435Y-40194140D01*
X58943625Y-40242971D01*
X58940746Y-40262380D01*
X58931174Y-40310505D01*
X58926404Y-40329548D01*
X58912160Y-40376503D01*
X58905549Y-40394980D01*
X58886772Y-40440313D01*
X58878377Y-40458061D01*
X58855246Y-40501334D01*
X58845160Y-40518162D01*
X58817900Y-40558961D01*
X58806205Y-40574730D01*
X58775077Y-40612659D01*
X58761897Y-40627200D01*
X58727200Y-40661897D01*
X58712659Y-40675077D01*
X58674730Y-40706205D01*
X58658961Y-40717900D01*
X58618162Y-40745160D01*
X58601334Y-40755246D01*
X58558061Y-40778377D01*
X58540313Y-40786772D01*
X58494980Y-40805549D01*
X58476503Y-40812160D01*
X58429548Y-40826404D01*
X58410505Y-40831174D01*
X58362380Y-40840746D01*
X58342971Y-40843625D01*
X58294140Y-40848435D01*
X58274534Y-40849398D01*
X58256112Y-40849398D01*
X58250000Y-40850000D01*
X57750000Y-40850000D01*
X57743888Y-40849398D01*
X57725466Y-40849398D01*
X57705860Y-40848435D01*
X57657029Y-40843625D01*
X57637620Y-40840746D01*
X57589495Y-40831174D01*
X57570452Y-40826404D01*
X57523497Y-40812160D01*
X57505020Y-40805549D01*
X57459687Y-40786772D01*
X57441939Y-40778377D01*
X57398666Y-40755246D01*
X57381838Y-40745160D01*
X57341039Y-40717900D01*
X57325270Y-40706205D01*
X57287341Y-40675077D01*
X57272800Y-40661897D01*
X57238103Y-40627200D01*
X57224923Y-40612659D01*
X57193795Y-40574730D01*
X57182100Y-40558961D01*
X57154840Y-40518162D01*
X57144754Y-40501334D01*
X57121623Y-40458061D01*
X57113228Y-40440313D01*
X57094451Y-40394980D01*
X57087840Y-40376503D01*
X57073596Y-40329548D01*
X57068826Y-40310505D01*
X57059254Y-40262380D01*
X57056375Y-40242971D01*
X57051565Y-40194140D01*
X57050602Y-40174534D01*
X57050602Y-40156112D01*
X57050000Y-40150000D01*
X57050000Y-39650000D01*
X57053843Y-39610982D01*
X57065224Y-39573463D01*
X57083706Y-39538886D01*
X57108579Y-39508579D01*
X57138886Y-39483706D01*
X57173463Y-39465224D01*
X57210982Y-39453843D01*
X57250000Y-39450000D01*
X58750000Y-39450000D01*
X58789018Y-39453843D01*
X58826537Y-39465224D01*
X58861114Y-39483706D01*
X58891421Y-39508579D01*
X58916294Y-39538886D01*
X58934776Y-39573463D01*
X58946157Y-39610982D01*
X58950000Y-39650000D01*
X58950000Y-40150000D01*
X58949398Y-40156112D01*
G37*
G36*
X58946157Y-39389018D02*
G01*
X58934776Y-39426537D01*
X58916294Y-39461114D01*
X58891421Y-39491421D01*
X58861114Y-39516294D01*
X58826537Y-39534776D01*
X58789018Y-39546157D01*
X58750000Y-39550000D01*
X57250000Y-39550000D01*
X57210982Y-39546157D01*
X57173463Y-39534776D01*
X57138886Y-39516294D01*
X57108579Y-39491421D01*
X57083706Y-39461114D01*
X57065224Y-39426537D01*
X57053843Y-39389018D01*
X57050000Y-39350000D01*
X57050000Y-38850000D01*
X57050602Y-38843888D01*
X57050602Y-38825466D01*
X57051565Y-38805860D01*
X57056375Y-38757029D01*
X57059254Y-38737620D01*
X57068826Y-38689495D01*
X57073596Y-38670452D01*
X57087840Y-38623497D01*
X57094451Y-38605020D01*
X57113228Y-38559687D01*
X57121623Y-38541939D01*
X57144754Y-38498666D01*
X57154840Y-38481838D01*
X57182100Y-38441039D01*
X57193795Y-38425270D01*
X57224923Y-38387341D01*
X57238103Y-38372800D01*
X57272800Y-38338103D01*
X57287341Y-38324923D01*
X57325270Y-38293795D01*
X57341039Y-38282100D01*
X57381838Y-38254840D01*
X57398666Y-38244754D01*
X57441939Y-38221623D01*
X57459687Y-38213228D01*
X57505020Y-38194451D01*
X57523497Y-38187840D01*
X57570452Y-38173596D01*
X57589495Y-38168826D01*
X57637620Y-38159254D01*
X57657029Y-38156375D01*
X57705860Y-38151565D01*
X57725466Y-38150602D01*
X57743888Y-38150602D01*
X57750000Y-38150000D01*
X58250000Y-38150000D01*
X58256112Y-38150602D01*
X58274534Y-38150602D01*
X58294140Y-38151565D01*
X58342971Y-38156375D01*
X58362380Y-38159254D01*
X58410505Y-38168826D01*
X58429548Y-38173596D01*
X58476503Y-38187840D01*
X58494980Y-38194451D01*
X58540313Y-38213228D01*
X58558061Y-38221623D01*
X58601334Y-38244754D01*
X58618162Y-38254840D01*
X58658961Y-38282100D01*
X58674730Y-38293795D01*
X58712659Y-38324923D01*
X58727200Y-38338103D01*
X58761897Y-38372800D01*
X58775077Y-38387341D01*
X58806205Y-38425270D01*
X58817900Y-38441039D01*
X58845160Y-38481838D01*
X58855246Y-38498666D01*
X58878377Y-38541939D01*
X58886772Y-38559687D01*
X58905549Y-38605020D01*
X58912160Y-38623497D01*
X58926404Y-38670452D01*
X58931174Y-38689495D01*
X58940746Y-38737620D01*
X58943625Y-38757029D01*
X58948435Y-38805860D01*
X58949398Y-38825466D01*
X58949398Y-38843888D01*
X58950000Y-38850000D01*
X58950000Y-39350000D01*
X58946157Y-39389018D01*
G37*
G36*
X60949398Y-129456112D02*
G01*
X60949398Y-129474534D01*
X60948435Y-129494140D01*
X60943625Y-129542971D01*
X60940746Y-129562380D01*
X60931174Y-129610505D01*
X60926404Y-129629548D01*
X60912160Y-129676503D01*
X60905549Y-129694980D01*
X60886772Y-129740313D01*
X60878377Y-129758061D01*
X60855246Y-129801334D01*
X60845160Y-129818162D01*
X60817900Y-129858961D01*
X60806205Y-129874730D01*
X60775077Y-129912659D01*
X60761897Y-129927200D01*
X60727200Y-129961897D01*
X60712659Y-129975077D01*
X60674730Y-130006205D01*
X60658961Y-130017900D01*
X60618162Y-130045160D01*
X60601334Y-130055246D01*
X60558061Y-130078377D01*
X60540313Y-130086772D01*
X60494980Y-130105549D01*
X60476503Y-130112160D01*
X60429548Y-130126404D01*
X60410505Y-130131174D01*
X60362380Y-130140746D01*
X60342971Y-130143625D01*
X60294140Y-130148435D01*
X60274534Y-130149398D01*
X60256112Y-130149398D01*
X60250000Y-130150000D01*
X59750000Y-130150000D01*
X59743888Y-130149398D01*
X59725466Y-130149398D01*
X59705860Y-130148435D01*
X59657029Y-130143625D01*
X59637620Y-130140746D01*
X59589495Y-130131174D01*
X59570452Y-130126404D01*
X59523497Y-130112160D01*
X59505020Y-130105549D01*
X59459687Y-130086772D01*
X59441939Y-130078377D01*
X59398666Y-130055246D01*
X59381838Y-130045160D01*
X59341039Y-130017900D01*
X59325270Y-130006205D01*
X59287341Y-129975077D01*
X59272800Y-129961897D01*
X59238103Y-129927200D01*
X59224923Y-129912659D01*
X59193795Y-129874730D01*
X59182100Y-129858961D01*
X59154840Y-129818162D01*
X59144754Y-129801334D01*
X59121623Y-129758061D01*
X59113228Y-129740313D01*
X59094451Y-129694980D01*
X59087840Y-129676503D01*
X59073596Y-129629548D01*
X59068826Y-129610505D01*
X59059254Y-129562380D01*
X59056375Y-129542971D01*
X59051565Y-129494140D01*
X59050602Y-129474534D01*
X59050602Y-129456112D01*
X59050000Y-129450000D01*
X59050000Y-128950000D01*
X59053843Y-128910982D01*
X59065224Y-128873463D01*
X59083706Y-128838886D01*
X59108579Y-128808579D01*
X59138886Y-128783706D01*
X59173463Y-128765224D01*
X59210982Y-128753843D01*
X59250000Y-128750000D01*
X60750000Y-128750000D01*
X60789018Y-128753843D01*
X60826537Y-128765224D01*
X60861114Y-128783706D01*
X60891421Y-128808579D01*
X60916294Y-128838886D01*
X60934776Y-128873463D01*
X60946157Y-128910982D01*
X60950000Y-128950000D01*
X60950000Y-129450000D01*
X60949398Y-129456112D01*
G37*
G36*
X60946157Y-128689018D02*
G01*
X60934776Y-128726537D01*
X60916294Y-128761114D01*
X60891421Y-128791421D01*
X60861114Y-128816294D01*
X60826537Y-128834776D01*
X60789018Y-128846157D01*
X60750000Y-128850000D01*
X59250000Y-128850000D01*
X59210982Y-128846157D01*
X59173463Y-128834776D01*
X59138886Y-128816294D01*
X59108579Y-128791421D01*
X59083706Y-128761114D01*
X59065224Y-128726537D01*
X59053843Y-128689018D01*
X59050000Y-128650000D01*
X59050000Y-128150000D01*
X59050602Y-128143888D01*
X59050602Y-128125466D01*
X59051565Y-128105860D01*
X59056375Y-128057029D01*
X59059254Y-128037620D01*
X59068826Y-127989495D01*
X59073596Y-127970452D01*
X59087840Y-127923497D01*
X59094451Y-127905020D01*
X59113228Y-127859687D01*
X59121623Y-127841939D01*
X59144754Y-127798666D01*
X59154840Y-127781838D01*
X59182100Y-127741039D01*
X59193795Y-127725270D01*
X59224923Y-127687341D01*
X59238103Y-127672800D01*
X59272800Y-127638103D01*
X59287341Y-127624923D01*
X59325270Y-127593795D01*
X59341039Y-127582100D01*
X59381838Y-127554840D01*
X59398666Y-127544754D01*
X59441939Y-127521623D01*
X59459687Y-127513228D01*
X59505020Y-127494451D01*
X59523497Y-127487840D01*
X59570452Y-127473596D01*
X59589495Y-127468826D01*
X59637620Y-127459254D01*
X59657029Y-127456375D01*
X59705860Y-127451565D01*
X59725466Y-127450602D01*
X59743888Y-127450602D01*
X59750000Y-127450000D01*
X60250000Y-127450000D01*
X60256112Y-127450602D01*
X60274534Y-127450602D01*
X60294140Y-127451565D01*
X60342971Y-127456375D01*
X60362380Y-127459254D01*
X60410505Y-127468826D01*
X60429548Y-127473596D01*
X60476503Y-127487840D01*
X60494980Y-127494451D01*
X60540313Y-127513228D01*
X60558061Y-127521623D01*
X60601334Y-127544754D01*
X60618162Y-127554840D01*
X60658961Y-127582100D01*
X60674730Y-127593795D01*
X60712659Y-127624923D01*
X60727200Y-127638103D01*
X60761897Y-127672800D01*
X60775077Y-127687341D01*
X60806205Y-127725270D01*
X60817900Y-127741039D01*
X60845160Y-127781838D01*
X60855246Y-127798666D01*
X60878377Y-127841939D01*
X60886772Y-127859687D01*
X60905549Y-127905020D01*
X60912160Y-127923497D01*
X60926404Y-127970452D01*
X60931174Y-127989495D01*
X60940746Y-128037620D01*
X60943625Y-128057029D01*
X60948435Y-128105860D01*
X60949398Y-128125466D01*
X60949398Y-128143888D01*
X60950000Y-128150000D01*
X60950000Y-128650000D01*
X60946157Y-128689018D01*
G37*
G36*
X64756112Y-118350602D02*
G01*
X64774534Y-118350602D01*
X64794140Y-118351565D01*
X64842971Y-118356375D01*
X64862380Y-118359254D01*
X64910505Y-118368826D01*
X64929548Y-118373596D01*
X64976503Y-118387840D01*
X64994980Y-118394451D01*
X65040313Y-118413228D01*
X65058061Y-118421623D01*
X65101334Y-118444754D01*
X65118162Y-118454840D01*
X65158961Y-118482100D01*
X65174730Y-118493795D01*
X65212659Y-118524923D01*
X65227200Y-118538103D01*
X65261897Y-118572800D01*
X65275077Y-118587341D01*
X65306205Y-118625270D01*
X65317900Y-118641039D01*
X65345160Y-118681838D01*
X65355246Y-118698666D01*
X65378377Y-118741939D01*
X65386772Y-118759687D01*
X65405549Y-118805020D01*
X65412160Y-118823497D01*
X65426404Y-118870452D01*
X65431174Y-118889495D01*
X65440746Y-118937620D01*
X65443625Y-118957029D01*
X65448435Y-119005860D01*
X65449398Y-119025466D01*
X65449398Y-119043888D01*
X65450000Y-119050000D01*
X65450000Y-119550000D01*
X65449398Y-119556112D01*
X65449398Y-119574534D01*
X65448435Y-119594140D01*
X65443625Y-119642971D01*
X65440746Y-119662380D01*
X65431174Y-119710505D01*
X65426404Y-119729548D01*
X65412160Y-119776503D01*
X65405549Y-119794980D01*
X65386772Y-119840313D01*
X65378377Y-119858061D01*
X65355246Y-119901334D01*
X65345160Y-119918162D01*
X65317900Y-119958961D01*
X65306205Y-119974730D01*
X65275077Y-120012659D01*
X65261897Y-120027200D01*
X65227200Y-120061897D01*
X65212659Y-120075077D01*
X65174730Y-120106205D01*
X65158961Y-120117900D01*
X65118162Y-120145160D01*
X65101334Y-120155246D01*
X65058061Y-120178377D01*
X65040313Y-120186772D01*
X64994980Y-120205549D01*
X64976503Y-120212160D01*
X64929548Y-120226404D01*
X64910505Y-120231174D01*
X64862380Y-120240746D01*
X64842971Y-120243625D01*
X64794140Y-120248435D01*
X64774534Y-120249398D01*
X64756112Y-120249398D01*
X64750000Y-120250000D01*
X64250000Y-120250000D01*
X64210982Y-120246157D01*
X64173463Y-120234776D01*
X64138886Y-120216294D01*
X64108579Y-120191421D01*
X64083706Y-120161114D01*
X64065224Y-120126537D01*
X64053843Y-120089018D01*
X64050000Y-120050000D01*
X64050000Y-118550000D01*
X64053843Y-118510982D01*
X64065224Y-118473463D01*
X64083706Y-118438886D01*
X64108579Y-118408579D01*
X64138886Y-118383706D01*
X64173463Y-118365224D01*
X64210982Y-118353843D01*
X64250000Y-118350000D01*
X64750000Y-118350000D01*
X64756112Y-118350602D01*
G37*
G36*
X63989018Y-118353843D02*
G01*
X64026537Y-118365224D01*
X64061114Y-118383706D01*
X64091421Y-118408579D01*
X64116294Y-118438886D01*
X64134776Y-118473463D01*
X64146157Y-118510982D01*
X64150000Y-118550000D01*
X64150000Y-120050000D01*
X64146157Y-120089018D01*
X64134776Y-120126537D01*
X64116294Y-120161114D01*
X64091421Y-120191421D01*
X64061114Y-120216294D01*
X64026537Y-120234776D01*
X63989018Y-120246157D01*
X63950000Y-120250000D01*
X63450000Y-120250000D01*
X63443888Y-120249398D01*
X63425466Y-120249398D01*
X63405860Y-120248435D01*
X63357029Y-120243625D01*
X63337620Y-120240746D01*
X63289495Y-120231174D01*
X63270452Y-120226404D01*
X63223497Y-120212160D01*
X63205020Y-120205549D01*
X63159687Y-120186772D01*
X63141939Y-120178377D01*
X63098666Y-120155246D01*
X63081838Y-120145160D01*
X63041039Y-120117900D01*
X63025270Y-120106205D01*
X62987341Y-120075077D01*
X62972800Y-120061897D01*
X62938103Y-120027200D01*
X62924923Y-120012659D01*
X62893795Y-119974730D01*
X62882100Y-119958961D01*
X62854840Y-119918162D01*
X62844754Y-119901334D01*
X62821623Y-119858061D01*
X62813228Y-119840313D01*
X62794451Y-119794980D01*
X62787840Y-119776503D01*
X62773596Y-119729548D01*
X62768826Y-119710505D01*
X62759254Y-119662380D01*
X62756375Y-119642971D01*
X62751565Y-119594140D01*
X62750602Y-119574534D01*
X62750602Y-119556112D01*
X62750000Y-119550000D01*
X62750000Y-119050000D01*
X62750602Y-119043888D01*
X62750602Y-119025466D01*
X62751565Y-119005860D01*
X62756375Y-118957029D01*
X62759254Y-118937620D01*
X62768826Y-118889495D01*
X62773596Y-118870452D01*
X62787840Y-118823497D01*
X62794451Y-118805020D01*
X62813228Y-118759687D01*
X62821623Y-118741939D01*
X62844754Y-118698666D01*
X62854840Y-118681838D01*
X62882100Y-118641039D01*
X62893795Y-118625270D01*
X62924923Y-118587341D01*
X62938103Y-118572800D01*
X62972800Y-118538103D01*
X62987341Y-118524923D01*
X63025270Y-118493795D01*
X63041039Y-118482100D01*
X63081838Y-118454840D01*
X63098666Y-118444754D01*
X63141939Y-118421623D01*
X63159687Y-118413228D01*
X63205020Y-118394451D01*
X63223497Y-118387840D01*
X63270452Y-118373596D01*
X63289495Y-118368826D01*
X63337620Y-118359254D01*
X63357029Y-118356375D01*
X63405860Y-118351565D01*
X63425466Y-118350602D01*
X63443888Y-118350602D01*
X63450000Y-118350000D01*
X63950000Y-118350000D01*
X63989018Y-118353843D01*
G37*
G36*
X63989018Y-121453843D02*
G01*
X64026537Y-121465224D01*
X64061114Y-121483706D01*
X64091421Y-121508579D01*
X64116294Y-121538886D01*
X64134776Y-121573463D01*
X64146157Y-121610982D01*
X64150000Y-121650000D01*
X64150000Y-123150000D01*
X64146157Y-123189018D01*
X64134776Y-123226537D01*
X64116294Y-123261114D01*
X64091421Y-123291421D01*
X64061114Y-123316294D01*
X64026537Y-123334776D01*
X63989018Y-123346157D01*
X63950000Y-123350000D01*
X63450000Y-123350000D01*
X63443888Y-123349398D01*
X63425466Y-123349398D01*
X63405860Y-123348435D01*
X63357029Y-123343625D01*
X63337620Y-123340746D01*
X63289495Y-123331174D01*
X63270452Y-123326404D01*
X63223497Y-123312160D01*
X63205020Y-123305549D01*
X63159687Y-123286772D01*
X63141939Y-123278377D01*
X63098666Y-123255246D01*
X63081838Y-123245160D01*
X63041039Y-123217900D01*
X63025270Y-123206205D01*
X62987341Y-123175077D01*
X62972800Y-123161897D01*
X62938103Y-123127200D01*
X62924923Y-123112659D01*
X62893795Y-123074730D01*
X62882100Y-123058961D01*
X62854840Y-123018162D01*
X62844754Y-123001334D01*
X62821623Y-122958061D01*
X62813228Y-122940313D01*
X62794451Y-122894980D01*
X62787840Y-122876503D01*
X62773596Y-122829548D01*
X62768826Y-122810505D01*
X62759254Y-122762380D01*
X62756375Y-122742971D01*
X62751565Y-122694140D01*
X62750602Y-122674534D01*
X62750602Y-122656112D01*
X62750000Y-122650000D01*
X62750000Y-122150000D01*
X62750602Y-122143888D01*
X62750602Y-122125466D01*
X62751565Y-122105860D01*
X62756375Y-122057029D01*
X62759254Y-122037620D01*
X62768826Y-121989495D01*
X62773596Y-121970452D01*
X62787840Y-121923497D01*
X62794451Y-121905020D01*
X62813228Y-121859687D01*
X62821623Y-121841939D01*
X62844754Y-121798666D01*
X62854840Y-121781838D01*
X62882100Y-121741039D01*
X62893795Y-121725270D01*
X62924923Y-121687341D01*
X62938103Y-121672800D01*
X62972800Y-121638103D01*
X62987341Y-121624923D01*
X63025270Y-121593795D01*
X63041039Y-121582100D01*
X63081838Y-121554840D01*
X63098666Y-121544754D01*
X63141939Y-121521623D01*
X63159687Y-121513228D01*
X63205020Y-121494451D01*
X63223497Y-121487840D01*
X63270452Y-121473596D01*
X63289495Y-121468826D01*
X63337620Y-121459254D01*
X63357029Y-121456375D01*
X63405860Y-121451565D01*
X63425466Y-121450602D01*
X63443888Y-121450602D01*
X63450000Y-121450000D01*
X63950000Y-121450000D01*
X63989018Y-121453843D01*
G37*
G36*
X64756112Y-121450602D02*
G01*
X64774534Y-121450602D01*
X64794140Y-121451565D01*
X64842971Y-121456375D01*
X64862380Y-121459254D01*
X64910505Y-121468826D01*
X64929548Y-121473596D01*
X64976503Y-121487840D01*
X64994980Y-121494451D01*
X65040313Y-121513228D01*
X65058061Y-121521623D01*
X65101334Y-121544754D01*
X65118162Y-121554840D01*
X65158961Y-121582100D01*
X65174730Y-121593795D01*
X65212659Y-121624923D01*
X65227200Y-121638103D01*
X65261897Y-121672800D01*
X65275077Y-121687341D01*
X65306205Y-121725270D01*
X65317900Y-121741039D01*
X65345160Y-121781838D01*
X65355246Y-121798666D01*
X65378377Y-121841939D01*
X65386772Y-121859687D01*
X65405549Y-121905020D01*
X65412160Y-121923497D01*
X65426404Y-121970452D01*
X65431174Y-121989495D01*
X65440746Y-122037620D01*
X65443625Y-122057029D01*
X65448435Y-122105860D01*
X65449398Y-122125466D01*
X65449398Y-122143888D01*
X65450000Y-122150000D01*
X65450000Y-122650000D01*
X65449398Y-122656112D01*
X65449398Y-122674534D01*
X65448435Y-122694140D01*
X65443625Y-122742971D01*
X65440746Y-122762380D01*
X65431174Y-122810505D01*
X65426404Y-122829548D01*
X65412160Y-122876503D01*
X65405549Y-122894980D01*
X65386772Y-122940313D01*
X65378377Y-122958061D01*
X65355246Y-123001334D01*
X65345160Y-123018162D01*
X65317900Y-123058961D01*
X65306205Y-123074730D01*
X65275077Y-123112659D01*
X65261897Y-123127200D01*
X65227200Y-123161897D01*
X65212659Y-123175077D01*
X65174730Y-123206205D01*
X65158961Y-123217900D01*
X65118162Y-123245160D01*
X65101334Y-123255246D01*
X65058061Y-123278377D01*
X65040313Y-123286772D01*
X64994980Y-123305549D01*
X64976503Y-123312160D01*
X64929548Y-123326404D01*
X64910505Y-123331174D01*
X64862380Y-123340746D01*
X64842971Y-123343625D01*
X64794140Y-123348435D01*
X64774534Y-123349398D01*
X64756112Y-123349398D01*
X64750000Y-123350000D01*
X64250000Y-123350000D01*
X64210982Y-123346157D01*
X64173463Y-123334776D01*
X64138886Y-123316294D01*
X64108579Y-123291421D01*
X64083706Y-123261114D01*
X64065224Y-123226537D01*
X64053843Y-123189018D01*
X64050000Y-123150000D01*
X64050000Y-121650000D01*
X64053843Y-121610982D01*
X64065224Y-121573463D01*
X64083706Y-121538886D01*
X64108579Y-121508579D01*
X64138886Y-121483706D01*
X64173463Y-121465224D01*
X64210982Y-121453843D01*
X64250000Y-121450000D01*
X64750000Y-121450000D01*
X64756112Y-121450602D01*
G37*
G36*
X62139018Y-38303843D02*
G01*
X62176537Y-38315224D01*
X62211114Y-38333706D01*
X62241421Y-38358579D01*
X62266294Y-38388886D01*
X62284776Y-38423463D01*
X62296157Y-38460982D01*
X62300000Y-38500000D01*
X62300000Y-40000000D01*
X62296157Y-40039018D01*
X62284776Y-40076537D01*
X62266294Y-40111114D01*
X62241421Y-40141421D01*
X62211114Y-40166294D01*
X62176537Y-40184776D01*
X62139018Y-40196157D01*
X62100000Y-40200000D01*
X61600000Y-40200000D01*
X61593888Y-40199398D01*
X61575466Y-40199398D01*
X61555860Y-40198435D01*
X61507029Y-40193625D01*
X61487620Y-40190746D01*
X61439495Y-40181174D01*
X61420452Y-40176404D01*
X61373497Y-40162160D01*
X61355020Y-40155549D01*
X61309687Y-40136772D01*
X61291939Y-40128377D01*
X61248666Y-40105246D01*
X61231838Y-40095160D01*
X61191039Y-40067900D01*
X61175270Y-40056205D01*
X61137341Y-40025077D01*
X61122800Y-40011897D01*
X61088103Y-39977200D01*
X61074923Y-39962659D01*
X61043795Y-39924730D01*
X61032100Y-39908961D01*
X61004840Y-39868162D01*
X60994754Y-39851334D01*
X60971623Y-39808061D01*
X60963228Y-39790313D01*
X60944451Y-39744980D01*
X60937840Y-39726503D01*
X60923596Y-39679548D01*
X60918826Y-39660505D01*
X60909254Y-39612380D01*
X60906375Y-39592971D01*
X60901565Y-39544140D01*
X60900602Y-39524534D01*
X60900602Y-39506112D01*
X60900000Y-39500000D01*
X60900000Y-39000000D01*
X60900602Y-38993888D01*
X60900602Y-38975466D01*
X60901565Y-38955860D01*
X60906375Y-38907029D01*
X60909254Y-38887620D01*
X60918826Y-38839495D01*
X60923596Y-38820452D01*
X60937840Y-38773497D01*
X60944451Y-38755020D01*
X60963228Y-38709687D01*
X60971623Y-38691939D01*
X60994754Y-38648666D01*
X61004840Y-38631838D01*
X61032100Y-38591039D01*
X61043795Y-38575270D01*
X61074923Y-38537341D01*
X61088103Y-38522800D01*
X61122800Y-38488103D01*
X61137341Y-38474923D01*
X61175270Y-38443795D01*
X61191039Y-38432100D01*
X61231838Y-38404840D01*
X61248666Y-38394754D01*
X61291939Y-38371623D01*
X61309687Y-38363228D01*
X61355020Y-38344451D01*
X61373497Y-38337840D01*
X61420452Y-38323596D01*
X61439495Y-38318826D01*
X61487620Y-38309254D01*
X61507029Y-38306375D01*
X61555860Y-38301565D01*
X61575466Y-38300602D01*
X61593888Y-38300602D01*
X61600000Y-38300000D01*
X62100000Y-38300000D01*
X62139018Y-38303843D01*
G37*
G36*
X62906112Y-38300602D02*
G01*
X62924534Y-38300602D01*
X62944140Y-38301565D01*
X62992971Y-38306375D01*
X63012380Y-38309254D01*
X63060505Y-38318826D01*
X63079548Y-38323596D01*
X63126503Y-38337840D01*
X63144980Y-38344451D01*
X63190313Y-38363228D01*
X63208061Y-38371623D01*
X63251334Y-38394754D01*
X63268162Y-38404840D01*
X63308961Y-38432100D01*
X63324730Y-38443795D01*
X63362659Y-38474923D01*
X63377200Y-38488103D01*
X63411897Y-38522800D01*
X63425077Y-38537341D01*
X63456205Y-38575270D01*
X63467900Y-38591039D01*
X63495160Y-38631838D01*
X63505246Y-38648666D01*
X63528377Y-38691939D01*
X63536772Y-38709687D01*
X63555549Y-38755020D01*
X63562160Y-38773497D01*
X63576404Y-38820452D01*
X63581174Y-38839495D01*
X63590746Y-38887620D01*
X63593625Y-38907029D01*
X63598435Y-38955860D01*
X63599398Y-38975466D01*
X63599398Y-38993888D01*
X63600000Y-39000000D01*
X63600000Y-39500000D01*
X63599398Y-39506112D01*
X63599398Y-39524534D01*
X63598435Y-39544140D01*
X63593625Y-39592971D01*
X63590746Y-39612380D01*
X63581174Y-39660505D01*
X63576404Y-39679548D01*
X63562160Y-39726503D01*
X63555549Y-39744980D01*
X63536772Y-39790313D01*
X63528377Y-39808061D01*
X63505246Y-39851334D01*
X63495160Y-39868162D01*
X63467900Y-39908961D01*
X63456205Y-39924730D01*
X63425077Y-39962659D01*
X63411897Y-39977200D01*
X63377200Y-40011897D01*
X63362659Y-40025077D01*
X63324730Y-40056205D01*
X63308961Y-40067900D01*
X63268162Y-40095160D01*
X63251334Y-40105246D01*
X63208061Y-40128377D01*
X63190313Y-40136772D01*
X63144980Y-40155549D01*
X63126503Y-40162160D01*
X63079548Y-40176404D01*
X63060505Y-40181174D01*
X63012380Y-40190746D01*
X62992971Y-40193625D01*
X62944140Y-40198435D01*
X62924534Y-40199398D01*
X62906112Y-40199398D01*
X62900000Y-40200000D01*
X62400000Y-40200000D01*
X62360982Y-40196157D01*
X62323463Y-40184776D01*
X62288886Y-40166294D01*
X62258579Y-40141421D01*
X62233706Y-40111114D01*
X62215224Y-40076537D01*
X62203843Y-40039018D01*
X62200000Y-40000000D01*
X62200000Y-38500000D01*
X62203843Y-38460982D01*
X62215224Y-38423463D01*
X62233706Y-38388886D01*
X62258579Y-38358579D01*
X62288886Y-38333706D01*
X62323463Y-38315224D01*
X62360982Y-38303843D01*
X62400000Y-38300000D01*
X62900000Y-38300000D01*
X62906112Y-38300602D01*
G37*
G36*
X62139018Y-40803843D02*
G01*
X62176537Y-40815224D01*
X62211114Y-40833706D01*
X62241421Y-40858579D01*
X62266294Y-40888886D01*
X62284776Y-40923463D01*
X62296157Y-40960982D01*
X62300000Y-41000000D01*
X62300000Y-42500000D01*
X62296157Y-42539018D01*
X62284776Y-42576537D01*
X62266294Y-42611114D01*
X62241421Y-42641421D01*
X62211114Y-42666294D01*
X62176537Y-42684776D01*
X62139018Y-42696157D01*
X62100000Y-42700000D01*
X61600000Y-42700000D01*
X61593888Y-42699398D01*
X61575466Y-42699398D01*
X61555860Y-42698435D01*
X61507029Y-42693625D01*
X61487620Y-42690746D01*
X61439495Y-42681174D01*
X61420452Y-42676404D01*
X61373497Y-42662160D01*
X61355020Y-42655549D01*
X61309687Y-42636772D01*
X61291939Y-42628377D01*
X61248666Y-42605246D01*
X61231838Y-42595160D01*
X61191039Y-42567900D01*
X61175270Y-42556205D01*
X61137341Y-42525077D01*
X61122800Y-42511897D01*
X61088103Y-42477200D01*
X61074923Y-42462659D01*
X61043795Y-42424730D01*
X61032100Y-42408961D01*
X61004840Y-42368162D01*
X60994754Y-42351334D01*
X60971623Y-42308061D01*
X60963228Y-42290313D01*
X60944451Y-42244980D01*
X60937840Y-42226503D01*
X60923596Y-42179548D01*
X60918826Y-42160505D01*
X60909254Y-42112380D01*
X60906375Y-42092971D01*
X60901565Y-42044140D01*
X60900602Y-42024534D01*
X60900602Y-42006112D01*
X60900000Y-42000000D01*
X60900000Y-41500000D01*
X60900602Y-41493888D01*
X60900602Y-41475466D01*
X60901565Y-41455860D01*
X60906375Y-41407029D01*
X60909254Y-41387620D01*
X60918826Y-41339495D01*
X60923596Y-41320452D01*
X60937840Y-41273497D01*
X60944451Y-41255020D01*
X60963228Y-41209687D01*
X60971623Y-41191939D01*
X60994754Y-41148666D01*
X61004840Y-41131838D01*
X61032100Y-41091039D01*
X61043795Y-41075270D01*
X61074923Y-41037341D01*
X61088103Y-41022800D01*
X61122800Y-40988103D01*
X61137341Y-40974923D01*
X61175270Y-40943795D01*
X61191039Y-40932100D01*
X61231838Y-40904840D01*
X61248666Y-40894754D01*
X61291939Y-40871623D01*
X61309687Y-40863228D01*
X61355020Y-40844451D01*
X61373497Y-40837840D01*
X61420452Y-40823596D01*
X61439495Y-40818826D01*
X61487620Y-40809254D01*
X61507029Y-40806375D01*
X61555860Y-40801565D01*
X61575466Y-40800602D01*
X61593888Y-40800602D01*
X61600000Y-40800000D01*
X62100000Y-40800000D01*
X62139018Y-40803843D01*
G37*
G36*
X62906112Y-40800602D02*
G01*
X62924534Y-40800602D01*
X62944140Y-40801565D01*
X62992971Y-40806375D01*
X63012380Y-40809254D01*
X63060505Y-40818826D01*
X63079548Y-40823596D01*
X63126503Y-40837840D01*
X63144980Y-40844451D01*
X63190313Y-40863228D01*
X63208061Y-40871623D01*
X63251334Y-40894754D01*
X63268162Y-40904840D01*
X63308961Y-40932100D01*
X63324730Y-40943795D01*
X63362659Y-40974923D01*
X63377200Y-40988103D01*
X63411897Y-41022800D01*
X63425077Y-41037341D01*
X63456205Y-41075270D01*
X63467900Y-41091039D01*
X63495160Y-41131838D01*
X63505246Y-41148666D01*
X63528377Y-41191939D01*
X63536772Y-41209687D01*
X63555549Y-41255020D01*
X63562160Y-41273497D01*
X63576404Y-41320452D01*
X63581174Y-41339495D01*
X63590746Y-41387620D01*
X63593625Y-41407029D01*
X63598435Y-41455860D01*
X63599398Y-41475466D01*
X63599398Y-41493888D01*
X63600000Y-41500000D01*
X63600000Y-42000000D01*
X63599398Y-42006112D01*
X63599398Y-42024534D01*
X63598435Y-42044140D01*
X63593625Y-42092971D01*
X63590746Y-42112380D01*
X63581174Y-42160505D01*
X63576404Y-42179548D01*
X63562160Y-42226503D01*
X63555549Y-42244980D01*
X63536772Y-42290313D01*
X63528377Y-42308061D01*
X63505246Y-42351334D01*
X63495160Y-42368162D01*
X63467900Y-42408961D01*
X63456205Y-42424730D01*
X63425077Y-42462659D01*
X63411897Y-42477200D01*
X63377200Y-42511897D01*
X63362659Y-42525077D01*
X63324730Y-42556205D01*
X63308961Y-42567900D01*
X63268162Y-42595160D01*
X63251334Y-42605246D01*
X63208061Y-42628377D01*
X63190313Y-42636772D01*
X63144980Y-42655549D01*
X63126503Y-42662160D01*
X63079548Y-42676404D01*
X63060505Y-42681174D01*
X63012380Y-42690746D01*
X62992971Y-42693625D01*
X62944140Y-42698435D01*
X62924534Y-42699398D01*
X62906112Y-42699398D01*
X62900000Y-42700000D01*
X62400000Y-42700000D01*
X62360982Y-42696157D01*
X62323463Y-42684776D01*
X62288886Y-42666294D01*
X62258579Y-42641421D01*
X62233706Y-42611114D01*
X62215224Y-42576537D01*
X62203843Y-42539018D01*
X62200000Y-42500000D01*
X62200000Y-41000000D01*
X62203843Y-40960982D01*
X62215224Y-40923463D01*
X62233706Y-40888886D01*
X62258579Y-40858579D01*
X62288886Y-40833706D01*
X62323463Y-40815224D01*
X62360982Y-40803843D01*
X62400000Y-40800000D01*
X62900000Y-40800000D01*
X62906112Y-40800602D01*
G37*
G36*
G01*
X80679500Y-73406600D02*
X80229500Y-73406600D01*
G75*
G02*
X80029500Y-73206600I0J200000D01*
G01*
X80029500Y-72606600D01*
G75*
G02*
X80229500Y-72406600I200000J0D01*
G01*
X80679500Y-72406600D01*
G75*
G02*
X80879500Y-72606600I0J-200000D01*
G01*
X80879500Y-73206600D01*
G75*
G02*
X80679500Y-73406600I-200000J0D01*
G01*
G37*
G36*
G01*
X80679500Y-71306600D02*
X80229500Y-71306600D01*
G75*
G02*
X80029500Y-71106600I0J200000D01*
G01*
X80029500Y-70506600D01*
G75*
G02*
X80229500Y-70306600I200000J0D01*
G01*
X80679500Y-70306600D01*
G75*
G02*
X80879500Y-70506600I0J-200000D01*
G01*
X80879500Y-71106600D01*
G75*
G02*
X80679500Y-71306600I-200000J0D01*
G01*
G37*
M02*
