G04 #@! TF.GenerationSoftware,KiCad,Pcbnew,(5.1.5)-3*
G04 #@! TF.CreationDate,2020-09-25T16:27:22+02:00*
G04 #@! TF.ProjectId,RedPitaya_Lockbox,52656450-6974-4617-9961-5f4c6f636b62,1.4*
G04 #@! TF.SameCoordinates,Original*
G04 #@! TF.FileFunction,Legend,Bot*
G04 #@! TF.FilePolarity,Positive*
%FSLAX46Y46*%
G04 Gerber Fmt 4.6, Leading zero omitted, Abs format (unit mm)*
G04 Created by KiCad (PCBNEW (5.1.5)-3) date 2020-09-25 16:27:22*
%MOMM*%
%LPD*%
G04 APERTURE LIST*
%ADD10C,0.300000*%
%ADD11C,0.010000*%
G04 APERTURE END LIST*
D10*
X228888571Y-82012857D02*
X227388571Y-82012857D01*
X227388571Y-82370000D01*
X227460000Y-82584285D01*
X227602857Y-82727142D01*
X227745714Y-82798571D01*
X228031428Y-82870000D01*
X228245714Y-82870000D01*
X228531428Y-82798571D01*
X228674285Y-82727142D01*
X228817142Y-82584285D01*
X228888571Y-82370000D01*
X228888571Y-82012857D01*
X228817142Y-84084285D02*
X228888571Y-83941428D01*
X228888571Y-83655714D01*
X228817142Y-83512857D01*
X228674285Y-83441428D01*
X228102857Y-83441428D01*
X227960000Y-83512857D01*
X227888571Y-83655714D01*
X227888571Y-83941428D01*
X227960000Y-84084285D01*
X228102857Y-84155714D01*
X228245714Y-84155714D01*
X228388571Y-83441428D01*
X228817142Y-84727142D02*
X228888571Y-84870000D01*
X228888571Y-85155714D01*
X228817142Y-85298571D01*
X228674285Y-85370000D01*
X228602857Y-85370000D01*
X228460000Y-85298571D01*
X228388571Y-85155714D01*
X228388571Y-84941428D01*
X228317142Y-84798571D01*
X228174285Y-84727142D01*
X228102857Y-84727142D01*
X227960000Y-84798571D01*
X227888571Y-84941428D01*
X227888571Y-85155714D01*
X227960000Y-85298571D01*
X228888571Y-86012857D02*
X227888571Y-86012857D01*
X227388571Y-86012857D02*
X227460000Y-85941428D01*
X227531428Y-86012857D01*
X227460000Y-86084285D01*
X227388571Y-86012857D01*
X227531428Y-86012857D01*
X227888571Y-87370000D02*
X229102857Y-87370000D01*
X229245714Y-87298571D01*
X229317142Y-87227142D01*
X229388571Y-87084285D01*
X229388571Y-86870000D01*
X229317142Y-86727142D01*
X228817142Y-87370000D02*
X228888571Y-87227142D01*
X228888571Y-86941428D01*
X228817142Y-86798571D01*
X228745714Y-86727142D01*
X228602857Y-86655714D01*
X228174285Y-86655714D01*
X228031428Y-86727142D01*
X227960000Y-86798571D01*
X227888571Y-86941428D01*
X227888571Y-87227142D01*
X227960000Y-87370000D01*
X227888571Y-88084285D02*
X228888571Y-88084285D01*
X228031428Y-88084285D02*
X227960000Y-88155714D01*
X227888571Y-88298571D01*
X227888571Y-88512857D01*
X227960000Y-88655714D01*
X228102857Y-88727142D01*
X228888571Y-88727142D01*
X228888571Y-90584285D02*
X227388571Y-90584285D01*
X227960000Y-90584285D02*
X227888571Y-90727142D01*
X227888571Y-91012857D01*
X227960000Y-91155714D01*
X228031428Y-91227142D01*
X228174285Y-91298571D01*
X228602857Y-91298571D01*
X228745714Y-91227142D01*
X228817142Y-91155714D01*
X228888571Y-91012857D01*
X228888571Y-90727142D01*
X228817142Y-90584285D01*
X227888571Y-91798571D02*
X228888571Y-92155714D01*
X227888571Y-92512857D02*
X228888571Y-92155714D01*
X229245714Y-92012857D01*
X229317142Y-91941428D01*
X229388571Y-91798571D01*
X228745714Y-93084285D02*
X228817142Y-93155714D01*
X228888571Y-93084285D01*
X228817142Y-93012857D01*
X228745714Y-93084285D01*
X228888571Y-93084285D01*
X227960000Y-93084285D02*
X228031428Y-93155714D01*
X228102857Y-93084285D01*
X228031428Y-93012857D01*
X227960000Y-93084285D01*
X228102857Y-93084285D01*
X227388571Y-94727142D02*
X227388571Y-95584285D01*
X228888571Y-95155714D02*
X227388571Y-95155714D01*
X228888571Y-96084285D02*
X227888571Y-96084285D01*
X227388571Y-96084285D02*
X227460000Y-96012857D01*
X227531428Y-96084285D01*
X227460000Y-96155714D01*
X227388571Y-96084285D01*
X227531428Y-96084285D01*
X228888571Y-97012857D02*
X228817142Y-96870000D01*
X228674285Y-96798571D01*
X227388571Y-96798571D01*
X228888571Y-97584285D02*
X227888571Y-97584285D01*
X228031428Y-97584285D02*
X227960000Y-97655714D01*
X227888571Y-97798571D01*
X227888571Y-98012857D01*
X227960000Y-98155714D01*
X228102857Y-98227142D01*
X228888571Y-98227142D01*
X228102857Y-98227142D02*
X227960000Y-98298571D01*
X227888571Y-98441428D01*
X227888571Y-98655714D01*
X227960000Y-98798571D01*
X228102857Y-98870000D01*
X228888571Y-98870000D01*
X228888571Y-100227142D02*
X228102857Y-100227142D01*
X227960000Y-100155714D01*
X227888571Y-100012857D01*
X227888571Y-99727142D01*
X227960000Y-99584285D01*
X228817142Y-100227142D02*
X228888571Y-100084285D01*
X228888571Y-99727142D01*
X228817142Y-99584285D01*
X228674285Y-99512857D01*
X228531428Y-99512857D01*
X228388571Y-99584285D01*
X228317142Y-99727142D01*
X228317142Y-100084285D01*
X228245714Y-100227142D01*
X227888571Y-100941428D02*
X228888571Y-100941428D01*
X228031428Y-100941428D02*
X227960000Y-101012857D01*
X227888571Y-101155714D01*
X227888571Y-101370000D01*
X227960000Y-101512857D01*
X228102857Y-101584285D01*
X228888571Y-101584285D01*
X228888571Y-103441428D02*
X227388571Y-103441428D01*
X227388571Y-104012857D01*
X227460000Y-104155714D01*
X227531428Y-104227142D01*
X227674285Y-104298571D01*
X227888571Y-104298571D01*
X228031428Y-104227142D01*
X228102857Y-104155714D01*
X228174285Y-104012857D01*
X228174285Y-103441428D01*
X228888571Y-104941428D02*
X227888571Y-104941428D01*
X228174285Y-104941428D02*
X228031428Y-105012857D01*
X227960000Y-105084285D01*
X227888571Y-105227142D01*
X227888571Y-105370000D01*
X228817142Y-106441428D02*
X228888571Y-106298571D01*
X228888571Y-106012857D01*
X228817142Y-105870000D01*
X228674285Y-105798571D01*
X228102857Y-105798571D01*
X227960000Y-105870000D01*
X227888571Y-106012857D01*
X227888571Y-106298571D01*
X227960000Y-106441428D01*
X228102857Y-106512857D01*
X228245714Y-106512857D01*
X228388571Y-105798571D01*
X227888571Y-107798571D02*
X228888571Y-107798571D01*
X227888571Y-107155714D02*
X228674285Y-107155714D01*
X228817142Y-107227142D01*
X228888571Y-107370000D01*
X228888571Y-107584285D01*
X228817142Y-107727142D01*
X228745714Y-107798571D01*
X228817142Y-108441428D02*
X228888571Y-108584285D01*
X228888571Y-108870000D01*
X228817142Y-109012857D01*
X228674285Y-109084285D01*
X228602857Y-109084285D01*
X228460000Y-109012857D01*
X228388571Y-108870000D01*
X228388571Y-108655714D01*
X228317142Y-108512857D01*
X228174285Y-108441428D01*
X228102857Y-108441428D01*
X227960000Y-108512857D01*
X227888571Y-108655714D01*
X227888571Y-108870000D01*
X227960000Y-109012857D01*
X228817142Y-110370000D02*
X228888571Y-110227142D01*
X228888571Y-109941428D01*
X228817142Y-109798571D01*
X228745714Y-109727142D01*
X228602857Y-109655714D01*
X228174285Y-109655714D01*
X228031428Y-109727142D01*
X227960000Y-109798571D01*
X227888571Y-109941428D01*
X227888571Y-110227142D01*
X227960000Y-110370000D01*
X228888571Y-111012857D02*
X227388571Y-111012857D01*
X228888571Y-111655714D02*
X228102857Y-111655714D01*
X227960000Y-111584285D01*
X227888571Y-111441428D01*
X227888571Y-111227142D01*
X227960000Y-111084285D01*
X228031428Y-111012857D01*
X228888571Y-112584285D02*
X228817142Y-112441428D01*
X228745714Y-112370000D01*
X228602857Y-112298571D01*
X228174285Y-112298571D01*
X228031428Y-112370000D01*
X227960000Y-112441428D01*
X227888571Y-112584285D01*
X227888571Y-112798571D01*
X227960000Y-112941428D01*
X228031428Y-113012857D01*
X228174285Y-113084285D01*
X228602857Y-113084285D01*
X228745714Y-113012857D01*
X228817142Y-112941428D01*
X228888571Y-112798571D01*
X228888571Y-112584285D01*
X227888571Y-113512857D02*
X227888571Y-114084285D01*
X228888571Y-113727142D02*
X227602857Y-113727142D01*
X227460000Y-113798571D01*
X227388571Y-113941428D01*
X227388571Y-114084285D01*
X227888571Y-114370000D02*
X227888571Y-114941428D01*
X228888571Y-114584285D02*
X227602857Y-114584285D01*
X227460000Y-114655714D01*
X227388571Y-114798571D01*
X227388571Y-114941428D01*
D11*
G36*
X229039184Y-117091241D02*
G01*
X229052282Y-117117753D01*
X229075106Y-117150447D01*
X229099996Y-117174275D01*
X229131249Y-117190594D01*
X229173166Y-117200760D01*
X229230044Y-117206128D01*
X229306184Y-117208056D01*
X229338917Y-117208169D01*
X229410656Y-117207839D01*
X229461927Y-117206473D01*
X229497404Y-117203500D01*
X229521763Y-117198351D01*
X229539680Y-117190457D01*
X229551902Y-117182243D01*
X229603905Y-117129813D01*
X229635184Y-117068070D01*
X229644592Y-117001464D01*
X229630980Y-116934442D01*
X229621354Y-116913208D01*
X229594859Y-116862376D01*
X230010052Y-116862376D01*
X229990868Y-116899475D01*
X229976025Y-116948357D01*
X229972222Y-117008439D01*
X229979243Y-117068436D01*
X229995013Y-117113744D01*
X230025047Y-117151325D01*
X230068024Y-117183436D01*
X230072436Y-117185850D01*
X230093221Y-117196033D01*
X230114170Y-117203470D01*
X230139548Y-117208589D01*
X230173618Y-117211819D01*
X230220641Y-117213587D01*
X230284882Y-117214323D01*
X230357176Y-117214456D01*
X230587822Y-117214456D01*
X230587822Y-117076139D01*
X230162533Y-117076139D01*
X230129979Y-117037451D01*
X230103940Y-116997262D01*
X230099205Y-116959203D01*
X230111389Y-116920934D01*
X230123320Y-116900538D01*
X230140313Y-116885358D01*
X230165995Y-116874562D01*
X230203991Y-116867317D01*
X230257926Y-116862792D01*
X230331425Y-116860156D01*
X230380347Y-116859228D01*
X230581535Y-116856089D01*
X230585336Y-116790074D01*
X230589136Y-116724060D01*
X229340650Y-116724060D01*
X229340650Y-116862376D01*
X229410254Y-116865903D01*
X229458569Y-116877785D01*
X229488631Y-116899980D01*
X229503471Y-116934441D01*
X229506436Y-116969258D01*
X229503028Y-117008671D01*
X229489617Y-117034829D01*
X229471896Y-117051186D01*
X229452835Y-117064063D01*
X229431601Y-117071728D01*
X229401849Y-117075139D01*
X229357236Y-117075251D01*
X229319880Y-117074103D01*
X229263604Y-117071468D01*
X229226658Y-117067544D01*
X229203223Y-117060937D01*
X229187480Y-117050251D01*
X229178380Y-117040167D01*
X229158537Y-116998030D01*
X229155332Y-116948160D01*
X229162168Y-116919524D01*
X229186464Y-116891172D01*
X229233728Y-116872391D01*
X229303624Y-116863288D01*
X229340650Y-116862376D01*
X229340650Y-116724060D01*
X229028614Y-116724060D01*
X229028614Y-116793218D01*
X229030256Y-116834740D01*
X229036087Y-116856162D01*
X229047461Y-116862374D01*
X229047798Y-116862376D01*
X229058938Y-116865258D01*
X229057673Y-116877970D01*
X229045433Y-116903243D01*
X229026707Y-116962131D01*
X229024739Y-117028385D01*
X229039184Y-117091241D01*
G37*
X229039184Y-117091241D02*
X229052282Y-117117753D01*
X229075106Y-117150447D01*
X229099996Y-117174275D01*
X229131249Y-117190594D01*
X229173166Y-117200760D01*
X229230044Y-117206128D01*
X229306184Y-117208056D01*
X229338917Y-117208169D01*
X229410656Y-117207839D01*
X229461927Y-117206473D01*
X229497404Y-117203500D01*
X229521763Y-117198351D01*
X229539680Y-117190457D01*
X229551902Y-117182243D01*
X229603905Y-117129813D01*
X229635184Y-117068070D01*
X229644592Y-117001464D01*
X229630980Y-116934442D01*
X229621354Y-116913208D01*
X229594859Y-116862376D01*
X230010052Y-116862376D01*
X229990868Y-116899475D01*
X229976025Y-116948357D01*
X229972222Y-117008439D01*
X229979243Y-117068436D01*
X229995013Y-117113744D01*
X230025047Y-117151325D01*
X230068024Y-117183436D01*
X230072436Y-117185850D01*
X230093221Y-117196033D01*
X230114170Y-117203470D01*
X230139548Y-117208589D01*
X230173618Y-117211819D01*
X230220641Y-117213587D01*
X230284882Y-117214323D01*
X230357176Y-117214456D01*
X230587822Y-117214456D01*
X230587822Y-117076139D01*
X230162533Y-117076139D01*
X230129979Y-117037451D01*
X230103940Y-116997262D01*
X230099205Y-116959203D01*
X230111389Y-116920934D01*
X230123320Y-116900538D01*
X230140313Y-116885358D01*
X230165995Y-116874562D01*
X230203991Y-116867317D01*
X230257926Y-116862792D01*
X230331425Y-116860156D01*
X230380347Y-116859228D01*
X230581535Y-116856089D01*
X230585336Y-116790074D01*
X230589136Y-116724060D01*
X229340650Y-116724060D01*
X229340650Y-116862376D01*
X229410254Y-116865903D01*
X229458569Y-116877785D01*
X229488631Y-116899980D01*
X229503471Y-116934441D01*
X229506436Y-116969258D01*
X229503028Y-117008671D01*
X229489617Y-117034829D01*
X229471896Y-117051186D01*
X229452835Y-117064063D01*
X229431601Y-117071728D01*
X229401849Y-117075139D01*
X229357236Y-117075251D01*
X229319880Y-117074103D01*
X229263604Y-117071468D01*
X229226658Y-117067544D01*
X229203223Y-117060937D01*
X229187480Y-117050251D01*
X229178380Y-117040167D01*
X229158537Y-116998030D01*
X229155332Y-116948160D01*
X229162168Y-116919524D01*
X229186464Y-116891172D01*
X229233728Y-116872391D01*
X229303624Y-116863288D01*
X229340650Y-116862376D01*
X229340650Y-116724060D01*
X229028614Y-116724060D01*
X229028614Y-116793218D01*
X229030256Y-116834740D01*
X229036087Y-116856162D01*
X229047461Y-116862374D01*
X229047798Y-116862376D01*
X229058938Y-116865258D01*
X229057673Y-116877970D01*
X229045433Y-116903243D01*
X229026707Y-116962131D01*
X229024739Y-117028385D01*
X229039184Y-117091241D01*
G36*
X229976555Y-117615790D02*
G01*
X229992339Y-117674945D01*
X230020948Y-117719977D01*
X230058419Y-117751754D01*
X230074411Y-117761634D01*
X230091163Y-117768927D01*
X230112592Y-117774026D01*
X230142616Y-117777321D01*
X230185154Y-117779203D01*
X230244122Y-117780063D01*
X230323440Y-117780293D01*
X230344484Y-117780297D01*
X230587822Y-117780297D01*
X230587822Y-117719941D01*
X230585126Y-117681443D01*
X230578295Y-117652977D01*
X230574083Y-117645845D01*
X230566813Y-117626348D01*
X230574083Y-117606434D01*
X230583160Y-117573647D01*
X230586813Y-117526022D01*
X230585228Y-117473236D01*
X230578589Y-117424964D01*
X230570072Y-117396782D01*
X230535063Y-117342247D01*
X230486479Y-117308165D01*
X230421882Y-117292843D01*
X230420223Y-117292701D01*
X230391566Y-117294045D01*
X230391566Y-117415644D01*
X230424161Y-117426274D01*
X230442505Y-117443590D01*
X230456379Y-117478348D01*
X230461917Y-117524227D01*
X230459191Y-117571012D01*
X230448274Y-117608486D01*
X230441269Y-117618985D01*
X230408904Y-117637332D01*
X230372111Y-117641980D01*
X230323763Y-117641980D01*
X230323763Y-117572418D01*
X230328850Y-117506333D01*
X230343263Y-117456236D01*
X230365729Y-117425071D01*
X230391566Y-117415644D01*
X230391566Y-117294045D01*
X230349647Y-117296013D01*
X230293845Y-117319290D01*
X230251647Y-117363052D01*
X230247808Y-117369101D01*
X230235309Y-117395093D01*
X230227740Y-117427265D01*
X230224061Y-117472240D01*
X230223216Y-117525669D01*
X230223169Y-117641980D01*
X230174411Y-117641980D01*
X230136581Y-117637047D01*
X230111236Y-117624457D01*
X230109887Y-117622983D01*
X230098800Y-117594966D01*
X230094503Y-117552674D01*
X230096615Y-117505936D01*
X230104756Y-117464582D01*
X230116965Y-117440043D01*
X230126746Y-117426747D01*
X230128613Y-117412706D01*
X230120600Y-117393329D01*
X230100739Y-117364024D01*
X230067063Y-117320197D01*
X230063909Y-117316175D01*
X230052236Y-117318236D01*
X230032822Y-117335432D01*
X230011248Y-117361567D01*
X229993096Y-117390448D01*
X229988809Y-117399522D01*
X229980256Y-117432620D01*
X229974155Y-117481120D01*
X229971708Y-117535305D01*
X229971703Y-117537839D01*
X229976555Y-117615790D01*
G37*
X229976555Y-117615790D02*
X229992339Y-117674945D01*
X230020948Y-117719977D01*
X230058419Y-117751754D01*
X230074411Y-117761634D01*
X230091163Y-117768927D01*
X230112592Y-117774026D01*
X230142616Y-117777321D01*
X230185154Y-117779203D01*
X230244122Y-117780063D01*
X230323440Y-117780293D01*
X230344484Y-117780297D01*
X230587822Y-117780297D01*
X230587822Y-117719941D01*
X230585126Y-117681443D01*
X230578295Y-117652977D01*
X230574083Y-117645845D01*
X230566813Y-117626348D01*
X230574083Y-117606434D01*
X230583160Y-117573647D01*
X230586813Y-117526022D01*
X230585228Y-117473236D01*
X230578589Y-117424964D01*
X230570072Y-117396782D01*
X230535063Y-117342247D01*
X230486479Y-117308165D01*
X230421882Y-117292843D01*
X230420223Y-117292701D01*
X230391566Y-117294045D01*
X230391566Y-117415644D01*
X230424161Y-117426274D01*
X230442505Y-117443590D01*
X230456379Y-117478348D01*
X230461917Y-117524227D01*
X230459191Y-117571012D01*
X230448274Y-117608486D01*
X230441269Y-117618985D01*
X230408904Y-117637332D01*
X230372111Y-117641980D01*
X230323763Y-117641980D01*
X230323763Y-117572418D01*
X230328850Y-117506333D01*
X230343263Y-117456236D01*
X230365729Y-117425071D01*
X230391566Y-117415644D01*
X230391566Y-117294045D01*
X230349647Y-117296013D01*
X230293845Y-117319290D01*
X230251647Y-117363052D01*
X230247808Y-117369101D01*
X230235309Y-117395093D01*
X230227740Y-117427265D01*
X230224061Y-117472240D01*
X230223216Y-117525669D01*
X230223169Y-117641980D01*
X230174411Y-117641980D01*
X230136581Y-117637047D01*
X230111236Y-117624457D01*
X230109887Y-117622983D01*
X230098800Y-117594966D01*
X230094503Y-117552674D01*
X230096615Y-117505936D01*
X230104756Y-117464582D01*
X230116965Y-117440043D01*
X230126746Y-117426747D01*
X230128613Y-117412706D01*
X230120600Y-117393329D01*
X230100739Y-117364024D01*
X230067063Y-117320197D01*
X230063909Y-117316175D01*
X230052236Y-117318236D01*
X230032822Y-117335432D01*
X230011248Y-117361567D01*
X229993096Y-117390448D01*
X229988809Y-117399522D01*
X229980256Y-117432620D01*
X229974155Y-117481120D01*
X229971708Y-117535305D01*
X229971703Y-117537839D01*
X229976555Y-117615790D01*
G36*
X229973020Y-118006644D02*
G01*
X229978660Y-118025461D01*
X229991053Y-118031527D01*
X229996647Y-118031782D01*
X230012230Y-118032871D01*
X230014676Y-118040368D01*
X230003993Y-118060619D01*
X229996694Y-118072649D01*
X229981063Y-118110600D01*
X229973334Y-118155928D01*
X229972740Y-118203456D01*
X229978513Y-118248005D01*
X229989884Y-118284398D01*
X230006088Y-118307457D01*
X230026355Y-118312004D01*
X230031843Y-118309709D01*
X230054626Y-118292980D01*
X230082647Y-118267037D01*
X230087177Y-118262345D01*
X230108005Y-118237617D01*
X230114735Y-118216282D01*
X230110038Y-118186445D01*
X230106917Y-118174492D01*
X230099421Y-118137295D01*
X230102792Y-118111141D01*
X230114681Y-118089054D01*
X230130635Y-118068822D01*
X230150700Y-118053921D01*
X230178702Y-118043566D01*
X230218467Y-118036971D01*
X230273823Y-118033351D01*
X230348594Y-118031922D01*
X230393740Y-118031782D01*
X230587822Y-118031782D01*
X230587822Y-117906040D01*
X229971683Y-117906040D01*
X229971683Y-117968911D01*
X229973020Y-118006644D01*
G37*
X229973020Y-118006644D02*
X229978660Y-118025461D01*
X229991053Y-118031527D01*
X229996647Y-118031782D01*
X230012230Y-118032871D01*
X230014676Y-118040368D01*
X230003993Y-118060619D01*
X229996694Y-118072649D01*
X229981063Y-118110600D01*
X229973334Y-118155928D01*
X229972740Y-118203456D01*
X229978513Y-118248005D01*
X229989884Y-118284398D01*
X230006088Y-118307457D01*
X230026355Y-118312004D01*
X230031843Y-118309709D01*
X230054626Y-118292980D01*
X230082647Y-118267037D01*
X230087177Y-118262345D01*
X230108005Y-118237617D01*
X230114735Y-118216282D01*
X230110038Y-118186445D01*
X230106917Y-118174492D01*
X230099421Y-118137295D01*
X230102792Y-118111141D01*
X230114681Y-118089054D01*
X230130635Y-118068822D01*
X230150700Y-118053921D01*
X230178702Y-118043566D01*
X230218467Y-118036971D01*
X230273823Y-118033351D01*
X230348594Y-118031922D01*
X230393740Y-118031782D01*
X230587822Y-118031782D01*
X230587822Y-117906040D01*
X229971683Y-117906040D01*
X229971683Y-117968911D01*
X229973020Y-118006644D01*
G36*
X230587822Y-118798812D02*
G01*
X230587822Y-118729654D01*
X230586645Y-118689512D01*
X230581772Y-118668606D01*
X230571186Y-118661078D01*
X230564029Y-118660495D01*
X230549676Y-118659226D01*
X230546923Y-118651221D01*
X230555771Y-118630185D01*
X230564029Y-118613827D01*
X230583597Y-118551023D01*
X230584729Y-118482752D01*
X230570135Y-118427248D01*
X230534877Y-118375562D01*
X230482835Y-118336162D01*
X230421450Y-118314587D01*
X230418018Y-118314038D01*
X230380571Y-118310833D01*
X230326813Y-118309239D01*
X230286155Y-118309367D01*
X230286155Y-118446721D01*
X230340194Y-118449903D01*
X230384735Y-118457141D01*
X230409888Y-118466940D01*
X230444260Y-118504011D01*
X230456582Y-118548026D01*
X230446618Y-118593416D01*
X230416895Y-118632203D01*
X230396905Y-118646892D01*
X230373050Y-118655481D01*
X230338230Y-118659504D01*
X230285930Y-118660495D01*
X230234139Y-118658722D01*
X230188634Y-118654037D01*
X230158181Y-118647397D01*
X230155452Y-118646290D01*
X230123000Y-118619509D01*
X230105183Y-118580421D01*
X230102306Y-118536685D01*
X230114674Y-118495962D01*
X230142593Y-118465913D01*
X230148148Y-118462796D01*
X230182022Y-118453039D01*
X230230728Y-118447723D01*
X230286155Y-118446721D01*
X230286155Y-118309367D01*
X230265540Y-118309432D01*
X230232563Y-118310336D01*
X230150981Y-118316486D01*
X230089730Y-118329267D01*
X230044449Y-118350529D01*
X230010779Y-118382122D01*
X229991014Y-118412793D01*
X229977120Y-118455646D01*
X229972354Y-118508944D01*
X229976236Y-118563520D01*
X229988282Y-118610208D01*
X230002693Y-118634876D01*
X230025878Y-118660495D01*
X229732773Y-118660495D01*
X229732773Y-118798812D01*
X230587822Y-118798812D01*
G37*
X230587822Y-118798812D02*
X230587822Y-118729654D01*
X230586645Y-118689512D01*
X230581772Y-118668606D01*
X230571186Y-118661078D01*
X230564029Y-118660495D01*
X230549676Y-118659226D01*
X230546923Y-118651221D01*
X230555771Y-118630185D01*
X230564029Y-118613827D01*
X230583597Y-118551023D01*
X230584729Y-118482752D01*
X230570135Y-118427248D01*
X230534877Y-118375562D01*
X230482835Y-118336162D01*
X230421450Y-118314587D01*
X230418018Y-118314038D01*
X230380571Y-118310833D01*
X230326813Y-118309239D01*
X230286155Y-118309367D01*
X230286155Y-118446721D01*
X230340194Y-118449903D01*
X230384735Y-118457141D01*
X230409888Y-118466940D01*
X230444260Y-118504011D01*
X230456582Y-118548026D01*
X230446618Y-118593416D01*
X230416895Y-118632203D01*
X230396905Y-118646892D01*
X230373050Y-118655481D01*
X230338230Y-118659504D01*
X230285930Y-118660495D01*
X230234139Y-118658722D01*
X230188634Y-118654037D01*
X230158181Y-118647397D01*
X230155452Y-118646290D01*
X230123000Y-118619509D01*
X230105183Y-118580421D01*
X230102306Y-118536685D01*
X230114674Y-118495962D01*
X230142593Y-118465913D01*
X230148148Y-118462796D01*
X230182022Y-118453039D01*
X230230728Y-118447723D01*
X230286155Y-118446721D01*
X230286155Y-118309367D01*
X230265540Y-118309432D01*
X230232563Y-118310336D01*
X230150981Y-118316486D01*
X230089730Y-118329267D01*
X230044449Y-118350529D01*
X230010779Y-118382122D01*
X229991014Y-118412793D01*
X229977120Y-118455646D01*
X229972354Y-118508944D01*
X229976236Y-118563520D01*
X229988282Y-118610208D01*
X230002693Y-118634876D01*
X230025878Y-118660495D01*
X229732773Y-118660495D01*
X229732773Y-118798812D01*
X230587822Y-118798812D01*
G36*
X229974237Y-119281524D02*
G01*
X229977971Y-119331255D01*
X230367773Y-119461291D01*
X230298614Y-119481678D01*
X230255874Y-119493946D01*
X230198115Y-119510085D01*
X230134625Y-119527512D01*
X230100570Y-119536726D01*
X229971683Y-119571388D01*
X229971683Y-119714391D01*
X230106857Y-119671646D01*
X230173342Y-119650596D01*
X230253539Y-119625167D01*
X230337193Y-119598610D01*
X230411782Y-119574902D01*
X230581535Y-119520902D01*
X230585328Y-119462598D01*
X230589122Y-119404295D01*
X230484734Y-119372679D01*
X230419889Y-119353182D01*
X230348400Y-119331904D01*
X230285263Y-119313308D01*
X230282750Y-119312574D01*
X230239969Y-119298684D01*
X230210779Y-119286429D01*
X230199741Y-119277846D01*
X230201018Y-119276082D01*
X230218130Y-119269891D01*
X230254787Y-119258128D01*
X230306378Y-119242225D01*
X230368294Y-119223614D01*
X230402352Y-119213543D01*
X230587822Y-119159007D01*
X230587822Y-119043264D01*
X230295471Y-118950737D01*
X230213462Y-118924744D01*
X230138987Y-118901066D01*
X230075544Y-118880820D01*
X230026632Y-118865126D01*
X229995749Y-118855102D01*
X229986726Y-118852055D01*
X229977487Y-118854467D01*
X229973441Y-118873408D01*
X229973846Y-118912823D01*
X229974152Y-118918993D01*
X229977971Y-118992086D01*
X230154010Y-119039957D01*
X230218211Y-119057553D01*
X230274649Y-119073277D01*
X230318422Y-119085746D01*
X230344630Y-119093574D01*
X230348903Y-119095020D01*
X230343990Y-119101014D01*
X230318532Y-119113101D01*
X230275997Y-119129893D01*
X230219850Y-119150003D01*
X230169130Y-119167003D01*
X229970504Y-119231794D01*
X229974237Y-119281524D01*
G37*
X229974237Y-119281524D02*
X229977971Y-119331255D01*
X230367773Y-119461291D01*
X230298614Y-119481678D01*
X230255874Y-119493946D01*
X230198115Y-119510085D01*
X230134625Y-119527512D01*
X230100570Y-119536726D01*
X229971683Y-119571388D01*
X229971683Y-119714391D01*
X230106857Y-119671646D01*
X230173342Y-119650596D01*
X230253539Y-119625167D01*
X230337193Y-119598610D01*
X230411782Y-119574902D01*
X230581535Y-119520902D01*
X230585328Y-119462598D01*
X230589122Y-119404295D01*
X230484734Y-119372679D01*
X230419889Y-119353182D01*
X230348400Y-119331904D01*
X230285263Y-119313308D01*
X230282750Y-119312574D01*
X230239969Y-119298684D01*
X230210779Y-119286429D01*
X230199741Y-119277846D01*
X230201018Y-119276082D01*
X230218130Y-119269891D01*
X230254787Y-119258128D01*
X230306378Y-119242225D01*
X230368294Y-119223614D01*
X230402352Y-119213543D01*
X230587822Y-119159007D01*
X230587822Y-119043264D01*
X230295471Y-118950737D01*
X230213462Y-118924744D01*
X230138987Y-118901066D01*
X230075544Y-118880820D01*
X230026632Y-118865126D01*
X229995749Y-118855102D01*
X229986726Y-118852055D01*
X229977487Y-118854467D01*
X229973441Y-118873408D01*
X229973846Y-118912823D01*
X229974152Y-118918993D01*
X229977971Y-118992086D01*
X230154010Y-119039957D01*
X230218211Y-119057553D01*
X230274649Y-119073277D01*
X230318422Y-119085746D01*
X230344630Y-119093574D01*
X230348903Y-119095020D01*
X230343990Y-119101014D01*
X230318532Y-119113101D01*
X230275997Y-119129893D01*
X230219850Y-119150003D01*
X230169130Y-119167003D01*
X229970504Y-119231794D01*
X229974237Y-119281524D01*
G36*
X229975417Y-120038411D02*
G01*
X229988290Y-120091411D01*
X229995110Y-120106731D01*
X230012974Y-120136428D01*
X230033093Y-120159220D01*
X230058962Y-120176083D01*
X230094073Y-120187998D01*
X230141920Y-120195942D01*
X230205996Y-120200894D01*
X230289794Y-120203831D01*
X230345768Y-120204947D01*
X230587822Y-120209052D01*
X230587822Y-120138932D01*
X230586038Y-120096393D01*
X230579942Y-120074476D01*
X230569706Y-120068812D01*
X230558637Y-120065821D01*
X230560754Y-120052451D01*
X230569629Y-120034233D01*
X230583233Y-119988624D01*
X230586899Y-119930007D01*
X230580903Y-119868354D01*
X230565521Y-119813638D01*
X230563386Y-119808730D01*
X230528255Y-119758723D01*
X230479419Y-119725756D01*
X230422333Y-119710587D01*
X230401824Y-119711746D01*
X230401824Y-119835508D01*
X230429425Y-119846413D01*
X230449204Y-119878745D01*
X230459819Y-119930910D01*
X230461228Y-119958787D01*
X230457620Y-120005247D01*
X230443597Y-120036129D01*
X230436931Y-120043664D01*
X230400666Y-120064076D01*
X230367773Y-120068812D01*
X230323763Y-120068812D01*
X230323763Y-120007513D01*
X230327395Y-119936256D01*
X230338818Y-119886276D01*
X230358824Y-119854696D01*
X230367743Y-119847626D01*
X230401824Y-119835508D01*
X230401824Y-119711746D01*
X230362456Y-119713971D01*
X230305244Y-119736663D01*
X230266580Y-119767624D01*
X230249864Y-119786376D01*
X230238878Y-119804733D01*
X230232180Y-119828619D01*
X230228326Y-119863957D01*
X230225873Y-119916669D01*
X230225168Y-119937577D01*
X230220879Y-120068812D01*
X230181158Y-120068620D01*
X230139405Y-120063537D01*
X230114158Y-120045162D01*
X230098030Y-120008039D01*
X230097742Y-120007043D01*
X230091400Y-119954410D01*
X230099684Y-119902906D01*
X230119827Y-119864630D01*
X230129773Y-119849272D01*
X230128397Y-119832730D01*
X230113987Y-119807275D01*
X230103817Y-119792328D01*
X230082088Y-119763091D01*
X230065800Y-119744980D01*
X230061137Y-119742074D01*
X230037005Y-119754040D01*
X230008185Y-119789396D01*
X229998461Y-119804753D01*
X229981714Y-119848901D01*
X229972227Y-119908398D01*
X229970095Y-119974487D01*
X229975417Y-120038411D01*
G37*
X229975417Y-120038411D02*
X229988290Y-120091411D01*
X229995110Y-120106731D01*
X230012974Y-120136428D01*
X230033093Y-120159220D01*
X230058962Y-120176083D01*
X230094073Y-120187998D01*
X230141920Y-120195942D01*
X230205996Y-120200894D01*
X230289794Y-120203831D01*
X230345768Y-120204947D01*
X230587822Y-120209052D01*
X230587822Y-120138932D01*
X230586038Y-120096393D01*
X230579942Y-120074476D01*
X230569706Y-120068812D01*
X230558637Y-120065821D01*
X230560754Y-120052451D01*
X230569629Y-120034233D01*
X230583233Y-119988624D01*
X230586899Y-119930007D01*
X230580903Y-119868354D01*
X230565521Y-119813638D01*
X230563386Y-119808730D01*
X230528255Y-119758723D01*
X230479419Y-119725756D01*
X230422333Y-119710587D01*
X230401824Y-119711746D01*
X230401824Y-119835508D01*
X230429425Y-119846413D01*
X230449204Y-119878745D01*
X230459819Y-119930910D01*
X230461228Y-119958787D01*
X230457620Y-120005247D01*
X230443597Y-120036129D01*
X230436931Y-120043664D01*
X230400666Y-120064076D01*
X230367773Y-120068812D01*
X230323763Y-120068812D01*
X230323763Y-120007513D01*
X230327395Y-119936256D01*
X230338818Y-119886276D01*
X230358824Y-119854696D01*
X230367743Y-119847626D01*
X230401824Y-119835508D01*
X230401824Y-119711746D01*
X230362456Y-119713971D01*
X230305244Y-119736663D01*
X230266580Y-119767624D01*
X230249864Y-119786376D01*
X230238878Y-119804733D01*
X230232180Y-119828619D01*
X230228326Y-119863957D01*
X230225873Y-119916669D01*
X230225168Y-119937577D01*
X230220879Y-120068812D01*
X230181158Y-120068620D01*
X230139405Y-120063537D01*
X230114158Y-120045162D01*
X230098030Y-120008039D01*
X230097742Y-120007043D01*
X230091400Y-119954410D01*
X230099684Y-119902906D01*
X230119827Y-119864630D01*
X230129773Y-119849272D01*
X230128397Y-119832730D01*
X230113987Y-119807275D01*
X230103817Y-119792328D01*
X230082088Y-119763091D01*
X230065800Y-119744980D01*
X230061137Y-119742074D01*
X230037005Y-119754040D01*
X230008185Y-119789396D01*
X229998461Y-119804753D01*
X229981714Y-119848901D01*
X229972227Y-119908398D01*
X229970095Y-119974487D01*
X229975417Y-120038411D01*
G36*
X229971486Y-120635255D02*
G01*
X229981015Y-120683595D01*
X229995125Y-120711114D01*
X230018568Y-120740064D01*
X230070571Y-120698876D01*
X230102064Y-120673482D01*
X230117428Y-120656238D01*
X230119776Y-120639102D01*
X230112217Y-120614027D01*
X230107941Y-120602257D01*
X230101631Y-120554270D01*
X230115156Y-120510324D01*
X230145710Y-120478060D01*
X230155452Y-120472819D01*
X230181258Y-120467112D01*
X230228817Y-120462706D01*
X230294758Y-120459811D01*
X230375710Y-120458631D01*
X230387226Y-120458614D01*
X230587822Y-120458614D01*
X230587822Y-120320297D01*
X229971683Y-120320297D01*
X229971683Y-120389456D01*
X229972725Y-120429333D01*
X229977358Y-120450107D01*
X229987849Y-120457789D01*
X229997745Y-120458614D01*
X230023806Y-120458614D01*
X229997745Y-120491745D01*
X229979965Y-120529735D01*
X229971174Y-120580770D01*
X229971486Y-120635255D01*
G37*
X229971486Y-120635255D02*
X229981015Y-120683595D01*
X229995125Y-120711114D01*
X230018568Y-120740064D01*
X230070571Y-120698876D01*
X230102064Y-120673482D01*
X230117428Y-120656238D01*
X230119776Y-120639102D01*
X230112217Y-120614027D01*
X230107941Y-120602257D01*
X230101631Y-120554270D01*
X230115156Y-120510324D01*
X230145710Y-120478060D01*
X230155452Y-120472819D01*
X230181258Y-120467112D01*
X230228817Y-120462706D01*
X230294758Y-120459811D01*
X230375710Y-120458631D01*
X230387226Y-120458614D01*
X230587822Y-120458614D01*
X230587822Y-120320297D01*
X229971683Y-120320297D01*
X229971683Y-120389456D01*
X229972725Y-120429333D01*
X229977358Y-120450107D01*
X229987849Y-120457789D01*
X229997745Y-120458614D01*
X230023806Y-120458614D01*
X229997745Y-120491745D01*
X229979965Y-120529735D01*
X229971174Y-120580770D01*
X229971486Y-120635255D01*
G36*
X229974970Y-121032581D02*
G01*
X229990597Y-121092685D01*
X230022848Y-121143021D01*
X230046940Y-121167393D01*
X230103895Y-121207345D01*
X230169965Y-121230242D01*
X230251182Y-121238108D01*
X230257748Y-121238148D01*
X230323763Y-121238218D01*
X230323763Y-120858264D01*
X230358342Y-120866363D01*
X230389659Y-120880987D01*
X230422291Y-120906581D01*
X230427500Y-120911935D01*
X230455694Y-120957943D01*
X230460475Y-121010410D01*
X230441926Y-121070803D01*
X230436931Y-121081040D01*
X230421745Y-121112439D01*
X230413094Y-121133470D01*
X230412293Y-121137139D01*
X230420063Y-121149948D01*
X230439072Y-121174378D01*
X230449460Y-121186779D01*
X230473321Y-121212476D01*
X230489077Y-121220915D01*
X230503571Y-121215058D01*
X230507534Y-121211928D01*
X230524879Y-121190725D01*
X230545959Y-121155738D01*
X230558265Y-121131337D01*
X230579946Y-121062072D01*
X230586971Y-120985388D01*
X230578647Y-120912765D01*
X230572686Y-120892426D01*
X230538952Y-120829476D01*
X230487045Y-120782815D01*
X230416459Y-120752173D01*
X230326692Y-120737282D01*
X230279753Y-120735647D01*
X230211413Y-120740421D01*
X230211413Y-120860990D01*
X230216465Y-120872652D01*
X230220429Y-120903998D01*
X230222768Y-120949571D01*
X230223169Y-120980446D01*
X230222783Y-121035981D01*
X230220975Y-121071033D01*
X230216773Y-121090262D01*
X230209203Y-121098330D01*
X230198218Y-121099901D01*
X230164381Y-121089121D01*
X230130940Y-121061980D01*
X230105272Y-121026277D01*
X230094772Y-120990560D01*
X230104086Y-120942048D01*
X230131013Y-120900053D01*
X230169827Y-120870936D01*
X230211413Y-120860990D01*
X230211413Y-120740421D01*
X230180236Y-120742599D01*
X230100949Y-120764055D01*
X230041263Y-120800470D01*
X230000549Y-120852297D01*
X229978179Y-120919990D01*
X229973871Y-120956662D01*
X229974970Y-121032581D01*
G37*
X229974970Y-121032581D02*
X229990597Y-121092685D01*
X230022848Y-121143021D01*
X230046940Y-121167393D01*
X230103895Y-121207345D01*
X230169965Y-121230242D01*
X230251182Y-121238108D01*
X230257748Y-121238148D01*
X230323763Y-121238218D01*
X230323763Y-120858264D01*
X230358342Y-120866363D01*
X230389659Y-120880987D01*
X230422291Y-120906581D01*
X230427500Y-120911935D01*
X230455694Y-120957943D01*
X230460475Y-121010410D01*
X230441926Y-121070803D01*
X230436931Y-121081040D01*
X230421745Y-121112439D01*
X230413094Y-121133470D01*
X230412293Y-121137139D01*
X230420063Y-121149948D01*
X230439072Y-121174378D01*
X230449460Y-121186779D01*
X230473321Y-121212476D01*
X230489077Y-121220915D01*
X230503571Y-121215058D01*
X230507534Y-121211928D01*
X230524879Y-121190725D01*
X230545959Y-121155738D01*
X230558265Y-121131337D01*
X230579946Y-121062072D01*
X230586971Y-120985388D01*
X230578647Y-120912765D01*
X230572686Y-120892426D01*
X230538952Y-120829476D01*
X230487045Y-120782815D01*
X230416459Y-120752173D01*
X230326692Y-120737282D01*
X230279753Y-120735647D01*
X230211413Y-120740421D01*
X230211413Y-120860990D01*
X230216465Y-120872652D01*
X230220429Y-120903998D01*
X230222768Y-120949571D01*
X230223169Y-120980446D01*
X230222783Y-121035981D01*
X230220975Y-121071033D01*
X230216773Y-121090262D01*
X230209203Y-121098330D01*
X230198218Y-121099901D01*
X230164381Y-121089121D01*
X230130940Y-121061980D01*
X230105272Y-121026277D01*
X230094772Y-120990560D01*
X230104086Y-120942048D01*
X230131013Y-120900053D01*
X230169827Y-120870936D01*
X230211413Y-120860990D01*
X230211413Y-120740421D01*
X230180236Y-120742599D01*
X230100949Y-120764055D01*
X230041263Y-120800470D01*
X230000549Y-120852297D01*
X229978179Y-120919990D01*
X229973871Y-120956662D01*
X229974970Y-121032581D01*
G36*
X229035148Y-116461739D02*
G01*
X229064231Y-116527521D01*
X229112793Y-116577460D01*
X229180908Y-116611626D01*
X229268651Y-116630093D01*
X229282351Y-116631417D01*
X229378939Y-116632454D01*
X229463602Y-116619007D01*
X229532221Y-116591892D01*
X229554294Y-116577373D01*
X229601011Y-116526799D01*
X229631268Y-116462391D01*
X229643824Y-116390334D01*
X229637439Y-116316815D01*
X229617772Y-116260928D01*
X229584629Y-116212868D01*
X229541175Y-116173588D01*
X229540158Y-116172908D01*
X229513338Y-116156956D01*
X229486368Y-116146590D01*
X229452332Y-116140312D01*
X229404310Y-116136627D01*
X229364931Y-116135003D01*
X229329219Y-116134328D01*
X229329219Y-116260045D01*
X229364770Y-116261274D01*
X229412094Y-116265734D01*
X229442465Y-116273603D01*
X229464072Y-116287793D01*
X229476694Y-116301083D01*
X229503122Y-116348198D01*
X229506653Y-116397495D01*
X229487639Y-116443407D01*
X229466331Y-116466362D01*
X229444859Y-116482904D01*
X229424313Y-116492579D01*
X229397574Y-116496826D01*
X229357523Y-116497080D01*
X229320638Y-116495772D01*
X229267947Y-116492957D01*
X229233772Y-116488495D01*
X229211480Y-116480452D01*
X229194442Y-116466897D01*
X229184703Y-116456155D01*
X229159123Y-116411223D01*
X229157847Y-116362751D01*
X229172999Y-116322106D01*
X229204642Y-116287433D01*
X229256620Y-116266776D01*
X229329219Y-116260045D01*
X229329219Y-116134328D01*
X229286621Y-116133521D01*
X229228056Y-116136052D01*
X229184007Y-116143638D01*
X229149248Y-116157319D01*
X229118551Y-116178135D01*
X229109436Y-116185853D01*
X229064021Y-116234111D01*
X229037493Y-116285872D01*
X229026379Y-116349172D01*
X229025471Y-116380039D01*
X229035148Y-116461739D01*
G37*
X229035148Y-116461739D02*
X229064231Y-116527521D01*
X229112793Y-116577460D01*
X229180908Y-116611626D01*
X229268651Y-116630093D01*
X229282351Y-116631417D01*
X229378939Y-116632454D01*
X229463602Y-116619007D01*
X229532221Y-116591892D01*
X229554294Y-116577373D01*
X229601011Y-116526799D01*
X229631268Y-116462391D01*
X229643824Y-116390334D01*
X229637439Y-116316815D01*
X229617772Y-116260928D01*
X229584629Y-116212868D01*
X229541175Y-116173588D01*
X229540158Y-116172908D01*
X229513338Y-116156956D01*
X229486368Y-116146590D01*
X229452332Y-116140312D01*
X229404310Y-116136627D01*
X229364931Y-116135003D01*
X229329219Y-116134328D01*
X229329219Y-116260045D01*
X229364770Y-116261274D01*
X229412094Y-116265734D01*
X229442465Y-116273603D01*
X229464072Y-116287793D01*
X229476694Y-116301083D01*
X229503122Y-116348198D01*
X229506653Y-116397495D01*
X229487639Y-116443407D01*
X229466331Y-116466362D01*
X229444859Y-116482904D01*
X229424313Y-116492579D01*
X229397574Y-116496826D01*
X229357523Y-116497080D01*
X229320638Y-116495772D01*
X229267947Y-116492957D01*
X229233772Y-116488495D01*
X229211480Y-116480452D01*
X229194442Y-116466897D01*
X229184703Y-116456155D01*
X229159123Y-116411223D01*
X229157847Y-116362751D01*
X229172999Y-116322106D01*
X229204642Y-116287433D01*
X229256620Y-116266776D01*
X229329219Y-116260045D01*
X229329219Y-116134328D01*
X229286621Y-116133521D01*
X229228056Y-116136052D01*
X229184007Y-116143638D01*
X229149248Y-116157319D01*
X229118551Y-116178135D01*
X229109436Y-116185853D01*
X229064021Y-116234111D01*
X229037493Y-116285872D01*
X229026379Y-116349172D01*
X229025471Y-116380039D01*
X229035148Y-116461739D01*
G36*
X229042614Y-117643301D02*
G01*
X229048514Y-117655832D01*
X229080283Y-117699201D01*
X229126646Y-117740210D01*
X229177696Y-117770832D01*
X229201166Y-117779541D01*
X229243091Y-117787488D01*
X229293757Y-117792226D01*
X229314679Y-117792801D01*
X229380693Y-117792871D01*
X229380693Y-117412917D01*
X229415273Y-117421017D01*
X229456170Y-117440896D01*
X229491514Y-117475653D01*
X229514282Y-117517002D01*
X229519010Y-117543351D01*
X229513273Y-117579084D01*
X229498882Y-117621718D01*
X229492262Y-117636201D01*
X229465513Y-117689760D01*
X229500376Y-117735467D01*
X229523955Y-117761842D01*
X229543417Y-117775876D01*
X229549129Y-117776586D01*
X229562973Y-117764049D01*
X229584012Y-117736572D01*
X229600425Y-117711634D01*
X229629930Y-117644336D01*
X229643284Y-117568890D01*
X229639812Y-117494112D01*
X229621663Y-117434505D01*
X229582784Y-117373059D01*
X229531595Y-117329392D01*
X229465367Y-117302074D01*
X229381371Y-117289678D01*
X229342936Y-117288579D01*
X229254861Y-117292978D01*
X229252299Y-117293518D01*
X229252299Y-117419418D01*
X229260558Y-117422885D01*
X229265113Y-117437137D01*
X229267065Y-117466530D01*
X229267517Y-117515425D01*
X229267525Y-117534252D01*
X229266843Y-117591533D01*
X229264364Y-117627859D01*
X229259443Y-117647396D01*
X229251434Y-117654310D01*
X229248862Y-117654555D01*
X229228423Y-117646664D01*
X229199789Y-117626915D01*
X229189763Y-117618425D01*
X229161408Y-117586906D01*
X229150259Y-117554051D01*
X229149327Y-117536349D01*
X229160981Y-117488461D01*
X229192285Y-117448301D01*
X229237752Y-117422827D01*
X229239233Y-117422375D01*
X229252299Y-117419418D01*
X229252299Y-117293518D01*
X229185510Y-117307608D01*
X229130025Y-117333962D01*
X229090639Y-117366193D01*
X229047931Y-117425783D01*
X229025109Y-117495832D01*
X229023046Y-117570339D01*
X229042614Y-117643301D01*
G37*
X229042614Y-117643301D02*
X229048514Y-117655832D01*
X229080283Y-117699201D01*
X229126646Y-117740210D01*
X229177696Y-117770832D01*
X229201166Y-117779541D01*
X229243091Y-117787488D01*
X229293757Y-117792226D01*
X229314679Y-117792801D01*
X229380693Y-117792871D01*
X229380693Y-117412917D01*
X229415273Y-117421017D01*
X229456170Y-117440896D01*
X229491514Y-117475653D01*
X229514282Y-117517002D01*
X229519010Y-117543351D01*
X229513273Y-117579084D01*
X229498882Y-117621718D01*
X229492262Y-117636201D01*
X229465513Y-117689760D01*
X229500376Y-117735467D01*
X229523955Y-117761842D01*
X229543417Y-117775876D01*
X229549129Y-117776586D01*
X229562973Y-117764049D01*
X229584012Y-117736572D01*
X229600425Y-117711634D01*
X229629930Y-117644336D01*
X229643284Y-117568890D01*
X229639812Y-117494112D01*
X229621663Y-117434505D01*
X229582784Y-117373059D01*
X229531595Y-117329392D01*
X229465367Y-117302074D01*
X229381371Y-117289678D01*
X229342936Y-117288579D01*
X229254861Y-117292978D01*
X229252299Y-117293518D01*
X229252299Y-117419418D01*
X229260558Y-117422885D01*
X229265113Y-117437137D01*
X229267065Y-117466530D01*
X229267517Y-117515425D01*
X229267525Y-117534252D01*
X229266843Y-117591533D01*
X229264364Y-117627859D01*
X229259443Y-117647396D01*
X229251434Y-117654310D01*
X229248862Y-117654555D01*
X229228423Y-117646664D01*
X229199789Y-117626915D01*
X229189763Y-117618425D01*
X229161408Y-117586906D01*
X229150259Y-117554051D01*
X229149327Y-117536349D01*
X229160981Y-117488461D01*
X229192285Y-117448301D01*
X229237752Y-117422827D01*
X229239233Y-117422375D01*
X229252299Y-117419418D01*
X229252299Y-117293518D01*
X229185510Y-117307608D01*
X229130025Y-117333962D01*
X229090639Y-117366193D01*
X229047931Y-117425783D01*
X229025109Y-117495832D01*
X229023046Y-117570339D01*
X229042614Y-117643301D01*
G36*
X229026452Y-119014017D02*
G01*
X229035482Y-119061634D01*
X229054370Y-119111034D01*
X229056777Y-119116312D01*
X229076476Y-119153774D01*
X229094781Y-119179717D01*
X229106508Y-119188103D01*
X229125632Y-119180117D01*
X229153850Y-119160720D01*
X229164384Y-119152110D01*
X229205847Y-119116628D01*
X229178858Y-119070885D01*
X229160878Y-119027350D01*
X229151267Y-118977050D01*
X229150660Y-118928812D01*
X229159691Y-118891467D01*
X229165327Y-118882505D01*
X229191171Y-118865437D01*
X229220941Y-118863363D01*
X229244197Y-118876134D01*
X229248708Y-118883688D01*
X229254309Y-118906325D01*
X229260892Y-118946115D01*
X229267183Y-118995166D01*
X229268170Y-119004215D01*
X229281798Y-119082996D01*
X229304946Y-119140136D01*
X229339752Y-119178030D01*
X229388354Y-119199079D01*
X229447718Y-119205635D01*
X229515198Y-119196577D01*
X229568188Y-119167164D01*
X229606783Y-119117278D01*
X229631081Y-119046800D01*
X229640667Y-118968565D01*
X229640552Y-118904766D01*
X229631845Y-118853016D01*
X229619825Y-118817673D01*
X229598880Y-118773017D01*
X229574574Y-118731747D01*
X229563876Y-118717079D01*
X229533084Y-118679357D01*
X229487049Y-118724852D01*
X229441013Y-118770347D01*
X229475243Y-118822072D01*
X229500952Y-118873952D01*
X229514399Y-118929351D01*
X229515818Y-118982605D01*
X229505443Y-119028049D01*
X229483507Y-119060016D01*
X229464998Y-119070338D01*
X229435314Y-119068789D01*
X229412615Y-119043140D01*
X229396940Y-118993460D01*
X229389695Y-118939031D01*
X229375873Y-118855264D01*
X229349796Y-118793033D01*
X229310699Y-118751507D01*
X229257820Y-118729853D01*
X229195126Y-118726853D01*
X229129642Y-118741671D01*
X229080144Y-118775454D01*
X229046408Y-118828505D01*
X229028207Y-118901126D01*
X229024639Y-118954928D01*
X229026452Y-119014017D01*
G37*
X229026452Y-119014017D02*
X229035482Y-119061634D01*
X229054370Y-119111034D01*
X229056777Y-119116312D01*
X229076476Y-119153774D01*
X229094781Y-119179717D01*
X229106508Y-119188103D01*
X229125632Y-119180117D01*
X229153850Y-119160720D01*
X229164384Y-119152110D01*
X229205847Y-119116628D01*
X229178858Y-119070885D01*
X229160878Y-119027350D01*
X229151267Y-118977050D01*
X229150660Y-118928812D01*
X229159691Y-118891467D01*
X229165327Y-118882505D01*
X229191171Y-118865437D01*
X229220941Y-118863363D01*
X229244197Y-118876134D01*
X229248708Y-118883688D01*
X229254309Y-118906325D01*
X229260892Y-118946115D01*
X229267183Y-118995166D01*
X229268170Y-119004215D01*
X229281798Y-119082996D01*
X229304946Y-119140136D01*
X229339752Y-119178030D01*
X229388354Y-119199079D01*
X229447718Y-119205635D01*
X229515198Y-119196577D01*
X229568188Y-119167164D01*
X229606783Y-119117278D01*
X229631081Y-119046800D01*
X229640667Y-118968565D01*
X229640552Y-118904766D01*
X229631845Y-118853016D01*
X229619825Y-118817673D01*
X229598880Y-118773017D01*
X229574574Y-118731747D01*
X229563876Y-118717079D01*
X229533084Y-118679357D01*
X229487049Y-118724852D01*
X229441013Y-118770347D01*
X229475243Y-118822072D01*
X229500952Y-118873952D01*
X229514399Y-118929351D01*
X229515818Y-118982605D01*
X229505443Y-119028049D01*
X229483507Y-119060016D01*
X229464998Y-119070338D01*
X229435314Y-119068789D01*
X229412615Y-119043140D01*
X229396940Y-118993460D01*
X229389695Y-118939031D01*
X229375873Y-118855264D01*
X229349796Y-118793033D01*
X229310699Y-118751507D01*
X229257820Y-118729853D01*
X229195126Y-118726853D01*
X229129642Y-118741671D01*
X229080144Y-118775454D01*
X229046408Y-118828505D01*
X229028207Y-118901126D01*
X229024639Y-118954928D01*
X229026452Y-119014017D01*
G36*
X229036055Y-119610762D02*
G01*
X229070692Y-119674363D01*
X229125372Y-119724123D01*
X229169842Y-119747568D01*
X229209121Y-119757634D01*
X229265116Y-119764156D01*
X229329621Y-119766951D01*
X229394429Y-119765836D01*
X229451334Y-119760626D01*
X229481727Y-119754541D01*
X229523306Y-119734014D01*
X229567468Y-119698463D01*
X229606087Y-119655619D01*
X229631034Y-119613211D01*
X229631430Y-119612177D01*
X229642331Y-119559553D01*
X229642601Y-119497188D01*
X229632676Y-119437924D01*
X229624722Y-119415040D01*
X229591300Y-119356102D01*
X229547511Y-119313890D01*
X229489538Y-119286156D01*
X229413565Y-119270651D01*
X229373771Y-119267143D01*
X229323766Y-119267590D01*
X229323766Y-119402376D01*
X229396732Y-119406917D01*
X229452334Y-119419986D01*
X229487861Y-119440756D01*
X229498020Y-119455552D01*
X229505104Y-119493464D01*
X229503007Y-119538527D01*
X229492812Y-119577487D01*
X229487204Y-119587704D01*
X229454538Y-119614659D01*
X229404545Y-119632451D01*
X229343705Y-119640024D01*
X229278497Y-119636325D01*
X229239253Y-119628057D01*
X229193805Y-119604320D01*
X229165396Y-119566849D01*
X229155573Y-119521720D01*
X229165887Y-119475011D01*
X229191112Y-119439132D01*
X229211925Y-119420277D01*
X229232439Y-119409272D01*
X229260203Y-119404026D01*
X229302762Y-119402449D01*
X229323766Y-119402376D01*
X229323766Y-119267590D01*
X229267580Y-119268094D01*
X229180501Y-119285388D01*
X229112530Y-119319029D01*
X229063664Y-119369018D01*
X229033899Y-119435356D01*
X229030448Y-119449601D01*
X229022345Y-119535210D01*
X229036055Y-119610762D01*
G37*
X229036055Y-119610762D02*
X229070692Y-119674363D01*
X229125372Y-119724123D01*
X229169842Y-119747568D01*
X229209121Y-119757634D01*
X229265116Y-119764156D01*
X229329621Y-119766951D01*
X229394429Y-119765836D01*
X229451334Y-119760626D01*
X229481727Y-119754541D01*
X229523306Y-119734014D01*
X229567468Y-119698463D01*
X229606087Y-119655619D01*
X229631034Y-119613211D01*
X229631430Y-119612177D01*
X229642331Y-119559553D01*
X229642601Y-119497188D01*
X229632676Y-119437924D01*
X229624722Y-119415040D01*
X229591300Y-119356102D01*
X229547511Y-119313890D01*
X229489538Y-119286156D01*
X229413565Y-119270651D01*
X229373771Y-119267143D01*
X229323766Y-119267590D01*
X229323766Y-119402376D01*
X229396732Y-119406917D01*
X229452334Y-119419986D01*
X229487861Y-119440756D01*
X229498020Y-119455552D01*
X229505104Y-119493464D01*
X229503007Y-119538527D01*
X229492812Y-119577487D01*
X229487204Y-119587704D01*
X229454538Y-119614659D01*
X229404545Y-119632451D01*
X229343705Y-119640024D01*
X229278497Y-119636325D01*
X229239253Y-119628057D01*
X229193805Y-119604320D01*
X229165396Y-119566849D01*
X229155573Y-119521720D01*
X229165887Y-119475011D01*
X229191112Y-119439132D01*
X229211925Y-119420277D01*
X229232439Y-119409272D01*
X229260203Y-119404026D01*
X229302762Y-119402449D01*
X229323766Y-119402376D01*
X229323766Y-119267590D01*
X229267580Y-119268094D01*
X229180501Y-119285388D01*
X229112530Y-119319029D01*
X229063664Y-119369018D01*
X229033899Y-119435356D01*
X229030448Y-119449601D01*
X229022345Y-119535210D01*
X229036055Y-119610762D01*
G36*
X229224342Y-119993367D02*
G01*
X229316563Y-119994555D01*
X229386610Y-119998897D01*
X229437381Y-120007558D01*
X229471772Y-120021704D01*
X229492679Y-120042500D01*
X229503000Y-120071110D01*
X229505636Y-120106535D01*
X229502682Y-120143636D01*
X229491889Y-120171818D01*
X229470360Y-120192243D01*
X229435199Y-120206079D01*
X229383510Y-120214491D01*
X229312394Y-120218643D01*
X229224342Y-120219703D01*
X229028614Y-120219703D01*
X229028614Y-120358020D01*
X229632179Y-120358020D01*
X229632179Y-120288862D01*
X229630489Y-120247170D01*
X229624556Y-120225701D01*
X229613293Y-120219703D01*
X229603261Y-120216091D01*
X229605383Y-120201714D01*
X229619580Y-120172736D01*
X229641480Y-120106319D01*
X229639928Y-120035875D01*
X229616147Y-119968377D01*
X229597362Y-119936233D01*
X229577022Y-119911715D01*
X229551573Y-119893804D01*
X229517458Y-119881479D01*
X229471121Y-119873723D01*
X229409007Y-119869516D01*
X229327561Y-119867840D01*
X229264578Y-119867624D01*
X229028614Y-119867624D01*
X229028614Y-119993367D01*
X229224342Y-119993367D01*
G37*
X229224342Y-119993367D02*
X229316563Y-119994555D01*
X229386610Y-119998897D01*
X229437381Y-120007558D01*
X229471772Y-120021704D01*
X229492679Y-120042500D01*
X229503000Y-120071110D01*
X229505636Y-120106535D01*
X229502682Y-120143636D01*
X229491889Y-120171818D01*
X229470360Y-120192243D01*
X229435199Y-120206079D01*
X229383510Y-120214491D01*
X229312394Y-120218643D01*
X229224342Y-120219703D01*
X229028614Y-120219703D01*
X229028614Y-120358020D01*
X229632179Y-120358020D01*
X229632179Y-120288862D01*
X229630489Y-120247170D01*
X229624556Y-120225701D01*
X229613293Y-120219703D01*
X229603261Y-120216091D01*
X229605383Y-120201714D01*
X229619580Y-120172736D01*
X229641480Y-120106319D01*
X229639928Y-120035875D01*
X229616147Y-119968377D01*
X229597362Y-119936233D01*
X229577022Y-119911715D01*
X229551573Y-119893804D01*
X229517458Y-119881479D01*
X229471121Y-119873723D01*
X229409007Y-119869516D01*
X229327561Y-119867840D01*
X229264578Y-119867624D01*
X229028614Y-119867624D01*
X229028614Y-119993367D01*
X229224342Y-119993367D01*
G36*
X229033880Y-121217226D02*
G01*
X229064830Y-121290080D01*
X229079895Y-121313027D01*
X229103048Y-121342354D01*
X229121253Y-121360764D01*
X229127183Y-121363961D01*
X229140340Y-121354935D01*
X229162667Y-121331837D01*
X229178250Y-121313344D01*
X229218926Y-121262728D01*
X229185295Y-121222760D01*
X229163584Y-121191874D01*
X229156090Y-121161759D01*
X229157920Y-121127292D01*
X229171528Y-121072561D01*
X229199772Y-121034886D01*
X229245433Y-121011991D01*
X229311289Y-121001597D01*
X229311331Y-121001595D01*
X229384939Y-121002494D01*
X229438946Y-121016463D01*
X229475716Y-121044328D01*
X229488168Y-121063325D01*
X229503673Y-121113776D01*
X229503683Y-121167663D01*
X229488638Y-121214546D01*
X229481287Y-121225644D01*
X229462511Y-121253476D01*
X229459434Y-121275236D01*
X229473409Y-121298704D01*
X229498510Y-121324649D01*
X229540880Y-121365716D01*
X229578464Y-121320121D01*
X229620882Y-121249674D01*
X229641785Y-121170233D01*
X229640272Y-121087215D01*
X229626411Y-121032694D01*
X229592135Y-120968970D01*
X229538212Y-120918005D01*
X229500149Y-120894851D01*
X229445536Y-120876099D01*
X229376369Y-120866715D01*
X229301407Y-120866643D01*
X229229409Y-120875824D01*
X229169137Y-120894199D01*
X229162958Y-120897093D01*
X229102351Y-120939952D01*
X229058224Y-120997979D01*
X229031493Y-121066591D01*
X229023073Y-121141201D01*
X229033880Y-121217226D01*
G37*
X229033880Y-121217226D02*
X229064830Y-121290080D01*
X229079895Y-121313027D01*
X229103048Y-121342354D01*
X229121253Y-121360764D01*
X229127183Y-121363961D01*
X229140340Y-121354935D01*
X229162667Y-121331837D01*
X229178250Y-121313344D01*
X229218926Y-121262728D01*
X229185295Y-121222760D01*
X229163584Y-121191874D01*
X229156090Y-121161759D01*
X229157920Y-121127292D01*
X229171528Y-121072561D01*
X229199772Y-121034886D01*
X229245433Y-121011991D01*
X229311289Y-121001597D01*
X229311331Y-121001595D01*
X229384939Y-121002494D01*
X229438946Y-121016463D01*
X229475716Y-121044328D01*
X229488168Y-121063325D01*
X229503673Y-121113776D01*
X229503683Y-121167663D01*
X229488638Y-121214546D01*
X229481287Y-121225644D01*
X229462511Y-121253476D01*
X229459434Y-121275236D01*
X229473409Y-121298704D01*
X229498510Y-121324649D01*
X229540880Y-121365716D01*
X229578464Y-121320121D01*
X229620882Y-121249674D01*
X229641785Y-121170233D01*
X229640272Y-121087215D01*
X229626411Y-121032694D01*
X229592135Y-120968970D01*
X229538212Y-120918005D01*
X229500149Y-120894851D01*
X229445536Y-120876099D01*
X229376369Y-120866715D01*
X229301407Y-120866643D01*
X229229409Y-120875824D01*
X229169137Y-120894199D01*
X229162958Y-120897093D01*
X229102351Y-120939952D01*
X229058224Y-120997979D01*
X229031493Y-121066591D01*
X229023073Y-121141201D01*
X229033880Y-121217226D01*
G36*
X229026457Y-121677898D02*
G01*
X229034279Y-121710096D01*
X229062921Y-121771825D01*
X229106667Y-121824610D01*
X229159117Y-121861141D01*
X229170893Y-121866160D01*
X229201740Y-121873045D01*
X229247371Y-121877864D01*
X229293492Y-121879505D01*
X229380693Y-121879505D01*
X229380693Y-121697178D01*
X229380978Y-121621979D01*
X229382704Y-121569003D01*
X229387181Y-121535325D01*
X229395720Y-121518020D01*
X229409630Y-121514163D01*
X229430222Y-121520829D01*
X229454315Y-121532770D01*
X229494525Y-121566080D01*
X229514558Y-121612368D01*
X229513905Y-121668944D01*
X229492101Y-121733031D01*
X229465193Y-121788417D01*
X229501532Y-121834375D01*
X229537872Y-121880333D01*
X229577819Y-121837096D01*
X229615563Y-121779374D01*
X229638320Y-121708386D01*
X229644688Y-121632029D01*
X229633268Y-121558199D01*
X229629393Y-121546287D01*
X229595506Y-121481399D01*
X229544986Y-121433130D01*
X229476325Y-121400465D01*
X229388014Y-121382385D01*
X229386121Y-121382175D01*
X229289878Y-121380556D01*
X229255542Y-121387100D01*
X229255542Y-121514852D01*
X229260822Y-121526584D01*
X229264867Y-121558438D01*
X229267176Y-121605397D01*
X229267525Y-121635154D01*
X229267306Y-121690648D01*
X229265916Y-121725346D01*
X229262251Y-121743601D01*
X229255210Y-121749766D01*
X229243690Y-121748195D01*
X229239233Y-121746878D01*
X229197355Y-121724382D01*
X229163604Y-121689003D01*
X229148773Y-121657780D01*
X229149668Y-121616301D01*
X229168164Y-121574269D01*
X229198786Y-121539012D01*
X229236062Y-121517854D01*
X229255542Y-121514852D01*
X229255542Y-121387100D01*
X229205229Y-121396690D01*
X229134191Y-121428698D01*
X229078779Y-121474701D01*
X229041009Y-121532821D01*
X229022896Y-121601180D01*
X229026457Y-121677898D01*
G37*
X229026457Y-121677898D02*
X229034279Y-121710096D01*
X229062921Y-121771825D01*
X229106667Y-121824610D01*
X229159117Y-121861141D01*
X229170893Y-121866160D01*
X229201740Y-121873045D01*
X229247371Y-121877864D01*
X229293492Y-121879505D01*
X229380693Y-121879505D01*
X229380693Y-121697178D01*
X229380978Y-121621979D01*
X229382704Y-121569003D01*
X229387181Y-121535325D01*
X229395720Y-121518020D01*
X229409630Y-121514163D01*
X229430222Y-121520829D01*
X229454315Y-121532770D01*
X229494525Y-121566080D01*
X229514558Y-121612368D01*
X229513905Y-121668944D01*
X229492101Y-121733031D01*
X229465193Y-121788417D01*
X229501532Y-121834375D01*
X229537872Y-121880333D01*
X229577819Y-121837096D01*
X229615563Y-121779374D01*
X229638320Y-121708386D01*
X229644688Y-121632029D01*
X229633268Y-121558199D01*
X229629393Y-121546287D01*
X229595506Y-121481399D01*
X229544986Y-121433130D01*
X229476325Y-121400465D01*
X229388014Y-121382385D01*
X229386121Y-121382175D01*
X229289878Y-121380556D01*
X229255542Y-121387100D01*
X229255542Y-121514852D01*
X229260822Y-121526584D01*
X229264867Y-121558438D01*
X229267176Y-121605397D01*
X229267525Y-121635154D01*
X229267306Y-121690648D01*
X229265916Y-121725346D01*
X229262251Y-121743601D01*
X229255210Y-121749766D01*
X229243690Y-121748195D01*
X229239233Y-121746878D01*
X229197355Y-121724382D01*
X229163604Y-121689003D01*
X229148773Y-121657780D01*
X229149668Y-121616301D01*
X229168164Y-121574269D01*
X229198786Y-121539012D01*
X229236062Y-121517854D01*
X229255542Y-121514852D01*
X229255542Y-121387100D01*
X229205229Y-121396690D01*
X229134191Y-121428698D01*
X229078779Y-121474701D01*
X229041009Y-121532821D01*
X229022896Y-121601180D01*
X229026457Y-121677898D01*
G36*
X229039002Y-118245988D02*
G01*
X229053950Y-118277283D01*
X229075541Y-118307591D01*
X229100391Y-118330682D01*
X229132087Y-118347500D01*
X229174214Y-118358994D01*
X229230358Y-118366109D01*
X229304106Y-118369793D01*
X229399044Y-118370992D01*
X229408985Y-118371011D01*
X229632179Y-118371287D01*
X229632179Y-118232970D01*
X229426418Y-118232970D01*
X229350189Y-118232872D01*
X229294939Y-118232191D01*
X229256501Y-118230349D01*
X229230706Y-118226767D01*
X229213384Y-118220868D01*
X229200368Y-118212073D01*
X229187507Y-118199820D01*
X229159873Y-118156953D01*
X229154745Y-118110157D01*
X229172217Y-118065576D01*
X229185221Y-118050072D01*
X229197447Y-118038690D01*
X229210540Y-118030519D01*
X229228615Y-118025026D01*
X229255787Y-118021680D01*
X229296170Y-118019949D01*
X229353879Y-118019303D01*
X229424132Y-118019208D01*
X229632179Y-118019208D01*
X229632179Y-117880891D01*
X229028614Y-117880891D01*
X229028614Y-117950050D01*
X229030256Y-117991572D01*
X229036087Y-118012994D01*
X229047461Y-118019205D01*
X229047798Y-118019208D01*
X229058938Y-118022090D01*
X229057674Y-118034801D01*
X229045434Y-118060074D01*
X229027424Y-118117395D01*
X229025421Y-118182963D01*
X229039002Y-118245988D01*
G37*
X229039002Y-118245988D02*
X229053950Y-118277283D01*
X229075541Y-118307591D01*
X229100391Y-118330682D01*
X229132087Y-118347500D01*
X229174214Y-118358994D01*
X229230358Y-118366109D01*
X229304106Y-118369793D01*
X229399044Y-118370992D01*
X229408985Y-118371011D01*
X229632179Y-118371287D01*
X229632179Y-118232970D01*
X229426418Y-118232970D01*
X229350189Y-118232872D01*
X229294939Y-118232191D01*
X229256501Y-118230349D01*
X229230706Y-118226767D01*
X229213384Y-118220868D01*
X229200368Y-118212073D01*
X229187507Y-118199820D01*
X229159873Y-118156953D01*
X229154745Y-118110157D01*
X229172217Y-118065576D01*
X229185221Y-118050072D01*
X229197447Y-118038690D01*
X229210540Y-118030519D01*
X229228615Y-118025026D01*
X229255787Y-118021680D01*
X229296170Y-118019949D01*
X229353879Y-118019303D01*
X229424132Y-118019208D01*
X229632179Y-118019208D01*
X229632179Y-117880891D01*
X229028614Y-117880891D01*
X229028614Y-117950050D01*
X229030256Y-117991572D01*
X229036087Y-118012994D01*
X229047461Y-118019205D01*
X229047798Y-118019208D01*
X229058938Y-118022090D01*
X229057674Y-118034801D01*
X229045434Y-118060074D01*
X229027424Y-118117395D01*
X229025421Y-118182963D01*
X229039002Y-118245988D01*
G36*
X229028030Y-120799460D02*
G01*
X229041245Y-120842711D01*
X229057941Y-120870558D01*
X229071145Y-120879629D01*
X229086797Y-120877132D01*
X229111385Y-120860931D01*
X229128800Y-120847232D01*
X229160283Y-120818992D01*
X229173529Y-120797775D01*
X229172664Y-120779688D01*
X229159010Y-120726035D01*
X229159630Y-120686630D01*
X229175104Y-120654632D01*
X229184161Y-120643890D01*
X229216027Y-120609505D01*
X229632179Y-120609505D01*
X229632179Y-120471188D01*
X229028614Y-120471188D01*
X229028614Y-120540347D01*
X229030256Y-120581869D01*
X229036087Y-120603291D01*
X229047461Y-120609502D01*
X229047798Y-120609505D01*
X229059713Y-120612439D01*
X229058159Y-120625704D01*
X229049563Y-120644084D01*
X229033568Y-120682046D01*
X229023945Y-120712872D01*
X229021478Y-120752536D01*
X229028030Y-120799460D01*
G37*
X229028030Y-120799460D02*
X229041245Y-120842711D01*
X229057941Y-120870558D01*
X229071145Y-120879629D01*
X229086797Y-120877132D01*
X229111385Y-120860931D01*
X229128800Y-120847232D01*
X229160283Y-120818992D01*
X229173529Y-120797775D01*
X229172664Y-120779688D01*
X229159010Y-120726035D01*
X229159630Y-120686630D01*
X229175104Y-120654632D01*
X229184161Y-120643890D01*
X229216027Y-120609505D01*
X229632179Y-120609505D01*
X229632179Y-120471188D01*
X229028614Y-120471188D01*
X229028614Y-120540347D01*
X229030256Y-120581869D01*
X229036087Y-120603291D01*
X229047461Y-120609502D01*
X229047798Y-120609505D01*
X229059713Y-120612439D01*
X229058159Y-120625704D01*
X229049563Y-120644084D01*
X229033568Y-120682046D01*
X229023945Y-120712872D01*
X229021478Y-120752536D01*
X229028030Y-120799460D01*
G36*
X224860018Y-119376964D02*
G01*
X225161570Y-119433812D01*
X225334512Y-119853338D01*
X225163395Y-120104984D01*
X225115750Y-120175458D01*
X225073210Y-120239163D01*
X225037715Y-120293126D01*
X225011210Y-120334373D01*
X224995636Y-120359934D01*
X224992278Y-120366895D01*
X225000914Y-120379435D01*
X225024792Y-120406231D01*
X225060859Y-120444280D01*
X225106067Y-120490579D01*
X225157364Y-120542123D01*
X225211701Y-120595909D01*
X225266028Y-120648935D01*
X225317295Y-120698195D01*
X225362451Y-120740687D01*
X225398446Y-120773407D01*
X225422230Y-120793351D01*
X225430190Y-120798119D01*
X225444865Y-120791257D01*
X225477014Y-120772020D01*
X225523492Y-120742430D01*
X225581156Y-120704510D01*
X225646860Y-120660282D01*
X225684336Y-120634654D01*
X225752768Y-120587941D01*
X225814520Y-120546432D01*
X225866519Y-120512140D01*
X225905692Y-120487080D01*
X225928965Y-120473264D01*
X225933855Y-120471188D01*
X225947755Y-120475895D01*
X225980150Y-120488723D01*
X226026485Y-120507738D01*
X226082206Y-120531003D01*
X226142758Y-120556584D01*
X226203586Y-120582545D01*
X226260136Y-120606950D01*
X226307852Y-120627863D01*
X226342181Y-120643349D01*
X226358568Y-120651472D01*
X226359212Y-120651952D01*
X226362341Y-120664707D01*
X226369321Y-120698677D01*
X226379467Y-120750340D01*
X226392092Y-120816176D01*
X226406509Y-120892664D01*
X226414823Y-120937290D01*
X226430384Y-121019021D01*
X226445192Y-121092843D01*
X226458436Y-121155021D01*
X226469305Y-121201822D01*
X226476989Y-121229509D01*
X226479427Y-121235074D01*
X226495930Y-121240526D01*
X226533200Y-121244924D01*
X226586880Y-121248272D01*
X226652612Y-121250574D01*
X226726037Y-121251832D01*
X226802796Y-121252048D01*
X226878532Y-121251227D01*
X226948886Y-121249371D01*
X227009500Y-121246482D01*
X227056016Y-121242565D01*
X227084075Y-121237622D01*
X227089916Y-121234657D01*
X227096917Y-121216934D01*
X227106927Y-121179381D01*
X227118769Y-121126964D01*
X227131267Y-121064652D01*
X227135310Y-121042900D01*
X227154520Y-120938024D01*
X227169991Y-120855180D01*
X227182337Y-120791630D01*
X227192173Y-120744637D01*
X227200114Y-120711463D01*
X227206776Y-120689371D01*
X227212773Y-120675624D01*
X227218719Y-120667484D01*
X227219894Y-120666345D01*
X227238826Y-120654977D01*
X227275669Y-120637635D01*
X227325913Y-120616050D01*
X227385046Y-120591954D01*
X227448556Y-120567079D01*
X227511932Y-120543157D01*
X227570662Y-120521919D01*
X227620235Y-120505097D01*
X227656139Y-120494422D01*
X227673862Y-120491627D01*
X227674483Y-120491860D01*
X227688970Y-120501331D01*
X227720844Y-120522818D01*
X227766789Y-120554063D01*
X227823485Y-120592807D01*
X227887617Y-120636793D01*
X227905842Y-120649319D01*
X227971914Y-120693984D01*
X228032200Y-120733288D01*
X228083235Y-120765088D01*
X228121560Y-120787245D01*
X228143711Y-120797617D01*
X228146432Y-120798119D01*
X228160736Y-120789405D01*
X228189072Y-120765325D01*
X228228396Y-120728976D01*
X228275661Y-120683453D01*
X228327823Y-120631852D01*
X228381835Y-120577267D01*
X228434653Y-120522794D01*
X228483231Y-120471529D01*
X228524523Y-120426567D01*
X228555485Y-120391004D01*
X228573070Y-120367935D01*
X228575941Y-120361554D01*
X228569178Y-120346699D01*
X228550939Y-120316286D01*
X228524297Y-120275268D01*
X228502852Y-120243709D01*
X228463503Y-120186525D01*
X228417171Y-120118806D01*
X228370913Y-120050880D01*
X228346155Y-120014361D01*
X228262547Y-119890752D01*
X228318650Y-119786991D01*
X228343228Y-119739720D01*
X228362331Y-119699523D01*
X228373227Y-119672326D01*
X228374743Y-119665402D01*
X228363549Y-119657077D01*
X228331917Y-119640654D01*
X228282765Y-119617357D01*
X228219010Y-119588414D01*
X228143571Y-119555050D01*
X228059364Y-119518491D01*
X227969308Y-119479964D01*
X227876321Y-119440694D01*
X227783320Y-119401908D01*
X227693223Y-119364830D01*
X227608948Y-119330689D01*
X227533413Y-119300708D01*
X227469534Y-119276116D01*
X227420231Y-119258136D01*
X227388421Y-119247997D01*
X227377496Y-119246366D01*
X227363561Y-119259291D01*
X227340940Y-119287589D01*
X227314333Y-119325346D01*
X227312228Y-119328515D01*
X227234114Y-119426100D01*
X227142982Y-119504786D01*
X227041745Y-119563891D01*
X226933318Y-119602732D01*
X226820614Y-119620628D01*
X226706548Y-119616897D01*
X226594034Y-119590857D01*
X226485985Y-119541825D01*
X226462345Y-119527400D01*
X226366887Y-119452369D01*
X226290232Y-119363730D01*
X226232780Y-119264549D01*
X226194929Y-119157895D01*
X226177078Y-119046836D01*
X226179625Y-118934439D01*
X226202970Y-118823773D01*
X226247510Y-118717906D01*
X226313645Y-118619905D01*
X226340487Y-118589590D01*
X226424512Y-118512438D01*
X226512966Y-118456218D01*
X226612115Y-118417653D01*
X226710303Y-118396174D01*
X226820697Y-118390872D01*
X226931640Y-118408552D01*
X227039381Y-118447419D01*
X227140169Y-118505677D01*
X227230256Y-118581531D01*
X227305892Y-118673183D01*
X227313864Y-118685228D01*
X227339974Y-118723389D01*
X227362595Y-118752399D01*
X227377039Y-118766268D01*
X227377496Y-118766469D01*
X227393121Y-118763492D01*
X227428582Y-118751689D01*
X227480962Y-118732286D01*
X227547345Y-118706512D01*
X227624814Y-118675591D01*
X227710450Y-118640751D01*
X227801337Y-118603217D01*
X227894559Y-118564217D01*
X227987197Y-118524977D01*
X228076335Y-118486724D01*
X228159055Y-118450683D01*
X228232441Y-118418083D01*
X228293575Y-118390148D01*
X228339541Y-118368105D01*
X228367421Y-118353182D01*
X228374743Y-118347172D01*
X228369041Y-118328809D01*
X228353749Y-118294448D01*
X228331599Y-118250016D01*
X228318650Y-118225583D01*
X228262547Y-118121822D01*
X228346155Y-117998213D01*
X228388987Y-117935114D01*
X228436122Y-117866030D01*
X228480503Y-117801293D01*
X228502852Y-117768866D01*
X228533477Y-117723259D01*
X228557747Y-117684640D01*
X228572587Y-117658048D01*
X228575724Y-117649410D01*
X228567261Y-117636839D01*
X228543636Y-117609016D01*
X228507302Y-117568639D01*
X228460711Y-117518405D01*
X228406317Y-117461012D01*
X228371392Y-117424714D01*
X228308996Y-117361210D01*
X228253188Y-117306327D01*
X228206354Y-117262286D01*
X228170882Y-117231305D01*
X228149161Y-117215602D01*
X228144752Y-117214095D01*
X228127985Y-117221086D01*
X228094082Y-117240406D01*
X228046476Y-117269909D01*
X227988599Y-117307455D01*
X227923884Y-117350900D01*
X227905842Y-117363255D01*
X227840267Y-117408273D01*
X227781228Y-117448660D01*
X227732042Y-117482160D01*
X227696028Y-117506514D01*
X227676502Y-117519464D01*
X227674483Y-117520715D01*
X227658922Y-117518844D01*
X227624709Y-117508913D01*
X227576355Y-117492653D01*
X227518371Y-117471795D01*
X227455270Y-117448073D01*
X227391563Y-117423216D01*
X227331761Y-117398958D01*
X227280376Y-117377029D01*
X227241919Y-117359162D01*
X227220902Y-117347087D01*
X227219894Y-117346229D01*
X227213888Y-117338846D01*
X227207948Y-117326375D01*
X227201460Y-117306080D01*
X227193809Y-117275222D01*
X227184380Y-117231066D01*
X227172559Y-117170874D01*
X227157729Y-117091907D01*
X227139277Y-116991430D01*
X227135310Y-116969675D01*
X227122853Y-116905198D01*
X227110666Y-116848989D01*
X227099926Y-116806013D01*
X227091809Y-116781240D01*
X227089916Y-116777918D01*
X227073138Y-116772444D01*
X227035645Y-116767994D01*
X226981794Y-116764572D01*
X226915944Y-116762181D01*
X226842453Y-116760823D01*
X226765680Y-116760501D01*
X226689983Y-116761219D01*
X226619720Y-116762979D01*
X226559250Y-116765784D01*
X226512930Y-116769638D01*
X226485119Y-116774543D01*
X226479427Y-116777500D01*
X226473686Y-116793963D01*
X226464345Y-116831449D01*
X226452215Y-116886225D01*
X226438107Y-116954555D01*
X226422830Y-117032706D01*
X226414823Y-117075284D01*
X226399721Y-117156071D01*
X226386040Y-117228113D01*
X226374467Y-117287889D01*
X226365687Y-117331879D01*
X226360387Y-117356561D01*
X226359212Y-117360623D01*
X226345965Y-117367489D01*
X226314057Y-117382002D01*
X226268047Y-117402229D01*
X226212492Y-117426234D01*
X226151953Y-117452082D01*
X226090986Y-117477840D01*
X226034151Y-117501573D01*
X225986006Y-117521346D01*
X225951110Y-117535224D01*
X225934021Y-117541274D01*
X225933274Y-117541386D01*
X225919793Y-117534528D01*
X225888770Y-117515302D01*
X225843289Y-117485728D01*
X225786432Y-117447827D01*
X225721283Y-117403620D01*
X225683862Y-117377921D01*
X225615247Y-117331093D01*
X225552952Y-117289501D01*
X225500129Y-117255175D01*
X225459927Y-117230143D01*
X225435500Y-117216435D01*
X225430024Y-117214456D01*
X225417278Y-117222966D01*
X225390063Y-117246493D01*
X225351428Y-117282032D01*
X225304423Y-117326577D01*
X225252095Y-117377123D01*
X225197495Y-117430664D01*
X225143670Y-117484195D01*
X225093670Y-117534711D01*
X225050543Y-117579206D01*
X225017339Y-117614675D01*
X224997106Y-117638113D01*
X224992278Y-117645954D01*
X224999067Y-117658720D01*
X225018142Y-117689256D01*
X225047561Y-117734590D01*
X225085381Y-117791756D01*
X225129661Y-117857784D01*
X225163395Y-117907590D01*
X225334512Y-118159236D01*
X225248041Y-118368999D01*
X225161570Y-118578763D01*
X224860018Y-118635611D01*
X224558466Y-118692460D01*
X224558466Y-119320115D01*
X224860018Y-119376964D01*
G37*
X224860018Y-119376964D02*
X225161570Y-119433812D01*
X225334512Y-119853338D01*
X225163395Y-120104984D01*
X225115750Y-120175458D01*
X225073210Y-120239163D01*
X225037715Y-120293126D01*
X225011210Y-120334373D01*
X224995636Y-120359934D01*
X224992278Y-120366895D01*
X225000914Y-120379435D01*
X225024792Y-120406231D01*
X225060859Y-120444280D01*
X225106067Y-120490579D01*
X225157364Y-120542123D01*
X225211701Y-120595909D01*
X225266028Y-120648935D01*
X225317295Y-120698195D01*
X225362451Y-120740687D01*
X225398446Y-120773407D01*
X225422230Y-120793351D01*
X225430190Y-120798119D01*
X225444865Y-120791257D01*
X225477014Y-120772020D01*
X225523492Y-120742430D01*
X225581156Y-120704510D01*
X225646860Y-120660282D01*
X225684336Y-120634654D01*
X225752768Y-120587941D01*
X225814520Y-120546432D01*
X225866519Y-120512140D01*
X225905692Y-120487080D01*
X225928965Y-120473264D01*
X225933855Y-120471188D01*
X225947755Y-120475895D01*
X225980150Y-120488723D01*
X226026485Y-120507738D01*
X226082206Y-120531003D01*
X226142758Y-120556584D01*
X226203586Y-120582545D01*
X226260136Y-120606950D01*
X226307852Y-120627863D01*
X226342181Y-120643349D01*
X226358568Y-120651472D01*
X226359212Y-120651952D01*
X226362341Y-120664707D01*
X226369321Y-120698677D01*
X226379467Y-120750340D01*
X226392092Y-120816176D01*
X226406509Y-120892664D01*
X226414823Y-120937290D01*
X226430384Y-121019021D01*
X226445192Y-121092843D01*
X226458436Y-121155021D01*
X226469305Y-121201822D01*
X226476989Y-121229509D01*
X226479427Y-121235074D01*
X226495930Y-121240526D01*
X226533200Y-121244924D01*
X226586880Y-121248272D01*
X226652612Y-121250574D01*
X226726037Y-121251832D01*
X226802796Y-121252048D01*
X226878532Y-121251227D01*
X226948886Y-121249371D01*
X227009500Y-121246482D01*
X227056016Y-121242565D01*
X227084075Y-121237622D01*
X227089916Y-121234657D01*
X227096917Y-121216934D01*
X227106927Y-121179381D01*
X227118769Y-121126964D01*
X227131267Y-121064652D01*
X227135310Y-121042900D01*
X227154520Y-120938024D01*
X227169991Y-120855180D01*
X227182337Y-120791630D01*
X227192173Y-120744637D01*
X227200114Y-120711463D01*
X227206776Y-120689371D01*
X227212773Y-120675624D01*
X227218719Y-120667484D01*
X227219894Y-120666345D01*
X227238826Y-120654977D01*
X227275669Y-120637635D01*
X227325913Y-120616050D01*
X227385046Y-120591954D01*
X227448556Y-120567079D01*
X227511932Y-120543157D01*
X227570662Y-120521919D01*
X227620235Y-120505097D01*
X227656139Y-120494422D01*
X227673862Y-120491627D01*
X227674483Y-120491860D01*
X227688970Y-120501331D01*
X227720844Y-120522818D01*
X227766789Y-120554063D01*
X227823485Y-120592807D01*
X227887617Y-120636793D01*
X227905842Y-120649319D01*
X227971914Y-120693984D01*
X228032200Y-120733288D01*
X228083235Y-120765088D01*
X228121560Y-120787245D01*
X228143711Y-120797617D01*
X228146432Y-120798119D01*
X228160736Y-120789405D01*
X228189072Y-120765325D01*
X228228396Y-120728976D01*
X228275661Y-120683453D01*
X228327823Y-120631852D01*
X228381835Y-120577267D01*
X228434653Y-120522794D01*
X228483231Y-120471529D01*
X228524523Y-120426567D01*
X228555485Y-120391004D01*
X228573070Y-120367935D01*
X228575941Y-120361554D01*
X228569178Y-120346699D01*
X228550939Y-120316286D01*
X228524297Y-120275268D01*
X228502852Y-120243709D01*
X228463503Y-120186525D01*
X228417171Y-120118806D01*
X228370913Y-120050880D01*
X228346155Y-120014361D01*
X228262547Y-119890752D01*
X228318650Y-119786991D01*
X228343228Y-119739720D01*
X228362331Y-119699523D01*
X228373227Y-119672326D01*
X228374743Y-119665402D01*
X228363549Y-119657077D01*
X228331917Y-119640654D01*
X228282765Y-119617357D01*
X228219010Y-119588414D01*
X228143571Y-119555050D01*
X228059364Y-119518491D01*
X227969308Y-119479964D01*
X227876321Y-119440694D01*
X227783320Y-119401908D01*
X227693223Y-119364830D01*
X227608948Y-119330689D01*
X227533413Y-119300708D01*
X227469534Y-119276116D01*
X227420231Y-119258136D01*
X227388421Y-119247997D01*
X227377496Y-119246366D01*
X227363561Y-119259291D01*
X227340940Y-119287589D01*
X227314333Y-119325346D01*
X227312228Y-119328515D01*
X227234114Y-119426100D01*
X227142982Y-119504786D01*
X227041745Y-119563891D01*
X226933318Y-119602732D01*
X226820614Y-119620628D01*
X226706548Y-119616897D01*
X226594034Y-119590857D01*
X226485985Y-119541825D01*
X226462345Y-119527400D01*
X226366887Y-119452369D01*
X226290232Y-119363730D01*
X226232780Y-119264549D01*
X226194929Y-119157895D01*
X226177078Y-119046836D01*
X226179625Y-118934439D01*
X226202970Y-118823773D01*
X226247510Y-118717906D01*
X226313645Y-118619905D01*
X226340487Y-118589590D01*
X226424512Y-118512438D01*
X226512966Y-118456218D01*
X226612115Y-118417653D01*
X226710303Y-118396174D01*
X226820697Y-118390872D01*
X226931640Y-118408552D01*
X227039381Y-118447419D01*
X227140169Y-118505677D01*
X227230256Y-118581531D01*
X227305892Y-118673183D01*
X227313864Y-118685228D01*
X227339974Y-118723389D01*
X227362595Y-118752399D01*
X227377039Y-118766268D01*
X227377496Y-118766469D01*
X227393121Y-118763492D01*
X227428582Y-118751689D01*
X227480962Y-118732286D01*
X227547345Y-118706512D01*
X227624814Y-118675591D01*
X227710450Y-118640751D01*
X227801337Y-118603217D01*
X227894559Y-118564217D01*
X227987197Y-118524977D01*
X228076335Y-118486724D01*
X228159055Y-118450683D01*
X228232441Y-118418083D01*
X228293575Y-118390148D01*
X228339541Y-118368105D01*
X228367421Y-118353182D01*
X228374743Y-118347172D01*
X228369041Y-118328809D01*
X228353749Y-118294448D01*
X228331599Y-118250016D01*
X228318650Y-118225583D01*
X228262547Y-118121822D01*
X228346155Y-117998213D01*
X228388987Y-117935114D01*
X228436122Y-117866030D01*
X228480503Y-117801293D01*
X228502852Y-117768866D01*
X228533477Y-117723259D01*
X228557747Y-117684640D01*
X228572587Y-117658048D01*
X228575724Y-117649410D01*
X228567261Y-117636839D01*
X228543636Y-117609016D01*
X228507302Y-117568639D01*
X228460711Y-117518405D01*
X228406317Y-117461012D01*
X228371392Y-117424714D01*
X228308996Y-117361210D01*
X228253188Y-117306327D01*
X228206354Y-117262286D01*
X228170882Y-117231305D01*
X228149161Y-117215602D01*
X228144752Y-117214095D01*
X228127985Y-117221086D01*
X228094082Y-117240406D01*
X228046476Y-117269909D01*
X227988599Y-117307455D01*
X227923884Y-117350900D01*
X227905842Y-117363255D01*
X227840267Y-117408273D01*
X227781228Y-117448660D01*
X227732042Y-117482160D01*
X227696028Y-117506514D01*
X227676502Y-117519464D01*
X227674483Y-117520715D01*
X227658922Y-117518844D01*
X227624709Y-117508913D01*
X227576355Y-117492653D01*
X227518371Y-117471795D01*
X227455270Y-117448073D01*
X227391563Y-117423216D01*
X227331761Y-117398958D01*
X227280376Y-117377029D01*
X227241919Y-117359162D01*
X227220902Y-117347087D01*
X227219894Y-117346229D01*
X227213888Y-117338846D01*
X227207948Y-117326375D01*
X227201460Y-117306080D01*
X227193809Y-117275222D01*
X227184380Y-117231066D01*
X227172559Y-117170874D01*
X227157729Y-117091907D01*
X227139277Y-116991430D01*
X227135310Y-116969675D01*
X227122853Y-116905198D01*
X227110666Y-116848989D01*
X227099926Y-116806013D01*
X227091809Y-116781240D01*
X227089916Y-116777918D01*
X227073138Y-116772444D01*
X227035645Y-116767994D01*
X226981794Y-116764572D01*
X226915944Y-116762181D01*
X226842453Y-116760823D01*
X226765680Y-116760501D01*
X226689983Y-116761219D01*
X226619720Y-116762979D01*
X226559250Y-116765784D01*
X226512930Y-116769638D01*
X226485119Y-116774543D01*
X226479427Y-116777500D01*
X226473686Y-116793963D01*
X226464345Y-116831449D01*
X226452215Y-116886225D01*
X226438107Y-116954555D01*
X226422830Y-117032706D01*
X226414823Y-117075284D01*
X226399721Y-117156071D01*
X226386040Y-117228113D01*
X226374467Y-117287889D01*
X226365687Y-117331879D01*
X226360387Y-117356561D01*
X226359212Y-117360623D01*
X226345965Y-117367489D01*
X226314057Y-117382002D01*
X226268047Y-117402229D01*
X226212492Y-117426234D01*
X226151953Y-117452082D01*
X226090986Y-117477840D01*
X226034151Y-117501573D01*
X225986006Y-117521346D01*
X225951110Y-117535224D01*
X225934021Y-117541274D01*
X225933274Y-117541386D01*
X225919793Y-117534528D01*
X225888770Y-117515302D01*
X225843289Y-117485728D01*
X225786432Y-117447827D01*
X225721283Y-117403620D01*
X225683862Y-117377921D01*
X225615247Y-117331093D01*
X225552952Y-117289501D01*
X225500129Y-117255175D01*
X225459927Y-117230143D01*
X225435500Y-117216435D01*
X225430024Y-117214456D01*
X225417278Y-117222966D01*
X225390063Y-117246493D01*
X225351428Y-117282032D01*
X225304423Y-117326577D01*
X225252095Y-117377123D01*
X225197495Y-117430664D01*
X225143670Y-117484195D01*
X225093670Y-117534711D01*
X225050543Y-117579206D01*
X225017339Y-117614675D01*
X224997106Y-117638113D01*
X224992278Y-117645954D01*
X224999067Y-117658720D01*
X225018142Y-117689256D01*
X225047561Y-117734590D01*
X225085381Y-117791756D01*
X225129661Y-117857784D01*
X225163395Y-117907590D01*
X225334512Y-118159236D01*
X225248041Y-118368999D01*
X225161570Y-118578763D01*
X224860018Y-118635611D01*
X224558466Y-118692460D01*
X224558466Y-119320115D01*
X224860018Y-119376964D01*
M02*
