G04 #@! TF.GenerationSoftware,KiCad,Pcbnew,(5.1.5)-3*
G04 #@! TF.CreationDate,2020-09-22T23:44:14+02:00*
G04 #@! TF.ProjectId,RedPitaya_Lockbox,52656450-6974-4617-9961-5f4c6f636b62,1.4*
G04 #@! TF.SameCoordinates,Original*
G04 #@! TF.FileFunction,Soldermask,Top*
G04 #@! TF.FilePolarity,Negative*
%FSLAX46Y46*%
G04 Gerber Fmt 4.6, Leading zero omitted, Abs format (unit mm)*
G04 Created by KiCad (PCBNEW (5.1.5)-3) date 2020-09-22 23:44:14*
%MOMM*%
%LPD*%
G04 APERTURE LIST*
%ADD10R,1.300000X0.900000*%
%ADD11R,1.400000X2.840000*%
%ADD12R,1.400000X4.200000*%
%ADD13R,2.840000X1.400000*%
%ADD14R,4.200000X1.400000*%
%ADD15R,1.400000X1.400000*%
%ADD16O,3.410000X1.910000*%
%ADD17R,1.000000X1.950000*%
%ADD18R,1.290000X0.820000*%
%ADD19R,1.225000X1.112500*%
%ADD20C,1.900000*%
%ADD21R,2.900000X2.350000*%
%ADD22R,2.000000X1.400000*%
%ADD23C,3.100000*%
%ADD24R,1.300000X2.900000*%
%ADD25R,1.400000X2.000000*%
%ADD26R,0.900000X1.300000*%
%ADD27R,2.900000X1.300000*%
%ADD28R,1.150000X1.200000*%
%ADD29C,2.600000*%
%ADD30C,2.400000*%
%ADD31R,1.000000X1.900000*%
%ADD32R,1.650000X1.400000*%
%ADD33R,1.400000X1.650000*%
%ADD34R,1.200000X1.150000*%
%ADD35R,2.900000X1.400000*%
%ADD36C,3.300000*%
%ADD37C,2.200000*%
%ADD38R,1.100000X1.700000*%
%ADD39R,4.400000X5.900000*%
%ADD40R,5.900000X4.400000*%
%ADD41R,1.800000X0.700000*%
%ADD42R,2.050000X3.250000*%
%ADD43R,2.127200X2.127200*%
%ADD44O,2.127200X2.127200*%
%ADD45C,3.800000*%
%ADD46R,1.950000X1.000000*%
G04 APERTURE END LIST*
D10*
X123600000Y-70050000D03*
X123600000Y-71550000D03*
D11*
X132190000Y-136370000D03*
X88010000Y-136370000D03*
D12*
X132190000Y-131050000D03*
X88010000Y-131050000D03*
X132190000Y-125050000D03*
X88010000Y-125050000D03*
X132190000Y-119050000D03*
X88010000Y-119050000D03*
X132190000Y-112950000D03*
X88010000Y-112950000D03*
X132190000Y-106950000D03*
X88010000Y-106950000D03*
X132190000Y-100950000D03*
X88010000Y-100950000D03*
D11*
X132190000Y-95630000D03*
X88010000Y-95630000D03*
D13*
X130470000Y-138090000D03*
X130470000Y-93910000D03*
D14*
X125150000Y-138090000D03*
X125150000Y-93910000D03*
X119150000Y-138090000D03*
X119150000Y-93910000D03*
X113150000Y-138090000D03*
X113150000Y-93910000D03*
X107050000Y-138090000D03*
X107050000Y-93910000D03*
X101050000Y-138090000D03*
X101050000Y-93910000D03*
X95050000Y-138090000D03*
X95050000Y-93910000D03*
D13*
X89730000Y-138090000D03*
X89730000Y-93910000D03*
D15*
X88010000Y-138090000D03*
X132190000Y-138090000D03*
X132190000Y-93910000D03*
X88010000Y-93910000D03*
D16*
X99900000Y-72080000D03*
X99900000Y-69540000D03*
X99900000Y-67000000D03*
D17*
X88895000Y-72000000D03*
X90165000Y-72000000D03*
X91435000Y-72000000D03*
X92705000Y-72000000D03*
X92705000Y-66600000D03*
X91435000Y-66600000D03*
X90165000Y-66600000D03*
X88895000Y-66600000D03*
D18*
X90192500Y-54786250D03*
X90192500Y-55436250D03*
X90192500Y-56086250D03*
X90192500Y-56736250D03*
X90192500Y-57386250D03*
X90192500Y-58036250D03*
X94402500Y-58036250D03*
X94402500Y-57386250D03*
X94402500Y-56736250D03*
X94402500Y-56086250D03*
X94402500Y-55436250D03*
X94402500Y-54786250D03*
D19*
X92710000Y-57480000D03*
X92710000Y-56767500D03*
X92710000Y-56055000D03*
X92710000Y-55342500D03*
X91885000Y-57480000D03*
X91885000Y-56767500D03*
X91885000Y-56055000D03*
X91885000Y-55342500D03*
D18*
X88385000Y-81395000D03*
X88385000Y-82045000D03*
X88385000Y-82695000D03*
X88385000Y-83345000D03*
X88385000Y-83995000D03*
X88385000Y-84645000D03*
X92595000Y-84645000D03*
X92595000Y-83995000D03*
X92595000Y-83345000D03*
X92595000Y-82695000D03*
X92595000Y-82045000D03*
X92595000Y-81395000D03*
D19*
X90902500Y-84088750D03*
X90902500Y-83376250D03*
X90902500Y-82663750D03*
X90902500Y-81951250D03*
X90077500Y-84088750D03*
X90077500Y-83376250D03*
X90077500Y-82663750D03*
X90077500Y-81951250D03*
D20*
X99900000Y-64120000D03*
D21*
X119460000Y-53290000D03*
X119460000Y-50240000D03*
D22*
X114200000Y-72700000D03*
X114200000Y-75700000D03*
D23*
X227600000Y-137550000D03*
X227610000Y-48640000D03*
D20*
X189000000Y-138300000D03*
D24*
X154350000Y-50900000D03*
X151450000Y-50900000D03*
D20*
X110890000Y-84560000D03*
X99300000Y-50000000D03*
X101800000Y-84600000D03*
D25*
X90160000Y-75320000D03*
X87160000Y-75320000D03*
X99170000Y-59420000D03*
X96170000Y-59420000D03*
X94800000Y-86600000D03*
X97800000Y-86600000D03*
D26*
X114850000Y-53300000D03*
X116350000Y-53300000D03*
D27*
X97590000Y-52740000D03*
X97590000Y-55640000D03*
X96350000Y-82250000D03*
X96350000Y-79350000D03*
X86700000Y-58900000D03*
X86700000Y-56000000D03*
X85600000Y-82550000D03*
X85600000Y-85450000D03*
D28*
X122300000Y-64050000D03*
X122300000Y-65550000D03*
X122300000Y-54950000D03*
X122300000Y-53450000D03*
X131900000Y-63950000D03*
X131900000Y-65450000D03*
X133200000Y-54850000D03*
X133200000Y-53350000D03*
X148000000Y-55150000D03*
X148000000Y-53650000D03*
X152000000Y-64150000D03*
X152000000Y-65650000D03*
D29*
X108060000Y-67640000D03*
X108060000Y-62560000D03*
X113140000Y-62560000D03*
X113140000Y-67640000D03*
D30*
X110600000Y-65100000D03*
D29*
X137460000Y-67640000D03*
X137460000Y-62560000D03*
X142540000Y-62560000D03*
X142540000Y-67640000D03*
D30*
X140000000Y-65100000D03*
D29*
X157960000Y-67640000D03*
X157960000Y-62560000D03*
X163040000Y-62560000D03*
X163040000Y-67640000D03*
D30*
X160500000Y-65100000D03*
D29*
X157960000Y-53540000D03*
X157960000Y-48460000D03*
X163040000Y-48460000D03*
X163040000Y-53540000D03*
D30*
X160500000Y-51000000D03*
D26*
X94650000Y-84000000D03*
X96150000Y-84000000D03*
X97450000Y-57400000D03*
X95950000Y-57400000D03*
X118480000Y-66030000D03*
X119980000Y-66030000D03*
X118410000Y-64360000D03*
X119910000Y-64360000D03*
X111950000Y-72600000D03*
X110450000Y-72600000D03*
D10*
X147500000Y-65650000D03*
X147500000Y-64150000D03*
D26*
X123400000Y-67900000D03*
X121900000Y-67900000D03*
X125050000Y-66400000D03*
X126550000Y-66400000D03*
X126560000Y-64460000D03*
X125060000Y-64460000D03*
D24*
X132550000Y-67700000D03*
X129650000Y-67700000D03*
D27*
X126200000Y-51850000D03*
X126200000Y-54750000D03*
D10*
X145600000Y-64150000D03*
X145600000Y-65650000D03*
X145700000Y-62750000D03*
X145700000Y-61250000D03*
D26*
X150550000Y-64200000D03*
X149050000Y-64200000D03*
D27*
X167000000Y-64950000D03*
X167000000Y-62050000D03*
D31*
X118490000Y-62200000D03*
X119760000Y-62200000D03*
X121030000Y-62200000D03*
X122300000Y-62200000D03*
X123570000Y-62200000D03*
X124840000Y-62200000D03*
X126110000Y-62200000D03*
X126110000Y-56800000D03*
X124840000Y-56800000D03*
X123570000Y-56800000D03*
X122300000Y-56800000D03*
X121030000Y-56800000D03*
X119760000Y-56800000D03*
X118490000Y-56800000D03*
D17*
X133205000Y-56800000D03*
X131935000Y-56800000D03*
X130665000Y-56800000D03*
X129395000Y-56800000D03*
X129395000Y-62200000D03*
X130665000Y-62200000D03*
X131935000Y-62200000D03*
X133205000Y-62200000D03*
X151805000Y-56900000D03*
X150535000Y-56900000D03*
X149265000Y-56900000D03*
X147995000Y-56900000D03*
X147995000Y-62300000D03*
X149265000Y-62300000D03*
X150535000Y-62300000D03*
X151805000Y-62300000D03*
D29*
X137260000Y-53540000D03*
X137260000Y-48460000D03*
X142340000Y-48460000D03*
X142340000Y-53540000D03*
D30*
X139800000Y-51000000D03*
D29*
X171960000Y-67540000D03*
X171960000Y-62460000D03*
X177040000Y-62460000D03*
X177040000Y-67540000D03*
D30*
X174500000Y-65000000D03*
D32*
X95400000Y-101200000D03*
X95400000Y-103200000D03*
D33*
X100700000Y-101300000D03*
X102700000Y-101300000D03*
D32*
X111600000Y-110900000D03*
X111600000Y-112900000D03*
D34*
X111150000Y-107800000D03*
X109650000Y-107800000D03*
D33*
X122500000Y-110600000D03*
X124500000Y-110600000D03*
D28*
X120600000Y-112550000D03*
X120600000Y-111050000D03*
D34*
X122250000Y-108600000D03*
X123750000Y-108600000D03*
D35*
X113800000Y-118400000D03*
X113800000Y-115400000D03*
D36*
X74220000Y-137550000D03*
X74220000Y-48650000D03*
D37*
X81840000Y-53730000D03*
X81840000Y-56270000D03*
X81840000Y-58810000D03*
X81840000Y-61350000D03*
X81840000Y-63890000D03*
X81840000Y-66430000D03*
X81840000Y-68970000D03*
X81840000Y-71510000D03*
X81840000Y-74050000D03*
X81840000Y-76590000D03*
X81840000Y-79130000D03*
X81840000Y-81670000D03*
X81840000Y-84210000D03*
X81840000Y-86750000D03*
X81840000Y-89290000D03*
X81840000Y-91830000D03*
X81840000Y-94370000D03*
X81840000Y-96910000D03*
X81840000Y-99450000D03*
X81840000Y-101990000D03*
X81840000Y-104530000D03*
X81840000Y-107070000D03*
X81840000Y-109610000D03*
X81840000Y-112150000D03*
X81840000Y-114690000D03*
X81840000Y-117230000D03*
X81840000Y-119770000D03*
X81840000Y-122310000D03*
X81840000Y-127390000D03*
X81840000Y-124850000D03*
X81840000Y-129930000D03*
X81840000Y-132470000D03*
X76760000Y-53730000D03*
X76760000Y-56270000D03*
X76760000Y-58810000D03*
X76760000Y-61350000D03*
X76760000Y-63890000D03*
X76760000Y-66430000D03*
X76760000Y-68970000D03*
X76760000Y-71510000D03*
X76760000Y-74050000D03*
X76760000Y-76590000D03*
X76760000Y-79130000D03*
X76760000Y-81670000D03*
X76760000Y-84210000D03*
X76760000Y-86750000D03*
X76760000Y-89290000D03*
X76760000Y-91830000D03*
X76760000Y-94370000D03*
X76760000Y-96910000D03*
X76760000Y-99450000D03*
X76760000Y-101990000D03*
X76760000Y-104530000D03*
X76760000Y-107070000D03*
X76760000Y-109610000D03*
X76760000Y-112150000D03*
X76760000Y-114690000D03*
X76760000Y-117230000D03*
X76760000Y-119770000D03*
X76760000Y-122310000D03*
X76760000Y-127390000D03*
X76760000Y-124850000D03*
X76760000Y-129930000D03*
X76760000Y-132470000D03*
D38*
X97150000Y-101200000D03*
X99050000Y-101200000D03*
D39*
X96950000Y-110900000D03*
X105450000Y-110900000D03*
D40*
X122700000Y-125750000D03*
X122700000Y-117250000D03*
D26*
X111250000Y-109300000D03*
X109750000Y-109300000D03*
D10*
X120400000Y-108450000D03*
X120400000Y-106950000D03*
D26*
X123650000Y-107100000D03*
X122150000Y-107100000D03*
D41*
X114200000Y-108650000D03*
X114200000Y-109150000D03*
X114200000Y-109650000D03*
X114200000Y-110150000D03*
X114200000Y-110650000D03*
X118600000Y-110650000D03*
X118600000Y-110150000D03*
X118600000Y-109650000D03*
X118600000Y-109150000D03*
X118600000Y-108650000D03*
X114200000Y-111150000D03*
X114200000Y-111650000D03*
X114200000Y-112150000D03*
X118600000Y-111150000D03*
X118600000Y-111650000D03*
X118600000Y-112150000D03*
D42*
X116400000Y-110300000D03*
D43*
X182867000Y-129767000D03*
D44*
X182867000Y-127227000D03*
X180327000Y-129767000D03*
X180327000Y-127227000D03*
X177787000Y-129767000D03*
X177787000Y-127227000D03*
X175247000Y-129767000D03*
X175247000Y-127227000D03*
X172707000Y-129767000D03*
X172707000Y-127227000D03*
X170167000Y-129767000D03*
X170167000Y-127227000D03*
X167627000Y-129767000D03*
X167627000Y-127227000D03*
X165087000Y-129767000D03*
X165087000Y-127227000D03*
X162547000Y-129767000D03*
X162547000Y-127227000D03*
X160007000Y-129767000D03*
X160007000Y-127227000D03*
X157467000Y-129767000D03*
X157467000Y-127227000D03*
X154927000Y-129767000D03*
X154927000Y-127227000D03*
X152387000Y-129767000D03*
X152387000Y-127227000D03*
D45*
X227700000Y-130100000D03*
X143700000Y-130100000D03*
X143700000Y-76100000D03*
X227700000Y-76100000D03*
D34*
X182750000Y-59000000D03*
X181250000Y-59000000D03*
D28*
X198400000Y-50650000D03*
X198400000Y-49150000D03*
D34*
X200750000Y-53000000D03*
X202250000Y-53000000D03*
D28*
X190500000Y-58750000D03*
X190500000Y-57250000D03*
D30*
X188500000Y-65000000D03*
D29*
X191040000Y-67540000D03*
X191040000Y-62460000D03*
X185960000Y-62460000D03*
X185960000Y-67540000D03*
X199960000Y-67540000D03*
X199960000Y-62460000D03*
X205040000Y-62460000D03*
X205040000Y-67540000D03*
D30*
X202500000Y-65000000D03*
D10*
X187000000Y-55250000D03*
X187000000Y-53750000D03*
X181000000Y-61750000D03*
X181000000Y-63250000D03*
X190500000Y-53750000D03*
X190500000Y-55250000D03*
D26*
X194850000Y-50700000D03*
X196350000Y-50700000D03*
D10*
X204000000Y-57250000D03*
X204000000Y-55750000D03*
X200500000Y-55750000D03*
X200500000Y-57250000D03*
D27*
X210000000Y-62050000D03*
X210000000Y-64950000D03*
D46*
X192800000Y-56905000D03*
X192800000Y-55635000D03*
X192800000Y-54365000D03*
X192800000Y-53095000D03*
X198200000Y-53095000D03*
X198200000Y-54365000D03*
X198200000Y-55635000D03*
X198200000Y-56905000D03*
M02*
