G04 #@! TF.GenerationSoftware,KiCad,Pcbnew,(5.1.4)-1*
G04 #@! TF.CreationDate,2020-03-19T20:01:28+01:00*
G04 #@! TF.ProjectId,RedPitaya_Lockbox,52656450-6974-4617-9961-5f4c6f636b62,1.3.1*
G04 #@! TF.SameCoordinates,Original*
G04 #@! TF.FileFunction,Soldermask,Bot*
G04 #@! TF.FilePolarity,Negative*
%FSLAX46Y46*%
G04 Gerber Fmt 4.6, Leading zero omitted, Abs format (unit mm)*
G04 Created by KiCad (PCBNEW (5.1.4)-1) date 2020-03-19 20:01:28*
%MOMM*%
%LPD*%
G04 APERTURE LIST*
%ADD10O,3.410000X1.910000*%
%ADD11C,1.900000*%
%ADD12C,3.100000*%
%ADD13C,2.600000*%
%ADD14C,2.400000*%
%ADD15C,3.300000*%
%ADD16C,2.200000*%
%ADD17R,2.127200X2.127200*%
%ADD18O,2.127200X2.127200*%
%ADD19C,3.800000*%
G04 APERTURE END LIST*
D10*
X99900000Y-72080000D03*
X99900000Y-69540000D03*
X99900000Y-67000000D03*
D11*
X99900000Y-64120000D03*
D12*
X227600000Y-137550000D03*
X227610000Y-48640000D03*
D11*
X185700000Y-138300000D03*
X110890000Y-84560000D03*
X99300000Y-50000000D03*
X101800000Y-84600000D03*
D13*
X108060000Y-67640000D03*
X108060000Y-62560000D03*
X113140000Y-62560000D03*
X113140000Y-67640000D03*
D14*
X110600000Y-65100000D03*
D13*
X137460000Y-67640000D03*
X137460000Y-62560000D03*
X142540000Y-62560000D03*
X142540000Y-67640000D03*
D14*
X140000000Y-65100000D03*
D13*
X157960000Y-67640000D03*
X157960000Y-62560000D03*
X163040000Y-62560000D03*
X163040000Y-67640000D03*
D14*
X160500000Y-65100000D03*
D13*
X157960000Y-53440000D03*
X157960000Y-48360000D03*
X163040000Y-48360000D03*
X163040000Y-53440000D03*
D14*
X160500000Y-50900000D03*
D13*
X137260000Y-53540000D03*
X137260000Y-48460000D03*
X142340000Y-48460000D03*
X142340000Y-53540000D03*
D14*
X139800000Y-51000000D03*
D13*
X169360000Y-67540000D03*
X169360000Y-62460000D03*
X174440000Y-62460000D03*
X174440000Y-67540000D03*
D14*
X171900000Y-65000000D03*
D15*
X74220000Y-137550000D03*
X74220000Y-48650000D03*
D16*
X81840000Y-53730000D03*
X81840000Y-56270000D03*
X81840000Y-58810000D03*
X81840000Y-61350000D03*
X81840000Y-63890000D03*
X81840000Y-66430000D03*
X81840000Y-68970000D03*
X81840000Y-71510000D03*
X81840000Y-74050000D03*
X81840000Y-76590000D03*
X81840000Y-79130000D03*
X81840000Y-81670000D03*
X81840000Y-84210000D03*
X81840000Y-86750000D03*
X81840000Y-89290000D03*
X81840000Y-91830000D03*
X81840000Y-94370000D03*
X81840000Y-96910000D03*
X81840000Y-99450000D03*
X81840000Y-101990000D03*
X81840000Y-104530000D03*
X81840000Y-107070000D03*
X81840000Y-109610000D03*
X81840000Y-112150000D03*
X81840000Y-114690000D03*
X81840000Y-117230000D03*
X81840000Y-119770000D03*
X81840000Y-122310000D03*
X81840000Y-127390000D03*
X81840000Y-124850000D03*
X81840000Y-129930000D03*
X81840000Y-132470000D03*
X76760000Y-53730000D03*
X76760000Y-56270000D03*
X76760000Y-58810000D03*
X76760000Y-61350000D03*
X76760000Y-63890000D03*
X76760000Y-66430000D03*
X76760000Y-68970000D03*
X76760000Y-71510000D03*
X76760000Y-74050000D03*
X76760000Y-76590000D03*
X76760000Y-79130000D03*
X76760000Y-81670000D03*
X76760000Y-84210000D03*
X76760000Y-86750000D03*
X76760000Y-89290000D03*
X76760000Y-91830000D03*
X76760000Y-94370000D03*
X76760000Y-96910000D03*
X76760000Y-99450000D03*
X76760000Y-101990000D03*
X76760000Y-104530000D03*
X76760000Y-107070000D03*
X76760000Y-109610000D03*
X76760000Y-112150000D03*
X76760000Y-114690000D03*
X76760000Y-117230000D03*
X76760000Y-119770000D03*
X76760000Y-122310000D03*
X76760000Y-127390000D03*
X76760000Y-124850000D03*
X76760000Y-129930000D03*
X76760000Y-132470000D03*
D17*
X182867000Y-129767000D03*
D18*
X182867000Y-127227000D03*
X180327000Y-129767000D03*
X180327000Y-127227000D03*
X177787000Y-129767000D03*
X177787000Y-127227000D03*
X175247000Y-129767000D03*
X175247000Y-127227000D03*
X172707000Y-129767000D03*
X172707000Y-127227000D03*
X170167000Y-129767000D03*
X170167000Y-127227000D03*
X167627000Y-129767000D03*
X167627000Y-127227000D03*
X165087000Y-129767000D03*
X165087000Y-127227000D03*
X162547000Y-129767000D03*
X162547000Y-127227000D03*
X160007000Y-129767000D03*
X160007000Y-127227000D03*
X157467000Y-129767000D03*
X157467000Y-127227000D03*
X154927000Y-129767000D03*
X154927000Y-127227000D03*
X152387000Y-129767000D03*
X152387000Y-127227000D03*
D19*
X227700000Y-130100000D03*
X143700000Y-130100000D03*
X143700000Y-76100000D03*
X227700000Y-76100000D03*
M02*
