M48
; DRILL file {KiCad (5.1.10)-1} date 10/13/21 16:23:53
; FORMAT={-:-/ absolute / metric / decimal}
; #@! TF.CreationDate,2021-10-13T16:23:53+02:00
; #@! TF.GenerationSoftware,Kicad,Pcbnew,(5.1.10)-1
; #@! TF.FileFunction,Plated,1,2,PTH
FMAT,2
METRIC
T1C0.300
T2C0.700
T3C1.000
T4C1.016
T5C1.500
T6C1.700
%
G90
G05
T1
X56.3Y-131.1
X56.3Y-132.1
X56.3Y-133.1
X57.3Y-131.1
X57.3Y-132.1
X57.3Y-133.1
X58.0Y-41.25
X58.0Y-42.5
X58.0Y-43.75
X58.0Y-52.5
X58.0Y-53.5
X58.0Y-54.5
X58.3Y-131.1
X58.3Y-132.1
X58.3Y-133.1
X64.2Y-78.7
X64.3Y-67.2
X64.5Y-42.0
X64.5Y-43.5
X64.5Y-45.0
X65.3Y-52.1
X66.0Y-42.0
X66.0Y-43.5
X66.0Y-45.0
X66.5Y-117.0
X66.6Y-92.8
X66.6Y-104.8
X66.61Y-85.81
X66.61Y-87.53
X66.61Y-98.85
X66.61Y-110.95
X66.61Y-122.95
X66.61Y-128.27
X66.7Y-129.9
X67.4Y-77.5
X67.5Y-42.0
X67.5Y-43.5
X67.5Y-45.0
X68.33Y-85.81
X68.33Y-129.99
X68.8Y-52.4
X69.0Y-42.0
X69.0Y-43.5
X69.0Y-45.0
X69.177Y-73.851
X69.177Y-74.564
X69.177Y-75.276
X69.177Y-75.989
X69.6Y-106.9
X69.6Y-108.9
X69.6Y-110.9
X69.6Y-112.9
X69.6Y-114.9
X70.0Y-74.56
X70.002Y-73.851
X70.002Y-75.276
X70.002Y-75.989
X70.485Y-47.242
X70.485Y-47.955
X70.485Y-48.667
X70.485Y-49.38
X71.3Y-65.7
X71.31Y-47.242
X71.31Y-47.955
X71.31Y-48.667
X71.31Y-49.38
X71.6Y-106.9
X71.6Y-108.9
X71.6Y-110.9
X71.6Y-112.9
X71.6Y-114.9
X73.6Y-110.9
X73.6Y-112.9
X73.6Y-114.9
X73.65Y-129.99
X73.7Y-85.8
X74.175Y-48.65
X75.451Y-69.177
X75.6Y-110.9
X75.6Y-112.9
X75.6Y-114.9
X75.7Y-95.0
X75.8Y-76.9
X76.6Y-45.9
X77.6Y-110.9
X77.6Y-112.9
X77.6Y-114.9
X78.1Y-49.7
X79.6Y-110.9
X79.6Y-112.9
X79.6Y-114.9
X79.6Y-130.0
X79.65Y-85.81
X80.48Y-69.266
X81.6Y-110.9
X81.6Y-112.9
X81.6Y-114.9
X82.6Y-93.2
X83.6Y-110.9
X83.6Y-112.9
X83.6Y-114.9
X85.1Y-49.32
X85.6Y-85.8
X85.6Y-110.9
X85.6Y-112.9
X85.6Y-114.9
X85.6Y-116.9
X85.6Y-118.9
X85.6Y-120.9
X85.6Y-122.9
X85.6Y-124.9
X85.6Y-126.9
X85.65Y-129.99
X86.5Y-67.25
X87.6Y-96.4
X87.6Y-97.4
X87.6Y-98.4
X87.6Y-110.9
X87.6Y-112.9
X87.6Y-114.9
X87.6Y-116.9
X87.6Y-118.9
X87.6Y-120.9
X87.6Y-122.9
X87.6Y-124.9
X87.6Y-126.9
X88.6Y-96.4
X88.6Y-97.4
X88.6Y-98.4
X88.7Y-104.7
X89.6Y-96.4
X89.6Y-97.4
X89.6Y-98.4
X89.6Y-106.9
X89.6Y-108.9
X89.6Y-110.9
X89.6Y-112.9
X89.6Y-114.9
X89.6Y-116.9
X89.6Y-118.9
X89.6Y-120.9
X89.6Y-122.9
X89.6Y-124.9
X89.6Y-126.9
X90.6Y-96.4
X90.6Y-97.4
X90.6Y-98.4
X91.3Y-66.7
X91.6Y-96.4
X91.6Y-97.4
X91.6Y-98.4
X91.6Y-99.4
X91.7Y-130.1
X91.75Y-85.81
X92.5Y-108.9
X92.6Y-96.4
X92.6Y-97.4
X92.6Y-98.4
X92.6Y-99.4
X93.6Y-96.4
X93.6Y-97.4
X93.6Y-98.4
X93.6Y-99.4
X94.4Y-104.7
X94.4Y-106.2
X94.4Y-107.5
X94.4Y-108.8
X94.6Y-96.4
X94.6Y-97.4
X94.6Y-98.4
X94.6Y-99.4
X94.6Y-101.2
X94.6Y-102.2
X94.6Y-103.2
X95.4Y-101.2
X95.4Y-102.2
X95.4Y-103.2
X95.6Y-42.1
X95.6Y-96.4
X95.6Y-97.4
X95.6Y-98.4
X95.6Y-99.4
X95.7Y-104.7
X95.7Y-106.2
X96.6Y-96.4
X96.6Y-97.4
X96.6Y-98.4
X96.6Y-99.4
X97.1Y-58.8
X97.6Y-96.4
X97.6Y-97.4
X97.6Y-98.4
X97.6Y-99.4
X97.7Y-85.8
X97.75Y-129.99
X98.5Y-50.25
X98.6Y-96.4
X98.6Y-97.4
X99.6Y-96.4
X99.6Y-97.4
X99.85Y-57.4
X100.6Y-96.4
X100.6Y-97.4
X101.1Y-63.5
X101.6Y-96.4
X101.6Y-97.4
X101.85Y-45.65
X102.2Y-50.2
X102.6Y-96.4
X102.6Y-97.4
X103.6Y-96.4
X103.6Y-97.4
X103.6Y-99.9
X103.6Y-100.9
X103.75Y-85.81
X103.75Y-129.99
X104.6Y-96.4
X104.6Y-97.4
X104.6Y-99.9
X104.6Y-100.9
X104.6Y-101.9
X105.2Y-57.6
X105.6Y-96.4
X105.6Y-97.4
X105.6Y-99.9
X105.6Y-100.9
X105.6Y-101.9
X105.6Y-102.9
X106.44Y-56.36
X106.5Y-53.4
X106.6Y-96.4
X106.6Y-97.4
X106.6Y-99.9
X106.6Y-100.9
X106.6Y-101.9
X106.6Y-102.9
X107.6Y-96.4
X107.6Y-97.4
X107.6Y-99.9
X107.6Y-100.9
X107.6Y-101.9
X107.6Y-102.9
X108.6Y-96.4
X108.6Y-97.4
X108.6Y-100.9
X108.6Y-101.9
X108.6Y-102.9
X109.07Y-85.81
X109.07Y-129.99
X109.3Y-50.2
X110.6Y-45.3
X110.79Y-85.81
X110.79Y-87.53
X110.79Y-92.85
X110.79Y-104.85
X110.79Y-116.95
X110.79Y-128.27
X110.79Y-129.99
X110.8Y-98.8
X110.8Y-111.0
X110.8Y-123.0
X111.7Y-55.6
X126.6Y-44.2
X127.0Y-57.8
X127.85Y-50.3
X129.2Y-52.8
X131.1Y-55.8
X142.75Y-51.05
X144.4Y-51.9
X159.75Y-60.75
X162.6Y-50.9
X166.6Y-46.9
X170.2Y-50.4
X174.0Y-48.0
X178.3Y-45.0
X179.1Y-41.0
X180.85Y-45.9
X181.7Y-48.6
T2
X77.9Y-41.9
X78.5Y-56.02
X80.9Y-76.5
X89.49Y-76.46
X167.6Y-130.2
T3
X55.36Y-45.63
X55.36Y-48.17
X55.36Y-50.71
X55.36Y-53.25
X55.36Y-55.79
X55.36Y-58.33
X55.36Y-60.87
X55.36Y-63.41
X55.36Y-65.95
X55.36Y-68.49
X55.36Y-71.03
X55.36Y-73.57
X55.36Y-76.11
X55.36Y-78.65
X55.36Y-81.19
X55.36Y-83.73
X55.36Y-86.27
X55.36Y-88.81
X55.36Y-91.35
X55.36Y-93.89
X55.36Y-96.43
X55.36Y-98.97
X55.36Y-101.51
X55.36Y-104.05
X55.36Y-106.59
X55.36Y-109.13
X55.36Y-111.67
X55.36Y-114.21
X55.36Y-116.75
X55.36Y-119.29
X55.36Y-121.83
X55.36Y-124.37
X60.44Y-45.63
X60.44Y-48.17
X60.44Y-50.71
X60.44Y-53.25
X60.44Y-55.79
X60.44Y-58.33
X60.44Y-60.87
X60.44Y-63.41
X60.44Y-65.95
X60.44Y-68.49
X60.44Y-71.03
X60.44Y-73.57
X60.44Y-76.11
X60.44Y-78.65
X60.44Y-81.19
X60.44Y-83.73
X60.44Y-86.27
X60.44Y-88.81
X60.44Y-91.35
X60.44Y-93.89
X60.44Y-96.43
X60.44Y-98.97
X60.44Y-101.51
X60.44Y-104.05
X60.44Y-106.59
X60.44Y-109.13
X60.44Y-111.67
X60.44Y-114.21
X60.44Y-116.75
X60.44Y-119.29
X60.44Y-121.83
X60.44Y-124.37
T4
X78.5Y-58.9
X78.5Y-61.44
X78.5Y-63.98
X130.987Y-119.127
X130.987Y-121.667
X133.527Y-119.127
X133.527Y-121.667
X136.067Y-119.127
X136.067Y-121.667
X138.607Y-119.127
X138.607Y-121.667
X141.147Y-119.127
X141.147Y-121.667
X143.687Y-119.127
X143.687Y-121.667
X146.227Y-119.127
X146.227Y-121.667
X148.767Y-119.127
X148.767Y-121.667
X151.307Y-119.127
X151.307Y-121.667
X153.847Y-119.127
X153.847Y-121.667
X156.387Y-119.127
X156.387Y-121.667
X158.927Y-119.127
X158.927Y-121.667
X161.467Y-119.127
X161.467Y-121.667
T5
X89.2Y-57.0
X118.4Y-42.9
X118.6Y-57.0
X139.1Y-42.9
X139.1Y-57.0
X153.1Y-56.9
X167.1Y-56.9
X181.1Y-56.9
T6
X86.66Y-54.46
X86.66Y-59.54
X91.74Y-54.46
X91.74Y-59.54
X115.86Y-40.36
X115.86Y-45.44
X116.06Y-54.46
X116.06Y-59.54
X120.94Y-40.36
X120.94Y-45.44
X121.14Y-54.46
X121.14Y-59.54
X136.56Y-40.36
X136.56Y-45.44
X136.56Y-54.46
X136.56Y-59.54
X141.64Y-40.36
X141.64Y-45.44
X141.64Y-54.46
X141.64Y-59.54
X150.56Y-54.36
X150.56Y-59.44
X155.64Y-54.36
X155.64Y-59.44
X164.56Y-54.36
X164.56Y-59.44
X169.64Y-54.36
X169.64Y-59.44
X178.56Y-54.36
X178.56Y-59.44
X183.64Y-54.36
X183.64Y-59.44
T0
M30
