M48
; DRILL file {KiCad (5.1.5)-3} date 25.09.2020 16:27:26
; FORMAT={-:-/ absolute / metric / decimal}
; #@! TF.CreationDate,2020-09-25T16:27:26+02:00
; #@! TF.GenerationSoftware,Kicad,Pcbnew,(5.1.5)-3
; #@! TF.FileFunction,Plated,1,2,PTH
FMAT,2
METRIC
T1C0.300
T2C0.700
T3C1.000
T4C1.016
T5C1.500
T6C1.700
%
G90
G05
T1
X84.27Y-53.53
X85.23Y-53.53
X85.6Y-86.8
X85.7Y-75.3
X86.27Y-53.53
X86.7Y-60.2
X87.23Y-53.53
X87.9Y-125.1
X88.0Y-100.9
X88.0Y-112.9
X88.01Y-93.91
X88.01Y-95.63
X88.01Y-106.95
X88.01Y-119.05
X88.01Y-131.05
X88.01Y-136.37
X88.1Y-138.0
X88.27Y-53.53
X89.73Y-93.91
X89.73Y-138.09
X90.18Y-58.79
X90.578Y-81.951
X90.578Y-82.664
X90.578Y-83.376
X90.578Y-84.089
X91.0Y-115.0
X91.0Y-117.0
X91.0Y-119.0
X91.0Y-121.0
X91.0Y-123.0
X91.4Y-82.66
X91.402Y-81.951
X91.402Y-83.376
X91.402Y-84.089
X91.885Y-55.342
X91.885Y-56.055
X91.885Y-56.767
X91.885Y-57.48
X92.7Y-73.8
X92.71Y-55.342
X92.71Y-56.055
X92.71Y-56.767
X92.71Y-57.48
X93.0Y-115.0
X93.0Y-117.0
X93.0Y-119.0
X93.0Y-121.0
X93.0Y-123.0
X95.0Y-115.0
X95.0Y-117.0
X95.0Y-119.0
X95.0Y-121.0
X95.0Y-123.0
X95.05Y-138.09
X95.1Y-93.9
X95.4Y-104.5
X95.575Y-56.75
X96.8Y-79.7
X97.0Y-115.0
X97.0Y-117.0
X97.0Y-119.0
X97.0Y-121.0
X97.0Y-123.0
X97.2Y-85.0
X98.0Y-54.0
X99.0Y-115.0
X99.0Y-117.0
X99.0Y-119.0
X99.0Y-121.0
X99.0Y-123.0
X99.5Y-57.8
X101.0Y-115.0
X101.0Y-117.0
X101.0Y-119.0
X101.0Y-121.0
X101.0Y-123.0
X101.0Y-138.1
X101.05Y-93.91
X103.0Y-104.5
X103.0Y-105.5
X103.0Y-106.5
X103.0Y-115.0
X103.0Y-117.0
X103.0Y-119.0
X103.0Y-121.0
X103.0Y-123.0
X104.0Y-101.3
X104.0Y-104.5
X104.0Y-105.5
X104.0Y-106.5
X105.0Y-104.5
X105.0Y-105.5
X105.0Y-106.5
X105.0Y-115.0
X105.0Y-117.0
X105.0Y-119.0
X105.0Y-121.0
X105.0Y-123.0
X106.0Y-104.5
X106.0Y-105.5
X106.0Y-106.5
X106.5Y-57.42
X107.0Y-93.9
X107.0Y-104.5
X107.0Y-105.5
X107.0Y-106.5
X107.0Y-115.0
X107.0Y-117.0
X107.0Y-119.0
X107.0Y-121.0
X107.0Y-123.0
X107.0Y-125.0
X107.0Y-127.0
X107.0Y-129.0
X107.0Y-131.0
X107.0Y-133.0
X107.0Y-135.0
X107.05Y-138.09
X108.0Y-104.5
X108.0Y-105.5
X108.0Y-106.5
X109.0Y-104.5
X109.0Y-105.5
X109.0Y-106.5
X109.0Y-115.0
X109.0Y-117.0
X109.0Y-119.0
X109.0Y-121.0
X109.0Y-123.0
X109.0Y-125.0
X109.0Y-127.0
X109.0Y-129.0
X109.0Y-131.0
X109.0Y-133.0
X109.0Y-135.0
X110.0Y-104.5
X110.0Y-105.5
X110.0Y-106.5
X110.1Y-112.8
X111.0Y-104.5
X111.0Y-105.5
X111.0Y-106.5
X111.0Y-115.0
X111.0Y-117.0
X111.0Y-119.0
X111.0Y-121.0
X111.0Y-123.0
X111.0Y-125.0
X111.0Y-127.0
X111.0Y-129.0
X111.0Y-131.0
X111.0Y-133.0
X111.0Y-135.0
X112.0Y-104.5
X112.0Y-105.5
X112.0Y-106.5
X112.7Y-74.8
X113.0Y-104.5
X113.0Y-105.5
X113.0Y-106.5
X113.0Y-107.5
X113.1Y-138.2
X113.15Y-93.91
X113.9Y-117.0
X114.0Y-104.5
X114.0Y-105.5
X114.0Y-106.5
X114.0Y-107.5
X115.0Y-104.5
X115.0Y-105.5
X115.0Y-106.5
X115.0Y-107.5
X115.8Y-112.8
X115.8Y-114.3
X115.8Y-115.6
X115.8Y-116.9
X116.0Y-104.5
X116.0Y-105.5
X116.0Y-106.5
X116.0Y-107.5
X116.0Y-109.3
X116.0Y-110.3
X116.0Y-111.3
X116.8Y-109.3
X116.8Y-110.3
X116.8Y-111.3
X117.0Y-50.2
X117.0Y-104.5
X117.0Y-105.5
X117.0Y-106.5
X117.0Y-107.5
X117.1Y-112.8
X117.1Y-114.3
X117.1Y-115.6
X117.1Y-116.9
X118.0Y-104.5
X118.0Y-105.5
X118.0Y-106.5
X118.0Y-107.5
X118.5Y-66.9
X119.0Y-104.5
X119.0Y-105.5
X119.0Y-106.5
X119.0Y-107.5
X119.1Y-93.9
X119.15Y-138.09
X119.7Y-106.9
X119.9Y-58.35
X120.0Y-104.5
X120.0Y-105.5
X121.0Y-104.5
X121.0Y-105.5
X121.25Y-65.5
X122.0Y-104.5
X122.0Y-105.5
X122.5Y-71.6
X123.0Y-104.5
X123.0Y-105.5
X123.25Y-53.75
X123.6Y-58.3
X124.0Y-104.5
X124.0Y-105.5
X125.0Y-104.5
X125.0Y-105.5
X125.0Y-108.0
X125.0Y-109.0
X125.15Y-93.91
X125.15Y-138.09
X126.0Y-104.5
X126.0Y-105.5
X126.0Y-108.0
X126.0Y-109.0
X126.0Y-110.0
X126.6Y-65.7
X127.0Y-104.5
X127.0Y-105.5
X127.0Y-108.0
X127.0Y-109.0
X127.0Y-110.0
X127.0Y-111.0
X127.84Y-64.46
X127.9Y-61.5
X128.0Y-104.5
X128.0Y-105.5
X128.0Y-108.0
X128.0Y-109.0
X128.0Y-110.0
X128.0Y-111.0
X129.0Y-104.5
X129.0Y-105.5
X129.0Y-108.0
X129.0Y-109.0
X129.0Y-110.0
X129.0Y-111.0
X130.0Y-104.5
X130.0Y-105.5
X130.0Y-109.0
X130.0Y-110.0
X130.0Y-111.0
X130.47Y-93.91
X130.47Y-138.09
X130.7Y-58.3
X132.0Y-53.4
X132.19Y-93.91
X132.19Y-95.63
X132.19Y-100.95
X132.19Y-112.95
X132.19Y-125.05
X132.19Y-136.37
X132.19Y-138.09
X132.2Y-106.9
X132.2Y-119.1
X132.2Y-131.1
X133.1Y-63.7
X148.0Y-52.3
X148.4Y-65.9
X149.25Y-58.4
X150.6Y-60.9
X152.5Y-63.9
X164.15Y-59.15
X165.8Y-60.0
X184.0Y-59.0
X188.0Y-55.0
X191.6Y-58.5
X195.4Y-56.1
X199.7Y-53.1
X200.5Y-49.1
X202.25Y-54.0
X203.1Y-56.7
T2
X99.3Y-50.0
X110.89Y-84.56
X189.0Y-138.3
X99.9Y-64.12
X102.3Y-84.6
T3
X76.76Y-53.73
X76.76Y-56.27
X76.76Y-58.81
X76.76Y-61.35
X76.76Y-63.89
X76.76Y-66.43
X76.76Y-68.97
X76.76Y-71.51
X76.76Y-74.05
X76.76Y-76.59
X76.76Y-79.13
X76.76Y-81.67
X76.76Y-84.21
X76.76Y-86.75
X76.76Y-89.29
X76.76Y-91.83
X76.76Y-94.37
X76.76Y-96.91
X76.76Y-99.45
X76.76Y-101.99
X76.76Y-104.53
X76.76Y-107.07
X76.76Y-109.61
X76.76Y-112.15
X76.76Y-114.69
X76.76Y-117.23
X76.76Y-119.77
X76.76Y-122.31
X76.76Y-124.85
X76.76Y-127.39
X76.76Y-129.93
X76.76Y-132.47
X81.84Y-53.73
X81.84Y-56.27
X81.84Y-58.81
X81.84Y-61.35
X81.84Y-63.89
X81.84Y-66.43
X81.84Y-68.97
X81.84Y-71.51
X81.84Y-74.05
X81.84Y-76.59
X81.84Y-79.13
X81.84Y-81.67
X81.84Y-84.21
X81.84Y-86.75
X81.84Y-89.29
X81.84Y-91.83
X81.84Y-94.37
X81.84Y-96.91
X81.84Y-99.45
X81.84Y-101.99
X81.84Y-104.53
X81.84Y-107.07
X81.84Y-109.61
X81.84Y-112.15
X81.84Y-114.69
X81.84Y-117.23
X81.84Y-119.77
X81.84Y-122.31
X81.84Y-124.85
X81.84Y-127.39
X81.84Y-129.93
X81.84Y-132.47
T4
X99.9Y-67.0
X99.9Y-69.54
X99.9Y-72.08
X152.387Y-127.227
X152.387Y-129.767
X154.927Y-127.227
X154.927Y-129.767
X157.467Y-127.227
X157.467Y-129.767
X160.007Y-127.227
X160.007Y-129.767
X162.547Y-127.227
X162.547Y-129.767
X165.087Y-127.227
X165.087Y-129.767
X167.627Y-127.227
X167.627Y-129.767
X170.167Y-127.227
X170.167Y-129.767
X172.707Y-127.227
X172.707Y-129.767
X175.247Y-127.227
X175.247Y-129.767
X177.787Y-127.227
X177.787Y-129.767
X180.327Y-127.227
X180.327Y-129.767
X182.867Y-127.227
X182.867Y-129.767
T5
X160.5Y-51.0
X110.6Y-65.1
X174.5Y-65.0
X139.8Y-51.0
X160.5Y-65.1
X140.0Y-65.1
X202.5Y-65.0
X188.5Y-65.0
T6
X199.96Y-62.46
X199.96Y-67.54
X205.04Y-62.46
X205.04Y-67.54
X157.96Y-48.46
X157.96Y-53.54
X163.04Y-48.46
X163.04Y-53.54
X108.06Y-62.56
X108.06Y-67.64
X113.14Y-62.56
X113.14Y-67.64
X185.96Y-62.46
X185.96Y-67.54
X191.04Y-62.46
X191.04Y-67.54
X171.96Y-62.46
X171.96Y-67.54
X177.04Y-62.46
X177.04Y-67.54
X137.26Y-48.46
X137.26Y-53.54
X142.34Y-48.46
X142.34Y-53.54
X157.96Y-62.56
X157.96Y-67.64
X163.04Y-62.56
X163.04Y-67.64
X137.46Y-62.56
X137.46Y-67.64
X142.54Y-62.56
X142.54Y-67.64
T0
M30
