M48
; DRILL file {KiCad (6.0.1)} date Tue Feb 22 10:52:27 2022
; FORMAT={-:-/ absolute / inch / decimal}
; #@! TF.CreationDate,2022-02-22T10:52:27+01:00
; #@! TF.GenerationSoftware,Kicad,Pcbnew,(6.0.1)
; #@! TF.FileFunction,Plated,1,2,PTH
FMAT,2
INCH
; #@! TA.AperFunction,Plated,PTH,ViaDrill
T1C0.0118
; #@! TA.AperFunction,Plated,PTH,ComponentDrill
T2C0.0276
; #@! TA.AperFunction,Plated,PTH,ComponentDrill
T3C0.0315
; #@! TA.AperFunction,Plated,PTH,ComponentDrill
T4C0.0394
; #@! TA.AperFunction,Plated,PTH,ComponentDrill
T5C0.0400
; #@! TA.AperFunction,Plated,PTH,ComponentDrill
T6C0.0591
; #@! TA.AperFunction,Plated,PTH,ComponentDrill
T7C0.0669
%
G90
G05
T1
X2.2165Y-5.1614
X2.2165Y-5.2008
X2.2165Y-5.2402
X2.2559Y-5.1614
X2.2559Y-5.2008
X2.2559Y-5.2402
X2.2835Y-1.624
X2.2835Y-1.6732
X2.2835Y-1.7224
X2.2835Y-2.0669
X2.2835Y-2.1063
X2.2835Y-2.1457
X2.2953Y-5.1614
X2.2953Y-5.2008
X2.2953Y-5.2402
X2.5276Y-3.0984
X2.5394Y-1.6535
X2.5394Y-1.7126
X2.5394Y-1.7717
X2.5709Y-2.0512
X2.5984Y-1.6535
X2.5984Y-1.7126
X2.5984Y-1.7717
X2.6181Y-4.6063
X2.622Y-3.6535
X2.622Y-4.126
X2.6224Y-3.3783
X2.6224Y-3.4461
X2.6224Y-3.8917
X2.6224Y-4.3681
X2.6224Y-4.8406
X2.6224Y-5.05
X2.626Y-5.1142
X2.6535Y-3.0512
X2.6575Y-1.7717
X2.6902Y-3.3783
X2.6902Y-5.1177
X2.7087Y-2.063
X2.7165Y-1.7717
X2.7235Y-2.9075
X2.7235Y-2.9356
X2.7235Y-2.9636
X2.7235Y-2.9917
X2.7402Y-4.2087
X2.7402Y-4.2874
X2.7402Y-4.3661
X2.7402Y-4.4449
X2.7402Y-4.5236
X2.7559Y-2.9354
X2.756Y-2.9075
X2.756Y-2.9636
X2.756Y-2.9917
X2.775Y-1.8599
X2.775Y-1.888
X2.775Y-1.916
X2.775Y-1.9441
X2.7756Y-2.1575
X2.8073Y-2.575
X2.8075Y-1.8599
X2.8075Y-1.888
X2.8075Y-1.916
X2.8075Y-1.9441
X2.815Y-2.1575
X2.8189Y-4.2087
X2.8189Y-4.2874
X2.8189Y-4.3661
X2.8189Y-4.4449
X2.8189Y-4.5236
X2.8504Y-2.1575
X2.8858Y-2.1575
X2.8976Y-4.3661
X2.8976Y-4.4449
X2.8976Y-4.5236
X2.8996Y-5.1177
X2.9016Y-3.378
X2.9203Y-1.9154
X2.9213Y-2.1575
X2.9685Y-2.6417
X2.9705Y-2.7235
X2.9764Y-4.3661
X2.9764Y-4.4449
X2.9764Y-4.5236
X2.9803Y-3.7402
X2.9843Y-3.0276
X3.0157Y-1.8071
X3.0551Y-4.3661
X3.0551Y-4.4449
X3.0551Y-4.5236
X3.0748Y-1.9567
X3.1339Y-4.3661
X3.1339Y-4.4449
X3.1339Y-4.5236
X3.1339Y-5.1181
X3.1358Y-3.3783
X3.1685Y-2.727
X3.1929Y-2.0236
X3.2126Y-4.3661
X3.2126Y-4.4449
X3.2126Y-4.5236
X3.252Y-3.6693
X3.2717Y-1.9449
X3.2913Y-4.3661
X3.2913Y-4.4449
X3.2913Y-4.5236
X3.3504Y-1.9417
X3.3701Y-3.378
X3.3701Y-4.3661
X3.3701Y-4.4449
X3.3701Y-4.5236
X3.3701Y-4.6024
X3.3701Y-4.6811
X3.3701Y-4.7598
X3.3701Y-4.8386
X3.3701Y-4.9173
X3.3701Y-4.9961
X3.372Y-5.1177
X3.4055Y-2.6476
X3.4488Y-3.7953
X3.4488Y-3.8346
X3.4488Y-3.874
X3.4488Y-4.3661
X3.4488Y-4.4449
X3.4488Y-4.5236
X3.4488Y-4.6024
X3.4488Y-4.6811
X3.4488Y-4.7598
X3.4488Y-4.8386
X3.4488Y-4.9173
X3.4488Y-4.9961
X3.4882Y-3.7953
X3.4882Y-3.8346
X3.4882Y-3.874
X3.4921Y-4.122
X3.5276Y-3.7953
X3.5276Y-3.8346
X3.5276Y-3.874
X3.5276Y-4.2087
X3.5276Y-4.2874
X3.5276Y-4.3661
X3.5276Y-4.4449
X3.5276Y-4.5236
X3.5276Y-4.6024
X3.5276Y-4.6811
X3.5276Y-4.7598
X3.5276Y-4.8386
X3.5276Y-4.9173
X3.5276Y-4.9961
X3.5669Y-3.7953
X3.5669Y-3.8346
X3.5669Y-3.874
X3.5945Y-2.626
X3.6063Y-3.7953
X3.6063Y-3.8346
X3.6063Y-3.874
X3.6063Y-3.9134
X3.6102Y-5.122
X3.6122Y-3.3783
X3.6417Y-4.2874
X3.6457Y-3.7953
X3.6457Y-3.8346
X3.6457Y-3.874
X3.6457Y-3.9134
X3.685Y-3.7953
X3.685Y-3.8346
X3.685Y-3.874
X3.685Y-3.9134
X3.7165Y-4.122
X3.7165Y-4.1811
X3.7165Y-4.2323
X3.7165Y-4.2835
X3.7244Y-3.7953
X3.7244Y-3.8346
X3.7244Y-3.874
X3.7244Y-3.9134
X3.7244Y-3.9843
X3.7244Y-4.0236
X3.7244Y-4.063
X3.7559Y-3.9843
X3.7559Y-4.0236
X3.7559Y-4.063
X3.7638Y-1.6575
X3.7638Y-3.7953
X3.7638Y-3.8346
X3.7638Y-3.874
X3.7638Y-3.9134
X3.7677Y-4.122
X3.7677Y-4.1811
X3.8031Y-3.7953
X3.8031Y-3.8346
X3.8031Y-3.874
X3.8031Y-3.9134
X3.8228Y-2.315
X3.8425Y-3.7953
X3.8425Y-3.8346
X3.8425Y-3.874
X3.8425Y-3.9134
X3.8465Y-3.378
X3.8484Y-5.1177
X3.878Y-1.9783
X3.8819Y-3.7953
X3.8819Y-3.8346
X3.9213Y-3.7953
X3.9213Y-3.8346
X3.9311Y-2.2598
X3.9606Y-3.7953
X3.9606Y-3.8346
X3.9803Y-2.5
X4.0Y-3.7953
X4.0Y-3.8346
X4.0098Y-1.7972
X4.0236Y-1.9764
X4.0394Y-3.7953
X4.0394Y-3.8346
X4.0787Y-3.7953
X4.0787Y-3.8346
X4.0787Y-3.9331
X4.0787Y-3.9724
X4.0846Y-3.3783
X4.0846Y-5.1177
X4.1181Y-3.7953
X4.1181Y-3.8346
X4.1181Y-3.9331
X4.1181Y-3.9724
X4.1181Y-4.0118
X4.1417Y-2.2677
X4.1575Y-3.7953
X4.1575Y-3.8346
X4.1575Y-3.9331
X4.1575Y-3.9724
X4.1575Y-4.0118
X4.1575Y-4.0512
X4.1906Y-2.2189
X4.1929Y-2.1024
X4.1969Y-3.7953
X4.1969Y-3.8346
X4.1969Y-3.9331
X4.1969Y-3.9724
X4.1969Y-4.0118
X4.1969Y-4.0512
X4.2362Y-3.7953
X4.2362Y-3.8346
X4.2362Y-3.9331
X4.2362Y-3.9724
X4.2362Y-4.0118
X4.2362Y-4.0512
X4.2756Y-3.7953
X4.2756Y-3.8346
X4.2756Y-3.9724
X4.2756Y-4.0118
X4.2756Y-4.0512
X4.2941Y-3.3783
X4.2941Y-5.1177
X4.3031Y-1.9764
X4.3543Y-1.7835
X4.3618Y-3.3783
X4.3618Y-3.4461
X4.3618Y-3.6555
X4.3618Y-4.128
X4.3618Y-4.6043
X4.3618Y-5.05
X4.3618Y-5.1177
X4.3622Y-3.8898
X4.3622Y-4.3701
X4.3622Y-4.8425
X4.3976Y-2.189
X4.9843Y-1.7402
X5.0Y-2.2756
X5.0335Y-1.9803
X5.0866Y-2.0787
X5.1614Y-2.1969
X5.6201Y-2.0098
X5.685Y-2.0433
X6.2894Y-2.3917
X6.3858Y-1.8543
X6.4843Y-1.626
X6.7008Y-1.9843
X6.7638Y-1.5433
X6.8504Y-1.8898
X7.0197Y-1.7717
X7.0512Y-1.6142
X7.1201Y-1.8071
X7.1535Y-1.9134
T2
X3.0669Y-1.6496
X3.0906Y-2.2055
X3.185Y-3.0118
X3.5232Y-3.0102
X6.5984Y-5.126
T3
X2.6102Y-2.6575
X2.6102Y-2.7559
X2.7008Y-1.5669
X2.7008Y-1.6654
T4
X2.1795Y-1.7965
X2.1795Y-1.8965
X2.1795Y-1.9965
X2.1795Y-2.0965
X2.1795Y-2.1965
X2.1795Y-2.2965
X2.1795Y-2.3965
X2.1795Y-2.4965
X2.1795Y-2.5965
X2.1795Y-2.6965
X2.1795Y-2.7965
X2.1795Y-2.8965
X2.1795Y-2.9965
X2.1795Y-3.0965
X2.1795Y-3.1965
X2.1795Y-3.2965
X2.1795Y-3.3965
X2.1795Y-3.4965
X2.1795Y-3.5965
X2.1795Y-3.6965
X2.1795Y-3.7965
X2.1795Y-3.8965
X2.1795Y-3.9965
X2.1795Y-4.0965
X2.1795Y-4.1965
X2.1795Y-4.2965
X2.1795Y-4.3965
X2.1795Y-4.4965
X2.1795Y-4.5965
X2.1795Y-4.6965
X2.1795Y-4.7965
X2.1795Y-4.8965
X2.3795Y-1.7965
X2.3795Y-1.8965
X2.3795Y-1.9965
X2.3795Y-2.0965
X2.3795Y-2.1965
X2.3795Y-2.2965
X2.3795Y-2.3965
X2.3795Y-2.4965
X2.3795Y-2.5965
X2.3795Y-2.6965
X2.3795Y-2.7965
X2.3795Y-2.8965
X2.3795Y-2.9965
X2.3795Y-3.0965
X2.3795Y-3.1965
X2.3795Y-3.2965
X2.3795Y-3.3965
X2.3795Y-3.4965
X2.3795Y-3.5965
X2.3795Y-3.6965
X2.3795Y-3.7965
X2.3795Y-3.8965
X2.3795Y-3.9965
X2.3795Y-4.0965
X2.3795Y-4.1965
X2.3795Y-4.2965
X2.3795Y-4.3965
X2.3795Y-4.4965
X2.3795Y-4.5965
X2.3795Y-4.6965
X2.3795Y-4.7965
X2.3795Y-4.8965
T5
X3.0906Y-2.3189
X3.0906Y-2.4189
X3.0906Y-2.5189
X5.157Y-4.69
X5.157Y-4.79
X5.257Y-4.69
X5.257Y-4.79
X5.357Y-4.69
X5.357Y-4.79
X5.457Y-4.69
X5.457Y-4.79
X5.557Y-4.69
X5.557Y-4.79
X5.657Y-4.69
X5.657Y-4.79
X5.757Y-4.69
X5.757Y-4.79
X5.857Y-4.69
X5.857Y-4.79
X5.957Y-4.69
X5.957Y-4.79
X6.057Y-4.69
X6.057Y-4.79
X6.157Y-4.69
X6.157Y-4.79
X6.257Y-4.69
X6.257Y-4.79
X6.357Y-4.69
X6.357Y-4.79
T6
X3.5118Y-2.2441
X4.6614Y-1.689
X4.6693Y-2.2441
X5.4764Y-1.689
X5.4764Y-2.2441
X6.0276Y-2.2402
X6.5787Y-2.2402
X7.1299Y-2.2402
T7
X3.4118Y-2.1441
X3.4118Y-2.3441
X3.6118Y-2.1441
X3.6118Y-2.3441
X4.5614Y-1.589
X4.5614Y-1.789
X4.5693Y-2.1441
X4.5693Y-2.3441
X4.7614Y-1.589
X4.7614Y-1.789
X4.7693Y-2.1441
X4.7693Y-2.3441
X5.3764Y-1.589
X5.3764Y-1.789
X5.3764Y-2.1441
X5.3764Y-2.3441
X5.5764Y-1.589
X5.5764Y-1.789
X5.5764Y-2.1441
X5.5764Y-2.3441
X5.9276Y-2.1402
X5.9276Y-2.3402
X6.1276Y-2.1402
X6.1276Y-2.3402
X6.4787Y-2.1402
X6.4787Y-2.3402
X6.6787Y-2.1402
X6.6787Y-2.3402
X7.0299Y-2.1402
X7.0299Y-2.3402
X7.2299Y-2.1402
X7.2299Y-2.3402
T0
M30
