G04 #@! TF.GenerationSoftware,KiCad,Pcbnew,(5.1.4)-1*
G04 #@! TF.CreationDate,2020-03-19T20:01:28+01:00*
G04 #@! TF.ProjectId,RedPitaya_Lockbox,52656450-6974-4617-9961-5f4c6f636b62,1.3.1*
G04 #@! TF.SameCoordinates,Original*
G04 #@! TF.FileFunction,Legend,Top*
G04 #@! TF.FilePolarity,Positive*
%FSLAX46Y46*%
G04 Gerber Fmt 4.6, Leading zero omitted, Abs format (unit mm)*
G04 Created by KiCad (PCBNEW (5.1.4)-1) date 2020-03-19 20:01:28*
%MOMM*%
%LPD*%
G04 APERTURE LIST*
%ADD10C,0.350000*%
%ADD11C,0.120000*%
%ADD12C,0.150000*%
%ADD13C,1.000000*%
%ADD14C,0.600000*%
G04 APERTURE END LIST*
D10*
X192646547Y-47729761D02*
X191979880Y-46777380D01*
X191503690Y-47729761D02*
X191503690Y-45729761D01*
X192265595Y-45729761D01*
X192456071Y-45825000D01*
X192551309Y-45920238D01*
X192646547Y-46110714D01*
X192646547Y-46396428D01*
X192551309Y-46586904D01*
X192456071Y-46682142D01*
X192265595Y-46777380D01*
X191503690Y-46777380D01*
X194265595Y-47634523D02*
X194075119Y-47729761D01*
X193694166Y-47729761D01*
X193503690Y-47634523D01*
X193408452Y-47444047D01*
X193408452Y-46682142D01*
X193503690Y-46491666D01*
X193694166Y-46396428D01*
X194075119Y-46396428D01*
X194265595Y-46491666D01*
X194360833Y-46682142D01*
X194360833Y-46872619D01*
X193408452Y-47063095D01*
X196075119Y-47729761D02*
X196075119Y-45729761D01*
X196075119Y-47634523D02*
X195884642Y-47729761D01*
X195503690Y-47729761D01*
X195313214Y-47634523D01*
X195217976Y-47539285D01*
X195122738Y-47348809D01*
X195122738Y-46777380D01*
X195217976Y-46586904D01*
X195313214Y-46491666D01*
X195503690Y-46396428D01*
X195884642Y-46396428D01*
X196075119Y-46491666D01*
X197027500Y-47729761D02*
X197027500Y-45729761D01*
X197789404Y-45729761D01*
X197979880Y-45825000D01*
X198075119Y-45920238D01*
X198170357Y-46110714D01*
X198170357Y-46396428D01*
X198075119Y-46586904D01*
X197979880Y-46682142D01*
X197789404Y-46777380D01*
X197027500Y-46777380D01*
X199027500Y-47729761D02*
X199027500Y-46396428D01*
X199027500Y-45729761D02*
X198932261Y-45825000D01*
X199027500Y-45920238D01*
X199122738Y-45825000D01*
X199027500Y-45729761D01*
X199027500Y-45920238D01*
X199694166Y-46396428D02*
X200456071Y-46396428D01*
X199979880Y-45729761D02*
X199979880Y-47444047D01*
X200075119Y-47634523D01*
X200265595Y-47729761D01*
X200456071Y-47729761D01*
X201979880Y-47729761D02*
X201979880Y-46682142D01*
X201884642Y-46491666D01*
X201694166Y-46396428D01*
X201313214Y-46396428D01*
X201122738Y-46491666D01*
X201979880Y-47634523D02*
X201789404Y-47729761D01*
X201313214Y-47729761D01*
X201122738Y-47634523D01*
X201027500Y-47444047D01*
X201027500Y-47253571D01*
X201122738Y-47063095D01*
X201313214Y-46967857D01*
X201789404Y-46967857D01*
X201979880Y-46872619D01*
X202741785Y-46396428D02*
X203217976Y-47729761D01*
X203694166Y-46396428D02*
X203217976Y-47729761D01*
X203027500Y-48205952D01*
X202932261Y-48301190D01*
X202741785Y-48396428D01*
X205313214Y-47729761D02*
X205313214Y-46682142D01*
X205217976Y-46491666D01*
X205027500Y-46396428D01*
X204646547Y-46396428D01*
X204456071Y-46491666D01*
X205313214Y-47634523D02*
X205122738Y-47729761D01*
X204646547Y-47729761D01*
X204456071Y-47634523D01*
X204360833Y-47444047D01*
X204360833Y-47253571D01*
X204456071Y-47063095D01*
X204646547Y-46967857D01*
X205122738Y-46967857D01*
X205313214Y-46872619D01*
X208741785Y-47729761D02*
X207789404Y-47729761D01*
X207789404Y-45729761D01*
X209694166Y-47729761D02*
X209503690Y-47634523D01*
X209408452Y-47539285D01*
X209313214Y-47348809D01*
X209313214Y-46777380D01*
X209408452Y-46586904D01*
X209503690Y-46491666D01*
X209694166Y-46396428D01*
X209979880Y-46396428D01*
X210170357Y-46491666D01*
X210265595Y-46586904D01*
X210360833Y-46777380D01*
X210360833Y-47348809D01*
X210265595Y-47539285D01*
X210170357Y-47634523D01*
X209979880Y-47729761D01*
X209694166Y-47729761D01*
X212075119Y-47634523D02*
X211884642Y-47729761D01*
X211503690Y-47729761D01*
X211313214Y-47634523D01*
X211217976Y-47539285D01*
X211122738Y-47348809D01*
X211122738Y-46777380D01*
X211217976Y-46586904D01*
X211313214Y-46491666D01*
X211503690Y-46396428D01*
X211884642Y-46396428D01*
X212075119Y-46491666D01*
X212932261Y-47729761D02*
X212932261Y-45729761D01*
X213122738Y-46967857D02*
X213694166Y-47729761D01*
X213694166Y-46396428D02*
X212932261Y-47158333D01*
X214551309Y-47729761D02*
X214551309Y-45729761D01*
X214551309Y-46491666D02*
X214741785Y-46396428D01*
X215122738Y-46396428D01*
X215313214Y-46491666D01*
X215408452Y-46586904D01*
X215503690Y-46777380D01*
X215503690Y-47348809D01*
X215408452Y-47539285D01*
X215313214Y-47634523D01*
X215122738Y-47729761D01*
X214741785Y-47729761D01*
X214551309Y-47634523D01*
X216646547Y-47729761D02*
X216456071Y-47634523D01*
X216360833Y-47539285D01*
X216265595Y-47348809D01*
X216265595Y-46777380D01*
X216360833Y-46586904D01*
X216456071Y-46491666D01*
X216646547Y-46396428D01*
X216932261Y-46396428D01*
X217122738Y-46491666D01*
X217217976Y-46586904D01*
X217313214Y-46777380D01*
X217313214Y-47348809D01*
X217217976Y-47539285D01*
X217122738Y-47634523D01*
X216932261Y-47729761D01*
X216646547Y-47729761D01*
X217979880Y-47729761D02*
X219027500Y-46396428D01*
X217979880Y-46396428D02*
X219027500Y-47729761D01*
X191408452Y-49270238D02*
X191503690Y-49175000D01*
X191694166Y-49079761D01*
X192170357Y-49079761D01*
X192360833Y-49175000D01*
X192456071Y-49270238D01*
X192551309Y-49460714D01*
X192551309Y-49651190D01*
X192456071Y-49936904D01*
X191313214Y-51079761D01*
X192551309Y-51079761D01*
X193789404Y-49079761D02*
X193979880Y-49079761D01*
X194170357Y-49175000D01*
X194265595Y-49270238D01*
X194360833Y-49460714D01*
X194456071Y-49841666D01*
X194456071Y-50317857D01*
X194360833Y-50698809D01*
X194265595Y-50889285D01*
X194170357Y-50984523D01*
X193979880Y-51079761D01*
X193789404Y-51079761D01*
X193598928Y-50984523D01*
X193503690Y-50889285D01*
X193408452Y-50698809D01*
X193313214Y-50317857D01*
X193313214Y-49841666D01*
X193408452Y-49460714D01*
X193503690Y-49270238D01*
X193598928Y-49175000D01*
X193789404Y-49079761D01*
X195217976Y-49270238D02*
X195313214Y-49175000D01*
X195503690Y-49079761D01*
X195979880Y-49079761D01*
X196170357Y-49175000D01*
X196265595Y-49270238D01*
X196360833Y-49460714D01*
X196360833Y-49651190D01*
X196265595Y-49936904D01*
X195122738Y-51079761D01*
X196360833Y-51079761D01*
X197598928Y-49079761D02*
X197789404Y-49079761D01*
X197979880Y-49175000D01*
X198075119Y-49270238D01*
X198170357Y-49460714D01*
X198265595Y-49841666D01*
X198265595Y-50317857D01*
X198170357Y-50698809D01*
X198075119Y-50889285D01*
X197979880Y-50984523D01*
X197789404Y-51079761D01*
X197598928Y-51079761D01*
X197408452Y-50984523D01*
X197313214Y-50889285D01*
X197217976Y-50698809D01*
X197122738Y-50317857D01*
X197122738Y-49841666D01*
X197217976Y-49460714D01*
X197313214Y-49270238D01*
X197408452Y-49175000D01*
X197598928Y-49079761D01*
X199122738Y-50317857D02*
X200646547Y-50317857D01*
X201979880Y-49079761D02*
X202170357Y-49079761D01*
X202360833Y-49175000D01*
X202456071Y-49270238D01*
X202551309Y-49460714D01*
X202646547Y-49841666D01*
X202646547Y-50317857D01*
X202551309Y-50698809D01*
X202456071Y-50889285D01*
X202360833Y-50984523D01*
X202170357Y-51079761D01*
X201979880Y-51079761D01*
X201789404Y-50984523D01*
X201694166Y-50889285D01*
X201598928Y-50698809D01*
X201503690Y-50317857D01*
X201503690Y-49841666D01*
X201598928Y-49460714D01*
X201694166Y-49270238D01*
X201789404Y-49175000D01*
X201979880Y-49079761D01*
X204551309Y-51079761D02*
X203408452Y-51079761D01*
X203979880Y-51079761D02*
X203979880Y-49079761D01*
X203789404Y-49365476D01*
X203598928Y-49555952D01*
X203408452Y-49651190D01*
X208075119Y-51079761D02*
X207408452Y-50127380D01*
X206932261Y-51079761D02*
X206932261Y-49079761D01*
X207694166Y-49079761D01*
X207884642Y-49175000D01*
X207979880Y-49270238D01*
X208075119Y-49460714D01*
X208075119Y-49746428D01*
X207979880Y-49936904D01*
X207884642Y-50032142D01*
X207694166Y-50127380D01*
X206932261Y-50127380D01*
X209694166Y-50984523D02*
X209503690Y-51079761D01*
X209122738Y-51079761D01*
X208932261Y-50984523D01*
X208837023Y-50794047D01*
X208837023Y-50032142D01*
X208932261Y-49841666D01*
X209122738Y-49746428D01*
X209503690Y-49746428D01*
X209694166Y-49841666D01*
X209789404Y-50032142D01*
X209789404Y-50222619D01*
X208837023Y-50413095D01*
X210456071Y-49746428D02*
X210932261Y-51079761D01*
X211408452Y-49746428D01*
X212170357Y-50889285D02*
X212265595Y-50984523D01*
X212170357Y-51079761D01*
X212075119Y-50984523D01*
X212170357Y-50889285D01*
X212170357Y-51079761D01*
X215694166Y-51079761D02*
X214551309Y-51079761D01*
X215122738Y-51079761D02*
X215122738Y-49079761D01*
X214932261Y-49365476D01*
X214741785Y-49555952D01*
X214551309Y-49651190D01*
X216551309Y-50889285D02*
X216646547Y-50984523D01*
X216551309Y-51079761D01*
X216456071Y-50984523D01*
X216551309Y-50889285D01*
X216551309Y-51079761D01*
X217313214Y-49079761D02*
X218551309Y-49079761D01*
X217884642Y-49841666D01*
X218170357Y-49841666D01*
X218360833Y-49936904D01*
X218456071Y-50032142D01*
X218551309Y-50222619D01*
X218551309Y-50698809D01*
X218456071Y-50889285D01*
X218360833Y-50984523D01*
X218170357Y-51079761D01*
X217598928Y-51079761D01*
X217408452Y-50984523D01*
X217313214Y-50889285D01*
X219408452Y-50889285D02*
X219503690Y-50984523D01*
X219408452Y-51079761D01*
X219313214Y-50984523D01*
X219408452Y-50889285D01*
X219408452Y-51079761D01*
X221408452Y-51079761D02*
X220265595Y-51079761D01*
X220837023Y-51079761D02*
X220837023Y-49079761D01*
X220646547Y-49365476D01*
X220456071Y-49555952D01*
X220265595Y-49651190D01*
D11*
X122920000Y-71300000D02*
X122920000Y-70300000D01*
X124280000Y-70300000D02*
X124280000Y-71300000D01*
D12*
X132435000Y-133250000D02*
X132435000Y-134850000D01*
X87765000Y-133250000D02*
X87765000Y-134850000D01*
X132435000Y-127250000D02*
X132435000Y-128850000D01*
X87765000Y-127250000D02*
X87765000Y-128850000D01*
X132435000Y-121250000D02*
X132435000Y-122850000D01*
X87765000Y-121250000D02*
X87765000Y-122850000D01*
X132435000Y-115150000D02*
X132435000Y-116850000D01*
X87765000Y-115150000D02*
X87765000Y-116850000D01*
X132435000Y-109150000D02*
X132435000Y-110750000D01*
X87765000Y-109150000D02*
X87765000Y-110750000D01*
X132435000Y-103150000D02*
X132435000Y-104750000D01*
X87765000Y-103150000D02*
X87765000Y-104750000D01*
X132435000Y-97150000D02*
X132435000Y-98750000D01*
X87765000Y-97150000D02*
X87765000Y-98750000D01*
X127350000Y-138335000D02*
X128950000Y-138335000D01*
X127350000Y-93665000D02*
X128950000Y-93665000D01*
X121350000Y-138335000D02*
X122950000Y-138335000D01*
X121350000Y-93665000D02*
X122950000Y-93665000D01*
X115350000Y-138335000D02*
X116950000Y-138335000D01*
X115350000Y-93665000D02*
X116950000Y-93665000D01*
X109250000Y-138335000D02*
X110950000Y-138335000D01*
X109250000Y-93665000D02*
X110950000Y-93665000D01*
X103250000Y-138335000D02*
X104850000Y-138335000D01*
X103250000Y-93665000D02*
X104850000Y-93665000D01*
X97250000Y-138335000D02*
X98850000Y-138335000D01*
X97250000Y-93665000D02*
X98850000Y-93665000D01*
X91250000Y-138335000D02*
X92850000Y-138335000D01*
X91250000Y-93665000D02*
X92850000Y-93665000D01*
D11*
X96730000Y-73350000D02*
X96730000Y-65730000D01*
X103070000Y-65730000D02*
X103070000Y-73350000D01*
X101170000Y-73350000D02*
X101170000Y-65730000D01*
X103070000Y-73350000D02*
X96730000Y-73350000D01*
X103070000Y-65730000D02*
X96730000Y-65730000D01*
D12*
X88225000Y-71375000D02*
X88275000Y-71375000D01*
X88225000Y-67225000D02*
X88370000Y-67225000D01*
X93375000Y-67225000D02*
X93230000Y-67225000D01*
X93375000Y-71375000D02*
X93230000Y-71375000D01*
X88225000Y-71375000D02*
X88225000Y-67225000D01*
X93375000Y-71375000D02*
X93375000Y-67225000D01*
X88275000Y-71375000D02*
X88275000Y-72775000D01*
X93922500Y-54286250D02*
X93922500Y-54351250D01*
X93922500Y-58536250D02*
X93922500Y-58471250D01*
X90672500Y-58536250D02*
X90672500Y-58471250D01*
X90672500Y-54286250D02*
X93922500Y-54286250D01*
X90672500Y-58536250D02*
X93922500Y-58536250D01*
X90672500Y-54286250D02*
X89747500Y-54286250D01*
X92115000Y-80895000D02*
X92115000Y-80960000D01*
X92115000Y-85145000D02*
X92115000Y-85080000D01*
X88865000Y-85145000D02*
X88865000Y-85080000D01*
X88865000Y-80895000D02*
X92115000Y-80895000D01*
X88865000Y-85145000D02*
X92115000Y-85145000D01*
X88865000Y-80895000D02*
X87940000Y-80895000D01*
D11*
X117810000Y-54565000D02*
X117810000Y-50015000D01*
X121110000Y-54565000D02*
X121110000Y-50015000D01*
X117810000Y-54565000D02*
X121110000Y-54565000D01*
X115220000Y-75200000D02*
X115220000Y-73200000D01*
X113180000Y-73200000D02*
X113180000Y-75200000D01*
X151900000Y-49420000D02*
X153900000Y-49420000D01*
X153900000Y-52380000D02*
X151900000Y-52380000D01*
X87660000Y-76340000D02*
X89660000Y-76340000D01*
X89660000Y-74300000D02*
X87660000Y-74300000D01*
X96670000Y-60440000D02*
X98670000Y-60440000D01*
X98670000Y-58400000D02*
X96670000Y-58400000D01*
X97300000Y-85580000D02*
X95300000Y-85580000D01*
X95300000Y-87620000D02*
X97300000Y-87620000D01*
X116100000Y-53980000D02*
X115100000Y-53980000D01*
X115100000Y-52620000D02*
X116100000Y-52620000D01*
X96110000Y-55190000D02*
X96110000Y-53190000D01*
X99070000Y-53190000D02*
X99070000Y-55190000D01*
X97830000Y-79800000D02*
X97830000Y-81800000D01*
X94870000Y-81800000D02*
X94870000Y-79800000D01*
X88180000Y-56450000D02*
X88180000Y-58450000D01*
X85220000Y-58450000D02*
X85220000Y-56450000D01*
X84120000Y-85000000D02*
X84120000Y-83000000D01*
X87080000Y-83000000D02*
X87080000Y-85000000D01*
X122900000Y-64450000D02*
X122900000Y-65150000D01*
X121700000Y-65150000D02*
X121700000Y-64450000D01*
X121700000Y-54550000D02*
X121700000Y-53850000D01*
X122900000Y-53850000D02*
X122900000Y-54550000D01*
X132500000Y-64350000D02*
X132500000Y-65050000D01*
X131300000Y-65050000D02*
X131300000Y-64350000D01*
X132600000Y-54450000D02*
X132600000Y-53750000D01*
X133800000Y-53750000D02*
X133800000Y-54450000D01*
X147400000Y-54750000D02*
X147400000Y-54050000D01*
X148600000Y-54050000D02*
X148600000Y-54750000D01*
X152600000Y-64550000D02*
X152600000Y-65250000D01*
X151400000Y-65250000D02*
X151400000Y-64550000D01*
X109600000Y-61800000D02*
X111600000Y-61800000D01*
X109600000Y-68400000D02*
X111600000Y-68400000D01*
X113900000Y-64100000D02*
X113900000Y-66100000D01*
X107300000Y-64100000D02*
X107300000Y-66100000D01*
X139000000Y-61800000D02*
X141000000Y-61800000D01*
X139000000Y-68400000D02*
X141000000Y-68400000D01*
X143300000Y-64100000D02*
X143300000Y-66100000D01*
X136700000Y-64100000D02*
X136700000Y-66100000D01*
X159500000Y-61800000D02*
X161500000Y-61800000D01*
X159500000Y-68400000D02*
X161500000Y-68400000D01*
X163800000Y-64100000D02*
X163800000Y-66100000D01*
X157200000Y-64100000D02*
X157200000Y-66100000D01*
X159500000Y-47600000D02*
X161500000Y-47600000D01*
X159500000Y-54200000D02*
X161500000Y-54200000D01*
X163800000Y-49900000D02*
X163800000Y-51900000D01*
X157200000Y-49900000D02*
X157200000Y-51900000D01*
X95900000Y-84680000D02*
X94900000Y-84680000D01*
X94900000Y-83320000D02*
X95900000Y-83320000D01*
X96200000Y-56720000D02*
X97200000Y-56720000D01*
X97200000Y-58080000D02*
X96200000Y-58080000D01*
X119730000Y-66710000D02*
X118730000Y-66710000D01*
X118730000Y-65350000D02*
X119730000Y-65350000D01*
X119660000Y-65040000D02*
X118660000Y-65040000D01*
X118660000Y-63680000D02*
X119660000Y-63680000D01*
X110700000Y-71920000D02*
X111700000Y-71920000D01*
X111700000Y-73280000D02*
X110700000Y-73280000D01*
X148180000Y-64400000D02*
X148180000Y-65400000D01*
X146820000Y-65400000D02*
X146820000Y-64400000D01*
X122150000Y-67220000D02*
X123150000Y-67220000D01*
X123150000Y-68580000D02*
X122150000Y-68580000D01*
X126300000Y-67080000D02*
X125300000Y-67080000D01*
X125300000Y-65720000D02*
X126300000Y-65720000D01*
X125310000Y-63780000D02*
X126310000Y-63780000D01*
X126310000Y-65140000D02*
X125310000Y-65140000D01*
X130100000Y-66220000D02*
X132100000Y-66220000D01*
X132100000Y-69180000D02*
X130100000Y-69180000D01*
X124720000Y-54300000D02*
X124720000Y-52300000D01*
X127680000Y-52300000D02*
X127680000Y-54300000D01*
X144920000Y-65400000D02*
X144920000Y-64400000D01*
X146280000Y-64400000D02*
X146280000Y-65400000D01*
X146380000Y-61500000D02*
X146380000Y-62500000D01*
X145020000Y-62500000D02*
X145020000Y-61500000D01*
X149300000Y-63520000D02*
X150300000Y-63520000D01*
X150300000Y-64880000D02*
X149300000Y-64880000D01*
X169400000Y-55420000D02*
X171400000Y-55420000D01*
X171400000Y-58380000D02*
X169400000Y-58380000D01*
D12*
X117850000Y-61575000D02*
X117875000Y-61575000D01*
X117850000Y-57425000D02*
X117965000Y-57425000D01*
X126750000Y-57425000D02*
X126635000Y-57425000D01*
X126750000Y-61575000D02*
X126635000Y-61575000D01*
X117850000Y-61575000D02*
X117850000Y-57425000D01*
X126750000Y-61575000D02*
X126750000Y-57425000D01*
X117875000Y-61575000D02*
X117875000Y-62950000D01*
X133875000Y-57425000D02*
X133825000Y-57425000D01*
X133875000Y-61575000D02*
X133730000Y-61575000D01*
X128725000Y-61575000D02*
X128870000Y-61575000D01*
X128725000Y-57425000D02*
X128870000Y-57425000D01*
X133875000Y-57425000D02*
X133875000Y-61575000D01*
X128725000Y-57425000D02*
X128725000Y-61575000D01*
X133825000Y-57425000D02*
X133825000Y-56025000D01*
X152475000Y-57525000D02*
X152425000Y-57525000D01*
X152475000Y-61675000D02*
X152330000Y-61675000D01*
X147325000Y-61675000D02*
X147470000Y-61675000D01*
X147325000Y-57525000D02*
X147470000Y-57525000D01*
X152475000Y-57525000D02*
X152475000Y-61675000D01*
X147325000Y-57525000D02*
X147325000Y-61675000D01*
X152425000Y-57525000D02*
X152425000Y-56125000D01*
D11*
X138800000Y-47700000D02*
X140800000Y-47700000D01*
X138800000Y-54300000D02*
X140800000Y-54300000D01*
X143100000Y-50000000D02*
X143100000Y-52000000D01*
X136500000Y-50000000D02*
X136500000Y-52000000D01*
X170900000Y-61700000D02*
X172900000Y-61700000D01*
X170900000Y-68300000D02*
X172900000Y-68300000D01*
X175200000Y-64000000D02*
X175200000Y-66000000D01*
X168600000Y-64000000D02*
X168600000Y-66000000D01*
X96250000Y-102700000D02*
X96250000Y-101700000D01*
X94550000Y-101700000D02*
X94550000Y-102700000D01*
X102200000Y-100450000D02*
X101200000Y-100450000D01*
X101200000Y-102150000D02*
X102200000Y-102150000D01*
X112450000Y-112400000D02*
X112450000Y-111400000D01*
X110750000Y-111400000D02*
X110750000Y-112400000D01*
X110750000Y-108400000D02*
X110050000Y-108400000D01*
X110050000Y-107200000D02*
X110750000Y-107200000D01*
X124000000Y-109750000D02*
X123000000Y-109750000D01*
X123000000Y-111450000D02*
X124000000Y-111450000D01*
X120000000Y-112150000D02*
X120000000Y-111450000D01*
X121200000Y-111450000D02*
X121200000Y-112150000D01*
X122650000Y-108000000D02*
X123350000Y-108000000D01*
X123350000Y-109200000D02*
X122650000Y-109200000D01*
X112320000Y-115900000D02*
X112320000Y-117900000D01*
X115280000Y-117900000D02*
X115280000Y-115900000D01*
X76760000Y-45983000D02*
X76760000Y-52333000D01*
X71460000Y-45983000D02*
X76760000Y-45983000D01*
X71460000Y-140217000D02*
X71460000Y-45983000D01*
X76760000Y-140217000D02*
X71460000Y-140217000D01*
X76760000Y-140217000D02*
X76760000Y-133867000D01*
X98700000Y-102080000D02*
X97500000Y-102080000D01*
X97500000Y-100320000D02*
X98700000Y-100320000D01*
X107500000Y-114200000D02*
X107500000Y-117200000D01*
X107500000Y-117200000D02*
X94900000Y-117200000D01*
X94900000Y-117200000D02*
X94900000Y-114200000D01*
X94900000Y-107600000D02*
X94900000Y-104600000D01*
X94900000Y-104600000D02*
X107500000Y-104600000D01*
X107500000Y-104600000D02*
X107500000Y-107600000D01*
X126000000Y-115200000D02*
X129000000Y-115200000D01*
X129000000Y-115200000D02*
X129000000Y-127800000D01*
X129000000Y-127800000D02*
X126000000Y-127800000D01*
X119400000Y-127800000D02*
X116400000Y-127800000D01*
X116400000Y-127800000D02*
X116400000Y-115200000D01*
X116400000Y-115200000D02*
X119400000Y-115200000D01*
X110000000Y-108620000D02*
X111000000Y-108620000D01*
X111000000Y-109980000D02*
X110000000Y-109980000D01*
X121080000Y-107200000D02*
X121080000Y-108200000D01*
X119720000Y-108200000D02*
X119720000Y-107200000D01*
X122400000Y-106420000D02*
X123400000Y-106420000D01*
X123400000Y-107780000D02*
X122400000Y-107780000D01*
D12*
X114725000Y-107975000D02*
X114725000Y-108200000D01*
X118075000Y-107975000D02*
X118075000Y-108275000D01*
X118075000Y-112825000D02*
X118075000Y-112525000D01*
X114725000Y-112825000D02*
X114725000Y-112525000D01*
X114725000Y-107975000D02*
X118075000Y-107975000D01*
X114725000Y-112825000D02*
X118075000Y-112825000D01*
X114725000Y-108200000D02*
X113500000Y-108200000D01*
X231100000Y-133500000D02*
X136100000Y-133500000D01*
X136100000Y-133500000D02*
X136100000Y-72700000D01*
X136100000Y-72700000D02*
X231100000Y-72700000D01*
X231100000Y-72700000D02*
X231100000Y-133500000D01*
X230903701Y-130100000D02*
G75*
G03X230903701Y-130100000I-3203701J0D01*
G01*
X230904949Y-76110000D02*
G75*
G03X230904949Y-76110000I-3204949J0D01*
G01*
X146902202Y-130100000D02*
G75*
G03X146902202Y-130100000I-3202202J0D01*
G01*
X146904122Y-76090000D02*
G75*
G03X146904122Y-76090000I-3204122J0D01*
G01*
D11*
X188217000Y-123822000D02*
X147037000Y-123822000D01*
X147037000Y-123822000D02*
X147037000Y-133172000D01*
X147037000Y-133172000D02*
X188217000Y-133172000D01*
X188217000Y-133172000D02*
X188217000Y-123822000D01*
X188467000Y-133422000D02*
X185927000Y-133422000D01*
X188467000Y-133422000D02*
X188467000Y-130882000D01*
D12*
X125552380Y-70966666D02*
X125076190Y-71300000D01*
X125552380Y-71538095D02*
X124552380Y-71538095D01*
X124552380Y-71157142D01*
X124600000Y-71061904D01*
X124647619Y-71014285D01*
X124742857Y-70966666D01*
X124885714Y-70966666D01*
X124980952Y-71014285D01*
X125028571Y-71061904D01*
X125076190Y-71157142D01*
X125076190Y-71538095D01*
X124980952Y-70395238D02*
X124933333Y-70490476D01*
X124885714Y-70538095D01*
X124790476Y-70585714D01*
X124742857Y-70585714D01*
X124647619Y-70538095D01*
X124600000Y-70490476D01*
X124552380Y-70395238D01*
X124552380Y-70204761D01*
X124600000Y-70109523D01*
X124647619Y-70061904D01*
X124742857Y-70014285D01*
X124790476Y-70014285D01*
X124885714Y-70061904D01*
X124933333Y-70109523D01*
X124980952Y-70204761D01*
X124980952Y-70395238D01*
X125028571Y-70490476D01*
X125076190Y-70538095D01*
X125171428Y-70585714D01*
X125361904Y-70585714D01*
X125457142Y-70538095D01*
X125504761Y-70490476D01*
X125552380Y-70395238D01*
X125552380Y-70204761D01*
X125504761Y-70109523D01*
X125457142Y-70061904D01*
X125361904Y-70014285D01*
X125171428Y-70014285D01*
X125076190Y-70061904D01*
X125028571Y-70109523D01*
X124980952Y-70204761D01*
X109766666Y-91862380D02*
X109766666Y-92576666D01*
X109719047Y-92719523D01*
X109623809Y-92814761D01*
X109480952Y-92862380D01*
X109385714Y-92862380D01*
X110195238Y-91957619D02*
X110242857Y-91910000D01*
X110338095Y-91862380D01*
X110576190Y-91862380D01*
X110671428Y-91910000D01*
X110719047Y-91957619D01*
X110766666Y-92052857D01*
X110766666Y-92148095D01*
X110719047Y-92290952D01*
X110147619Y-92862380D01*
X110766666Y-92862380D01*
X104152380Y-70185238D02*
X103676190Y-70518571D01*
X104152380Y-70756666D02*
X103152380Y-70756666D01*
X103152380Y-70375714D01*
X103200000Y-70280476D01*
X103247619Y-70232857D01*
X103342857Y-70185238D01*
X103485714Y-70185238D01*
X103580952Y-70232857D01*
X103628571Y-70280476D01*
X103676190Y-70375714D01*
X103676190Y-70756666D01*
X103152380Y-69899523D02*
X104152380Y-69566190D01*
X103152380Y-69232857D01*
X104152380Y-68375714D02*
X104152380Y-68947142D01*
X104152380Y-68661428D02*
X103152380Y-68661428D01*
X103295238Y-68756666D01*
X103390476Y-68851904D01*
X103438095Y-68947142D01*
X86752380Y-70061904D02*
X87561904Y-70061904D01*
X87657142Y-70014285D01*
X87704761Y-69966666D01*
X87752380Y-69871428D01*
X87752380Y-69680952D01*
X87704761Y-69585714D01*
X87657142Y-69538095D01*
X87561904Y-69490476D01*
X86752380Y-69490476D01*
X86752380Y-69109523D02*
X86752380Y-68490476D01*
X87133333Y-68823809D01*
X87133333Y-68680952D01*
X87180952Y-68585714D01*
X87228571Y-68538095D01*
X87323809Y-68490476D01*
X87561904Y-68490476D01*
X87657142Y-68538095D01*
X87704761Y-68585714D01*
X87752380Y-68680952D01*
X87752380Y-68966666D01*
X87704761Y-69061904D01*
X87657142Y-69109523D01*
X91535595Y-52813630D02*
X91535595Y-53623154D01*
X91583214Y-53718392D01*
X91630833Y-53766011D01*
X91726071Y-53813630D01*
X91916547Y-53813630D01*
X92011785Y-53766011D01*
X92059404Y-53718392D01*
X92107023Y-53623154D01*
X92107023Y-52813630D01*
X92535595Y-52908869D02*
X92583214Y-52861250D01*
X92678452Y-52813630D01*
X92916547Y-52813630D01*
X93011785Y-52861250D01*
X93059404Y-52908869D01*
X93107023Y-53004107D01*
X93107023Y-53099345D01*
X93059404Y-53242202D01*
X92487976Y-53813630D01*
X93107023Y-53813630D01*
X89728095Y-79422380D02*
X89728095Y-80231904D01*
X89775714Y-80327142D01*
X89823333Y-80374761D01*
X89918571Y-80422380D01*
X90109047Y-80422380D01*
X90204285Y-80374761D01*
X90251904Y-80327142D01*
X90299523Y-80231904D01*
X90299523Y-79422380D01*
X91299523Y-80422380D02*
X90728095Y-80422380D01*
X91013809Y-80422380D02*
X91013809Y-79422380D01*
X90918571Y-79565238D01*
X90823333Y-79660476D01*
X90728095Y-79708095D01*
X98138095Y-62371428D02*
X98900000Y-62371428D01*
X98519047Y-62752380D02*
X98519047Y-61990476D01*
X99900000Y-62752380D02*
X99328571Y-62752380D01*
X99614285Y-62752380D02*
X99614285Y-61752380D01*
X99519047Y-61895238D01*
X99423809Y-61990476D01*
X99328571Y-62038095D01*
X100519047Y-61752380D02*
X100614285Y-61752380D01*
X100709523Y-61800000D01*
X100757142Y-61847619D01*
X100804761Y-61942857D01*
X100852380Y-62133333D01*
X100852380Y-62371428D01*
X100804761Y-62561904D01*
X100757142Y-62657142D01*
X100709523Y-62704761D01*
X100614285Y-62752380D01*
X100519047Y-62752380D01*
X100423809Y-62704761D01*
X100376190Y-62657142D01*
X100328571Y-62561904D01*
X100280952Y-62371428D01*
X100280952Y-62133333D01*
X100328571Y-61942857D01*
X100376190Y-61847619D01*
X100423809Y-61800000D01*
X100519047Y-61752380D01*
X101138095Y-61752380D02*
X101471428Y-62752380D01*
X101804761Y-61752380D01*
X118857142Y-48457142D02*
X118809523Y-48504761D01*
X118666666Y-48552380D01*
X118571428Y-48552380D01*
X118428571Y-48504761D01*
X118333333Y-48409523D01*
X118285714Y-48314285D01*
X118238095Y-48123809D01*
X118238095Y-47980952D01*
X118285714Y-47790476D01*
X118333333Y-47695238D01*
X118428571Y-47600000D01*
X118571428Y-47552380D01*
X118666666Y-47552380D01*
X118809523Y-47600000D01*
X118857142Y-47647619D01*
X119809523Y-48552380D02*
X119238095Y-48552380D01*
X119523809Y-48552380D02*
X119523809Y-47552380D01*
X119428571Y-47695238D01*
X119333333Y-47790476D01*
X119238095Y-47838095D01*
X120142857Y-47552380D02*
X120809523Y-47552380D01*
X120380952Y-48552380D01*
X113537142Y-77647142D02*
X113489523Y-77694761D01*
X113346666Y-77742380D01*
X113251428Y-77742380D01*
X113108571Y-77694761D01*
X113013333Y-77599523D01*
X112965714Y-77504285D01*
X112918095Y-77313809D01*
X112918095Y-77170952D01*
X112965714Y-76980476D01*
X113013333Y-76885238D01*
X113108571Y-76790000D01*
X113251428Y-76742380D01*
X113346666Y-76742380D01*
X113489523Y-76790000D01*
X113537142Y-76837619D01*
X114489523Y-77742380D02*
X113918095Y-77742380D01*
X114203809Y-77742380D02*
X114203809Y-76742380D01*
X114108571Y-76885238D01*
X114013333Y-76980476D01*
X113918095Y-77028095D01*
X115108571Y-76742380D02*
X115203809Y-76742380D01*
X115299047Y-76790000D01*
X115346666Y-76837619D01*
X115394285Y-76932857D01*
X115441904Y-77123333D01*
X115441904Y-77361428D01*
X115394285Y-77551904D01*
X115346666Y-77647142D01*
X115299047Y-77694761D01*
X115203809Y-77742380D01*
X115108571Y-77742380D01*
X115013333Y-77694761D01*
X114965714Y-77647142D01*
X114918095Y-77551904D01*
X114870476Y-77361428D01*
X114870476Y-77123333D01*
X114918095Y-76932857D01*
X114965714Y-76837619D01*
X115013333Y-76790000D01*
X115108571Y-76742380D01*
X184414285Y-140371428D02*
X185176190Y-140371428D01*
X184795238Y-140752380D02*
X184795238Y-139990476D01*
X186128571Y-139752380D02*
X185652380Y-139752380D01*
X185604761Y-140228571D01*
X185652380Y-140180952D01*
X185747619Y-140133333D01*
X185985714Y-140133333D01*
X186080952Y-140180952D01*
X186128571Y-140228571D01*
X186176190Y-140323809D01*
X186176190Y-140561904D01*
X186128571Y-140657142D01*
X186080952Y-140704761D01*
X185985714Y-140752380D01*
X185747619Y-140752380D01*
X185652380Y-140704761D01*
X185604761Y-140657142D01*
X186461904Y-139752380D02*
X186795238Y-140752380D01*
X187128571Y-139752380D01*
X152257142Y-53602380D02*
X151923809Y-53126190D01*
X151685714Y-53602380D02*
X151685714Y-52602380D01*
X152066666Y-52602380D01*
X152161904Y-52650000D01*
X152209523Y-52697619D01*
X152257142Y-52792857D01*
X152257142Y-52935714D01*
X152209523Y-53030952D01*
X152161904Y-53078571D01*
X152066666Y-53126190D01*
X151685714Y-53126190D01*
X153209523Y-53602380D02*
X152638095Y-53602380D01*
X152923809Y-53602380D02*
X152923809Y-52602380D01*
X152828571Y-52745238D01*
X152733333Y-52840476D01*
X152638095Y-52888095D01*
X154161904Y-53602380D02*
X153590476Y-53602380D01*
X153876190Y-53602380D02*
X153876190Y-52602380D01*
X153780952Y-52745238D01*
X153685714Y-52840476D01*
X153590476Y-52888095D01*
X110128095Y-86060000D02*
X110032857Y-86012380D01*
X109890000Y-86012380D01*
X109747142Y-86060000D01*
X109651904Y-86155238D01*
X109604285Y-86250476D01*
X109556666Y-86440952D01*
X109556666Y-86583809D01*
X109604285Y-86774285D01*
X109651904Y-86869523D01*
X109747142Y-86964761D01*
X109890000Y-87012380D01*
X109985238Y-87012380D01*
X110128095Y-86964761D01*
X110175714Y-86917142D01*
X110175714Y-86583809D01*
X109985238Y-86583809D01*
X110604285Y-87012380D02*
X110604285Y-86012380D01*
X111175714Y-87012380D01*
X111175714Y-86012380D01*
X111651904Y-87012380D02*
X111651904Y-86012380D01*
X111890000Y-86012380D01*
X112032857Y-86060000D01*
X112128095Y-86155238D01*
X112175714Y-86250476D01*
X112223333Y-86440952D01*
X112223333Y-86583809D01*
X112175714Y-86774285D01*
X112128095Y-86869523D01*
X112032857Y-86964761D01*
X111890000Y-87012380D01*
X111651904Y-87012380D01*
X97528095Y-47991428D02*
X98290000Y-47991428D01*
X99290000Y-48372380D02*
X98718571Y-48372380D01*
X99004285Y-48372380D02*
X99004285Y-47372380D01*
X98909047Y-47515238D01*
X98813809Y-47610476D01*
X98718571Y-47658095D01*
X99670952Y-47467619D02*
X99718571Y-47420000D01*
X99813809Y-47372380D01*
X100051904Y-47372380D01*
X100147142Y-47420000D01*
X100194761Y-47467619D01*
X100242380Y-47562857D01*
X100242380Y-47658095D01*
X100194761Y-47800952D01*
X99623333Y-48372380D01*
X100242380Y-48372380D01*
X100528095Y-47372380D02*
X100861428Y-48372380D01*
X101194761Y-47372380D01*
X100038095Y-86671428D02*
X100800000Y-86671428D01*
X100419047Y-87052380D02*
X100419047Y-86290476D01*
X101800000Y-87052380D02*
X101228571Y-87052380D01*
X101514285Y-87052380D02*
X101514285Y-86052380D01*
X101419047Y-86195238D01*
X101323809Y-86290476D01*
X101228571Y-86338095D01*
X102180952Y-86147619D02*
X102228571Y-86100000D01*
X102323809Y-86052380D01*
X102561904Y-86052380D01*
X102657142Y-86100000D01*
X102704761Y-86147619D01*
X102752380Y-86242857D01*
X102752380Y-86338095D01*
X102704761Y-86480952D01*
X102133333Y-87052380D01*
X102752380Y-87052380D01*
X103038095Y-86052380D02*
X103371428Y-87052380D01*
X103704761Y-86052380D01*
X88017142Y-77427142D02*
X87969523Y-77474761D01*
X87826666Y-77522380D01*
X87731428Y-77522380D01*
X87588571Y-77474761D01*
X87493333Y-77379523D01*
X87445714Y-77284285D01*
X87398095Y-77093809D01*
X87398095Y-76950952D01*
X87445714Y-76760476D01*
X87493333Y-76665238D01*
X87588571Y-76570000D01*
X87731428Y-76522380D01*
X87826666Y-76522380D01*
X87969523Y-76570000D01*
X88017142Y-76617619D01*
X88969523Y-77522380D02*
X88398095Y-77522380D01*
X88683809Y-77522380D02*
X88683809Y-76522380D01*
X88588571Y-76665238D01*
X88493333Y-76760476D01*
X88398095Y-76808095D01*
X89302857Y-76522380D02*
X89921904Y-76522380D01*
X89588571Y-76903333D01*
X89731428Y-76903333D01*
X89826666Y-76950952D01*
X89874285Y-76998571D01*
X89921904Y-77093809D01*
X89921904Y-77331904D01*
X89874285Y-77427142D01*
X89826666Y-77474761D01*
X89731428Y-77522380D01*
X89445714Y-77522380D01*
X89350476Y-77474761D01*
X89302857Y-77427142D01*
X100733333Y-59757142D02*
X100685714Y-59804761D01*
X100542857Y-59852380D01*
X100447619Y-59852380D01*
X100304761Y-59804761D01*
X100209523Y-59709523D01*
X100161904Y-59614285D01*
X100114285Y-59423809D01*
X100114285Y-59280952D01*
X100161904Y-59090476D01*
X100209523Y-58995238D01*
X100304761Y-58900000D01*
X100447619Y-58852380D01*
X100542857Y-58852380D01*
X100685714Y-58900000D01*
X100733333Y-58947619D01*
X101590476Y-59185714D02*
X101590476Y-59852380D01*
X101352380Y-58804761D02*
X101114285Y-59519047D01*
X101733333Y-59519047D01*
X96133333Y-88757142D02*
X96085714Y-88804761D01*
X95942857Y-88852380D01*
X95847619Y-88852380D01*
X95704761Y-88804761D01*
X95609523Y-88709523D01*
X95561904Y-88614285D01*
X95514285Y-88423809D01*
X95514285Y-88280952D01*
X95561904Y-88090476D01*
X95609523Y-87995238D01*
X95704761Y-87900000D01*
X95847619Y-87852380D01*
X95942857Y-87852380D01*
X96085714Y-87900000D01*
X96133333Y-87947619D01*
X96466666Y-87852380D02*
X97085714Y-87852380D01*
X96752380Y-88233333D01*
X96895238Y-88233333D01*
X96990476Y-88280952D01*
X97038095Y-88328571D01*
X97085714Y-88423809D01*
X97085714Y-88661904D01*
X97038095Y-88757142D01*
X96990476Y-88804761D01*
X96895238Y-88852380D01*
X96609523Y-88852380D01*
X96514285Y-88804761D01*
X96466666Y-88757142D01*
X114957142Y-52302380D02*
X114623809Y-51826190D01*
X114385714Y-52302380D02*
X114385714Y-51302380D01*
X114766666Y-51302380D01*
X114861904Y-51350000D01*
X114909523Y-51397619D01*
X114957142Y-51492857D01*
X114957142Y-51635714D01*
X114909523Y-51730952D01*
X114861904Y-51778571D01*
X114766666Y-51826190D01*
X114385714Y-51826190D01*
X115909523Y-52302380D02*
X115338095Y-52302380D01*
X115623809Y-52302380D02*
X115623809Y-51302380D01*
X115528571Y-51445238D01*
X115433333Y-51540476D01*
X115338095Y-51588095D01*
X116528571Y-51302380D02*
X116623809Y-51302380D01*
X116719047Y-51350000D01*
X116766666Y-51397619D01*
X116814285Y-51492857D01*
X116861904Y-51683333D01*
X116861904Y-51921428D01*
X116814285Y-52111904D01*
X116766666Y-52207142D01*
X116719047Y-52254761D01*
X116623809Y-52302380D01*
X116528571Y-52302380D01*
X116433333Y-52254761D01*
X116385714Y-52207142D01*
X116338095Y-52111904D01*
X116290476Y-51921428D01*
X116290476Y-51683333D01*
X116338095Y-51492857D01*
X116385714Y-51397619D01*
X116433333Y-51350000D01*
X116528571Y-51302380D01*
X100197142Y-54356666D02*
X100244761Y-54404285D01*
X100292380Y-54547142D01*
X100292380Y-54642380D01*
X100244761Y-54785238D01*
X100149523Y-54880476D01*
X100054285Y-54928095D01*
X99863809Y-54975714D01*
X99720952Y-54975714D01*
X99530476Y-54928095D01*
X99435238Y-54880476D01*
X99340000Y-54785238D01*
X99292380Y-54642380D01*
X99292380Y-54547142D01*
X99340000Y-54404285D01*
X99387619Y-54356666D01*
X99292380Y-53499523D02*
X99292380Y-53690000D01*
X99340000Y-53785238D01*
X99387619Y-53832857D01*
X99530476Y-53928095D01*
X99720952Y-53975714D01*
X100101904Y-53975714D01*
X100197142Y-53928095D01*
X100244761Y-53880476D01*
X100292380Y-53785238D01*
X100292380Y-53594761D01*
X100244761Y-53499523D01*
X100197142Y-53451904D01*
X100101904Y-53404285D01*
X99863809Y-53404285D01*
X99768571Y-53451904D01*
X99720952Y-53499523D01*
X99673333Y-53594761D01*
X99673333Y-53785238D01*
X99720952Y-53880476D01*
X99768571Y-53928095D01*
X99863809Y-53975714D01*
X94457142Y-80966666D02*
X94504761Y-81014285D01*
X94552380Y-81157142D01*
X94552380Y-81252380D01*
X94504761Y-81395238D01*
X94409523Y-81490476D01*
X94314285Y-81538095D01*
X94123809Y-81585714D01*
X93980952Y-81585714D01*
X93790476Y-81538095D01*
X93695238Y-81490476D01*
X93600000Y-81395238D01*
X93552380Y-81252380D01*
X93552380Y-81157142D01*
X93600000Y-81014285D01*
X93647619Y-80966666D01*
X93552380Y-80061904D02*
X93552380Y-80538095D01*
X94028571Y-80585714D01*
X93980952Y-80538095D01*
X93933333Y-80442857D01*
X93933333Y-80204761D01*
X93980952Y-80109523D01*
X94028571Y-80061904D01*
X94123809Y-80014285D01*
X94361904Y-80014285D01*
X94457142Y-80061904D01*
X94504761Y-80109523D01*
X94552380Y-80204761D01*
X94552380Y-80442857D01*
X94504761Y-80538095D01*
X94457142Y-80585714D01*
X84807142Y-57616666D02*
X84854761Y-57664285D01*
X84902380Y-57807142D01*
X84902380Y-57902380D01*
X84854761Y-58045238D01*
X84759523Y-58140476D01*
X84664285Y-58188095D01*
X84473809Y-58235714D01*
X84330952Y-58235714D01*
X84140476Y-58188095D01*
X84045238Y-58140476D01*
X83950000Y-58045238D01*
X83902380Y-57902380D01*
X83902380Y-57807142D01*
X83950000Y-57664285D01*
X83997619Y-57616666D01*
X83997619Y-57235714D02*
X83950000Y-57188095D01*
X83902380Y-57092857D01*
X83902380Y-56854761D01*
X83950000Y-56759523D01*
X83997619Y-56711904D01*
X84092857Y-56664285D01*
X84188095Y-56664285D01*
X84330952Y-56711904D01*
X84902380Y-57283333D01*
X84902380Y-56664285D01*
X85383333Y-87257142D02*
X85335714Y-87304761D01*
X85192857Y-87352380D01*
X85097619Y-87352380D01*
X84954761Y-87304761D01*
X84859523Y-87209523D01*
X84811904Y-87114285D01*
X84764285Y-86923809D01*
X84764285Y-86780952D01*
X84811904Y-86590476D01*
X84859523Y-86495238D01*
X84954761Y-86400000D01*
X85097619Y-86352380D01*
X85192857Y-86352380D01*
X85335714Y-86400000D01*
X85383333Y-86447619D01*
X86335714Y-87352380D02*
X85764285Y-87352380D01*
X86050000Y-87352380D02*
X86050000Y-86352380D01*
X85954761Y-86495238D01*
X85859523Y-86590476D01*
X85764285Y-86638095D01*
X124057142Y-65542857D02*
X124104761Y-65590476D01*
X124152380Y-65733333D01*
X124152380Y-65828571D01*
X124104761Y-65971428D01*
X124009523Y-66066666D01*
X123914285Y-66114285D01*
X123723809Y-66161904D01*
X123580952Y-66161904D01*
X123390476Y-66114285D01*
X123295238Y-66066666D01*
X123200000Y-65971428D01*
X123152380Y-65828571D01*
X123152380Y-65733333D01*
X123200000Y-65590476D01*
X123247619Y-65542857D01*
X124152380Y-64590476D02*
X124152380Y-65161904D01*
X124152380Y-64876190D02*
X123152380Y-64876190D01*
X123295238Y-64971428D01*
X123390476Y-65066666D01*
X123438095Y-65161904D01*
X123485714Y-63733333D02*
X124152380Y-63733333D01*
X123104761Y-63971428D02*
X123819047Y-64209523D01*
X123819047Y-63590476D01*
X124157142Y-54842857D02*
X124204761Y-54890476D01*
X124252380Y-55033333D01*
X124252380Y-55128571D01*
X124204761Y-55271428D01*
X124109523Y-55366666D01*
X124014285Y-55414285D01*
X123823809Y-55461904D01*
X123680952Y-55461904D01*
X123490476Y-55414285D01*
X123395238Y-55366666D01*
X123300000Y-55271428D01*
X123252380Y-55128571D01*
X123252380Y-55033333D01*
X123300000Y-54890476D01*
X123347619Y-54842857D01*
X124252380Y-53890476D02*
X124252380Y-54461904D01*
X124252380Y-54176190D02*
X123252380Y-54176190D01*
X123395238Y-54271428D01*
X123490476Y-54366666D01*
X123538095Y-54461904D01*
X123252380Y-52985714D02*
X123252380Y-53461904D01*
X123728571Y-53509523D01*
X123680952Y-53461904D01*
X123633333Y-53366666D01*
X123633333Y-53128571D01*
X123680952Y-53033333D01*
X123728571Y-52985714D01*
X123823809Y-52938095D01*
X124061904Y-52938095D01*
X124157142Y-52985714D01*
X124204761Y-53033333D01*
X124252380Y-53128571D01*
X124252380Y-53366666D01*
X124204761Y-53461904D01*
X124157142Y-53509523D01*
X133727142Y-65312857D02*
X133774761Y-65360476D01*
X133822380Y-65503333D01*
X133822380Y-65598571D01*
X133774761Y-65741428D01*
X133679523Y-65836666D01*
X133584285Y-65884285D01*
X133393809Y-65931904D01*
X133250952Y-65931904D01*
X133060476Y-65884285D01*
X132965238Y-65836666D01*
X132870000Y-65741428D01*
X132822380Y-65598571D01*
X132822380Y-65503333D01*
X132870000Y-65360476D01*
X132917619Y-65312857D01*
X133822380Y-64360476D02*
X133822380Y-64931904D01*
X133822380Y-64646190D02*
X132822380Y-64646190D01*
X132965238Y-64741428D01*
X133060476Y-64836666D01*
X133108095Y-64931904D01*
X133250952Y-63789047D02*
X133203333Y-63884285D01*
X133155714Y-63931904D01*
X133060476Y-63979523D01*
X133012857Y-63979523D01*
X132917619Y-63931904D01*
X132870000Y-63884285D01*
X132822380Y-63789047D01*
X132822380Y-63598571D01*
X132870000Y-63503333D01*
X132917619Y-63455714D01*
X133012857Y-63408095D01*
X133060476Y-63408095D01*
X133155714Y-63455714D01*
X133203333Y-63503333D01*
X133250952Y-63598571D01*
X133250952Y-63789047D01*
X133298571Y-63884285D01*
X133346190Y-63931904D01*
X133441428Y-63979523D01*
X133631904Y-63979523D01*
X133727142Y-63931904D01*
X133774761Y-63884285D01*
X133822380Y-63789047D01*
X133822380Y-63598571D01*
X133774761Y-63503333D01*
X133727142Y-63455714D01*
X133631904Y-63408095D01*
X133441428Y-63408095D01*
X133346190Y-63455714D01*
X133298571Y-63503333D01*
X133250952Y-63598571D01*
X135057142Y-54142857D02*
X135104761Y-54190476D01*
X135152380Y-54333333D01*
X135152380Y-54428571D01*
X135104761Y-54571428D01*
X135009523Y-54666666D01*
X134914285Y-54714285D01*
X134723809Y-54761904D01*
X134580952Y-54761904D01*
X134390476Y-54714285D01*
X134295238Y-54666666D01*
X134200000Y-54571428D01*
X134152380Y-54428571D01*
X134152380Y-54333333D01*
X134200000Y-54190476D01*
X134247619Y-54142857D01*
X135152380Y-53190476D02*
X135152380Y-53761904D01*
X135152380Y-53476190D02*
X134152380Y-53476190D01*
X134295238Y-53571428D01*
X134390476Y-53666666D01*
X134438095Y-53761904D01*
X135152380Y-52714285D02*
X135152380Y-52523809D01*
X135104761Y-52428571D01*
X135057142Y-52380952D01*
X134914285Y-52285714D01*
X134723809Y-52238095D01*
X134342857Y-52238095D01*
X134247619Y-52285714D01*
X134200000Y-52333333D01*
X134152380Y-52428571D01*
X134152380Y-52619047D01*
X134200000Y-52714285D01*
X134247619Y-52761904D01*
X134342857Y-52809523D01*
X134580952Y-52809523D01*
X134676190Y-52761904D01*
X134723809Y-52714285D01*
X134771428Y-52619047D01*
X134771428Y-52428571D01*
X134723809Y-52333333D01*
X134676190Y-52285714D01*
X134580952Y-52238095D01*
X147057142Y-55042857D02*
X147104761Y-55090476D01*
X147152380Y-55233333D01*
X147152380Y-55328571D01*
X147104761Y-55471428D01*
X147009523Y-55566666D01*
X146914285Y-55614285D01*
X146723809Y-55661904D01*
X146580952Y-55661904D01*
X146390476Y-55614285D01*
X146295238Y-55566666D01*
X146200000Y-55471428D01*
X146152380Y-55328571D01*
X146152380Y-55233333D01*
X146200000Y-55090476D01*
X146247619Y-55042857D01*
X146247619Y-54661904D02*
X146200000Y-54614285D01*
X146152380Y-54519047D01*
X146152380Y-54280952D01*
X146200000Y-54185714D01*
X146247619Y-54138095D01*
X146342857Y-54090476D01*
X146438095Y-54090476D01*
X146580952Y-54138095D01*
X147152380Y-54709523D01*
X147152380Y-54090476D01*
X146247619Y-53709523D02*
X146200000Y-53661904D01*
X146152380Y-53566666D01*
X146152380Y-53328571D01*
X146200000Y-53233333D01*
X146247619Y-53185714D01*
X146342857Y-53138095D01*
X146438095Y-53138095D01*
X146580952Y-53185714D01*
X147152380Y-53757142D01*
X147152380Y-53138095D01*
X153757142Y-65642857D02*
X153804761Y-65690476D01*
X153852380Y-65833333D01*
X153852380Y-65928571D01*
X153804761Y-66071428D01*
X153709523Y-66166666D01*
X153614285Y-66214285D01*
X153423809Y-66261904D01*
X153280952Y-66261904D01*
X153090476Y-66214285D01*
X152995238Y-66166666D01*
X152900000Y-66071428D01*
X152852380Y-65928571D01*
X152852380Y-65833333D01*
X152900000Y-65690476D01*
X152947619Y-65642857D01*
X152947619Y-65261904D02*
X152900000Y-65214285D01*
X152852380Y-65119047D01*
X152852380Y-64880952D01*
X152900000Y-64785714D01*
X152947619Y-64738095D01*
X153042857Y-64690476D01*
X153138095Y-64690476D01*
X153280952Y-64738095D01*
X153852380Y-65309523D01*
X153852380Y-64690476D01*
X152852380Y-64357142D02*
X152852380Y-63738095D01*
X153233333Y-64071428D01*
X153233333Y-63928571D01*
X153280952Y-63833333D01*
X153328571Y-63785714D01*
X153423809Y-63738095D01*
X153661904Y-63738095D01*
X153757142Y-63785714D01*
X153804761Y-63833333D01*
X153852380Y-63928571D01*
X153852380Y-64214285D01*
X153804761Y-64309523D01*
X153757142Y-64357142D01*
X107742857Y-70552380D02*
X107742857Y-69552380D01*
X108123809Y-69552380D01*
X108219047Y-69600000D01*
X108266666Y-69647619D01*
X108314285Y-69742857D01*
X108314285Y-69885714D01*
X108266666Y-69980952D01*
X108219047Y-70028571D01*
X108123809Y-70076190D01*
X107742857Y-70076190D01*
X108742857Y-70552380D02*
X108742857Y-69885714D01*
X108742857Y-69552380D02*
X108695238Y-69600000D01*
X108742857Y-69647619D01*
X108790476Y-69600000D01*
X108742857Y-69552380D01*
X108742857Y-69647619D01*
X109600000Y-70504761D02*
X109504761Y-70552380D01*
X109314285Y-70552380D01*
X109219047Y-70504761D01*
X109171428Y-70409523D01*
X109171428Y-70028571D01*
X109219047Y-69933333D01*
X109314285Y-69885714D01*
X109504761Y-69885714D01*
X109600000Y-69933333D01*
X109647619Y-70028571D01*
X109647619Y-70123809D01*
X109171428Y-70219047D01*
X109980952Y-69885714D02*
X110504761Y-69885714D01*
X109980952Y-70552380D01*
X110504761Y-70552380D01*
X111028571Y-70552380D02*
X110933333Y-70504761D01*
X110885714Y-70457142D01*
X110838095Y-70361904D01*
X110838095Y-70076190D01*
X110885714Y-69980952D01*
X110933333Y-69933333D01*
X111028571Y-69885714D01*
X111171428Y-69885714D01*
X111266666Y-69933333D01*
X111314285Y-69980952D01*
X111361904Y-70076190D01*
X111361904Y-70361904D01*
X111314285Y-70457142D01*
X111266666Y-70504761D01*
X111171428Y-70552380D01*
X111028571Y-70552380D01*
X111552380Y-70647619D02*
X112314285Y-70647619D01*
X112552380Y-70552380D02*
X112552380Y-69552380D01*
X113028571Y-69885714D02*
X113028571Y-70552380D01*
X113028571Y-69980952D02*
X113076190Y-69933333D01*
X113171428Y-69885714D01*
X113314285Y-69885714D01*
X113409523Y-69933333D01*
X113457142Y-70028571D01*
X113457142Y-70552380D01*
X136571428Y-70552380D02*
X136571428Y-69552380D01*
X136952380Y-69552380D01*
X137047619Y-69600000D01*
X137095238Y-69647619D01*
X137142857Y-69742857D01*
X137142857Y-69885714D01*
X137095238Y-69980952D01*
X137047619Y-70028571D01*
X136952380Y-70076190D01*
X136571428Y-70076190D01*
X137571428Y-70552380D02*
X137571428Y-69885714D01*
X137571428Y-69552380D02*
X137523809Y-69600000D01*
X137571428Y-69647619D01*
X137619047Y-69600000D01*
X137571428Y-69552380D01*
X137571428Y-69647619D01*
X138428571Y-70504761D02*
X138333333Y-70552380D01*
X138142857Y-70552380D01*
X138047619Y-70504761D01*
X138000000Y-70409523D01*
X138000000Y-70028571D01*
X138047619Y-69933333D01*
X138142857Y-69885714D01*
X138333333Y-69885714D01*
X138428571Y-69933333D01*
X138476190Y-70028571D01*
X138476190Y-70123809D01*
X138000000Y-70219047D01*
X138809523Y-69885714D02*
X139333333Y-69885714D01*
X138809523Y-70552380D01*
X139333333Y-70552380D01*
X139857142Y-70552380D02*
X139761904Y-70504761D01*
X139714285Y-70457142D01*
X139666666Y-70361904D01*
X139666666Y-70076190D01*
X139714285Y-69980952D01*
X139761904Y-69933333D01*
X139857142Y-69885714D01*
X140000000Y-69885714D01*
X140095238Y-69933333D01*
X140142857Y-69980952D01*
X140190476Y-70076190D01*
X140190476Y-70361904D01*
X140142857Y-70457142D01*
X140095238Y-70504761D01*
X140000000Y-70552380D01*
X139857142Y-70552380D01*
X140380952Y-70647619D02*
X141142857Y-70647619D01*
X141571428Y-69552380D02*
X141761904Y-69552380D01*
X141857142Y-69600000D01*
X141952380Y-69695238D01*
X142000000Y-69885714D01*
X142000000Y-70219047D01*
X141952380Y-70409523D01*
X141857142Y-70504761D01*
X141761904Y-70552380D01*
X141571428Y-70552380D01*
X141476190Y-70504761D01*
X141380952Y-70409523D01*
X141333333Y-70219047D01*
X141333333Y-69885714D01*
X141380952Y-69695238D01*
X141476190Y-69600000D01*
X141571428Y-69552380D01*
X142857142Y-69885714D02*
X142857142Y-70552380D01*
X142428571Y-69885714D02*
X142428571Y-70409523D01*
X142476190Y-70504761D01*
X142571428Y-70552380D01*
X142714285Y-70552380D01*
X142809523Y-70504761D01*
X142857142Y-70457142D01*
X143190476Y-69885714D02*
X143571428Y-69885714D01*
X143333333Y-69552380D02*
X143333333Y-70409523D01*
X143380952Y-70504761D01*
X143476190Y-70552380D01*
X143571428Y-70552380D01*
X157833333Y-70028571D02*
X158166666Y-70028571D01*
X158309523Y-70552380D02*
X157833333Y-70552380D01*
X157833333Y-69552380D01*
X158309523Y-69552380D01*
X158738095Y-70552380D02*
X158738095Y-69885714D01*
X158738095Y-70076190D02*
X158785714Y-69980952D01*
X158833333Y-69933333D01*
X158928571Y-69885714D01*
X159023809Y-69885714D01*
X159357142Y-70552380D02*
X159357142Y-69885714D01*
X159357142Y-70076190D02*
X159404761Y-69980952D01*
X159452380Y-69933333D01*
X159547619Y-69885714D01*
X159642857Y-69885714D01*
X160119047Y-70552380D02*
X160023809Y-70504761D01*
X159976190Y-70457142D01*
X159928571Y-70361904D01*
X159928571Y-70076190D01*
X159976190Y-69980952D01*
X160023809Y-69933333D01*
X160119047Y-69885714D01*
X160261904Y-69885714D01*
X160357142Y-69933333D01*
X160404761Y-69980952D01*
X160452380Y-70076190D01*
X160452380Y-70361904D01*
X160404761Y-70457142D01*
X160357142Y-70504761D01*
X160261904Y-70552380D01*
X160119047Y-70552380D01*
X160880952Y-70552380D02*
X160880952Y-69885714D01*
X160880952Y-70076190D02*
X160928571Y-69980952D01*
X160976190Y-69933333D01*
X161071428Y-69885714D01*
X161166666Y-69885714D01*
X161261904Y-70647619D02*
X162023809Y-70647619D01*
X162261904Y-70552380D02*
X162261904Y-69552380D01*
X162738095Y-69885714D02*
X162738095Y-70552380D01*
X162738095Y-69980952D02*
X162785714Y-69933333D01*
X162880952Y-69885714D01*
X163023809Y-69885714D01*
X163119047Y-69933333D01*
X163166666Y-70028571D01*
X163166666Y-70552380D01*
X157261904Y-55828571D02*
X157595238Y-55828571D01*
X157738095Y-56352380D02*
X157261904Y-56352380D01*
X157261904Y-55352380D01*
X157738095Y-55352380D01*
X158166666Y-56352380D02*
X158166666Y-55685714D01*
X158166666Y-55876190D02*
X158214285Y-55780952D01*
X158261904Y-55733333D01*
X158357142Y-55685714D01*
X158452380Y-55685714D01*
X158785714Y-56352380D02*
X158785714Y-55685714D01*
X158785714Y-55876190D02*
X158833333Y-55780952D01*
X158880952Y-55733333D01*
X158976190Y-55685714D01*
X159071428Y-55685714D01*
X159547619Y-56352380D02*
X159452380Y-56304761D01*
X159404761Y-56257142D01*
X159357142Y-56161904D01*
X159357142Y-55876190D01*
X159404761Y-55780952D01*
X159452380Y-55733333D01*
X159547619Y-55685714D01*
X159690476Y-55685714D01*
X159785714Y-55733333D01*
X159833333Y-55780952D01*
X159880952Y-55876190D01*
X159880952Y-56161904D01*
X159833333Y-56257142D01*
X159785714Y-56304761D01*
X159690476Y-56352380D01*
X159547619Y-56352380D01*
X160309523Y-56352380D02*
X160309523Y-55685714D01*
X160309523Y-55876190D02*
X160357142Y-55780952D01*
X160404761Y-55733333D01*
X160500000Y-55685714D01*
X160595238Y-55685714D01*
X160690476Y-56447619D02*
X161452380Y-56447619D01*
X161880952Y-55352380D02*
X162071428Y-55352380D01*
X162166666Y-55400000D01*
X162261904Y-55495238D01*
X162309523Y-55685714D01*
X162309523Y-56019047D01*
X162261904Y-56209523D01*
X162166666Y-56304761D01*
X162071428Y-56352380D01*
X161880952Y-56352380D01*
X161785714Y-56304761D01*
X161690476Y-56209523D01*
X161642857Y-56019047D01*
X161642857Y-55685714D01*
X161690476Y-55495238D01*
X161785714Y-55400000D01*
X161880952Y-55352380D01*
X163166666Y-55685714D02*
X163166666Y-56352380D01*
X162738095Y-55685714D02*
X162738095Y-56209523D01*
X162785714Y-56304761D01*
X162880952Y-56352380D01*
X163023809Y-56352380D01*
X163119047Y-56304761D01*
X163166666Y-56257142D01*
X163500000Y-55685714D02*
X163880952Y-55685714D01*
X163642857Y-55352380D02*
X163642857Y-56209523D01*
X163690476Y-56304761D01*
X163785714Y-56352380D01*
X163880952Y-56352380D01*
X97433333Y-84502380D02*
X97100000Y-84026190D01*
X96861904Y-84502380D02*
X96861904Y-83502380D01*
X97242857Y-83502380D01*
X97338095Y-83550000D01*
X97385714Y-83597619D01*
X97433333Y-83692857D01*
X97433333Y-83835714D01*
X97385714Y-83930952D01*
X97338095Y-83978571D01*
X97242857Y-84026190D01*
X96861904Y-84026190D01*
X98385714Y-84502380D02*
X97814285Y-84502380D01*
X98100000Y-84502380D02*
X98100000Y-83502380D01*
X98004761Y-83645238D01*
X97909523Y-83740476D01*
X97814285Y-83788095D01*
X98783333Y-57902380D02*
X98450000Y-57426190D01*
X98211904Y-57902380D02*
X98211904Y-56902380D01*
X98592857Y-56902380D01*
X98688095Y-56950000D01*
X98735714Y-56997619D01*
X98783333Y-57092857D01*
X98783333Y-57235714D01*
X98735714Y-57330952D01*
X98688095Y-57378571D01*
X98592857Y-57426190D01*
X98211904Y-57426190D01*
X99164285Y-56997619D02*
X99211904Y-56950000D01*
X99307142Y-56902380D01*
X99545238Y-56902380D01*
X99640476Y-56950000D01*
X99688095Y-56997619D01*
X99735714Y-57092857D01*
X99735714Y-57188095D01*
X99688095Y-57330952D01*
X99116666Y-57902380D01*
X99735714Y-57902380D01*
X116803333Y-66502380D02*
X116470000Y-66026190D01*
X116231904Y-66502380D02*
X116231904Y-65502380D01*
X116612857Y-65502380D01*
X116708095Y-65550000D01*
X116755714Y-65597619D01*
X116803333Y-65692857D01*
X116803333Y-65835714D01*
X116755714Y-65930952D01*
X116708095Y-65978571D01*
X116612857Y-66026190D01*
X116231904Y-66026190D01*
X117136666Y-65502380D02*
X117755714Y-65502380D01*
X117422380Y-65883333D01*
X117565238Y-65883333D01*
X117660476Y-65930952D01*
X117708095Y-65978571D01*
X117755714Y-66073809D01*
X117755714Y-66311904D01*
X117708095Y-66407142D01*
X117660476Y-66454761D01*
X117565238Y-66502380D01*
X117279523Y-66502380D01*
X117184285Y-66454761D01*
X117136666Y-66407142D01*
X116693333Y-64737380D02*
X116360000Y-64261190D01*
X116121904Y-64737380D02*
X116121904Y-63737380D01*
X116502857Y-63737380D01*
X116598095Y-63785000D01*
X116645714Y-63832619D01*
X116693333Y-63927857D01*
X116693333Y-64070714D01*
X116645714Y-64165952D01*
X116598095Y-64213571D01*
X116502857Y-64261190D01*
X116121904Y-64261190D01*
X117550476Y-64070714D02*
X117550476Y-64737380D01*
X117312380Y-63689761D02*
X117074285Y-64404047D01*
X117693333Y-64404047D01*
X111033333Y-74502380D02*
X110700000Y-74026190D01*
X110461904Y-74502380D02*
X110461904Y-73502380D01*
X110842857Y-73502380D01*
X110938095Y-73550000D01*
X110985714Y-73597619D01*
X111033333Y-73692857D01*
X111033333Y-73835714D01*
X110985714Y-73930952D01*
X110938095Y-73978571D01*
X110842857Y-74026190D01*
X110461904Y-74026190D01*
X111890476Y-73502380D02*
X111700000Y-73502380D01*
X111604761Y-73550000D01*
X111557142Y-73597619D01*
X111461904Y-73740476D01*
X111414285Y-73930952D01*
X111414285Y-74311904D01*
X111461904Y-74407142D01*
X111509523Y-74454761D01*
X111604761Y-74502380D01*
X111795238Y-74502380D01*
X111890476Y-74454761D01*
X111938095Y-74407142D01*
X111985714Y-74311904D01*
X111985714Y-74073809D01*
X111938095Y-73978571D01*
X111890476Y-73930952D01*
X111795238Y-73883333D01*
X111604761Y-73883333D01*
X111509523Y-73930952D01*
X111461904Y-73978571D01*
X111414285Y-74073809D01*
X147952380Y-67666666D02*
X147476190Y-68000000D01*
X147952380Y-68238095D02*
X146952380Y-68238095D01*
X146952380Y-67857142D01*
X147000000Y-67761904D01*
X147047619Y-67714285D01*
X147142857Y-67666666D01*
X147285714Y-67666666D01*
X147380952Y-67714285D01*
X147428571Y-67761904D01*
X147476190Y-67857142D01*
X147476190Y-68238095D01*
X146952380Y-67333333D02*
X146952380Y-66666666D01*
X147952380Y-67095238D01*
X121743333Y-69782380D02*
X121410000Y-69306190D01*
X121171904Y-69782380D02*
X121171904Y-68782380D01*
X121552857Y-68782380D01*
X121648095Y-68830000D01*
X121695714Y-68877619D01*
X121743333Y-68972857D01*
X121743333Y-69115714D01*
X121695714Y-69210952D01*
X121648095Y-69258571D01*
X121552857Y-69306190D01*
X121171904Y-69306190D01*
X122219523Y-69782380D02*
X122410000Y-69782380D01*
X122505238Y-69734761D01*
X122552857Y-69687142D01*
X122648095Y-69544285D01*
X122695714Y-69353809D01*
X122695714Y-68972857D01*
X122648095Y-68877619D01*
X122600476Y-68830000D01*
X122505238Y-68782380D01*
X122314761Y-68782380D01*
X122219523Y-68830000D01*
X122171904Y-68877619D01*
X122124285Y-68972857D01*
X122124285Y-69210952D01*
X122171904Y-69306190D01*
X122219523Y-69353809D01*
X122314761Y-69401428D01*
X122505238Y-69401428D01*
X122600476Y-69353809D01*
X122648095Y-69306190D01*
X122695714Y-69210952D01*
X125147142Y-68472380D02*
X124813809Y-67996190D01*
X124575714Y-68472380D02*
X124575714Y-67472380D01*
X124956666Y-67472380D01*
X125051904Y-67520000D01*
X125099523Y-67567619D01*
X125147142Y-67662857D01*
X125147142Y-67805714D01*
X125099523Y-67900952D01*
X125051904Y-67948571D01*
X124956666Y-67996190D01*
X124575714Y-67996190D01*
X126099523Y-68472380D02*
X125528095Y-68472380D01*
X125813809Y-68472380D02*
X125813809Y-67472380D01*
X125718571Y-67615238D01*
X125623333Y-67710476D01*
X125528095Y-67758095D01*
X126480476Y-67567619D02*
X126528095Y-67520000D01*
X126623333Y-67472380D01*
X126861428Y-67472380D01*
X126956666Y-67520000D01*
X127004285Y-67567619D01*
X127051904Y-67662857D01*
X127051904Y-67758095D01*
X127004285Y-67900952D01*
X126432857Y-68472380D01*
X127051904Y-68472380D01*
X127957142Y-64852380D02*
X127623809Y-64376190D01*
X127385714Y-64852380D02*
X127385714Y-63852380D01*
X127766666Y-63852380D01*
X127861904Y-63900000D01*
X127909523Y-63947619D01*
X127957142Y-64042857D01*
X127957142Y-64185714D01*
X127909523Y-64280952D01*
X127861904Y-64328571D01*
X127766666Y-64376190D01*
X127385714Y-64376190D01*
X128909523Y-64852380D02*
X128338095Y-64852380D01*
X128623809Y-64852380D02*
X128623809Y-63852380D01*
X128528571Y-63995238D01*
X128433333Y-64090476D01*
X128338095Y-64138095D01*
X129766666Y-64185714D02*
X129766666Y-64852380D01*
X129528571Y-63804761D02*
X129290476Y-64519047D01*
X129909523Y-64519047D01*
X130457142Y-70402380D02*
X130123809Y-69926190D01*
X129885714Y-70402380D02*
X129885714Y-69402380D01*
X130266666Y-69402380D01*
X130361904Y-69450000D01*
X130409523Y-69497619D01*
X130457142Y-69592857D01*
X130457142Y-69735714D01*
X130409523Y-69830952D01*
X130361904Y-69878571D01*
X130266666Y-69926190D01*
X129885714Y-69926190D01*
X131409523Y-70402380D02*
X130838095Y-70402380D01*
X131123809Y-70402380D02*
X131123809Y-69402380D01*
X131028571Y-69545238D01*
X130933333Y-69640476D01*
X130838095Y-69688095D01*
X132266666Y-69402380D02*
X132076190Y-69402380D01*
X131980952Y-69450000D01*
X131933333Y-69497619D01*
X131838095Y-69640476D01*
X131790476Y-69830952D01*
X131790476Y-70211904D01*
X131838095Y-70307142D01*
X131885714Y-70354761D01*
X131980952Y-70402380D01*
X132171428Y-70402380D01*
X132266666Y-70354761D01*
X132314285Y-70307142D01*
X132361904Y-70211904D01*
X132361904Y-69973809D01*
X132314285Y-69878571D01*
X132266666Y-69830952D01*
X132171428Y-69783333D01*
X131980952Y-69783333D01*
X131885714Y-69830952D01*
X131838095Y-69878571D01*
X131790476Y-69973809D01*
X128902380Y-53942857D02*
X128426190Y-54276190D01*
X128902380Y-54514285D02*
X127902380Y-54514285D01*
X127902380Y-54133333D01*
X127950000Y-54038095D01*
X127997619Y-53990476D01*
X128092857Y-53942857D01*
X128235714Y-53942857D01*
X128330952Y-53990476D01*
X128378571Y-54038095D01*
X128426190Y-54133333D01*
X128426190Y-54514285D01*
X128902380Y-52990476D02*
X128902380Y-53561904D01*
X128902380Y-53276190D02*
X127902380Y-53276190D01*
X128045238Y-53371428D01*
X128140476Y-53466666D01*
X128188095Y-53561904D01*
X128330952Y-52419047D02*
X128283333Y-52514285D01*
X128235714Y-52561904D01*
X128140476Y-52609523D01*
X128092857Y-52609523D01*
X127997619Y-52561904D01*
X127950000Y-52514285D01*
X127902380Y-52419047D01*
X127902380Y-52228571D01*
X127950000Y-52133333D01*
X127997619Y-52085714D01*
X128092857Y-52038095D01*
X128140476Y-52038095D01*
X128235714Y-52085714D01*
X128283333Y-52133333D01*
X128330952Y-52228571D01*
X128330952Y-52419047D01*
X128378571Y-52514285D01*
X128426190Y-52561904D01*
X128521428Y-52609523D01*
X128711904Y-52609523D01*
X128807142Y-52561904D01*
X128854761Y-52514285D01*
X128902380Y-52419047D01*
X128902380Y-52228571D01*
X128854761Y-52133333D01*
X128807142Y-52085714D01*
X128711904Y-52038095D01*
X128521428Y-52038095D01*
X128426190Y-52085714D01*
X128378571Y-52133333D01*
X128330952Y-52228571D01*
X146052380Y-68542857D02*
X145576190Y-68876190D01*
X146052380Y-69114285D02*
X145052380Y-69114285D01*
X145052380Y-68733333D01*
X145100000Y-68638095D01*
X145147619Y-68590476D01*
X145242857Y-68542857D01*
X145385714Y-68542857D01*
X145480952Y-68590476D01*
X145528571Y-68638095D01*
X145576190Y-68733333D01*
X145576190Y-69114285D01*
X145147619Y-68161904D02*
X145100000Y-68114285D01*
X145052380Y-68019047D01*
X145052380Y-67780952D01*
X145100000Y-67685714D01*
X145147619Y-67638095D01*
X145242857Y-67590476D01*
X145338095Y-67590476D01*
X145480952Y-67638095D01*
X146052380Y-68209523D01*
X146052380Y-67590476D01*
X145052380Y-67257142D02*
X145052380Y-66638095D01*
X145433333Y-66971428D01*
X145433333Y-66828571D01*
X145480952Y-66733333D01*
X145528571Y-66685714D01*
X145623809Y-66638095D01*
X145861904Y-66638095D01*
X145957142Y-66685714D01*
X146004761Y-66733333D01*
X146052380Y-66828571D01*
X146052380Y-67114285D01*
X146004761Y-67209523D01*
X145957142Y-67257142D01*
X144857142Y-60452380D02*
X144523809Y-59976190D01*
X144285714Y-60452380D02*
X144285714Y-59452380D01*
X144666666Y-59452380D01*
X144761904Y-59500000D01*
X144809523Y-59547619D01*
X144857142Y-59642857D01*
X144857142Y-59785714D01*
X144809523Y-59880952D01*
X144761904Y-59928571D01*
X144666666Y-59976190D01*
X144285714Y-59976190D01*
X145238095Y-59547619D02*
X145285714Y-59500000D01*
X145380952Y-59452380D01*
X145619047Y-59452380D01*
X145714285Y-59500000D01*
X145761904Y-59547619D01*
X145809523Y-59642857D01*
X145809523Y-59738095D01*
X145761904Y-59880952D01*
X145190476Y-60452380D01*
X145809523Y-60452380D01*
X146714285Y-59452380D02*
X146238095Y-59452380D01*
X146190476Y-59928571D01*
X146238095Y-59880952D01*
X146333333Y-59833333D01*
X146571428Y-59833333D01*
X146666666Y-59880952D01*
X146714285Y-59928571D01*
X146761904Y-60023809D01*
X146761904Y-60261904D01*
X146714285Y-60357142D01*
X146666666Y-60404761D01*
X146571428Y-60452380D01*
X146333333Y-60452380D01*
X146238095Y-60404761D01*
X146190476Y-60357142D01*
X149057142Y-66252380D02*
X148723809Y-65776190D01*
X148485714Y-66252380D02*
X148485714Y-65252380D01*
X148866666Y-65252380D01*
X148961904Y-65300000D01*
X149009523Y-65347619D01*
X149057142Y-65442857D01*
X149057142Y-65585714D01*
X149009523Y-65680952D01*
X148961904Y-65728571D01*
X148866666Y-65776190D01*
X148485714Y-65776190D01*
X149438095Y-65347619D02*
X149485714Y-65300000D01*
X149580952Y-65252380D01*
X149819047Y-65252380D01*
X149914285Y-65300000D01*
X149961904Y-65347619D01*
X150009523Y-65442857D01*
X150009523Y-65538095D01*
X149961904Y-65680952D01*
X149390476Y-66252380D01*
X150009523Y-66252380D01*
X150342857Y-65252380D02*
X151009523Y-65252380D01*
X150580952Y-66252380D01*
X169757142Y-54852380D02*
X169423809Y-54376190D01*
X169185714Y-54852380D02*
X169185714Y-53852380D01*
X169566666Y-53852380D01*
X169661904Y-53900000D01*
X169709523Y-53947619D01*
X169757142Y-54042857D01*
X169757142Y-54185714D01*
X169709523Y-54280952D01*
X169661904Y-54328571D01*
X169566666Y-54376190D01*
X169185714Y-54376190D01*
X170138095Y-53947619D02*
X170185714Y-53900000D01*
X170280952Y-53852380D01*
X170519047Y-53852380D01*
X170614285Y-53900000D01*
X170661904Y-53947619D01*
X170709523Y-54042857D01*
X170709523Y-54138095D01*
X170661904Y-54280952D01*
X170090476Y-54852380D01*
X170709523Y-54852380D01*
X171185714Y-54852380D02*
X171376190Y-54852380D01*
X171471428Y-54804761D01*
X171519047Y-54757142D01*
X171614285Y-54614285D01*
X171661904Y-54423809D01*
X171661904Y-54042857D01*
X171614285Y-53947619D01*
X171566666Y-53900000D01*
X171471428Y-53852380D01*
X171280952Y-53852380D01*
X171185714Y-53900000D01*
X171138095Y-53947619D01*
X171090476Y-54042857D01*
X171090476Y-54280952D01*
X171138095Y-54376190D01*
X171185714Y-54423809D01*
X171280952Y-54471428D01*
X171471428Y-54471428D01*
X171566666Y-54423809D01*
X171614285Y-54376190D01*
X171661904Y-54280952D01*
X116377380Y-60261904D02*
X117186904Y-60261904D01*
X117282142Y-60214285D01*
X117329761Y-60166666D01*
X117377380Y-60071428D01*
X117377380Y-59880952D01*
X117329761Y-59785714D01*
X117282142Y-59738095D01*
X117186904Y-59690476D01*
X116377380Y-59690476D01*
X116710714Y-58785714D02*
X117377380Y-58785714D01*
X116329761Y-59023809D02*
X117044047Y-59261904D01*
X117044047Y-58642857D01*
X134252380Y-60261904D02*
X135061904Y-60261904D01*
X135157142Y-60214285D01*
X135204761Y-60166666D01*
X135252380Y-60071428D01*
X135252380Y-59880952D01*
X135204761Y-59785714D01*
X135157142Y-59738095D01*
X135061904Y-59690476D01*
X134252380Y-59690476D01*
X134252380Y-58738095D02*
X134252380Y-59214285D01*
X134728571Y-59261904D01*
X134680952Y-59214285D01*
X134633333Y-59119047D01*
X134633333Y-58880952D01*
X134680952Y-58785714D01*
X134728571Y-58738095D01*
X134823809Y-58690476D01*
X135061904Y-58690476D01*
X135157142Y-58738095D01*
X135204761Y-58785714D01*
X135252380Y-58880952D01*
X135252380Y-59119047D01*
X135204761Y-59214285D01*
X135157142Y-59261904D01*
X152852380Y-60361904D02*
X153661904Y-60361904D01*
X153757142Y-60314285D01*
X153804761Y-60266666D01*
X153852380Y-60171428D01*
X153852380Y-59980952D01*
X153804761Y-59885714D01*
X153757142Y-59838095D01*
X153661904Y-59790476D01*
X152852380Y-59790476D01*
X153280952Y-59171428D02*
X153233333Y-59266666D01*
X153185714Y-59314285D01*
X153090476Y-59361904D01*
X153042857Y-59361904D01*
X152947619Y-59314285D01*
X152900000Y-59266666D01*
X152852380Y-59171428D01*
X152852380Y-58980952D01*
X152900000Y-58885714D01*
X152947619Y-58838095D01*
X153042857Y-58790476D01*
X153090476Y-58790476D01*
X153185714Y-58838095D01*
X153233333Y-58885714D01*
X153280952Y-58980952D01*
X153280952Y-59171428D01*
X153328571Y-59266666D01*
X153376190Y-59314285D01*
X153471428Y-59361904D01*
X153661904Y-59361904D01*
X153757142Y-59314285D01*
X153804761Y-59266666D01*
X153852380Y-59171428D01*
X153852380Y-58980952D01*
X153804761Y-58885714D01*
X153757142Y-58838095D01*
X153661904Y-58790476D01*
X153471428Y-58790476D01*
X153376190Y-58838095D01*
X153328571Y-58885714D01*
X153280952Y-58980952D01*
X134871428Y-56452380D02*
X134871428Y-55452380D01*
X135252380Y-55452380D01*
X135347619Y-55500000D01*
X135395238Y-55547619D01*
X135442857Y-55642857D01*
X135442857Y-55785714D01*
X135395238Y-55880952D01*
X135347619Y-55928571D01*
X135252380Y-55976190D01*
X134871428Y-55976190D01*
X135871428Y-56452380D02*
X135871428Y-55785714D01*
X135871428Y-55452380D02*
X135823809Y-55500000D01*
X135871428Y-55547619D01*
X135919047Y-55500000D01*
X135871428Y-55452380D01*
X135871428Y-55547619D01*
X136728571Y-56404761D02*
X136633333Y-56452380D01*
X136442857Y-56452380D01*
X136347619Y-56404761D01*
X136300000Y-56309523D01*
X136300000Y-55928571D01*
X136347619Y-55833333D01*
X136442857Y-55785714D01*
X136633333Y-55785714D01*
X136728571Y-55833333D01*
X136776190Y-55928571D01*
X136776190Y-56023809D01*
X136300000Y-56119047D01*
X137109523Y-55785714D02*
X137633333Y-55785714D01*
X137109523Y-56452380D01*
X137633333Y-56452380D01*
X138157142Y-56452380D02*
X138061904Y-56404761D01*
X138014285Y-56357142D01*
X137966666Y-56261904D01*
X137966666Y-55976190D01*
X138014285Y-55880952D01*
X138061904Y-55833333D01*
X138157142Y-55785714D01*
X138300000Y-55785714D01*
X138395238Y-55833333D01*
X138442857Y-55880952D01*
X138490476Y-55976190D01*
X138490476Y-56261904D01*
X138442857Y-56357142D01*
X138395238Y-56404761D01*
X138300000Y-56452380D01*
X138157142Y-56452380D01*
X138680952Y-56547619D02*
X139442857Y-56547619D01*
X139680952Y-56452380D02*
X139680952Y-55452380D01*
X140014285Y-56166666D01*
X140347619Y-55452380D01*
X140347619Y-56452380D01*
X140966666Y-56452380D02*
X140871428Y-56404761D01*
X140823809Y-56357142D01*
X140776190Y-56261904D01*
X140776190Y-55976190D01*
X140823809Y-55880952D01*
X140871428Y-55833333D01*
X140966666Y-55785714D01*
X141109523Y-55785714D01*
X141204761Y-55833333D01*
X141252380Y-55880952D01*
X141300000Y-55976190D01*
X141300000Y-56261904D01*
X141252380Y-56357142D01*
X141204761Y-56404761D01*
X141109523Y-56452380D01*
X140966666Y-56452380D01*
X141728571Y-55785714D02*
X141728571Y-56452380D01*
X141728571Y-55880952D02*
X141776190Y-55833333D01*
X141871428Y-55785714D01*
X142014285Y-55785714D01*
X142109523Y-55833333D01*
X142157142Y-55928571D01*
X142157142Y-56452380D01*
X142633333Y-56452380D02*
X142633333Y-55785714D01*
X142633333Y-55452380D02*
X142585714Y-55500000D01*
X142633333Y-55547619D01*
X142680952Y-55500000D01*
X142633333Y-55452380D01*
X142633333Y-55547619D01*
X142966666Y-55785714D02*
X143347619Y-55785714D01*
X143109523Y-55452380D02*
X143109523Y-56309523D01*
X143157142Y-56404761D01*
X143252380Y-56452380D01*
X143347619Y-56452380D01*
X143823809Y-56452380D02*
X143728571Y-56404761D01*
X143680952Y-56357142D01*
X143633333Y-56261904D01*
X143633333Y-55976190D01*
X143680952Y-55880952D01*
X143728571Y-55833333D01*
X143823809Y-55785714D01*
X143966666Y-55785714D01*
X144061904Y-55833333D01*
X144109523Y-55880952D01*
X144157142Y-55976190D01*
X144157142Y-56261904D01*
X144109523Y-56357142D01*
X144061904Y-56404761D01*
X143966666Y-56452380D01*
X143823809Y-56452380D01*
X144585714Y-56452380D02*
X144585714Y-55785714D01*
X144585714Y-55976190D02*
X144633333Y-55880952D01*
X144680952Y-55833333D01*
X144776190Y-55785714D01*
X144871428Y-55785714D01*
X168447619Y-69928571D02*
X168780952Y-69928571D01*
X168923809Y-70452380D02*
X168447619Y-70452380D01*
X168447619Y-69452380D01*
X168923809Y-69452380D01*
X169352380Y-70452380D02*
X169352380Y-69785714D01*
X169352380Y-69976190D02*
X169400000Y-69880952D01*
X169447619Y-69833333D01*
X169542857Y-69785714D01*
X169638095Y-69785714D01*
X169971428Y-70452380D02*
X169971428Y-69785714D01*
X169971428Y-69976190D02*
X170019047Y-69880952D01*
X170066666Y-69833333D01*
X170161904Y-69785714D01*
X170257142Y-69785714D01*
X170733333Y-70452380D02*
X170638095Y-70404761D01*
X170590476Y-70357142D01*
X170542857Y-70261904D01*
X170542857Y-69976190D01*
X170590476Y-69880952D01*
X170638095Y-69833333D01*
X170733333Y-69785714D01*
X170876190Y-69785714D01*
X170971428Y-69833333D01*
X171019047Y-69880952D01*
X171066666Y-69976190D01*
X171066666Y-70261904D01*
X171019047Y-70357142D01*
X170971428Y-70404761D01*
X170876190Y-70452380D01*
X170733333Y-70452380D01*
X171495238Y-70452380D02*
X171495238Y-69785714D01*
X171495238Y-69976190D02*
X171542857Y-69880952D01*
X171590476Y-69833333D01*
X171685714Y-69785714D01*
X171780952Y-69785714D01*
X171876190Y-70547619D02*
X172638095Y-70547619D01*
X172876190Y-70452380D02*
X172876190Y-69452380D01*
X173209523Y-70166666D01*
X173542857Y-69452380D01*
X173542857Y-70452380D01*
X174161904Y-70452380D02*
X174066666Y-70404761D01*
X174019047Y-70357142D01*
X173971428Y-70261904D01*
X173971428Y-69976190D01*
X174019047Y-69880952D01*
X174066666Y-69833333D01*
X174161904Y-69785714D01*
X174304761Y-69785714D01*
X174400000Y-69833333D01*
X174447619Y-69880952D01*
X174495238Y-69976190D01*
X174495238Y-70261904D01*
X174447619Y-70357142D01*
X174400000Y-70404761D01*
X174304761Y-70452380D01*
X174161904Y-70452380D01*
X174923809Y-69785714D02*
X174923809Y-70452380D01*
X174923809Y-69880952D02*
X174971428Y-69833333D01*
X175066666Y-69785714D01*
X175209523Y-69785714D01*
X175304761Y-69833333D01*
X175352380Y-69928571D01*
X175352380Y-70452380D01*
X93957142Y-102742857D02*
X94004761Y-102790476D01*
X94052380Y-102933333D01*
X94052380Y-103028571D01*
X94004761Y-103171428D01*
X93909523Y-103266666D01*
X93814285Y-103314285D01*
X93623809Y-103361904D01*
X93480952Y-103361904D01*
X93290476Y-103314285D01*
X93195238Y-103266666D01*
X93100000Y-103171428D01*
X93052380Y-103028571D01*
X93052380Y-102933333D01*
X93100000Y-102790476D01*
X93147619Y-102742857D01*
X93147619Y-102361904D02*
X93100000Y-102314285D01*
X93052380Y-102219047D01*
X93052380Y-101980952D01*
X93100000Y-101885714D01*
X93147619Y-101838095D01*
X93242857Y-101790476D01*
X93338095Y-101790476D01*
X93480952Y-101838095D01*
X94052380Y-102409523D01*
X94052380Y-101790476D01*
X93052380Y-100933333D02*
X93052380Y-101123809D01*
X93100000Y-101219047D01*
X93147619Y-101266666D01*
X93290476Y-101361904D01*
X93480952Y-101409523D01*
X93861904Y-101409523D01*
X93957142Y-101361904D01*
X94004761Y-101314285D01*
X94052380Y-101219047D01*
X94052380Y-101028571D01*
X94004761Y-100933333D01*
X93957142Y-100885714D01*
X93861904Y-100838095D01*
X93623809Y-100838095D01*
X93528571Y-100885714D01*
X93480952Y-100933333D01*
X93433333Y-101028571D01*
X93433333Y-101219047D01*
X93480952Y-101314285D01*
X93528571Y-101361904D01*
X93623809Y-101409523D01*
X101057142Y-100157142D02*
X101009523Y-100204761D01*
X100866666Y-100252380D01*
X100771428Y-100252380D01*
X100628571Y-100204761D01*
X100533333Y-100109523D01*
X100485714Y-100014285D01*
X100438095Y-99823809D01*
X100438095Y-99680952D01*
X100485714Y-99490476D01*
X100533333Y-99395238D01*
X100628571Y-99300000D01*
X100771428Y-99252380D01*
X100866666Y-99252380D01*
X101009523Y-99300000D01*
X101057142Y-99347619D01*
X101438095Y-99347619D02*
X101485714Y-99300000D01*
X101580952Y-99252380D01*
X101819047Y-99252380D01*
X101914285Y-99300000D01*
X101961904Y-99347619D01*
X102009523Y-99442857D01*
X102009523Y-99538095D01*
X101961904Y-99680952D01*
X101390476Y-100252380D01*
X102009523Y-100252380D01*
X102342857Y-99252380D02*
X103009523Y-99252380D01*
X102580952Y-100252380D01*
X113257142Y-113857142D02*
X113209523Y-113904761D01*
X113066666Y-113952380D01*
X112971428Y-113952380D01*
X112828571Y-113904761D01*
X112733333Y-113809523D01*
X112685714Y-113714285D01*
X112638095Y-113523809D01*
X112638095Y-113380952D01*
X112685714Y-113190476D01*
X112733333Y-113095238D01*
X112828571Y-113000000D01*
X112971428Y-112952380D01*
X113066666Y-112952380D01*
X113209523Y-113000000D01*
X113257142Y-113047619D01*
X113638095Y-113047619D02*
X113685714Y-113000000D01*
X113780952Y-112952380D01*
X114019047Y-112952380D01*
X114114285Y-113000000D01*
X114161904Y-113047619D01*
X114209523Y-113142857D01*
X114209523Y-113238095D01*
X114161904Y-113380952D01*
X113590476Y-113952380D01*
X114209523Y-113952380D01*
X114780952Y-113380952D02*
X114685714Y-113333333D01*
X114638095Y-113285714D01*
X114590476Y-113190476D01*
X114590476Y-113142857D01*
X114638095Y-113047619D01*
X114685714Y-113000000D01*
X114780952Y-112952380D01*
X114971428Y-112952380D01*
X115066666Y-113000000D01*
X115114285Y-113047619D01*
X115161904Y-113142857D01*
X115161904Y-113190476D01*
X115114285Y-113285714D01*
X115066666Y-113333333D01*
X114971428Y-113380952D01*
X114780952Y-113380952D01*
X114685714Y-113428571D01*
X114638095Y-113476190D01*
X114590476Y-113571428D01*
X114590476Y-113761904D01*
X114638095Y-113857142D01*
X114685714Y-113904761D01*
X114780952Y-113952380D01*
X114971428Y-113952380D01*
X115066666Y-113904761D01*
X115114285Y-113857142D01*
X115161904Y-113761904D01*
X115161904Y-113571428D01*
X115114285Y-113476190D01*
X115066666Y-113428571D01*
X114971428Y-113380952D01*
X108614285Y-108285714D02*
X108642857Y-108314285D01*
X108671428Y-108400000D01*
X108671428Y-108457142D01*
X108642857Y-108542857D01*
X108585714Y-108600000D01*
X108528571Y-108628571D01*
X108414285Y-108657142D01*
X108328571Y-108657142D01*
X108214285Y-108628571D01*
X108157142Y-108600000D01*
X108100000Y-108542857D01*
X108071428Y-108457142D01*
X108071428Y-108400000D01*
X108100000Y-108314285D01*
X108128571Y-108285714D01*
X108128571Y-108057142D02*
X108100000Y-108028571D01*
X108071428Y-107971428D01*
X108071428Y-107828571D01*
X108100000Y-107771428D01*
X108128571Y-107742857D01*
X108185714Y-107714285D01*
X108242857Y-107714285D01*
X108328571Y-107742857D01*
X108671428Y-108085714D01*
X108671428Y-107714285D01*
X108671428Y-107428571D02*
X108671428Y-107314285D01*
X108642857Y-107257142D01*
X108614285Y-107228571D01*
X108528571Y-107171428D01*
X108414285Y-107142857D01*
X108185714Y-107142857D01*
X108128571Y-107171428D01*
X108100000Y-107200000D01*
X108071428Y-107257142D01*
X108071428Y-107371428D01*
X108100000Y-107428571D01*
X108128571Y-107457142D01*
X108185714Y-107485714D01*
X108328571Y-107485714D01*
X108385714Y-107457142D01*
X108414285Y-107428571D01*
X108442857Y-107371428D01*
X108442857Y-107257142D01*
X108414285Y-107200000D01*
X108385714Y-107171428D01*
X108328571Y-107142857D01*
X122857142Y-112757142D02*
X122809523Y-112804761D01*
X122666666Y-112852380D01*
X122571428Y-112852380D01*
X122428571Y-112804761D01*
X122333333Y-112709523D01*
X122285714Y-112614285D01*
X122238095Y-112423809D01*
X122238095Y-112280952D01*
X122285714Y-112090476D01*
X122333333Y-111995238D01*
X122428571Y-111900000D01*
X122571428Y-111852380D01*
X122666666Y-111852380D01*
X122809523Y-111900000D01*
X122857142Y-111947619D01*
X123190476Y-111852380D02*
X123809523Y-111852380D01*
X123476190Y-112233333D01*
X123619047Y-112233333D01*
X123714285Y-112280952D01*
X123761904Y-112328571D01*
X123809523Y-112423809D01*
X123809523Y-112661904D01*
X123761904Y-112757142D01*
X123714285Y-112804761D01*
X123619047Y-112852380D01*
X123333333Y-112852380D01*
X123238095Y-112804761D01*
X123190476Y-112757142D01*
X124428571Y-111852380D02*
X124523809Y-111852380D01*
X124619047Y-111900000D01*
X124666666Y-111947619D01*
X124714285Y-112042857D01*
X124761904Y-112233333D01*
X124761904Y-112471428D01*
X124714285Y-112661904D01*
X124666666Y-112757142D01*
X124619047Y-112804761D01*
X124523809Y-112852380D01*
X124428571Y-112852380D01*
X124333333Y-112804761D01*
X124285714Y-112757142D01*
X124238095Y-112661904D01*
X124190476Y-112471428D01*
X124190476Y-112233333D01*
X124238095Y-112042857D01*
X124285714Y-111947619D01*
X124333333Y-111900000D01*
X124428571Y-111852380D01*
X119957142Y-114257142D02*
X119909523Y-114304761D01*
X119766666Y-114352380D01*
X119671428Y-114352380D01*
X119528571Y-114304761D01*
X119433333Y-114209523D01*
X119385714Y-114114285D01*
X119338095Y-113923809D01*
X119338095Y-113780952D01*
X119385714Y-113590476D01*
X119433333Y-113495238D01*
X119528571Y-113400000D01*
X119671428Y-113352380D01*
X119766666Y-113352380D01*
X119909523Y-113400000D01*
X119957142Y-113447619D01*
X120290476Y-113352380D02*
X120909523Y-113352380D01*
X120576190Y-113733333D01*
X120719047Y-113733333D01*
X120814285Y-113780952D01*
X120861904Y-113828571D01*
X120909523Y-113923809D01*
X120909523Y-114161904D01*
X120861904Y-114257142D01*
X120814285Y-114304761D01*
X120719047Y-114352380D01*
X120433333Y-114352380D01*
X120338095Y-114304761D01*
X120290476Y-114257142D01*
X121861904Y-114352380D02*
X121290476Y-114352380D01*
X121576190Y-114352380D02*
X121576190Y-113352380D01*
X121480952Y-113495238D01*
X121385714Y-113590476D01*
X121290476Y-113638095D01*
X125257142Y-109057142D02*
X125209523Y-109104761D01*
X125066666Y-109152380D01*
X124971428Y-109152380D01*
X124828571Y-109104761D01*
X124733333Y-109009523D01*
X124685714Y-108914285D01*
X124638095Y-108723809D01*
X124638095Y-108580952D01*
X124685714Y-108390476D01*
X124733333Y-108295238D01*
X124828571Y-108200000D01*
X124971428Y-108152380D01*
X125066666Y-108152380D01*
X125209523Y-108200000D01*
X125257142Y-108247619D01*
X125590476Y-108152380D02*
X126209523Y-108152380D01*
X125876190Y-108533333D01*
X126019047Y-108533333D01*
X126114285Y-108580952D01*
X126161904Y-108628571D01*
X126209523Y-108723809D01*
X126209523Y-108961904D01*
X126161904Y-109057142D01*
X126114285Y-109104761D01*
X126019047Y-109152380D01*
X125733333Y-109152380D01*
X125638095Y-109104761D01*
X125590476Y-109057142D01*
X126590476Y-108247619D02*
X126638095Y-108200000D01*
X126733333Y-108152380D01*
X126971428Y-108152380D01*
X127066666Y-108200000D01*
X127114285Y-108247619D01*
X127161904Y-108342857D01*
X127161904Y-108438095D01*
X127114285Y-108580952D01*
X126542857Y-109152380D01*
X127161904Y-109152380D01*
X113057142Y-120257142D02*
X113009523Y-120304761D01*
X112866666Y-120352380D01*
X112771428Y-120352380D01*
X112628571Y-120304761D01*
X112533333Y-120209523D01*
X112485714Y-120114285D01*
X112438095Y-119923809D01*
X112438095Y-119780952D01*
X112485714Y-119590476D01*
X112533333Y-119495238D01*
X112628571Y-119400000D01*
X112771428Y-119352380D01*
X112866666Y-119352380D01*
X113009523Y-119400000D01*
X113057142Y-119447619D01*
X113390476Y-119352380D02*
X114009523Y-119352380D01*
X113676190Y-119733333D01*
X113819047Y-119733333D01*
X113914285Y-119780952D01*
X113961904Y-119828571D01*
X114009523Y-119923809D01*
X114009523Y-120161904D01*
X113961904Y-120257142D01*
X113914285Y-120304761D01*
X113819047Y-120352380D01*
X113533333Y-120352380D01*
X113438095Y-120304761D01*
X113390476Y-120257142D01*
X114342857Y-119352380D02*
X114961904Y-119352380D01*
X114628571Y-119733333D01*
X114771428Y-119733333D01*
X114866666Y-119780952D01*
X114914285Y-119828571D01*
X114961904Y-119923809D01*
X114961904Y-120161904D01*
X114914285Y-120257142D01*
X114866666Y-120304761D01*
X114771428Y-120352380D01*
X114485714Y-120352380D01*
X114390476Y-120304761D01*
X114342857Y-120257142D01*
X85356380Y-94068333D02*
X86070666Y-94068333D01*
X86213523Y-94115952D01*
X86308761Y-94211190D01*
X86356380Y-94354047D01*
X86356380Y-94449285D01*
X86356380Y-93068333D02*
X86356380Y-93639761D01*
X86356380Y-93354047D02*
X85356380Y-93354047D01*
X85499238Y-93449285D01*
X85594476Y-93544523D01*
X85642095Y-93639761D01*
X97933333Y-99552380D02*
X97457142Y-99552380D01*
X97457142Y-98552380D01*
X98790476Y-99552380D02*
X98219047Y-99552380D01*
X98504761Y-99552380D02*
X98504761Y-98552380D01*
X98409523Y-98695238D01*
X98314285Y-98790476D01*
X98219047Y-98838095D01*
X94452380Y-111066666D02*
X94452380Y-111542857D01*
X93452380Y-111542857D01*
X93547619Y-110780952D02*
X93500000Y-110733333D01*
X93452380Y-110638095D01*
X93452380Y-110400000D01*
X93500000Y-110304761D01*
X93547619Y-110257142D01*
X93642857Y-110209523D01*
X93738095Y-110209523D01*
X93880952Y-110257142D01*
X94452380Y-110828571D01*
X94452380Y-110209523D01*
X115752380Y-121666666D02*
X115752380Y-122142857D01*
X114752380Y-122142857D01*
X114752380Y-121428571D02*
X114752380Y-120809523D01*
X115133333Y-121142857D01*
X115133333Y-121000000D01*
X115180952Y-120904761D01*
X115228571Y-120857142D01*
X115323809Y-120809523D01*
X115561904Y-120809523D01*
X115657142Y-120857142D01*
X115704761Y-120904761D01*
X115752380Y-121000000D01*
X115752380Y-121285714D01*
X115704761Y-121380952D01*
X115657142Y-121428571D01*
X108657142Y-111252380D02*
X108323809Y-110776190D01*
X108085714Y-111252380D02*
X108085714Y-110252380D01*
X108466666Y-110252380D01*
X108561904Y-110300000D01*
X108609523Y-110347619D01*
X108657142Y-110442857D01*
X108657142Y-110585714D01*
X108609523Y-110680952D01*
X108561904Y-110728571D01*
X108466666Y-110776190D01*
X108085714Y-110776190D01*
X108990476Y-110252380D02*
X109609523Y-110252380D01*
X109276190Y-110633333D01*
X109419047Y-110633333D01*
X109514285Y-110680952D01*
X109561904Y-110728571D01*
X109609523Y-110823809D01*
X109609523Y-111061904D01*
X109561904Y-111157142D01*
X109514285Y-111204761D01*
X109419047Y-111252380D01*
X109133333Y-111252380D01*
X109038095Y-111204761D01*
X108990476Y-111157142D01*
X110466666Y-110585714D02*
X110466666Y-111252380D01*
X110228571Y-110204761D02*
X109990476Y-110919047D01*
X110609523Y-110919047D01*
X120214285Y-109571428D02*
X120014285Y-109285714D01*
X119871428Y-109571428D02*
X119871428Y-108971428D01*
X120100000Y-108971428D01*
X120157142Y-109000000D01*
X120185714Y-109028571D01*
X120214285Y-109085714D01*
X120214285Y-109171428D01*
X120185714Y-109228571D01*
X120157142Y-109257142D01*
X120100000Y-109285714D01*
X119871428Y-109285714D01*
X120414285Y-108971428D02*
X120785714Y-108971428D01*
X120585714Y-109200000D01*
X120671428Y-109200000D01*
X120728571Y-109228571D01*
X120757142Y-109257142D01*
X120785714Y-109314285D01*
X120785714Y-109457142D01*
X120757142Y-109514285D01*
X120728571Y-109542857D01*
X120671428Y-109571428D01*
X120500000Y-109571428D01*
X120442857Y-109542857D01*
X120414285Y-109514285D01*
X121328571Y-108971428D02*
X121042857Y-108971428D01*
X121014285Y-109257142D01*
X121042857Y-109228571D01*
X121100000Y-109200000D01*
X121242857Y-109200000D01*
X121300000Y-109228571D01*
X121328571Y-109257142D01*
X121357142Y-109314285D01*
X121357142Y-109457142D01*
X121328571Y-109514285D01*
X121300000Y-109542857D01*
X121242857Y-109571428D01*
X121100000Y-109571428D01*
X121042857Y-109542857D01*
X121014285Y-109514285D01*
X124957142Y-107252380D02*
X124623809Y-106776190D01*
X124385714Y-107252380D02*
X124385714Y-106252380D01*
X124766666Y-106252380D01*
X124861904Y-106300000D01*
X124909523Y-106347619D01*
X124957142Y-106442857D01*
X124957142Y-106585714D01*
X124909523Y-106680952D01*
X124861904Y-106728571D01*
X124766666Y-106776190D01*
X124385714Y-106776190D01*
X125290476Y-106252380D02*
X125909523Y-106252380D01*
X125576190Y-106633333D01*
X125719047Y-106633333D01*
X125814285Y-106680952D01*
X125861904Y-106728571D01*
X125909523Y-106823809D01*
X125909523Y-107061904D01*
X125861904Y-107157142D01*
X125814285Y-107204761D01*
X125719047Y-107252380D01*
X125433333Y-107252380D01*
X125338095Y-107204761D01*
X125290476Y-107157142D01*
X126766666Y-106252380D02*
X126576190Y-106252380D01*
X126480952Y-106300000D01*
X126433333Y-106347619D01*
X126338095Y-106490476D01*
X126290476Y-106680952D01*
X126290476Y-107061904D01*
X126338095Y-107157142D01*
X126385714Y-107204761D01*
X126480952Y-107252380D01*
X126671428Y-107252380D01*
X126766666Y-107204761D01*
X126814285Y-107157142D01*
X126861904Y-107061904D01*
X126861904Y-106823809D01*
X126814285Y-106728571D01*
X126766666Y-106680952D01*
X126671428Y-106633333D01*
X126480952Y-106633333D01*
X126385714Y-106680952D01*
X126338095Y-106728571D01*
X126290476Y-106823809D01*
X115638095Y-106502380D02*
X115638095Y-107311904D01*
X115685714Y-107407142D01*
X115733333Y-107454761D01*
X115828571Y-107502380D01*
X116019047Y-107502380D01*
X116114285Y-107454761D01*
X116161904Y-107407142D01*
X116209523Y-107311904D01*
X116209523Y-106502380D01*
X116733333Y-107502380D02*
X116923809Y-107502380D01*
X117019047Y-107454761D01*
X117066666Y-107407142D01*
X117161904Y-107264285D01*
X117209523Y-107073809D01*
X117209523Y-106692857D01*
X117161904Y-106597619D01*
X117114285Y-106550000D01*
X117019047Y-106502380D01*
X116828571Y-106502380D01*
X116733333Y-106550000D01*
X116685714Y-106597619D01*
X116638095Y-106692857D01*
X116638095Y-106930952D01*
X116685714Y-107026190D01*
X116733333Y-107073809D01*
X116828571Y-107121428D01*
X117019047Y-107121428D01*
X117114285Y-107073809D01*
X117161904Y-107026190D01*
X117209523Y-106930952D01*
X189923380Y-129163666D02*
X189447190Y-129497000D01*
X189923380Y-129735095D02*
X188923380Y-129735095D01*
X188923380Y-129354142D01*
X188971000Y-129258904D01*
X189018619Y-129211285D01*
X189113857Y-129163666D01*
X189256714Y-129163666D01*
X189351952Y-129211285D01*
X189399571Y-129258904D01*
X189447190Y-129354142D01*
X189447190Y-129735095D01*
X189923380Y-128735095D02*
X188923380Y-128735095D01*
X188923380Y-128354142D01*
X188971000Y-128258904D01*
X189018619Y-128211285D01*
X189113857Y-128163666D01*
X189256714Y-128163666D01*
X189351952Y-128211285D01*
X189399571Y-128258904D01*
X189447190Y-128354142D01*
X189447190Y-128735095D01*
X189923380Y-127211285D02*
X189923380Y-127782714D01*
X189923380Y-127497000D02*
X188923380Y-127497000D01*
X189066238Y-127592238D01*
X189161476Y-127687476D01*
X189209095Y-127782714D01*
D13*
X175990000Y-50158571D02*
X176180476Y-50349047D01*
X175990000Y-50539523D01*
X175799523Y-50349047D01*
X175990000Y-50158571D01*
X175990000Y-50539523D01*
X173990000Y-50158571D02*
X174180476Y-50349047D01*
X173990000Y-50539523D01*
X173799523Y-50349047D01*
X173990000Y-50158571D01*
X173990000Y-50539523D01*
X171990000Y-50158571D02*
X172180476Y-50349047D01*
X171990000Y-50539523D01*
X171799523Y-50349047D01*
X171990000Y-50158571D01*
X171990000Y-50539523D01*
X175990000Y-48158571D02*
X176180476Y-48349047D01*
X175990000Y-48539523D01*
X175799523Y-48349047D01*
X175990000Y-48158571D01*
X175990000Y-48539523D01*
X173990000Y-48158571D02*
X174180476Y-48349047D01*
X173990000Y-48539523D01*
X173799523Y-48349047D01*
X173990000Y-48158571D01*
X173990000Y-48539523D01*
X171990000Y-48158571D02*
X172180476Y-48349047D01*
X171990000Y-48539523D01*
X171799523Y-48349047D01*
X171990000Y-48158571D01*
X171990000Y-48539523D01*
X175990000Y-46158571D02*
X176180476Y-46349047D01*
X175990000Y-46539523D01*
X175799523Y-46349047D01*
X175990000Y-46158571D01*
X175990000Y-46539523D01*
X173990000Y-46158571D02*
X174180476Y-46349047D01*
X173990000Y-46539523D01*
X173799523Y-46349047D01*
X173990000Y-46158571D01*
X173990000Y-46539523D01*
D14*
X177957619Y-49293333D02*
X180052857Y-49293333D01*
X177538571Y-50550476D02*
X179005238Y-46150476D01*
X180471904Y-50550476D01*
X181938571Y-50550476D02*
X181938571Y-46150476D01*
X183614761Y-46150476D01*
X184033809Y-46360000D01*
X184243333Y-46569523D01*
X184452857Y-46988571D01*
X184452857Y-47617142D01*
X184243333Y-48036190D01*
X184033809Y-48245714D01*
X183614761Y-48455238D01*
X181938571Y-48455238D01*
X189271904Y-50969523D02*
X188852857Y-50760000D01*
X188433809Y-50340952D01*
X187805238Y-49712380D01*
X187386190Y-49502857D01*
X186967142Y-49502857D01*
X187176666Y-50550476D02*
X186757619Y-50340952D01*
X186338571Y-49921904D01*
X186129047Y-49083809D01*
X186129047Y-47617142D01*
X186338571Y-46779047D01*
X186757619Y-46360000D01*
X187176666Y-46150476D01*
X188014761Y-46150476D01*
X188433809Y-46360000D01*
X188852857Y-46779047D01*
X189062380Y-47617142D01*
X189062380Y-49083809D01*
X188852857Y-49921904D01*
X188433809Y-50340952D01*
X188014761Y-50550476D01*
X187176666Y-50550476D01*
D13*
X171990000Y-46158571D02*
X172180476Y-46349047D01*
X171990000Y-46539523D01*
X171799523Y-46349047D01*
X171990000Y-46158571D01*
X171990000Y-46539523D01*
M02*
