M48
; DRILL file {KiCad (5.1.5)-3} date 22.09.2020 23:44:17
; FORMAT={-:-/ absolute / inch / decimal}
; #@! TF.CreationDate,2020-09-22T23:44:17+02:00
; #@! TF.GenerationSoftware,Kicad,Pcbnew,(5.1.5)-3
; #@! TF.FileFunction,Plated,1,2,PTH
FMAT,2
INCH
T1C0.0118
T2C0.0315
T3C0.0394
T4C0.0400
T5C0.0591
T6C0.0669
%
G90
G05
T1
X3.3177Y-2.1075
X3.3555Y-2.1075
X3.3701Y-3.4173
X3.374Y-2.9646
X3.3965Y-2.1075
X3.4134Y-2.3701
X3.4343Y-2.1075
X3.4606Y-4.9252
X3.4646Y-3.9724
X3.4646Y-4.4449
X3.465Y-3.6972
X3.465Y-3.765
X3.465Y-4.2106
X3.465Y-4.687
X3.465Y-5.1594
X3.465Y-5.3689
X3.4685Y-5.4331
X3.4752Y-2.1075
X3.5327Y-3.6972
X3.5327Y-5.4366
X3.5464Y-3.2264
X3.5464Y-3.2545
X3.5464Y-3.2825
X3.5464Y-3.3106
X3.5504Y-2.3146
X3.5787Y-3.2543
X3.5788Y-3.2264
X3.5788Y-3.2825
X3.5788Y-3.3106
X3.5827Y-4.5276
X3.5827Y-4.6063
X3.5827Y-4.685
X3.5827Y-4.7638
X3.5827Y-4.8425
X3.6175Y-2.1788
X3.6175Y-2.2069
X3.6175Y-2.2349
X3.6175Y-2.263
X3.6496Y-2.9055
X3.65Y-2.1788
X3.65Y-2.2069
X3.65Y-2.2349
X3.65Y-2.263
X3.6614Y-4.5276
X3.6614Y-4.6063
X3.6614Y-4.685
X3.6614Y-4.7638
X3.6614Y-4.8425
X3.7402Y-4.5276
X3.7402Y-4.6063
X3.7402Y-4.685
X3.7402Y-4.7638
X3.7402Y-4.8425
X3.7421Y-5.4366
X3.7441Y-3.6969
X3.7559Y-4.1142
X3.7594Y-2.1846
X3.8022Y-3.3632
X3.8189Y-4.5276
X3.8189Y-4.6063
X3.8189Y-4.685
X3.8189Y-4.7638
X3.8189Y-4.8425
X3.8386Y-2.0276
X3.8701Y-3.122
X3.8819Y-2.2717
X3.8976Y-4.5276
X3.8976Y-4.6063
X3.8976Y-4.685
X3.8976Y-4.7638
X3.8976Y-4.8425
X3.9764Y-4.5276
X3.9764Y-4.6063
X3.9764Y-4.685
X3.9764Y-4.7638
X3.9764Y-4.8425
X3.9764Y-5.437
X3.9783Y-3.6972
X4.0551Y-4.1142
X4.0551Y-4.1535
X4.0551Y-4.1929
X4.0551Y-4.5276
X4.0551Y-4.6063
X4.0551Y-4.685
X4.0551Y-4.7638
X4.0551Y-4.8425
X4.0945Y-3.9882
X4.0945Y-4.1142
X4.0945Y-4.1535
X4.0945Y-4.1929
X4.1339Y-4.1142
X4.1339Y-4.1535
X4.1339Y-4.1929
X4.1339Y-4.5276
X4.1339Y-4.6063
X4.1339Y-4.685
X4.1339Y-4.7638
X4.1339Y-4.8425
X4.1732Y-4.1142
X4.1732Y-4.1535
X4.1732Y-4.1929
X4.1929Y-2.2606
X4.2126Y-3.6969
X4.2126Y-4.1142
X4.2126Y-4.1535
X4.2126Y-4.1929
X4.2126Y-4.5276
X4.2126Y-4.6063
X4.2126Y-4.685
X4.2126Y-4.7638
X4.2126Y-4.8425
X4.2126Y-4.9213
X4.2126Y-5.0
X4.2126Y-5.0787
X4.2126Y-5.1575
X4.2126Y-5.2362
X4.2126Y-5.315
X4.2146Y-5.4366
X4.252Y-4.1142
X4.252Y-4.1535
X4.252Y-4.1929
X4.2913Y-4.1142
X4.2913Y-4.1535
X4.2913Y-4.1929
X4.2913Y-4.5276
X4.2913Y-4.6063
X4.2913Y-4.685
X4.2913Y-4.7638
X4.2913Y-4.8425
X4.2913Y-4.9213
X4.2913Y-5.0
X4.2913Y-5.0787
X4.2913Y-5.1575
X4.2913Y-5.2362
X4.2913Y-5.315
X4.3307Y-4.1142
X4.3307Y-4.1535
X4.3307Y-4.1929
X4.3701Y-4.1142
X4.3701Y-4.1535
X4.3701Y-4.1929
X4.3701Y-4.5276
X4.3701Y-4.6063
X4.3701Y-4.685
X4.3701Y-4.7638
X4.3701Y-4.8425
X4.3701Y-4.9213
X4.3701Y-5.0
X4.3701Y-5.0787
X4.3701Y-5.1575
X4.3701Y-5.2362
X4.3701Y-5.315
X4.4094Y-4.1142
X4.4094Y-4.1535
X4.4094Y-4.1929
X4.4173Y-2.9803
X4.4488Y-4.1142
X4.4488Y-4.1535
X4.4488Y-4.1929
X4.4488Y-4.2323
X4.4528Y-5.4409
X4.4547Y-3.6972
X4.4843Y-4.6063
X4.4882Y-4.1142
X4.4882Y-4.1535
X4.4882Y-4.1929
X4.4882Y-4.2323
X4.5276Y-4.1142
X4.5276Y-4.1535
X4.5276Y-4.1929
X4.5276Y-4.2323
X4.5591Y-4.4409
X4.5591Y-4.5
X4.5591Y-4.5512
X4.5591Y-4.6024
X4.5669Y-4.1142
X4.5669Y-4.1535
X4.5669Y-4.1929
X4.5669Y-4.2323
X4.5669Y-4.3031
X4.5669Y-4.3425
X4.5669Y-4.3819
X4.5984Y-4.3031
X4.5984Y-4.3425
X4.5984Y-4.3819
X4.6063Y-1.9764
X4.6063Y-4.1142
X4.6063Y-4.1535
X4.6063Y-4.1929
X4.6063Y-4.2323
X4.6102Y-4.4409
X4.6102Y-4.5
X4.6102Y-4.5512
X4.6102Y-4.6024
X4.6457Y-4.1142
X4.6457Y-4.1535
X4.6457Y-4.1929
X4.6457Y-4.2323
X4.6646Y-2.6449
X4.685Y-4.1142
X4.685Y-4.1535
X4.685Y-4.1929
X4.685Y-4.2323
X4.689Y-3.6969
X4.6909Y-5.4366
X4.7205Y-2.2972
X4.7244Y-4.1142
X4.7244Y-4.1535
X4.7638Y-4.1142
X4.7638Y-4.1535
X4.8031Y-4.1142
X4.8031Y-4.1535
X4.815Y-2.063
X4.815Y-2.622
X4.8228Y-2.8189
X4.8425Y-4.1142
X4.8425Y-4.1535
X4.8661Y-2.2953
X4.8819Y-4.1142
X4.8819Y-4.1535
X4.9213Y-4.1142
X4.9213Y-4.1535
X4.9213Y-4.252
X4.9213Y-4.2913
X4.9272Y-3.6972
X4.9272Y-5.4366
X4.9606Y-4.1142
X4.9606Y-4.1535
X4.9606Y-4.252
X4.9606Y-4.2913
X4.9606Y-4.3307
X4.9606Y-4.3701
X5.0Y-4.1142
X5.0Y-4.1535
X5.0Y-4.252
X5.0Y-4.2913
X5.0Y-4.3307
X5.0Y-4.3701
X5.0157Y-2.6102
X5.0354Y-2.4213
X5.0394Y-4.1142
X5.0394Y-4.1535
X5.0394Y-4.252
X5.0394Y-4.2913
X5.0394Y-4.3307
X5.0394Y-4.3701
X5.0472Y-2.5827
X5.0787Y-4.1142
X5.0787Y-4.1535
X5.0787Y-4.252
X5.0787Y-4.2913
X5.0787Y-4.3307
X5.0787Y-4.3701
X5.1181Y-4.1142
X5.1181Y-4.1535
X5.1181Y-4.2913
X5.1181Y-4.3307
X5.1181Y-4.3701
X5.1366Y-3.6972
X5.1366Y-5.4366
X5.1457Y-2.2953
X5.1496Y-2.5787
X5.1969Y-2.1024
X5.2043Y-3.6972
X5.2043Y-3.765
X5.2043Y-3.9744
X5.2043Y-4.4469
X5.2043Y-4.9232
X5.2043Y-5.3689
X5.2043Y-5.4366
X5.2047Y-4.2087
X5.2047Y-4.689
X5.2047Y-5.1614
X5.8268Y-2.0669
X5.876Y-2.2992
X5.9291Y-2.3976
X5.9843Y-2.6378
X6.4626Y-2.3287
X6.5276Y-2.3622
X7.2441Y-2.3228
X7.3622Y-2.2244
X7.563Y-2.315
X7.6929Y-2.2087
X7.8622Y-2.0906
X7.8937Y-1.9331
X8.0315Y-2.2953
X8.0472Y-2.0906
T2
X4.0079Y-3.3307
X7.4409Y-5.4449
X3.9094Y-1.9685
X4.3657Y-3.3291
X3.9331Y-2.5244
T3
X3.9331Y-2.6378
X3.9331Y-2.7378
X3.9331Y-2.8378
X3.022Y-2.1154
X3.022Y-2.2154
X3.022Y-2.3154
X3.022Y-2.4154
X3.022Y-2.5154
X3.022Y-2.6154
X3.022Y-2.7154
X3.022Y-2.8154
X3.022Y-2.9154
X3.022Y-3.0154
X3.022Y-3.1154
X3.022Y-3.2154
X3.022Y-3.3154
X3.022Y-3.4154
X3.022Y-3.5154
X3.022Y-3.6154
X3.022Y-3.7154
X3.022Y-3.8154
X3.022Y-3.9154
X3.022Y-4.0154
X3.022Y-4.1154
X3.022Y-4.2154
X3.022Y-4.3154
X3.022Y-4.4154
X3.022Y-4.5154
X3.022Y-4.6154
X3.022Y-4.7154
X3.022Y-4.8154
X3.022Y-4.9154
X3.022Y-5.0154
X3.022Y-5.1154
X3.022Y-5.2154
X3.222Y-2.1154
X3.222Y-2.2154
X3.222Y-2.3154
X3.222Y-2.4154
X3.222Y-2.5154
X3.222Y-2.6154
X3.222Y-2.7154
X3.222Y-2.8154
X3.222Y-2.9154
X3.222Y-3.0154
X3.222Y-3.1154
X3.222Y-3.2154
X3.222Y-3.3154
X3.222Y-3.4154
X3.222Y-3.5154
X3.222Y-3.6154
X3.222Y-3.7154
X3.222Y-3.8154
X3.222Y-3.9154
X3.222Y-4.0154
X3.222Y-4.1154
X3.222Y-4.2154
X3.222Y-4.3154
X3.222Y-4.4154
X3.222Y-4.5154
X3.222Y-4.6154
X3.222Y-4.7154
X3.222Y-4.8154
X3.222Y-4.9154
X3.222Y-5.0154
X3.222Y-5.1154
X3.222Y-5.2154
T4
X5.9995Y-5.0089
X5.9995Y-5.1089
X6.0995Y-5.0089
X6.0995Y-5.1089
X6.1995Y-5.0089
X6.1995Y-5.1089
X6.2995Y-5.0089
X6.2995Y-5.1089
X6.3995Y-5.0089
X6.3995Y-5.1089
X6.4995Y-5.0089
X6.4995Y-5.1089
X6.5995Y-5.0089
X6.5995Y-5.1089
X6.6995Y-5.0089
X6.6995Y-5.1089
X6.7995Y-5.0089
X6.7995Y-5.1089
X6.8995Y-5.0089
X6.8995Y-5.1089
X6.9995Y-5.0089
X6.9995Y-5.1089
X7.0995Y-5.0089
X7.0995Y-5.1089
X7.1995Y-5.0089
X7.1995Y-5.1089
T5
X6.3189Y-2.0079
X4.3543Y-2.563
X7.4213Y-2.5591
X7.9724Y-2.5591
X6.3189Y-2.563
X5.5118Y-2.563
X6.8701Y-2.5591
X5.5039Y-2.0079
T6
X6.2189Y-1.9079
X6.2189Y-2.1079
X6.4189Y-1.9079
X6.4189Y-2.1079
X4.2543Y-2.463
X4.2543Y-2.663
X4.4543Y-2.463
X4.4543Y-2.663
X7.3213Y-2.4591
X7.3213Y-2.6591
X7.5213Y-2.4591
X7.5213Y-2.6591
X7.8724Y-2.4591
X7.8724Y-2.6591
X8.0724Y-2.4591
X8.0724Y-2.6591
X6.2189Y-2.463
X6.2189Y-2.663
X6.4189Y-2.463
X6.4189Y-2.663
X5.4118Y-2.463
X5.4118Y-2.663
X5.6118Y-2.463
X5.6118Y-2.663
X6.7701Y-2.4591
X6.7701Y-2.6591
X6.9701Y-2.4591
X6.9701Y-2.6591
X5.4039Y-1.9079
X5.4039Y-2.1079
X5.6039Y-1.9079
X5.6039Y-2.1079
T0
M30
