G04 #@! TF.GenerationSoftware,KiCad,Pcbnew,(5.1.2)-1*
G04 #@! TF.CreationDate,2020-11-13T17:43:19+01:00*
G04 #@! TF.ProjectId,RedPitaya_Lockbox,52656450-6974-4617-9961-5f4c6f636b62,1.4.1*
G04 #@! TF.SameCoordinates,Original*
G04 #@! TF.FileFunction,Soldermask,Bot*
G04 #@! TF.FilePolarity,Negative*
%FSLAX46Y46*%
G04 Gerber Fmt 4.6, Leading zero omitted, Abs format (unit mm)*
G04 Created by KiCad (PCBNEW (5.1.2)-1) date 2020-11-13 17:43:19*
%MOMM*%
%LPD*%
G04 APERTURE LIST*
%ADD10C,2.200000*%
%ADD11C,3.300000*%
%ADD12C,3.100000*%
%ADD13C,1.900000*%
%ADD14C,2.650000*%
%ADD15C,2.450000*%
%ADD16R,2.432000X2.432000*%
%ADD17C,2.432000*%
%ADD18C,3.800000*%
%ADD19O,2.127200X2.127200*%
%ADD20R,2.127200X2.127200*%
G04 APERTURE END LIST*
D10*
X55360000Y-124370000D03*
X55360000Y-121830000D03*
X55360000Y-116750000D03*
X55360000Y-119290000D03*
X55360000Y-114210000D03*
X55360000Y-111670000D03*
X55360000Y-109130000D03*
X55360000Y-106590000D03*
X55360000Y-104050000D03*
X55360000Y-101510000D03*
X55360000Y-98970000D03*
X55360000Y-96430000D03*
X55360000Y-93890000D03*
X55360000Y-91350000D03*
X55360000Y-88810000D03*
X55360000Y-86270000D03*
X55360000Y-83730000D03*
X55360000Y-81190000D03*
X55360000Y-78650000D03*
X55360000Y-76110000D03*
X55360000Y-73570000D03*
X55360000Y-71030000D03*
X55360000Y-68490000D03*
X55360000Y-65950000D03*
X55360000Y-63410000D03*
X55360000Y-60870000D03*
X55360000Y-58330000D03*
X55360000Y-55790000D03*
X55360000Y-53250000D03*
X55360000Y-50710000D03*
X55360000Y-48170000D03*
X55360000Y-45630000D03*
X60440000Y-124370000D03*
X60440000Y-121830000D03*
X60440000Y-116750000D03*
X60440000Y-119290000D03*
X60440000Y-114210000D03*
X60440000Y-111670000D03*
X60440000Y-109130000D03*
X60440000Y-106590000D03*
X60440000Y-104050000D03*
X60440000Y-101510000D03*
X60440000Y-98970000D03*
X60440000Y-96430000D03*
X60440000Y-93890000D03*
X60440000Y-91350000D03*
X60440000Y-88810000D03*
X60440000Y-86270000D03*
X60440000Y-83730000D03*
X60440000Y-81190000D03*
X60440000Y-78650000D03*
X60440000Y-76110000D03*
X60440000Y-73570000D03*
X60440000Y-71030000D03*
X60440000Y-68490000D03*
X60440000Y-65950000D03*
X60440000Y-63410000D03*
X60440000Y-60870000D03*
X60440000Y-58330000D03*
X60440000Y-55790000D03*
X60440000Y-53250000D03*
X60440000Y-50710000D03*
X60440000Y-48170000D03*
X60440000Y-45630000D03*
D11*
X52820000Y-40550000D03*
X52820000Y-129450000D03*
D12*
X206210000Y-40540000D03*
X206200000Y-129450000D03*
D13*
X78500000Y-56020000D03*
X77900000Y-41900000D03*
X167600000Y-130200000D03*
X89490000Y-76460000D03*
X80900000Y-76500000D03*
D14*
X86660000Y-59540000D03*
X86660000Y-54460000D03*
X91740000Y-54460000D03*
X91740000Y-59540000D03*
D15*
X89200000Y-57000000D03*
D14*
X116060000Y-59540000D03*
X116060000Y-54460000D03*
X121140000Y-54460000D03*
X121140000Y-59540000D03*
D15*
X118600000Y-57000000D03*
D14*
X164560000Y-59440000D03*
X164560000Y-54360000D03*
X169640000Y-54360000D03*
X169640000Y-59440000D03*
D15*
X167100000Y-56900000D03*
D14*
X178560000Y-59440000D03*
X178560000Y-54360000D03*
X183640000Y-54360000D03*
X183640000Y-59440000D03*
D15*
X181100000Y-56900000D03*
D14*
X150560000Y-59440000D03*
X150560000Y-54360000D03*
X155640000Y-54360000D03*
X155640000Y-59440000D03*
D15*
X153100000Y-56900000D03*
D14*
X136560000Y-59540000D03*
X136560000Y-54460000D03*
X141640000Y-54460000D03*
X141640000Y-59540000D03*
D15*
X139100000Y-57000000D03*
D14*
X136560000Y-45440000D03*
X136560000Y-40360000D03*
X141640000Y-40360000D03*
X141640000Y-45440000D03*
D15*
X139100000Y-42900000D03*
D14*
X115860000Y-45440000D03*
X115860000Y-40360000D03*
X120940000Y-40360000D03*
X120940000Y-45440000D03*
D15*
X118400000Y-42900000D03*
D16*
X78500000Y-63980000D03*
D17*
X78500000Y-61440000D03*
X78500000Y-58900000D03*
D18*
X206300000Y-68000000D03*
X122300000Y-68000000D03*
X122300000Y-122000000D03*
X206300000Y-122000000D03*
D19*
X130987000Y-119127000D03*
X130987000Y-121667000D03*
X133527000Y-119127000D03*
X133527000Y-121667000D03*
X136067000Y-119127000D03*
X136067000Y-121667000D03*
X138607000Y-119127000D03*
X138607000Y-121667000D03*
X141147000Y-119127000D03*
X141147000Y-121667000D03*
X143687000Y-119127000D03*
X143687000Y-121667000D03*
X146227000Y-119127000D03*
X146227000Y-121667000D03*
X148767000Y-119127000D03*
X148767000Y-121667000D03*
X151307000Y-119127000D03*
X151307000Y-121667000D03*
X153847000Y-119127000D03*
X153847000Y-121667000D03*
X156387000Y-119127000D03*
X156387000Y-121667000D03*
X158927000Y-119127000D03*
X158927000Y-121667000D03*
X161467000Y-119127000D03*
D20*
X161467000Y-121667000D03*
M02*
