G04 #@! TF.GenerationSoftware,KiCad,Pcbnew,(5.1.10)-1*
G04 #@! TF.CreationDate,2021-10-13T16:23:51+02:00*
G04 #@! TF.ProjectId,RedPitaya_Lockbox,52656450-6974-4617-9961-5f4c6f636b62,1.5.1*
G04 #@! TF.SameCoordinates,Original*
G04 #@! TF.FileFunction,Legend,Bot*
G04 #@! TF.FilePolarity,Positive*
%FSLAX46Y46*%
G04 Gerber Fmt 4.6, Leading zero omitted, Abs format (unit mm)*
G04 Created by KiCad (PCBNEW (5.1.10)-1) date 2021-10-13 16:23:51*
%MOMM*%
%LPD*%
G01*
G04 APERTURE LIST*
%ADD10C,0.150000*%
%ADD11C,0.300000*%
%ADD12C,0.010000*%
%ADD13C,0.120000*%
G04 APERTURE END LIST*
D10*
X65002380Y-91635595D02*
X64002380Y-91635595D01*
X64002380Y-92016547D01*
X64050000Y-92111785D01*
X64097619Y-92159404D01*
X64192857Y-92207023D01*
X64335714Y-92207023D01*
X64430952Y-92159404D01*
X64478571Y-92111785D01*
X64526190Y-92016547D01*
X64526190Y-91635595D01*
X65002380Y-92778452D02*
X64954761Y-92683214D01*
X64907142Y-92635595D01*
X64811904Y-92587976D01*
X64526190Y-92587976D01*
X64430952Y-92635595D01*
X64383333Y-92683214D01*
X64335714Y-92778452D01*
X64335714Y-92921309D01*
X64383333Y-93016547D01*
X64430952Y-93064166D01*
X64526190Y-93111785D01*
X64811904Y-93111785D01*
X64907142Y-93064166D01*
X64954761Y-93016547D01*
X65002380Y-92921309D01*
X65002380Y-92778452D01*
X64335714Y-93445119D02*
X65002380Y-93635595D01*
X64526190Y-93826071D01*
X65002380Y-94016547D01*
X64335714Y-94207023D01*
X64954761Y-94968928D02*
X65002380Y-94873690D01*
X65002380Y-94683214D01*
X64954761Y-94587976D01*
X64859523Y-94540357D01*
X64478571Y-94540357D01*
X64383333Y-94587976D01*
X64335714Y-94683214D01*
X64335714Y-94873690D01*
X64383333Y-94968928D01*
X64478571Y-95016547D01*
X64573809Y-95016547D01*
X64669047Y-94540357D01*
X65002380Y-95445119D02*
X64335714Y-95445119D01*
X64526190Y-95445119D02*
X64430952Y-95492738D01*
X64383333Y-95540357D01*
X64335714Y-95635595D01*
X64335714Y-95730833D01*
X64954761Y-96778452D02*
X65002380Y-96873690D01*
X65002380Y-97064166D01*
X64954761Y-97159404D01*
X64859523Y-97207023D01*
X64811904Y-97207023D01*
X64716666Y-97159404D01*
X64669047Y-97064166D01*
X64669047Y-96921309D01*
X64621428Y-96826071D01*
X64526190Y-96778452D01*
X64478571Y-96778452D01*
X64383333Y-96826071D01*
X64335714Y-96921309D01*
X64335714Y-97064166D01*
X64383333Y-97159404D01*
X64335714Y-98064166D02*
X65002380Y-98064166D01*
X64335714Y-97635595D02*
X64859523Y-97635595D01*
X64954761Y-97683214D01*
X65002380Y-97778452D01*
X65002380Y-97921309D01*
X64954761Y-98016547D01*
X64907142Y-98064166D01*
X64335714Y-98540357D02*
X65335714Y-98540357D01*
X64383333Y-98540357D02*
X64335714Y-98635595D01*
X64335714Y-98826071D01*
X64383333Y-98921309D01*
X64430952Y-98968928D01*
X64526190Y-99016547D01*
X64811904Y-99016547D01*
X64907142Y-98968928D01*
X64954761Y-98921309D01*
X65002380Y-98826071D01*
X65002380Y-98635595D01*
X64954761Y-98540357D01*
X64335714Y-99445119D02*
X65335714Y-99445119D01*
X64383333Y-99445119D02*
X64335714Y-99540357D01*
X64335714Y-99730833D01*
X64383333Y-99826071D01*
X64430952Y-99873690D01*
X64526190Y-99921309D01*
X64811904Y-99921309D01*
X64907142Y-99873690D01*
X64954761Y-99826071D01*
X65002380Y-99730833D01*
X65002380Y-99540357D01*
X64954761Y-99445119D01*
X65002380Y-100492738D02*
X64954761Y-100397500D01*
X64859523Y-100349880D01*
X64002380Y-100349880D01*
X64335714Y-100778452D02*
X65002380Y-101016547D01*
X64335714Y-101254642D02*
X65002380Y-101016547D01*
X65240476Y-100921309D01*
X65288095Y-100873690D01*
X65335714Y-100778452D01*
X65002380Y-102540357D02*
X64954761Y-102445119D01*
X64907142Y-102397500D01*
X64811904Y-102349880D01*
X64526190Y-102349880D01*
X64430952Y-102397500D01*
X64383333Y-102445119D01*
X64335714Y-102540357D01*
X64335714Y-102683214D01*
X64383333Y-102778452D01*
X64430952Y-102826071D01*
X64526190Y-102873690D01*
X64811904Y-102873690D01*
X64907142Y-102826071D01*
X64954761Y-102778452D01*
X65002380Y-102683214D01*
X65002380Y-102540357D01*
X64335714Y-103302261D02*
X65335714Y-103302261D01*
X64383333Y-103302261D02*
X64335714Y-103397500D01*
X64335714Y-103587976D01*
X64383333Y-103683214D01*
X64430952Y-103730833D01*
X64526190Y-103778452D01*
X64811904Y-103778452D01*
X64907142Y-103730833D01*
X64954761Y-103683214D01*
X65002380Y-103587976D01*
X65002380Y-103397500D01*
X64954761Y-103302261D01*
X64335714Y-104064166D02*
X64335714Y-104445119D01*
X64002380Y-104207023D02*
X64859523Y-104207023D01*
X64954761Y-104254642D01*
X65002380Y-104349880D01*
X65002380Y-104445119D01*
X65002380Y-104778452D02*
X64335714Y-104778452D01*
X64002380Y-104778452D02*
X64050000Y-104730833D01*
X64097619Y-104778452D01*
X64050000Y-104826071D01*
X64002380Y-104778452D01*
X64097619Y-104778452D01*
X65002380Y-105397500D02*
X64954761Y-105302261D01*
X64907142Y-105254642D01*
X64811904Y-105207023D01*
X64526190Y-105207023D01*
X64430952Y-105254642D01*
X64383333Y-105302261D01*
X64335714Y-105397500D01*
X64335714Y-105540357D01*
X64383333Y-105635595D01*
X64430952Y-105683214D01*
X64526190Y-105730833D01*
X64811904Y-105730833D01*
X64907142Y-105683214D01*
X64954761Y-105635595D01*
X65002380Y-105540357D01*
X65002380Y-105397500D01*
X64335714Y-106159404D02*
X65002380Y-106159404D01*
X64430952Y-106159404D02*
X64383333Y-106207023D01*
X64335714Y-106302261D01*
X64335714Y-106445119D01*
X64383333Y-106540357D01*
X64478571Y-106587976D01*
X65002380Y-106587976D01*
X64954761Y-107016547D02*
X65002380Y-107111785D01*
X65002380Y-107302261D01*
X64954761Y-107397500D01*
X64859523Y-107445119D01*
X64811904Y-107445119D01*
X64716666Y-107397500D01*
X64669047Y-107302261D01*
X64669047Y-107159404D01*
X64621428Y-107064166D01*
X64526190Y-107016547D01*
X64478571Y-107016547D01*
X64383333Y-107064166D01*
X64335714Y-107159404D01*
X64335714Y-107302261D01*
X64383333Y-107397500D01*
X64907142Y-107873690D02*
X64954761Y-107921309D01*
X65002380Y-107873690D01*
X64954761Y-107826071D01*
X64907142Y-107873690D01*
X65002380Y-107873690D01*
X64383333Y-107873690D02*
X64430952Y-107921309D01*
X64478571Y-107873690D01*
X64430952Y-107826071D01*
X64383333Y-107873690D01*
X64478571Y-107873690D01*
X66366666Y-91587976D02*
X66366666Y-92064166D01*
X66652380Y-91492738D02*
X65652380Y-91826071D01*
X66652380Y-92159404D01*
X66652380Y-92492738D02*
X65652380Y-92492738D01*
X65652380Y-92873690D01*
X65700000Y-92968928D01*
X65747619Y-93016547D01*
X65842857Y-93064166D01*
X65985714Y-93064166D01*
X66080952Y-93016547D01*
X66128571Y-92968928D01*
X66176190Y-92873690D01*
X66176190Y-92492738D01*
X66747619Y-94159404D02*
X66700000Y-94064166D01*
X66604761Y-93968928D01*
X66461904Y-93826071D01*
X66414285Y-93730833D01*
X66414285Y-93635595D01*
X66652380Y-93683214D02*
X66604761Y-93587976D01*
X66509523Y-93492738D01*
X66319047Y-93445119D01*
X65985714Y-93445119D01*
X65795238Y-93492738D01*
X65700000Y-93587976D01*
X65652380Y-93683214D01*
X65652380Y-93873690D01*
X65700000Y-93968928D01*
X65795238Y-94064166D01*
X65985714Y-94111785D01*
X66319047Y-94111785D01*
X66509523Y-94064166D01*
X66604761Y-93968928D01*
X66652380Y-93873690D01*
X66652380Y-93683214D01*
X67033333Y-95587976D02*
X66985714Y-95540357D01*
X66842857Y-95445119D01*
X66747619Y-95397500D01*
X66604761Y-95349880D01*
X66366666Y-95302261D01*
X66176190Y-95302261D01*
X65938095Y-95349880D01*
X65795238Y-95397500D01*
X65700000Y-95445119D01*
X65557142Y-95540357D01*
X65509523Y-95587976D01*
X66652380Y-96397500D02*
X65652380Y-96397500D01*
X66604761Y-96397500D02*
X66652380Y-96302261D01*
X66652380Y-96111785D01*
X66604761Y-96016547D01*
X66557142Y-95968928D01*
X66461904Y-95921309D01*
X66176190Y-95921309D01*
X66080952Y-95968928D01*
X66033333Y-96016547D01*
X65985714Y-96111785D01*
X65985714Y-96302261D01*
X66033333Y-96397500D01*
X66604761Y-97254642D02*
X66652380Y-97159404D01*
X66652380Y-96968928D01*
X66604761Y-96873690D01*
X66509523Y-96826071D01*
X66128571Y-96826071D01*
X66033333Y-96873690D01*
X65985714Y-96968928D01*
X65985714Y-97159404D01*
X66033333Y-97254642D01*
X66128571Y-97302261D01*
X66223809Y-97302261D01*
X66319047Y-96826071D01*
X65985714Y-97587976D02*
X65985714Y-97968928D01*
X66652380Y-97730833D02*
X65795238Y-97730833D01*
X65700000Y-97778452D01*
X65652380Y-97873690D01*
X65652380Y-97968928D01*
X66652380Y-98730833D02*
X66128571Y-98730833D01*
X66033333Y-98683214D01*
X65985714Y-98587976D01*
X65985714Y-98397500D01*
X66033333Y-98302261D01*
X66604761Y-98730833D02*
X66652380Y-98635595D01*
X66652380Y-98397500D01*
X66604761Y-98302261D01*
X66509523Y-98254642D01*
X66414285Y-98254642D01*
X66319047Y-98302261D01*
X66271428Y-98397500D01*
X66271428Y-98635595D01*
X66223809Y-98730833D01*
X65985714Y-99635595D02*
X66652380Y-99635595D01*
X65985714Y-99207023D02*
X66509523Y-99207023D01*
X66604761Y-99254642D01*
X66652380Y-99349880D01*
X66652380Y-99492738D01*
X66604761Y-99587976D01*
X66557142Y-99635595D01*
X66652380Y-100254642D02*
X66604761Y-100159404D01*
X66509523Y-100111785D01*
X65652380Y-100111785D01*
X65985714Y-100492738D02*
X65985714Y-100873690D01*
X65652380Y-100635595D02*
X66509523Y-100635595D01*
X66604761Y-100683214D01*
X66652380Y-100778452D01*
X66652380Y-100873690D01*
X67033333Y-101111785D02*
X66985714Y-101159404D01*
X66842857Y-101254642D01*
X66747619Y-101302261D01*
X66604761Y-101349880D01*
X66366666Y-101397500D01*
X66176190Y-101397500D01*
X65938095Y-101349880D01*
X65795238Y-101302261D01*
X65700000Y-101254642D01*
X65557142Y-101159404D01*
X65509523Y-101111785D01*
X66557142Y-101873690D02*
X66604761Y-101921309D01*
X66652380Y-101873690D01*
X66604761Y-101826071D01*
X66557142Y-101873690D01*
X66652380Y-101873690D01*
X66033333Y-101873690D02*
X66080952Y-101921309D01*
X66128571Y-101873690D01*
X66080952Y-101826071D01*
X66033333Y-101873690D01*
X66128571Y-101873690D01*
X65652380Y-103397500D02*
X66366666Y-103397500D01*
X66509523Y-103349880D01*
X66604761Y-103254642D01*
X66652380Y-103111785D01*
X66652380Y-103016547D01*
X66652380Y-103873690D02*
X65652380Y-103873690D01*
X65652380Y-104254642D01*
X65700000Y-104349880D01*
X65747619Y-104397500D01*
X65842857Y-104445119D01*
X65985714Y-104445119D01*
X66080952Y-104397500D01*
X66128571Y-104349880D01*
X66176190Y-104254642D01*
X66176190Y-103873690D01*
X66652380Y-105397500D02*
X66652380Y-104826071D01*
X66652380Y-105111785D02*
X65652380Y-105111785D01*
X65795238Y-105016547D01*
X65890476Y-104921309D01*
X65938095Y-104826071D01*
X66604761Y-105873690D02*
X66652380Y-105873690D01*
X66747619Y-105826071D01*
X66795238Y-105778452D01*
X65652380Y-106587976D02*
X66366666Y-106587976D01*
X66509523Y-106540357D01*
X66604761Y-106445119D01*
X66652380Y-106302261D01*
X66652380Y-106207023D01*
X66652380Y-107064166D02*
X65652380Y-107064166D01*
X65652380Y-107445119D01*
X65700000Y-107540357D01*
X65747619Y-107587976D01*
X65842857Y-107635595D01*
X65985714Y-107635595D01*
X66080952Y-107587976D01*
X66128571Y-107540357D01*
X66176190Y-107445119D01*
X66176190Y-107064166D01*
X65747619Y-108016547D02*
X65700000Y-108064166D01*
X65652380Y-108159404D01*
X65652380Y-108397500D01*
X65700000Y-108492738D01*
X65747619Y-108540357D01*
X65842857Y-108587976D01*
X65938095Y-108587976D01*
X66080952Y-108540357D01*
X66652380Y-107968928D01*
X66652380Y-108587976D01*
X66652380Y-109921309D02*
X66604761Y-109826071D01*
X66557142Y-109778452D01*
X66461904Y-109730833D01*
X66176190Y-109730833D01*
X66080952Y-109778452D01*
X66033333Y-109826071D01*
X65985714Y-109921309D01*
X65985714Y-110064166D01*
X66033333Y-110159404D01*
X66080952Y-110207023D01*
X66176190Y-110254642D01*
X66461904Y-110254642D01*
X66557142Y-110207023D01*
X66604761Y-110159404D01*
X66652380Y-110064166D01*
X66652380Y-109921309D01*
X65985714Y-110683214D02*
X66985714Y-110683214D01*
X66033333Y-110683214D02*
X65985714Y-110778452D01*
X65985714Y-110968928D01*
X66033333Y-111064166D01*
X66080952Y-111111785D01*
X66176190Y-111159404D01*
X66461904Y-111159404D01*
X66557142Y-111111785D01*
X66604761Y-111064166D01*
X66652380Y-110968928D01*
X66652380Y-110778452D01*
X66604761Y-110683214D01*
X66604761Y-111968928D02*
X66652380Y-111873690D01*
X66652380Y-111683214D01*
X66604761Y-111587976D01*
X66509523Y-111540357D01*
X66128571Y-111540357D01*
X66033333Y-111587976D01*
X65985714Y-111683214D01*
X65985714Y-111873690D01*
X66033333Y-111968928D01*
X66128571Y-112016547D01*
X66223809Y-112016547D01*
X66319047Y-111540357D01*
X65985714Y-112445119D02*
X66652380Y-112445119D01*
X66080952Y-112445119D02*
X66033333Y-112492738D01*
X65985714Y-112587976D01*
X65985714Y-112730833D01*
X66033333Y-112826071D01*
X66128571Y-112873690D01*
X66652380Y-112873690D01*
X66604761Y-113397500D02*
X66652380Y-113397500D01*
X66747619Y-113349880D01*
X66795238Y-113302261D01*
X66033333Y-113349880D02*
X66080952Y-113397500D01*
X66128571Y-113349880D01*
X66080952Y-113302261D01*
X66033333Y-113349880D01*
X66128571Y-113349880D01*
X65652380Y-114873690D02*
X66366666Y-114873690D01*
X66509523Y-114826071D01*
X66604761Y-114730833D01*
X66652380Y-114587976D01*
X66652380Y-114492738D01*
X66652380Y-115349880D02*
X65652380Y-115349880D01*
X65652380Y-115730833D01*
X65700000Y-115826071D01*
X65747619Y-115873690D01*
X65842857Y-115921309D01*
X65985714Y-115921309D01*
X66080952Y-115873690D01*
X66128571Y-115826071D01*
X66176190Y-115730833D01*
X66176190Y-115349880D01*
X65652380Y-116254642D02*
X65652380Y-116873690D01*
X66033333Y-116540357D01*
X66033333Y-116683214D01*
X66080952Y-116778452D01*
X66128571Y-116826071D01*
X66223809Y-116873690D01*
X66461904Y-116873690D01*
X66557142Y-116826071D01*
X66604761Y-116778452D01*
X66652380Y-116683214D01*
X66652380Y-116397500D01*
X66604761Y-116302261D01*
X66557142Y-116254642D01*
X66271428Y-117302261D02*
X66271428Y-118064166D01*
X65652380Y-118826071D02*
X66366666Y-118826071D01*
X66509523Y-118778452D01*
X66604761Y-118683214D01*
X66652380Y-118540357D01*
X66652380Y-118445119D01*
X66652380Y-119302261D02*
X65652380Y-119302261D01*
X65652380Y-119683214D01*
X65700000Y-119778452D01*
X65747619Y-119826071D01*
X65842857Y-119873690D01*
X65985714Y-119873690D01*
X66080952Y-119826071D01*
X66128571Y-119778452D01*
X66176190Y-119683214D01*
X66176190Y-119302261D01*
X66652380Y-120826071D02*
X66652380Y-120254642D01*
X66652380Y-120540357D02*
X65652380Y-120540357D01*
X65795238Y-120445119D01*
X65890476Y-120349880D01*
X65938095Y-120254642D01*
X65652380Y-121730833D02*
X65652380Y-121254642D01*
X66128571Y-121207023D01*
X66080952Y-121254642D01*
X66033333Y-121349880D01*
X66033333Y-121587976D01*
X66080952Y-121683214D01*
X66128571Y-121730833D01*
X66223809Y-121778452D01*
X66461904Y-121778452D01*
X66557142Y-121730833D01*
X66604761Y-121683214D01*
X66652380Y-121587976D01*
X66652380Y-121349880D01*
X66604761Y-121254642D01*
X66557142Y-121207023D01*
X66604761Y-123397500D02*
X66652380Y-123302261D01*
X66652380Y-123111785D01*
X66604761Y-123016547D01*
X66557142Y-122968928D01*
X66461904Y-122921309D01*
X66176190Y-122921309D01*
X66080952Y-122968928D01*
X66033333Y-123016547D01*
X65985714Y-123111785D01*
X65985714Y-123302261D01*
X66033333Y-123397500D01*
X66652380Y-123968928D02*
X66604761Y-123873690D01*
X66509523Y-123826071D01*
X65652380Y-123826071D01*
X66652380Y-124492738D02*
X66604761Y-124397500D01*
X66557142Y-124349880D01*
X66461904Y-124302261D01*
X66176190Y-124302261D01*
X66080952Y-124349880D01*
X66033333Y-124397500D01*
X65985714Y-124492738D01*
X65985714Y-124635595D01*
X66033333Y-124730833D01*
X66080952Y-124778452D01*
X66176190Y-124826071D01*
X66461904Y-124826071D01*
X66557142Y-124778452D01*
X66604761Y-124730833D01*
X66652380Y-124635595D01*
X66652380Y-124492738D01*
X66604761Y-125207023D02*
X66652380Y-125302261D01*
X66652380Y-125492738D01*
X66604761Y-125587976D01*
X66509523Y-125635595D01*
X66461904Y-125635595D01*
X66366666Y-125587976D01*
X66319047Y-125492738D01*
X66319047Y-125349880D01*
X66271428Y-125254642D01*
X66176190Y-125207023D01*
X66128571Y-125207023D01*
X66033333Y-125254642D01*
X65985714Y-125349880D01*
X65985714Y-125492738D01*
X66033333Y-125587976D01*
X66604761Y-126445119D02*
X66652380Y-126349880D01*
X66652380Y-126159404D01*
X66604761Y-126064166D01*
X66509523Y-126016547D01*
X66128571Y-126016547D01*
X66033333Y-126064166D01*
X65985714Y-126159404D01*
X65985714Y-126349880D01*
X66033333Y-126445119D01*
X66128571Y-126492738D01*
X66223809Y-126492738D01*
X66319047Y-126016547D01*
X66652380Y-127349880D02*
X65652380Y-127349880D01*
X66604761Y-127349880D02*
X66652380Y-127254642D01*
X66652380Y-127064166D01*
X66604761Y-126968928D01*
X66557142Y-126921309D01*
X66461904Y-126873690D01*
X66176190Y-126873690D01*
X66080952Y-126921309D01*
X66033333Y-126968928D01*
X65985714Y-127064166D01*
X65985714Y-127254642D01*
X66033333Y-127349880D01*
X67302380Y-91492738D02*
X67302380Y-92064166D01*
X68302380Y-91778452D02*
X67302380Y-91778452D01*
X68302380Y-92540357D02*
X68254761Y-92445119D01*
X68207142Y-92397500D01*
X68111904Y-92349880D01*
X67826190Y-92349880D01*
X67730952Y-92397500D01*
X67683333Y-92445119D01*
X67635714Y-92540357D01*
X67635714Y-92683214D01*
X67683333Y-92778452D01*
X67730952Y-92826071D01*
X67826190Y-92873690D01*
X68111904Y-92873690D01*
X68207142Y-92826071D01*
X68254761Y-92778452D01*
X68302380Y-92683214D01*
X68302380Y-92540357D01*
X67635714Y-93302261D02*
X68635714Y-93302261D01*
X67683333Y-93302261D02*
X67635714Y-93397500D01*
X67635714Y-93587976D01*
X67683333Y-93683214D01*
X67730952Y-93730833D01*
X67826190Y-93778452D01*
X68111904Y-93778452D01*
X68207142Y-93730833D01*
X68254761Y-93683214D01*
X68302380Y-93587976D01*
X68302380Y-93397500D01*
X68254761Y-93302261D01*
X67635714Y-94064166D02*
X67635714Y-94445119D01*
X67302380Y-94207023D02*
X68159523Y-94207023D01*
X68254761Y-94254642D01*
X68302380Y-94349880D01*
X68302380Y-94445119D01*
X68302380Y-94778452D02*
X67635714Y-94778452D01*
X67302380Y-94778452D02*
X67350000Y-94730833D01*
X67397619Y-94778452D01*
X67350000Y-94826071D01*
X67302380Y-94778452D01*
X67397619Y-94778452D01*
X68254761Y-95683214D02*
X68302380Y-95587976D01*
X68302380Y-95397500D01*
X68254761Y-95302261D01*
X68207142Y-95254642D01*
X68111904Y-95207023D01*
X67826190Y-95207023D01*
X67730952Y-95254642D01*
X67683333Y-95302261D01*
X67635714Y-95397500D01*
X67635714Y-95587976D01*
X67683333Y-95683214D01*
X68302380Y-96540357D02*
X67778571Y-96540357D01*
X67683333Y-96492738D01*
X67635714Y-96397500D01*
X67635714Y-96207023D01*
X67683333Y-96111785D01*
X68254761Y-96540357D02*
X68302380Y-96445119D01*
X68302380Y-96207023D01*
X68254761Y-96111785D01*
X68159523Y-96064166D01*
X68064285Y-96064166D01*
X67969047Y-96111785D01*
X67921428Y-96207023D01*
X67921428Y-96445119D01*
X67873809Y-96540357D01*
X67254761Y-97730833D02*
X68540476Y-96873690D01*
X68302380Y-98540357D02*
X68302380Y-98064166D01*
X67302380Y-98064166D01*
X68397619Y-99540357D02*
X68350000Y-99445119D01*
X68254761Y-99349880D01*
X68111904Y-99207023D01*
X68064285Y-99111785D01*
X68064285Y-99016547D01*
X68302380Y-99064166D02*
X68254761Y-98968928D01*
X68159523Y-98873690D01*
X67969047Y-98826071D01*
X67635714Y-98826071D01*
X67445238Y-98873690D01*
X67350000Y-98968928D01*
X67302380Y-99064166D01*
X67302380Y-99254642D01*
X67350000Y-99349880D01*
X67445238Y-99445119D01*
X67635714Y-99492738D01*
X67969047Y-99492738D01*
X68159523Y-99445119D01*
X68254761Y-99349880D01*
X68302380Y-99254642D01*
X68302380Y-99064166D01*
X67302380Y-100111785D02*
X67302380Y-100302261D01*
X67350000Y-100397500D01*
X67445238Y-100492738D01*
X67635714Y-100540357D01*
X67969047Y-100540357D01*
X68159523Y-100492738D01*
X68254761Y-100397500D01*
X68302380Y-100302261D01*
X68302380Y-100111785D01*
X68254761Y-100016547D01*
X68159523Y-99921309D01*
X67969047Y-99873690D01*
X67635714Y-99873690D01*
X67445238Y-99921309D01*
X67350000Y-100016547D01*
X67302380Y-100111785D01*
X68207142Y-100968928D02*
X68254761Y-101016547D01*
X68302380Y-100968928D01*
X68254761Y-100921309D01*
X68207142Y-100968928D01*
X68302380Y-100968928D01*
X67683333Y-100968928D02*
X67730952Y-101016547D01*
X67778571Y-100968928D01*
X67730952Y-100921309D01*
X67683333Y-100968928D01*
X67778571Y-100968928D01*
X67302380Y-102492738D02*
X68016666Y-102492738D01*
X68159523Y-102445119D01*
X68254761Y-102349880D01*
X68302380Y-102207023D01*
X68302380Y-102111785D01*
X68302380Y-102968928D02*
X67302380Y-102968928D01*
X67302380Y-103349880D01*
X67350000Y-103445119D01*
X67397619Y-103492738D01*
X67492857Y-103540357D01*
X67635714Y-103540357D01*
X67730952Y-103492738D01*
X67778571Y-103445119D01*
X67826190Y-103349880D01*
X67826190Y-102968928D01*
X68302380Y-104492738D02*
X68302380Y-103921309D01*
X68302380Y-104207023D02*
X67302380Y-104207023D01*
X67445238Y-104111785D01*
X67540476Y-104016547D01*
X67588095Y-103921309D01*
X68254761Y-104968928D02*
X68302380Y-104968928D01*
X68397619Y-104921309D01*
X68445238Y-104873690D01*
X67302380Y-105683214D02*
X68016666Y-105683214D01*
X68159523Y-105635595D01*
X68254761Y-105540357D01*
X68302380Y-105397500D01*
X68302380Y-105302261D01*
X68302380Y-106159404D02*
X67302380Y-106159404D01*
X67302380Y-106540357D01*
X67350000Y-106635595D01*
X67397619Y-106683214D01*
X67492857Y-106730833D01*
X67635714Y-106730833D01*
X67730952Y-106683214D01*
X67778571Y-106635595D01*
X67826190Y-106540357D01*
X67826190Y-106159404D01*
X67397619Y-107111785D02*
X67350000Y-107159404D01*
X67302380Y-107254642D01*
X67302380Y-107492738D01*
X67350000Y-107587976D01*
X67397619Y-107635595D01*
X67492857Y-107683214D01*
X67588095Y-107683214D01*
X67730952Y-107635595D01*
X68302380Y-107064166D01*
X68302380Y-107683214D01*
X68254761Y-109302261D02*
X68302380Y-109207023D01*
X68302380Y-109016547D01*
X68254761Y-108921309D01*
X68207142Y-108873690D01*
X68111904Y-108826071D01*
X67826190Y-108826071D01*
X67730952Y-108873690D01*
X67683333Y-108921309D01*
X67635714Y-109016547D01*
X67635714Y-109207023D01*
X67683333Y-109302261D01*
X68302380Y-109873690D02*
X68254761Y-109778452D01*
X68159523Y-109730833D01*
X67302380Y-109730833D01*
X68302380Y-110397500D02*
X68254761Y-110302261D01*
X68207142Y-110254642D01*
X68111904Y-110207023D01*
X67826190Y-110207023D01*
X67730952Y-110254642D01*
X67683333Y-110302261D01*
X67635714Y-110397500D01*
X67635714Y-110540357D01*
X67683333Y-110635595D01*
X67730952Y-110683214D01*
X67826190Y-110730833D01*
X68111904Y-110730833D01*
X68207142Y-110683214D01*
X68254761Y-110635595D01*
X68302380Y-110540357D01*
X68302380Y-110397500D01*
X68254761Y-111111785D02*
X68302380Y-111207023D01*
X68302380Y-111397500D01*
X68254761Y-111492738D01*
X68159523Y-111540357D01*
X68111904Y-111540357D01*
X68016666Y-111492738D01*
X67969047Y-111397500D01*
X67969047Y-111254642D01*
X67921428Y-111159404D01*
X67826190Y-111111785D01*
X67778571Y-111111785D01*
X67683333Y-111159404D01*
X67635714Y-111254642D01*
X67635714Y-111397500D01*
X67683333Y-111492738D01*
X68254761Y-112349880D02*
X68302380Y-112254642D01*
X68302380Y-112064166D01*
X68254761Y-111968928D01*
X68159523Y-111921309D01*
X67778571Y-111921309D01*
X67683333Y-111968928D01*
X67635714Y-112064166D01*
X67635714Y-112254642D01*
X67683333Y-112349880D01*
X67778571Y-112397500D01*
X67873809Y-112397500D01*
X67969047Y-111921309D01*
X68302380Y-113254642D02*
X67302380Y-113254642D01*
X68254761Y-113254642D02*
X68302380Y-113159404D01*
X68302380Y-112968928D01*
X68254761Y-112873690D01*
X68207142Y-112826071D01*
X68111904Y-112778452D01*
X67826190Y-112778452D01*
X67730952Y-112826071D01*
X67683333Y-112873690D01*
X67635714Y-112968928D01*
X67635714Y-113159404D01*
X67683333Y-113254642D01*
X68254761Y-113778452D02*
X68302380Y-113778452D01*
X68397619Y-113730833D01*
X68445238Y-113683214D01*
X67683333Y-113730833D02*
X67730952Y-113778452D01*
X67778571Y-113730833D01*
X67730952Y-113683214D01*
X67683333Y-113730833D01*
X67778571Y-113730833D01*
X67302380Y-115254642D02*
X68016666Y-115254642D01*
X68159523Y-115207023D01*
X68254761Y-115111785D01*
X68302380Y-114968928D01*
X68302380Y-114873690D01*
X68302380Y-115730833D02*
X67302380Y-115730833D01*
X67302380Y-116111785D01*
X67350000Y-116207023D01*
X67397619Y-116254642D01*
X67492857Y-116302261D01*
X67635714Y-116302261D01*
X67730952Y-116254642D01*
X67778571Y-116207023D01*
X67826190Y-116111785D01*
X67826190Y-115730833D01*
X67302380Y-116635595D02*
X67302380Y-117254642D01*
X67683333Y-116921309D01*
X67683333Y-117064166D01*
X67730952Y-117159404D01*
X67778571Y-117207023D01*
X67873809Y-117254642D01*
X68111904Y-117254642D01*
X68207142Y-117207023D01*
X68254761Y-117159404D01*
X68302380Y-117064166D01*
X68302380Y-116778452D01*
X68254761Y-116683214D01*
X68207142Y-116635595D01*
X67921428Y-117683214D02*
X67921428Y-118445119D01*
X67302380Y-119207023D02*
X68016666Y-119207023D01*
X68159523Y-119159404D01*
X68254761Y-119064166D01*
X68302380Y-118921309D01*
X68302380Y-118826071D01*
X68302380Y-119683214D02*
X67302380Y-119683214D01*
X67302380Y-120064166D01*
X67350000Y-120159404D01*
X67397619Y-120207023D01*
X67492857Y-120254642D01*
X67635714Y-120254642D01*
X67730952Y-120207023D01*
X67778571Y-120159404D01*
X67826190Y-120064166D01*
X67826190Y-119683214D01*
X68302380Y-121207023D02*
X68302380Y-120635595D01*
X68302380Y-120921309D02*
X67302380Y-120921309D01*
X67445238Y-120826071D01*
X67540476Y-120730833D01*
X67588095Y-120635595D01*
X67302380Y-122111785D02*
X67302380Y-121635595D01*
X67778571Y-121587976D01*
X67730952Y-121635595D01*
X67683333Y-121730833D01*
X67683333Y-121968928D01*
X67730952Y-122064166D01*
X67778571Y-122111785D01*
X67873809Y-122159404D01*
X68111904Y-122159404D01*
X68207142Y-122111785D01*
X68254761Y-122064166D01*
X68302380Y-121968928D01*
X68302380Y-121730833D01*
X68254761Y-121635595D01*
X68207142Y-121587976D01*
X68302380Y-123492738D02*
X68254761Y-123397500D01*
X68207142Y-123349880D01*
X68111904Y-123302261D01*
X67826190Y-123302261D01*
X67730952Y-123349880D01*
X67683333Y-123397500D01*
X67635714Y-123492738D01*
X67635714Y-123635595D01*
X67683333Y-123730833D01*
X67730952Y-123778452D01*
X67826190Y-123826071D01*
X68111904Y-123826071D01*
X68207142Y-123778452D01*
X68254761Y-123730833D01*
X68302380Y-123635595D01*
X68302380Y-123492738D01*
X67635714Y-124254642D02*
X68635714Y-124254642D01*
X67683333Y-124254642D02*
X67635714Y-124349880D01*
X67635714Y-124540357D01*
X67683333Y-124635595D01*
X67730952Y-124683214D01*
X67826190Y-124730833D01*
X68111904Y-124730833D01*
X68207142Y-124683214D01*
X68254761Y-124635595D01*
X68302380Y-124540357D01*
X68302380Y-124349880D01*
X68254761Y-124254642D01*
X68254761Y-125540357D02*
X68302380Y-125445119D01*
X68302380Y-125254642D01*
X68254761Y-125159404D01*
X68159523Y-125111785D01*
X67778571Y-125111785D01*
X67683333Y-125159404D01*
X67635714Y-125254642D01*
X67635714Y-125445119D01*
X67683333Y-125540357D01*
X67778571Y-125587976D01*
X67873809Y-125587976D01*
X67969047Y-125111785D01*
X67635714Y-126016547D02*
X68302380Y-126016547D01*
X67730952Y-126016547D02*
X67683333Y-126064166D01*
X67635714Y-126159404D01*
X67635714Y-126302261D01*
X67683333Y-126397500D01*
X67778571Y-126445119D01*
X68302380Y-126445119D01*
D11*
X207488571Y-73912857D02*
X205988571Y-73912857D01*
X205988571Y-74270000D01*
X206060000Y-74484285D01*
X206202857Y-74627142D01*
X206345714Y-74698571D01*
X206631428Y-74770000D01*
X206845714Y-74770000D01*
X207131428Y-74698571D01*
X207274285Y-74627142D01*
X207417142Y-74484285D01*
X207488571Y-74270000D01*
X207488571Y-73912857D01*
X207417142Y-75984285D02*
X207488571Y-75841428D01*
X207488571Y-75555714D01*
X207417142Y-75412857D01*
X207274285Y-75341428D01*
X206702857Y-75341428D01*
X206560000Y-75412857D01*
X206488571Y-75555714D01*
X206488571Y-75841428D01*
X206560000Y-75984285D01*
X206702857Y-76055714D01*
X206845714Y-76055714D01*
X206988571Y-75341428D01*
X207417142Y-76627142D02*
X207488571Y-76770000D01*
X207488571Y-77055714D01*
X207417142Y-77198571D01*
X207274285Y-77270000D01*
X207202857Y-77270000D01*
X207060000Y-77198571D01*
X206988571Y-77055714D01*
X206988571Y-76841428D01*
X206917142Y-76698571D01*
X206774285Y-76627142D01*
X206702857Y-76627142D01*
X206560000Y-76698571D01*
X206488571Y-76841428D01*
X206488571Y-77055714D01*
X206560000Y-77198571D01*
X207488571Y-77912857D02*
X206488571Y-77912857D01*
X205988571Y-77912857D02*
X206060000Y-77841428D01*
X206131428Y-77912857D01*
X206060000Y-77984285D01*
X205988571Y-77912857D01*
X206131428Y-77912857D01*
X206488571Y-79270000D02*
X207702857Y-79270000D01*
X207845714Y-79198571D01*
X207917142Y-79127142D01*
X207988571Y-78984285D01*
X207988571Y-78770000D01*
X207917142Y-78627142D01*
X207417142Y-79270000D02*
X207488571Y-79127142D01*
X207488571Y-78841428D01*
X207417142Y-78698571D01*
X207345714Y-78627142D01*
X207202857Y-78555714D01*
X206774285Y-78555714D01*
X206631428Y-78627142D01*
X206560000Y-78698571D01*
X206488571Y-78841428D01*
X206488571Y-79127142D01*
X206560000Y-79270000D01*
X206488571Y-79984285D02*
X207488571Y-79984285D01*
X206631428Y-79984285D02*
X206560000Y-80055714D01*
X206488571Y-80198571D01*
X206488571Y-80412857D01*
X206560000Y-80555714D01*
X206702857Y-80627142D01*
X207488571Y-80627142D01*
X207488571Y-82484285D02*
X205988571Y-82484285D01*
X206560000Y-82484285D02*
X206488571Y-82627142D01*
X206488571Y-82912857D01*
X206560000Y-83055714D01*
X206631428Y-83127142D01*
X206774285Y-83198571D01*
X207202857Y-83198571D01*
X207345714Y-83127142D01*
X207417142Y-83055714D01*
X207488571Y-82912857D01*
X207488571Y-82627142D01*
X207417142Y-82484285D01*
X206488571Y-83698571D02*
X207488571Y-84055714D01*
X206488571Y-84412857D02*
X207488571Y-84055714D01*
X207845714Y-83912857D01*
X207917142Y-83841428D01*
X207988571Y-83698571D01*
X207345714Y-84984285D02*
X207417142Y-85055714D01*
X207488571Y-84984285D01*
X207417142Y-84912857D01*
X207345714Y-84984285D01*
X207488571Y-84984285D01*
X206560000Y-84984285D02*
X206631428Y-85055714D01*
X206702857Y-84984285D01*
X206631428Y-84912857D01*
X206560000Y-84984285D01*
X206702857Y-84984285D01*
X205988571Y-86627142D02*
X205988571Y-87484285D01*
X207488571Y-87055714D02*
X205988571Y-87055714D01*
X207488571Y-87984285D02*
X206488571Y-87984285D01*
X205988571Y-87984285D02*
X206060000Y-87912857D01*
X206131428Y-87984285D01*
X206060000Y-88055714D01*
X205988571Y-87984285D01*
X206131428Y-87984285D01*
X207488571Y-88912857D02*
X207417142Y-88770000D01*
X207274285Y-88698571D01*
X205988571Y-88698571D01*
X207488571Y-89484285D02*
X206488571Y-89484285D01*
X206631428Y-89484285D02*
X206560000Y-89555714D01*
X206488571Y-89698571D01*
X206488571Y-89912857D01*
X206560000Y-90055714D01*
X206702857Y-90127142D01*
X207488571Y-90127142D01*
X206702857Y-90127142D02*
X206560000Y-90198571D01*
X206488571Y-90341428D01*
X206488571Y-90555714D01*
X206560000Y-90698571D01*
X206702857Y-90770000D01*
X207488571Y-90770000D01*
X207488571Y-92127142D02*
X206702857Y-92127142D01*
X206560000Y-92055714D01*
X206488571Y-91912857D01*
X206488571Y-91627142D01*
X206560000Y-91484285D01*
X207417142Y-92127142D02*
X207488571Y-91984285D01*
X207488571Y-91627142D01*
X207417142Y-91484285D01*
X207274285Y-91412857D01*
X207131428Y-91412857D01*
X206988571Y-91484285D01*
X206917142Y-91627142D01*
X206917142Y-91984285D01*
X206845714Y-92127142D01*
X206488571Y-92841428D02*
X207488571Y-92841428D01*
X206631428Y-92841428D02*
X206560000Y-92912857D01*
X206488571Y-93055714D01*
X206488571Y-93270000D01*
X206560000Y-93412857D01*
X206702857Y-93484285D01*
X207488571Y-93484285D01*
X207488571Y-95341428D02*
X205988571Y-95341428D01*
X205988571Y-95912857D01*
X206060000Y-96055714D01*
X206131428Y-96127142D01*
X206274285Y-96198571D01*
X206488571Y-96198571D01*
X206631428Y-96127142D01*
X206702857Y-96055714D01*
X206774285Y-95912857D01*
X206774285Y-95341428D01*
X207488571Y-96841428D02*
X206488571Y-96841428D01*
X206774285Y-96841428D02*
X206631428Y-96912857D01*
X206560000Y-96984285D01*
X206488571Y-97127142D01*
X206488571Y-97270000D01*
X207417142Y-98341428D02*
X207488571Y-98198571D01*
X207488571Y-97912857D01*
X207417142Y-97770000D01*
X207274285Y-97698571D01*
X206702857Y-97698571D01*
X206560000Y-97770000D01*
X206488571Y-97912857D01*
X206488571Y-98198571D01*
X206560000Y-98341428D01*
X206702857Y-98412857D01*
X206845714Y-98412857D01*
X206988571Y-97698571D01*
X206488571Y-99698571D02*
X207488571Y-99698571D01*
X206488571Y-99055714D02*
X207274285Y-99055714D01*
X207417142Y-99127142D01*
X207488571Y-99270000D01*
X207488571Y-99484285D01*
X207417142Y-99627142D01*
X207345714Y-99698571D01*
X207417142Y-100341428D02*
X207488571Y-100484285D01*
X207488571Y-100770000D01*
X207417142Y-100912857D01*
X207274285Y-100984285D01*
X207202857Y-100984285D01*
X207060000Y-100912857D01*
X206988571Y-100770000D01*
X206988571Y-100555714D01*
X206917142Y-100412857D01*
X206774285Y-100341428D01*
X206702857Y-100341428D01*
X206560000Y-100412857D01*
X206488571Y-100555714D01*
X206488571Y-100770000D01*
X206560000Y-100912857D01*
X207417142Y-102270000D02*
X207488571Y-102127142D01*
X207488571Y-101841428D01*
X207417142Y-101698571D01*
X207345714Y-101627142D01*
X207202857Y-101555714D01*
X206774285Y-101555714D01*
X206631428Y-101627142D01*
X206560000Y-101698571D01*
X206488571Y-101841428D01*
X206488571Y-102127142D01*
X206560000Y-102270000D01*
X207488571Y-102912857D02*
X205988571Y-102912857D01*
X207488571Y-103555714D02*
X206702857Y-103555714D01*
X206560000Y-103484285D01*
X206488571Y-103341428D01*
X206488571Y-103127142D01*
X206560000Y-102984285D01*
X206631428Y-102912857D01*
X207488571Y-104484285D02*
X207417142Y-104341428D01*
X207345714Y-104270000D01*
X207202857Y-104198571D01*
X206774285Y-104198571D01*
X206631428Y-104270000D01*
X206560000Y-104341428D01*
X206488571Y-104484285D01*
X206488571Y-104698571D01*
X206560000Y-104841428D01*
X206631428Y-104912857D01*
X206774285Y-104984285D01*
X207202857Y-104984285D01*
X207345714Y-104912857D01*
X207417142Y-104841428D01*
X207488571Y-104698571D01*
X207488571Y-104484285D01*
X206488571Y-105412857D02*
X206488571Y-105984285D01*
X207488571Y-105627142D02*
X206202857Y-105627142D01*
X206060000Y-105698571D01*
X205988571Y-105841428D01*
X205988571Y-105984285D01*
X206488571Y-106270000D02*
X206488571Y-106841428D01*
X207488571Y-106484285D02*
X206202857Y-106484285D01*
X206060000Y-106555714D01*
X205988571Y-106698571D01*
X205988571Y-106841428D01*
D12*
G36*
X203460018Y-111276964D02*
G01*
X203761570Y-111333812D01*
X203934512Y-111753338D01*
X203763395Y-112004984D01*
X203715750Y-112075458D01*
X203673210Y-112139163D01*
X203637715Y-112193126D01*
X203611210Y-112234373D01*
X203595636Y-112259934D01*
X203592278Y-112266895D01*
X203600914Y-112279435D01*
X203624792Y-112306231D01*
X203660859Y-112344280D01*
X203706067Y-112390579D01*
X203757364Y-112442123D01*
X203811701Y-112495909D01*
X203866028Y-112548935D01*
X203917295Y-112598195D01*
X203962451Y-112640687D01*
X203998446Y-112673407D01*
X204022230Y-112693351D01*
X204030190Y-112698119D01*
X204044865Y-112691257D01*
X204077014Y-112672020D01*
X204123492Y-112642430D01*
X204181156Y-112604510D01*
X204246860Y-112560282D01*
X204284336Y-112534654D01*
X204352768Y-112487941D01*
X204414520Y-112446432D01*
X204466519Y-112412140D01*
X204505692Y-112387080D01*
X204528965Y-112373264D01*
X204533855Y-112371188D01*
X204547755Y-112375895D01*
X204580150Y-112388723D01*
X204626485Y-112407738D01*
X204682206Y-112431003D01*
X204742758Y-112456584D01*
X204803586Y-112482545D01*
X204860136Y-112506950D01*
X204907852Y-112527863D01*
X204942181Y-112543349D01*
X204958568Y-112551472D01*
X204959212Y-112551952D01*
X204962341Y-112564707D01*
X204969321Y-112598677D01*
X204979467Y-112650340D01*
X204992092Y-112716176D01*
X205006509Y-112792664D01*
X205014823Y-112837290D01*
X205030384Y-112919021D01*
X205045192Y-112992843D01*
X205058436Y-113055021D01*
X205069305Y-113101822D01*
X205076989Y-113129509D01*
X205079427Y-113135074D01*
X205095930Y-113140526D01*
X205133200Y-113144924D01*
X205186880Y-113148272D01*
X205252612Y-113150574D01*
X205326037Y-113151832D01*
X205402796Y-113152048D01*
X205478532Y-113151227D01*
X205548886Y-113149371D01*
X205609500Y-113146482D01*
X205656016Y-113142565D01*
X205684075Y-113137622D01*
X205689916Y-113134657D01*
X205696917Y-113116934D01*
X205706927Y-113079381D01*
X205718769Y-113026964D01*
X205731267Y-112964652D01*
X205735310Y-112942900D01*
X205754520Y-112838024D01*
X205769991Y-112755180D01*
X205782337Y-112691630D01*
X205792173Y-112644637D01*
X205800114Y-112611463D01*
X205806776Y-112589371D01*
X205812773Y-112575624D01*
X205818719Y-112567484D01*
X205819894Y-112566345D01*
X205838826Y-112554977D01*
X205875669Y-112537635D01*
X205925913Y-112516050D01*
X205985046Y-112491954D01*
X206048556Y-112467079D01*
X206111932Y-112443157D01*
X206170662Y-112421919D01*
X206220235Y-112405097D01*
X206256139Y-112394422D01*
X206273862Y-112391627D01*
X206274483Y-112391860D01*
X206288970Y-112401331D01*
X206320844Y-112422818D01*
X206366789Y-112454063D01*
X206423485Y-112492807D01*
X206487617Y-112536793D01*
X206505842Y-112549319D01*
X206571914Y-112593984D01*
X206632200Y-112633288D01*
X206683235Y-112665088D01*
X206721560Y-112687245D01*
X206743711Y-112697617D01*
X206746432Y-112698119D01*
X206760736Y-112689405D01*
X206789072Y-112665325D01*
X206828396Y-112628976D01*
X206875661Y-112583453D01*
X206927823Y-112531852D01*
X206981835Y-112477267D01*
X207034653Y-112422794D01*
X207083231Y-112371529D01*
X207124523Y-112326567D01*
X207155485Y-112291004D01*
X207173070Y-112267935D01*
X207175941Y-112261554D01*
X207169178Y-112246699D01*
X207150939Y-112216286D01*
X207124297Y-112175268D01*
X207102852Y-112143709D01*
X207063503Y-112086525D01*
X207017171Y-112018806D01*
X206970913Y-111950880D01*
X206946155Y-111914361D01*
X206862547Y-111790752D01*
X206918650Y-111686991D01*
X206943228Y-111639720D01*
X206962331Y-111599523D01*
X206973227Y-111572326D01*
X206974743Y-111565402D01*
X206963549Y-111557077D01*
X206931917Y-111540654D01*
X206882765Y-111517357D01*
X206819010Y-111488414D01*
X206743571Y-111455050D01*
X206659364Y-111418491D01*
X206569308Y-111379964D01*
X206476321Y-111340694D01*
X206383320Y-111301908D01*
X206293223Y-111264830D01*
X206208948Y-111230689D01*
X206133413Y-111200708D01*
X206069534Y-111176116D01*
X206020231Y-111158136D01*
X205988421Y-111147997D01*
X205977496Y-111146366D01*
X205963561Y-111159291D01*
X205940940Y-111187589D01*
X205914333Y-111225346D01*
X205912228Y-111228515D01*
X205834114Y-111326100D01*
X205742982Y-111404786D01*
X205641745Y-111463891D01*
X205533318Y-111502732D01*
X205420614Y-111520628D01*
X205306548Y-111516897D01*
X205194034Y-111490857D01*
X205085985Y-111441825D01*
X205062345Y-111427400D01*
X204966887Y-111352369D01*
X204890232Y-111263730D01*
X204832780Y-111164549D01*
X204794929Y-111057895D01*
X204777078Y-110946836D01*
X204779625Y-110834439D01*
X204802970Y-110723773D01*
X204847510Y-110617906D01*
X204913645Y-110519905D01*
X204940487Y-110489590D01*
X205024512Y-110412438D01*
X205112966Y-110356218D01*
X205212115Y-110317653D01*
X205310303Y-110296174D01*
X205420697Y-110290872D01*
X205531640Y-110308552D01*
X205639381Y-110347419D01*
X205740169Y-110405677D01*
X205830256Y-110481531D01*
X205905892Y-110573183D01*
X205913864Y-110585228D01*
X205939974Y-110623389D01*
X205962595Y-110652399D01*
X205977039Y-110666268D01*
X205977496Y-110666469D01*
X205993121Y-110663492D01*
X206028582Y-110651689D01*
X206080962Y-110632286D01*
X206147345Y-110606512D01*
X206224814Y-110575591D01*
X206310450Y-110540751D01*
X206401337Y-110503217D01*
X206494559Y-110464217D01*
X206587197Y-110424977D01*
X206676335Y-110386724D01*
X206759055Y-110350683D01*
X206832441Y-110318083D01*
X206893575Y-110290148D01*
X206939541Y-110268105D01*
X206967421Y-110253182D01*
X206974743Y-110247172D01*
X206969041Y-110228809D01*
X206953749Y-110194448D01*
X206931599Y-110150016D01*
X206918650Y-110125583D01*
X206862547Y-110021822D01*
X206946155Y-109898213D01*
X206988987Y-109835114D01*
X207036122Y-109766030D01*
X207080503Y-109701293D01*
X207102852Y-109668866D01*
X207133477Y-109623259D01*
X207157747Y-109584640D01*
X207172587Y-109558048D01*
X207175724Y-109549410D01*
X207167261Y-109536839D01*
X207143636Y-109509016D01*
X207107302Y-109468639D01*
X207060711Y-109418405D01*
X207006317Y-109361012D01*
X206971392Y-109324714D01*
X206908996Y-109261210D01*
X206853188Y-109206327D01*
X206806354Y-109162286D01*
X206770882Y-109131305D01*
X206749161Y-109115602D01*
X206744752Y-109114095D01*
X206727985Y-109121086D01*
X206694082Y-109140406D01*
X206646476Y-109169909D01*
X206588599Y-109207455D01*
X206523884Y-109250900D01*
X206505842Y-109263255D01*
X206440267Y-109308273D01*
X206381228Y-109348660D01*
X206332042Y-109382160D01*
X206296028Y-109406514D01*
X206276502Y-109419464D01*
X206274483Y-109420715D01*
X206258922Y-109418844D01*
X206224709Y-109408913D01*
X206176355Y-109392653D01*
X206118371Y-109371795D01*
X206055270Y-109348073D01*
X205991563Y-109323216D01*
X205931761Y-109298958D01*
X205880376Y-109277029D01*
X205841919Y-109259162D01*
X205820902Y-109247087D01*
X205819894Y-109246229D01*
X205813888Y-109238846D01*
X205807948Y-109226375D01*
X205801460Y-109206080D01*
X205793809Y-109175222D01*
X205784380Y-109131066D01*
X205772559Y-109070874D01*
X205757729Y-108991907D01*
X205739277Y-108891430D01*
X205735310Y-108869675D01*
X205722853Y-108805198D01*
X205710666Y-108748989D01*
X205699926Y-108706013D01*
X205691809Y-108681240D01*
X205689916Y-108677918D01*
X205673138Y-108672444D01*
X205635645Y-108667994D01*
X205581794Y-108664572D01*
X205515944Y-108662181D01*
X205442453Y-108660823D01*
X205365680Y-108660501D01*
X205289983Y-108661219D01*
X205219720Y-108662979D01*
X205159250Y-108665784D01*
X205112930Y-108669638D01*
X205085119Y-108674543D01*
X205079427Y-108677500D01*
X205073686Y-108693963D01*
X205064345Y-108731449D01*
X205052215Y-108786225D01*
X205038107Y-108854555D01*
X205022830Y-108932706D01*
X205014823Y-108975284D01*
X204999721Y-109056071D01*
X204986040Y-109128113D01*
X204974467Y-109187889D01*
X204965687Y-109231879D01*
X204960387Y-109256561D01*
X204959212Y-109260623D01*
X204945965Y-109267489D01*
X204914057Y-109282002D01*
X204868047Y-109302229D01*
X204812492Y-109326234D01*
X204751953Y-109352082D01*
X204690986Y-109377840D01*
X204634151Y-109401573D01*
X204586006Y-109421346D01*
X204551110Y-109435224D01*
X204534021Y-109441274D01*
X204533274Y-109441386D01*
X204519793Y-109434528D01*
X204488770Y-109415302D01*
X204443289Y-109385728D01*
X204386432Y-109347827D01*
X204321283Y-109303620D01*
X204283862Y-109277921D01*
X204215247Y-109231093D01*
X204152952Y-109189501D01*
X204100129Y-109155175D01*
X204059927Y-109130143D01*
X204035500Y-109116435D01*
X204030024Y-109114456D01*
X204017278Y-109122966D01*
X203990063Y-109146493D01*
X203951428Y-109182032D01*
X203904423Y-109226577D01*
X203852095Y-109277123D01*
X203797495Y-109330664D01*
X203743670Y-109384195D01*
X203693670Y-109434711D01*
X203650543Y-109479206D01*
X203617339Y-109514675D01*
X203597106Y-109538113D01*
X203592278Y-109545954D01*
X203599067Y-109558720D01*
X203618142Y-109589256D01*
X203647561Y-109634590D01*
X203685381Y-109691756D01*
X203729661Y-109757784D01*
X203763395Y-109807590D01*
X203934512Y-110059236D01*
X203848041Y-110268999D01*
X203761570Y-110478763D01*
X203460018Y-110535611D01*
X203158466Y-110592460D01*
X203158466Y-111220115D01*
X203460018Y-111276964D01*
G37*
X203460018Y-111276964D02*
X203761570Y-111333812D01*
X203934512Y-111753338D01*
X203763395Y-112004984D01*
X203715750Y-112075458D01*
X203673210Y-112139163D01*
X203637715Y-112193126D01*
X203611210Y-112234373D01*
X203595636Y-112259934D01*
X203592278Y-112266895D01*
X203600914Y-112279435D01*
X203624792Y-112306231D01*
X203660859Y-112344280D01*
X203706067Y-112390579D01*
X203757364Y-112442123D01*
X203811701Y-112495909D01*
X203866028Y-112548935D01*
X203917295Y-112598195D01*
X203962451Y-112640687D01*
X203998446Y-112673407D01*
X204022230Y-112693351D01*
X204030190Y-112698119D01*
X204044865Y-112691257D01*
X204077014Y-112672020D01*
X204123492Y-112642430D01*
X204181156Y-112604510D01*
X204246860Y-112560282D01*
X204284336Y-112534654D01*
X204352768Y-112487941D01*
X204414520Y-112446432D01*
X204466519Y-112412140D01*
X204505692Y-112387080D01*
X204528965Y-112373264D01*
X204533855Y-112371188D01*
X204547755Y-112375895D01*
X204580150Y-112388723D01*
X204626485Y-112407738D01*
X204682206Y-112431003D01*
X204742758Y-112456584D01*
X204803586Y-112482545D01*
X204860136Y-112506950D01*
X204907852Y-112527863D01*
X204942181Y-112543349D01*
X204958568Y-112551472D01*
X204959212Y-112551952D01*
X204962341Y-112564707D01*
X204969321Y-112598677D01*
X204979467Y-112650340D01*
X204992092Y-112716176D01*
X205006509Y-112792664D01*
X205014823Y-112837290D01*
X205030384Y-112919021D01*
X205045192Y-112992843D01*
X205058436Y-113055021D01*
X205069305Y-113101822D01*
X205076989Y-113129509D01*
X205079427Y-113135074D01*
X205095930Y-113140526D01*
X205133200Y-113144924D01*
X205186880Y-113148272D01*
X205252612Y-113150574D01*
X205326037Y-113151832D01*
X205402796Y-113152048D01*
X205478532Y-113151227D01*
X205548886Y-113149371D01*
X205609500Y-113146482D01*
X205656016Y-113142565D01*
X205684075Y-113137622D01*
X205689916Y-113134657D01*
X205696917Y-113116934D01*
X205706927Y-113079381D01*
X205718769Y-113026964D01*
X205731267Y-112964652D01*
X205735310Y-112942900D01*
X205754520Y-112838024D01*
X205769991Y-112755180D01*
X205782337Y-112691630D01*
X205792173Y-112644637D01*
X205800114Y-112611463D01*
X205806776Y-112589371D01*
X205812773Y-112575624D01*
X205818719Y-112567484D01*
X205819894Y-112566345D01*
X205838826Y-112554977D01*
X205875669Y-112537635D01*
X205925913Y-112516050D01*
X205985046Y-112491954D01*
X206048556Y-112467079D01*
X206111932Y-112443157D01*
X206170662Y-112421919D01*
X206220235Y-112405097D01*
X206256139Y-112394422D01*
X206273862Y-112391627D01*
X206274483Y-112391860D01*
X206288970Y-112401331D01*
X206320844Y-112422818D01*
X206366789Y-112454063D01*
X206423485Y-112492807D01*
X206487617Y-112536793D01*
X206505842Y-112549319D01*
X206571914Y-112593984D01*
X206632200Y-112633288D01*
X206683235Y-112665088D01*
X206721560Y-112687245D01*
X206743711Y-112697617D01*
X206746432Y-112698119D01*
X206760736Y-112689405D01*
X206789072Y-112665325D01*
X206828396Y-112628976D01*
X206875661Y-112583453D01*
X206927823Y-112531852D01*
X206981835Y-112477267D01*
X207034653Y-112422794D01*
X207083231Y-112371529D01*
X207124523Y-112326567D01*
X207155485Y-112291004D01*
X207173070Y-112267935D01*
X207175941Y-112261554D01*
X207169178Y-112246699D01*
X207150939Y-112216286D01*
X207124297Y-112175268D01*
X207102852Y-112143709D01*
X207063503Y-112086525D01*
X207017171Y-112018806D01*
X206970913Y-111950880D01*
X206946155Y-111914361D01*
X206862547Y-111790752D01*
X206918650Y-111686991D01*
X206943228Y-111639720D01*
X206962331Y-111599523D01*
X206973227Y-111572326D01*
X206974743Y-111565402D01*
X206963549Y-111557077D01*
X206931917Y-111540654D01*
X206882765Y-111517357D01*
X206819010Y-111488414D01*
X206743571Y-111455050D01*
X206659364Y-111418491D01*
X206569308Y-111379964D01*
X206476321Y-111340694D01*
X206383320Y-111301908D01*
X206293223Y-111264830D01*
X206208948Y-111230689D01*
X206133413Y-111200708D01*
X206069534Y-111176116D01*
X206020231Y-111158136D01*
X205988421Y-111147997D01*
X205977496Y-111146366D01*
X205963561Y-111159291D01*
X205940940Y-111187589D01*
X205914333Y-111225346D01*
X205912228Y-111228515D01*
X205834114Y-111326100D01*
X205742982Y-111404786D01*
X205641745Y-111463891D01*
X205533318Y-111502732D01*
X205420614Y-111520628D01*
X205306548Y-111516897D01*
X205194034Y-111490857D01*
X205085985Y-111441825D01*
X205062345Y-111427400D01*
X204966887Y-111352369D01*
X204890232Y-111263730D01*
X204832780Y-111164549D01*
X204794929Y-111057895D01*
X204777078Y-110946836D01*
X204779625Y-110834439D01*
X204802970Y-110723773D01*
X204847510Y-110617906D01*
X204913645Y-110519905D01*
X204940487Y-110489590D01*
X205024512Y-110412438D01*
X205112966Y-110356218D01*
X205212115Y-110317653D01*
X205310303Y-110296174D01*
X205420697Y-110290872D01*
X205531640Y-110308552D01*
X205639381Y-110347419D01*
X205740169Y-110405677D01*
X205830256Y-110481531D01*
X205905892Y-110573183D01*
X205913864Y-110585228D01*
X205939974Y-110623389D01*
X205962595Y-110652399D01*
X205977039Y-110666268D01*
X205977496Y-110666469D01*
X205993121Y-110663492D01*
X206028582Y-110651689D01*
X206080962Y-110632286D01*
X206147345Y-110606512D01*
X206224814Y-110575591D01*
X206310450Y-110540751D01*
X206401337Y-110503217D01*
X206494559Y-110464217D01*
X206587197Y-110424977D01*
X206676335Y-110386724D01*
X206759055Y-110350683D01*
X206832441Y-110318083D01*
X206893575Y-110290148D01*
X206939541Y-110268105D01*
X206967421Y-110253182D01*
X206974743Y-110247172D01*
X206969041Y-110228809D01*
X206953749Y-110194448D01*
X206931599Y-110150016D01*
X206918650Y-110125583D01*
X206862547Y-110021822D01*
X206946155Y-109898213D01*
X206988987Y-109835114D01*
X207036122Y-109766030D01*
X207080503Y-109701293D01*
X207102852Y-109668866D01*
X207133477Y-109623259D01*
X207157747Y-109584640D01*
X207172587Y-109558048D01*
X207175724Y-109549410D01*
X207167261Y-109536839D01*
X207143636Y-109509016D01*
X207107302Y-109468639D01*
X207060711Y-109418405D01*
X207006317Y-109361012D01*
X206971392Y-109324714D01*
X206908996Y-109261210D01*
X206853188Y-109206327D01*
X206806354Y-109162286D01*
X206770882Y-109131305D01*
X206749161Y-109115602D01*
X206744752Y-109114095D01*
X206727985Y-109121086D01*
X206694082Y-109140406D01*
X206646476Y-109169909D01*
X206588599Y-109207455D01*
X206523884Y-109250900D01*
X206505842Y-109263255D01*
X206440267Y-109308273D01*
X206381228Y-109348660D01*
X206332042Y-109382160D01*
X206296028Y-109406514D01*
X206276502Y-109419464D01*
X206274483Y-109420715D01*
X206258922Y-109418844D01*
X206224709Y-109408913D01*
X206176355Y-109392653D01*
X206118371Y-109371795D01*
X206055270Y-109348073D01*
X205991563Y-109323216D01*
X205931761Y-109298958D01*
X205880376Y-109277029D01*
X205841919Y-109259162D01*
X205820902Y-109247087D01*
X205819894Y-109246229D01*
X205813888Y-109238846D01*
X205807948Y-109226375D01*
X205801460Y-109206080D01*
X205793809Y-109175222D01*
X205784380Y-109131066D01*
X205772559Y-109070874D01*
X205757729Y-108991907D01*
X205739277Y-108891430D01*
X205735310Y-108869675D01*
X205722853Y-108805198D01*
X205710666Y-108748989D01*
X205699926Y-108706013D01*
X205691809Y-108681240D01*
X205689916Y-108677918D01*
X205673138Y-108672444D01*
X205635645Y-108667994D01*
X205581794Y-108664572D01*
X205515944Y-108662181D01*
X205442453Y-108660823D01*
X205365680Y-108660501D01*
X205289983Y-108661219D01*
X205219720Y-108662979D01*
X205159250Y-108665784D01*
X205112930Y-108669638D01*
X205085119Y-108674543D01*
X205079427Y-108677500D01*
X205073686Y-108693963D01*
X205064345Y-108731449D01*
X205052215Y-108786225D01*
X205038107Y-108854555D01*
X205022830Y-108932706D01*
X205014823Y-108975284D01*
X204999721Y-109056071D01*
X204986040Y-109128113D01*
X204974467Y-109187889D01*
X204965687Y-109231879D01*
X204960387Y-109256561D01*
X204959212Y-109260623D01*
X204945965Y-109267489D01*
X204914057Y-109282002D01*
X204868047Y-109302229D01*
X204812492Y-109326234D01*
X204751953Y-109352082D01*
X204690986Y-109377840D01*
X204634151Y-109401573D01*
X204586006Y-109421346D01*
X204551110Y-109435224D01*
X204534021Y-109441274D01*
X204533274Y-109441386D01*
X204519793Y-109434528D01*
X204488770Y-109415302D01*
X204443289Y-109385728D01*
X204386432Y-109347827D01*
X204321283Y-109303620D01*
X204283862Y-109277921D01*
X204215247Y-109231093D01*
X204152952Y-109189501D01*
X204100129Y-109155175D01*
X204059927Y-109130143D01*
X204035500Y-109116435D01*
X204030024Y-109114456D01*
X204017278Y-109122966D01*
X203990063Y-109146493D01*
X203951428Y-109182032D01*
X203904423Y-109226577D01*
X203852095Y-109277123D01*
X203797495Y-109330664D01*
X203743670Y-109384195D01*
X203693670Y-109434711D01*
X203650543Y-109479206D01*
X203617339Y-109514675D01*
X203597106Y-109538113D01*
X203592278Y-109545954D01*
X203599067Y-109558720D01*
X203618142Y-109589256D01*
X203647561Y-109634590D01*
X203685381Y-109691756D01*
X203729661Y-109757784D01*
X203763395Y-109807590D01*
X203934512Y-110059236D01*
X203848041Y-110268999D01*
X203761570Y-110478763D01*
X203460018Y-110535611D01*
X203158466Y-110592460D01*
X203158466Y-111220115D01*
X203460018Y-111276964D01*
G36*
X207628030Y-112699460D02*
G01*
X207641245Y-112742711D01*
X207657941Y-112770558D01*
X207671145Y-112779629D01*
X207686797Y-112777132D01*
X207711385Y-112760931D01*
X207728800Y-112747232D01*
X207760283Y-112718992D01*
X207773529Y-112697775D01*
X207772664Y-112679688D01*
X207759010Y-112626035D01*
X207759630Y-112586630D01*
X207775104Y-112554632D01*
X207784161Y-112543890D01*
X207816027Y-112509505D01*
X208232179Y-112509505D01*
X208232179Y-112371188D01*
X207628614Y-112371188D01*
X207628614Y-112440347D01*
X207630256Y-112481869D01*
X207636087Y-112503291D01*
X207647461Y-112509502D01*
X207647798Y-112509505D01*
X207659713Y-112512439D01*
X207658159Y-112525704D01*
X207649563Y-112544084D01*
X207633568Y-112582046D01*
X207623945Y-112612872D01*
X207621478Y-112652536D01*
X207628030Y-112699460D01*
G37*
X207628030Y-112699460D02*
X207641245Y-112742711D01*
X207657941Y-112770558D01*
X207671145Y-112779629D01*
X207686797Y-112777132D01*
X207711385Y-112760931D01*
X207728800Y-112747232D01*
X207760283Y-112718992D01*
X207773529Y-112697775D01*
X207772664Y-112679688D01*
X207759010Y-112626035D01*
X207759630Y-112586630D01*
X207775104Y-112554632D01*
X207784161Y-112543890D01*
X207816027Y-112509505D01*
X208232179Y-112509505D01*
X208232179Y-112371188D01*
X207628614Y-112371188D01*
X207628614Y-112440347D01*
X207630256Y-112481869D01*
X207636087Y-112503291D01*
X207647461Y-112509502D01*
X207647798Y-112509505D01*
X207659713Y-112512439D01*
X207658159Y-112525704D01*
X207649563Y-112544084D01*
X207633568Y-112582046D01*
X207623945Y-112612872D01*
X207621478Y-112652536D01*
X207628030Y-112699460D01*
G36*
X207639002Y-110145988D02*
G01*
X207653950Y-110177283D01*
X207675541Y-110207591D01*
X207700391Y-110230682D01*
X207732087Y-110247500D01*
X207774214Y-110258994D01*
X207830358Y-110266109D01*
X207904106Y-110269793D01*
X207999044Y-110270992D01*
X208008985Y-110271011D01*
X208232179Y-110271287D01*
X208232179Y-110132970D01*
X208026418Y-110132970D01*
X207950189Y-110132872D01*
X207894939Y-110132191D01*
X207856501Y-110130349D01*
X207830706Y-110126767D01*
X207813384Y-110120868D01*
X207800368Y-110112073D01*
X207787507Y-110099820D01*
X207759873Y-110056953D01*
X207754745Y-110010157D01*
X207772217Y-109965576D01*
X207785221Y-109950072D01*
X207797447Y-109938690D01*
X207810540Y-109930519D01*
X207828615Y-109925026D01*
X207855787Y-109921680D01*
X207896170Y-109919949D01*
X207953879Y-109919303D01*
X208024132Y-109919208D01*
X208232179Y-109919208D01*
X208232179Y-109780891D01*
X207628614Y-109780891D01*
X207628614Y-109850050D01*
X207630256Y-109891572D01*
X207636087Y-109912994D01*
X207647461Y-109919205D01*
X207647798Y-109919208D01*
X207658938Y-109922090D01*
X207657674Y-109934801D01*
X207645434Y-109960074D01*
X207627424Y-110017395D01*
X207625421Y-110082963D01*
X207639002Y-110145988D01*
G37*
X207639002Y-110145988D02*
X207653950Y-110177283D01*
X207675541Y-110207591D01*
X207700391Y-110230682D01*
X207732087Y-110247500D01*
X207774214Y-110258994D01*
X207830358Y-110266109D01*
X207904106Y-110269793D01*
X207999044Y-110270992D01*
X208008985Y-110271011D01*
X208232179Y-110271287D01*
X208232179Y-110132970D01*
X208026418Y-110132970D01*
X207950189Y-110132872D01*
X207894939Y-110132191D01*
X207856501Y-110130349D01*
X207830706Y-110126767D01*
X207813384Y-110120868D01*
X207800368Y-110112073D01*
X207787507Y-110099820D01*
X207759873Y-110056953D01*
X207754745Y-110010157D01*
X207772217Y-109965576D01*
X207785221Y-109950072D01*
X207797447Y-109938690D01*
X207810540Y-109930519D01*
X207828615Y-109925026D01*
X207855787Y-109921680D01*
X207896170Y-109919949D01*
X207953879Y-109919303D01*
X208024132Y-109919208D01*
X208232179Y-109919208D01*
X208232179Y-109780891D01*
X207628614Y-109780891D01*
X207628614Y-109850050D01*
X207630256Y-109891572D01*
X207636087Y-109912994D01*
X207647461Y-109919205D01*
X207647798Y-109919208D01*
X207658938Y-109922090D01*
X207657674Y-109934801D01*
X207645434Y-109960074D01*
X207627424Y-110017395D01*
X207625421Y-110082963D01*
X207639002Y-110145988D01*
G36*
X207626457Y-113577898D02*
G01*
X207634279Y-113610096D01*
X207662921Y-113671825D01*
X207706667Y-113724610D01*
X207759117Y-113761141D01*
X207770893Y-113766160D01*
X207801740Y-113773045D01*
X207847371Y-113777864D01*
X207893492Y-113779505D01*
X207980693Y-113779505D01*
X207980693Y-113597178D01*
X207980978Y-113521979D01*
X207982704Y-113469003D01*
X207987181Y-113435325D01*
X207995720Y-113418020D01*
X208009630Y-113414163D01*
X208030222Y-113420829D01*
X208054315Y-113432770D01*
X208094525Y-113466080D01*
X208114558Y-113512368D01*
X208113905Y-113568944D01*
X208092101Y-113633031D01*
X208065193Y-113688417D01*
X208101532Y-113734375D01*
X208137872Y-113780333D01*
X208177819Y-113737096D01*
X208215563Y-113679374D01*
X208238320Y-113608386D01*
X208244688Y-113532029D01*
X208233268Y-113458199D01*
X208229393Y-113446287D01*
X208195506Y-113381399D01*
X208144986Y-113333130D01*
X208076325Y-113300465D01*
X207988014Y-113282385D01*
X207986121Y-113282175D01*
X207889878Y-113280556D01*
X207855542Y-113287100D01*
X207855542Y-113414852D01*
X207860822Y-113426584D01*
X207864867Y-113458438D01*
X207867176Y-113505397D01*
X207867525Y-113535154D01*
X207867306Y-113590648D01*
X207865916Y-113625346D01*
X207862251Y-113643601D01*
X207855210Y-113649766D01*
X207843690Y-113648195D01*
X207839233Y-113646878D01*
X207797355Y-113624382D01*
X207763604Y-113589003D01*
X207748773Y-113557780D01*
X207749668Y-113516301D01*
X207768164Y-113474269D01*
X207798786Y-113439012D01*
X207836062Y-113417854D01*
X207855542Y-113414852D01*
X207855542Y-113287100D01*
X207805229Y-113296690D01*
X207734191Y-113328698D01*
X207678779Y-113374701D01*
X207641009Y-113432821D01*
X207622896Y-113501180D01*
X207626457Y-113577898D01*
G37*
X207626457Y-113577898D02*
X207634279Y-113610096D01*
X207662921Y-113671825D01*
X207706667Y-113724610D01*
X207759117Y-113761141D01*
X207770893Y-113766160D01*
X207801740Y-113773045D01*
X207847371Y-113777864D01*
X207893492Y-113779505D01*
X207980693Y-113779505D01*
X207980693Y-113597178D01*
X207980978Y-113521979D01*
X207982704Y-113469003D01*
X207987181Y-113435325D01*
X207995720Y-113418020D01*
X208009630Y-113414163D01*
X208030222Y-113420829D01*
X208054315Y-113432770D01*
X208094525Y-113466080D01*
X208114558Y-113512368D01*
X208113905Y-113568944D01*
X208092101Y-113633031D01*
X208065193Y-113688417D01*
X208101532Y-113734375D01*
X208137872Y-113780333D01*
X208177819Y-113737096D01*
X208215563Y-113679374D01*
X208238320Y-113608386D01*
X208244688Y-113532029D01*
X208233268Y-113458199D01*
X208229393Y-113446287D01*
X208195506Y-113381399D01*
X208144986Y-113333130D01*
X208076325Y-113300465D01*
X207988014Y-113282385D01*
X207986121Y-113282175D01*
X207889878Y-113280556D01*
X207855542Y-113287100D01*
X207855542Y-113414852D01*
X207860822Y-113426584D01*
X207864867Y-113458438D01*
X207867176Y-113505397D01*
X207867525Y-113535154D01*
X207867306Y-113590648D01*
X207865916Y-113625346D01*
X207862251Y-113643601D01*
X207855210Y-113649766D01*
X207843690Y-113648195D01*
X207839233Y-113646878D01*
X207797355Y-113624382D01*
X207763604Y-113589003D01*
X207748773Y-113557780D01*
X207749668Y-113516301D01*
X207768164Y-113474269D01*
X207798786Y-113439012D01*
X207836062Y-113417854D01*
X207855542Y-113414852D01*
X207855542Y-113287100D01*
X207805229Y-113296690D01*
X207734191Y-113328698D01*
X207678779Y-113374701D01*
X207641009Y-113432821D01*
X207622896Y-113501180D01*
X207626457Y-113577898D01*
G36*
X207633880Y-113117226D02*
G01*
X207664830Y-113190080D01*
X207679895Y-113213027D01*
X207703048Y-113242354D01*
X207721253Y-113260764D01*
X207727183Y-113263961D01*
X207740340Y-113254935D01*
X207762667Y-113231837D01*
X207778250Y-113213344D01*
X207818926Y-113162728D01*
X207785295Y-113122760D01*
X207763584Y-113091874D01*
X207756090Y-113061759D01*
X207757920Y-113027292D01*
X207771528Y-112972561D01*
X207799772Y-112934886D01*
X207845433Y-112911991D01*
X207911289Y-112901597D01*
X207911331Y-112901595D01*
X207984939Y-112902494D01*
X208038946Y-112916463D01*
X208075716Y-112944328D01*
X208088168Y-112963325D01*
X208103673Y-113013776D01*
X208103683Y-113067663D01*
X208088638Y-113114546D01*
X208081287Y-113125644D01*
X208062511Y-113153476D01*
X208059434Y-113175236D01*
X208073409Y-113198704D01*
X208098510Y-113224649D01*
X208140880Y-113265716D01*
X208178464Y-113220121D01*
X208220882Y-113149674D01*
X208241785Y-113070233D01*
X208240272Y-112987215D01*
X208226411Y-112932694D01*
X208192135Y-112868970D01*
X208138212Y-112818005D01*
X208100149Y-112794851D01*
X208045536Y-112776099D01*
X207976369Y-112766715D01*
X207901407Y-112766643D01*
X207829409Y-112775824D01*
X207769137Y-112794199D01*
X207762958Y-112797093D01*
X207702351Y-112839952D01*
X207658224Y-112897979D01*
X207631493Y-112966591D01*
X207623073Y-113041201D01*
X207633880Y-113117226D01*
G37*
X207633880Y-113117226D02*
X207664830Y-113190080D01*
X207679895Y-113213027D01*
X207703048Y-113242354D01*
X207721253Y-113260764D01*
X207727183Y-113263961D01*
X207740340Y-113254935D01*
X207762667Y-113231837D01*
X207778250Y-113213344D01*
X207818926Y-113162728D01*
X207785295Y-113122760D01*
X207763584Y-113091874D01*
X207756090Y-113061759D01*
X207757920Y-113027292D01*
X207771528Y-112972561D01*
X207799772Y-112934886D01*
X207845433Y-112911991D01*
X207911289Y-112901597D01*
X207911331Y-112901595D01*
X207984939Y-112902494D01*
X208038946Y-112916463D01*
X208075716Y-112944328D01*
X208088168Y-112963325D01*
X208103673Y-113013776D01*
X208103683Y-113067663D01*
X208088638Y-113114546D01*
X208081287Y-113125644D01*
X208062511Y-113153476D01*
X208059434Y-113175236D01*
X208073409Y-113198704D01*
X208098510Y-113224649D01*
X208140880Y-113265716D01*
X208178464Y-113220121D01*
X208220882Y-113149674D01*
X208241785Y-113070233D01*
X208240272Y-112987215D01*
X208226411Y-112932694D01*
X208192135Y-112868970D01*
X208138212Y-112818005D01*
X208100149Y-112794851D01*
X208045536Y-112776099D01*
X207976369Y-112766715D01*
X207901407Y-112766643D01*
X207829409Y-112775824D01*
X207769137Y-112794199D01*
X207762958Y-112797093D01*
X207702351Y-112839952D01*
X207658224Y-112897979D01*
X207631493Y-112966591D01*
X207623073Y-113041201D01*
X207633880Y-113117226D01*
G36*
X207824342Y-111893367D02*
G01*
X207916563Y-111894555D01*
X207986610Y-111898897D01*
X208037381Y-111907558D01*
X208071772Y-111921704D01*
X208092679Y-111942500D01*
X208103000Y-111971110D01*
X208105636Y-112006535D01*
X208102682Y-112043636D01*
X208091889Y-112071818D01*
X208070360Y-112092243D01*
X208035199Y-112106079D01*
X207983510Y-112114491D01*
X207912394Y-112118643D01*
X207824342Y-112119703D01*
X207628614Y-112119703D01*
X207628614Y-112258020D01*
X208232179Y-112258020D01*
X208232179Y-112188862D01*
X208230489Y-112147170D01*
X208224556Y-112125701D01*
X208213293Y-112119703D01*
X208203261Y-112116091D01*
X208205383Y-112101714D01*
X208219580Y-112072736D01*
X208241480Y-112006319D01*
X208239928Y-111935875D01*
X208216147Y-111868377D01*
X208197362Y-111836233D01*
X208177022Y-111811715D01*
X208151573Y-111793804D01*
X208117458Y-111781479D01*
X208071121Y-111773723D01*
X208009007Y-111769516D01*
X207927561Y-111767840D01*
X207864578Y-111767624D01*
X207628614Y-111767624D01*
X207628614Y-111893367D01*
X207824342Y-111893367D01*
G37*
X207824342Y-111893367D02*
X207916563Y-111894555D01*
X207986610Y-111898897D01*
X208037381Y-111907558D01*
X208071772Y-111921704D01*
X208092679Y-111942500D01*
X208103000Y-111971110D01*
X208105636Y-112006535D01*
X208102682Y-112043636D01*
X208091889Y-112071818D01*
X208070360Y-112092243D01*
X208035199Y-112106079D01*
X207983510Y-112114491D01*
X207912394Y-112118643D01*
X207824342Y-112119703D01*
X207628614Y-112119703D01*
X207628614Y-112258020D01*
X208232179Y-112258020D01*
X208232179Y-112188862D01*
X208230489Y-112147170D01*
X208224556Y-112125701D01*
X208213293Y-112119703D01*
X208203261Y-112116091D01*
X208205383Y-112101714D01*
X208219580Y-112072736D01*
X208241480Y-112006319D01*
X208239928Y-111935875D01*
X208216147Y-111868377D01*
X208197362Y-111836233D01*
X208177022Y-111811715D01*
X208151573Y-111793804D01*
X208117458Y-111781479D01*
X208071121Y-111773723D01*
X208009007Y-111769516D01*
X207927561Y-111767840D01*
X207864578Y-111767624D01*
X207628614Y-111767624D01*
X207628614Y-111893367D01*
X207824342Y-111893367D01*
G36*
X207636055Y-111510762D02*
G01*
X207670692Y-111574363D01*
X207725372Y-111624123D01*
X207769842Y-111647568D01*
X207809121Y-111657634D01*
X207865116Y-111664156D01*
X207929621Y-111666951D01*
X207994429Y-111665836D01*
X208051334Y-111660626D01*
X208081727Y-111654541D01*
X208123306Y-111634014D01*
X208167468Y-111598463D01*
X208206087Y-111555619D01*
X208231034Y-111513211D01*
X208231430Y-111512177D01*
X208242331Y-111459553D01*
X208242601Y-111397188D01*
X208232676Y-111337924D01*
X208224722Y-111315040D01*
X208191300Y-111256102D01*
X208147511Y-111213890D01*
X208089538Y-111186156D01*
X208013565Y-111170651D01*
X207973771Y-111167143D01*
X207923766Y-111167590D01*
X207923766Y-111302376D01*
X207996732Y-111306917D01*
X208052334Y-111319986D01*
X208087861Y-111340756D01*
X208098020Y-111355552D01*
X208105104Y-111393464D01*
X208103007Y-111438527D01*
X208092812Y-111477487D01*
X208087204Y-111487704D01*
X208054538Y-111514659D01*
X208004545Y-111532451D01*
X207943705Y-111540024D01*
X207878497Y-111536325D01*
X207839253Y-111528057D01*
X207793805Y-111504320D01*
X207765396Y-111466849D01*
X207755573Y-111421720D01*
X207765887Y-111375011D01*
X207791112Y-111339132D01*
X207811925Y-111320277D01*
X207832439Y-111309272D01*
X207860203Y-111304026D01*
X207902762Y-111302449D01*
X207923766Y-111302376D01*
X207923766Y-111167590D01*
X207867580Y-111168094D01*
X207780501Y-111185388D01*
X207712530Y-111219029D01*
X207663664Y-111269018D01*
X207633899Y-111335356D01*
X207630448Y-111349601D01*
X207622345Y-111435210D01*
X207636055Y-111510762D01*
G37*
X207636055Y-111510762D02*
X207670692Y-111574363D01*
X207725372Y-111624123D01*
X207769842Y-111647568D01*
X207809121Y-111657634D01*
X207865116Y-111664156D01*
X207929621Y-111666951D01*
X207994429Y-111665836D01*
X208051334Y-111660626D01*
X208081727Y-111654541D01*
X208123306Y-111634014D01*
X208167468Y-111598463D01*
X208206087Y-111555619D01*
X208231034Y-111513211D01*
X208231430Y-111512177D01*
X208242331Y-111459553D01*
X208242601Y-111397188D01*
X208232676Y-111337924D01*
X208224722Y-111315040D01*
X208191300Y-111256102D01*
X208147511Y-111213890D01*
X208089538Y-111186156D01*
X208013565Y-111170651D01*
X207973771Y-111167143D01*
X207923766Y-111167590D01*
X207923766Y-111302376D01*
X207996732Y-111306917D01*
X208052334Y-111319986D01*
X208087861Y-111340756D01*
X208098020Y-111355552D01*
X208105104Y-111393464D01*
X208103007Y-111438527D01*
X208092812Y-111477487D01*
X208087204Y-111487704D01*
X208054538Y-111514659D01*
X208004545Y-111532451D01*
X207943705Y-111540024D01*
X207878497Y-111536325D01*
X207839253Y-111528057D01*
X207793805Y-111504320D01*
X207765396Y-111466849D01*
X207755573Y-111421720D01*
X207765887Y-111375011D01*
X207791112Y-111339132D01*
X207811925Y-111320277D01*
X207832439Y-111309272D01*
X207860203Y-111304026D01*
X207902762Y-111302449D01*
X207923766Y-111302376D01*
X207923766Y-111167590D01*
X207867580Y-111168094D01*
X207780501Y-111185388D01*
X207712530Y-111219029D01*
X207663664Y-111269018D01*
X207633899Y-111335356D01*
X207630448Y-111349601D01*
X207622345Y-111435210D01*
X207636055Y-111510762D01*
G36*
X207626452Y-110914017D02*
G01*
X207635482Y-110961634D01*
X207654370Y-111011034D01*
X207656777Y-111016312D01*
X207676476Y-111053774D01*
X207694781Y-111079717D01*
X207706508Y-111088103D01*
X207725632Y-111080117D01*
X207753850Y-111060720D01*
X207764384Y-111052110D01*
X207805847Y-111016628D01*
X207778858Y-110970885D01*
X207760878Y-110927350D01*
X207751267Y-110877050D01*
X207750660Y-110828812D01*
X207759691Y-110791467D01*
X207765327Y-110782505D01*
X207791171Y-110765437D01*
X207820941Y-110763363D01*
X207844197Y-110776134D01*
X207848708Y-110783688D01*
X207854309Y-110806325D01*
X207860892Y-110846115D01*
X207867183Y-110895166D01*
X207868170Y-110904215D01*
X207881798Y-110982996D01*
X207904946Y-111040136D01*
X207939752Y-111078030D01*
X207988354Y-111099079D01*
X208047718Y-111105635D01*
X208115198Y-111096577D01*
X208168188Y-111067164D01*
X208206783Y-111017278D01*
X208231081Y-110946800D01*
X208240667Y-110868565D01*
X208240552Y-110804766D01*
X208231845Y-110753016D01*
X208219825Y-110717673D01*
X208198880Y-110673017D01*
X208174574Y-110631747D01*
X208163876Y-110617079D01*
X208133084Y-110579357D01*
X208087049Y-110624852D01*
X208041013Y-110670347D01*
X208075243Y-110722072D01*
X208100952Y-110773952D01*
X208114399Y-110829351D01*
X208115818Y-110882605D01*
X208105443Y-110928049D01*
X208083507Y-110960016D01*
X208064998Y-110970338D01*
X208035314Y-110968789D01*
X208012615Y-110943140D01*
X207996940Y-110893460D01*
X207989695Y-110839031D01*
X207975873Y-110755264D01*
X207949796Y-110693033D01*
X207910699Y-110651507D01*
X207857820Y-110629853D01*
X207795126Y-110626853D01*
X207729642Y-110641671D01*
X207680144Y-110675454D01*
X207646408Y-110728505D01*
X207628207Y-110801126D01*
X207624639Y-110854928D01*
X207626452Y-110914017D01*
G37*
X207626452Y-110914017D02*
X207635482Y-110961634D01*
X207654370Y-111011034D01*
X207656777Y-111016312D01*
X207676476Y-111053774D01*
X207694781Y-111079717D01*
X207706508Y-111088103D01*
X207725632Y-111080117D01*
X207753850Y-111060720D01*
X207764384Y-111052110D01*
X207805847Y-111016628D01*
X207778858Y-110970885D01*
X207760878Y-110927350D01*
X207751267Y-110877050D01*
X207750660Y-110828812D01*
X207759691Y-110791467D01*
X207765327Y-110782505D01*
X207791171Y-110765437D01*
X207820941Y-110763363D01*
X207844197Y-110776134D01*
X207848708Y-110783688D01*
X207854309Y-110806325D01*
X207860892Y-110846115D01*
X207867183Y-110895166D01*
X207868170Y-110904215D01*
X207881798Y-110982996D01*
X207904946Y-111040136D01*
X207939752Y-111078030D01*
X207988354Y-111099079D01*
X208047718Y-111105635D01*
X208115198Y-111096577D01*
X208168188Y-111067164D01*
X208206783Y-111017278D01*
X208231081Y-110946800D01*
X208240667Y-110868565D01*
X208240552Y-110804766D01*
X208231845Y-110753016D01*
X208219825Y-110717673D01*
X208198880Y-110673017D01*
X208174574Y-110631747D01*
X208163876Y-110617079D01*
X208133084Y-110579357D01*
X208087049Y-110624852D01*
X208041013Y-110670347D01*
X208075243Y-110722072D01*
X208100952Y-110773952D01*
X208114399Y-110829351D01*
X208115818Y-110882605D01*
X208105443Y-110928049D01*
X208083507Y-110960016D01*
X208064998Y-110970338D01*
X208035314Y-110968789D01*
X208012615Y-110943140D01*
X207996940Y-110893460D01*
X207989695Y-110839031D01*
X207975873Y-110755264D01*
X207949796Y-110693033D01*
X207910699Y-110651507D01*
X207857820Y-110629853D01*
X207795126Y-110626853D01*
X207729642Y-110641671D01*
X207680144Y-110675454D01*
X207646408Y-110728505D01*
X207628207Y-110801126D01*
X207624639Y-110854928D01*
X207626452Y-110914017D01*
G36*
X207642614Y-109543301D02*
G01*
X207648514Y-109555832D01*
X207680283Y-109599201D01*
X207726646Y-109640210D01*
X207777696Y-109670832D01*
X207801166Y-109679541D01*
X207843091Y-109687488D01*
X207893757Y-109692226D01*
X207914679Y-109692801D01*
X207980693Y-109692871D01*
X207980693Y-109312917D01*
X208015273Y-109321017D01*
X208056170Y-109340896D01*
X208091514Y-109375653D01*
X208114282Y-109417002D01*
X208119010Y-109443351D01*
X208113273Y-109479084D01*
X208098882Y-109521718D01*
X208092262Y-109536201D01*
X208065513Y-109589760D01*
X208100376Y-109635467D01*
X208123955Y-109661842D01*
X208143417Y-109675876D01*
X208149129Y-109676586D01*
X208162973Y-109664049D01*
X208184012Y-109636572D01*
X208200425Y-109611634D01*
X208229930Y-109544336D01*
X208243284Y-109468890D01*
X208239812Y-109394112D01*
X208221663Y-109334505D01*
X208182784Y-109273059D01*
X208131595Y-109229392D01*
X208065367Y-109202074D01*
X207981371Y-109189678D01*
X207942936Y-109188579D01*
X207854861Y-109192978D01*
X207852299Y-109193518D01*
X207852299Y-109319418D01*
X207860558Y-109322885D01*
X207865113Y-109337137D01*
X207867065Y-109366530D01*
X207867517Y-109415425D01*
X207867525Y-109434252D01*
X207866843Y-109491533D01*
X207864364Y-109527859D01*
X207859443Y-109547396D01*
X207851434Y-109554310D01*
X207848862Y-109554555D01*
X207828423Y-109546664D01*
X207799789Y-109526915D01*
X207789763Y-109518425D01*
X207761408Y-109486906D01*
X207750259Y-109454051D01*
X207749327Y-109436349D01*
X207760981Y-109388461D01*
X207792285Y-109348301D01*
X207837752Y-109322827D01*
X207839233Y-109322375D01*
X207852299Y-109319418D01*
X207852299Y-109193518D01*
X207785510Y-109207608D01*
X207730025Y-109233962D01*
X207690639Y-109266193D01*
X207647931Y-109325783D01*
X207625109Y-109395832D01*
X207623046Y-109470339D01*
X207642614Y-109543301D01*
G37*
X207642614Y-109543301D02*
X207648514Y-109555832D01*
X207680283Y-109599201D01*
X207726646Y-109640210D01*
X207777696Y-109670832D01*
X207801166Y-109679541D01*
X207843091Y-109687488D01*
X207893757Y-109692226D01*
X207914679Y-109692801D01*
X207980693Y-109692871D01*
X207980693Y-109312917D01*
X208015273Y-109321017D01*
X208056170Y-109340896D01*
X208091514Y-109375653D01*
X208114282Y-109417002D01*
X208119010Y-109443351D01*
X208113273Y-109479084D01*
X208098882Y-109521718D01*
X208092262Y-109536201D01*
X208065513Y-109589760D01*
X208100376Y-109635467D01*
X208123955Y-109661842D01*
X208143417Y-109675876D01*
X208149129Y-109676586D01*
X208162973Y-109664049D01*
X208184012Y-109636572D01*
X208200425Y-109611634D01*
X208229930Y-109544336D01*
X208243284Y-109468890D01*
X208239812Y-109394112D01*
X208221663Y-109334505D01*
X208182784Y-109273059D01*
X208131595Y-109229392D01*
X208065367Y-109202074D01*
X207981371Y-109189678D01*
X207942936Y-109188579D01*
X207854861Y-109192978D01*
X207852299Y-109193518D01*
X207852299Y-109319418D01*
X207860558Y-109322885D01*
X207865113Y-109337137D01*
X207867065Y-109366530D01*
X207867517Y-109415425D01*
X207867525Y-109434252D01*
X207866843Y-109491533D01*
X207864364Y-109527859D01*
X207859443Y-109547396D01*
X207851434Y-109554310D01*
X207848862Y-109554555D01*
X207828423Y-109546664D01*
X207799789Y-109526915D01*
X207789763Y-109518425D01*
X207761408Y-109486906D01*
X207750259Y-109454051D01*
X207749327Y-109436349D01*
X207760981Y-109388461D01*
X207792285Y-109348301D01*
X207837752Y-109322827D01*
X207839233Y-109322375D01*
X207852299Y-109319418D01*
X207852299Y-109193518D01*
X207785510Y-109207608D01*
X207730025Y-109233962D01*
X207690639Y-109266193D01*
X207647931Y-109325783D01*
X207625109Y-109395832D01*
X207623046Y-109470339D01*
X207642614Y-109543301D01*
G36*
X207635148Y-108361739D02*
G01*
X207664231Y-108427521D01*
X207712793Y-108477460D01*
X207780908Y-108511626D01*
X207868651Y-108530093D01*
X207882351Y-108531417D01*
X207978939Y-108532454D01*
X208063602Y-108519007D01*
X208132221Y-108491892D01*
X208154294Y-108477373D01*
X208201011Y-108426799D01*
X208231268Y-108362391D01*
X208243824Y-108290334D01*
X208237439Y-108216815D01*
X208217772Y-108160928D01*
X208184629Y-108112868D01*
X208141175Y-108073588D01*
X208140158Y-108072908D01*
X208113338Y-108056956D01*
X208086368Y-108046590D01*
X208052332Y-108040312D01*
X208004310Y-108036627D01*
X207964931Y-108035003D01*
X207929219Y-108034328D01*
X207929219Y-108160045D01*
X207964770Y-108161274D01*
X208012094Y-108165734D01*
X208042465Y-108173603D01*
X208064072Y-108187793D01*
X208076694Y-108201083D01*
X208103122Y-108248198D01*
X208106653Y-108297495D01*
X208087639Y-108343407D01*
X208066331Y-108366362D01*
X208044859Y-108382904D01*
X208024313Y-108392579D01*
X207997574Y-108396826D01*
X207957523Y-108397080D01*
X207920638Y-108395772D01*
X207867947Y-108392957D01*
X207833772Y-108388495D01*
X207811480Y-108380452D01*
X207794442Y-108366897D01*
X207784703Y-108356155D01*
X207759123Y-108311223D01*
X207757847Y-108262751D01*
X207772999Y-108222106D01*
X207804642Y-108187433D01*
X207856620Y-108166776D01*
X207929219Y-108160045D01*
X207929219Y-108034328D01*
X207886621Y-108033521D01*
X207828056Y-108036052D01*
X207784007Y-108043638D01*
X207749248Y-108057319D01*
X207718551Y-108078135D01*
X207709436Y-108085853D01*
X207664021Y-108134111D01*
X207637493Y-108185872D01*
X207626379Y-108249172D01*
X207625471Y-108280039D01*
X207635148Y-108361739D01*
G37*
X207635148Y-108361739D02*
X207664231Y-108427521D01*
X207712793Y-108477460D01*
X207780908Y-108511626D01*
X207868651Y-108530093D01*
X207882351Y-108531417D01*
X207978939Y-108532454D01*
X208063602Y-108519007D01*
X208132221Y-108491892D01*
X208154294Y-108477373D01*
X208201011Y-108426799D01*
X208231268Y-108362391D01*
X208243824Y-108290334D01*
X208237439Y-108216815D01*
X208217772Y-108160928D01*
X208184629Y-108112868D01*
X208141175Y-108073588D01*
X208140158Y-108072908D01*
X208113338Y-108056956D01*
X208086368Y-108046590D01*
X208052332Y-108040312D01*
X208004310Y-108036627D01*
X207964931Y-108035003D01*
X207929219Y-108034328D01*
X207929219Y-108160045D01*
X207964770Y-108161274D01*
X208012094Y-108165734D01*
X208042465Y-108173603D01*
X208064072Y-108187793D01*
X208076694Y-108201083D01*
X208103122Y-108248198D01*
X208106653Y-108297495D01*
X208087639Y-108343407D01*
X208066331Y-108366362D01*
X208044859Y-108382904D01*
X208024313Y-108392579D01*
X207997574Y-108396826D01*
X207957523Y-108397080D01*
X207920638Y-108395772D01*
X207867947Y-108392957D01*
X207833772Y-108388495D01*
X207811480Y-108380452D01*
X207794442Y-108366897D01*
X207784703Y-108356155D01*
X207759123Y-108311223D01*
X207757847Y-108262751D01*
X207772999Y-108222106D01*
X207804642Y-108187433D01*
X207856620Y-108166776D01*
X207929219Y-108160045D01*
X207929219Y-108034328D01*
X207886621Y-108033521D01*
X207828056Y-108036052D01*
X207784007Y-108043638D01*
X207749248Y-108057319D01*
X207718551Y-108078135D01*
X207709436Y-108085853D01*
X207664021Y-108134111D01*
X207637493Y-108185872D01*
X207626379Y-108249172D01*
X207625471Y-108280039D01*
X207635148Y-108361739D01*
G36*
X208574970Y-112932581D02*
G01*
X208590597Y-112992685D01*
X208622848Y-113043021D01*
X208646940Y-113067393D01*
X208703895Y-113107345D01*
X208769965Y-113130242D01*
X208851182Y-113138108D01*
X208857748Y-113138148D01*
X208923763Y-113138218D01*
X208923763Y-112758264D01*
X208958342Y-112766363D01*
X208989659Y-112780987D01*
X209022291Y-112806581D01*
X209027500Y-112811935D01*
X209055694Y-112857943D01*
X209060475Y-112910410D01*
X209041926Y-112970803D01*
X209036931Y-112981040D01*
X209021745Y-113012439D01*
X209013094Y-113033470D01*
X209012293Y-113037139D01*
X209020063Y-113049948D01*
X209039072Y-113074378D01*
X209049460Y-113086779D01*
X209073321Y-113112476D01*
X209089077Y-113120915D01*
X209103571Y-113115058D01*
X209107534Y-113111928D01*
X209124879Y-113090725D01*
X209145959Y-113055738D01*
X209158265Y-113031337D01*
X209179946Y-112962072D01*
X209186971Y-112885388D01*
X209178647Y-112812765D01*
X209172686Y-112792426D01*
X209138952Y-112729476D01*
X209087045Y-112682815D01*
X209016459Y-112652173D01*
X208926692Y-112637282D01*
X208879753Y-112635647D01*
X208811413Y-112640421D01*
X208811413Y-112760990D01*
X208816465Y-112772652D01*
X208820429Y-112803998D01*
X208822768Y-112849571D01*
X208823169Y-112880446D01*
X208822783Y-112935981D01*
X208820975Y-112971033D01*
X208816773Y-112990262D01*
X208809203Y-112998330D01*
X208798218Y-112999901D01*
X208764381Y-112989121D01*
X208730940Y-112961980D01*
X208705272Y-112926277D01*
X208694772Y-112890560D01*
X208704086Y-112842048D01*
X208731013Y-112800053D01*
X208769827Y-112770936D01*
X208811413Y-112760990D01*
X208811413Y-112640421D01*
X208780236Y-112642599D01*
X208700949Y-112664055D01*
X208641263Y-112700470D01*
X208600549Y-112752297D01*
X208578179Y-112819990D01*
X208573871Y-112856662D01*
X208574970Y-112932581D01*
G37*
X208574970Y-112932581D02*
X208590597Y-112992685D01*
X208622848Y-113043021D01*
X208646940Y-113067393D01*
X208703895Y-113107345D01*
X208769965Y-113130242D01*
X208851182Y-113138108D01*
X208857748Y-113138148D01*
X208923763Y-113138218D01*
X208923763Y-112758264D01*
X208958342Y-112766363D01*
X208989659Y-112780987D01*
X209022291Y-112806581D01*
X209027500Y-112811935D01*
X209055694Y-112857943D01*
X209060475Y-112910410D01*
X209041926Y-112970803D01*
X209036931Y-112981040D01*
X209021745Y-113012439D01*
X209013094Y-113033470D01*
X209012293Y-113037139D01*
X209020063Y-113049948D01*
X209039072Y-113074378D01*
X209049460Y-113086779D01*
X209073321Y-113112476D01*
X209089077Y-113120915D01*
X209103571Y-113115058D01*
X209107534Y-113111928D01*
X209124879Y-113090725D01*
X209145959Y-113055738D01*
X209158265Y-113031337D01*
X209179946Y-112962072D01*
X209186971Y-112885388D01*
X209178647Y-112812765D01*
X209172686Y-112792426D01*
X209138952Y-112729476D01*
X209087045Y-112682815D01*
X209016459Y-112652173D01*
X208926692Y-112637282D01*
X208879753Y-112635647D01*
X208811413Y-112640421D01*
X208811413Y-112760990D01*
X208816465Y-112772652D01*
X208820429Y-112803998D01*
X208822768Y-112849571D01*
X208823169Y-112880446D01*
X208822783Y-112935981D01*
X208820975Y-112971033D01*
X208816773Y-112990262D01*
X208809203Y-112998330D01*
X208798218Y-112999901D01*
X208764381Y-112989121D01*
X208730940Y-112961980D01*
X208705272Y-112926277D01*
X208694772Y-112890560D01*
X208704086Y-112842048D01*
X208731013Y-112800053D01*
X208769827Y-112770936D01*
X208811413Y-112760990D01*
X208811413Y-112640421D01*
X208780236Y-112642599D01*
X208700949Y-112664055D01*
X208641263Y-112700470D01*
X208600549Y-112752297D01*
X208578179Y-112819990D01*
X208573871Y-112856662D01*
X208574970Y-112932581D01*
G36*
X208571486Y-112535255D02*
G01*
X208581015Y-112583595D01*
X208595125Y-112611114D01*
X208618568Y-112640064D01*
X208670571Y-112598876D01*
X208702064Y-112573482D01*
X208717428Y-112556238D01*
X208719776Y-112539102D01*
X208712217Y-112514027D01*
X208707941Y-112502257D01*
X208701631Y-112454270D01*
X208715156Y-112410324D01*
X208745710Y-112378060D01*
X208755452Y-112372819D01*
X208781258Y-112367112D01*
X208828817Y-112362706D01*
X208894758Y-112359811D01*
X208975710Y-112358631D01*
X208987226Y-112358614D01*
X209187822Y-112358614D01*
X209187822Y-112220297D01*
X208571683Y-112220297D01*
X208571683Y-112289456D01*
X208572725Y-112329333D01*
X208577358Y-112350107D01*
X208587849Y-112357789D01*
X208597745Y-112358614D01*
X208623806Y-112358614D01*
X208597745Y-112391745D01*
X208579965Y-112429735D01*
X208571174Y-112480770D01*
X208571486Y-112535255D01*
G37*
X208571486Y-112535255D02*
X208581015Y-112583595D01*
X208595125Y-112611114D01*
X208618568Y-112640064D01*
X208670571Y-112598876D01*
X208702064Y-112573482D01*
X208717428Y-112556238D01*
X208719776Y-112539102D01*
X208712217Y-112514027D01*
X208707941Y-112502257D01*
X208701631Y-112454270D01*
X208715156Y-112410324D01*
X208745710Y-112378060D01*
X208755452Y-112372819D01*
X208781258Y-112367112D01*
X208828817Y-112362706D01*
X208894758Y-112359811D01*
X208975710Y-112358631D01*
X208987226Y-112358614D01*
X209187822Y-112358614D01*
X209187822Y-112220297D01*
X208571683Y-112220297D01*
X208571683Y-112289456D01*
X208572725Y-112329333D01*
X208577358Y-112350107D01*
X208587849Y-112357789D01*
X208597745Y-112358614D01*
X208623806Y-112358614D01*
X208597745Y-112391745D01*
X208579965Y-112429735D01*
X208571174Y-112480770D01*
X208571486Y-112535255D01*
G36*
X208575417Y-111938411D02*
G01*
X208588290Y-111991411D01*
X208595110Y-112006731D01*
X208612974Y-112036428D01*
X208633093Y-112059220D01*
X208658962Y-112076083D01*
X208694073Y-112087998D01*
X208741920Y-112095942D01*
X208805996Y-112100894D01*
X208889794Y-112103831D01*
X208945768Y-112104947D01*
X209187822Y-112109052D01*
X209187822Y-112038932D01*
X209186038Y-111996393D01*
X209179942Y-111974476D01*
X209169706Y-111968812D01*
X209158637Y-111965821D01*
X209160754Y-111952451D01*
X209169629Y-111934233D01*
X209183233Y-111888624D01*
X209186899Y-111830007D01*
X209180903Y-111768354D01*
X209165521Y-111713638D01*
X209163386Y-111708730D01*
X209128255Y-111658723D01*
X209079419Y-111625756D01*
X209022333Y-111610587D01*
X209001824Y-111611746D01*
X209001824Y-111735508D01*
X209029425Y-111746413D01*
X209049204Y-111778745D01*
X209059819Y-111830910D01*
X209061228Y-111858787D01*
X209057620Y-111905247D01*
X209043597Y-111936129D01*
X209036931Y-111943664D01*
X209000666Y-111964076D01*
X208967773Y-111968812D01*
X208923763Y-111968812D01*
X208923763Y-111907513D01*
X208927395Y-111836256D01*
X208938818Y-111786276D01*
X208958824Y-111754696D01*
X208967743Y-111747626D01*
X209001824Y-111735508D01*
X209001824Y-111611746D01*
X208962456Y-111613971D01*
X208905244Y-111636663D01*
X208866580Y-111667624D01*
X208849864Y-111686376D01*
X208838878Y-111704733D01*
X208832180Y-111728619D01*
X208828326Y-111763957D01*
X208825873Y-111816669D01*
X208825168Y-111837577D01*
X208820879Y-111968812D01*
X208781158Y-111968620D01*
X208739405Y-111963537D01*
X208714158Y-111945162D01*
X208698030Y-111908039D01*
X208697742Y-111907043D01*
X208691400Y-111854410D01*
X208699684Y-111802906D01*
X208719827Y-111764630D01*
X208729773Y-111749272D01*
X208728397Y-111732730D01*
X208713987Y-111707275D01*
X208703817Y-111692328D01*
X208682088Y-111663091D01*
X208665800Y-111644980D01*
X208661137Y-111642074D01*
X208637005Y-111654040D01*
X208608185Y-111689396D01*
X208598461Y-111704753D01*
X208581714Y-111748901D01*
X208572227Y-111808398D01*
X208570095Y-111874487D01*
X208575417Y-111938411D01*
G37*
X208575417Y-111938411D02*
X208588290Y-111991411D01*
X208595110Y-112006731D01*
X208612974Y-112036428D01*
X208633093Y-112059220D01*
X208658962Y-112076083D01*
X208694073Y-112087998D01*
X208741920Y-112095942D01*
X208805996Y-112100894D01*
X208889794Y-112103831D01*
X208945768Y-112104947D01*
X209187822Y-112109052D01*
X209187822Y-112038932D01*
X209186038Y-111996393D01*
X209179942Y-111974476D01*
X209169706Y-111968812D01*
X209158637Y-111965821D01*
X209160754Y-111952451D01*
X209169629Y-111934233D01*
X209183233Y-111888624D01*
X209186899Y-111830007D01*
X209180903Y-111768354D01*
X209165521Y-111713638D01*
X209163386Y-111708730D01*
X209128255Y-111658723D01*
X209079419Y-111625756D01*
X209022333Y-111610587D01*
X209001824Y-111611746D01*
X209001824Y-111735508D01*
X209029425Y-111746413D01*
X209049204Y-111778745D01*
X209059819Y-111830910D01*
X209061228Y-111858787D01*
X209057620Y-111905247D01*
X209043597Y-111936129D01*
X209036931Y-111943664D01*
X209000666Y-111964076D01*
X208967773Y-111968812D01*
X208923763Y-111968812D01*
X208923763Y-111907513D01*
X208927395Y-111836256D01*
X208938818Y-111786276D01*
X208958824Y-111754696D01*
X208967743Y-111747626D01*
X209001824Y-111735508D01*
X209001824Y-111611746D01*
X208962456Y-111613971D01*
X208905244Y-111636663D01*
X208866580Y-111667624D01*
X208849864Y-111686376D01*
X208838878Y-111704733D01*
X208832180Y-111728619D01*
X208828326Y-111763957D01*
X208825873Y-111816669D01*
X208825168Y-111837577D01*
X208820879Y-111968812D01*
X208781158Y-111968620D01*
X208739405Y-111963537D01*
X208714158Y-111945162D01*
X208698030Y-111908039D01*
X208697742Y-111907043D01*
X208691400Y-111854410D01*
X208699684Y-111802906D01*
X208719827Y-111764630D01*
X208729773Y-111749272D01*
X208728397Y-111732730D01*
X208713987Y-111707275D01*
X208703817Y-111692328D01*
X208682088Y-111663091D01*
X208665800Y-111644980D01*
X208661137Y-111642074D01*
X208637005Y-111654040D01*
X208608185Y-111689396D01*
X208598461Y-111704753D01*
X208581714Y-111748901D01*
X208572227Y-111808398D01*
X208570095Y-111874487D01*
X208575417Y-111938411D01*
G36*
X208574237Y-111181524D02*
G01*
X208577971Y-111231255D01*
X208967773Y-111361291D01*
X208898614Y-111381678D01*
X208855874Y-111393946D01*
X208798115Y-111410085D01*
X208734625Y-111427512D01*
X208700570Y-111436726D01*
X208571683Y-111471388D01*
X208571683Y-111614391D01*
X208706857Y-111571646D01*
X208773342Y-111550596D01*
X208853539Y-111525167D01*
X208937193Y-111498610D01*
X209011782Y-111474902D01*
X209181535Y-111420902D01*
X209185328Y-111362598D01*
X209189122Y-111304295D01*
X209084734Y-111272679D01*
X209019889Y-111253182D01*
X208948400Y-111231904D01*
X208885263Y-111213308D01*
X208882750Y-111212574D01*
X208839969Y-111198684D01*
X208810779Y-111186429D01*
X208799741Y-111177846D01*
X208801018Y-111176082D01*
X208818130Y-111169891D01*
X208854787Y-111158128D01*
X208906378Y-111142225D01*
X208968294Y-111123614D01*
X209002352Y-111113543D01*
X209187822Y-111059007D01*
X209187822Y-110943264D01*
X208895471Y-110850737D01*
X208813462Y-110824744D01*
X208738987Y-110801066D01*
X208675544Y-110780820D01*
X208626632Y-110765126D01*
X208595749Y-110755102D01*
X208586726Y-110752055D01*
X208577487Y-110754467D01*
X208573441Y-110773408D01*
X208573846Y-110812823D01*
X208574152Y-110818993D01*
X208577971Y-110892086D01*
X208754010Y-110939957D01*
X208818211Y-110957553D01*
X208874649Y-110973277D01*
X208918422Y-110985746D01*
X208944630Y-110993574D01*
X208948903Y-110995020D01*
X208943990Y-111001014D01*
X208918532Y-111013101D01*
X208875997Y-111029893D01*
X208819850Y-111050003D01*
X208769130Y-111067003D01*
X208570504Y-111131794D01*
X208574237Y-111181524D01*
G37*
X208574237Y-111181524D02*
X208577971Y-111231255D01*
X208967773Y-111361291D01*
X208898614Y-111381678D01*
X208855874Y-111393946D01*
X208798115Y-111410085D01*
X208734625Y-111427512D01*
X208700570Y-111436726D01*
X208571683Y-111471388D01*
X208571683Y-111614391D01*
X208706857Y-111571646D01*
X208773342Y-111550596D01*
X208853539Y-111525167D01*
X208937193Y-111498610D01*
X209011782Y-111474902D01*
X209181535Y-111420902D01*
X209185328Y-111362598D01*
X209189122Y-111304295D01*
X209084734Y-111272679D01*
X209019889Y-111253182D01*
X208948400Y-111231904D01*
X208885263Y-111213308D01*
X208882750Y-111212574D01*
X208839969Y-111198684D01*
X208810779Y-111186429D01*
X208799741Y-111177846D01*
X208801018Y-111176082D01*
X208818130Y-111169891D01*
X208854787Y-111158128D01*
X208906378Y-111142225D01*
X208968294Y-111123614D01*
X209002352Y-111113543D01*
X209187822Y-111059007D01*
X209187822Y-110943264D01*
X208895471Y-110850737D01*
X208813462Y-110824744D01*
X208738987Y-110801066D01*
X208675544Y-110780820D01*
X208626632Y-110765126D01*
X208595749Y-110755102D01*
X208586726Y-110752055D01*
X208577487Y-110754467D01*
X208573441Y-110773408D01*
X208573846Y-110812823D01*
X208574152Y-110818993D01*
X208577971Y-110892086D01*
X208754010Y-110939957D01*
X208818211Y-110957553D01*
X208874649Y-110973277D01*
X208918422Y-110985746D01*
X208944630Y-110993574D01*
X208948903Y-110995020D01*
X208943990Y-111001014D01*
X208918532Y-111013101D01*
X208875997Y-111029893D01*
X208819850Y-111050003D01*
X208769130Y-111067003D01*
X208570504Y-111131794D01*
X208574237Y-111181524D01*
G36*
X209187822Y-110698812D02*
G01*
X209187822Y-110629654D01*
X209186645Y-110589512D01*
X209181772Y-110568606D01*
X209171186Y-110561078D01*
X209164029Y-110560495D01*
X209149676Y-110559226D01*
X209146923Y-110551221D01*
X209155771Y-110530185D01*
X209164029Y-110513827D01*
X209183597Y-110451023D01*
X209184729Y-110382752D01*
X209170135Y-110327248D01*
X209134877Y-110275562D01*
X209082835Y-110236162D01*
X209021450Y-110214587D01*
X209018018Y-110214038D01*
X208980571Y-110210833D01*
X208926813Y-110209239D01*
X208886155Y-110209367D01*
X208886155Y-110346721D01*
X208940194Y-110349903D01*
X208984735Y-110357141D01*
X209009888Y-110366940D01*
X209044260Y-110404011D01*
X209056582Y-110448026D01*
X209046618Y-110493416D01*
X209016895Y-110532203D01*
X208996905Y-110546892D01*
X208973050Y-110555481D01*
X208938230Y-110559504D01*
X208885930Y-110560495D01*
X208834139Y-110558722D01*
X208788634Y-110554037D01*
X208758181Y-110547397D01*
X208755452Y-110546290D01*
X208723000Y-110519509D01*
X208705183Y-110480421D01*
X208702306Y-110436685D01*
X208714674Y-110395962D01*
X208742593Y-110365913D01*
X208748148Y-110362796D01*
X208782022Y-110353039D01*
X208830728Y-110347723D01*
X208886155Y-110346721D01*
X208886155Y-110209367D01*
X208865540Y-110209432D01*
X208832563Y-110210336D01*
X208750981Y-110216486D01*
X208689730Y-110229267D01*
X208644449Y-110250529D01*
X208610779Y-110282122D01*
X208591014Y-110312793D01*
X208577120Y-110355646D01*
X208572354Y-110408944D01*
X208576236Y-110463520D01*
X208588282Y-110510208D01*
X208602693Y-110534876D01*
X208625878Y-110560495D01*
X208332773Y-110560495D01*
X208332773Y-110698812D01*
X209187822Y-110698812D01*
G37*
X209187822Y-110698812D02*
X209187822Y-110629654D01*
X209186645Y-110589512D01*
X209181772Y-110568606D01*
X209171186Y-110561078D01*
X209164029Y-110560495D01*
X209149676Y-110559226D01*
X209146923Y-110551221D01*
X209155771Y-110530185D01*
X209164029Y-110513827D01*
X209183597Y-110451023D01*
X209184729Y-110382752D01*
X209170135Y-110327248D01*
X209134877Y-110275562D01*
X209082835Y-110236162D01*
X209021450Y-110214587D01*
X209018018Y-110214038D01*
X208980571Y-110210833D01*
X208926813Y-110209239D01*
X208886155Y-110209367D01*
X208886155Y-110346721D01*
X208940194Y-110349903D01*
X208984735Y-110357141D01*
X209009888Y-110366940D01*
X209044260Y-110404011D01*
X209056582Y-110448026D01*
X209046618Y-110493416D01*
X209016895Y-110532203D01*
X208996905Y-110546892D01*
X208973050Y-110555481D01*
X208938230Y-110559504D01*
X208885930Y-110560495D01*
X208834139Y-110558722D01*
X208788634Y-110554037D01*
X208758181Y-110547397D01*
X208755452Y-110546290D01*
X208723000Y-110519509D01*
X208705183Y-110480421D01*
X208702306Y-110436685D01*
X208714674Y-110395962D01*
X208742593Y-110365913D01*
X208748148Y-110362796D01*
X208782022Y-110353039D01*
X208830728Y-110347723D01*
X208886155Y-110346721D01*
X208886155Y-110209367D01*
X208865540Y-110209432D01*
X208832563Y-110210336D01*
X208750981Y-110216486D01*
X208689730Y-110229267D01*
X208644449Y-110250529D01*
X208610779Y-110282122D01*
X208591014Y-110312793D01*
X208577120Y-110355646D01*
X208572354Y-110408944D01*
X208576236Y-110463520D01*
X208588282Y-110510208D01*
X208602693Y-110534876D01*
X208625878Y-110560495D01*
X208332773Y-110560495D01*
X208332773Y-110698812D01*
X209187822Y-110698812D01*
G36*
X208573020Y-109906644D02*
G01*
X208578660Y-109925461D01*
X208591053Y-109931527D01*
X208596647Y-109931782D01*
X208612230Y-109932871D01*
X208614676Y-109940368D01*
X208603993Y-109960619D01*
X208596694Y-109972649D01*
X208581063Y-110010600D01*
X208573334Y-110055928D01*
X208572740Y-110103456D01*
X208578513Y-110148005D01*
X208589884Y-110184398D01*
X208606088Y-110207457D01*
X208626355Y-110212004D01*
X208631843Y-110209709D01*
X208654626Y-110192980D01*
X208682647Y-110167037D01*
X208687177Y-110162345D01*
X208708005Y-110137617D01*
X208714735Y-110116282D01*
X208710038Y-110086445D01*
X208706917Y-110074492D01*
X208699421Y-110037295D01*
X208702792Y-110011141D01*
X208714681Y-109989054D01*
X208730635Y-109968822D01*
X208750700Y-109953921D01*
X208778702Y-109943566D01*
X208818467Y-109936971D01*
X208873823Y-109933351D01*
X208948594Y-109931922D01*
X208993740Y-109931782D01*
X209187822Y-109931782D01*
X209187822Y-109806040D01*
X208571683Y-109806040D01*
X208571683Y-109868911D01*
X208573020Y-109906644D01*
G37*
X208573020Y-109906644D02*
X208578660Y-109925461D01*
X208591053Y-109931527D01*
X208596647Y-109931782D01*
X208612230Y-109932871D01*
X208614676Y-109940368D01*
X208603993Y-109960619D01*
X208596694Y-109972649D01*
X208581063Y-110010600D01*
X208573334Y-110055928D01*
X208572740Y-110103456D01*
X208578513Y-110148005D01*
X208589884Y-110184398D01*
X208606088Y-110207457D01*
X208626355Y-110212004D01*
X208631843Y-110209709D01*
X208654626Y-110192980D01*
X208682647Y-110167037D01*
X208687177Y-110162345D01*
X208708005Y-110137617D01*
X208714735Y-110116282D01*
X208710038Y-110086445D01*
X208706917Y-110074492D01*
X208699421Y-110037295D01*
X208702792Y-110011141D01*
X208714681Y-109989054D01*
X208730635Y-109968822D01*
X208750700Y-109953921D01*
X208778702Y-109943566D01*
X208818467Y-109936971D01*
X208873823Y-109933351D01*
X208948594Y-109931922D01*
X208993740Y-109931782D01*
X209187822Y-109931782D01*
X209187822Y-109806040D01*
X208571683Y-109806040D01*
X208571683Y-109868911D01*
X208573020Y-109906644D01*
G36*
X208576555Y-109515790D02*
G01*
X208592339Y-109574945D01*
X208620948Y-109619977D01*
X208658419Y-109651754D01*
X208674411Y-109661634D01*
X208691163Y-109668927D01*
X208712592Y-109674026D01*
X208742616Y-109677321D01*
X208785154Y-109679203D01*
X208844122Y-109680063D01*
X208923440Y-109680293D01*
X208944484Y-109680297D01*
X209187822Y-109680297D01*
X209187822Y-109619941D01*
X209185126Y-109581443D01*
X209178295Y-109552977D01*
X209174083Y-109545845D01*
X209166813Y-109526348D01*
X209174083Y-109506434D01*
X209183160Y-109473647D01*
X209186813Y-109426022D01*
X209185228Y-109373236D01*
X209178589Y-109324964D01*
X209170072Y-109296782D01*
X209135063Y-109242247D01*
X209086479Y-109208165D01*
X209021882Y-109192843D01*
X209020223Y-109192701D01*
X208991566Y-109194045D01*
X208991566Y-109315644D01*
X209024161Y-109326274D01*
X209042505Y-109343590D01*
X209056379Y-109378348D01*
X209061917Y-109424227D01*
X209059191Y-109471012D01*
X209048274Y-109508486D01*
X209041269Y-109518985D01*
X209008904Y-109537332D01*
X208972111Y-109541980D01*
X208923763Y-109541980D01*
X208923763Y-109472418D01*
X208928850Y-109406333D01*
X208943263Y-109356236D01*
X208965729Y-109325071D01*
X208991566Y-109315644D01*
X208991566Y-109194045D01*
X208949647Y-109196013D01*
X208893845Y-109219290D01*
X208851647Y-109263052D01*
X208847808Y-109269101D01*
X208835309Y-109295093D01*
X208827740Y-109327265D01*
X208824061Y-109372240D01*
X208823216Y-109425669D01*
X208823169Y-109541980D01*
X208774411Y-109541980D01*
X208736581Y-109537047D01*
X208711236Y-109524457D01*
X208709887Y-109522983D01*
X208698800Y-109494966D01*
X208694503Y-109452674D01*
X208696615Y-109405936D01*
X208704756Y-109364582D01*
X208716965Y-109340043D01*
X208726746Y-109326747D01*
X208728613Y-109312706D01*
X208720600Y-109293329D01*
X208700739Y-109264024D01*
X208667063Y-109220197D01*
X208663909Y-109216175D01*
X208652236Y-109218236D01*
X208632822Y-109235432D01*
X208611248Y-109261567D01*
X208593096Y-109290448D01*
X208588809Y-109299522D01*
X208580256Y-109332620D01*
X208574155Y-109381120D01*
X208571708Y-109435305D01*
X208571703Y-109437839D01*
X208576555Y-109515790D01*
G37*
X208576555Y-109515790D02*
X208592339Y-109574945D01*
X208620948Y-109619977D01*
X208658419Y-109651754D01*
X208674411Y-109661634D01*
X208691163Y-109668927D01*
X208712592Y-109674026D01*
X208742616Y-109677321D01*
X208785154Y-109679203D01*
X208844122Y-109680063D01*
X208923440Y-109680293D01*
X208944484Y-109680297D01*
X209187822Y-109680297D01*
X209187822Y-109619941D01*
X209185126Y-109581443D01*
X209178295Y-109552977D01*
X209174083Y-109545845D01*
X209166813Y-109526348D01*
X209174083Y-109506434D01*
X209183160Y-109473647D01*
X209186813Y-109426022D01*
X209185228Y-109373236D01*
X209178589Y-109324964D01*
X209170072Y-109296782D01*
X209135063Y-109242247D01*
X209086479Y-109208165D01*
X209021882Y-109192843D01*
X209020223Y-109192701D01*
X208991566Y-109194045D01*
X208991566Y-109315644D01*
X209024161Y-109326274D01*
X209042505Y-109343590D01*
X209056379Y-109378348D01*
X209061917Y-109424227D01*
X209059191Y-109471012D01*
X209048274Y-109508486D01*
X209041269Y-109518985D01*
X209008904Y-109537332D01*
X208972111Y-109541980D01*
X208923763Y-109541980D01*
X208923763Y-109472418D01*
X208928850Y-109406333D01*
X208943263Y-109356236D01*
X208965729Y-109325071D01*
X208991566Y-109315644D01*
X208991566Y-109194045D01*
X208949647Y-109196013D01*
X208893845Y-109219290D01*
X208851647Y-109263052D01*
X208847808Y-109269101D01*
X208835309Y-109295093D01*
X208827740Y-109327265D01*
X208824061Y-109372240D01*
X208823216Y-109425669D01*
X208823169Y-109541980D01*
X208774411Y-109541980D01*
X208736581Y-109537047D01*
X208711236Y-109524457D01*
X208709887Y-109522983D01*
X208698800Y-109494966D01*
X208694503Y-109452674D01*
X208696615Y-109405936D01*
X208704756Y-109364582D01*
X208716965Y-109340043D01*
X208726746Y-109326747D01*
X208728613Y-109312706D01*
X208720600Y-109293329D01*
X208700739Y-109264024D01*
X208667063Y-109220197D01*
X208663909Y-109216175D01*
X208652236Y-109218236D01*
X208632822Y-109235432D01*
X208611248Y-109261567D01*
X208593096Y-109290448D01*
X208588809Y-109299522D01*
X208580256Y-109332620D01*
X208574155Y-109381120D01*
X208571708Y-109435305D01*
X208571703Y-109437839D01*
X208576555Y-109515790D01*
G36*
X207639184Y-108991241D02*
G01*
X207652282Y-109017753D01*
X207675106Y-109050447D01*
X207699996Y-109074275D01*
X207731249Y-109090594D01*
X207773166Y-109100760D01*
X207830044Y-109106128D01*
X207906184Y-109108056D01*
X207938917Y-109108169D01*
X208010656Y-109107839D01*
X208061927Y-109106473D01*
X208097404Y-109103500D01*
X208121763Y-109098351D01*
X208139680Y-109090457D01*
X208151902Y-109082243D01*
X208203905Y-109029813D01*
X208235184Y-108968070D01*
X208244592Y-108901464D01*
X208230980Y-108834442D01*
X208221354Y-108813208D01*
X208194859Y-108762376D01*
X208610052Y-108762376D01*
X208590868Y-108799475D01*
X208576025Y-108848357D01*
X208572222Y-108908439D01*
X208579243Y-108968436D01*
X208595013Y-109013744D01*
X208625047Y-109051325D01*
X208668024Y-109083436D01*
X208672436Y-109085850D01*
X208693221Y-109096033D01*
X208714170Y-109103470D01*
X208739548Y-109108589D01*
X208773618Y-109111819D01*
X208820641Y-109113587D01*
X208884882Y-109114323D01*
X208957176Y-109114456D01*
X209187822Y-109114456D01*
X209187822Y-108976139D01*
X208762533Y-108976139D01*
X208729979Y-108937451D01*
X208703940Y-108897262D01*
X208699205Y-108859203D01*
X208711389Y-108820934D01*
X208723320Y-108800538D01*
X208740313Y-108785358D01*
X208765995Y-108774562D01*
X208803991Y-108767317D01*
X208857926Y-108762792D01*
X208931425Y-108760156D01*
X208980347Y-108759228D01*
X209181535Y-108756089D01*
X209185336Y-108690074D01*
X209189136Y-108624060D01*
X207940650Y-108624060D01*
X207940650Y-108762376D01*
X208010254Y-108765903D01*
X208058569Y-108777785D01*
X208088631Y-108799980D01*
X208103471Y-108834441D01*
X208106436Y-108869258D01*
X208103028Y-108908671D01*
X208089617Y-108934829D01*
X208071896Y-108951186D01*
X208052835Y-108964063D01*
X208031601Y-108971728D01*
X208001849Y-108975139D01*
X207957236Y-108975251D01*
X207919880Y-108974103D01*
X207863604Y-108971468D01*
X207826658Y-108967544D01*
X207803223Y-108960937D01*
X207787480Y-108950251D01*
X207778380Y-108940167D01*
X207758537Y-108898030D01*
X207755332Y-108848160D01*
X207762168Y-108819524D01*
X207786464Y-108791172D01*
X207833728Y-108772391D01*
X207903624Y-108763288D01*
X207940650Y-108762376D01*
X207940650Y-108624060D01*
X207628614Y-108624060D01*
X207628614Y-108693218D01*
X207630256Y-108734740D01*
X207636087Y-108756162D01*
X207647461Y-108762374D01*
X207647798Y-108762376D01*
X207658938Y-108765258D01*
X207657673Y-108777970D01*
X207645433Y-108803243D01*
X207626707Y-108862131D01*
X207624739Y-108928385D01*
X207639184Y-108991241D01*
G37*
X207639184Y-108991241D02*
X207652282Y-109017753D01*
X207675106Y-109050447D01*
X207699996Y-109074275D01*
X207731249Y-109090594D01*
X207773166Y-109100760D01*
X207830044Y-109106128D01*
X207906184Y-109108056D01*
X207938917Y-109108169D01*
X208010656Y-109107839D01*
X208061927Y-109106473D01*
X208097404Y-109103500D01*
X208121763Y-109098351D01*
X208139680Y-109090457D01*
X208151902Y-109082243D01*
X208203905Y-109029813D01*
X208235184Y-108968070D01*
X208244592Y-108901464D01*
X208230980Y-108834442D01*
X208221354Y-108813208D01*
X208194859Y-108762376D01*
X208610052Y-108762376D01*
X208590868Y-108799475D01*
X208576025Y-108848357D01*
X208572222Y-108908439D01*
X208579243Y-108968436D01*
X208595013Y-109013744D01*
X208625047Y-109051325D01*
X208668024Y-109083436D01*
X208672436Y-109085850D01*
X208693221Y-109096033D01*
X208714170Y-109103470D01*
X208739548Y-109108589D01*
X208773618Y-109111819D01*
X208820641Y-109113587D01*
X208884882Y-109114323D01*
X208957176Y-109114456D01*
X209187822Y-109114456D01*
X209187822Y-108976139D01*
X208762533Y-108976139D01*
X208729979Y-108937451D01*
X208703940Y-108897262D01*
X208699205Y-108859203D01*
X208711389Y-108820934D01*
X208723320Y-108800538D01*
X208740313Y-108785358D01*
X208765995Y-108774562D01*
X208803991Y-108767317D01*
X208857926Y-108762792D01*
X208931425Y-108760156D01*
X208980347Y-108759228D01*
X209181535Y-108756089D01*
X209185336Y-108690074D01*
X209189136Y-108624060D01*
X207940650Y-108624060D01*
X207940650Y-108762376D01*
X208010254Y-108765903D01*
X208058569Y-108777785D01*
X208088631Y-108799980D01*
X208103471Y-108834441D01*
X208106436Y-108869258D01*
X208103028Y-108908671D01*
X208089617Y-108934829D01*
X208071896Y-108951186D01*
X208052835Y-108964063D01*
X208031601Y-108971728D01*
X208001849Y-108975139D01*
X207957236Y-108975251D01*
X207919880Y-108974103D01*
X207863604Y-108971468D01*
X207826658Y-108967544D01*
X207803223Y-108960937D01*
X207787480Y-108950251D01*
X207778380Y-108940167D01*
X207758537Y-108898030D01*
X207755332Y-108848160D01*
X207762168Y-108819524D01*
X207786464Y-108791172D01*
X207833728Y-108772391D01*
X207903624Y-108763288D01*
X207940650Y-108762376D01*
X207940650Y-108624060D01*
X207628614Y-108624060D01*
X207628614Y-108693218D01*
X207630256Y-108734740D01*
X207636087Y-108756162D01*
X207647461Y-108762374D01*
X207647798Y-108762376D01*
X207658938Y-108765258D01*
X207657673Y-108777970D01*
X207645433Y-108803243D01*
X207626707Y-108862131D01*
X207624739Y-108928385D01*
X207639184Y-108991241D01*
D13*
X53900000Y-89100000D02*
X53900000Y-88500000D01*
X51800000Y-89800000D02*
X53200000Y-89800000D01*
X51100000Y-88500000D02*
X51100000Y-89100000D01*
X53200000Y-87800000D02*
X51800000Y-87800000D01*
X51800000Y-87800000D02*
G75*
G03*
X51100000Y-88500000I0J-700000D01*
G01*
X51100000Y-89100000D02*
G75*
G03*
X51800000Y-89800000I700000J0D01*
G01*
X53200000Y-89800000D02*
G75*
G03*
X53900000Y-89100000I0J700000D01*
G01*
X53900000Y-88500000D02*
G75*
G03*
X53200000Y-87800000I-700000J0D01*
G01*
X62800000Y-89750000D02*
X64200000Y-89750000D01*
X64900000Y-89050000D02*
X64900000Y-88450000D01*
X64200000Y-87750000D02*
X62800000Y-87750000D01*
X62100000Y-88450000D02*
X62100000Y-89050000D01*
X62100000Y-89050000D02*
G75*
G03*
X62800000Y-89750000I700000J0D01*
G01*
X62800000Y-87750000D02*
G75*
G03*
X62100000Y-88450000I0J-700000D01*
G01*
X64900000Y-88450000D02*
G75*
G03*
X64200000Y-87750000I-700000J0D01*
G01*
X64200000Y-89750000D02*
G75*
G03*
X64900000Y-89050000I0J700000D01*
G01*
X53200000Y-85250000D02*
X51800000Y-85250000D01*
X51100000Y-85950000D02*
X51100000Y-86550000D01*
X51800000Y-87250000D02*
X53200000Y-87250000D01*
X53900000Y-86550000D02*
X53900000Y-85950000D01*
X53900000Y-85950000D02*
G75*
G03*
X53200000Y-85250000I-700000J0D01*
G01*
X53200000Y-87250000D02*
G75*
G03*
X53900000Y-86550000I0J700000D01*
G01*
X51100000Y-86550000D02*
G75*
G03*
X51800000Y-87250000I700000J0D01*
G01*
X51800000Y-85250000D02*
G75*
G03*
X51100000Y-85950000I0J-700000D01*
G01*
X62800000Y-87250000D02*
X64200000Y-87250000D01*
X64900000Y-86550000D02*
X64900000Y-85950000D01*
X64200000Y-85250000D02*
X62800000Y-85250000D01*
X62100000Y-85950000D02*
X62100000Y-86550000D01*
X62100000Y-86550000D02*
G75*
G03*
X62800000Y-87250000I700000J0D01*
G01*
X62800000Y-85250000D02*
G75*
G03*
X62100000Y-85950000I0J-700000D01*
G01*
X64900000Y-85950000D02*
G75*
G03*
X64200000Y-85250000I-700000J0D01*
G01*
X64200000Y-87250000D02*
G75*
G03*
X64900000Y-86550000I0J700000D01*
G01*
X53900000Y-84050000D02*
X53900000Y-83450000D01*
X51800000Y-84750000D02*
X53200000Y-84750000D01*
X51100000Y-83450000D02*
X51100000Y-84050000D01*
X53200000Y-82750000D02*
X51800000Y-82750000D01*
X51800000Y-82750000D02*
G75*
G03*
X51100000Y-83450000I0J-700000D01*
G01*
X51100000Y-84050000D02*
G75*
G03*
X51800000Y-84750000I700000J0D01*
G01*
X53200000Y-84750000D02*
G75*
G03*
X53900000Y-84050000I0J700000D01*
G01*
X53900000Y-83450000D02*
G75*
G03*
X53200000Y-82750000I-700000J0D01*
G01*
X62100000Y-83450000D02*
X62100000Y-84050000D01*
X64200000Y-82750000D02*
X62800000Y-82750000D01*
X64900000Y-84050000D02*
X64900000Y-83450000D01*
X62800000Y-84750000D02*
X64200000Y-84750000D01*
X64200000Y-84750000D02*
G75*
G03*
X64900000Y-84050000I0J700000D01*
G01*
X64900000Y-83450000D02*
G75*
G03*
X64200000Y-82750000I-700000J0D01*
G01*
X62800000Y-82750000D02*
G75*
G03*
X62100000Y-83450000I0J-700000D01*
G01*
X62100000Y-84050000D02*
G75*
G03*
X62800000Y-84750000I700000J0D01*
G01*
X53900000Y-81500000D02*
X53900000Y-80900000D01*
X51800000Y-82200000D02*
X53200000Y-82200000D01*
X51100000Y-80900000D02*
X51100000Y-81500000D01*
X53200000Y-80200000D02*
X51800000Y-80200000D01*
X51800000Y-80200000D02*
G75*
G03*
X51100000Y-80900000I0J-700000D01*
G01*
X51100000Y-81500000D02*
G75*
G03*
X51800000Y-82200000I700000J0D01*
G01*
X53200000Y-82200000D02*
G75*
G03*
X53900000Y-81500000I0J700000D01*
G01*
X53900000Y-80900000D02*
G75*
G03*
X53200000Y-80200000I-700000J0D01*
G01*
X62100000Y-80950000D02*
X62100000Y-81550000D01*
X64200000Y-80250000D02*
X62800000Y-80250000D01*
X64900000Y-81550000D02*
X64900000Y-80950000D01*
X62800000Y-82250000D02*
X64200000Y-82250000D01*
X64200000Y-82250000D02*
G75*
G03*
X64900000Y-81550000I0J700000D01*
G01*
X64900000Y-80950000D02*
G75*
G03*
X64200000Y-80250000I-700000J0D01*
G01*
X62800000Y-80250000D02*
G75*
G03*
X62100000Y-80950000I0J-700000D01*
G01*
X62100000Y-81550000D02*
G75*
G03*
X62800000Y-82250000I700000J0D01*
G01*
D10*
X53333333Y-92202380D02*
X53333333Y-92916666D01*
X53380952Y-93059523D01*
X53476190Y-93154761D01*
X53619047Y-93202380D01*
X53714285Y-93202380D01*
X52857142Y-93202380D02*
X52857142Y-92202380D01*
X52476190Y-92202380D01*
X52380952Y-92250000D01*
X52333333Y-92297619D01*
X52285714Y-92392857D01*
X52285714Y-92535714D01*
X52333333Y-92630952D01*
X52380952Y-92678571D01*
X52476190Y-92726190D01*
X52857142Y-92726190D01*
X51428571Y-92202380D02*
X51619047Y-92202380D01*
X51714285Y-92250000D01*
X51761904Y-92297619D01*
X51857142Y-92440476D01*
X51904761Y-92630952D01*
X51904761Y-93011904D01*
X51857142Y-93107142D01*
X51809523Y-93154761D01*
X51714285Y-93202380D01*
X51523809Y-93202380D01*
X51428571Y-93154761D01*
X51380952Y-93107142D01*
X51333333Y-93011904D01*
X51333333Y-92773809D01*
X51380952Y-92678571D01*
X51428571Y-92630952D01*
X51523809Y-92583333D01*
X51714285Y-92583333D01*
X51809523Y-92630952D01*
X51857142Y-92678571D01*
X51904761Y-92773809D01*
X67833333Y-88202380D02*
X67833333Y-88916666D01*
X67880952Y-89059523D01*
X67976190Y-89154761D01*
X68119047Y-89202380D01*
X68214285Y-89202380D01*
X67357142Y-89202380D02*
X67357142Y-88202380D01*
X66976190Y-88202380D01*
X66880952Y-88250000D01*
X66833333Y-88297619D01*
X66785714Y-88392857D01*
X66785714Y-88535714D01*
X66833333Y-88630952D01*
X66880952Y-88678571D01*
X66976190Y-88726190D01*
X67357142Y-88726190D01*
X66452380Y-88202380D02*
X65785714Y-88202380D01*
X66214285Y-89202380D01*
X53333333Y-90452380D02*
X53333333Y-91166666D01*
X53380952Y-91309523D01*
X53476190Y-91404761D01*
X53619047Y-91452380D01*
X53714285Y-91452380D01*
X52857142Y-91452380D02*
X52857142Y-90452380D01*
X52476190Y-90452380D01*
X52380952Y-90500000D01*
X52333333Y-90547619D01*
X52285714Y-90642857D01*
X52285714Y-90785714D01*
X52333333Y-90880952D01*
X52380952Y-90928571D01*
X52476190Y-90976190D01*
X52857142Y-90976190D01*
X51714285Y-90880952D02*
X51809523Y-90833333D01*
X51857142Y-90785714D01*
X51904761Y-90690476D01*
X51904761Y-90642857D01*
X51857142Y-90547619D01*
X51809523Y-90500000D01*
X51714285Y-90452380D01*
X51523809Y-90452380D01*
X51428571Y-90500000D01*
X51380952Y-90547619D01*
X51333333Y-90642857D01*
X51333333Y-90690476D01*
X51380952Y-90785714D01*
X51428571Y-90833333D01*
X51523809Y-90880952D01*
X51714285Y-90880952D01*
X51809523Y-90928571D01*
X51857142Y-90976190D01*
X51904761Y-91071428D01*
X51904761Y-91261904D01*
X51857142Y-91357142D01*
X51809523Y-91404761D01*
X51714285Y-91452380D01*
X51523809Y-91452380D01*
X51428571Y-91404761D01*
X51380952Y-91357142D01*
X51333333Y-91261904D01*
X51333333Y-91071428D01*
X51380952Y-90976190D01*
X51428571Y-90928571D01*
X51523809Y-90880952D01*
X67833333Y-85702380D02*
X67833333Y-86416666D01*
X67880952Y-86559523D01*
X67976190Y-86654761D01*
X68119047Y-86702380D01*
X68214285Y-86702380D01*
X67357142Y-86702380D02*
X67357142Y-85702380D01*
X66976190Y-85702380D01*
X66880952Y-85750000D01*
X66833333Y-85797619D01*
X66785714Y-85892857D01*
X66785714Y-86035714D01*
X66833333Y-86130952D01*
X66880952Y-86178571D01*
X66976190Y-86226190D01*
X67357142Y-86226190D01*
X66309523Y-86702380D02*
X66119047Y-86702380D01*
X66023809Y-86654761D01*
X65976190Y-86607142D01*
X65880952Y-86464285D01*
X65833333Y-86273809D01*
X65833333Y-85892857D01*
X65880952Y-85797619D01*
X65928571Y-85750000D01*
X66023809Y-85702380D01*
X66214285Y-85702380D01*
X66309523Y-85750000D01*
X66357142Y-85797619D01*
X66404761Y-85892857D01*
X66404761Y-86130952D01*
X66357142Y-86226190D01*
X66309523Y-86273809D01*
X66214285Y-86321428D01*
X66023809Y-86321428D01*
X65928571Y-86273809D01*
X65880952Y-86226190D01*
X65833333Y-86130952D01*
X53809523Y-78202380D02*
X53809523Y-78916666D01*
X53857142Y-79059523D01*
X53952380Y-79154761D01*
X54095238Y-79202380D01*
X54190476Y-79202380D01*
X53333333Y-79202380D02*
X53333333Y-78202380D01*
X52952380Y-78202380D01*
X52857142Y-78250000D01*
X52809523Y-78297619D01*
X52761904Y-78392857D01*
X52761904Y-78535714D01*
X52809523Y-78630952D01*
X52857142Y-78678571D01*
X52952380Y-78726190D01*
X53333333Y-78726190D01*
X51809523Y-79202380D02*
X52380952Y-79202380D01*
X52095238Y-79202380D02*
X52095238Y-78202380D01*
X52190476Y-78345238D01*
X52285714Y-78440476D01*
X52380952Y-78488095D01*
X51190476Y-78202380D02*
X51095238Y-78202380D01*
X51000000Y-78250000D01*
X50952380Y-78297619D01*
X50904761Y-78392857D01*
X50857142Y-78583333D01*
X50857142Y-78821428D01*
X50904761Y-79011904D01*
X50952380Y-79107142D01*
X51000000Y-79154761D01*
X51095238Y-79202380D01*
X51190476Y-79202380D01*
X51285714Y-79154761D01*
X51333333Y-79107142D01*
X51380952Y-79011904D01*
X51428571Y-78821428D01*
X51428571Y-78583333D01*
X51380952Y-78392857D01*
X51333333Y-78297619D01*
X51285714Y-78250000D01*
X51190476Y-78202380D01*
X68459523Y-83202380D02*
X68459523Y-83916666D01*
X68507142Y-84059523D01*
X68602380Y-84154761D01*
X68745238Y-84202380D01*
X68840476Y-84202380D01*
X67983333Y-84202380D02*
X67983333Y-83202380D01*
X67602380Y-83202380D01*
X67507142Y-83250000D01*
X67459523Y-83297619D01*
X67411904Y-83392857D01*
X67411904Y-83535714D01*
X67459523Y-83630952D01*
X67507142Y-83678571D01*
X67602380Y-83726190D01*
X67983333Y-83726190D01*
X66459523Y-84202380D02*
X67030952Y-84202380D01*
X66745238Y-84202380D02*
X66745238Y-83202380D01*
X66840476Y-83345238D01*
X66935714Y-83440476D01*
X67030952Y-83488095D01*
X65507142Y-84202380D02*
X66078571Y-84202380D01*
X65792857Y-84202380D02*
X65792857Y-83202380D01*
X65888095Y-83345238D01*
X65983333Y-83440476D01*
X66078571Y-83488095D01*
X53809523Y-76202380D02*
X53809523Y-76916666D01*
X53857142Y-77059523D01*
X53952380Y-77154761D01*
X54095238Y-77202380D01*
X54190476Y-77202380D01*
X53333333Y-77202380D02*
X53333333Y-76202380D01*
X52952380Y-76202380D01*
X52857142Y-76250000D01*
X52809523Y-76297619D01*
X52761904Y-76392857D01*
X52761904Y-76535714D01*
X52809523Y-76630952D01*
X52857142Y-76678571D01*
X52952380Y-76726190D01*
X53333333Y-76726190D01*
X51809523Y-77202380D02*
X52380952Y-77202380D01*
X52095238Y-77202380D02*
X52095238Y-76202380D01*
X52190476Y-76345238D01*
X52285714Y-76440476D01*
X52380952Y-76488095D01*
X51428571Y-76297619D02*
X51380952Y-76250000D01*
X51285714Y-76202380D01*
X51047619Y-76202380D01*
X50952380Y-76250000D01*
X50904761Y-76297619D01*
X50857142Y-76392857D01*
X50857142Y-76488095D01*
X50904761Y-76630952D01*
X51476190Y-77202380D01*
X50857142Y-77202380D01*
X68459523Y-80902380D02*
X68459523Y-81616666D01*
X68507142Y-81759523D01*
X68602380Y-81854761D01*
X68745238Y-81902380D01*
X68840476Y-81902380D01*
X67983333Y-81902380D02*
X67983333Y-80902380D01*
X67602380Y-80902380D01*
X67507142Y-80950000D01*
X67459523Y-80997619D01*
X67411904Y-81092857D01*
X67411904Y-81235714D01*
X67459523Y-81330952D01*
X67507142Y-81378571D01*
X67602380Y-81426190D01*
X67983333Y-81426190D01*
X66459523Y-81902380D02*
X67030952Y-81902380D01*
X66745238Y-81902380D02*
X66745238Y-80902380D01*
X66840476Y-81045238D01*
X66935714Y-81140476D01*
X67030952Y-81188095D01*
X66126190Y-80902380D02*
X65507142Y-80902380D01*
X65840476Y-81283333D01*
X65697619Y-81283333D01*
X65602380Y-81330952D01*
X65554761Y-81378571D01*
X65507142Y-81473809D01*
X65507142Y-81711904D01*
X65554761Y-81807142D01*
X65602380Y-81854761D01*
X65697619Y-81902380D01*
X65983333Y-81902380D01*
X66078571Y-81854761D01*
X66126190Y-81807142D01*
M02*
