G04 #@! TF.GenerationSoftware,KiCad,Pcbnew,(6.0.1)*
G04 #@! TF.CreationDate,2022-02-22T10:52:26+01:00*
G04 #@! TF.ProjectId,RedPitaya_Lockbox,52656450-6974-4617-9961-5f4c6f636b62,1.6*
G04 #@! TF.SameCoordinates,Original*
G04 #@! TF.FileFunction,Legend,Top*
G04 #@! TF.FilePolarity,Positive*
%FSLAX46Y46*%
G04 Gerber Fmt 4.6, Leading zero omitted, Abs format (unit mm)*
G04 Created by KiCad (PCBNEW (6.0.1)) date 2022-02-22 10:52:26*
%MOMM*%
%LPD*%
G01*
G04 APERTURE LIST*
%ADD10C,0.150000*%
%ADD11C,0.350000*%
%ADD12C,0.250000*%
%ADD13C,0.300000*%
%ADD14C,0.600000*%
%ADD15C,0.120000*%
%ADD16C,0.010000*%
%ADD17C,0.200000*%
%ADD18C,1.000000*%
G04 APERTURE END LIST*
D10*
X209600000Y-63900000D02*
X189600000Y-63900000D01*
X189600000Y-63900000D02*
X189600000Y-35400000D01*
X189600000Y-35400000D02*
X209600000Y-35400000D01*
X209600000Y-35400000D02*
X209600000Y-63900000D01*
D11*
X136446547Y-129194761D02*
X135779880Y-128242380D01*
X135303690Y-129194761D02*
X135303690Y-127194761D01*
X136065595Y-127194761D01*
X136256071Y-127290000D01*
X136351309Y-127385238D01*
X136446547Y-127575714D01*
X136446547Y-127861428D01*
X136351309Y-128051904D01*
X136256071Y-128147142D01*
X136065595Y-128242380D01*
X135303690Y-128242380D01*
X138065595Y-129099523D02*
X137875119Y-129194761D01*
X137494166Y-129194761D01*
X137303690Y-129099523D01*
X137208452Y-128909047D01*
X137208452Y-128147142D01*
X137303690Y-127956666D01*
X137494166Y-127861428D01*
X137875119Y-127861428D01*
X138065595Y-127956666D01*
X138160833Y-128147142D01*
X138160833Y-128337619D01*
X137208452Y-128528095D01*
X139875119Y-129194761D02*
X139875119Y-127194761D01*
X139875119Y-129099523D02*
X139684642Y-129194761D01*
X139303690Y-129194761D01*
X139113214Y-129099523D01*
X139017976Y-129004285D01*
X138922738Y-128813809D01*
X138922738Y-128242380D01*
X139017976Y-128051904D01*
X139113214Y-127956666D01*
X139303690Y-127861428D01*
X139684642Y-127861428D01*
X139875119Y-127956666D01*
X140827500Y-129194761D02*
X140827500Y-127194761D01*
X141589404Y-127194761D01*
X141779880Y-127290000D01*
X141875119Y-127385238D01*
X141970357Y-127575714D01*
X141970357Y-127861428D01*
X141875119Y-128051904D01*
X141779880Y-128147142D01*
X141589404Y-128242380D01*
X140827500Y-128242380D01*
X142827500Y-129194761D02*
X142827500Y-127861428D01*
X142827500Y-127194761D02*
X142732261Y-127290000D01*
X142827500Y-127385238D01*
X142922738Y-127290000D01*
X142827500Y-127194761D01*
X142827500Y-127385238D01*
X143494166Y-127861428D02*
X144256071Y-127861428D01*
X143779880Y-127194761D02*
X143779880Y-128909047D01*
X143875119Y-129099523D01*
X144065595Y-129194761D01*
X144256071Y-129194761D01*
X145779880Y-129194761D02*
X145779880Y-128147142D01*
X145684642Y-127956666D01*
X145494166Y-127861428D01*
X145113214Y-127861428D01*
X144922738Y-127956666D01*
X145779880Y-129099523D02*
X145589404Y-129194761D01*
X145113214Y-129194761D01*
X144922738Y-129099523D01*
X144827500Y-128909047D01*
X144827500Y-128718571D01*
X144922738Y-128528095D01*
X145113214Y-128432857D01*
X145589404Y-128432857D01*
X145779880Y-128337619D01*
X146541785Y-127861428D02*
X147017976Y-129194761D01*
X147494166Y-127861428D02*
X147017976Y-129194761D01*
X146827500Y-129670952D01*
X146732261Y-129766190D01*
X146541785Y-129861428D01*
X149113214Y-129194761D02*
X149113214Y-128147142D01*
X149017976Y-127956666D01*
X148827500Y-127861428D01*
X148446547Y-127861428D01*
X148256071Y-127956666D01*
X149113214Y-129099523D02*
X148922738Y-129194761D01*
X148446547Y-129194761D01*
X148256071Y-129099523D01*
X148160833Y-128909047D01*
X148160833Y-128718571D01*
X148256071Y-128528095D01*
X148446547Y-128432857D01*
X148922738Y-128432857D01*
X149113214Y-128337619D01*
X152541785Y-129194761D02*
X151589404Y-129194761D01*
X151589404Y-127194761D01*
X153494166Y-129194761D02*
X153303690Y-129099523D01*
X153208452Y-129004285D01*
X153113214Y-128813809D01*
X153113214Y-128242380D01*
X153208452Y-128051904D01*
X153303690Y-127956666D01*
X153494166Y-127861428D01*
X153779880Y-127861428D01*
X153970357Y-127956666D01*
X154065595Y-128051904D01*
X154160833Y-128242380D01*
X154160833Y-128813809D01*
X154065595Y-129004285D01*
X153970357Y-129099523D01*
X153779880Y-129194761D01*
X153494166Y-129194761D01*
X155875119Y-129099523D02*
X155684642Y-129194761D01*
X155303690Y-129194761D01*
X155113214Y-129099523D01*
X155017976Y-129004285D01*
X154922738Y-128813809D01*
X154922738Y-128242380D01*
X155017976Y-128051904D01*
X155113214Y-127956666D01*
X155303690Y-127861428D01*
X155684642Y-127861428D01*
X155875119Y-127956666D01*
X156732261Y-129194761D02*
X156732261Y-127194761D01*
X156922738Y-128432857D02*
X157494166Y-129194761D01*
X157494166Y-127861428D02*
X156732261Y-128623333D01*
X158351309Y-129194761D02*
X158351309Y-127194761D01*
X158351309Y-127956666D02*
X158541785Y-127861428D01*
X158922738Y-127861428D01*
X159113214Y-127956666D01*
X159208452Y-128051904D01*
X159303690Y-128242380D01*
X159303690Y-128813809D01*
X159208452Y-129004285D01*
X159113214Y-129099523D01*
X158922738Y-129194761D01*
X158541785Y-129194761D01*
X158351309Y-129099523D01*
X160446547Y-129194761D02*
X160256071Y-129099523D01*
X160160833Y-129004285D01*
X160065595Y-128813809D01*
X160065595Y-128242380D01*
X160160833Y-128051904D01*
X160256071Y-127956666D01*
X160446547Y-127861428D01*
X160732261Y-127861428D01*
X160922738Y-127956666D01*
X161017976Y-128051904D01*
X161113214Y-128242380D01*
X161113214Y-128813809D01*
X161017976Y-129004285D01*
X160922738Y-129099523D01*
X160732261Y-129194761D01*
X160446547Y-129194761D01*
X161779880Y-129194761D02*
X162827500Y-127861428D01*
X161779880Y-127861428D02*
X162827500Y-129194761D01*
X135208452Y-130605238D02*
X135303690Y-130510000D01*
X135494166Y-130414761D01*
X135970357Y-130414761D01*
X136160833Y-130510000D01*
X136256071Y-130605238D01*
X136351309Y-130795714D01*
X136351309Y-130986190D01*
X136256071Y-131271904D01*
X135113214Y-132414761D01*
X136351309Y-132414761D01*
X137589404Y-130414761D02*
X137779880Y-130414761D01*
X137970357Y-130510000D01*
X138065595Y-130605238D01*
X138160833Y-130795714D01*
X138256071Y-131176666D01*
X138256071Y-131652857D01*
X138160833Y-132033809D01*
X138065595Y-132224285D01*
X137970357Y-132319523D01*
X137779880Y-132414761D01*
X137589404Y-132414761D01*
X137398928Y-132319523D01*
X137303690Y-132224285D01*
X137208452Y-132033809D01*
X137113214Y-131652857D01*
X137113214Y-131176666D01*
X137208452Y-130795714D01*
X137303690Y-130605238D01*
X137398928Y-130510000D01*
X137589404Y-130414761D01*
X139017976Y-130605238D02*
X139113214Y-130510000D01*
X139303690Y-130414761D01*
X139779880Y-130414761D01*
X139970357Y-130510000D01*
X140065595Y-130605238D01*
X140160833Y-130795714D01*
X140160833Y-130986190D01*
X140065595Y-131271904D01*
X138922738Y-132414761D01*
X140160833Y-132414761D01*
X140922738Y-130605238D02*
X141017976Y-130510000D01*
X141208452Y-130414761D01*
X141684642Y-130414761D01*
X141875119Y-130510000D01*
X141970357Y-130605238D01*
X142065595Y-130795714D01*
X142065595Y-130986190D01*
X141970357Y-131271904D01*
X140827500Y-132414761D01*
X142065595Y-132414761D01*
X142922738Y-131652857D02*
X144446547Y-131652857D01*
X145779880Y-130414761D02*
X145970357Y-130414761D01*
X146160833Y-130510000D01*
X146256071Y-130605238D01*
X146351309Y-130795714D01*
X146446547Y-131176666D01*
X146446547Y-131652857D01*
X146351309Y-132033809D01*
X146256071Y-132224285D01*
X146160833Y-132319523D01*
X145970357Y-132414761D01*
X145779880Y-132414761D01*
X145589404Y-132319523D01*
X145494166Y-132224285D01*
X145398928Y-132033809D01*
X145303690Y-131652857D01*
X145303690Y-131176666D01*
X145398928Y-130795714D01*
X145494166Y-130605238D01*
X145589404Y-130510000D01*
X145779880Y-130414761D01*
X147208452Y-130605238D02*
X147303690Y-130510000D01*
X147494166Y-130414761D01*
X147970357Y-130414761D01*
X148160833Y-130510000D01*
X148256071Y-130605238D01*
X148351309Y-130795714D01*
X148351309Y-130986190D01*
X148256071Y-131271904D01*
X147113214Y-132414761D01*
X148351309Y-132414761D01*
X151875119Y-132414761D02*
X151208452Y-131462380D01*
X150732261Y-132414761D02*
X150732261Y-130414761D01*
X151494166Y-130414761D01*
X151684642Y-130510000D01*
X151779880Y-130605238D01*
X151875119Y-130795714D01*
X151875119Y-131081428D01*
X151779880Y-131271904D01*
X151684642Y-131367142D01*
X151494166Y-131462380D01*
X150732261Y-131462380D01*
X153494166Y-132319523D02*
X153303690Y-132414761D01*
X152922738Y-132414761D01*
X152732261Y-132319523D01*
X152637023Y-132129047D01*
X152637023Y-131367142D01*
X152732261Y-131176666D01*
X152922738Y-131081428D01*
X153303690Y-131081428D01*
X153494166Y-131176666D01*
X153589404Y-131367142D01*
X153589404Y-131557619D01*
X152637023Y-131748095D01*
X154256071Y-131081428D02*
X154732261Y-132414761D01*
X155208452Y-131081428D01*
X155970357Y-132224285D02*
X156065595Y-132319523D01*
X155970357Y-132414761D01*
X155875119Y-132319523D01*
X155970357Y-132224285D01*
X155970357Y-132414761D01*
X159494166Y-132414761D02*
X158351309Y-132414761D01*
X158922738Y-132414761D02*
X158922738Y-130414761D01*
X158732261Y-130700476D01*
X158541785Y-130890952D01*
X158351309Y-130986190D01*
X160351309Y-132224285D02*
X160446547Y-132319523D01*
X160351309Y-132414761D01*
X160256071Y-132319523D01*
X160351309Y-132224285D01*
X160351309Y-132414761D01*
X162160833Y-130414761D02*
X161779880Y-130414761D01*
X161589404Y-130510000D01*
X161494166Y-130605238D01*
X161303690Y-130890952D01*
X161208452Y-131271904D01*
X161208452Y-132033809D01*
X161303690Y-132224285D01*
X161398928Y-132319523D01*
X161589404Y-132414761D01*
X161970357Y-132414761D01*
X162160833Y-132319523D01*
X162256071Y-132224285D01*
X162351309Y-132033809D01*
X162351309Y-131557619D01*
X162256071Y-131367142D01*
X162160833Y-131271904D01*
X161970357Y-131176666D01*
X161589404Y-131176666D01*
X161398928Y-131271904D01*
X161303690Y-131367142D01*
X161208452Y-131557619D01*
D12*
X64171428Y-45078571D02*
X64671428Y-46578571D01*
X65171428Y-45078571D01*
X65671428Y-46007142D02*
X66814285Y-46007142D01*
X62971428Y-126478571D02*
X63471428Y-127978571D01*
X63971428Y-126478571D01*
X64471428Y-127407142D02*
X65614285Y-127407142D01*
X65042857Y-127978571D02*
X65042857Y-126835714D01*
X62850000Y-87042857D02*
X62778571Y-87185714D01*
X62778571Y-87400000D01*
X62850000Y-87614285D01*
X62992857Y-87757142D01*
X63135714Y-87828571D01*
X63421428Y-87900000D01*
X63635714Y-87900000D01*
X63921428Y-87828571D01*
X64064285Y-87757142D01*
X64207142Y-87614285D01*
X64278571Y-87400000D01*
X64278571Y-87257142D01*
X64207142Y-87042857D01*
X64135714Y-86971428D01*
X63635714Y-86971428D01*
X63635714Y-87257142D01*
X64278571Y-86328571D02*
X62778571Y-86328571D01*
X64278571Y-85471428D01*
X62778571Y-85471428D01*
X64278571Y-84757142D02*
X62778571Y-84757142D01*
X62778571Y-84400000D01*
X62850000Y-84185714D01*
X62992857Y-84042857D01*
X63135714Y-83971428D01*
X63421428Y-83900000D01*
X63635714Y-83900000D01*
X63921428Y-83971428D01*
X64064285Y-84042857D01*
X64207142Y-84185714D01*
X64278571Y-84400000D01*
X64278571Y-84757142D01*
D10*
X123507142Y-52102380D02*
X123173809Y-51626190D01*
X122935714Y-52102380D02*
X122935714Y-51102380D01*
X123316666Y-51102380D01*
X123411904Y-51150000D01*
X123459523Y-51197619D01*
X123507142Y-51292857D01*
X123507142Y-51435714D01*
X123459523Y-51530952D01*
X123411904Y-51578571D01*
X123316666Y-51626190D01*
X122935714Y-51626190D01*
X123888095Y-51197619D02*
X123935714Y-51150000D01*
X124030952Y-51102380D01*
X124269047Y-51102380D01*
X124364285Y-51150000D01*
X124411904Y-51197619D01*
X124459523Y-51292857D01*
X124459523Y-51388095D01*
X124411904Y-51530952D01*
X123840476Y-52102380D01*
X124459523Y-52102380D01*
X125364285Y-51102380D02*
X124888095Y-51102380D01*
X124840476Y-51578571D01*
X124888095Y-51530952D01*
X124983333Y-51483333D01*
X125221428Y-51483333D01*
X125316666Y-51530952D01*
X125364285Y-51578571D01*
X125411904Y-51673809D01*
X125411904Y-51911904D01*
X125364285Y-52007142D01*
X125316666Y-52054761D01*
X125221428Y-52102380D01*
X124983333Y-52102380D01*
X124888095Y-52054761D01*
X124840476Y-52007142D01*
X178857142Y-42342857D02*
X178904761Y-42390476D01*
X178952380Y-42533333D01*
X178952380Y-42628571D01*
X178904761Y-42771428D01*
X178809523Y-42866666D01*
X178714285Y-42914285D01*
X178523809Y-42961904D01*
X178380952Y-42961904D01*
X178190476Y-42914285D01*
X178095238Y-42866666D01*
X178000000Y-42771428D01*
X177952380Y-42628571D01*
X177952380Y-42533333D01*
X178000000Y-42390476D01*
X178047619Y-42342857D01*
X178047619Y-41961904D02*
X178000000Y-41914285D01*
X177952380Y-41819047D01*
X177952380Y-41580952D01*
X178000000Y-41485714D01*
X178047619Y-41438095D01*
X178142857Y-41390476D01*
X178238095Y-41390476D01*
X178380952Y-41438095D01*
X178952380Y-42009523D01*
X178952380Y-41390476D01*
X177952380Y-40485714D02*
X177952380Y-40961904D01*
X178428571Y-41009523D01*
X178380952Y-40961904D01*
X178333333Y-40866666D01*
X178333333Y-40628571D01*
X178380952Y-40533333D01*
X178428571Y-40485714D01*
X178523809Y-40438095D01*
X178761904Y-40438095D01*
X178857142Y-40485714D01*
X178904761Y-40533333D01*
X178952380Y-40628571D01*
X178952380Y-40866666D01*
X178904761Y-40961904D01*
X178857142Y-41009523D01*
X92333333Y-105757142D02*
X92285714Y-105804761D01*
X92142857Y-105852380D01*
X92047619Y-105852380D01*
X91904761Y-105804761D01*
X91809523Y-105709523D01*
X91761904Y-105614285D01*
X91714285Y-105423809D01*
X91714285Y-105280952D01*
X91761904Y-105090476D01*
X91809523Y-104995238D01*
X91904761Y-104900000D01*
X92047619Y-104852380D01*
X92142857Y-104852380D01*
X92285714Y-104900000D01*
X92333333Y-104947619D01*
X93238095Y-104852380D02*
X92761904Y-104852380D01*
X92714285Y-105328571D01*
X92761904Y-105280952D01*
X92857142Y-105233333D01*
X93095238Y-105233333D01*
X93190476Y-105280952D01*
X93238095Y-105328571D01*
X93285714Y-105423809D01*
X93285714Y-105661904D01*
X93238095Y-105757142D01*
X93190476Y-105804761D01*
X93095238Y-105852380D01*
X92857142Y-105852380D01*
X92761904Y-105804761D01*
X92714285Y-105757142D01*
X98714285Y-101871428D02*
X98514285Y-101585714D01*
X98371428Y-101871428D02*
X98371428Y-101271428D01*
X98600000Y-101271428D01*
X98657142Y-101300000D01*
X98685714Y-101328571D01*
X98714285Y-101385714D01*
X98714285Y-101471428D01*
X98685714Y-101528571D01*
X98657142Y-101557142D01*
X98600000Y-101585714D01*
X98371428Y-101585714D01*
X99285714Y-101871428D02*
X98942857Y-101871428D01*
X99114285Y-101871428D02*
X99114285Y-101271428D01*
X99057142Y-101357142D01*
X99000000Y-101414285D01*
X98942857Y-101442857D01*
X99485714Y-101271428D02*
X99857142Y-101271428D01*
X99657142Y-101500000D01*
X99742857Y-101500000D01*
X99800000Y-101528571D01*
X99828571Y-101557142D01*
X99857142Y-101614285D01*
X99857142Y-101757142D01*
X99828571Y-101814285D01*
X99800000Y-101842857D01*
X99742857Y-101871428D01*
X99571428Y-101871428D01*
X99514285Y-101842857D01*
X99485714Y-101814285D01*
X173338095Y-49852380D02*
X173338095Y-50661904D01*
X173385714Y-50757142D01*
X173433333Y-50804761D01*
X173528571Y-50852380D01*
X173719047Y-50852380D01*
X173814285Y-50804761D01*
X173861904Y-50757142D01*
X173909523Y-50661904D01*
X173909523Y-49852380D01*
X174290476Y-49852380D02*
X174957142Y-49852380D01*
X174528571Y-50852380D01*
X73238095Y-56071428D02*
X74000000Y-56071428D01*
X73619047Y-56452380D02*
X73619047Y-55690476D01*
X75000000Y-56452380D02*
X74428571Y-56452380D01*
X74714285Y-56452380D02*
X74714285Y-55452380D01*
X74619047Y-55595238D01*
X74523809Y-55690476D01*
X74428571Y-55738095D01*
X75619047Y-55452380D02*
X75714285Y-55452380D01*
X75809523Y-55500000D01*
X75857142Y-55547619D01*
X75904761Y-55642857D01*
X75952380Y-55833333D01*
X75952380Y-56071428D01*
X75904761Y-56261904D01*
X75857142Y-56357142D01*
X75809523Y-56404761D01*
X75714285Y-56452380D01*
X75619047Y-56452380D01*
X75523809Y-56404761D01*
X75476190Y-56357142D01*
X75428571Y-56261904D01*
X75380952Y-56071428D01*
X75380952Y-55833333D01*
X75428571Y-55642857D01*
X75476190Y-55547619D01*
X75523809Y-55500000D01*
X75619047Y-55452380D01*
X76238095Y-55452380D02*
X76571428Y-56452380D01*
X76904761Y-55452380D01*
X166314285Y-132271428D02*
X167076190Y-132271428D01*
X166695238Y-132652380D02*
X166695238Y-131890476D01*
X168028571Y-131652380D02*
X167552380Y-131652380D01*
X167504761Y-132128571D01*
X167552380Y-132080952D01*
X167647619Y-132033333D01*
X167885714Y-132033333D01*
X167980952Y-132080952D01*
X168028571Y-132128571D01*
X168076190Y-132223809D01*
X168076190Y-132461904D01*
X168028571Y-132557142D01*
X167980952Y-132604761D01*
X167885714Y-132652380D01*
X167647619Y-132652380D01*
X167552380Y-132604761D01*
X167504761Y-132557142D01*
X168361904Y-131652380D02*
X168695238Y-132652380D01*
X169028571Y-131652380D01*
X183052380Y-46042857D02*
X182576190Y-46376190D01*
X183052380Y-46614285D02*
X182052380Y-46614285D01*
X182052380Y-46233333D01*
X182100000Y-46138095D01*
X182147619Y-46090476D01*
X182242857Y-46042857D01*
X182385714Y-46042857D01*
X182480952Y-46090476D01*
X182528571Y-46138095D01*
X182576190Y-46233333D01*
X182576190Y-46614285D01*
X182147619Y-45661904D02*
X182100000Y-45614285D01*
X182052380Y-45519047D01*
X182052380Y-45280952D01*
X182100000Y-45185714D01*
X182147619Y-45138095D01*
X182242857Y-45090476D01*
X182338095Y-45090476D01*
X182480952Y-45138095D01*
X183052380Y-45709523D01*
X183052380Y-45090476D01*
X182147619Y-44709523D02*
X182100000Y-44661904D01*
X182052380Y-44566666D01*
X182052380Y-44328571D01*
X182100000Y-44233333D01*
X182147619Y-44185714D01*
X182242857Y-44138095D01*
X182338095Y-44138095D01*
X182480952Y-44185714D01*
X183052380Y-44757142D01*
X183052380Y-44138095D01*
X96707142Y-106257142D02*
X96659523Y-106304761D01*
X96516666Y-106352380D01*
X96421428Y-106352380D01*
X96278571Y-106304761D01*
X96183333Y-106209523D01*
X96135714Y-106114285D01*
X96088095Y-105923809D01*
X96088095Y-105780952D01*
X96135714Y-105590476D01*
X96183333Y-105495238D01*
X96278571Y-105400000D01*
X96421428Y-105352380D01*
X96516666Y-105352380D01*
X96659523Y-105400000D01*
X96707142Y-105447619D01*
X97659523Y-106352380D02*
X97088095Y-106352380D01*
X97373809Y-106352380D02*
X97373809Y-105352380D01*
X97278571Y-105495238D01*
X97183333Y-105590476D01*
X97088095Y-105638095D01*
X98611904Y-106352380D02*
X98040476Y-106352380D01*
X98326190Y-106352380D02*
X98326190Y-105352380D01*
X98230952Y-105495238D01*
X98135714Y-105590476D01*
X98040476Y-105638095D01*
X181052380Y-49042857D02*
X180576190Y-49376190D01*
X181052380Y-49614285D02*
X180052380Y-49614285D01*
X180052380Y-49233333D01*
X180100000Y-49138095D01*
X180147619Y-49090476D01*
X180242857Y-49042857D01*
X180385714Y-49042857D01*
X180480952Y-49090476D01*
X180528571Y-49138095D01*
X180576190Y-49233333D01*
X180576190Y-49614285D01*
X180147619Y-48661904D02*
X180100000Y-48614285D01*
X180052380Y-48519047D01*
X180052380Y-48280952D01*
X180100000Y-48185714D01*
X180147619Y-48138095D01*
X180242857Y-48090476D01*
X180338095Y-48090476D01*
X180480952Y-48138095D01*
X181052380Y-48709523D01*
X181052380Y-48090476D01*
X180385714Y-47233333D02*
X181052380Y-47233333D01*
X180004761Y-47471428D02*
X180719047Y-47709523D01*
X180719047Y-47090476D01*
X175909523Y-62257142D02*
X175861904Y-62304761D01*
X175719047Y-62352380D01*
X175623809Y-62352380D01*
X175480952Y-62304761D01*
X175385714Y-62209523D01*
X175338095Y-62114285D01*
X175290476Y-61923809D01*
X175290476Y-61780952D01*
X175338095Y-61590476D01*
X175385714Y-61495238D01*
X175480952Y-61400000D01*
X175623809Y-61352380D01*
X175719047Y-61352380D01*
X175861904Y-61400000D01*
X175909523Y-61447619D01*
X176766666Y-61685714D02*
X176766666Y-62352380D01*
X176338095Y-61685714D02*
X176338095Y-62209523D01*
X176385714Y-62304761D01*
X176480952Y-62352380D01*
X176623809Y-62352380D01*
X176719047Y-62304761D01*
X176766666Y-62257142D01*
X177242857Y-62352380D02*
X177242857Y-61685714D01*
X177242857Y-61876190D02*
X177290476Y-61780952D01*
X177338095Y-61733333D01*
X177433333Y-61685714D01*
X177528571Y-61685714D01*
X177861904Y-62352380D02*
X177861904Y-61685714D01*
X177861904Y-61876190D02*
X177909523Y-61780952D01*
X177957142Y-61733333D01*
X178052380Y-61685714D01*
X178147619Y-61685714D01*
X178242857Y-62447619D02*
X179004761Y-62447619D01*
X179433333Y-61352380D02*
X179623809Y-61352380D01*
X179719047Y-61400000D01*
X179814285Y-61495238D01*
X179861904Y-61685714D01*
X179861904Y-62019047D01*
X179814285Y-62209523D01*
X179719047Y-62304761D01*
X179623809Y-62352380D01*
X179433333Y-62352380D01*
X179338095Y-62304761D01*
X179242857Y-62209523D01*
X179195238Y-62019047D01*
X179195238Y-61685714D01*
X179242857Y-61495238D01*
X179338095Y-61400000D01*
X179433333Y-61352380D01*
X180719047Y-61685714D02*
X180719047Y-62352380D01*
X180290476Y-61685714D02*
X180290476Y-62209523D01*
X180338095Y-62304761D01*
X180433333Y-62352380D01*
X180576190Y-62352380D01*
X180671428Y-62304761D01*
X180719047Y-62257142D01*
X181052380Y-61685714D02*
X181433333Y-61685714D01*
X181195238Y-61352380D02*
X181195238Y-62209523D01*
X181242857Y-62304761D01*
X181338095Y-62352380D01*
X181433333Y-62352380D01*
X182814285Y-62733333D02*
X182766666Y-62685714D01*
X182671428Y-62542857D01*
X182623809Y-62447619D01*
X182576190Y-62304761D01*
X182528571Y-62066666D01*
X182528571Y-61876190D01*
X182576190Y-61638095D01*
X182623809Y-61495238D01*
X182671428Y-61400000D01*
X182766666Y-61257142D01*
X182814285Y-61209523D01*
X183385714Y-61352380D02*
X183576190Y-61352380D01*
X183671428Y-61400000D01*
X183766666Y-61495238D01*
X183814285Y-61685714D01*
X183814285Y-62019047D01*
X183766666Y-62209523D01*
X183671428Y-62304761D01*
X183576190Y-62352380D01*
X183385714Y-62352380D01*
X183290476Y-62304761D01*
X183195238Y-62209523D01*
X183147619Y-62019047D01*
X183147619Y-61685714D01*
X183195238Y-61495238D01*
X183290476Y-61400000D01*
X183385714Y-61352380D01*
X184671428Y-61685714D02*
X184671428Y-62352380D01*
X184242857Y-61685714D02*
X184242857Y-62209523D01*
X184290476Y-62304761D01*
X184385714Y-62352380D01*
X184528571Y-62352380D01*
X184623809Y-62304761D01*
X184671428Y-62257142D01*
X185004761Y-61685714D02*
X185385714Y-61685714D01*
X185147619Y-61352380D02*
X185147619Y-62209523D01*
X185195238Y-62304761D01*
X185290476Y-62352380D01*
X185385714Y-62352380D01*
X185671428Y-61447619D02*
X185719047Y-61400000D01*
X185814285Y-61352380D01*
X186052380Y-61352380D01*
X186147619Y-61400000D01*
X186195238Y-61447619D01*
X186242857Y-61542857D01*
X186242857Y-61638095D01*
X186195238Y-61780952D01*
X185623809Y-62352380D01*
X186242857Y-62352380D01*
X186576190Y-62733333D02*
X186623809Y-62685714D01*
X186719047Y-62542857D01*
X186766666Y-62447619D01*
X186814285Y-62304761D01*
X186861904Y-62066666D01*
X186861904Y-61876190D01*
X186814285Y-61638095D01*
X186766666Y-61495238D01*
X186719047Y-61400000D01*
X186623809Y-61257142D01*
X186576190Y-61209523D01*
X80183333Y-53402380D02*
X79850000Y-52926190D01*
X79611904Y-53402380D02*
X79611904Y-52402380D01*
X79992857Y-52402380D01*
X80088095Y-52450000D01*
X80135714Y-52497619D01*
X80183333Y-52592857D01*
X80183333Y-52735714D01*
X80135714Y-52830952D01*
X80088095Y-52878571D01*
X79992857Y-52926190D01*
X79611904Y-52926190D01*
X80564285Y-52497619D02*
X80611904Y-52450000D01*
X80707142Y-52402380D01*
X80945238Y-52402380D01*
X81040476Y-52450000D01*
X81088095Y-52497619D01*
X81135714Y-52592857D01*
X81135714Y-52688095D01*
X81088095Y-52830952D01*
X80516666Y-53402380D01*
X81135714Y-53402380D01*
X93557142Y-44202380D02*
X93223809Y-43726190D01*
X92985714Y-44202380D02*
X92985714Y-43202380D01*
X93366666Y-43202380D01*
X93461904Y-43250000D01*
X93509523Y-43297619D01*
X93557142Y-43392857D01*
X93557142Y-43535714D01*
X93509523Y-43630952D01*
X93461904Y-43678571D01*
X93366666Y-43726190D01*
X92985714Y-43726190D01*
X94509523Y-44202380D02*
X93938095Y-44202380D01*
X94223809Y-44202380D02*
X94223809Y-43202380D01*
X94128571Y-43345238D01*
X94033333Y-43440476D01*
X93938095Y-43488095D01*
X95128571Y-43202380D02*
X95223809Y-43202380D01*
X95319047Y-43250000D01*
X95366666Y-43297619D01*
X95414285Y-43392857D01*
X95461904Y-43583333D01*
X95461904Y-43821428D01*
X95414285Y-44011904D01*
X95366666Y-44107142D01*
X95319047Y-44154761D01*
X95223809Y-44202380D01*
X95128571Y-44202380D01*
X95033333Y-44154761D01*
X94985714Y-44107142D01*
X94938095Y-44011904D01*
X94890476Y-43821428D01*
X94890476Y-43583333D01*
X94938095Y-43392857D01*
X94985714Y-43297619D01*
X95033333Y-43250000D01*
X95128571Y-43202380D01*
X83557142Y-62452380D02*
X83557142Y-61452380D01*
X83938095Y-61452380D01*
X84033333Y-61500000D01*
X84080952Y-61547619D01*
X84128571Y-61642857D01*
X84128571Y-61785714D01*
X84080952Y-61880952D01*
X84033333Y-61928571D01*
X83938095Y-61976190D01*
X83557142Y-61976190D01*
X84557142Y-62452380D02*
X84557142Y-61785714D01*
X84557142Y-61452380D02*
X84509523Y-61500000D01*
X84557142Y-61547619D01*
X84604761Y-61500000D01*
X84557142Y-61452380D01*
X84557142Y-61547619D01*
X85414285Y-62404761D02*
X85319047Y-62452380D01*
X85128571Y-62452380D01*
X85033333Y-62404761D01*
X84985714Y-62309523D01*
X84985714Y-61928571D01*
X85033333Y-61833333D01*
X85128571Y-61785714D01*
X85319047Y-61785714D01*
X85414285Y-61833333D01*
X85461904Y-61928571D01*
X85461904Y-62023809D01*
X84985714Y-62119047D01*
X85795238Y-61785714D02*
X86319047Y-61785714D01*
X85795238Y-62452380D01*
X86319047Y-62452380D01*
X86842857Y-62452380D02*
X86747619Y-62404761D01*
X86700000Y-62357142D01*
X86652380Y-62261904D01*
X86652380Y-61976190D01*
X86700000Y-61880952D01*
X86747619Y-61833333D01*
X86842857Y-61785714D01*
X86985714Y-61785714D01*
X87080952Y-61833333D01*
X87128571Y-61880952D01*
X87176190Y-61976190D01*
X87176190Y-62261904D01*
X87128571Y-62357142D01*
X87080952Y-62404761D01*
X86985714Y-62452380D01*
X86842857Y-62452380D01*
X87366666Y-62547619D02*
X88128571Y-62547619D01*
X88366666Y-62452380D02*
X88366666Y-61452380D01*
X88842857Y-61785714D02*
X88842857Y-62452380D01*
X88842857Y-61880952D02*
X88890476Y-61833333D01*
X88985714Y-61785714D01*
X89128571Y-61785714D01*
X89223809Y-61833333D01*
X89271428Y-61928571D01*
X89271428Y-62452380D01*
X90795238Y-62833333D02*
X90747619Y-62785714D01*
X90652380Y-62642857D01*
X90604761Y-62547619D01*
X90557142Y-62404761D01*
X90509523Y-62166666D01*
X90509523Y-61976190D01*
X90557142Y-61738095D01*
X90604761Y-61595238D01*
X90652380Y-61500000D01*
X90747619Y-61357142D01*
X90795238Y-61309523D01*
X91366666Y-61452380D02*
X91557142Y-61452380D01*
X91652380Y-61500000D01*
X91747619Y-61595238D01*
X91795238Y-61785714D01*
X91795238Y-62119047D01*
X91747619Y-62309523D01*
X91652380Y-62404761D01*
X91557142Y-62452380D01*
X91366666Y-62452380D01*
X91271428Y-62404761D01*
X91176190Y-62309523D01*
X91128571Y-62119047D01*
X91128571Y-61785714D01*
X91176190Y-61595238D01*
X91271428Y-61500000D01*
X91366666Y-61452380D01*
X92652380Y-61785714D02*
X92652380Y-62452380D01*
X92223809Y-61785714D02*
X92223809Y-62309523D01*
X92271428Y-62404761D01*
X92366666Y-62452380D01*
X92509523Y-62452380D01*
X92604761Y-62404761D01*
X92652380Y-62357142D01*
X92985714Y-61785714D02*
X93366666Y-61785714D01*
X93128571Y-61452380D02*
X93128571Y-62309523D01*
X93176190Y-62404761D01*
X93271428Y-62452380D01*
X93366666Y-62452380D01*
X94223809Y-62452380D02*
X93652380Y-62452380D01*
X93938095Y-62452380D02*
X93938095Y-61452380D01*
X93842857Y-61595238D01*
X93747619Y-61690476D01*
X93652380Y-61738095D01*
X94557142Y-62833333D02*
X94604761Y-62785714D01*
X94699999Y-62642857D01*
X94747619Y-62547619D01*
X94795238Y-62404761D01*
X94842857Y-62166666D01*
X94842857Y-61976190D01*
X94795238Y-61738095D01*
X94747619Y-61595238D01*
X94699999Y-61500000D01*
X94604761Y-61357142D01*
X94557142Y-61309523D01*
X71757142Y-69557142D02*
X71709523Y-69604761D01*
X71566666Y-69652380D01*
X71471428Y-69652380D01*
X71328571Y-69604761D01*
X71233333Y-69509523D01*
X71185714Y-69414285D01*
X71138095Y-69223809D01*
X71138095Y-69080952D01*
X71185714Y-68890476D01*
X71233333Y-68795238D01*
X71328571Y-68700000D01*
X71471428Y-68652380D01*
X71566666Y-68652380D01*
X71709523Y-68700000D01*
X71757142Y-68747619D01*
X72138095Y-68747619D02*
X72185714Y-68700000D01*
X72280952Y-68652380D01*
X72519047Y-68652380D01*
X72614285Y-68700000D01*
X72661904Y-68747619D01*
X72709523Y-68842857D01*
X72709523Y-68938095D01*
X72661904Y-69080952D01*
X72090476Y-69652380D01*
X72709523Y-69652380D01*
X73661904Y-69652380D02*
X73090476Y-69652380D01*
X73376190Y-69652380D02*
X73376190Y-68652380D01*
X73280952Y-68795238D01*
X73185714Y-68890476D01*
X73090476Y-68938095D01*
X95557142Y-66742857D02*
X95604761Y-66790476D01*
X95652380Y-66933333D01*
X95652380Y-67028571D01*
X95604761Y-67171428D01*
X95509523Y-67266666D01*
X95414285Y-67314285D01*
X95223809Y-67361904D01*
X95080952Y-67361904D01*
X94890476Y-67314285D01*
X94795238Y-67266666D01*
X94700000Y-67171428D01*
X94652380Y-67028571D01*
X94652380Y-66933333D01*
X94700000Y-66790476D01*
X94747619Y-66742857D01*
X95652380Y-65790476D02*
X95652380Y-66361904D01*
X95652380Y-66076190D02*
X94652380Y-66076190D01*
X94795238Y-66171428D01*
X94890476Y-66266666D01*
X94938095Y-66361904D01*
X94652380Y-65171428D02*
X94652380Y-65076190D01*
X94700000Y-64980952D01*
X94747619Y-64933333D01*
X94842857Y-64885714D01*
X95033333Y-64838095D01*
X95271428Y-64838095D01*
X95461904Y-64885714D01*
X95557142Y-64933333D01*
X95604761Y-64980952D01*
X95652380Y-65076190D01*
X95652380Y-65171428D01*
X95604761Y-65266666D01*
X95557142Y-65314285D01*
X95461904Y-65361904D01*
X95271428Y-65409523D01*
X95033333Y-65409523D01*
X94842857Y-65361904D01*
X94747619Y-65314285D01*
X94700000Y-65266666D01*
X94652380Y-65171428D01*
X168523380Y-121063666D02*
X168047190Y-121397000D01*
X168523380Y-121635095D02*
X167523380Y-121635095D01*
X167523380Y-121254142D01*
X167571000Y-121158904D01*
X167618619Y-121111285D01*
X167713857Y-121063666D01*
X167856714Y-121063666D01*
X167951952Y-121111285D01*
X167999571Y-121158904D01*
X168047190Y-121254142D01*
X168047190Y-121635095D01*
X168523380Y-120635095D02*
X167523380Y-120635095D01*
X167523380Y-120254142D01*
X167571000Y-120158904D01*
X167618619Y-120111285D01*
X167713857Y-120063666D01*
X167856714Y-120063666D01*
X167951952Y-120111285D01*
X167999571Y-120158904D01*
X168047190Y-120254142D01*
X168047190Y-120635095D01*
X168523380Y-119111285D02*
X168523380Y-119682714D01*
X168523380Y-119397000D02*
X167523380Y-119397000D01*
X167666238Y-119492238D01*
X167761476Y-119587476D01*
X167809095Y-119682714D01*
D13*
X133602390Y-94491061D02*
X132935723Y-93538680D01*
X132459533Y-94491061D02*
X132459533Y-92491061D01*
X133221438Y-92491061D01*
X133411914Y-92586300D01*
X133507152Y-92681538D01*
X133602390Y-92872014D01*
X133602390Y-93157728D01*
X133507152Y-93348204D01*
X133411914Y-93443442D01*
X133221438Y-93538680D01*
X132459533Y-93538680D01*
X135221438Y-94395823D02*
X135030961Y-94491061D01*
X134650009Y-94491061D01*
X134459533Y-94395823D01*
X134364295Y-94205347D01*
X134364295Y-93443442D01*
X134459533Y-93252966D01*
X134650009Y-93157728D01*
X135030961Y-93157728D01*
X135221438Y-93252966D01*
X135316676Y-93443442D01*
X135316676Y-93633919D01*
X134364295Y-93824395D01*
X137030961Y-94491061D02*
X137030961Y-92491061D01*
X137030961Y-94395823D02*
X136840485Y-94491061D01*
X136459533Y-94491061D01*
X136269057Y-94395823D01*
X136173819Y-94300585D01*
X136078580Y-94110109D01*
X136078580Y-93538680D01*
X136173819Y-93348204D01*
X136269057Y-93252966D01*
X136459533Y-93157728D01*
X136840485Y-93157728D01*
X137030961Y-93252966D01*
X137983342Y-94491061D02*
X137983342Y-92491061D01*
X138745247Y-92491061D01*
X138935723Y-92586300D01*
X139030961Y-92681538D01*
X139126200Y-92872014D01*
X139126200Y-93157728D01*
X139030961Y-93348204D01*
X138935723Y-93443442D01*
X138745247Y-93538680D01*
X137983342Y-93538680D01*
X139983342Y-94491061D02*
X139983342Y-93157728D01*
X139983342Y-92491061D02*
X139888104Y-92586300D01*
X139983342Y-92681538D01*
X140078580Y-92586300D01*
X139983342Y-92491061D01*
X139983342Y-92681538D01*
X140650009Y-93157728D02*
X141411914Y-93157728D01*
X140935723Y-92491061D02*
X140935723Y-94205347D01*
X141030961Y-94395823D01*
X141221438Y-94491061D01*
X141411914Y-94491061D01*
X142935723Y-94491061D02*
X142935723Y-93443442D01*
X142840485Y-93252966D01*
X142650009Y-93157728D01*
X142269057Y-93157728D01*
X142078580Y-93252966D01*
X142935723Y-94395823D02*
X142745247Y-94491061D01*
X142269057Y-94491061D01*
X142078580Y-94395823D01*
X141983342Y-94205347D01*
X141983342Y-94014871D01*
X142078580Y-93824395D01*
X142269057Y-93729157D01*
X142745247Y-93729157D01*
X142935723Y-93633919D01*
X143697628Y-93157728D02*
X144173819Y-94491061D01*
X144650009Y-93157728D02*
X144173819Y-94491061D01*
X143983342Y-94967252D01*
X143888104Y-95062490D01*
X143697628Y-95157728D01*
X146269057Y-94491061D02*
X146269057Y-93443442D01*
X146173819Y-93252966D01*
X145983342Y-93157728D01*
X145602390Y-93157728D01*
X145411914Y-93252966D01*
X146269057Y-94395823D02*
X146078580Y-94491061D01*
X145602390Y-94491061D01*
X145411914Y-94395823D01*
X145316676Y-94205347D01*
X145316676Y-94014871D01*
X145411914Y-93824395D01*
X145602390Y-93729157D01*
X146078580Y-93729157D01*
X146269057Y-93633919D01*
X146745247Y-94681538D02*
X148269057Y-94681538D01*
X149792866Y-94491061D02*
X148650009Y-94491061D01*
X149221438Y-94491061D02*
X149221438Y-92491061D01*
X149030961Y-92776776D01*
X148840485Y-92967252D01*
X148650009Y-93062490D01*
X150554771Y-92681538D02*
X150650009Y-92586300D01*
X150840485Y-92491061D01*
X151316676Y-92491061D01*
X151507152Y-92586300D01*
X151602390Y-92681538D01*
X151697628Y-92872014D01*
X151697628Y-93062490D01*
X151602390Y-93348204D01*
X150459533Y-94491061D01*
X151697628Y-94491061D01*
X153507152Y-92491061D02*
X152554771Y-92491061D01*
X152459533Y-93443442D01*
X152554771Y-93348204D01*
X152745247Y-93252966D01*
X153221438Y-93252966D01*
X153411914Y-93348204D01*
X153507152Y-93443442D01*
X153602390Y-93633919D01*
X153602390Y-94110109D01*
X153507152Y-94300585D01*
X153411914Y-94395823D01*
X153221438Y-94491061D01*
X152745247Y-94491061D01*
X152554771Y-94395823D01*
X152459533Y-94300585D01*
X154459533Y-93729157D02*
X155983342Y-93729157D01*
X157983342Y-94491061D02*
X156840485Y-94491061D01*
X157411914Y-94491061D02*
X157411914Y-92491061D01*
X157221438Y-92776776D01*
X157030961Y-92967252D01*
X156840485Y-93062490D01*
X159697628Y-93157728D02*
X159697628Y-94491061D01*
X159221438Y-92395823D02*
X158745247Y-93824395D01*
X159983342Y-93824395D01*
X129419047Y-115657142D02*
X130085714Y-115657142D01*
X130371428Y-116704761D02*
X129419047Y-116704761D01*
X129419047Y-114704761D01*
X130371428Y-114704761D01*
X131133333Y-114895238D02*
X131228571Y-114800000D01*
X131419047Y-114704761D01*
X131895238Y-114704761D01*
X132085714Y-114800000D01*
X132180952Y-114895238D01*
X132276190Y-115085714D01*
X132276190Y-115276190D01*
X132180952Y-115561904D01*
X131038095Y-116704761D01*
X132276190Y-116704761D01*
D10*
X109152380Y-113566666D02*
X109152380Y-114042857D01*
X108152380Y-114042857D01*
X108152380Y-113328571D02*
X108152380Y-112709523D01*
X108533333Y-113042857D01*
X108533333Y-112900000D01*
X108580952Y-112804761D01*
X108628571Y-112757142D01*
X108723809Y-112709523D01*
X108961904Y-112709523D01*
X109057142Y-112757142D01*
X109104761Y-112804761D01*
X109152380Y-112900000D01*
X109152380Y-113185714D01*
X109104761Y-113280952D01*
X109057142Y-113328571D01*
X68828095Y-71322380D02*
X68828095Y-72131904D01*
X68875714Y-72227142D01*
X68923333Y-72274761D01*
X69018571Y-72322380D01*
X69209047Y-72322380D01*
X69304285Y-72274761D01*
X69351904Y-72227142D01*
X69399523Y-72131904D01*
X69399523Y-71322380D01*
X70399523Y-72322380D02*
X69828095Y-72322380D01*
X70113809Y-72322380D02*
X70113809Y-71322380D01*
X70018571Y-71465238D01*
X69923333Y-71560476D01*
X69828095Y-71608095D01*
X75233333Y-80757142D02*
X75185714Y-80804761D01*
X75042857Y-80852380D01*
X74947619Y-80852380D01*
X74804761Y-80804761D01*
X74709523Y-80709523D01*
X74661904Y-80614285D01*
X74614285Y-80423809D01*
X74614285Y-80280952D01*
X74661904Y-80090476D01*
X74709523Y-79995238D01*
X74804761Y-79900000D01*
X74947619Y-79852380D01*
X75042857Y-79852380D01*
X75185714Y-79900000D01*
X75233333Y-79947619D01*
X75804761Y-80280952D02*
X75709523Y-80233333D01*
X75661904Y-80185714D01*
X75614285Y-80090476D01*
X75614285Y-80042857D01*
X75661904Y-79947619D01*
X75709523Y-79900000D01*
X75804761Y-79852380D01*
X75995238Y-79852380D01*
X76090476Y-79900000D01*
X76138095Y-79947619D01*
X76185714Y-80042857D01*
X76185714Y-80090476D01*
X76138095Y-80185714D01*
X76090476Y-80233333D01*
X75995238Y-80280952D01*
X75804761Y-80280952D01*
X75709523Y-80328571D01*
X75661904Y-80376190D01*
X75614285Y-80471428D01*
X75614285Y-80661904D01*
X75661904Y-80757142D01*
X75709523Y-80804761D01*
X75804761Y-80852380D01*
X75995238Y-80852380D01*
X76090476Y-80804761D01*
X76138095Y-80757142D01*
X76185714Y-80661904D01*
X76185714Y-80471428D01*
X76138095Y-80376190D01*
X76090476Y-80328571D01*
X75995238Y-80280952D01*
X79138095Y-78571428D02*
X79900000Y-78571428D01*
X79519047Y-78952380D02*
X79519047Y-78190476D01*
X80900000Y-78952380D02*
X80328571Y-78952380D01*
X80614285Y-78952380D02*
X80614285Y-77952380D01*
X80519047Y-78095238D01*
X80423809Y-78190476D01*
X80328571Y-78238095D01*
X81280952Y-78047619D02*
X81328571Y-78000000D01*
X81423809Y-77952380D01*
X81661904Y-77952380D01*
X81757142Y-78000000D01*
X81804761Y-78047619D01*
X81852380Y-78142857D01*
X81852380Y-78238095D01*
X81804761Y-78380952D01*
X81233333Y-78952380D01*
X81852380Y-78952380D01*
X82138095Y-77952380D02*
X82471428Y-78952380D01*
X82804761Y-77952380D01*
X127857142Y-58702380D02*
X127523809Y-58226190D01*
X127285714Y-58702380D02*
X127285714Y-57702380D01*
X127666666Y-57702380D01*
X127761904Y-57750000D01*
X127809523Y-57797619D01*
X127857142Y-57892857D01*
X127857142Y-58035714D01*
X127809523Y-58130952D01*
X127761904Y-58178571D01*
X127666666Y-58226190D01*
X127285714Y-58226190D01*
X128238095Y-57797619D02*
X128285714Y-57750000D01*
X128380952Y-57702380D01*
X128619047Y-57702380D01*
X128714285Y-57750000D01*
X128761904Y-57797619D01*
X128809523Y-57892857D01*
X128809523Y-57988095D01*
X128761904Y-58130952D01*
X128190476Y-58702380D01*
X128809523Y-58702380D01*
X129142857Y-57702380D02*
X129809523Y-57702380D01*
X129380952Y-58702380D01*
X113957142Y-56742857D02*
X114004761Y-56790476D01*
X114052380Y-56933333D01*
X114052380Y-57028571D01*
X114004761Y-57171428D01*
X113909523Y-57266666D01*
X113814285Y-57314285D01*
X113623809Y-57361904D01*
X113480952Y-57361904D01*
X113290476Y-57314285D01*
X113195238Y-57266666D01*
X113100000Y-57171428D01*
X113052380Y-57028571D01*
X113052380Y-56933333D01*
X113100000Y-56790476D01*
X113147619Y-56742857D01*
X114052380Y-55790476D02*
X114052380Y-56361904D01*
X114052380Y-56076190D02*
X113052380Y-56076190D01*
X113195238Y-56171428D01*
X113290476Y-56266666D01*
X113338095Y-56361904D01*
X113480952Y-55219047D02*
X113433333Y-55314285D01*
X113385714Y-55361904D01*
X113290476Y-55409523D01*
X113242857Y-55409523D01*
X113147619Y-55361904D01*
X113100000Y-55314285D01*
X113052380Y-55219047D01*
X113052380Y-55028571D01*
X113100000Y-54933333D01*
X113147619Y-54885714D01*
X113242857Y-54838095D01*
X113290476Y-54838095D01*
X113385714Y-54885714D01*
X113433333Y-54933333D01*
X113480952Y-55028571D01*
X113480952Y-55219047D01*
X113528571Y-55314285D01*
X113576190Y-55361904D01*
X113671428Y-55409523D01*
X113861904Y-55409523D01*
X113957142Y-55361904D01*
X114004761Y-55314285D01*
X114052380Y-55219047D01*
X114052380Y-55028571D01*
X114004761Y-54933333D01*
X113957142Y-54885714D01*
X113861904Y-54838095D01*
X113671428Y-54838095D01*
X113576190Y-54885714D01*
X113528571Y-54933333D01*
X113480952Y-55028571D01*
X91657142Y-112157142D02*
X91609523Y-112204761D01*
X91466666Y-112252380D01*
X91371428Y-112252380D01*
X91228571Y-112204761D01*
X91133333Y-112109523D01*
X91085714Y-112014285D01*
X91038095Y-111823809D01*
X91038095Y-111680952D01*
X91085714Y-111490476D01*
X91133333Y-111395238D01*
X91228571Y-111300000D01*
X91371428Y-111252380D01*
X91466666Y-111252380D01*
X91609523Y-111300000D01*
X91657142Y-111347619D01*
X92038095Y-111347619D02*
X92085714Y-111300000D01*
X92180952Y-111252380D01*
X92419047Y-111252380D01*
X92514285Y-111300000D01*
X92561904Y-111347619D01*
X92609523Y-111442857D01*
X92609523Y-111538095D01*
X92561904Y-111680952D01*
X91990476Y-112252380D01*
X92609523Y-112252380D01*
X93228571Y-111252380D02*
X93323809Y-111252380D01*
X93419047Y-111300000D01*
X93466666Y-111347619D01*
X93514285Y-111442857D01*
X93561904Y-111633333D01*
X93561904Y-111871428D01*
X93514285Y-112061904D01*
X93466666Y-112157142D01*
X93419047Y-112204761D01*
X93323809Y-112252380D01*
X93228571Y-112252380D01*
X93133333Y-112204761D01*
X93085714Y-112157142D01*
X93038095Y-112061904D01*
X92990476Y-111871428D01*
X92990476Y-111633333D01*
X93038095Y-111442857D01*
X93085714Y-111347619D01*
X93133333Y-111300000D01*
X93228571Y-111252380D01*
X76128095Y-39891428D02*
X76890000Y-39891428D01*
X77890000Y-40272380D02*
X77318571Y-40272380D01*
X77604285Y-40272380D02*
X77604285Y-39272380D01*
X77509047Y-39415238D01*
X77413809Y-39510476D01*
X77318571Y-39558095D01*
X78270952Y-39367619D02*
X78318571Y-39320000D01*
X78413809Y-39272380D01*
X78651904Y-39272380D01*
X78747142Y-39320000D01*
X78794761Y-39367619D01*
X78842380Y-39462857D01*
X78842380Y-39558095D01*
X78794761Y-39700952D01*
X78223333Y-40272380D01*
X78842380Y-40272380D01*
X79128095Y-39272380D02*
X79461428Y-40272380D01*
X79794761Y-39272380D01*
X104457142Y-60352380D02*
X104123809Y-59876190D01*
X103885714Y-60352380D02*
X103885714Y-59352380D01*
X104266666Y-59352380D01*
X104361904Y-59400000D01*
X104409523Y-59447619D01*
X104457142Y-59542857D01*
X104457142Y-59685714D01*
X104409523Y-59780952D01*
X104361904Y-59828571D01*
X104266666Y-59876190D01*
X103885714Y-59876190D01*
X105409523Y-60352380D02*
X104838095Y-60352380D01*
X105123809Y-60352380D02*
X105123809Y-59352380D01*
X105028571Y-59495238D01*
X104933333Y-59590476D01*
X104838095Y-59638095D01*
X105790476Y-59447619D02*
X105838095Y-59400000D01*
X105933333Y-59352380D01*
X106171428Y-59352380D01*
X106266666Y-59400000D01*
X106314285Y-59447619D01*
X106361904Y-59542857D01*
X106361904Y-59638095D01*
X106314285Y-59780952D01*
X105742857Y-60352380D01*
X106361904Y-60352380D01*
X94977380Y-52161904D02*
X95786904Y-52161904D01*
X95882142Y-52114285D01*
X95929761Y-52066666D01*
X95977380Y-51971428D01*
X95977380Y-51780952D01*
X95929761Y-51685714D01*
X95882142Y-51638095D01*
X95786904Y-51590476D01*
X94977380Y-51590476D01*
X95310714Y-50685714D02*
X95977380Y-50685714D01*
X94929761Y-50923809D02*
X95644047Y-51161904D01*
X95644047Y-50542857D01*
X125657142Y-46742857D02*
X125704761Y-46790476D01*
X125752380Y-46933333D01*
X125752380Y-47028571D01*
X125704761Y-47171428D01*
X125609523Y-47266666D01*
X125514285Y-47314285D01*
X125323809Y-47361904D01*
X125180952Y-47361904D01*
X124990476Y-47314285D01*
X124895238Y-47266666D01*
X124800000Y-47171428D01*
X124752380Y-47028571D01*
X124752380Y-46933333D01*
X124800000Y-46790476D01*
X124847619Y-46742857D01*
X124847619Y-46361904D02*
X124800000Y-46314285D01*
X124752380Y-46219047D01*
X124752380Y-45980952D01*
X124800000Y-45885714D01*
X124847619Y-45838095D01*
X124942857Y-45790476D01*
X125038095Y-45790476D01*
X125180952Y-45838095D01*
X125752380Y-46409523D01*
X125752380Y-45790476D01*
X124847619Y-45409523D02*
X124800000Y-45361904D01*
X124752380Y-45266666D01*
X124752380Y-45028571D01*
X124800000Y-44933333D01*
X124847619Y-44885714D01*
X124942857Y-44838095D01*
X125038095Y-44838095D01*
X125180952Y-44885714D01*
X125752380Y-45457142D01*
X125752380Y-44838095D01*
X113657142Y-46042857D02*
X113704761Y-46090476D01*
X113752380Y-46233333D01*
X113752380Y-46328571D01*
X113704761Y-46471428D01*
X113609523Y-46566666D01*
X113514285Y-46614285D01*
X113323809Y-46661904D01*
X113180952Y-46661904D01*
X112990476Y-46614285D01*
X112895238Y-46566666D01*
X112800000Y-46471428D01*
X112752380Y-46328571D01*
X112752380Y-46233333D01*
X112800000Y-46090476D01*
X112847619Y-46042857D01*
X113752380Y-45090476D02*
X113752380Y-45661904D01*
X113752380Y-45376190D02*
X112752380Y-45376190D01*
X112895238Y-45471428D01*
X112990476Y-45566666D01*
X113038095Y-45661904D01*
X113752380Y-44614285D02*
X113752380Y-44423809D01*
X113704761Y-44328571D01*
X113657142Y-44280952D01*
X113514285Y-44185714D01*
X113323809Y-44138095D01*
X112942857Y-44138095D01*
X112847619Y-44185714D01*
X112800000Y-44233333D01*
X112752380Y-44328571D01*
X112752380Y-44519047D01*
X112800000Y-44614285D01*
X112847619Y-44661904D01*
X112942857Y-44709523D01*
X113180952Y-44709523D01*
X113276190Y-44661904D01*
X113323809Y-44614285D01*
X113371428Y-44519047D01*
X113371428Y-44328571D01*
X113323809Y-44233333D01*
X113276190Y-44185714D01*
X113180952Y-44138095D01*
X80133333Y-91957142D02*
X80085714Y-92004761D01*
X79942857Y-92052380D01*
X79847619Y-92052380D01*
X79704761Y-92004761D01*
X79609523Y-91909523D01*
X79561904Y-91814285D01*
X79514285Y-91623809D01*
X79514285Y-91480952D01*
X79561904Y-91290476D01*
X79609523Y-91195238D01*
X79704761Y-91100000D01*
X79847619Y-91052380D01*
X79942857Y-91052380D01*
X80085714Y-91100000D01*
X80133333Y-91147619D01*
X80514285Y-91147619D02*
X80561904Y-91100000D01*
X80657142Y-91052380D01*
X80895238Y-91052380D01*
X80990476Y-91100000D01*
X81038095Y-91147619D01*
X81085714Y-91242857D01*
X81085714Y-91338095D01*
X81038095Y-91480952D01*
X80466666Y-92052380D01*
X81085714Y-92052380D01*
X131452380Y-52261904D02*
X132261904Y-52261904D01*
X132357142Y-52214285D01*
X132404761Y-52166666D01*
X132452380Y-52071428D01*
X132452380Y-51880952D01*
X132404761Y-51785714D01*
X132357142Y-51738095D01*
X132261904Y-51690476D01*
X131452380Y-51690476D01*
X131880952Y-51071428D02*
X131833333Y-51166666D01*
X131785714Y-51214285D01*
X131690476Y-51261904D01*
X131642857Y-51261904D01*
X131547619Y-51214285D01*
X131500000Y-51166666D01*
X131452380Y-51071428D01*
X131452380Y-50880952D01*
X131500000Y-50785714D01*
X131547619Y-50738095D01*
X131642857Y-50690476D01*
X131690476Y-50690476D01*
X131785714Y-50738095D01*
X131833333Y-50785714D01*
X131880952Y-50880952D01*
X131880952Y-51071428D01*
X131928571Y-51166666D01*
X131976190Y-51214285D01*
X132071428Y-51261904D01*
X132261904Y-51261904D01*
X132357142Y-51214285D01*
X132404761Y-51166666D01*
X132452380Y-51071428D01*
X132452380Y-50880952D01*
X132404761Y-50785714D01*
X132357142Y-50738095D01*
X132261904Y-50690476D01*
X132071428Y-50690476D01*
X131976190Y-50738095D01*
X131928571Y-50785714D01*
X131880952Y-50880952D01*
X133857142Y-55742857D02*
X133904761Y-55790476D01*
X133952380Y-55933333D01*
X133952380Y-56028571D01*
X133904761Y-56171428D01*
X133809523Y-56266666D01*
X133714285Y-56314285D01*
X133523809Y-56361904D01*
X133380952Y-56361904D01*
X133190476Y-56314285D01*
X133095238Y-56266666D01*
X133000000Y-56171428D01*
X132952380Y-56028571D01*
X132952380Y-55933333D01*
X133000000Y-55790476D01*
X133047619Y-55742857D01*
X133047619Y-55361904D02*
X133000000Y-55314285D01*
X132952380Y-55219047D01*
X132952380Y-54980952D01*
X133000000Y-54885714D01*
X133047619Y-54838095D01*
X133142857Y-54790476D01*
X133238095Y-54790476D01*
X133380952Y-54838095D01*
X133952380Y-55409523D01*
X133952380Y-54790476D01*
X132952380Y-54457142D02*
X132952380Y-53838095D01*
X133333333Y-54171428D01*
X133333333Y-54028571D01*
X133380952Y-53933333D01*
X133428571Y-53885714D01*
X133523809Y-53838095D01*
X133761904Y-53838095D01*
X133857142Y-53885714D01*
X133904761Y-53933333D01*
X133952380Y-54028571D01*
X133952380Y-54314285D01*
X133904761Y-54409523D01*
X133857142Y-54457142D01*
X89633333Y-66402380D02*
X89300000Y-65926190D01*
X89061904Y-66402380D02*
X89061904Y-65402380D01*
X89442857Y-65402380D01*
X89538095Y-65450000D01*
X89585714Y-65497619D01*
X89633333Y-65592857D01*
X89633333Y-65735714D01*
X89585714Y-65830952D01*
X89538095Y-65878571D01*
X89442857Y-65926190D01*
X89061904Y-65926190D01*
X90490476Y-65402380D02*
X90300000Y-65402380D01*
X90204761Y-65450000D01*
X90157142Y-65497619D01*
X90061904Y-65640476D01*
X90014285Y-65830952D01*
X90014285Y-66211904D01*
X90061904Y-66307142D01*
X90109523Y-66354761D01*
X90204761Y-66402380D01*
X90395238Y-66402380D01*
X90490476Y-66354761D01*
X90538095Y-66307142D01*
X90585714Y-66211904D01*
X90585714Y-65973809D01*
X90538095Y-65878571D01*
X90490476Y-65830952D01*
X90395238Y-65783333D01*
X90204761Y-65783333D01*
X90109523Y-65830952D01*
X90061904Y-65878571D01*
X90014285Y-65973809D01*
X106957142Y-56752380D02*
X106623809Y-56276190D01*
X106385714Y-56752380D02*
X106385714Y-55752380D01*
X106766666Y-55752380D01*
X106861904Y-55800000D01*
X106909523Y-55847619D01*
X106957142Y-55942857D01*
X106957142Y-56085714D01*
X106909523Y-56180952D01*
X106861904Y-56228571D01*
X106766666Y-56276190D01*
X106385714Y-56276190D01*
X107909523Y-56752380D02*
X107338095Y-56752380D01*
X107623809Y-56752380D02*
X107623809Y-55752380D01*
X107528571Y-55895238D01*
X107433333Y-55990476D01*
X107338095Y-56038095D01*
X108766666Y-56085714D02*
X108766666Y-56752380D01*
X108528571Y-55704761D02*
X108290476Y-56419047D01*
X108909523Y-56419047D01*
X107502380Y-45842857D02*
X107026190Y-46176190D01*
X107502380Y-46414285D02*
X106502380Y-46414285D01*
X106502380Y-46033333D01*
X106550000Y-45938095D01*
X106597619Y-45890476D01*
X106692857Y-45842857D01*
X106835714Y-45842857D01*
X106930952Y-45890476D01*
X106978571Y-45938095D01*
X107026190Y-46033333D01*
X107026190Y-46414285D01*
X107502380Y-44890476D02*
X107502380Y-45461904D01*
X107502380Y-45176190D02*
X106502380Y-45176190D01*
X106645238Y-45271428D01*
X106740476Y-45366666D01*
X106788095Y-45461904D01*
X106930952Y-44319047D02*
X106883333Y-44414285D01*
X106835714Y-44461904D01*
X106740476Y-44509523D01*
X106692857Y-44509523D01*
X106597619Y-44461904D01*
X106550000Y-44414285D01*
X106502380Y-44319047D01*
X106502380Y-44128571D01*
X106550000Y-44033333D01*
X106597619Y-43985714D01*
X106692857Y-43938095D01*
X106740476Y-43938095D01*
X106835714Y-43985714D01*
X106883333Y-44033333D01*
X106930952Y-44128571D01*
X106930952Y-44319047D01*
X106978571Y-44414285D01*
X107026190Y-44461904D01*
X107121428Y-44509523D01*
X107311904Y-44509523D01*
X107407142Y-44461904D01*
X107454761Y-44414285D01*
X107502380Y-44319047D01*
X107502380Y-44128571D01*
X107454761Y-44033333D01*
X107407142Y-43985714D01*
X107311904Y-43938095D01*
X107121428Y-43938095D01*
X107026190Y-43985714D01*
X106978571Y-44033333D01*
X106930952Y-44128571D01*
X73052380Y-102966666D02*
X73052380Y-103442857D01*
X72052380Y-103442857D01*
X72147619Y-102680952D02*
X72100000Y-102633333D01*
X72052380Y-102538095D01*
X72052380Y-102300000D01*
X72100000Y-102204761D01*
X72147619Y-102157142D01*
X72242857Y-102109523D01*
X72338095Y-102109523D01*
X72480952Y-102157142D01*
X73052380Y-102728571D01*
X73052380Y-102109523D01*
X87314285Y-99800000D02*
X87342857Y-99828571D01*
X87371428Y-99914285D01*
X87371428Y-99971428D01*
X87342857Y-100057142D01*
X87285714Y-100114285D01*
X87228571Y-100142857D01*
X87114285Y-100171428D01*
X87028571Y-100171428D01*
X86914285Y-100142857D01*
X86857142Y-100114285D01*
X86800000Y-100057142D01*
X86771428Y-99971428D01*
X86771428Y-99914285D01*
X86800000Y-99828571D01*
X86828571Y-99800000D01*
X86771428Y-99285714D02*
X86771428Y-99400000D01*
X86800000Y-99457142D01*
X86828571Y-99485714D01*
X86914285Y-99542857D01*
X87028571Y-99571428D01*
X87257142Y-99571428D01*
X87314285Y-99542857D01*
X87342857Y-99514285D01*
X87371428Y-99457142D01*
X87371428Y-99342857D01*
X87342857Y-99285714D01*
X87314285Y-99257142D01*
X87257142Y-99228571D01*
X87114285Y-99228571D01*
X87057142Y-99257142D01*
X87028571Y-99285714D01*
X87000000Y-99342857D01*
X87000000Y-99457142D01*
X87028571Y-99514285D01*
X87057142Y-99542857D01*
X87114285Y-99571428D01*
X149647619Y-61828571D02*
X149980952Y-61828571D01*
X150123809Y-62352380D02*
X149647619Y-62352380D01*
X149647619Y-61352380D01*
X150123809Y-61352380D01*
X150552380Y-62352380D02*
X150552380Y-61685714D01*
X150552380Y-61876190D02*
X150600000Y-61780952D01*
X150647619Y-61733333D01*
X150742857Y-61685714D01*
X150838095Y-61685714D01*
X151171428Y-62352380D02*
X151171428Y-61685714D01*
X151171428Y-61876190D02*
X151219047Y-61780952D01*
X151266666Y-61733333D01*
X151361904Y-61685714D01*
X151457142Y-61685714D01*
X151933333Y-62352380D02*
X151838095Y-62304761D01*
X151790476Y-62257142D01*
X151742857Y-62161904D01*
X151742857Y-61876190D01*
X151790476Y-61780952D01*
X151838095Y-61733333D01*
X151933333Y-61685714D01*
X152076190Y-61685714D01*
X152171428Y-61733333D01*
X152219047Y-61780952D01*
X152266666Y-61876190D01*
X152266666Y-62161904D01*
X152219047Y-62257142D01*
X152171428Y-62304761D01*
X152076190Y-62352380D01*
X151933333Y-62352380D01*
X152695238Y-62352380D02*
X152695238Y-61685714D01*
X152695238Y-61876190D02*
X152742857Y-61780952D01*
X152790476Y-61733333D01*
X152885714Y-61685714D01*
X152980952Y-61685714D01*
X153076190Y-62447619D02*
X153838095Y-62447619D01*
X154076190Y-62352380D02*
X154076190Y-61352380D01*
X154409523Y-62066666D01*
X154742857Y-61352380D01*
X154742857Y-62352380D01*
X155361904Y-62352380D02*
X155266666Y-62304761D01*
X155219047Y-62257142D01*
X155171428Y-62161904D01*
X155171428Y-61876190D01*
X155219047Y-61780952D01*
X155266666Y-61733333D01*
X155361904Y-61685714D01*
X155504761Y-61685714D01*
X155600000Y-61733333D01*
X155647619Y-61780952D01*
X155695238Y-61876190D01*
X155695238Y-62161904D01*
X155647619Y-62257142D01*
X155600000Y-62304761D01*
X155504761Y-62352380D01*
X155361904Y-62352380D01*
X156123809Y-61685714D02*
X156123809Y-62352380D01*
X156123809Y-61780952D02*
X156171428Y-61733333D01*
X156266666Y-61685714D01*
X156409523Y-61685714D01*
X156504761Y-61733333D01*
X156552380Y-61828571D01*
X156552380Y-62352380D01*
X52266666Y-132752380D02*
X52266666Y-133466666D01*
X52219047Y-133609523D01*
X52123809Y-133704761D01*
X51980952Y-133752380D01*
X51885714Y-133752380D01*
X53266666Y-133752380D02*
X52695238Y-133752380D01*
X52980952Y-133752380D02*
X52980952Y-132752380D01*
X52885714Y-132895238D01*
X52790476Y-132990476D01*
X52695238Y-133038095D01*
X70135595Y-44713630D02*
X70135595Y-45523154D01*
X70183214Y-45618392D01*
X70230833Y-45666011D01*
X70326071Y-45713630D01*
X70516547Y-45713630D01*
X70611785Y-45666011D01*
X70659404Y-45618392D01*
X70707023Y-45523154D01*
X70707023Y-44713630D01*
X71135595Y-44808869D02*
X71183214Y-44761250D01*
X71278452Y-44713630D01*
X71516547Y-44713630D01*
X71611785Y-44761250D01*
X71659404Y-44808869D01*
X71707023Y-44904107D01*
X71707023Y-44999345D01*
X71659404Y-45142202D01*
X71087976Y-45713630D01*
X71707023Y-45713630D01*
X65352380Y-61961904D02*
X66161904Y-61961904D01*
X66257142Y-61914285D01*
X66304761Y-61866666D01*
X66352380Y-61771428D01*
X66352380Y-61580952D01*
X66304761Y-61485714D01*
X66257142Y-61438095D01*
X66161904Y-61390476D01*
X65352380Y-61390476D01*
X65352380Y-61009523D02*
X65352380Y-60390476D01*
X65733333Y-60723809D01*
X65733333Y-60580952D01*
X65780952Y-60485714D01*
X65828571Y-60438095D01*
X65923809Y-60390476D01*
X66161904Y-60390476D01*
X66257142Y-60438095D01*
X66304761Y-60485714D01*
X66352380Y-60580952D01*
X66352380Y-60866666D01*
X66304761Y-60961904D01*
X66257142Y-61009523D01*
X148552380Y-56042857D02*
X148076190Y-56376190D01*
X148552380Y-56614285D02*
X147552380Y-56614285D01*
X147552380Y-56233333D01*
X147600000Y-56138095D01*
X147647619Y-56090476D01*
X147742857Y-56042857D01*
X147885714Y-56042857D01*
X147980952Y-56090476D01*
X148028571Y-56138095D01*
X148076190Y-56233333D01*
X148076190Y-56614285D01*
X147647619Y-55661904D02*
X147600000Y-55614285D01*
X147552380Y-55519047D01*
X147552380Y-55280952D01*
X147600000Y-55185714D01*
X147647619Y-55138095D01*
X147742857Y-55090476D01*
X147838095Y-55090476D01*
X147980952Y-55138095D01*
X148552380Y-55709523D01*
X148552380Y-55090476D01*
X148552380Y-54614285D02*
X148552380Y-54423809D01*
X148504761Y-54328571D01*
X148457142Y-54280952D01*
X148314285Y-54185714D01*
X148123809Y-54138095D01*
X147742857Y-54138095D01*
X147647619Y-54185714D01*
X147600000Y-54233333D01*
X147552380Y-54328571D01*
X147552380Y-54519047D01*
X147600000Y-54614285D01*
X147647619Y-54661904D01*
X147742857Y-54709523D01*
X147980952Y-54709523D01*
X148076190Y-54661904D01*
X148123809Y-54614285D01*
X148171428Y-54519047D01*
X148171428Y-54328571D01*
X148123809Y-54233333D01*
X148076190Y-54185714D01*
X147980952Y-54138095D01*
X124802380Y-60792857D02*
X124326190Y-61126190D01*
X124802380Y-61364285D02*
X123802380Y-61364285D01*
X123802380Y-60983333D01*
X123850000Y-60888095D01*
X123897619Y-60840476D01*
X123992857Y-60792857D01*
X124135714Y-60792857D01*
X124230952Y-60840476D01*
X124278571Y-60888095D01*
X124326190Y-60983333D01*
X124326190Y-61364285D01*
X123897619Y-60411904D02*
X123850000Y-60364285D01*
X123802380Y-60269047D01*
X123802380Y-60030952D01*
X123850000Y-59935714D01*
X123897619Y-59888095D01*
X123992857Y-59840476D01*
X124088095Y-59840476D01*
X124230952Y-59888095D01*
X124802380Y-60459523D01*
X124802380Y-59840476D01*
X123802380Y-59507142D02*
X123802380Y-58888095D01*
X124183333Y-59221428D01*
X124183333Y-59078571D01*
X124230952Y-58983333D01*
X124278571Y-58935714D01*
X124373809Y-58888095D01*
X124611904Y-58888095D01*
X124707142Y-58935714D01*
X124754761Y-58983333D01*
X124802380Y-59078571D01*
X124802380Y-59364285D01*
X124754761Y-59459523D01*
X124707142Y-59507142D01*
X104152380Y-62866666D02*
X103676190Y-63200000D01*
X104152380Y-63438095D02*
X103152380Y-63438095D01*
X103152380Y-63057142D01*
X103200000Y-62961904D01*
X103247619Y-62914285D01*
X103342857Y-62866666D01*
X103485714Y-62866666D01*
X103580952Y-62914285D01*
X103628571Y-62961904D01*
X103676190Y-63057142D01*
X103676190Y-63438095D01*
X103580952Y-62295238D02*
X103533333Y-62390476D01*
X103485714Y-62438095D01*
X103390476Y-62485714D01*
X103342857Y-62485714D01*
X103247619Y-62438095D01*
X103200000Y-62390476D01*
X103152380Y-62295238D01*
X103152380Y-62104761D01*
X103200000Y-62009523D01*
X103247619Y-61961904D01*
X103342857Y-61914285D01*
X103390476Y-61914285D01*
X103485714Y-61961904D01*
X103533333Y-62009523D01*
X103580952Y-62104761D01*
X103580952Y-62295238D01*
X103628571Y-62390476D01*
X103676190Y-62438095D01*
X103771428Y-62485714D01*
X103961904Y-62485714D01*
X104057142Y-62438095D01*
X104104761Y-62390476D01*
X104152380Y-62295238D01*
X104152380Y-62104761D01*
X104104761Y-62009523D01*
X104057142Y-61961904D01*
X103961904Y-61914285D01*
X103771428Y-61914285D01*
X103676190Y-61961904D01*
X103628571Y-62009523D01*
X103580952Y-62104761D01*
X67833333Y-51957142D02*
X67785714Y-52004761D01*
X67642857Y-52052380D01*
X67547619Y-52052380D01*
X67404761Y-52004761D01*
X67309523Y-51909523D01*
X67261904Y-51814285D01*
X67214285Y-51623809D01*
X67214285Y-51480952D01*
X67261904Y-51290476D01*
X67309523Y-51195238D01*
X67404761Y-51100000D01*
X67547619Y-51052380D01*
X67642857Y-51052380D01*
X67785714Y-51100000D01*
X67833333Y-51147619D01*
X68690476Y-51385714D02*
X68690476Y-52052380D01*
X68452380Y-51004761D02*
X68214285Y-51719047D01*
X68833333Y-51719047D01*
X63883333Y-80257142D02*
X63835714Y-80304761D01*
X63692857Y-80352380D01*
X63597619Y-80352380D01*
X63454761Y-80304761D01*
X63359523Y-80209523D01*
X63311904Y-80114285D01*
X63264285Y-79923809D01*
X63264285Y-79780952D01*
X63311904Y-79590476D01*
X63359523Y-79495238D01*
X63454761Y-79400000D01*
X63597619Y-79352380D01*
X63692857Y-79352380D01*
X63835714Y-79400000D01*
X63883333Y-79447619D01*
X64216666Y-79352380D02*
X64835714Y-79352380D01*
X64502380Y-79733333D01*
X64645238Y-79733333D01*
X64740476Y-79780952D01*
X64788095Y-79828571D01*
X64835714Y-79923809D01*
X64835714Y-80161904D01*
X64788095Y-80257142D01*
X64740476Y-80304761D01*
X64645238Y-80352380D01*
X64359523Y-80352380D01*
X64264285Y-80304761D01*
X64216666Y-80257142D01*
X78457142Y-72542857D02*
X78504761Y-72590476D01*
X78552380Y-72733333D01*
X78552380Y-72828571D01*
X78504761Y-72971428D01*
X78409523Y-73066666D01*
X78314285Y-73114285D01*
X78123809Y-73161904D01*
X77980952Y-73161904D01*
X77790476Y-73114285D01*
X77695238Y-73066666D01*
X77600000Y-72971428D01*
X77552380Y-72828571D01*
X77552380Y-72733333D01*
X77600000Y-72590476D01*
X77647619Y-72542857D01*
X78552380Y-71590476D02*
X78552380Y-72161904D01*
X78552380Y-71876190D02*
X77552380Y-71876190D01*
X77695238Y-71971428D01*
X77790476Y-72066666D01*
X77838095Y-72161904D01*
X77647619Y-71209523D02*
X77600000Y-71161904D01*
X77552380Y-71066666D01*
X77552380Y-70828571D01*
X77600000Y-70733333D01*
X77647619Y-70685714D01*
X77742857Y-70638095D01*
X77838095Y-70638095D01*
X77980952Y-70685714D01*
X78552380Y-71257142D01*
X78552380Y-70638095D01*
X76533333Y-76402380D02*
X76200000Y-75926190D01*
X75961904Y-76402380D02*
X75961904Y-75402380D01*
X76342857Y-75402380D01*
X76438095Y-75450000D01*
X76485714Y-75497619D01*
X76533333Y-75592857D01*
X76533333Y-75735714D01*
X76485714Y-75830952D01*
X76438095Y-75878571D01*
X76342857Y-75926190D01*
X75961904Y-75926190D01*
X77485714Y-76402380D02*
X76914285Y-76402380D01*
X77200000Y-76402380D02*
X77200000Y-75402380D01*
X77104761Y-75545238D01*
X77009523Y-75640476D01*
X76914285Y-75688095D01*
X98433333Y-60352380D02*
X98100000Y-59876190D01*
X97861904Y-60352380D02*
X97861904Y-59352380D01*
X98242857Y-59352380D01*
X98338095Y-59400000D01*
X98385714Y-59447619D01*
X98433333Y-59542857D01*
X98433333Y-59685714D01*
X98385714Y-59780952D01*
X98338095Y-59828571D01*
X98242857Y-59876190D01*
X97861904Y-59876190D01*
X98909523Y-60352380D02*
X99100000Y-60352380D01*
X99195238Y-60304761D01*
X99242857Y-60257142D01*
X99338095Y-60114285D01*
X99385714Y-59923809D01*
X99385714Y-59542857D01*
X99338095Y-59447619D01*
X99290476Y-59400000D01*
X99195238Y-59352380D01*
X99004761Y-59352380D01*
X98909523Y-59400000D01*
X98861904Y-59447619D01*
X98814285Y-59542857D01*
X98814285Y-59780952D01*
X98861904Y-59876190D01*
X98909523Y-59923809D01*
X99004761Y-59971428D01*
X99195238Y-59971428D01*
X99290476Y-59923809D01*
X99338095Y-59876190D01*
X99385714Y-59780952D01*
X101207142Y-43542857D02*
X101254761Y-43590476D01*
X101302380Y-43733333D01*
X101302380Y-43828571D01*
X101254761Y-43971428D01*
X101159523Y-44066666D01*
X101064285Y-44114285D01*
X100873809Y-44161904D01*
X100730952Y-44161904D01*
X100540476Y-44114285D01*
X100445238Y-44066666D01*
X100350000Y-43971428D01*
X100302380Y-43828571D01*
X100302380Y-43733333D01*
X100350000Y-43590476D01*
X100397619Y-43542857D01*
X101302380Y-42590476D02*
X101302380Y-43161904D01*
X101302380Y-42876190D02*
X100302380Y-42876190D01*
X100445238Y-42971428D01*
X100540476Y-43066666D01*
X100588095Y-43161904D01*
X100302380Y-41685714D02*
X100302380Y-42161904D01*
X100778571Y-42209523D01*
X100730952Y-42161904D01*
X100683333Y-42066666D01*
X100683333Y-41828571D01*
X100730952Y-41733333D01*
X100778571Y-41685714D01*
X100873809Y-41638095D01*
X101111904Y-41638095D01*
X101207142Y-41685714D01*
X101254761Y-41733333D01*
X101302380Y-41828571D01*
X101302380Y-42066666D01*
X101254761Y-42161904D01*
X101207142Y-42209523D01*
X97457142Y-40357142D02*
X97409523Y-40404761D01*
X97266666Y-40452380D01*
X97171428Y-40452380D01*
X97028571Y-40404761D01*
X96933333Y-40309523D01*
X96885714Y-40214285D01*
X96838095Y-40023809D01*
X96838095Y-39880952D01*
X96885714Y-39690476D01*
X96933333Y-39595238D01*
X97028571Y-39500000D01*
X97171428Y-39452380D01*
X97266666Y-39452380D01*
X97409523Y-39500000D01*
X97457142Y-39547619D01*
X98409523Y-40452380D02*
X97838095Y-40452380D01*
X98123809Y-40452380D02*
X98123809Y-39452380D01*
X98028571Y-39595238D01*
X97933333Y-39690476D01*
X97838095Y-39738095D01*
X98742857Y-39452380D02*
X99409523Y-39452380D01*
X98980952Y-40452380D01*
X94238095Y-98402380D02*
X94238095Y-99211904D01*
X94285714Y-99307142D01*
X94333333Y-99354761D01*
X94428571Y-99402380D01*
X94619047Y-99402380D01*
X94714285Y-99354761D01*
X94761904Y-99307142D01*
X94809523Y-99211904D01*
X94809523Y-98402380D01*
X95714285Y-98402380D02*
X95523809Y-98402380D01*
X95428571Y-98450000D01*
X95380952Y-98497619D01*
X95285714Y-98640476D01*
X95238095Y-98830952D01*
X95238095Y-99211904D01*
X95285714Y-99307142D01*
X95333333Y-99354761D01*
X95428571Y-99402380D01*
X95619047Y-99402380D01*
X95714285Y-99354761D01*
X95761904Y-99307142D01*
X95809523Y-99211904D01*
X95809523Y-98973809D01*
X95761904Y-98878571D01*
X95714285Y-98830952D01*
X95619047Y-98783333D01*
X95428571Y-98783333D01*
X95333333Y-98830952D01*
X95285714Y-98878571D01*
X95238095Y-98973809D01*
X79867142Y-46732857D02*
X79914761Y-46780476D01*
X79962380Y-46923333D01*
X79962380Y-47018571D01*
X79914761Y-47161428D01*
X79819523Y-47256666D01*
X79724285Y-47304285D01*
X79533809Y-47351904D01*
X79390952Y-47351904D01*
X79200476Y-47304285D01*
X79105238Y-47256666D01*
X79010000Y-47161428D01*
X78962380Y-47018571D01*
X78962380Y-46923333D01*
X79010000Y-46780476D01*
X79057619Y-46732857D01*
X79962380Y-45780476D02*
X79962380Y-46351904D01*
X79962380Y-46066190D02*
X78962380Y-46066190D01*
X79105238Y-46161428D01*
X79200476Y-46256666D01*
X79248095Y-46351904D01*
X78962380Y-45447142D02*
X78962380Y-44828095D01*
X79343333Y-45161428D01*
X79343333Y-45018571D01*
X79390952Y-44923333D01*
X79438571Y-44875714D01*
X79533809Y-44828095D01*
X79771904Y-44828095D01*
X79867142Y-44875714D01*
X79914761Y-44923333D01*
X79962380Y-45018571D01*
X79962380Y-45304285D01*
X79914761Y-45399523D01*
X79867142Y-45447142D01*
X113471428Y-48352380D02*
X113471428Y-47352380D01*
X113852380Y-47352380D01*
X113947619Y-47400000D01*
X113995238Y-47447619D01*
X114042857Y-47542857D01*
X114042857Y-47685714D01*
X113995238Y-47780952D01*
X113947619Y-47828571D01*
X113852380Y-47876190D01*
X113471428Y-47876190D01*
X114471428Y-48352380D02*
X114471428Y-47685714D01*
X114471428Y-47352380D02*
X114423809Y-47400000D01*
X114471428Y-47447619D01*
X114519047Y-47400000D01*
X114471428Y-47352380D01*
X114471428Y-47447619D01*
X115328571Y-48304761D02*
X115233333Y-48352380D01*
X115042857Y-48352380D01*
X114947619Y-48304761D01*
X114900000Y-48209523D01*
X114900000Y-47828571D01*
X114947619Y-47733333D01*
X115042857Y-47685714D01*
X115233333Y-47685714D01*
X115328571Y-47733333D01*
X115376190Y-47828571D01*
X115376190Y-47923809D01*
X114900000Y-48019047D01*
X115709523Y-47685714D02*
X116233333Y-47685714D01*
X115709523Y-48352380D01*
X116233333Y-48352380D01*
X116757142Y-48352380D02*
X116661904Y-48304761D01*
X116614285Y-48257142D01*
X116566666Y-48161904D01*
X116566666Y-47876190D01*
X116614285Y-47780952D01*
X116661904Y-47733333D01*
X116757142Y-47685714D01*
X116900000Y-47685714D01*
X116995238Y-47733333D01*
X117042857Y-47780952D01*
X117090476Y-47876190D01*
X117090476Y-48161904D01*
X117042857Y-48257142D01*
X116995238Y-48304761D01*
X116900000Y-48352380D01*
X116757142Y-48352380D01*
X117280952Y-48447619D02*
X118042857Y-48447619D01*
X118280952Y-48352380D02*
X118280952Y-47352380D01*
X118614285Y-48066666D01*
X118947619Y-47352380D01*
X118947619Y-48352380D01*
X119566666Y-48352380D02*
X119471428Y-48304761D01*
X119423809Y-48257142D01*
X119376190Y-48161904D01*
X119376190Y-47876190D01*
X119423809Y-47780952D01*
X119471428Y-47733333D01*
X119566666Y-47685714D01*
X119709523Y-47685714D01*
X119804761Y-47733333D01*
X119852380Y-47780952D01*
X119900000Y-47876190D01*
X119900000Y-48161904D01*
X119852380Y-48257142D01*
X119804761Y-48304761D01*
X119709523Y-48352380D01*
X119566666Y-48352380D01*
X120328571Y-47685714D02*
X120328571Y-48352380D01*
X120328571Y-47780952D02*
X120376190Y-47733333D01*
X120471428Y-47685714D01*
X120614285Y-47685714D01*
X120709523Y-47733333D01*
X120757142Y-47828571D01*
X120757142Y-48352380D01*
X121233333Y-48352380D02*
X121233333Y-47685714D01*
X121233333Y-47352380D02*
X121185714Y-47400000D01*
X121233333Y-47447619D01*
X121280952Y-47400000D01*
X121233333Y-47352380D01*
X121233333Y-47447619D01*
X121566666Y-47685714D02*
X121947619Y-47685714D01*
X121709523Y-47352380D02*
X121709523Y-48209523D01*
X121757142Y-48304761D01*
X121852380Y-48352380D01*
X121947619Y-48352380D01*
X122423809Y-48352380D02*
X122328571Y-48304761D01*
X122280952Y-48257142D01*
X122233333Y-48161904D01*
X122233333Y-47876190D01*
X122280952Y-47780952D01*
X122328571Y-47733333D01*
X122423809Y-47685714D01*
X122566666Y-47685714D01*
X122661904Y-47733333D01*
X122709523Y-47780952D01*
X122757142Y-47876190D01*
X122757142Y-48161904D01*
X122709523Y-48257142D01*
X122661904Y-48304761D01*
X122566666Y-48352380D01*
X122423809Y-48352380D01*
X123185714Y-48352380D02*
X123185714Y-47685714D01*
X123185714Y-47876190D02*
X123233333Y-47780952D01*
X123280952Y-47733333D01*
X123376190Y-47685714D01*
X123471428Y-47685714D01*
X130857142Y-45602380D02*
X130523809Y-45126190D01*
X130285714Y-45602380D02*
X130285714Y-44602380D01*
X130666666Y-44602380D01*
X130761904Y-44650000D01*
X130809523Y-44697619D01*
X130857142Y-44792857D01*
X130857142Y-44935714D01*
X130809523Y-45030952D01*
X130761904Y-45078571D01*
X130666666Y-45126190D01*
X130285714Y-45126190D01*
X131809523Y-45602380D02*
X131238095Y-45602380D01*
X131523809Y-45602380D02*
X131523809Y-44602380D01*
X131428571Y-44745238D01*
X131333333Y-44840476D01*
X131238095Y-44888095D01*
X132761904Y-45602380D02*
X132190476Y-45602380D01*
X132476190Y-45602380D02*
X132476190Y-44602380D01*
X132380952Y-44745238D01*
X132285714Y-44840476D01*
X132190476Y-44888095D01*
X109057142Y-62602380D02*
X108723809Y-62126190D01*
X108485714Y-62602380D02*
X108485714Y-61602380D01*
X108866666Y-61602380D01*
X108961904Y-61650000D01*
X109009523Y-61697619D01*
X109057142Y-61792857D01*
X109057142Y-61935714D01*
X109009523Y-62030952D01*
X108961904Y-62078571D01*
X108866666Y-62126190D01*
X108485714Y-62126190D01*
X110009523Y-62602380D02*
X109438095Y-62602380D01*
X109723809Y-62602380D02*
X109723809Y-61602380D01*
X109628571Y-61745238D01*
X109533333Y-61840476D01*
X109438095Y-61888095D01*
X110866666Y-61602380D02*
X110676190Y-61602380D01*
X110580952Y-61650000D01*
X110533333Y-61697619D01*
X110438095Y-61840476D01*
X110390476Y-62030952D01*
X110390476Y-62411904D01*
X110438095Y-62507142D01*
X110485714Y-62554761D01*
X110580952Y-62602380D01*
X110771428Y-62602380D01*
X110866666Y-62554761D01*
X110914285Y-62507142D01*
X110961904Y-62411904D01*
X110961904Y-62173809D01*
X110914285Y-62078571D01*
X110866666Y-62030952D01*
X110771428Y-61983333D01*
X110580952Y-61983333D01*
X110485714Y-62030952D01*
X110438095Y-62078571D01*
X110390476Y-62173809D01*
X185457142Y-48352380D02*
X185123809Y-47876190D01*
X184885714Y-48352380D02*
X184885714Y-47352380D01*
X185266666Y-47352380D01*
X185361904Y-47400000D01*
X185409523Y-47447619D01*
X185457142Y-47542857D01*
X185457142Y-47685714D01*
X185409523Y-47780952D01*
X185361904Y-47828571D01*
X185266666Y-47876190D01*
X184885714Y-47876190D01*
X185838095Y-47447619D02*
X185885714Y-47400000D01*
X185980952Y-47352380D01*
X186219047Y-47352380D01*
X186314285Y-47400000D01*
X186361904Y-47447619D01*
X186409523Y-47542857D01*
X186409523Y-47638095D01*
X186361904Y-47780952D01*
X185790476Y-48352380D01*
X186409523Y-48352380D01*
X187266666Y-47352380D02*
X187076190Y-47352380D01*
X186980952Y-47400000D01*
X186933333Y-47447619D01*
X186838095Y-47590476D01*
X186790476Y-47780952D01*
X186790476Y-48161904D01*
X186838095Y-48257142D01*
X186885714Y-48304761D01*
X186980952Y-48352380D01*
X187171428Y-48352380D01*
X187266666Y-48304761D01*
X187314285Y-48257142D01*
X187361904Y-48161904D01*
X187361904Y-47923809D01*
X187314285Y-47828571D01*
X187266666Y-47780952D01*
X187171428Y-47733333D01*
X186980952Y-47733333D01*
X186885714Y-47780952D01*
X186838095Y-47828571D01*
X186790476Y-47923809D01*
X167957142Y-50542857D02*
X168004761Y-50590476D01*
X168052380Y-50733333D01*
X168052380Y-50828571D01*
X168004761Y-50971428D01*
X167909523Y-51066666D01*
X167814285Y-51114285D01*
X167623809Y-51161904D01*
X167480952Y-51161904D01*
X167290476Y-51114285D01*
X167195238Y-51066666D01*
X167100000Y-50971428D01*
X167052380Y-50828571D01*
X167052380Y-50733333D01*
X167100000Y-50590476D01*
X167147619Y-50542857D01*
X167147619Y-50161904D02*
X167100000Y-50114285D01*
X167052380Y-50019047D01*
X167052380Y-49780952D01*
X167100000Y-49685714D01*
X167147619Y-49638095D01*
X167242857Y-49590476D01*
X167338095Y-49590476D01*
X167480952Y-49638095D01*
X168052380Y-50209523D01*
X168052380Y-49590476D01*
X167052380Y-49257142D02*
X167052380Y-48590476D01*
X168052380Y-49019047D01*
X102433333Y-105057142D02*
X102385714Y-105104761D01*
X102242857Y-105152380D01*
X102147619Y-105152380D01*
X102004761Y-105104761D01*
X101909523Y-105009523D01*
X101861904Y-104914285D01*
X101814285Y-104723809D01*
X101814285Y-104580952D01*
X101861904Y-104390476D01*
X101909523Y-104295238D01*
X102004761Y-104200000D01*
X102147619Y-104152380D01*
X102242857Y-104152380D01*
X102385714Y-104200000D01*
X102433333Y-104247619D01*
X102766666Y-104152380D02*
X103433333Y-104152380D01*
X103004761Y-105152380D01*
X173557142Y-41552380D02*
X173223809Y-41076190D01*
X172985714Y-41552380D02*
X172985714Y-40552380D01*
X173366666Y-40552380D01*
X173461904Y-40600000D01*
X173509523Y-40647619D01*
X173557142Y-40742857D01*
X173557142Y-40885714D01*
X173509523Y-40980952D01*
X173461904Y-41028571D01*
X173366666Y-41076190D01*
X172985714Y-41076190D01*
X173938095Y-40647619D02*
X173985714Y-40600000D01*
X174080952Y-40552380D01*
X174319047Y-40552380D01*
X174414285Y-40600000D01*
X174461904Y-40647619D01*
X174509523Y-40742857D01*
X174509523Y-40838095D01*
X174461904Y-40980952D01*
X173890476Y-41552380D01*
X174509523Y-41552380D01*
X175461904Y-41552380D02*
X174890476Y-41552380D01*
X175176190Y-41552380D02*
X175176190Y-40552380D01*
X175080952Y-40695238D01*
X174985714Y-40790476D01*
X174890476Y-40838095D01*
X112852380Y-52161904D02*
X113661904Y-52161904D01*
X113757142Y-52114285D01*
X113804761Y-52066666D01*
X113852380Y-51971428D01*
X113852380Y-51780952D01*
X113804761Y-51685714D01*
X113757142Y-51638095D01*
X113661904Y-51590476D01*
X112852380Y-51590476D01*
X112852380Y-50638095D02*
X112852380Y-51114285D01*
X113328571Y-51161904D01*
X113280952Y-51114285D01*
X113233333Y-51019047D01*
X113233333Y-50780952D01*
X113280952Y-50685714D01*
X113328571Y-50638095D01*
X113423809Y-50590476D01*
X113661904Y-50590476D01*
X113757142Y-50638095D01*
X113804761Y-50685714D01*
X113852380Y-50780952D01*
X113852380Y-51019047D01*
X113804761Y-51114285D01*
X113757142Y-51161904D01*
X180207142Y-43757142D02*
X180159523Y-43804761D01*
X180016666Y-43852380D01*
X179921428Y-43852380D01*
X179778571Y-43804761D01*
X179683333Y-43709523D01*
X179635714Y-43614285D01*
X179588095Y-43423809D01*
X179588095Y-43280952D01*
X179635714Y-43090476D01*
X179683333Y-42995238D01*
X179778571Y-42900000D01*
X179921428Y-42852380D01*
X180016666Y-42852380D01*
X180159523Y-42900000D01*
X180207142Y-42947619D01*
X180588095Y-42947619D02*
X180635714Y-42900000D01*
X180730952Y-42852380D01*
X180969047Y-42852380D01*
X181064285Y-42900000D01*
X181111904Y-42947619D01*
X181159523Y-43042857D01*
X181159523Y-43138095D01*
X181111904Y-43280952D01*
X180540476Y-43852380D01*
X181159523Y-43852380D01*
X182016666Y-42852380D02*
X181826190Y-42852380D01*
X181730952Y-42900000D01*
X181683333Y-42947619D01*
X181588095Y-43090476D01*
X181540476Y-43280952D01*
X181540476Y-43661904D01*
X181588095Y-43757142D01*
X181635714Y-43804761D01*
X181730952Y-43852380D01*
X181921428Y-43852380D01*
X182016666Y-43804761D01*
X182064285Y-43757142D01*
X182111904Y-43661904D01*
X182111904Y-43423809D01*
X182064285Y-43328571D01*
X182016666Y-43280952D01*
X181921428Y-43233333D01*
X181730952Y-43233333D01*
X181635714Y-43280952D01*
X181588095Y-43328571D01*
X181540476Y-43423809D01*
X87733333Y-103152380D02*
X87400000Y-102676190D01*
X87161904Y-103152380D02*
X87161904Y-102152380D01*
X87542857Y-102152380D01*
X87638095Y-102200000D01*
X87685714Y-102247619D01*
X87733333Y-102342857D01*
X87733333Y-102485714D01*
X87685714Y-102580952D01*
X87638095Y-102628571D01*
X87542857Y-102676190D01*
X87161904Y-102676190D01*
X88638095Y-102152380D02*
X88161904Y-102152380D01*
X88114285Y-102628571D01*
X88161904Y-102580952D01*
X88257142Y-102533333D01*
X88495238Y-102533333D01*
X88590476Y-102580952D01*
X88638095Y-102628571D01*
X88685714Y-102723809D01*
X88685714Y-102961904D01*
X88638095Y-103057142D01*
X88590476Y-103104761D01*
X88495238Y-103152380D01*
X88257142Y-103152380D01*
X88161904Y-103104761D01*
X88114285Y-103057142D01*
X133647619Y-47828571D02*
X133980952Y-47828571D01*
X134123809Y-48352380D02*
X133647619Y-48352380D01*
X133647619Y-47352380D01*
X134123809Y-47352380D01*
X134552380Y-48352380D02*
X134552380Y-47685714D01*
X134552380Y-47876190D02*
X134600000Y-47780952D01*
X134647619Y-47733333D01*
X134742857Y-47685714D01*
X134838095Y-47685714D01*
X135171428Y-48352380D02*
X135171428Y-47685714D01*
X135171428Y-47876190D02*
X135219047Y-47780952D01*
X135266666Y-47733333D01*
X135361904Y-47685714D01*
X135457142Y-47685714D01*
X135933333Y-48352380D02*
X135838095Y-48304761D01*
X135790476Y-48257142D01*
X135742857Y-48161904D01*
X135742857Y-47876190D01*
X135790476Y-47780952D01*
X135838095Y-47733333D01*
X135933333Y-47685714D01*
X136076190Y-47685714D01*
X136171428Y-47733333D01*
X136219047Y-47780952D01*
X136266666Y-47876190D01*
X136266666Y-48161904D01*
X136219047Y-48257142D01*
X136171428Y-48304761D01*
X136076190Y-48352380D01*
X135933333Y-48352380D01*
X136695238Y-48352380D02*
X136695238Y-47685714D01*
X136695238Y-47876190D02*
X136742857Y-47780952D01*
X136790476Y-47733333D01*
X136885714Y-47685714D01*
X136980952Y-47685714D01*
X137076190Y-48447619D02*
X137838095Y-48447619D01*
X138266666Y-47352380D02*
X138457142Y-47352380D01*
X138552380Y-47400000D01*
X138647619Y-47495238D01*
X138695238Y-47685714D01*
X138695238Y-48019047D01*
X138647619Y-48209523D01*
X138552380Y-48304761D01*
X138457142Y-48352380D01*
X138266666Y-48352380D01*
X138171428Y-48304761D01*
X138076190Y-48209523D01*
X138028571Y-48019047D01*
X138028571Y-47685714D01*
X138076190Y-47495238D01*
X138171428Y-47400000D01*
X138266666Y-47352380D01*
X139552380Y-47685714D02*
X139552380Y-48352380D01*
X139123809Y-47685714D02*
X139123809Y-48209523D01*
X139171428Y-48304761D01*
X139266666Y-48352380D01*
X139409523Y-48352380D01*
X139504761Y-48304761D01*
X139552380Y-48257142D01*
X139885714Y-47685714D02*
X140266666Y-47685714D01*
X140028571Y-47352380D02*
X140028571Y-48209523D01*
X140076190Y-48304761D01*
X140171428Y-48352380D01*
X140266666Y-48352380D01*
X141647619Y-48733333D02*
X141600000Y-48685714D01*
X141504761Y-48542857D01*
X141457142Y-48447619D01*
X141409523Y-48304761D01*
X141361904Y-48066666D01*
X141361904Y-47876190D01*
X141409523Y-47638095D01*
X141457142Y-47495238D01*
X141504761Y-47400000D01*
X141600000Y-47257142D01*
X141647619Y-47209523D01*
X142028571Y-48352380D02*
X142028571Y-47352380D01*
X142504761Y-47685714D02*
X142504761Y-48352380D01*
X142504761Y-47780952D02*
X142552380Y-47733333D01*
X142647619Y-47685714D01*
X142790476Y-47685714D01*
X142885714Y-47733333D01*
X142933333Y-47828571D01*
X142933333Y-48352380D01*
X143933333Y-48352380D02*
X143361904Y-48352380D01*
X143647619Y-48352380D02*
X143647619Y-47352380D01*
X143552380Y-47495238D01*
X143457142Y-47590476D01*
X143361904Y-47638095D01*
X144266666Y-48733333D02*
X144314285Y-48685714D01*
X144409523Y-48542857D01*
X144457142Y-48447619D01*
X144504761Y-48304761D01*
X144552380Y-48066666D01*
X144552380Y-47876190D01*
X144504761Y-47638095D01*
X144457142Y-47495238D01*
X144409523Y-47400000D01*
X144314285Y-47257142D01*
X144266666Y-47209523D01*
X162480952Y-62257142D02*
X162433333Y-62304761D01*
X162290476Y-62352380D01*
X162195238Y-62352380D01*
X162052380Y-62304761D01*
X161957142Y-62209523D01*
X161909523Y-62114285D01*
X161861904Y-61923809D01*
X161861904Y-61780952D01*
X161909523Y-61590476D01*
X161957142Y-61495238D01*
X162052380Y-61400000D01*
X162195238Y-61352380D01*
X162290476Y-61352380D01*
X162433333Y-61400000D01*
X162480952Y-61447619D01*
X163338095Y-61685714D02*
X163338095Y-62352380D01*
X162909523Y-61685714D02*
X162909523Y-62209523D01*
X162957142Y-62304761D01*
X163052380Y-62352380D01*
X163195238Y-62352380D01*
X163290476Y-62304761D01*
X163338095Y-62257142D01*
X163814285Y-62352380D02*
X163814285Y-61685714D01*
X163814285Y-61876190D02*
X163861904Y-61780952D01*
X163909523Y-61733333D01*
X164004761Y-61685714D01*
X164100000Y-61685714D01*
X164433333Y-62352380D02*
X164433333Y-61685714D01*
X164433333Y-61876190D02*
X164480952Y-61780952D01*
X164528571Y-61733333D01*
X164623809Y-61685714D01*
X164719047Y-61685714D01*
X164814285Y-62447619D02*
X165576190Y-62447619D01*
X165814285Y-62352380D02*
X165814285Y-61352380D01*
X166290476Y-61685714D02*
X166290476Y-62352380D01*
X166290476Y-61780952D02*
X166338095Y-61733333D01*
X166433333Y-61685714D01*
X166576190Y-61685714D01*
X166671428Y-61733333D01*
X166719047Y-61828571D01*
X166719047Y-62352380D01*
X168242857Y-62733333D02*
X168195238Y-62685714D01*
X168100000Y-62542857D01*
X168052380Y-62447619D01*
X168004761Y-62304761D01*
X167957142Y-62066666D01*
X167957142Y-61876190D01*
X168004761Y-61638095D01*
X168052380Y-61495238D01*
X168100000Y-61400000D01*
X168195238Y-61257142D01*
X168242857Y-61209523D01*
X168814285Y-61352380D02*
X169004761Y-61352380D01*
X169100000Y-61400000D01*
X169195238Y-61495238D01*
X169242857Y-61685714D01*
X169242857Y-62019047D01*
X169195238Y-62209523D01*
X169100000Y-62304761D01*
X169004761Y-62352380D01*
X168814285Y-62352380D01*
X168719047Y-62304761D01*
X168623809Y-62209523D01*
X168576190Y-62019047D01*
X168576190Y-61685714D01*
X168623809Y-61495238D01*
X168719047Y-61400000D01*
X168814285Y-61352380D01*
X170100000Y-61685714D02*
X170100000Y-62352380D01*
X169671428Y-61685714D02*
X169671428Y-62209523D01*
X169719047Y-62304761D01*
X169814285Y-62352380D01*
X169957142Y-62352380D01*
X170052380Y-62304761D01*
X170100000Y-62257142D01*
X170433333Y-61685714D02*
X170814285Y-61685714D01*
X170576190Y-61352380D02*
X170576190Y-62209523D01*
X170623809Y-62304761D01*
X170719047Y-62352380D01*
X170814285Y-62352380D01*
X171100000Y-61447619D02*
X171147619Y-61400000D01*
X171242857Y-61352380D01*
X171480952Y-61352380D01*
X171576190Y-61400000D01*
X171623809Y-61447619D01*
X171671428Y-61542857D01*
X171671428Y-61638095D01*
X171623809Y-61780952D01*
X171052380Y-62352380D01*
X171671428Y-62352380D01*
X172004761Y-62733333D02*
X172052380Y-62685714D01*
X172147619Y-62542857D01*
X172195238Y-62447619D01*
X172242857Y-62304761D01*
X172290476Y-62066666D01*
X172290476Y-61876190D01*
X172242857Y-61638095D01*
X172195238Y-61495238D01*
X172147619Y-61400000D01*
X172052380Y-61257142D01*
X172004761Y-61209523D01*
X95023333Y-56637380D02*
X94690000Y-56161190D01*
X94451904Y-56637380D02*
X94451904Y-55637380D01*
X94832857Y-55637380D01*
X94928095Y-55685000D01*
X94975714Y-55732619D01*
X95023333Y-55827857D01*
X95023333Y-55970714D01*
X94975714Y-56065952D01*
X94928095Y-56113571D01*
X94832857Y-56161190D01*
X94451904Y-56161190D01*
X95880476Y-55970714D02*
X95880476Y-56637380D01*
X95642380Y-55589761D02*
X95404285Y-56304047D01*
X96023333Y-56304047D01*
X94953333Y-58372380D02*
X94620000Y-57896190D01*
X94381904Y-58372380D02*
X94381904Y-57372380D01*
X94762857Y-57372380D01*
X94858095Y-57420000D01*
X94905714Y-57467619D01*
X94953333Y-57562857D01*
X94953333Y-57705714D01*
X94905714Y-57800952D01*
X94858095Y-57848571D01*
X94762857Y-57896190D01*
X94381904Y-57896190D01*
X95286666Y-57372380D02*
X95905714Y-57372380D01*
X95572380Y-57753333D01*
X95715238Y-57753333D01*
X95810476Y-57800952D01*
X95858095Y-57848571D01*
X95905714Y-57943809D01*
X95905714Y-58181904D01*
X95858095Y-58277142D01*
X95810476Y-58324761D01*
X95715238Y-58372380D01*
X95429523Y-58372380D01*
X95334285Y-58324761D01*
X95286666Y-58277142D01*
X126552380Y-59916666D02*
X126076190Y-60250000D01*
X126552380Y-60488095D02*
X125552380Y-60488095D01*
X125552380Y-60107142D01*
X125600000Y-60011904D01*
X125647619Y-59964285D01*
X125742857Y-59916666D01*
X125885714Y-59916666D01*
X125980952Y-59964285D01*
X126028571Y-60011904D01*
X126076190Y-60107142D01*
X126076190Y-60488095D01*
X125552380Y-59583333D02*
X125552380Y-58916666D01*
X126552380Y-59345238D01*
X115171428Y-62452380D02*
X115171428Y-61452380D01*
X115552380Y-61452380D01*
X115647619Y-61500000D01*
X115695238Y-61547619D01*
X115742857Y-61642857D01*
X115742857Y-61785714D01*
X115695238Y-61880952D01*
X115647619Y-61928571D01*
X115552380Y-61976190D01*
X115171428Y-61976190D01*
X116171428Y-62452380D02*
X116171428Y-61785714D01*
X116171428Y-61452380D02*
X116123809Y-61500000D01*
X116171428Y-61547619D01*
X116219047Y-61500000D01*
X116171428Y-61452380D01*
X116171428Y-61547619D01*
X117028571Y-62404761D02*
X116933333Y-62452380D01*
X116742857Y-62452380D01*
X116647619Y-62404761D01*
X116600000Y-62309523D01*
X116600000Y-61928571D01*
X116647619Y-61833333D01*
X116742857Y-61785714D01*
X116933333Y-61785714D01*
X117028571Y-61833333D01*
X117076190Y-61928571D01*
X117076190Y-62023809D01*
X116600000Y-62119047D01*
X117409523Y-61785714D02*
X117933333Y-61785714D01*
X117409523Y-62452380D01*
X117933333Y-62452380D01*
X118457142Y-62452380D02*
X118361904Y-62404761D01*
X118314285Y-62357142D01*
X118266666Y-62261904D01*
X118266666Y-61976190D01*
X118314285Y-61880952D01*
X118361904Y-61833333D01*
X118457142Y-61785714D01*
X118600000Y-61785714D01*
X118695238Y-61833333D01*
X118742857Y-61880952D01*
X118790476Y-61976190D01*
X118790476Y-62261904D01*
X118742857Y-62357142D01*
X118695238Y-62404761D01*
X118600000Y-62452380D01*
X118457142Y-62452380D01*
X118980952Y-62547619D02*
X119742857Y-62547619D01*
X120171428Y-61452380D02*
X120361904Y-61452380D01*
X120457142Y-61500000D01*
X120552380Y-61595238D01*
X120600000Y-61785714D01*
X120600000Y-62119047D01*
X120552380Y-62309523D01*
X120457142Y-62404761D01*
X120361904Y-62452380D01*
X120171428Y-62452380D01*
X120076190Y-62404761D01*
X119980952Y-62309523D01*
X119933333Y-62119047D01*
X119933333Y-61785714D01*
X119980952Y-61595238D01*
X120076190Y-61500000D01*
X120171428Y-61452380D01*
X121457142Y-61785714D02*
X121457142Y-62452380D01*
X121028571Y-61785714D02*
X121028571Y-62309523D01*
X121076190Y-62404761D01*
X121171428Y-62452380D01*
X121314285Y-62452380D01*
X121409523Y-62404761D01*
X121457142Y-62357142D01*
X121790476Y-61785714D02*
X122171428Y-61785714D01*
X121933333Y-61452380D02*
X121933333Y-62309523D01*
X121980952Y-62404761D01*
X122076190Y-62452380D01*
X122171428Y-62452380D01*
X136433333Y-61928571D02*
X136766666Y-61928571D01*
X136909523Y-62452380D02*
X136433333Y-62452380D01*
X136433333Y-61452380D01*
X136909523Y-61452380D01*
X137338095Y-62452380D02*
X137338095Y-61785714D01*
X137338095Y-61976190D02*
X137385714Y-61880952D01*
X137433333Y-61833333D01*
X137528571Y-61785714D01*
X137623809Y-61785714D01*
X137957142Y-62452380D02*
X137957142Y-61785714D01*
X137957142Y-61976190D02*
X138004761Y-61880952D01*
X138052380Y-61833333D01*
X138147619Y-61785714D01*
X138242857Y-61785714D01*
X138719047Y-62452380D02*
X138623809Y-62404761D01*
X138576190Y-62357142D01*
X138528571Y-62261904D01*
X138528571Y-61976190D01*
X138576190Y-61880952D01*
X138623809Y-61833333D01*
X138719047Y-61785714D01*
X138861904Y-61785714D01*
X138957142Y-61833333D01*
X139004761Y-61880952D01*
X139052380Y-61976190D01*
X139052380Y-62261904D01*
X139004761Y-62357142D01*
X138957142Y-62404761D01*
X138861904Y-62452380D01*
X138719047Y-62452380D01*
X139480952Y-62452380D02*
X139480952Y-61785714D01*
X139480952Y-61976190D02*
X139528571Y-61880952D01*
X139576190Y-61833333D01*
X139671428Y-61785714D01*
X139766666Y-61785714D01*
X139861904Y-62547619D02*
X140623809Y-62547619D01*
X140861904Y-62452380D02*
X140861904Y-61452380D01*
X141338095Y-61785714D02*
X141338095Y-62452380D01*
X141338095Y-61880952D02*
X141385714Y-61833333D01*
X141480952Y-61785714D01*
X141623809Y-61785714D01*
X141719047Y-61833333D01*
X141766666Y-61928571D01*
X141766666Y-62452380D01*
X75866666Y-90928571D02*
X75533333Y-90928571D01*
X75533333Y-91452380D02*
X75533333Y-90452380D01*
X76009523Y-90452380D01*
X76723809Y-90928571D02*
X76866666Y-90976190D01*
X76914285Y-91023809D01*
X76961904Y-91119047D01*
X76961904Y-91261904D01*
X76914285Y-91357142D01*
X76866666Y-91404761D01*
X76771428Y-91452380D01*
X76390476Y-91452380D01*
X76390476Y-90452380D01*
X76723809Y-90452380D01*
X76819047Y-90500000D01*
X76866666Y-90547619D01*
X76914285Y-90642857D01*
X76914285Y-90738095D01*
X76866666Y-90833333D01*
X76819047Y-90880952D01*
X76723809Y-90928571D01*
X76390476Y-90928571D01*
X77914285Y-91452380D02*
X77342857Y-91452380D01*
X77628571Y-91452380D02*
X77628571Y-90452380D01*
X77533333Y-90595238D01*
X77438095Y-90690476D01*
X77342857Y-90738095D01*
X88728095Y-77960000D02*
X88632857Y-77912380D01*
X88490000Y-77912380D01*
X88347142Y-77960000D01*
X88251904Y-78055238D01*
X88204285Y-78150476D01*
X88156666Y-78340952D01*
X88156666Y-78483809D01*
X88204285Y-78674285D01*
X88251904Y-78769523D01*
X88347142Y-78864761D01*
X88490000Y-78912380D01*
X88585238Y-78912380D01*
X88728095Y-78864761D01*
X88775714Y-78817142D01*
X88775714Y-78483809D01*
X88585238Y-78483809D01*
X89204285Y-78912380D02*
X89204285Y-77912380D01*
X89775714Y-78912380D01*
X89775714Y-77912380D01*
X90251904Y-78912380D02*
X90251904Y-77912380D01*
X90490000Y-77912380D01*
X90632857Y-77960000D01*
X90728095Y-78055238D01*
X90775714Y-78150476D01*
X90823333Y-78340952D01*
X90823333Y-78483809D01*
X90775714Y-78674285D01*
X90728095Y-78769523D01*
X90632857Y-78864761D01*
X90490000Y-78912380D01*
X90251904Y-78912380D01*
X88366666Y-83762380D02*
X88366666Y-84476666D01*
X88319047Y-84619523D01*
X88223809Y-84714761D01*
X88080952Y-84762380D01*
X87985714Y-84762380D01*
X88890476Y-84762380D02*
X89080952Y-84762380D01*
X89176190Y-84714761D01*
X89223809Y-84667142D01*
X89319047Y-84524285D01*
X89366666Y-84333809D01*
X89366666Y-83952857D01*
X89319047Y-83857619D01*
X89271428Y-83810000D01*
X89176190Y-83762380D01*
X88985714Y-83762380D01*
X88890476Y-83810000D01*
X88842857Y-83857619D01*
X88795238Y-83952857D01*
X88795238Y-84190952D01*
X88842857Y-84286190D01*
X88890476Y-84333809D01*
X88985714Y-84381428D01*
X89176190Y-84381428D01*
X89271428Y-84333809D01*
X89319047Y-84286190D01*
X89366666Y-84190952D01*
D14*
X121257619Y-130793333D02*
X123352857Y-130793333D01*
X120838571Y-132050476D02*
X122305238Y-127650476D01*
X123771904Y-132050476D01*
X125238571Y-132050476D02*
X125238571Y-127650476D01*
X126914761Y-127650476D01*
X127333809Y-127860000D01*
X127543333Y-128069523D01*
X127752857Y-128488571D01*
X127752857Y-129117142D01*
X127543333Y-129536190D01*
X127333809Y-129745714D01*
X126914761Y-129955238D01*
X125238571Y-129955238D01*
X132571904Y-132469523D02*
X132152857Y-132260000D01*
X131733809Y-131840952D01*
X131105238Y-131212380D01*
X130686190Y-131002857D01*
X130267142Y-131002857D01*
X130476666Y-132050476D02*
X130057619Y-131840952D01*
X129638571Y-131421904D01*
X129429047Y-130583809D01*
X129429047Y-129117142D01*
X129638571Y-128279047D01*
X130057619Y-127860000D01*
X130476666Y-127650476D01*
X131314761Y-127650476D01*
X131733809Y-127860000D01*
X132152857Y-128279047D01*
X132362380Y-129117142D01*
X132362380Y-130583809D01*
X132152857Y-131421904D01*
X131733809Y-131840952D01*
X131314761Y-132050476D01*
X130476666Y-132050476D01*
D10*
X75152380Y-61985238D02*
X74676190Y-62318571D01*
X75152380Y-62556666D02*
X74152380Y-62556666D01*
X74152380Y-62175714D01*
X74200000Y-62080476D01*
X74247619Y-62032857D01*
X74342857Y-61985238D01*
X74485714Y-61985238D01*
X74580952Y-62032857D01*
X74628571Y-62080476D01*
X74676190Y-62175714D01*
X74676190Y-62556666D01*
X74152380Y-61699523D02*
X75152380Y-61366190D01*
X74152380Y-61032857D01*
X75152380Y-60175714D02*
X75152380Y-60747142D01*
X75152380Y-60461428D02*
X74152380Y-60461428D01*
X74295238Y-60556666D01*
X74390476Y-60651904D01*
X74438095Y-60747142D01*
X78952380Y-66107285D02*
X78952380Y-66678714D01*
X78952380Y-66393000D02*
X77952380Y-66393000D01*
X78095238Y-66488238D01*
X78190476Y-66583476D01*
X78238095Y-66678714D01*
X104057142Y-99352380D02*
X103723809Y-98876190D01*
X103485714Y-99352380D02*
X103485714Y-98352380D01*
X103866666Y-98352380D01*
X103961904Y-98400000D01*
X104009523Y-98447619D01*
X104057142Y-98542857D01*
X104057142Y-98685714D01*
X104009523Y-98780952D01*
X103961904Y-98828571D01*
X103866666Y-98876190D01*
X103485714Y-98876190D01*
X105009523Y-99352380D02*
X104438095Y-99352380D01*
X104723809Y-99352380D02*
X104723809Y-98352380D01*
X104628571Y-98495238D01*
X104533333Y-98590476D01*
X104438095Y-98638095D01*
X105914285Y-98352380D02*
X105438095Y-98352380D01*
X105390476Y-98828571D01*
X105438095Y-98780952D01*
X105533333Y-98733333D01*
X105771428Y-98733333D01*
X105866666Y-98780952D01*
X105914285Y-98828571D01*
X105961904Y-98923809D01*
X105961904Y-99161904D01*
X105914285Y-99257142D01*
X105866666Y-99304761D01*
X105771428Y-99352380D01*
X105533333Y-99352380D01*
X105438095Y-99304761D01*
X105390476Y-99257142D01*
X80663333Y-51237142D02*
X80615714Y-51284761D01*
X80472857Y-51332380D01*
X80377619Y-51332380D01*
X80234761Y-51284761D01*
X80139523Y-51189523D01*
X80091904Y-51094285D01*
X80044285Y-50903809D01*
X80044285Y-50760952D01*
X80091904Y-50570476D01*
X80139523Y-50475238D01*
X80234761Y-50380000D01*
X80377619Y-50332380D01*
X80472857Y-50332380D01*
X80615714Y-50380000D01*
X80663333Y-50427619D01*
X81139523Y-51332380D02*
X81330000Y-51332380D01*
X81425238Y-51284761D01*
X81472857Y-51237142D01*
X81568095Y-51094285D01*
X81615714Y-50903809D01*
X81615714Y-50522857D01*
X81568095Y-50427619D01*
X81520476Y-50380000D01*
X81425238Y-50332380D01*
X81234761Y-50332380D01*
X81139523Y-50380000D01*
X81091904Y-50427619D01*
X81044285Y-50522857D01*
X81044285Y-50760952D01*
X81091904Y-50856190D01*
X81139523Y-50903809D01*
X81234761Y-50951428D01*
X81425238Y-50951428D01*
X81520476Y-50903809D01*
X81568095Y-50856190D01*
X81615714Y-50760952D01*
X72557142Y-94166666D02*
X72604761Y-94214285D01*
X72652380Y-94357142D01*
X72652380Y-94452380D01*
X72604761Y-94595238D01*
X72509523Y-94690476D01*
X72414285Y-94738095D01*
X72223809Y-94785714D01*
X72080952Y-94785714D01*
X71890476Y-94738095D01*
X71795238Y-94690476D01*
X71700000Y-94595238D01*
X71652380Y-94452380D01*
X71652380Y-94357142D01*
X71700000Y-94214285D01*
X71747619Y-94166666D01*
X72652380Y-93214285D02*
X72652380Y-93785714D01*
X72652380Y-93500000D02*
X71652380Y-93500000D01*
X71795238Y-93595238D01*
X71890476Y-93690476D01*
X71938095Y-93785714D01*
X102657142Y-57892857D02*
X102704761Y-57940476D01*
X102752380Y-58083333D01*
X102752380Y-58178571D01*
X102704761Y-58321428D01*
X102609523Y-58416666D01*
X102514285Y-58464285D01*
X102323809Y-58511904D01*
X102180952Y-58511904D01*
X101990476Y-58464285D01*
X101895238Y-58416666D01*
X101800000Y-58321428D01*
X101752380Y-58178571D01*
X101752380Y-58083333D01*
X101800000Y-57940476D01*
X101847619Y-57892857D01*
X102752380Y-56940476D02*
X102752380Y-57511904D01*
X102752380Y-57226190D02*
X101752380Y-57226190D01*
X101895238Y-57321428D01*
X101990476Y-57416666D01*
X102038095Y-57511904D01*
X102085714Y-56083333D02*
X102752380Y-56083333D01*
X101704761Y-56321428D02*
X102419047Y-56559523D01*
X102419047Y-55940476D01*
X103757142Y-100857142D02*
X103709523Y-100904761D01*
X103566666Y-100952380D01*
X103471428Y-100952380D01*
X103328571Y-100904761D01*
X103233333Y-100809523D01*
X103185714Y-100714285D01*
X103138095Y-100523809D01*
X103138095Y-100380952D01*
X103185714Y-100190476D01*
X103233333Y-100095238D01*
X103328571Y-100000000D01*
X103471428Y-99952380D01*
X103566666Y-99952380D01*
X103709523Y-100000000D01*
X103757142Y-100047619D01*
X104709523Y-100952380D02*
X104138095Y-100952380D01*
X104423809Y-100952380D02*
X104423809Y-99952380D01*
X104328571Y-100095238D01*
X104233333Y-100190476D01*
X104138095Y-100238095D01*
X105566666Y-99952380D02*
X105376190Y-99952380D01*
X105280952Y-100000000D01*
X105233333Y-100047619D01*
X105138095Y-100190476D01*
X105090476Y-100380952D01*
X105090476Y-100761904D01*
X105138095Y-100857142D01*
X105185714Y-100904761D01*
X105280952Y-100952380D01*
X105471428Y-100952380D01*
X105566666Y-100904761D01*
X105614285Y-100857142D01*
X105661904Y-100761904D01*
X105661904Y-100523809D01*
X105614285Y-100428571D01*
X105566666Y-100380952D01*
X105471428Y-100333333D01*
X105280952Y-100333333D01*
X105185714Y-100380952D01*
X105138095Y-100428571D01*
X105090476Y-100523809D01*
X161632380Y-59392857D02*
X161156190Y-59726190D01*
X161632380Y-59964285D02*
X160632380Y-59964285D01*
X160632380Y-59583333D01*
X160680000Y-59488095D01*
X160727619Y-59440476D01*
X160822857Y-59392857D01*
X160965714Y-59392857D01*
X161060952Y-59440476D01*
X161108571Y-59488095D01*
X161156190Y-59583333D01*
X161156190Y-59964285D01*
X160727619Y-59011904D02*
X160680000Y-58964285D01*
X160632380Y-58869047D01*
X160632380Y-58630952D01*
X160680000Y-58535714D01*
X160727619Y-58488095D01*
X160822857Y-58440476D01*
X160918095Y-58440476D01*
X161060952Y-58488095D01*
X161632380Y-59059523D01*
X161632380Y-58440476D01*
X161060952Y-57869047D02*
X161013333Y-57964285D01*
X160965714Y-58011904D01*
X160870476Y-58059523D01*
X160822857Y-58059523D01*
X160727619Y-58011904D01*
X160680000Y-57964285D01*
X160632380Y-57869047D01*
X160632380Y-57678571D01*
X160680000Y-57583333D01*
X160727619Y-57535714D01*
X160822857Y-57488095D01*
X160870476Y-57488095D01*
X160965714Y-57535714D01*
X161013333Y-57583333D01*
X161060952Y-57678571D01*
X161060952Y-57869047D01*
X161108571Y-57964285D01*
X161156190Y-58011904D01*
X161251428Y-58059523D01*
X161441904Y-58059523D01*
X161537142Y-58011904D01*
X161584761Y-57964285D01*
X161632380Y-57869047D01*
X161632380Y-57678571D01*
X161584761Y-57583333D01*
X161537142Y-57535714D01*
X161441904Y-57488095D01*
X161251428Y-57488095D01*
X161156190Y-57535714D01*
X161108571Y-57583333D01*
X161060952Y-57678571D01*
X85452380Y-65892857D02*
X84976190Y-66226190D01*
X85452380Y-66464285D02*
X84452380Y-66464285D01*
X84452380Y-66083333D01*
X84500000Y-65988095D01*
X84547619Y-65940476D01*
X84642857Y-65892857D01*
X84785714Y-65892857D01*
X84880952Y-65940476D01*
X84928571Y-65988095D01*
X84976190Y-66083333D01*
X84976190Y-66464285D01*
X84452380Y-65559523D02*
X84452380Y-64940476D01*
X84833333Y-65273809D01*
X84833333Y-65130952D01*
X84880952Y-65035714D01*
X84928571Y-64988095D01*
X85023809Y-64940476D01*
X85261904Y-64940476D01*
X85357142Y-64988095D01*
X85404761Y-65035714D01*
X85452380Y-65130952D01*
X85452380Y-65416666D01*
X85404761Y-65511904D01*
X85357142Y-65559523D01*
X84452380Y-64321428D02*
X84452380Y-64226190D01*
X84500000Y-64130952D01*
X84547619Y-64083333D01*
X84642857Y-64035714D01*
X84833333Y-63988095D01*
X85071428Y-63988095D01*
X85261904Y-64035714D01*
X85357142Y-64083333D01*
X85404761Y-64130952D01*
X85452380Y-64226190D01*
X85452380Y-64321428D01*
X85404761Y-64416666D01*
X85357142Y-64464285D01*
X85261904Y-64511904D01*
X85071428Y-64559523D01*
X84833333Y-64559523D01*
X84642857Y-64511904D01*
X84547619Y-64464285D01*
X84500000Y-64416666D01*
X84452380Y-64321428D01*
X56652380Y-132833333D02*
X57366666Y-132833333D01*
X57509523Y-132880952D01*
X57604761Y-132976190D01*
X57652380Y-133119047D01*
X57652380Y-133214285D01*
X57652380Y-132357142D02*
X56652380Y-132357142D01*
X56652380Y-131976190D01*
X56700000Y-131880952D01*
X56747619Y-131833333D01*
X56842857Y-131785714D01*
X56985714Y-131785714D01*
X57080952Y-131833333D01*
X57128571Y-131880952D01*
X57176190Y-131976190D01*
X57176190Y-132357142D01*
X57652380Y-130833333D02*
X57652380Y-131404761D01*
X57652380Y-131119047D02*
X56652380Y-131119047D01*
X56795238Y-131214285D01*
X56890476Y-131309523D01*
X56938095Y-131404761D01*
X57166666Y-36552380D02*
X57166666Y-37266666D01*
X57119047Y-37409523D01*
X57023809Y-37504761D01*
X56880952Y-37552380D01*
X56785714Y-37552380D01*
X57642857Y-37552380D02*
X57642857Y-36552380D01*
X58023809Y-36552380D01*
X58119047Y-36600000D01*
X58166666Y-36647619D01*
X58214285Y-36742857D01*
X58214285Y-36885714D01*
X58166666Y-36980952D01*
X58119047Y-37028571D01*
X58023809Y-37076190D01*
X57642857Y-37076190D01*
X58595238Y-36647619D02*
X58642857Y-36600000D01*
X58738095Y-36552380D01*
X58976190Y-36552380D01*
X59071428Y-36600000D01*
X59119047Y-36647619D01*
X59166666Y-36742857D01*
X59166666Y-36838095D01*
X59119047Y-36980952D01*
X58547619Y-37552380D01*
X59166666Y-37552380D01*
X61252380Y-129633333D02*
X61966666Y-129633333D01*
X62109523Y-129680952D01*
X62204761Y-129776190D01*
X62252380Y-129919047D01*
X62252380Y-130014285D01*
X62252380Y-129157142D02*
X61252380Y-129157142D01*
X61252380Y-128776190D01*
X61300000Y-128680952D01*
X61347619Y-128633333D01*
X61442857Y-128585714D01*
X61585714Y-128585714D01*
X61680952Y-128633333D01*
X61728571Y-128680952D01*
X61776190Y-128776190D01*
X61776190Y-129157142D01*
X61252380Y-128252380D02*
X61252380Y-127633333D01*
X61633333Y-127966666D01*
X61633333Y-127823809D01*
X61680952Y-127728571D01*
X61728571Y-127680952D01*
X61823809Y-127633333D01*
X62061904Y-127633333D01*
X62157142Y-127680952D01*
X62204761Y-127728571D01*
X62252380Y-127823809D01*
X62252380Y-128109523D01*
X62204761Y-128204761D01*
X62157142Y-128252380D01*
X63266666Y-116952380D02*
X63266666Y-117666666D01*
X63219047Y-117809523D01*
X63123809Y-117904761D01*
X62980952Y-117952380D01*
X62885714Y-117952380D01*
X63742857Y-117952380D02*
X63742857Y-116952380D01*
X64123809Y-116952380D01*
X64219047Y-117000000D01*
X64266666Y-117047619D01*
X64314285Y-117142857D01*
X64314285Y-117285714D01*
X64266666Y-117380952D01*
X64219047Y-117428571D01*
X64123809Y-117476190D01*
X63742857Y-117476190D01*
X65171428Y-117285714D02*
X65171428Y-117952380D01*
X64933333Y-116904761D02*
X64695238Y-117619047D01*
X65314285Y-117619047D01*
X63366666Y-123952380D02*
X63366666Y-124666666D01*
X63319047Y-124809523D01*
X63223809Y-124904761D01*
X63080952Y-124952380D01*
X62985714Y-124952380D01*
X63842857Y-124952380D02*
X63842857Y-123952380D01*
X64223809Y-123952380D01*
X64319047Y-124000000D01*
X64366666Y-124047619D01*
X64414285Y-124142857D01*
X64414285Y-124285714D01*
X64366666Y-124380952D01*
X64319047Y-124428571D01*
X64223809Y-124476190D01*
X63842857Y-124476190D01*
X65319047Y-123952380D02*
X64842857Y-123952380D01*
X64795238Y-124428571D01*
X64842857Y-124380952D01*
X64938095Y-124333333D01*
X65176190Y-124333333D01*
X65271428Y-124380952D01*
X65319047Y-124428571D01*
X65366666Y-124523809D01*
X65366666Y-124761904D01*
X65319047Y-124857142D01*
X65271428Y-124904761D01*
X65176190Y-124952380D01*
X64938095Y-124952380D01*
X64842857Y-124904761D01*
X64795238Y-124857142D01*
X60940476Y-36902380D02*
X60940476Y-37616666D01*
X60892857Y-37759523D01*
X60797619Y-37854761D01*
X60654761Y-37902380D01*
X60559523Y-37902380D01*
X61416666Y-37902380D02*
X61416666Y-36902380D01*
X61797619Y-36902380D01*
X61892857Y-36950000D01*
X61940476Y-36997619D01*
X61988095Y-37092857D01*
X61988095Y-37235714D01*
X61940476Y-37330952D01*
X61892857Y-37378571D01*
X61797619Y-37426190D01*
X61416666Y-37426190D01*
X62940476Y-37902380D02*
X62369047Y-37902380D01*
X62654761Y-37902380D02*
X62654761Y-36902380D01*
X62559523Y-37045238D01*
X62464285Y-37140476D01*
X62369047Y-37188095D01*
X63797619Y-37235714D02*
X63797619Y-37902380D01*
X63559523Y-36854761D02*
X63321428Y-37569047D01*
X63940476Y-37569047D01*
X57490476Y-41752380D02*
X57490476Y-42466666D01*
X57442857Y-42609523D01*
X57347619Y-42704761D01*
X57204761Y-42752380D01*
X57109523Y-42752380D01*
X57966666Y-42752380D02*
X57966666Y-41752380D01*
X58347619Y-41752380D01*
X58442857Y-41800000D01*
X58490476Y-41847619D01*
X58538095Y-41942857D01*
X58538095Y-42085714D01*
X58490476Y-42180952D01*
X58442857Y-42228571D01*
X58347619Y-42276190D01*
X57966666Y-42276190D01*
X59490476Y-42752380D02*
X58919047Y-42752380D01*
X59204761Y-42752380D02*
X59204761Y-41752380D01*
X59109523Y-41895238D01*
X59014285Y-41990476D01*
X58919047Y-42038095D01*
X60395238Y-41752380D02*
X59919047Y-41752380D01*
X59871428Y-42228571D01*
X59919047Y-42180952D01*
X60014285Y-42133333D01*
X60252380Y-42133333D01*
X60347619Y-42180952D01*
X60395238Y-42228571D01*
X60442857Y-42323809D01*
X60442857Y-42561904D01*
X60395238Y-42657142D01*
X60347619Y-42704761D01*
X60252380Y-42752380D01*
X60014285Y-42752380D01*
X59919047Y-42704761D01*
X59871428Y-42657142D01*
X82811880Y-72620095D02*
X81811880Y-72620095D01*
X81811880Y-72382000D01*
X81859500Y-72239142D01*
X81954738Y-72143904D01*
X82049976Y-72096285D01*
X82240452Y-72048666D01*
X82383309Y-72048666D01*
X82573785Y-72096285D01*
X82669023Y-72143904D01*
X82764261Y-72239142D01*
X82811880Y-72382000D01*
X82811880Y-72620095D01*
X82811880Y-71096285D02*
X82811880Y-71667714D01*
X82811880Y-71382000D02*
X81811880Y-71382000D01*
X81954738Y-71477238D01*
X82049976Y-71572476D01*
X82097595Y-71667714D01*
X63157142Y-64957142D02*
X63109523Y-65004761D01*
X62966666Y-65052380D01*
X62871428Y-65052380D01*
X62728571Y-65004761D01*
X62633333Y-64909523D01*
X62585714Y-64814285D01*
X62538095Y-64623809D01*
X62538095Y-64480952D01*
X62585714Y-64290476D01*
X62633333Y-64195238D01*
X62728571Y-64100000D01*
X62871428Y-64052380D01*
X62966666Y-64052380D01*
X63109523Y-64100000D01*
X63157142Y-64147619D01*
X63538095Y-64147619D02*
X63585714Y-64100000D01*
X63680952Y-64052380D01*
X63919047Y-64052380D01*
X64014285Y-64100000D01*
X64061904Y-64147619D01*
X64109523Y-64242857D01*
X64109523Y-64338095D01*
X64061904Y-64480952D01*
X63490476Y-65052380D01*
X64109523Y-65052380D01*
X64680952Y-64480952D02*
X64585714Y-64433333D01*
X64538095Y-64385714D01*
X64490476Y-64290476D01*
X64490476Y-64242857D01*
X64538095Y-64147619D01*
X64585714Y-64100000D01*
X64680952Y-64052380D01*
X64871428Y-64052380D01*
X64966666Y-64100000D01*
X65014285Y-64147619D01*
X65061904Y-64242857D01*
X65061904Y-64290476D01*
X65014285Y-64385714D01*
X64966666Y-64433333D01*
X64871428Y-64480952D01*
X64680952Y-64480952D01*
X64585714Y-64528571D01*
X64538095Y-64576190D01*
X64490476Y-64671428D01*
X64490476Y-64861904D01*
X64538095Y-64957142D01*
X64585714Y-65004761D01*
X64680952Y-65052380D01*
X64871428Y-65052380D01*
X64966666Y-65004761D01*
X65014285Y-64957142D01*
X65061904Y-64861904D01*
X65061904Y-64671428D01*
X65014285Y-64576190D01*
X64966666Y-64528571D01*
X64871428Y-64480952D01*
X73357142Y-41692857D02*
X73404761Y-41740476D01*
X73452380Y-41883333D01*
X73452380Y-41978571D01*
X73404761Y-42121428D01*
X73309523Y-42216666D01*
X73214285Y-42264285D01*
X73023809Y-42311904D01*
X72880952Y-42311904D01*
X72690476Y-42264285D01*
X72595238Y-42216666D01*
X72500000Y-42121428D01*
X72452380Y-41978571D01*
X72452380Y-41883333D01*
X72500000Y-41740476D01*
X72547619Y-41692857D01*
X72547619Y-41311904D02*
X72500000Y-41264285D01*
X72452380Y-41169047D01*
X72452380Y-40930952D01*
X72500000Y-40835714D01*
X72547619Y-40788095D01*
X72642857Y-40740476D01*
X72738095Y-40740476D01*
X72880952Y-40788095D01*
X73452380Y-41359523D01*
X73452380Y-40740476D01*
X73452380Y-40264285D02*
X73452380Y-40073809D01*
X73404761Y-39978571D01*
X73357142Y-39930952D01*
X73214285Y-39835714D01*
X73023809Y-39788095D01*
X72642857Y-39788095D01*
X72547619Y-39835714D01*
X72500000Y-39883333D01*
X72452380Y-39978571D01*
X72452380Y-40169047D01*
X72500000Y-40264285D01*
X72547619Y-40311904D01*
X72642857Y-40359523D01*
X72880952Y-40359523D01*
X72976190Y-40311904D01*
X73023809Y-40264285D01*
X73071428Y-40169047D01*
X73071428Y-39978571D01*
X73023809Y-39883333D01*
X72976190Y-39835714D01*
X72880952Y-39788095D01*
X71261904Y-117652380D02*
X71261904Y-116652380D01*
X71500000Y-116652380D01*
X71642857Y-116700000D01*
X71738095Y-116795238D01*
X71785714Y-116890476D01*
X71833333Y-117080952D01*
X71833333Y-117223809D01*
X71785714Y-117414285D01*
X71738095Y-117509523D01*
X71642857Y-117604761D01*
X71500000Y-117652380D01*
X71261904Y-117652380D01*
X72214285Y-116747619D02*
X72261904Y-116700000D01*
X72357142Y-116652380D01*
X72595238Y-116652380D01*
X72690476Y-116700000D01*
X72738095Y-116747619D01*
X72785714Y-116842857D01*
X72785714Y-116938095D01*
X72738095Y-117080952D01*
X72166666Y-117652380D01*
X72785714Y-117652380D01*
X71252380Y-55638095D02*
X70252380Y-55638095D01*
X70252380Y-55400000D01*
X70300000Y-55257142D01*
X70395238Y-55161904D01*
X70490476Y-55114285D01*
X70680952Y-55066666D01*
X70823809Y-55066666D01*
X71014285Y-55114285D01*
X71109523Y-55161904D01*
X71204761Y-55257142D01*
X71252380Y-55400000D01*
X71252380Y-55638095D01*
X70252380Y-54733333D02*
X70252380Y-54114285D01*
X70633333Y-54447619D01*
X70633333Y-54304761D01*
X70680952Y-54209523D01*
X70728571Y-54161904D01*
X70823809Y-54114285D01*
X71061904Y-54114285D01*
X71157142Y-54161904D01*
X71204761Y-54209523D01*
X71252380Y-54304761D01*
X71252380Y-54590476D01*
X71204761Y-54685714D01*
X71157142Y-54733333D01*
X168052380Y-43742857D02*
X167576190Y-44076190D01*
X168052380Y-44314285D02*
X167052380Y-44314285D01*
X167052380Y-43933333D01*
X167100000Y-43838095D01*
X167147619Y-43790476D01*
X167242857Y-43742857D01*
X167385714Y-43742857D01*
X167480952Y-43790476D01*
X167528571Y-43838095D01*
X167576190Y-43933333D01*
X167576190Y-44314285D01*
X168052380Y-42790476D02*
X168052380Y-43361904D01*
X168052380Y-43076190D02*
X167052380Y-43076190D01*
X167195238Y-43171428D01*
X167290476Y-43266666D01*
X167338095Y-43361904D01*
X167052380Y-42457142D02*
X167052380Y-41790476D01*
X168052380Y-42219047D01*
X160622380Y-39942857D02*
X160146190Y-40276190D01*
X160622380Y-40514285D02*
X159622380Y-40514285D01*
X159622380Y-40133333D01*
X159670000Y-40038095D01*
X159717619Y-39990476D01*
X159812857Y-39942857D01*
X159955714Y-39942857D01*
X160050952Y-39990476D01*
X160098571Y-40038095D01*
X160146190Y-40133333D01*
X160146190Y-40514285D01*
X159622380Y-39609523D02*
X159622380Y-38990476D01*
X160003333Y-39323809D01*
X160003333Y-39180952D01*
X160050952Y-39085714D01*
X160098571Y-39038095D01*
X160193809Y-38990476D01*
X160431904Y-38990476D01*
X160527142Y-39038095D01*
X160574761Y-39085714D01*
X160622380Y-39180952D01*
X160622380Y-39466666D01*
X160574761Y-39561904D01*
X160527142Y-39609523D01*
X159717619Y-38609523D02*
X159670000Y-38561904D01*
X159622380Y-38466666D01*
X159622380Y-38228571D01*
X159670000Y-38133333D01*
X159717619Y-38085714D01*
X159812857Y-38038095D01*
X159908095Y-38038095D01*
X160050952Y-38085714D01*
X160622380Y-38657142D01*
X160622380Y-38038095D01*
X168122380Y-47042857D02*
X167646190Y-47376190D01*
X168122380Y-47614285D02*
X167122380Y-47614285D01*
X167122380Y-47233333D01*
X167170000Y-47138095D01*
X167217619Y-47090476D01*
X167312857Y-47042857D01*
X167455714Y-47042857D01*
X167550952Y-47090476D01*
X167598571Y-47138095D01*
X167646190Y-47233333D01*
X167646190Y-47614285D01*
X167217619Y-46661904D02*
X167170000Y-46614285D01*
X167122380Y-46519047D01*
X167122380Y-46280952D01*
X167170000Y-46185714D01*
X167217619Y-46138095D01*
X167312857Y-46090476D01*
X167408095Y-46090476D01*
X167550952Y-46138095D01*
X168122380Y-46709523D01*
X168122380Y-46090476D01*
X167122380Y-45471428D02*
X167122380Y-45376190D01*
X167170000Y-45280952D01*
X167217619Y-45233333D01*
X167312857Y-45185714D01*
X167503333Y-45138095D01*
X167741428Y-45138095D01*
X167931904Y-45185714D01*
X168027142Y-45233333D01*
X168074761Y-45280952D01*
X168122380Y-45376190D01*
X168122380Y-45471428D01*
X168074761Y-45566666D01*
X168027142Y-45614285D01*
X167931904Y-45661904D01*
X167741428Y-45709523D01*
X167503333Y-45709523D01*
X167312857Y-45661904D01*
X167217619Y-45614285D01*
X167170000Y-45566666D01*
X167122380Y-45471428D01*
X168057142Y-37207142D02*
X168009523Y-37254761D01*
X167866666Y-37302380D01*
X167771428Y-37302380D01*
X167628571Y-37254761D01*
X167533333Y-37159523D01*
X167485714Y-37064285D01*
X167438095Y-36873809D01*
X167438095Y-36730952D01*
X167485714Y-36540476D01*
X167533333Y-36445238D01*
X167628571Y-36350000D01*
X167771428Y-36302380D01*
X167866666Y-36302380D01*
X168009523Y-36350000D01*
X168057142Y-36397619D01*
X168438095Y-36397619D02*
X168485714Y-36350000D01*
X168580952Y-36302380D01*
X168819047Y-36302380D01*
X168914285Y-36350000D01*
X168961904Y-36397619D01*
X169009523Y-36492857D01*
X169009523Y-36588095D01*
X168961904Y-36730952D01*
X168390476Y-37302380D01*
X169009523Y-37302380D01*
X169866666Y-36635714D02*
X169866666Y-37302380D01*
X169628571Y-36254761D02*
X169390476Y-36969047D01*
X170009523Y-36969047D01*
X163722380Y-39942857D02*
X163246190Y-40276190D01*
X163722380Y-40514285D02*
X162722380Y-40514285D01*
X162722380Y-40133333D01*
X162770000Y-40038095D01*
X162817619Y-39990476D01*
X162912857Y-39942857D01*
X163055714Y-39942857D01*
X163150952Y-39990476D01*
X163198571Y-40038095D01*
X163246190Y-40133333D01*
X163246190Y-40514285D01*
X162722380Y-39609523D02*
X162722380Y-38990476D01*
X163103333Y-39323809D01*
X163103333Y-39180952D01*
X163150952Y-39085714D01*
X163198571Y-39038095D01*
X163293809Y-38990476D01*
X163531904Y-38990476D01*
X163627142Y-39038095D01*
X163674761Y-39085714D01*
X163722380Y-39180952D01*
X163722380Y-39466666D01*
X163674761Y-39561904D01*
X163627142Y-39609523D01*
X163722380Y-38038095D02*
X163722380Y-38609523D01*
X163722380Y-38323809D02*
X162722380Y-38323809D01*
X162865238Y-38419047D01*
X162960476Y-38514285D01*
X163008095Y-38609523D01*
X164052380Y-50442857D02*
X163576190Y-50776190D01*
X164052380Y-51014285D02*
X163052380Y-51014285D01*
X163052380Y-50633333D01*
X163100000Y-50538095D01*
X163147619Y-50490476D01*
X163242857Y-50442857D01*
X163385714Y-50442857D01*
X163480952Y-50490476D01*
X163528571Y-50538095D01*
X163576190Y-50633333D01*
X163576190Y-51014285D01*
X164052380Y-49490476D02*
X164052380Y-50061904D01*
X164052380Y-49776190D02*
X163052380Y-49776190D01*
X163195238Y-49871428D01*
X163290476Y-49966666D01*
X163338095Y-50061904D01*
X164052380Y-49014285D02*
X164052380Y-48823809D01*
X164004761Y-48728571D01*
X163957142Y-48680952D01*
X163814285Y-48585714D01*
X163623809Y-48538095D01*
X163242857Y-48538095D01*
X163147619Y-48585714D01*
X163100000Y-48633333D01*
X163052380Y-48728571D01*
X163052380Y-48919047D01*
X163100000Y-49014285D01*
X163147619Y-49061904D01*
X163242857Y-49109523D01*
X163480952Y-49109523D01*
X163576190Y-49061904D01*
X163623809Y-49014285D01*
X163671428Y-48919047D01*
X163671428Y-48728571D01*
X163623809Y-48633333D01*
X163576190Y-48585714D01*
X163480952Y-48538095D01*
X163857142Y-46052380D02*
X163523809Y-45576190D01*
X163285714Y-46052380D02*
X163285714Y-45052380D01*
X163666666Y-45052380D01*
X163761904Y-45100000D01*
X163809523Y-45147619D01*
X163857142Y-45242857D01*
X163857142Y-45385714D01*
X163809523Y-45480952D01*
X163761904Y-45528571D01*
X163666666Y-45576190D01*
X163285714Y-45576190D01*
X164190476Y-45052380D02*
X164809523Y-45052380D01*
X164476190Y-45433333D01*
X164619047Y-45433333D01*
X164714285Y-45480952D01*
X164761904Y-45528571D01*
X164809523Y-45623809D01*
X164809523Y-45861904D01*
X164761904Y-45957142D01*
X164714285Y-46004761D01*
X164619047Y-46052380D01*
X164333333Y-46052380D01*
X164238095Y-46004761D01*
X164190476Y-45957142D01*
X165142857Y-45052380D02*
X165761904Y-45052380D01*
X165428571Y-45433333D01*
X165571428Y-45433333D01*
X165666666Y-45480952D01*
X165714285Y-45528571D01*
X165761904Y-45623809D01*
X165761904Y-45861904D01*
X165714285Y-45957142D01*
X165666666Y-46004761D01*
X165571428Y-46052380D01*
X165285714Y-46052380D01*
X165190476Y-46004761D01*
X165142857Y-45957142D01*
D15*
X124860000Y-53812779D02*
X124860000Y-53487221D01*
X123840000Y-53812779D02*
X123840000Y-53487221D01*
X177510000Y-41962779D02*
X177510000Y-41637221D01*
X176490000Y-41962779D02*
X176490000Y-41637221D01*
X90910000Y-103541422D02*
X90910000Y-104058578D01*
X89490000Y-103541422D02*
X89490000Y-104058578D01*
X99510000Y-99762779D02*
X99510000Y-99437221D01*
X98490000Y-99762779D02*
X98490000Y-99437221D01*
X174100000Y-44340000D02*
X172150000Y-44340000D01*
X174100000Y-44340000D02*
X176050000Y-44340000D01*
X174100000Y-49460000D02*
X172150000Y-49460000D01*
X174100000Y-49460000D02*
X177550000Y-49460000D01*
X79450000Y-56020000D02*
G75*
G03*
X79450000Y-56020000I-950000J0D01*
G01*
X168550000Y-130200000D02*
G75*
G03*
X168550000Y-130200000I-950000J0D01*
G01*
X183110000Y-48562779D02*
X183110000Y-48237221D01*
X182090000Y-48562779D02*
X182090000Y-48237221D01*
X99340000Y-104137221D02*
X99340000Y-104462779D01*
X100360000Y-104137221D02*
X100360000Y-104462779D01*
D16*
X185028750Y-129287679D02*
X187273928Y-129287679D01*
X187273928Y-129287679D02*
X187273928Y-127019821D01*
X187273928Y-127019821D02*
X188453214Y-127019821D01*
X188453214Y-127019821D02*
X188453214Y-132780179D01*
X188453214Y-132780179D02*
X187273928Y-132780179D01*
X187273928Y-132780179D02*
X187273928Y-130262430D01*
X187273928Y-130262430D02*
X186157008Y-130268313D01*
X186157008Y-130268313D02*
X185040089Y-130274196D01*
X185040089Y-130274196D02*
X185034227Y-131527187D01*
X185034227Y-131527187D02*
X185028365Y-132780179D01*
X185028365Y-132780179D02*
X183849464Y-132780179D01*
X183849464Y-132780179D02*
X183849464Y-127019821D01*
X183849464Y-127019821D02*
X185028750Y-127019821D01*
X185028750Y-127019821D02*
X185028750Y-129287679D01*
X185028750Y-129287679D02*
X185028750Y-129287679D01*
G36*
X185028750Y-129287679D02*
G01*
X187273928Y-129287679D01*
X187273928Y-127019821D01*
X188453214Y-127019821D01*
X188453214Y-132780179D01*
X187273928Y-132780179D01*
X187273928Y-130262430D01*
X186157008Y-130268313D01*
X185040089Y-130274196D01*
X185034227Y-131527187D01*
X185028365Y-132780179D01*
X183849464Y-132780179D01*
X183849464Y-127019821D01*
X185028750Y-127019821D01*
X185028750Y-129287679D01*
G37*
X185028750Y-129287679D02*
X187273928Y-129287679D01*
X187273928Y-127019821D01*
X188453214Y-127019821D01*
X188453214Y-132780179D01*
X187273928Y-132780179D01*
X187273928Y-130262430D01*
X186157008Y-130268313D01*
X185040089Y-130274196D01*
X185034227Y-131527187D01*
X185028365Y-132780179D01*
X183849464Y-132780179D01*
X183849464Y-127019821D01*
X185028750Y-127019821D01*
X185028750Y-129287679D01*
X180833214Y-128530139D02*
X180984632Y-128531181D01*
X180984632Y-128531181D02*
X181101317Y-128534145D01*
X181101317Y-128534145D02*
X181193881Y-128540060D01*
X181193881Y-128540060D02*
X181272938Y-128549951D01*
X181272938Y-128549951D02*
X181349104Y-128564847D01*
X181349104Y-128564847D02*
X181432992Y-128585772D01*
X181432992Y-128585772D02*
X181446977Y-128589516D01*
X181446977Y-128589516D02*
X181737131Y-128690250D01*
X181737131Y-128690250D02*
X182004691Y-128828979D01*
X182004691Y-128828979D02*
X182246674Y-129003213D01*
X182246674Y-129003213D02*
X182460095Y-129210467D01*
X182460095Y-129210467D02*
X182641971Y-129448253D01*
X182641971Y-129448253D02*
X182784936Y-129704678D01*
X182784936Y-129704678D02*
X182868031Y-129908601D01*
X182868031Y-129908601D02*
X182926668Y-130117963D01*
X182926668Y-130117963D02*
X182963748Y-130345596D01*
X182963748Y-130345596D02*
X182980857Y-130571394D01*
X182980857Y-130571394D02*
X182977946Y-130905223D01*
X182977946Y-130905223D02*
X182938266Y-131213691D01*
X182938266Y-131213691D02*
X182860974Y-131499125D01*
X182860974Y-131499125D02*
X182745226Y-131763849D01*
X182745226Y-131763849D02*
X182590181Y-132010189D01*
X182590181Y-132010189D02*
X182394996Y-132240472D01*
X182394996Y-132240472D02*
X182365044Y-132270937D01*
X182365044Y-132270937D02*
X182143705Y-132466500D01*
X182143705Y-132466500D02*
X181909111Y-132621647D01*
X181909111Y-132621647D02*
X181653469Y-132740986D01*
X181653469Y-132740986D02*
X181464276Y-132803854D01*
X181464276Y-132803854D02*
X181346005Y-132829662D01*
X181346005Y-132829662D02*
X181196262Y-132850474D01*
X181196262Y-132850474D02*
X181028751Y-132865339D01*
X181028751Y-132865339D02*
X180857178Y-132873310D01*
X180857178Y-132873310D02*
X180695247Y-132873438D01*
X180695247Y-132873438D02*
X180567538Y-132865912D01*
X180567538Y-132865912D02*
X180330853Y-132826899D01*
X180330853Y-132826899D02*
X180086823Y-132758784D01*
X180086823Y-132758784D02*
X179847517Y-132666426D01*
X179847517Y-132666426D02*
X179625004Y-132554685D01*
X179625004Y-132554685D02*
X179431353Y-132428419D01*
X179431353Y-132428419D02*
X179379863Y-132387747D01*
X179379863Y-132387747D02*
X179186198Y-132197838D01*
X179186198Y-132197838D02*
X179021439Y-131975038D01*
X179021439Y-131975038D02*
X178887306Y-131722762D01*
X178887306Y-131722762D02*
X178785519Y-131444424D01*
X178785519Y-131444424D02*
X178717797Y-131143440D01*
X178717797Y-131143440D02*
X178703890Y-131045268D01*
X178703890Y-131045268D02*
X178681331Y-130701926D01*
X178681331Y-130701926D02*
X178681779Y-130693750D01*
X178681779Y-130693750D02*
X179830201Y-130693750D01*
X179830201Y-130693750D02*
X179843929Y-130963973D01*
X179843929Y-130963973D02*
X179887686Y-131201240D01*
X179887686Y-131201240D02*
X179962221Y-131407234D01*
X179962221Y-131407234D02*
X180068282Y-131583638D01*
X180068282Y-131583638D02*
X180206616Y-131732135D01*
X180206616Y-131732135D02*
X180334311Y-131827695D01*
X180334311Y-131827695D02*
X180440507Y-131889022D01*
X180440507Y-131889022D02*
X180540397Y-131928883D01*
X180540397Y-131928883D02*
X180648199Y-131950725D01*
X180648199Y-131950725D02*
X180778129Y-131957998D01*
X180778129Y-131957998D02*
X180867232Y-131956954D01*
X180867232Y-131956954D02*
X180983911Y-131951720D01*
X180983911Y-131951720D02*
X181070321Y-131941662D01*
X181070321Y-131941662D02*
X181141505Y-131923986D01*
X181141505Y-131923986D02*
X181212505Y-131895903D01*
X181212505Y-131895903D02*
X181223695Y-131890793D01*
X181223695Y-131890793D02*
X181357989Y-131810974D01*
X181357989Y-131810974D02*
X181489719Y-131701219D01*
X181489719Y-131701219D02*
X181603615Y-131575136D01*
X181603615Y-131575136D02*
X181646955Y-131513617D01*
X181646955Y-131513617D02*
X181723295Y-131361827D01*
X181723295Y-131361827D02*
X181782447Y-131178326D01*
X181782447Y-131178326D02*
X181822412Y-130974143D01*
X181822412Y-130974143D02*
X181841188Y-130760304D01*
X181841188Y-130760304D02*
X181836777Y-130547838D01*
X181836777Y-130547838D02*
X181831688Y-130495092D01*
X181831688Y-130495092D02*
X181794670Y-130265291D01*
X181794670Y-130265291D02*
X181738408Y-130071242D01*
X181738408Y-130071242D02*
X181660188Y-129906456D01*
X181660188Y-129906456D02*
X181557291Y-129764446D01*
X181557291Y-129764446D02*
X181500897Y-129704955D01*
X181500897Y-129704955D02*
X181340097Y-129577246D01*
X181340097Y-129577246D02*
X181163347Y-129488650D01*
X181163347Y-129488650D02*
X180976606Y-129439164D01*
X180976606Y-129439164D02*
X180785834Y-129428788D01*
X180785834Y-129428788D02*
X180596991Y-129457520D01*
X180596991Y-129457520D02*
X180416035Y-129525358D01*
X180416035Y-129525358D02*
X180248927Y-129632300D01*
X180248927Y-129632300D02*
X180167565Y-129705282D01*
X180167565Y-129705282D02*
X180043384Y-129852991D01*
X180043384Y-129852991D02*
X179949328Y-130018858D01*
X179949328Y-130018858D02*
X179883637Y-130208039D01*
X179883637Y-130208039D02*
X179844550Y-130425694D01*
X179844550Y-130425694D02*
X179830306Y-130676980D01*
X179830306Y-130676980D02*
X179830201Y-130693750D01*
X179830201Y-130693750D02*
X178681779Y-130693750D01*
X178681779Y-130693750D02*
X178699294Y-130374671D01*
X178699294Y-130374671D02*
X178757249Y-130065131D01*
X178757249Y-130065131D02*
X178854671Y-129774933D01*
X178854671Y-129774933D02*
X178991031Y-129505704D01*
X178991031Y-129505704D02*
X179165803Y-129259073D01*
X179165803Y-129259073D02*
X179344642Y-129067967D01*
X179344642Y-129067967D02*
X179561689Y-128892640D01*
X179561689Y-128892640D02*
X179809726Y-128745890D01*
X179809726Y-128745890D02*
X180081707Y-128631595D01*
X180081707Y-128631595D02*
X180211521Y-128591370D01*
X180211521Y-128591370D02*
X180298131Y-128568368D01*
X180298131Y-128568368D02*
X180372742Y-128551863D01*
X180372742Y-128551863D02*
X180445883Y-128540815D01*
X180445883Y-128540815D02*
X180528082Y-128534189D01*
X180528082Y-128534189D02*
X180629868Y-128530947D01*
X180629868Y-128530947D02*
X180761771Y-128530053D01*
X180761771Y-128530053D02*
X180833214Y-128530139D01*
X180833214Y-128530139D02*
X180833214Y-128530139D01*
G36*
X178757249Y-130065131D02*
G01*
X178854671Y-129774933D01*
X178991031Y-129505704D01*
X179165803Y-129259073D01*
X179344642Y-129067967D01*
X179561689Y-128892640D01*
X179809726Y-128745890D01*
X180081707Y-128631595D01*
X180211521Y-128591370D01*
X180298131Y-128568368D01*
X180372742Y-128551863D01*
X180445883Y-128540815D01*
X180528082Y-128534189D01*
X180629868Y-128530947D01*
X180761771Y-128530053D01*
X180833214Y-128530139D01*
X180984632Y-128531181D01*
X181101317Y-128534145D01*
X181193881Y-128540060D01*
X181272938Y-128549951D01*
X181349104Y-128564847D01*
X181432992Y-128585772D01*
X181446977Y-128589516D01*
X181737131Y-128690250D01*
X182004691Y-128828979D01*
X182246674Y-129003213D01*
X182460095Y-129210467D01*
X182641971Y-129448253D01*
X182784936Y-129704678D01*
X182868031Y-129908601D01*
X182926668Y-130117963D01*
X182963748Y-130345596D01*
X182980857Y-130571394D01*
X182977946Y-130905223D01*
X182938266Y-131213691D01*
X182860974Y-131499125D01*
X182745226Y-131763849D01*
X182590181Y-132010189D01*
X182394996Y-132240472D01*
X182365044Y-132270937D01*
X182143705Y-132466500D01*
X181909111Y-132621647D01*
X181653469Y-132740986D01*
X181464276Y-132803854D01*
X181346005Y-132829662D01*
X181196262Y-132850474D01*
X181028751Y-132865339D01*
X180857178Y-132873310D01*
X180695247Y-132873438D01*
X180567538Y-132865912D01*
X180330853Y-132826899D01*
X180086823Y-132758784D01*
X179847517Y-132666426D01*
X179625004Y-132554685D01*
X179431353Y-132428419D01*
X179379863Y-132387747D01*
X179186198Y-132197838D01*
X179021439Y-131975038D01*
X178887306Y-131722762D01*
X178785519Y-131444424D01*
X178717797Y-131143440D01*
X178703890Y-131045268D01*
X178681331Y-130701926D01*
X178681779Y-130693750D01*
X179830201Y-130693750D01*
X179843929Y-130963973D01*
X179887686Y-131201240D01*
X179962221Y-131407234D01*
X180068282Y-131583638D01*
X180206616Y-131732135D01*
X180334311Y-131827695D01*
X180440507Y-131889022D01*
X180540397Y-131928883D01*
X180648199Y-131950725D01*
X180778129Y-131957998D01*
X180867232Y-131956954D01*
X180983911Y-131951720D01*
X181070321Y-131941662D01*
X181141505Y-131923986D01*
X181212505Y-131895903D01*
X181223695Y-131890793D01*
X181357989Y-131810974D01*
X181489719Y-131701219D01*
X181603615Y-131575136D01*
X181646955Y-131513617D01*
X181723295Y-131361827D01*
X181782447Y-131178326D01*
X181822412Y-130974143D01*
X181841188Y-130760304D01*
X181836777Y-130547838D01*
X181831688Y-130495092D01*
X181794670Y-130265291D01*
X181738408Y-130071242D01*
X181660188Y-129906456D01*
X181557291Y-129764446D01*
X181500897Y-129704955D01*
X181340097Y-129577246D01*
X181163347Y-129488650D01*
X180976606Y-129439164D01*
X180785834Y-129428788D01*
X180596991Y-129457520D01*
X180416035Y-129525358D01*
X180248927Y-129632300D01*
X180167565Y-129705282D01*
X180043384Y-129852991D01*
X179949328Y-130018858D01*
X179883637Y-130208039D01*
X179844550Y-130425694D01*
X179830306Y-130676980D01*
X179830201Y-130693750D01*
X178681779Y-130693750D01*
X178699294Y-130374671D01*
X178757249Y-130065131D01*
G37*
X178757249Y-130065131D02*
X178854671Y-129774933D01*
X178991031Y-129505704D01*
X179165803Y-129259073D01*
X179344642Y-129067967D01*
X179561689Y-128892640D01*
X179809726Y-128745890D01*
X180081707Y-128631595D01*
X180211521Y-128591370D01*
X180298131Y-128568368D01*
X180372742Y-128551863D01*
X180445883Y-128540815D01*
X180528082Y-128534189D01*
X180629868Y-128530947D01*
X180761771Y-128530053D01*
X180833214Y-128530139D01*
X180984632Y-128531181D01*
X181101317Y-128534145D01*
X181193881Y-128540060D01*
X181272938Y-128549951D01*
X181349104Y-128564847D01*
X181432992Y-128585772D01*
X181446977Y-128589516D01*
X181737131Y-128690250D01*
X182004691Y-128828979D01*
X182246674Y-129003213D01*
X182460095Y-129210467D01*
X182641971Y-129448253D01*
X182784936Y-129704678D01*
X182868031Y-129908601D01*
X182926668Y-130117963D01*
X182963748Y-130345596D01*
X182980857Y-130571394D01*
X182977946Y-130905223D01*
X182938266Y-131213691D01*
X182860974Y-131499125D01*
X182745226Y-131763849D01*
X182590181Y-132010189D01*
X182394996Y-132240472D01*
X182365044Y-132270937D01*
X182143705Y-132466500D01*
X181909111Y-132621647D01*
X181653469Y-132740986D01*
X181464276Y-132803854D01*
X181346005Y-132829662D01*
X181196262Y-132850474D01*
X181028751Y-132865339D01*
X180857178Y-132873310D01*
X180695247Y-132873438D01*
X180567538Y-132865912D01*
X180330853Y-132826899D01*
X180086823Y-132758784D01*
X179847517Y-132666426D01*
X179625004Y-132554685D01*
X179431353Y-132428419D01*
X179379863Y-132387747D01*
X179186198Y-132197838D01*
X179021439Y-131975038D01*
X178887306Y-131722762D01*
X178785519Y-131444424D01*
X178717797Y-131143440D01*
X178703890Y-131045268D01*
X178681331Y-130701926D01*
X178681779Y-130693750D01*
X179830201Y-130693750D01*
X179843929Y-130963973D01*
X179887686Y-131201240D01*
X179962221Y-131407234D01*
X180068282Y-131583638D01*
X180206616Y-131732135D01*
X180334311Y-131827695D01*
X180440507Y-131889022D01*
X180540397Y-131928883D01*
X180648199Y-131950725D01*
X180778129Y-131957998D01*
X180867232Y-131956954D01*
X180983911Y-131951720D01*
X181070321Y-131941662D01*
X181141505Y-131923986D01*
X181212505Y-131895903D01*
X181223695Y-131890793D01*
X181357989Y-131810974D01*
X181489719Y-131701219D01*
X181603615Y-131575136D01*
X181646955Y-131513617D01*
X181723295Y-131361827D01*
X181782447Y-131178326D01*
X181822412Y-130974143D01*
X181841188Y-130760304D01*
X181836777Y-130547838D01*
X181831688Y-130495092D01*
X181794670Y-130265291D01*
X181738408Y-130071242D01*
X181660188Y-129906456D01*
X181557291Y-129764446D01*
X181500897Y-129704955D01*
X181340097Y-129577246D01*
X181163347Y-129488650D01*
X180976606Y-129439164D01*
X180785834Y-129428788D01*
X180596991Y-129457520D01*
X180416035Y-129525358D01*
X180248927Y-129632300D01*
X180167565Y-129705282D01*
X180043384Y-129852991D01*
X179949328Y-130018858D01*
X179883637Y-130208039D01*
X179844550Y-130425694D01*
X179830306Y-130676980D01*
X179830201Y-130693750D01*
X178681779Y-130693750D01*
X178699294Y-130374671D01*
X178757249Y-130065131D01*
X174738348Y-127027046D02*
X175094595Y-127029765D01*
X175094595Y-127029765D02*
X175412866Y-127032980D01*
X175412866Y-127032980D02*
X175692145Y-127036670D01*
X175692145Y-127036670D02*
X175931416Y-127040814D01*
X175931416Y-127040814D02*
X176129663Y-127045391D01*
X176129663Y-127045391D02*
X176285871Y-127050380D01*
X176285871Y-127050380D02*
X176399024Y-127055760D01*
X176399024Y-127055760D02*
X176468107Y-127061511D01*
X176468107Y-127061511D02*
X176478928Y-127063099D01*
X176478928Y-127063099D02*
X176689430Y-127104224D01*
X176689430Y-127104224D02*
X176863593Y-127149936D01*
X176863593Y-127149936D02*
X177010433Y-127204363D01*
X177010433Y-127204363D02*
X177138965Y-127271632D01*
X177138965Y-127271632D02*
X177258204Y-127355868D01*
X177258204Y-127355868D02*
X177377168Y-127461200D01*
X177377168Y-127461200D02*
X177402399Y-127485833D01*
X177402399Y-127485833D02*
X177497891Y-127584505D01*
X177497891Y-127584505D02*
X177568407Y-127669383D01*
X177568407Y-127669383D02*
X177624550Y-127754807D01*
X177624550Y-127754807D02*
X177676919Y-127855117D01*
X177676919Y-127855117D02*
X177679734Y-127861002D01*
X177679734Y-127861002D02*
X177748870Y-128016744D01*
X177748870Y-128016744D02*
X177797129Y-128155619D01*
X177797129Y-128155619D02*
X177827777Y-128292648D01*
X177827777Y-128292648D02*
X177844079Y-128442856D01*
X177844079Y-128442856D02*
X177849300Y-128621265D01*
X177849300Y-128621265D02*
X177849338Y-128641339D01*
X177849338Y-128641339D02*
X177837440Y-128895293D01*
X177837440Y-128895293D02*
X177799861Y-129117428D01*
X177799861Y-129117428D02*
X177733775Y-129315104D01*
X177733775Y-129315104D02*
X177636356Y-129495679D01*
X177636356Y-129495679D02*
X177504779Y-129666513D01*
X177504779Y-129666513D02*
X177422211Y-129753652D01*
X177422211Y-129753652D02*
X177311423Y-129856558D01*
X177311423Y-129856558D02*
X177200495Y-129942462D01*
X177200495Y-129942462D02*
X177081421Y-130015341D01*
X177081421Y-130015341D02*
X176946194Y-130079170D01*
X176946194Y-130079170D02*
X176786810Y-130137928D01*
X176786810Y-130137928D02*
X176595261Y-130195590D01*
X176595261Y-130195590D02*
X176459428Y-130231866D01*
X176459428Y-130231866D02*
X176383231Y-130251518D01*
X176383231Y-130251518D02*
X176550142Y-130364581D01*
X176550142Y-130364581D02*
X176719945Y-130495003D01*
X176719945Y-130495003D02*
X176895000Y-130657436D01*
X176895000Y-130657436D02*
X177064914Y-130841314D01*
X177064914Y-130841314D02*
X177219295Y-131036076D01*
X177219295Y-131036076D02*
X177242146Y-131067946D01*
X177242146Y-131067946D02*
X177281138Y-131125149D01*
X177281138Y-131125149D02*
X177337762Y-131210945D01*
X177337762Y-131210945D02*
X177409023Y-131320589D01*
X177409023Y-131320589D02*
X177491927Y-131449336D01*
X177491927Y-131449336D02*
X177583478Y-131592441D01*
X177583478Y-131592441D02*
X177680684Y-131745156D01*
X177680684Y-131745156D02*
X177780548Y-131902738D01*
X177780548Y-131902738D02*
X177880077Y-132060440D01*
X177880077Y-132060440D02*
X177976275Y-132213517D01*
X177976275Y-132213517D02*
X178066149Y-132357224D01*
X178066149Y-132357224D02*
X178146703Y-132486814D01*
X178146703Y-132486814D02*
X178214943Y-132597542D01*
X178214943Y-132597542D02*
X178267875Y-132684663D01*
X178267875Y-132684663D02*
X178302503Y-132743431D01*
X178302503Y-132743431D02*
X178315834Y-132769101D01*
X178315834Y-132769101D02*
X178315892Y-132769531D01*
X178315892Y-132769531D02*
X178294125Y-132772164D01*
X178294125Y-132772164D02*
X178232470Y-132774560D01*
X178232470Y-132774560D02*
X178136395Y-132776635D01*
X178136395Y-132776635D02*
X178011369Y-132778308D01*
X178011369Y-132778308D02*
X177862860Y-132779494D01*
X177862860Y-132779494D02*
X177696338Y-132780110D01*
X177696338Y-132780110D02*
X177616812Y-132780179D01*
X177616812Y-132780179D02*
X176917732Y-132780179D01*
X176917732Y-132780179D02*
X176338417Y-131912723D01*
X176338417Y-131912723D02*
X176213515Y-131726423D01*
X176213515Y-131726423D02*
X176090684Y-131544574D01*
X176090684Y-131544574D02*
X175973372Y-131372186D01*
X175973372Y-131372186D02*
X175865028Y-131214272D01*
X175865028Y-131214272D02*
X175769099Y-131075840D01*
X175769099Y-131075840D02*
X175689035Y-130961902D01*
X175689035Y-130961902D02*
X175628282Y-130877469D01*
X175628282Y-130877469D02*
X175600441Y-130840342D01*
X175600441Y-130840342D02*
X175480272Y-130697055D01*
X175480272Y-130697055D02*
X175363394Y-130586516D01*
X175363394Y-130586516D02*
X175241430Y-130504885D01*
X175241430Y-130504885D02*
X175106004Y-130448317D01*
X175106004Y-130448317D02*
X174948739Y-130412969D01*
X174948739Y-130412969D02*
X174761258Y-130395000D01*
X174761258Y-130395000D02*
X174620604Y-130390833D01*
X174620604Y-130390833D02*
X174335803Y-130387589D01*
X174335803Y-130387589D02*
X174324063Y-132780179D01*
X174324063Y-132780179D02*
X173145178Y-132780179D01*
X173145178Y-132780179D02*
X173145178Y-128017679D01*
X173145178Y-128017679D02*
X174324464Y-128017679D01*
X174324464Y-128017679D02*
X174324464Y-129446429D01*
X174324464Y-129446429D02*
X175033169Y-129446242D01*
X175033169Y-129446242D02*
X175219182Y-129445453D01*
X175219182Y-129445453D02*
X175400318Y-129443309D01*
X175400318Y-129443309D02*
X175568926Y-129440006D01*
X175568926Y-129440006D02*
X175717353Y-129435736D01*
X175717353Y-129435736D02*
X175837948Y-129430691D01*
X175837948Y-129430691D02*
X175923061Y-129425066D01*
X175923061Y-129425066D02*
X175940027Y-129423352D01*
X175940027Y-129423352D02*
X176118620Y-129395016D01*
X176118620Y-129395016D02*
X176260414Y-129353701D01*
X176260414Y-129353701D02*
X176372860Y-129296377D01*
X176372860Y-129296377D02*
X176463412Y-129220017D01*
X176463412Y-129220017D02*
X176476969Y-129205147D01*
X176476969Y-129205147D02*
X176569838Y-129067636D01*
X176569838Y-129067636D02*
X176625187Y-128907632D01*
X176625187Y-128907632D02*
X176643920Y-128722452D01*
X176643920Y-128722452D02*
X176643891Y-128709375D01*
X176643891Y-128709375D02*
X176624550Y-128524068D01*
X176624550Y-128524068D02*
X176569659Y-128366920D01*
X176569659Y-128366920D02*
X176479111Y-128237785D01*
X176479111Y-128237785D02*
X176352801Y-128136518D01*
X176352801Y-128136518D02*
X176190619Y-128062974D01*
X176190619Y-128062974D02*
X176160791Y-128053608D01*
X176160791Y-128053608D02*
X176122190Y-128044059D01*
X176122190Y-128044059D02*
X176073984Y-128036305D01*
X176073984Y-128036305D02*
X176011453Y-128030172D01*
X176011453Y-128030172D02*
X175929877Y-128025487D01*
X175929877Y-128025487D02*
X175824535Y-128022077D01*
X175824535Y-128022077D02*
X175690708Y-128019768D01*
X175690708Y-128019768D02*
X175523676Y-128018388D01*
X175523676Y-128018388D02*
X175318718Y-128017763D01*
X175318718Y-128017763D02*
X175182133Y-128017679D01*
X175182133Y-128017679D02*
X174324464Y-128017679D01*
X174324464Y-128017679D02*
X173145178Y-128017679D01*
X173145178Y-128017679D02*
X173145178Y-127016576D01*
X173145178Y-127016576D02*
X174738348Y-127027046D01*
X174738348Y-127027046D02*
X174738348Y-127027046D01*
G36*
X174738348Y-127027046D02*
G01*
X175094595Y-127029765D01*
X175412866Y-127032980D01*
X175692145Y-127036670D01*
X175931416Y-127040814D01*
X176129663Y-127045391D01*
X176285871Y-127050380D01*
X176399024Y-127055760D01*
X176468107Y-127061511D01*
X176478928Y-127063099D01*
X176689430Y-127104224D01*
X176863593Y-127149936D01*
X177010433Y-127204363D01*
X177138965Y-127271632D01*
X177258204Y-127355868D01*
X177377168Y-127461200D01*
X177402399Y-127485833D01*
X177497891Y-127584505D01*
X177568407Y-127669383D01*
X177624550Y-127754807D01*
X177676919Y-127855117D01*
X177679734Y-127861002D01*
X177748870Y-128016744D01*
X177797129Y-128155619D01*
X177827777Y-128292648D01*
X177844079Y-128442856D01*
X177849300Y-128621265D01*
X177849338Y-128641339D01*
X177837440Y-128895293D01*
X177799861Y-129117428D01*
X177733775Y-129315104D01*
X177636356Y-129495679D01*
X177504779Y-129666513D01*
X177422211Y-129753652D01*
X177311423Y-129856558D01*
X177200495Y-129942462D01*
X177081421Y-130015341D01*
X176946194Y-130079170D01*
X176786810Y-130137928D01*
X176595261Y-130195590D01*
X176459428Y-130231866D01*
X176383231Y-130251518D01*
X176550142Y-130364581D01*
X176719945Y-130495003D01*
X176895000Y-130657436D01*
X177064914Y-130841314D01*
X177219295Y-131036076D01*
X177242146Y-131067946D01*
X177281138Y-131125149D01*
X177337762Y-131210945D01*
X177409023Y-131320589D01*
X177491927Y-131449336D01*
X177583478Y-131592441D01*
X177680684Y-131745156D01*
X177780548Y-131902738D01*
X177880077Y-132060440D01*
X177976275Y-132213517D01*
X178066149Y-132357224D01*
X178146703Y-132486814D01*
X178214943Y-132597542D01*
X178267875Y-132684663D01*
X178302503Y-132743431D01*
X178315834Y-132769101D01*
X178315892Y-132769531D01*
X178294125Y-132772164D01*
X178232470Y-132774560D01*
X178136395Y-132776635D01*
X178011369Y-132778308D01*
X177862860Y-132779494D01*
X177696338Y-132780110D01*
X177616812Y-132780179D01*
X176917732Y-132780179D01*
X176338417Y-131912723D01*
X176213515Y-131726423D01*
X176090684Y-131544574D01*
X175973372Y-131372186D01*
X175865028Y-131214272D01*
X175769099Y-131075840D01*
X175689035Y-130961902D01*
X175628282Y-130877469D01*
X175600441Y-130840342D01*
X175480272Y-130697055D01*
X175363394Y-130586516D01*
X175241430Y-130504885D01*
X175106004Y-130448317D01*
X174948739Y-130412969D01*
X174761258Y-130395000D01*
X174620604Y-130390833D01*
X174335803Y-130387589D01*
X174324063Y-132780179D01*
X173145178Y-132780179D01*
X173145178Y-129446429D01*
X174324464Y-129446429D01*
X175033169Y-129446242D01*
X175219182Y-129445453D01*
X175400318Y-129443309D01*
X175568926Y-129440006D01*
X175717353Y-129435736D01*
X175837948Y-129430691D01*
X175923061Y-129425066D01*
X175940027Y-129423352D01*
X176118620Y-129395016D01*
X176260414Y-129353701D01*
X176372860Y-129296377D01*
X176463412Y-129220017D01*
X176476969Y-129205147D01*
X176569838Y-129067636D01*
X176625187Y-128907632D01*
X176643920Y-128722452D01*
X176643891Y-128709375D01*
X176624550Y-128524068D01*
X176569659Y-128366920D01*
X176479111Y-128237785D01*
X176352801Y-128136518D01*
X176190619Y-128062974D01*
X176160791Y-128053608D01*
X176122190Y-128044059D01*
X176073984Y-128036305D01*
X176011453Y-128030172D01*
X175929877Y-128025487D01*
X175824535Y-128022077D01*
X175690708Y-128019768D01*
X175523676Y-128018388D01*
X175318718Y-128017763D01*
X175182133Y-128017679D01*
X174324464Y-128017679D01*
X174324464Y-129446429D01*
X173145178Y-129446429D01*
X173145178Y-127016576D01*
X174738348Y-127027046D01*
G37*
X174738348Y-127027046D02*
X175094595Y-127029765D01*
X175412866Y-127032980D01*
X175692145Y-127036670D01*
X175931416Y-127040814D01*
X176129663Y-127045391D01*
X176285871Y-127050380D01*
X176399024Y-127055760D01*
X176468107Y-127061511D01*
X176478928Y-127063099D01*
X176689430Y-127104224D01*
X176863593Y-127149936D01*
X177010433Y-127204363D01*
X177138965Y-127271632D01*
X177258204Y-127355868D01*
X177377168Y-127461200D01*
X177402399Y-127485833D01*
X177497891Y-127584505D01*
X177568407Y-127669383D01*
X177624550Y-127754807D01*
X177676919Y-127855117D01*
X177679734Y-127861002D01*
X177748870Y-128016744D01*
X177797129Y-128155619D01*
X177827777Y-128292648D01*
X177844079Y-128442856D01*
X177849300Y-128621265D01*
X177849338Y-128641339D01*
X177837440Y-128895293D01*
X177799861Y-129117428D01*
X177733775Y-129315104D01*
X177636356Y-129495679D01*
X177504779Y-129666513D01*
X177422211Y-129753652D01*
X177311423Y-129856558D01*
X177200495Y-129942462D01*
X177081421Y-130015341D01*
X176946194Y-130079170D01*
X176786810Y-130137928D01*
X176595261Y-130195590D01*
X176459428Y-130231866D01*
X176383231Y-130251518D01*
X176550142Y-130364581D01*
X176719945Y-130495003D01*
X176895000Y-130657436D01*
X177064914Y-130841314D01*
X177219295Y-131036076D01*
X177242146Y-131067946D01*
X177281138Y-131125149D01*
X177337762Y-131210945D01*
X177409023Y-131320589D01*
X177491927Y-131449336D01*
X177583478Y-131592441D01*
X177680684Y-131745156D01*
X177780548Y-131902738D01*
X177880077Y-132060440D01*
X177976275Y-132213517D01*
X178066149Y-132357224D01*
X178146703Y-132486814D01*
X178214943Y-132597542D01*
X178267875Y-132684663D01*
X178302503Y-132743431D01*
X178315834Y-132769101D01*
X178315892Y-132769531D01*
X178294125Y-132772164D01*
X178232470Y-132774560D01*
X178136395Y-132776635D01*
X178011369Y-132778308D01*
X177862860Y-132779494D01*
X177696338Y-132780110D01*
X177616812Y-132780179D01*
X176917732Y-132780179D01*
X176338417Y-131912723D01*
X176213515Y-131726423D01*
X176090684Y-131544574D01*
X175973372Y-131372186D01*
X175865028Y-131214272D01*
X175769099Y-131075840D01*
X175689035Y-130961902D01*
X175628282Y-130877469D01*
X175600441Y-130840342D01*
X175480272Y-130697055D01*
X175363394Y-130586516D01*
X175241430Y-130504885D01*
X175106004Y-130448317D01*
X174948739Y-130412969D01*
X174761258Y-130395000D01*
X174620604Y-130390833D01*
X174335803Y-130387589D01*
X174324063Y-132780179D01*
X173145178Y-132780179D01*
X173145178Y-129446429D01*
X174324464Y-129446429D01*
X175033169Y-129446242D01*
X175219182Y-129445453D01*
X175400318Y-129443309D01*
X175568926Y-129440006D01*
X175717353Y-129435736D01*
X175837948Y-129430691D01*
X175923061Y-129425066D01*
X175940027Y-129423352D01*
X176118620Y-129395016D01*
X176260414Y-129353701D01*
X176372860Y-129296377D01*
X176463412Y-129220017D01*
X176476969Y-129205147D01*
X176569838Y-129067636D01*
X176625187Y-128907632D01*
X176643920Y-128722452D01*
X176643891Y-128709375D01*
X176624550Y-128524068D01*
X176569659Y-128366920D01*
X176479111Y-128237785D01*
X176352801Y-128136518D01*
X176190619Y-128062974D01*
X176160791Y-128053608D01*
X176122190Y-128044059D01*
X176073984Y-128036305D01*
X176011453Y-128030172D01*
X175929877Y-128025487D01*
X175824535Y-128022077D01*
X175690708Y-128019768D01*
X175523676Y-128018388D01*
X175318718Y-128017763D01*
X175182133Y-128017679D01*
X174324464Y-128017679D01*
X174324464Y-129446429D01*
X173145178Y-129446429D01*
X173145178Y-127016576D01*
X174738348Y-127027046D01*
X192086632Y-126944987D02*
X192315956Y-126972497D01*
X192315956Y-126972497D02*
X192525995Y-127016937D01*
X192525995Y-127016937D02*
X192724833Y-127079711D01*
X192724833Y-127079711D02*
X192920557Y-127162226D01*
X192920557Y-127162226D02*
X192963706Y-127183023D01*
X192963706Y-127183023D02*
X193197308Y-127321313D01*
X193197308Y-127321313D02*
X193397374Y-127489953D01*
X193397374Y-127489953D02*
X193564331Y-127689436D01*
X193564331Y-127689436D02*
X193698605Y-127920254D01*
X193698605Y-127920254D02*
X193785327Y-128135363D01*
X193785327Y-128135363D02*
X193821998Y-128263355D01*
X193821998Y-128263355D02*
X193850695Y-128398596D01*
X193850695Y-128398596D02*
X193865667Y-128510670D01*
X193865667Y-128510670D02*
X193879241Y-128686696D01*
X193879241Y-128686696D02*
X193813950Y-128687926D01*
X193813950Y-128687926D02*
X193772922Y-128689067D01*
X193772922Y-128689067D02*
X193693991Y-128691586D01*
X193693991Y-128691586D02*
X193584579Y-128695232D01*
X193584579Y-128695232D02*
X193452112Y-128699758D01*
X193452112Y-128699758D02*
X193304014Y-128704914D01*
X193304014Y-128704914D02*
X193227053Y-128707628D01*
X193227053Y-128707628D02*
X192705446Y-128726101D01*
X192705446Y-128726101D02*
X192664182Y-128565734D01*
X192664182Y-128565734D02*
X192594587Y-128372995D01*
X192594587Y-128372995D02*
X192493741Y-128211979D01*
X192493741Y-128211979D02*
X192362870Y-128084046D01*
X192362870Y-128084046D02*
X192203204Y-127990559D01*
X192203204Y-127990559D02*
X192115803Y-127958041D01*
X192115803Y-127958041D02*
X192010822Y-127934995D01*
X192010822Y-127934995D02*
X191874864Y-127919055D01*
X191874864Y-127919055D02*
X191721807Y-127910596D01*
X191721807Y-127910596D02*
X191565529Y-127909994D01*
X191565529Y-127909994D02*
X191419909Y-127917626D01*
X191419909Y-127917626D02*
X191298824Y-127933866D01*
X191298824Y-127933866D02*
X191290025Y-127935673D01*
X191290025Y-127935673D02*
X191113834Y-127986343D01*
X191113834Y-127986343D02*
X190960331Y-128056861D01*
X190960331Y-128056861D02*
X190836255Y-128143180D01*
X190836255Y-128143180D02*
X190748346Y-128241252D01*
X190748346Y-128241252D02*
X190730386Y-128271686D01*
X190730386Y-128271686D02*
X190707454Y-128348025D01*
X190707454Y-128348025D02*
X190699531Y-128447458D01*
X190699531Y-128447458D02*
X190706690Y-128550256D01*
X190706690Y-128550256D02*
X190729004Y-128636685D01*
X190729004Y-128636685D02*
X190729032Y-128636752D01*
X190729032Y-128636752D02*
X190764967Y-128696107D01*
X190764967Y-128696107D02*
X190820362Y-128761327D01*
X190820362Y-128761327D02*
X190847407Y-128787116D01*
X190847407Y-128787116D02*
X190906873Y-128834232D01*
X190906873Y-128834232D02*
X190976214Y-128878289D01*
X190976214Y-128878289D02*
X191059893Y-128920901D01*
X191059893Y-128920901D02*
X191162377Y-128963682D01*
X191162377Y-128963682D02*
X191288130Y-129008248D01*
X191288130Y-129008248D02*
X191441618Y-129056213D01*
X191441618Y-129056213D02*
X191627305Y-129109192D01*
X191627305Y-129109192D02*
X191849657Y-129168799D01*
X191849657Y-129168799D02*
X192036428Y-129217103D01*
X192036428Y-129217103D02*
X192350274Y-129301297D01*
X192350274Y-129301297D02*
X192623178Y-129383583D01*
X192623178Y-129383583D02*
X192859378Y-129466098D01*
X192859378Y-129466098D02*
X193063107Y-129550977D01*
X193063107Y-129550977D02*
X193238601Y-129640357D01*
X193238601Y-129640357D02*
X193390096Y-129736375D01*
X193390096Y-129736375D02*
X193521828Y-129841167D01*
X193521828Y-129841167D02*
X193638031Y-129956868D01*
X193638031Y-129956868D02*
X193733647Y-130073166D01*
X193733647Y-130073166D02*
X193842507Y-130245468D01*
X193842507Y-130245468D02*
X193932520Y-130442798D01*
X193932520Y-130442798D02*
X193995397Y-130646074D01*
X193995397Y-130646074D02*
X194007405Y-130703585D01*
X194007405Y-130703585D02*
X194025052Y-130845109D01*
X194025052Y-130845109D02*
X194032548Y-131010686D01*
X194032548Y-131010686D02*
X194030263Y-131184673D01*
X194030263Y-131184673D02*
X194018569Y-131351429D01*
X194018569Y-131351429D02*
X193997839Y-131495314D01*
X193997839Y-131495314D02*
X193987500Y-131541401D01*
X193987500Y-131541401D02*
X193923079Y-131732721D01*
X193923079Y-131732721D02*
X193829110Y-131930214D01*
X193829110Y-131930214D02*
X193714633Y-132116207D01*
X193714633Y-132116207D02*
X193648303Y-132204613D01*
X193648303Y-132204613D02*
X193473069Y-132385408D01*
X193473069Y-132385408D02*
X193262131Y-132540166D01*
X193262131Y-132540166D02*
X193017594Y-132667908D01*
X193017594Y-132667908D02*
X192741561Y-132767654D01*
X192741561Y-132767654D02*
X192436136Y-132838424D01*
X192436136Y-132838424D02*
X192222637Y-132868445D01*
X192222637Y-132868445D02*
X192046432Y-132882327D01*
X192046432Y-132882327D02*
X191850022Y-132889306D01*
X191850022Y-132889306D02*
X191647612Y-132889504D01*
X191647612Y-132889504D02*
X191453409Y-132883046D01*
X191453409Y-132883046D02*
X191281616Y-132870055D01*
X191281616Y-132870055D02*
X191197321Y-132859498D01*
X191197321Y-132859498D02*
X190887341Y-132798740D01*
X190887341Y-132798740D02*
X190612881Y-132714451D01*
X190612881Y-132714451D02*
X190369461Y-132604486D01*
X190369461Y-132604486D02*
X190152604Y-132466698D01*
X190152604Y-132466698D02*
X189957829Y-132298942D01*
X189957829Y-132298942D02*
X189898040Y-132237078D01*
X189898040Y-132237078D02*
X189751579Y-132051526D01*
X189751579Y-132051526D02*
X189621569Y-131832745D01*
X189621569Y-131832745D02*
X189512629Y-131591292D01*
X189512629Y-131591292D02*
X189429375Y-131337725D01*
X189429375Y-131337725D02*
X189376423Y-131082601D01*
X189376423Y-131082601D02*
X189369406Y-131028259D01*
X189369406Y-131028259D02*
X189362091Y-130955101D01*
X189362091Y-130955101D02*
X189363756Y-130916161D01*
X189363756Y-130916161D02*
X189377626Y-130900666D01*
X189377626Y-130900666D02*
X189406928Y-130897842D01*
X189406928Y-130897842D02*
X189408454Y-130897840D01*
X189408454Y-130897840D02*
X189446837Y-130895702D01*
X189446837Y-130895702D02*
X189522629Y-130889746D01*
X189522629Y-130889746D02*
X189628103Y-130880644D01*
X189628103Y-130880644D02*
X189755533Y-130869066D01*
X189755533Y-130869066D02*
X189897193Y-130855683D01*
X189897193Y-130855683D02*
X189927321Y-130852775D01*
X189927321Y-130852775D02*
X190101296Y-130835879D01*
X190101296Y-130835879D02*
X190235424Y-130823213D01*
X190235424Y-130823213D02*
X190335030Y-130814932D01*
X190335030Y-130814932D02*
X190405442Y-130811190D01*
X190405442Y-130811190D02*
X190451985Y-130812139D01*
X190451985Y-130812139D02*
X190479986Y-130817934D01*
X190479986Y-130817934D02*
X190494771Y-130828728D01*
X190494771Y-130828728D02*
X190501666Y-130844676D01*
X190501666Y-130844676D02*
X190505997Y-130865932D01*
X190505997Y-130865932D02*
X190506738Y-130869509D01*
X190506738Y-130869509D02*
X190537902Y-130984752D01*
X190537902Y-130984752D02*
X190583833Y-131117631D01*
X190583833Y-131117631D02*
X190637496Y-131250014D01*
X190637496Y-131250014D02*
X190691854Y-131363769D01*
X190691854Y-131363769D02*
X190713243Y-131401702D01*
X190713243Y-131401702D02*
X190836881Y-131563918D01*
X190836881Y-131563918D02*
X190992416Y-131694475D01*
X190992416Y-131694475D02*
X191178787Y-131792873D01*
X191178787Y-131792873D02*
X191394931Y-131858616D01*
X191394931Y-131858616D02*
X191639789Y-131891205D01*
X191639789Y-131891205D02*
X191764285Y-131894927D01*
X191764285Y-131894927D02*
X192017181Y-131880309D01*
X192017181Y-131880309D02*
X192237328Y-131835989D01*
X192237328Y-131835989D02*
X192426849Y-131761266D01*
X192426849Y-131761266D02*
X192587868Y-131655440D01*
X192587868Y-131655440D02*
X192644309Y-131604697D01*
X192644309Y-131604697D02*
X192756896Y-131469232D01*
X192756896Y-131469232D02*
X192830659Y-131324532D01*
X192830659Y-131324532D02*
X192865015Y-131176086D01*
X192865015Y-131176086D02*
X192859382Y-131029380D01*
X192859382Y-131029380D02*
X192813178Y-130889904D01*
X192813178Y-130889904D02*
X192732789Y-130770925D01*
X192732789Y-130770925D02*
X192682217Y-130719365D01*
X192682217Y-130719365D02*
X192623219Y-130672122D01*
X192623219Y-130672122D02*
X192551629Y-130627619D01*
X192551629Y-130627619D02*
X192463284Y-130584280D01*
X192463284Y-130584280D02*
X192354019Y-130540527D01*
X192354019Y-130540527D02*
X192219669Y-130494785D01*
X192219669Y-130494785D02*
X192056069Y-130445477D01*
X192056069Y-130445477D02*
X191859056Y-130391026D01*
X191859056Y-130391026D02*
X191624465Y-130329856D01*
X191624465Y-130329856D02*
X191453667Y-130286699D01*
X191453667Y-130286699D02*
X191101473Y-130189589D01*
X191101473Y-130189589D02*
X190792105Y-130085409D01*
X190792105Y-130085409D02*
X190526115Y-129974386D01*
X190526115Y-129974386D02*
X190304059Y-129856745D01*
X190304059Y-129856745D02*
X190158187Y-129757843D01*
X190158187Y-129757843D02*
X189969578Y-129585709D01*
X189969578Y-129585709D02*
X189815784Y-129388385D01*
X189815784Y-129388385D02*
X189697833Y-129170946D01*
X189697833Y-129170946D02*
X189616757Y-128938465D01*
X189616757Y-128938465D02*
X189573584Y-128696017D01*
X189573584Y-128696017D02*
X189569346Y-128448677D01*
X189569346Y-128448677D02*
X189605073Y-128201518D01*
X189605073Y-128201518D02*
X189681794Y-127959616D01*
X189681794Y-127959616D02*
X189760070Y-127796799D01*
X189760070Y-127796799D02*
X189884884Y-127613077D01*
X189884884Y-127613077D02*
X190045529Y-127441503D01*
X190045529Y-127441503D02*
X190232659Y-127290164D01*
X190232659Y-127290164D02*
X190436930Y-127167145D01*
X190436930Y-127167145D02*
X190544721Y-127117905D01*
X190544721Y-127117905D02*
X190711354Y-127055619D01*
X190711354Y-127055619D02*
X190871902Y-127008682D01*
X190871902Y-127008682D02*
X191037851Y-126974980D01*
X191037851Y-126974980D02*
X191220689Y-126952400D01*
X191220689Y-126952400D02*
X191431903Y-126938826D01*
X191431903Y-126938826D02*
X191537791Y-126935134D01*
X191537791Y-126935134D02*
X191829939Y-126933001D01*
X191829939Y-126933001D02*
X192086632Y-126944987D01*
X192086632Y-126944987D02*
X192086632Y-126944987D01*
G36*
X192086632Y-126944987D02*
G01*
X192315956Y-126972497D01*
X192525995Y-127016937D01*
X192724833Y-127079711D01*
X192920557Y-127162226D01*
X192963706Y-127183023D01*
X193197308Y-127321313D01*
X193397374Y-127489953D01*
X193564331Y-127689436D01*
X193698605Y-127920254D01*
X193785327Y-128135363D01*
X193821998Y-128263355D01*
X193850695Y-128398596D01*
X193865667Y-128510670D01*
X193879241Y-128686696D01*
X193813950Y-128687926D01*
X193772922Y-128689067D01*
X193693991Y-128691586D01*
X193584579Y-128695232D01*
X193452112Y-128699758D01*
X193304014Y-128704914D01*
X193227053Y-128707628D01*
X192705446Y-128726101D01*
X192664182Y-128565734D01*
X192594587Y-128372995D01*
X192493741Y-128211979D01*
X192362870Y-128084046D01*
X192203204Y-127990559D01*
X192115803Y-127958041D01*
X192010822Y-127934995D01*
X191874864Y-127919055D01*
X191721807Y-127910596D01*
X191565529Y-127909994D01*
X191419909Y-127917626D01*
X191298824Y-127933866D01*
X191290025Y-127935673D01*
X191113834Y-127986343D01*
X190960331Y-128056861D01*
X190836255Y-128143180D01*
X190748346Y-128241252D01*
X190730386Y-128271686D01*
X190707454Y-128348025D01*
X190699531Y-128447458D01*
X190706690Y-128550256D01*
X190729004Y-128636685D01*
X190729032Y-128636752D01*
X190764967Y-128696107D01*
X190820362Y-128761327D01*
X190847407Y-128787116D01*
X190906873Y-128834232D01*
X190976214Y-128878289D01*
X191059893Y-128920901D01*
X191162377Y-128963682D01*
X191288130Y-129008248D01*
X191441618Y-129056213D01*
X191627305Y-129109192D01*
X191849657Y-129168799D01*
X192036428Y-129217103D01*
X192350274Y-129301297D01*
X192623178Y-129383583D01*
X192859378Y-129466098D01*
X193063107Y-129550977D01*
X193238601Y-129640357D01*
X193390096Y-129736375D01*
X193521828Y-129841167D01*
X193638031Y-129956868D01*
X193733647Y-130073166D01*
X193842507Y-130245468D01*
X193932520Y-130442798D01*
X193995397Y-130646074D01*
X194007405Y-130703585D01*
X194025052Y-130845109D01*
X194032548Y-131010686D01*
X194030263Y-131184673D01*
X194018569Y-131351429D01*
X193997839Y-131495314D01*
X193987500Y-131541401D01*
X193923079Y-131732721D01*
X193829110Y-131930214D01*
X193714633Y-132116207D01*
X193648303Y-132204613D01*
X193473069Y-132385408D01*
X193262131Y-132540166D01*
X193017594Y-132667908D01*
X192741561Y-132767654D01*
X192436136Y-132838424D01*
X192222637Y-132868445D01*
X192046432Y-132882327D01*
X191850022Y-132889306D01*
X191647612Y-132889504D01*
X191453409Y-132883046D01*
X191281616Y-132870055D01*
X191197321Y-132859498D01*
X190887341Y-132798740D01*
X190612881Y-132714451D01*
X190369461Y-132604486D01*
X190152604Y-132466698D01*
X189957829Y-132298942D01*
X189898040Y-132237078D01*
X189751579Y-132051526D01*
X189621569Y-131832745D01*
X189512629Y-131591292D01*
X189429375Y-131337725D01*
X189376423Y-131082601D01*
X189369406Y-131028259D01*
X189362091Y-130955101D01*
X189363756Y-130916161D01*
X189377626Y-130900666D01*
X189406928Y-130897842D01*
X189408454Y-130897840D01*
X189446837Y-130895702D01*
X189522629Y-130889746D01*
X189628103Y-130880644D01*
X189755533Y-130869066D01*
X189897193Y-130855683D01*
X189927321Y-130852775D01*
X190101296Y-130835879D01*
X190235424Y-130823213D01*
X190335030Y-130814932D01*
X190405442Y-130811190D01*
X190451985Y-130812139D01*
X190479986Y-130817934D01*
X190494771Y-130828728D01*
X190501666Y-130844676D01*
X190505997Y-130865932D01*
X190506738Y-130869509D01*
X190537902Y-130984752D01*
X190583833Y-131117631D01*
X190637496Y-131250014D01*
X190691854Y-131363769D01*
X190713243Y-131401702D01*
X190836881Y-131563918D01*
X190992416Y-131694475D01*
X191178787Y-131792873D01*
X191394931Y-131858616D01*
X191639789Y-131891205D01*
X191764285Y-131894927D01*
X192017181Y-131880309D01*
X192237328Y-131835989D01*
X192426849Y-131761266D01*
X192587868Y-131655440D01*
X192644309Y-131604697D01*
X192756896Y-131469232D01*
X192830659Y-131324532D01*
X192865015Y-131176086D01*
X192859382Y-131029380D01*
X192813178Y-130889904D01*
X192732789Y-130770925D01*
X192682217Y-130719365D01*
X192623219Y-130672122D01*
X192551629Y-130627619D01*
X192463284Y-130584280D01*
X192354019Y-130540527D01*
X192219669Y-130494785D01*
X192056069Y-130445477D01*
X191859056Y-130391026D01*
X191624465Y-130329856D01*
X191453667Y-130286699D01*
X191101473Y-130189589D01*
X190792105Y-130085409D01*
X190526115Y-129974386D01*
X190304059Y-129856745D01*
X190158187Y-129757843D01*
X189969578Y-129585709D01*
X189815784Y-129388385D01*
X189697833Y-129170946D01*
X189616757Y-128938465D01*
X189573584Y-128696017D01*
X189569346Y-128448677D01*
X189605073Y-128201518D01*
X189681794Y-127959616D01*
X189760070Y-127796799D01*
X189884884Y-127613077D01*
X190045529Y-127441503D01*
X190232659Y-127290164D01*
X190436930Y-127167145D01*
X190544721Y-127117905D01*
X190711354Y-127055619D01*
X190871902Y-127008682D01*
X191037851Y-126974980D01*
X191220689Y-126952400D01*
X191431903Y-126938826D01*
X191537791Y-126935134D01*
X191829939Y-126933001D01*
X192086632Y-126944987D01*
G37*
X192086632Y-126944987D02*
X192315956Y-126972497D01*
X192525995Y-127016937D01*
X192724833Y-127079711D01*
X192920557Y-127162226D01*
X192963706Y-127183023D01*
X193197308Y-127321313D01*
X193397374Y-127489953D01*
X193564331Y-127689436D01*
X193698605Y-127920254D01*
X193785327Y-128135363D01*
X193821998Y-128263355D01*
X193850695Y-128398596D01*
X193865667Y-128510670D01*
X193879241Y-128686696D01*
X193813950Y-128687926D01*
X193772922Y-128689067D01*
X193693991Y-128691586D01*
X193584579Y-128695232D01*
X193452112Y-128699758D01*
X193304014Y-128704914D01*
X193227053Y-128707628D01*
X192705446Y-128726101D01*
X192664182Y-128565734D01*
X192594587Y-128372995D01*
X192493741Y-128211979D01*
X192362870Y-128084046D01*
X192203204Y-127990559D01*
X192115803Y-127958041D01*
X192010822Y-127934995D01*
X191874864Y-127919055D01*
X191721807Y-127910596D01*
X191565529Y-127909994D01*
X191419909Y-127917626D01*
X191298824Y-127933866D01*
X191290025Y-127935673D01*
X191113834Y-127986343D01*
X190960331Y-128056861D01*
X190836255Y-128143180D01*
X190748346Y-128241252D01*
X190730386Y-128271686D01*
X190707454Y-128348025D01*
X190699531Y-128447458D01*
X190706690Y-128550256D01*
X190729004Y-128636685D01*
X190729032Y-128636752D01*
X190764967Y-128696107D01*
X190820362Y-128761327D01*
X190847407Y-128787116D01*
X190906873Y-128834232D01*
X190976214Y-128878289D01*
X191059893Y-128920901D01*
X191162377Y-128963682D01*
X191288130Y-129008248D01*
X191441618Y-129056213D01*
X191627305Y-129109192D01*
X191849657Y-129168799D01*
X192036428Y-129217103D01*
X192350274Y-129301297D01*
X192623178Y-129383583D01*
X192859378Y-129466098D01*
X193063107Y-129550977D01*
X193238601Y-129640357D01*
X193390096Y-129736375D01*
X193521828Y-129841167D01*
X193638031Y-129956868D01*
X193733647Y-130073166D01*
X193842507Y-130245468D01*
X193932520Y-130442798D01*
X193995397Y-130646074D01*
X194007405Y-130703585D01*
X194025052Y-130845109D01*
X194032548Y-131010686D01*
X194030263Y-131184673D01*
X194018569Y-131351429D01*
X193997839Y-131495314D01*
X193987500Y-131541401D01*
X193923079Y-131732721D01*
X193829110Y-131930214D01*
X193714633Y-132116207D01*
X193648303Y-132204613D01*
X193473069Y-132385408D01*
X193262131Y-132540166D01*
X193017594Y-132667908D01*
X192741561Y-132767654D01*
X192436136Y-132838424D01*
X192222637Y-132868445D01*
X192046432Y-132882327D01*
X191850022Y-132889306D01*
X191647612Y-132889504D01*
X191453409Y-132883046D01*
X191281616Y-132870055D01*
X191197321Y-132859498D01*
X190887341Y-132798740D01*
X190612881Y-132714451D01*
X190369461Y-132604486D01*
X190152604Y-132466698D01*
X189957829Y-132298942D01*
X189898040Y-132237078D01*
X189751579Y-132051526D01*
X189621569Y-131832745D01*
X189512629Y-131591292D01*
X189429375Y-131337725D01*
X189376423Y-131082601D01*
X189369406Y-131028259D01*
X189362091Y-130955101D01*
X189363756Y-130916161D01*
X189377626Y-130900666D01*
X189406928Y-130897842D01*
X189408454Y-130897840D01*
X189446837Y-130895702D01*
X189522629Y-130889746D01*
X189628103Y-130880644D01*
X189755533Y-130869066D01*
X189897193Y-130855683D01*
X189927321Y-130852775D01*
X190101296Y-130835879D01*
X190235424Y-130823213D01*
X190335030Y-130814932D01*
X190405442Y-130811190D01*
X190451985Y-130812139D01*
X190479986Y-130817934D01*
X190494771Y-130828728D01*
X190501666Y-130844676D01*
X190505997Y-130865932D01*
X190506738Y-130869509D01*
X190537902Y-130984752D01*
X190583833Y-131117631D01*
X190637496Y-131250014D01*
X190691854Y-131363769D01*
X190713243Y-131401702D01*
X190836881Y-131563918D01*
X190992416Y-131694475D01*
X191178787Y-131792873D01*
X191394931Y-131858616D01*
X191639789Y-131891205D01*
X191764285Y-131894927D01*
X192017181Y-131880309D01*
X192237328Y-131835989D01*
X192426849Y-131761266D01*
X192587868Y-131655440D01*
X192644309Y-131604697D01*
X192756896Y-131469232D01*
X192830659Y-131324532D01*
X192865015Y-131176086D01*
X192859382Y-131029380D01*
X192813178Y-130889904D01*
X192732789Y-130770925D01*
X192682217Y-130719365D01*
X192623219Y-130672122D01*
X192551629Y-130627619D01*
X192463284Y-130584280D01*
X192354019Y-130540527D01*
X192219669Y-130494785D01*
X192056069Y-130445477D01*
X191859056Y-130391026D01*
X191624465Y-130329856D01*
X191453667Y-130286699D01*
X191101473Y-130189589D01*
X190792105Y-130085409D01*
X190526115Y-129974386D01*
X190304059Y-129856745D01*
X190158187Y-129757843D01*
X189969578Y-129585709D01*
X189815784Y-129388385D01*
X189697833Y-129170946D01*
X189616757Y-128938465D01*
X189573584Y-128696017D01*
X189569346Y-128448677D01*
X189605073Y-128201518D01*
X189681794Y-127959616D01*
X189760070Y-127796799D01*
X189884884Y-127613077D01*
X190045529Y-127441503D01*
X190232659Y-127290164D01*
X190436930Y-127167145D01*
X190544721Y-127117905D01*
X190711354Y-127055619D01*
X190871902Y-127008682D01*
X191037851Y-126974980D01*
X191220689Y-126952400D01*
X191431903Y-126938826D01*
X191537791Y-126935134D01*
X191829939Y-126933001D01*
X192086632Y-126944987D01*
D15*
X179610000Y-48562779D02*
X179610000Y-48237221D01*
X178590000Y-48562779D02*
X178590000Y-48237221D01*
X179300000Y-60580000D02*
X182900000Y-60580000D01*
X179300000Y-53220000D02*
X182900000Y-53220000D01*
X177420000Y-55100000D02*
X177420000Y-58700000D01*
X184780000Y-55100000D02*
X184780000Y-58700000D01*
X77762779Y-52390000D02*
X77437221Y-52390000D01*
X77762779Y-53410000D02*
X77437221Y-53410000D01*
X94037221Y-45710000D02*
X94362779Y-45710000D01*
X94037221Y-44690000D02*
X94362779Y-44690000D01*
X87400000Y-53320000D02*
X91000000Y-53320000D01*
X92880000Y-55200000D02*
X92880000Y-58800000D01*
X87400000Y-60680000D02*
X91000000Y-60680000D01*
X85520000Y-55200000D02*
X85520000Y-58800000D01*
X71897936Y-66190000D02*
X73102064Y-66190000D01*
X71897936Y-68010000D02*
X73102064Y-68010000D01*
X91890000Y-65497936D02*
X91890000Y-66702064D01*
X93710000Y-65497936D02*
X93710000Y-66702064D01*
D17*
X162975000Y-122855000D02*
X129445000Y-122855000D01*
D10*
X114700000Y-125400000D02*
X114700000Y-64600000D01*
X209700000Y-64600000D02*
X209700000Y-125400000D01*
D17*
X162975000Y-117905000D02*
X129445000Y-117905000D01*
D10*
X209700000Y-125400000D02*
X114700000Y-125400000D01*
D17*
X162975000Y-117905000D02*
X162975000Y-122855000D01*
X129445000Y-122855000D02*
X129445000Y-117905000D01*
D10*
X114700000Y-64600000D02*
X209700000Y-64600000D01*
X209503701Y-122000000D02*
G75*
G03*
X209503701Y-122000000I-3203701J0D01*
G01*
D17*
X163725000Y-121650000D02*
G75*
G03*
X163725000Y-121650000I-100000J0D01*
G01*
D10*
X209504949Y-68010000D02*
G75*
G03*
X209504949Y-68010000I-3204949J0D01*
G01*
X125502202Y-122000000D02*
G75*
G03*
X125502202Y-122000000I-3202202J0D01*
G01*
X125504122Y-67990000D02*
G75*
G03*
X125504122Y-67990000I-3204122J0D01*
G01*
D15*
X98000000Y-119700000D02*
X95000000Y-119700000D01*
X104600000Y-107100000D02*
X107600000Y-107100000D01*
X95000000Y-107100000D02*
X98000000Y-107100000D01*
X107600000Y-119700000D02*
X104600000Y-119700000D01*
X95000000Y-119700000D02*
X95000000Y-107100000D01*
X107600000Y-107100000D02*
X107600000Y-119700000D01*
X69590000Y-72810000D02*
X71090000Y-72810000D01*
X69590000Y-77030000D02*
X68090000Y-77030000D01*
X69590000Y-72810000D02*
X66715000Y-72810000D01*
X69590000Y-77030000D02*
X71090000Y-77030000D01*
X74797936Y-79410000D02*
X76002064Y-79410000D01*
X74797936Y-77590000D02*
X76002064Y-77590000D01*
X81850000Y-76500000D02*
G75*
G03*
X81850000Y-76500000I-950000J0D01*
G01*
X128762779Y-56140000D02*
X128437221Y-56140000D01*
X128762779Y-57160000D02*
X128437221Y-57160000D01*
X111512779Y-57110000D02*
X111187221Y-57110000D01*
X111512779Y-56090000D02*
X111187221Y-56090000D01*
X93760000Y-109402064D02*
X93760000Y-108197936D01*
X91040000Y-109402064D02*
X91040000Y-108197936D01*
X78850000Y-41900000D02*
G75*
G03*
X78850000Y-41900000I-950000J0D01*
G01*
X104237221Y-58810000D02*
X104562779Y-58810000D01*
X104237221Y-57790000D02*
X104562779Y-57790000D01*
X96465000Y-51400000D02*
X96465000Y-54850000D01*
X96465000Y-51400000D02*
X96465000Y-49450000D01*
X105335000Y-51400000D02*
X105335000Y-49450000D01*
X105335000Y-51400000D02*
X105335000Y-53350000D01*
X127110000Y-45937221D02*
X127110000Y-46262779D01*
X126090000Y-45937221D02*
X126090000Y-46262779D01*
X111290000Y-45837221D02*
X111290000Y-46162779D01*
X112310000Y-45837221D02*
X112310000Y-46162779D01*
X80041422Y-93810000D02*
X80558578Y-93810000D01*
X80041422Y-92390000D02*
X80558578Y-92390000D01*
X131060000Y-51500000D02*
X131060000Y-48050000D01*
X125940000Y-51500000D02*
X125940000Y-53450000D01*
X125940000Y-51500000D02*
X125940000Y-49550000D01*
X131060000Y-51500000D02*
X131060000Y-53450000D01*
X132610000Y-55162779D02*
X132610000Y-54837221D01*
X131590000Y-55162779D02*
X131590000Y-54837221D01*
X89962779Y-63990000D02*
X89637221Y-63990000D01*
X89962779Y-65010000D02*
X89637221Y-65010000D01*
X104572779Y-56870000D02*
X104247221Y-56870000D01*
X104572779Y-55850000D02*
X104247221Y-55850000D01*
X106160000Y-44597936D02*
X106160000Y-45802064D01*
X103440000Y-44597936D02*
X103440000Y-45802064D01*
X86100000Y-96500000D02*
X86100000Y-99500000D01*
X73500000Y-109100000D02*
X73500000Y-106100000D01*
X73500000Y-99500000D02*
X73500000Y-96500000D01*
X86100000Y-109100000D02*
X73500000Y-109100000D01*
X73500000Y-96500000D02*
X86100000Y-96500000D01*
X86100000Y-106100000D02*
X86100000Y-109100000D01*
X88937221Y-100110000D02*
X89262779Y-100110000D01*
X88937221Y-99090000D02*
X89262779Y-99090000D01*
X151300000Y-60580000D02*
X154900000Y-60580000D01*
X151300000Y-53220000D02*
X154900000Y-53220000D01*
X156780000Y-55100000D02*
X156780000Y-58700000D01*
X149420000Y-55100000D02*
X149420000Y-58700000D01*
X54620000Y-118420000D02*
X54620000Y-117619000D01*
X54620000Y-103180000D02*
X54620000Y-102379000D01*
X55660000Y-126065000D02*
X55360000Y-125465000D01*
X50060000Y-132260000D02*
X55620000Y-132260000D01*
X54620000Y-105720000D02*
X54620000Y-104919000D01*
X50060000Y-37740000D02*
X55620000Y-37740000D01*
X54620000Y-93020000D02*
X54620000Y-92219000D01*
X54620000Y-72700000D02*
X54620000Y-71899000D01*
X54620000Y-95560000D02*
X54620000Y-94759000D01*
X54620000Y-115880000D02*
X54620000Y-115079000D01*
X54620000Y-60000000D02*
X54620000Y-59199000D01*
X54620000Y-77780000D02*
X54620000Y-76979000D01*
X54620000Y-44760000D02*
X54620000Y-43260000D01*
X54620000Y-57460000D02*
X54620000Y-56659000D01*
X54620000Y-108260000D02*
X54620000Y-107459000D01*
X54620000Y-70160000D02*
X54620000Y-69359000D01*
X54620000Y-80320000D02*
X54620000Y-79519000D01*
X54620000Y-110800000D02*
X54620000Y-109999000D01*
X55620000Y-37740000D02*
X55620000Y-43260000D01*
X54620000Y-54920000D02*
X54620000Y-54119000D01*
X54620000Y-65080000D02*
X54620000Y-64279000D01*
X54620000Y-62540000D02*
X54620000Y-61739000D01*
X54620000Y-90480000D02*
X54620000Y-89679000D01*
X55620000Y-132260000D02*
X55620000Y-126740000D01*
X54620000Y-98100000D02*
X54620000Y-97299000D01*
X55060000Y-126065000D02*
X55660000Y-126065000D01*
X54620000Y-67620000D02*
X54620000Y-66819000D01*
X54620000Y-100640000D02*
X54620000Y-99839000D01*
X54620000Y-75240000D02*
X54620000Y-74439000D01*
X54620000Y-120960000D02*
X54620000Y-120159000D01*
X54620000Y-87940000D02*
X54620000Y-87139000D01*
X54620000Y-126741000D02*
X54620000Y-125465000D01*
X54620000Y-49840000D02*
X54620000Y-49039000D01*
X54620000Y-113340000D02*
X54620000Y-112539000D01*
X54620000Y-85400000D02*
X54620000Y-84599000D01*
X54620000Y-47300000D02*
X54620000Y-46499000D01*
X55620000Y-43260000D02*
X54620000Y-43260000D01*
X54620000Y-82860000D02*
X54620000Y-82059000D01*
X54620000Y-123275000D02*
X54620000Y-122699000D01*
X54620000Y-52380000D02*
X54620000Y-51579000D01*
X55360000Y-125465000D02*
X55060000Y-126065000D01*
X55620000Y-126740000D02*
X54620000Y-126740000D01*
X70897500Y-46201250D02*
X68022500Y-46201250D01*
X70897500Y-46201250D02*
X72397500Y-46201250D01*
X70897500Y-50421250D02*
X72397500Y-50421250D01*
X70897500Y-50421250D02*
X69397500Y-50421250D01*
X66840000Y-61200000D02*
X66840000Y-59250000D01*
X71960000Y-61200000D02*
X71960000Y-59250000D01*
X66840000Y-61200000D02*
X66840000Y-64650000D01*
X71960000Y-61200000D02*
X71960000Y-63150000D01*
X144240000Y-56002064D02*
X144240000Y-54797936D01*
X146960000Y-56002064D02*
X146960000Y-54797936D01*
X124860000Y-56987221D02*
X124860000Y-57312779D01*
X123840000Y-56987221D02*
X123840000Y-57312779D01*
X102710000Y-62862779D02*
X102710000Y-62537221D01*
X101690000Y-62862779D02*
X101690000Y-62537221D01*
X63990000Y-49952064D02*
X63990000Y-48747936D01*
X66710000Y-49952064D02*
X66710000Y-48747936D01*
X62740000Y-75297936D02*
X62740000Y-76502064D01*
X65460000Y-75297936D02*
X65460000Y-76502064D01*
X76810000Y-72502064D02*
X76810000Y-71297936D01*
X74090000Y-72502064D02*
X74090000Y-71297936D01*
X74337221Y-76410000D02*
X74662779Y-76410000D01*
X74337221Y-75390000D02*
X74662779Y-75390000D01*
X101412779Y-60310000D02*
X101087221Y-60310000D01*
X101412779Y-59290000D02*
X101087221Y-59290000D01*
X100390000Y-45737221D02*
X100390000Y-46062779D01*
X101410000Y-45737221D02*
X101410000Y-46062779D01*
X99570000Y-46125000D02*
X99570000Y-41915000D01*
X96550000Y-46125000D02*
X99570000Y-46125000D01*
X96550000Y-41915000D02*
X96550000Y-46125000D01*
X95000000Y-104460000D02*
X93500000Y-104460000D01*
X95000000Y-104460000D02*
X96500000Y-104460000D01*
X95000000Y-100140000D02*
X92125000Y-100140000D01*
X95000000Y-100140000D02*
X96500000Y-100140000D01*
X75240000Y-45487936D02*
X75240000Y-46692064D01*
X77960000Y-45487936D02*
X77960000Y-46692064D01*
X114720000Y-41100000D02*
X114720000Y-44700000D01*
X116600000Y-46580000D02*
X120200000Y-46580000D01*
X122080000Y-41100000D02*
X122080000Y-44700000D01*
X116600000Y-39220000D02*
X120200000Y-39220000D01*
X132102064Y-41440000D02*
X130897936Y-41440000D01*
X132102064Y-44160000D02*
X130897936Y-44160000D01*
X110302064Y-61260000D02*
X109097936Y-61260000D01*
X110302064Y-58540000D02*
X109097936Y-58540000D01*
X186702064Y-49040000D02*
X185497936Y-49040000D01*
X186702064Y-51760000D02*
X185497936Y-51760000D01*
X169610000Y-50062779D02*
X169610000Y-49737221D01*
X168590000Y-50062779D02*
X168590000Y-49737221D01*
X102341422Y-102190000D02*
X102858578Y-102190000D01*
X102341422Y-103610000D02*
X102858578Y-103610000D01*
X174362779Y-43110000D02*
X174037221Y-43110000D01*
X174362779Y-42090000D02*
X174037221Y-42090000D01*
X112460000Y-51400000D02*
X112460000Y-47950000D01*
X112460000Y-51400000D02*
X112460000Y-53350000D01*
X107340000Y-51400000D02*
X107340000Y-49450000D01*
X107340000Y-51400000D02*
X107340000Y-53350000D01*
X180262779Y-45410000D02*
X179937221Y-45410000D01*
X180262779Y-44390000D02*
X179937221Y-44390000D01*
X89262779Y-101710000D02*
X88937221Y-101710000D01*
X89262779Y-100690000D02*
X88937221Y-100690000D01*
X137300000Y-46580000D02*
X140900000Y-46580000D01*
X135420000Y-41100000D02*
X135420000Y-44700000D01*
X137300000Y-39220000D02*
X140900000Y-39220000D01*
X142780000Y-41100000D02*
X142780000Y-44700000D01*
X163420000Y-55100000D02*
X163420000Y-58700000D01*
X170780000Y-55100000D02*
X170780000Y-58700000D01*
X165300000Y-60580000D02*
X168900000Y-60580000D01*
X165300000Y-53220000D02*
X168900000Y-53220000D01*
X97687221Y-56770000D02*
X98012779Y-56770000D01*
X97687221Y-55750000D02*
X98012779Y-55750000D01*
X97687221Y-57390000D02*
X98012779Y-57390000D01*
X97687221Y-58410000D02*
X98012779Y-58410000D01*
X125590000Y-57312779D02*
X125590000Y-56987221D01*
X126610000Y-57312779D02*
X126610000Y-56987221D01*
X116800000Y-60680000D02*
X120400000Y-60680000D01*
X116800000Y-53320000D02*
X120400000Y-53320000D01*
X122280000Y-55200000D02*
X122280000Y-58800000D01*
X114920000Y-55200000D02*
X114920000Y-58800000D01*
X142780000Y-55200000D02*
X142780000Y-58800000D01*
X135420000Y-55200000D02*
X135420000Y-58800000D01*
X137300000Y-53320000D02*
X140900000Y-53320000D01*
X137300000Y-60680000D02*
X140900000Y-60680000D01*
X76441422Y-92390000D02*
X76958578Y-92390000D01*
X76441422Y-93810000D02*
X76958578Y-93810000D01*
X90440000Y-76460000D02*
G75*
G03*
X90440000Y-76460000I-950000J0D01*
G01*
D10*
X66365000Y-89050000D02*
X66365000Y-90650000D01*
X87850000Y-130235000D02*
X89550000Y-130235000D01*
X66365000Y-119150000D02*
X66365000Y-120750000D01*
X66365000Y-107050000D02*
X66365000Y-108750000D01*
X111035000Y-107050000D02*
X111035000Y-108750000D01*
X105950000Y-85565000D02*
X107550000Y-85565000D01*
X111035000Y-89050000D02*
X111035000Y-90650000D01*
X87850000Y-85565000D02*
X89550000Y-85565000D01*
X69850000Y-130235000D02*
X71450000Y-130235000D01*
X111035000Y-125150000D02*
X111035000Y-126750000D01*
X69850000Y-85565000D02*
X71450000Y-85565000D01*
X111035000Y-113150000D02*
X111035000Y-114750000D01*
X111035000Y-95050000D02*
X111035000Y-96650000D01*
X81850000Y-85565000D02*
X83450000Y-85565000D01*
X111035000Y-119150000D02*
X111035000Y-120750000D01*
X111035000Y-101050000D02*
X111035000Y-102650000D01*
X93950000Y-85565000D02*
X95550000Y-85565000D01*
X66365000Y-95050000D02*
X66365000Y-96650000D01*
X99950000Y-85565000D02*
X101550000Y-85565000D01*
X75850000Y-85565000D02*
X77450000Y-85565000D01*
X105950000Y-130235000D02*
X107550000Y-130235000D01*
X99950000Y-130235000D02*
X101550000Y-130235000D01*
X66365000Y-125150000D02*
X66365000Y-126750000D01*
X93950000Y-130235000D02*
X95550000Y-130235000D01*
X66365000Y-113150000D02*
X66365000Y-114750000D01*
X75850000Y-130235000D02*
X77450000Y-130235000D01*
X81850000Y-130235000D02*
X83450000Y-130235000D01*
X66365000Y-101050000D02*
X66365000Y-102650000D01*
D18*
X117404000Y-129900000D02*
G75*
G03*
X117404000Y-129900000I-254000J0D01*
G01*
X119404000Y-127900000D02*
G75*
G03*
X119404000Y-127900000I-254000J0D01*
G01*
X117404000Y-131900000D02*
G75*
G03*
X117404000Y-131900000I-254000J0D01*
G01*
X115404000Y-129900000D02*
G75*
G03*
X115404000Y-129900000I-254000J0D01*
G01*
X119404000Y-131900000D02*
G75*
G03*
X119404000Y-131900000I-254000J0D01*
G01*
X119404000Y-129900000D02*
G75*
G03*
X119404000Y-129900000I-254000J0D01*
G01*
X115404000Y-127900000D02*
G75*
G03*
X115404000Y-127900000I-254000J0D01*
G01*
X117404000Y-127900000D02*
G75*
G03*
X117404000Y-127900000I-254000J0D01*
G01*
X115404000Y-131900000D02*
G75*
G03*
X115404000Y-131900000I-254000J0D01*
G01*
D10*
X81400000Y-65250000D02*
X81400000Y-57630000D01*
X75600000Y-65250000D02*
X81400000Y-65250000D01*
X75600000Y-65250000D02*
X75600000Y-57630000D01*
X80400000Y-65250000D02*
X80400000Y-57630000D01*
X75600000Y-57630000D02*
X81400000Y-57630000D01*
D15*
X101662779Y-98390000D02*
X101337221Y-98390000D01*
X101662779Y-99410000D02*
X101337221Y-99410000D01*
X78202064Y-49990000D02*
X76997936Y-49990000D01*
X78202064Y-51810000D02*
X76997936Y-51810000D01*
X74710000Y-93841422D02*
X74710000Y-94358578D01*
X73290000Y-93841422D02*
X73290000Y-94358578D01*
X100390000Y-57312779D02*
X100390000Y-56987221D01*
X101410000Y-57312779D02*
X101410000Y-56987221D01*
X101662779Y-99890000D02*
X101337221Y-99890000D01*
X101662779Y-100910000D02*
X101337221Y-100910000D01*
X159240000Y-58587221D02*
X159240000Y-58912779D01*
X160260000Y-58587221D02*
X160260000Y-58912779D01*
X87010000Y-65049721D02*
X87010000Y-65375279D01*
X85990000Y-65049721D02*
X85990000Y-65375279D01*
X58300000Y-128100000D02*
X58300000Y-129500000D01*
X57000000Y-127400000D02*
X57600000Y-127400000D01*
X56300000Y-129500000D02*
X56300000Y-128100000D01*
X57600000Y-130200000D02*
X57000000Y-130200000D01*
X58300000Y-128100000D02*
G75*
G03*
X57600000Y-127400000I-699999J1D01*
G01*
X57000000Y-127400000D02*
G75*
G03*
X56300000Y-128100000I-1J-699999D01*
G01*
X56300000Y-129500000D02*
G75*
G03*
X57000000Y-130200000I699999J-1D01*
G01*
X57600000Y-130200000D02*
G75*
G03*
X58300000Y-129500000I1J699999D01*
G01*
X57700000Y-38100000D02*
X58300000Y-38100000D01*
X58300000Y-40900000D02*
X57700000Y-40900000D01*
X59000000Y-38800000D02*
X59000000Y-40200000D01*
X57000000Y-40200000D02*
X57000000Y-38800000D01*
X58300000Y-40900000D02*
G75*
G03*
X59000000Y-40200000I1J699999D01*
G01*
X59000000Y-38800000D02*
G75*
G03*
X58300000Y-38100000I-699999J1D01*
G01*
X57700000Y-38100000D02*
G75*
G03*
X57000000Y-38800000I-1J-699999D01*
G01*
X57000000Y-40200000D02*
G75*
G03*
X57700000Y-40900000I699999J-1D01*
G01*
X59000000Y-129500000D02*
X59000000Y-128100000D01*
X59700000Y-127400000D02*
X60300000Y-127400000D01*
X60300000Y-130200000D02*
X59700000Y-130200000D01*
X61000000Y-128100000D02*
X61000000Y-129500000D01*
X60300000Y-130200000D02*
G75*
G03*
X61000000Y-129500000I1J699999D01*
G01*
X59700000Y-127400000D02*
G75*
G03*
X59000000Y-128100000I-1J-699999D01*
G01*
X61000000Y-128100000D02*
G75*
G03*
X60300000Y-127400000I-699999J1D01*
G01*
X59000000Y-129500000D02*
G75*
G03*
X59700000Y-130200000I699999J-1D01*
G01*
X65500000Y-119000000D02*
X65500000Y-119600000D01*
X62700000Y-119600000D02*
X62700000Y-119000000D01*
X63400000Y-118300000D02*
X64800000Y-118300000D01*
X64800000Y-120300000D02*
X63400000Y-120300000D01*
X65500000Y-119000000D02*
G75*
G03*
X64800000Y-118300000I-699999J1D01*
G01*
X63400000Y-118300000D02*
G75*
G03*
X62700000Y-119000000I-1J-699999D01*
G01*
X62700000Y-119600000D02*
G75*
G03*
X63400000Y-120300000I699999J-1D01*
G01*
X64800000Y-120300000D02*
G75*
G03*
X65500000Y-119600000I1J699999D01*
G01*
X62700000Y-122700000D02*
X62700000Y-122100000D01*
X63400000Y-121400000D02*
X64800000Y-121400000D01*
X64800000Y-123400000D02*
X63400000Y-123400000D01*
X65500000Y-122100000D02*
X65500000Y-122700000D01*
X65500000Y-122100000D02*
G75*
G03*
X64800000Y-121400000I-699999J1D01*
G01*
X64800000Y-123400000D02*
G75*
G03*
X65500000Y-122700000I1J699999D01*
G01*
X63400000Y-121400000D02*
G75*
G03*
X62700000Y-122100000I-1J-699999D01*
G01*
X62700000Y-122700000D02*
G75*
G03*
X63400000Y-123400000I699999J-1D01*
G01*
X62950000Y-40250000D02*
X61550000Y-40250000D01*
X63650000Y-38950000D02*
X63650000Y-39550000D01*
X61550000Y-38250000D02*
X62950000Y-38250000D01*
X60850000Y-39550000D02*
X60850000Y-38950000D01*
X62950000Y-40250000D02*
G75*
G03*
X63650000Y-39550000I1J699999D01*
G01*
X60850000Y-39550000D02*
G75*
G03*
X61550000Y-40250000I699999J-1D01*
G01*
X63650000Y-38950000D02*
G75*
G03*
X62950000Y-38250000I-699999J1D01*
G01*
X61550000Y-38250000D02*
G75*
G03*
X60850000Y-38950000I-1J-699999D01*
G01*
X60850000Y-42050000D02*
X60850000Y-41450000D01*
X62950000Y-42750000D02*
X61550000Y-42750000D01*
X63650000Y-41450000D02*
X63650000Y-42050000D01*
X61550000Y-40750000D02*
X62950000Y-40750000D01*
X62950000Y-42750000D02*
G75*
G03*
X63650000Y-42050000I1J699999D01*
G01*
X60850000Y-42050000D02*
G75*
G03*
X61550000Y-42750000I699999J-1D01*
G01*
X61550000Y-40750000D02*
G75*
G03*
X60850000Y-41450000I-1J-699999D01*
G01*
X63650000Y-41450000D02*
G75*
G03*
X62950000Y-40750000I-699999J1D01*
G01*
X81304500Y-73356600D02*
X81304500Y-70806600D01*
X79604500Y-73356600D02*
X79604500Y-70806600D01*
X79604500Y-73356600D02*
X81304500Y-73356600D01*
X63099000Y-68310000D02*
X65260000Y-68310000D01*
X67340000Y-68510000D02*
X69522000Y-68510000D01*
X64524000Y-66029000D02*
X68076000Y-66029000D01*
X67340000Y-67389000D02*
X69234000Y-67389000D01*
X67340000Y-68350000D02*
X69506000Y-68350000D01*
X63534000Y-67069000D02*
X65260000Y-67069000D01*
X64461000Y-72250241D02*
X64461000Y-71620241D01*
X63118000Y-68190000D02*
X65260000Y-68190000D01*
X63070000Y-68750000D02*
X69530000Y-68750000D01*
X64305000Y-66189000D02*
X68295000Y-66189000D01*
X67340000Y-67869000D02*
X69410000Y-67869000D01*
X63693000Y-66829000D02*
X65260000Y-66829000D01*
X67340000Y-66789000D02*
X68878000Y-66789000D01*
X67340000Y-68110000D02*
X69467000Y-68110000D01*
X63610000Y-66949000D02*
X65260000Y-66949000D01*
X63267000Y-67629000D02*
X65260000Y-67629000D01*
X64410000Y-66109000D02*
X68190000Y-66109000D01*
X63920000Y-66549000D02*
X65260000Y-66549000D01*
X63125000Y-68150000D02*
X65260000Y-68150000D01*
X67340000Y-67989000D02*
X69441000Y-67989000D01*
X67340000Y-68230000D02*
X69489000Y-68230000D01*
X63159000Y-67989000D02*
X65260000Y-67989000D01*
X64163000Y-66309000D02*
X68437000Y-66309000D01*
X64466000Y-66069000D02*
X68134000Y-66069000D01*
X67340000Y-67949000D02*
X69431000Y-67949000D01*
X67340000Y-66469000D02*
X68605000Y-66469000D01*
X63239000Y-67709000D02*
X65260000Y-67709000D01*
X67340000Y-67269000D02*
X69176000Y-67269000D01*
X67340000Y-67109000D02*
X69090000Y-67109000D01*
X63190000Y-67869000D02*
X65260000Y-67869000D01*
X67340000Y-66669000D02*
X68784000Y-66669000D01*
X67340000Y-67509000D02*
X69286000Y-67509000D01*
X63424000Y-67269000D02*
X65260000Y-67269000D01*
X65360000Y-65629000D02*
X67240000Y-65629000D01*
X67340000Y-68150000D02*
X69475000Y-68150000D01*
X64356000Y-66149000D02*
X68244000Y-66149000D01*
X63141000Y-68070000D02*
X65260000Y-68070000D01*
X67340000Y-67789000D02*
X69386000Y-67789000D01*
X63169000Y-67949000D02*
X65260000Y-67949000D01*
X63636000Y-66909000D02*
X65260000Y-66909000D01*
X67340000Y-67229000D02*
X69156000Y-67229000D01*
X67340000Y-67709000D02*
X69361000Y-67709000D01*
X63105000Y-68270000D02*
X65260000Y-68270000D01*
X67340000Y-67589000D02*
X69318000Y-67589000D01*
X63995000Y-66469000D02*
X65260000Y-66469000D01*
X67340000Y-67349000D02*
X69216000Y-67349000D01*
X63226000Y-67749000D02*
X65260000Y-67749000D01*
X64586000Y-65989000D02*
X68014000Y-65989000D01*
X63082000Y-68470000D02*
X65260000Y-68470000D01*
X67340000Y-66709000D02*
X68816000Y-66709000D01*
X67340000Y-68390000D02*
X69511000Y-68390000D01*
X63202000Y-67829000D02*
X65260000Y-67829000D01*
X67340000Y-68470000D02*
X69518000Y-68470000D01*
X63384000Y-67349000D02*
X65260000Y-67349000D01*
X64118000Y-66349000D02*
X68482000Y-66349000D01*
X67340000Y-66549000D02*
X68680000Y-66549000D01*
X64035000Y-66429000D02*
X68565000Y-66429000D01*
X67340000Y-66629000D02*
X68750000Y-66629000D01*
X63314000Y-67509000D02*
X65260000Y-67509000D01*
X67340000Y-66909000D02*
X68964000Y-66909000D01*
X63253000Y-67669000D02*
X65260000Y-67669000D01*
X63330000Y-67469000D02*
X65260000Y-67469000D01*
X67340000Y-67149000D02*
X69112000Y-67149000D01*
X67340000Y-68310000D02*
X69501000Y-68310000D01*
X64208000Y-66269000D02*
X68392000Y-66269000D01*
X63584000Y-66989000D02*
X65260000Y-66989000D01*
X67340000Y-67189000D02*
X69134000Y-67189000D01*
X63298000Y-67549000D02*
X65260000Y-67549000D01*
X63957000Y-66509000D02*
X65260000Y-66509000D01*
X67340000Y-66749000D02*
X68848000Y-66749000D01*
X65498000Y-65589000D02*
X67102000Y-65589000D01*
X63366000Y-67389000D02*
X65260000Y-67389000D01*
X65898000Y-65509000D02*
X66702000Y-65509000D01*
X67340000Y-68430000D02*
X69515000Y-68430000D01*
X67340000Y-67749000D02*
X69374000Y-67749000D01*
X63752000Y-66749000D02*
X65260000Y-66749000D01*
X63070000Y-68670000D02*
X69530000Y-68670000D01*
X67340000Y-67669000D02*
X69347000Y-67669000D01*
X64146000Y-71935241D02*
X64776000Y-71935241D01*
X67340000Y-68190000D02*
X69482000Y-68190000D01*
X63078000Y-68510000D02*
X65260000Y-68510000D01*
X64076000Y-66389000D02*
X68524000Y-66389000D01*
X67340000Y-66589000D02*
X68716000Y-66589000D01*
X67340000Y-67549000D02*
X69302000Y-67549000D01*
X63722000Y-66789000D02*
X65260000Y-66789000D01*
X63070000Y-68710000D02*
X69530000Y-68710000D01*
X64868000Y-65829000D02*
X67732000Y-65829000D01*
X63784000Y-66709000D02*
X65260000Y-66709000D01*
X63179000Y-67909000D02*
X65260000Y-67909000D01*
X65667000Y-65549000D02*
X66933000Y-65549000D01*
X67340000Y-66949000D02*
X68990000Y-66949000D01*
X65241000Y-65669000D02*
X67359000Y-65669000D01*
X63488000Y-67149000D02*
X65260000Y-67149000D01*
X64791000Y-65869000D02*
X67809000Y-65869000D01*
X63884000Y-66589000D02*
X65260000Y-66589000D01*
X67340000Y-68029000D02*
X69450000Y-68029000D01*
X67340000Y-67029000D02*
X69042000Y-67029000D01*
X63282000Y-67589000D02*
X65260000Y-67589000D01*
X63348000Y-67429000D02*
X65260000Y-67429000D01*
X64256000Y-66229000D02*
X68344000Y-66229000D01*
X63133000Y-68110000D02*
X65260000Y-68110000D01*
X63444000Y-67229000D02*
X65260000Y-67229000D01*
X67340000Y-68270000D02*
X69495000Y-68270000D01*
X63085000Y-68430000D02*
X65260000Y-68430000D01*
X63404000Y-67309000D02*
X65260000Y-67309000D01*
X67340000Y-66509000D02*
X68643000Y-66509000D01*
X63076000Y-68550000D02*
X69524000Y-68550000D01*
X65135000Y-65709000D02*
X67465000Y-65709000D01*
X63111000Y-68230000D02*
X65260000Y-68230000D01*
X63073000Y-68590000D02*
X69527000Y-68590000D01*
X63150000Y-68029000D02*
X65260000Y-68029000D01*
X67340000Y-67069000D02*
X69066000Y-67069000D01*
X63816000Y-66669000D02*
X65260000Y-66669000D01*
X63466000Y-67189000D02*
X65260000Y-67189000D01*
X67340000Y-66989000D02*
X69016000Y-66989000D01*
X63089000Y-68390000D02*
X65260000Y-68390000D01*
X63558000Y-67029000D02*
X65260000Y-67029000D01*
X63094000Y-68350000D02*
X65260000Y-68350000D01*
X63072000Y-68630000D02*
X69528000Y-68630000D01*
X63850000Y-66629000D02*
X65260000Y-66629000D01*
X63214000Y-67789000D02*
X65260000Y-67789000D01*
X67340000Y-67309000D02*
X69196000Y-67309000D01*
X64650000Y-65949000D02*
X67950000Y-65949000D01*
X67340000Y-66829000D02*
X68907000Y-66829000D01*
X67340000Y-67469000D02*
X69270000Y-67469000D01*
X67340000Y-67829000D02*
X69398000Y-67829000D01*
X65038000Y-65749000D02*
X67562000Y-65749000D01*
X67340000Y-67629000D02*
X69333000Y-67629000D01*
X67340000Y-66869000D02*
X68936000Y-66869000D01*
X63510000Y-67109000D02*
X65260000Y-67109000D01*
X64950000Y-65789000D02*
X67650000Y-65789000D01*
X67340000Y-67429000D02*
X69252000Y-67429000D01*
X64719000Y-65909000D02*
X67881000Y-65909000D01*
X67340000Y-67909000D02*
X69421000Y-67909000D01*
X67340000Y-68070000D02*
X69459000Y-68070000D01*
X63664000Y-66869000D02*
X65260000Y-66869000D01*
X69570000Y-68750000D02*
G75*
G03*
X69570000Y-68750000I-3270000J0D01*
G01*
X67560000Y-41290000D02*
X65378000Y-41290000D01*
X71534000Y-42411000D02*
X69640000Y-42411000D01*
X71827000Y-41210000D02*
X65373000Y-41210000D01*
X67560000Y-41610000D02*
X65418000Y-41610000D01*
X67560000Y-42851000D02*
X65910000Y-42851000D01*
X71775000Y-41650000D02*
X69640000Y-41650000D01*
X71476000Y-42531000D02*
X69640000Y-42531000D01*
X67560000Y-41370000D02*
X65385000Y-41370000D01*
X67560000Y-42891000D02*
X65936000Y-42891000D01*
X70250000Y-43851000D02*
X66950000Y-43851000D01*
X67560000Y-43011000D02*
X66022000Y-43011000D01*
X67560000Y-41931000D02*
X65490000Y-41931000D01*
X71516000Y-42451000D02*
X69640000Y-42451000D01*
X70181000Y-43891000D02*
X67019000Y-43891000D01*
X69950000Y-44011000D02*
X67250000Y-44011000D01*
X67560000Y-42571000D02*
X65744000Y-42571000D01*
X67560000Y-42731000D02*
X65834000Y-42731000D01*
X67560000Y-41450000D02*
X65394000Y-41450000D01*
X69540000Y-44171000D02*
X67660000Y-44171000D01*
X67560000Y-42211000D02*
X65582000Y-42211000D01*
X70490000Y-43691000D02*
X66710000Y-43691000D01*
X71618000Y-42211000D02*
X69640000Y-42211000D01*
X71721000Y-41891000D02*
X69640000Y-41891000D01*
X70595000Y-43611000D02*
X66605000Y-43611000D01*
X67560000Y-41730000D02*
X65441000Y-41730000D01*
X71316000Y-42811000D02*
X69640000Y-42811000D01*
X67560000Y-41570000D02*
X65411000Y-41570000D01*
X67560000Y-41530000D02*
X65405000Y-41530000D01*
X71759000Y-41730000D02*
X69640000Y-41730000D01*
X67560000Y-42491000D02*
X65704000Y-42491000D01*
X67560000Y-42971000D02*
X65993000Y-42971000D01*
X71264000Y-42891000D02*
X69640000Y-42891000D01*
X71570000Y-42331000D02*
X69640000Y-42331000D01*
X70434000Y-43731000D02*
X66766000Y-43731000D01*
X69002000Y-44291000D02*
X68198000Y-44291000D01*
X71236000Y-42931000D02*
X69640000Y-42931000D01*
X71686000Y-42011000D02*
X69640000Y-42011000D01*
X67560000Y-43051000D02*
X66052000Y-43051000D01*
X67560000Y-43211000D02*
X66184000Y-43211000D01*
X67560000Y-43331000D02*
X66295000Y-43331000D01*
X71342000Y-42771000D02*
X69640000Y-42771000D01*
X71710000Y-41931000D02*
X69640000Y-41931000D01*
X71830000Y-41050000D02*
X65370000Y-41050000D01*
X71412000Y-42651000D02*
X69640000Y-42651000D01*
X71116000Y-43091000D02*
X69640000Y-43091000D01*
X71818000Y-41330000D02*
X69640000Y-41330000D01*
X67560000Y-41811000D02*
X65459000Y-41811000D01*
X71016000Y-43211000D02*
X69640000Y-43211000D01*
X70439000Y-37549759D02*
X70439000Y-38179759D01*
X70980000Y-43251000D02*
X69640000Y-43251000D01*
X71050000Y-43171000D02*
X69640000Y-43171000D01*
X67560000Y-42651000D02*
X65788000Y-42651000D01*
X70644000Y-43571000D02*
X66556000Y-43571000D01*
X67560000Y-42171000D02*
X65567000Y-42171000D01*
X70865000Y-43371000D02*
X66335000Y-43371000D01*
X71824000Y-41250000D02*
X65376000Y-41250000D01*
X67560000Y-42091000D02*
X65539000Y-42091000D01*
X67560000Y-43251000D02*
X66220000Y-43251000D01*
X71830000Y-41090000D02*
X65370000Y-41090000D01*
X69765000Y-44091000D02*
X67435000Y-44091000D01*
X67560000Y-42931000D02*
X65964000Y-42931000D01*
X67560000Y-42051000D02*
X65526000Y-42051000D01*
X70032000Y-43971000D02*
X67168000Y-43971000D01*
X67560000Y-42011000D02*
X65514000Y-42011000D01*
X70376000Y-43771000D02*
X66824000Y-43771000D01*
X69233000Y-44251000D02*
X67967000Y-44251000D01*
X67560000Y-42811000D02*
X65884000Y-42811000D01*
X71767000Y-41690000D02*
X69640000Y-41690000D01*
X71390000Y-42691000D02*
X69640000Y-42691000D01*
X71822000Y-41290000D02*
X69640000Y-41290000D01*
X67560000Y-42331000D02*
X65630000Y-42331000D01*
X71552000Y-42371000D02*
X69640000Y-42371000D01*
X71741000Y-41811000D02*
X69640000Y-41811000D01*
X67560000Y-42611000D02*
X65766000Y-42611000D01*
X70314000Y-43811000D02*
X66886000Y-43811000D01*
X71633000Y-42171000D02*
X69640000Y-42171000D01*
X71806000Y-41450000D02*
X69640000Y-41450000D01*
X71434000Y-42611000D02*
X69640000Y-42611000D01*
X71661000Y-42091000D02*
X69640000Y-42091000D01*
X67560000Y-41410000D02*
X65389000Y-41410000D01*
X67560000Y-43091000D02*
X66084000Y-43091000D01*
X67560000Y-41771000D02*
X65450000Y-41771000D01*
X67560000Y-41971000D02*
X65502000Y-41971000D01*
X70905000Y-43331000D02*
X69640000Y-43331000D01*
X69862000Y-44051000D02*
X67338000Y-44051000D01*
X71731000Y-41851000D02*
X69640000Y-41851000D01*
X67560000Y-42131000D02*
X65553000Y-42131000D01*
X67560000Y-41650000D02*
X65425000Y-41650000D01*
X69659000Y-44131000D02*
X67541000Y-44131000D01*
X71830000Y-41130000D02*
X65370000Y-41130000D01*
X67560000Y-42451000D02*
X65684000Y-42451000D01*
X71698000Y-41971000D02*
X69640000Y-41971000D01*
X71811000Y-41410000D02*
X69640000Y-41410000D01*
X71207000Y-42971000D02*
X69640000Y-42971000D01*
X67560000Y-43291000D02*
X66257000Y-43291000D01*
X71290000Y-42851000D02*
X69640000Y-42851000D01*
X67560000Y-41851000D02*
X65469000Y-41851000D01*
X67560000Y-42251000D02*
X65598000Y-42251000D01*
X71148000Y-43051000D02*
X69640000Y-43051000D01*
X71782000Y-41610000D02*
X69640000Y-41610000D01*
X71815000Y-41370000D02*
X69640000Y-41370000D01*
X67560000Y-41330000D02*
X65382000Y-41330000D01*
X67560000Y-43171000D02*
X66150000Y-43171000D01*
X71178000Y-43011000D02*
X69640000Y-43011000D01*
X67560000Y-41690000D02*
X65433000Y-41690000D01*
X70737000Y-43491000D02*
X66463000Y-43491000D01*
X70824000Y-43411000D02*
X66376000Y-43411000D01*
X67560000Y-42531000D02*
X65724000Y-42531000D01*
X70782000Y-43451000D02*
X66418000Y-43451000D01*
X71602000Y-42251000D02*
X69640000Y-42251000D01*
X71795000Y-41530000D02*
X69640000Y-41530000D01*
X69402000Y-44211000D02*
X67798000Y-44211000D01*
X71828000Y-41170000D02*
X65372000Y-41170000D01*
X67560000Y-42291000D02*
X65614000Y-42291000D01*
X71750000Y-41771000D02*
X69640000Y-41771000D01*
X71366000Y-42731000D02*
X69640000Y-42731000D01*
X70943000Y-43291000D02*
X69640000Y-43291000D01*
X67560000Y-43131000D02*
X66116000Y-43131000D01*
X70754000Y-37864759D02*
X70124000Y-37864759D01*
X67560000Y-42371000D02*
X65648000Y-42371000D01*
X71789000Y-41570000D02*
X69640000Y-41570000D01*
X71084000Y-43131000D02*
X69640000Y-43131000D01*
X71674000Y-42051000D02*
X69640000Y-42051000D01*
X67560000Y-41490000D02*
X65399000Y-41490000D01*
X67560000Y-42691000D02*
X65810000Y-42691000D01*
X70109000Y-43931000D02*
X67091000Y-43931000D01*
X67560000Y-42411000D02*
X65666000Y-42411000D01*
X71456000Y-42571000D02*
X69640000Y-42571000D01*
X67560000Y-41891000D02*
X65479000Y-41891000D01*
X71801000Y-41490000D02*
X69640000Y-41490000D01*
X71586000Y-42291000D02*
X69640000Y-42291000D01*
X71496000Y-42491000D02*
X69640000Y-42491000D01*
X71647000Y-42131000D02*
X69640000Y-42131000D01*
X70544000Y-43651000D02*
X66656000Y-43651000D01*
X70692000Y-43531000D02*
X66508000Y-43531000D01*
X67560000Y-42771000D02*
X65858000Y-42771000D01*
X71870000Y-41050000D02*
G75*
G03*
X71870000Y-41050000I-3270000J0D01*
G01*
X68450000Y-122350000D02*
X74150000Y-122350000D01*
X68450000Y-118050000D02*
X68450000Y-122350000D01*
X68450000Y-118050000D02*
X74150000Y-118050000D01*
X69850000Y-56950000D02*
X64150000Y-56950000D01*
X69850000Y-52650000D02*
X64150000Y-52650000D01*
X69850000Y-56950000D02*
X69850000Y-52650000D01*
X169622500Y-42862742D02*
X169622500Y-43337258D01*
X168577500Y-42862742D02*
X168577500Y-43337258D01*
X161077500Y-39537258D02*
X161077500Y-39062742D01*
X162122500Y-39537258D02*
X162122500Y-39062742D01*
X168577500Y-46637258D02*
X168577500Y-46162742D01*
X169622500Y-46637258D02*
X169622500Y-46162742D01*
X170450000Y-37690000D02*
X166240000Y-37690000D01*
X166240000Y-37690000D02*
X166240000Y-40710000D01*
X166240000Y-40710000D02*
X170450000Y-40710000D01*
X164177500Y-39537258D02*
X164177500Y-39062742D01*
X165222500Y-39537258D02*
X165222500Y-39062742D01*
X164677500Y-49562742D02*
X164677500Y-50037258D01*
X165722500Y-49562742D02*
X165722500Y-50037258D01*
X164637258Y-47622500D02*
X164162742Y-47622500D01*
X164637258Y-46577500D02*
X164162742Y-46577500D01*
M02*
